%TF.GenerationSoftware,KiCad,Pcbnew,9.0.0*%
%TF.CreationDate,2025-05-27T11:33:04+06:00*%
%TF.ProjectId,devboard,64657662-6f61-4726-942e-6b696361645f,rev?*%
%TF.SameCoordinates,Original*%
%TF.FileFunction,Copper,L2,Bot*%
%TF.FilePolarity,Positive*%
%FSLAX46Y46*%
G04 Gerber Fmt 4.6, Leading zero omitted, Abs format (unit mm)*
G04 Created by KiCad (PCBNEW 9.0.0) date 2025-05-27 11:33:04*
%MOMM*%
%LPD*%
G01*
G04 APERTURE LIST*
%TA.AperFunction,Conductor*%
%ADD10C,0.200000*%
%TD*%
%TA.AperFunction,ComponentPad*%
%ADD11R,1.700000X1.700000*%
%TD*%
%TA.AperFunction,ComponentPad*%
%ADD12C,1.700000*%
%TD*%
%TA.AperFunction,ViaPad*%
%ADD13C,0.600000*%
%TD*%
G04 APERTURE END LIST*
D10*
%TO.N,GND*%
X139700000Y-76200000D02*
X141732000Y-76200000D01*
%TD*%
D11*
%TO.P,J3,1,Pin_1*%
%TO.N,GND*%
X139700000Y-66040000D03*
D12*
%TO.P,J3,2,Pin_2*%
%TO.N,VCC_3.3V*%
X139700000Y-68580000D03*
%TO.P,J3,3,Pin_3*%
%TO.N,BTN_BOOT*%
X139700000Y-71120000D03*
%TO.P,J3,4,Pin_4*%
%TO.N,BTN_RST*%
X139700000Y-73660000D03*
%TO.P,J3,5,Pin_5*%
%TO.N,GND*%
X139700000Y-76200000D03*
%TO.P,J3,6,Pin_6*%
%TO.N,CS*%
X139700000Y-78740000D03*
%TO.P,J3,7,Pin_7*%
%TO.N,GND*%
X139700000Y-81280000D03*
%TO.P,J3,8,Pin_8*%
%TO.N,MOSI*%
X139700000Y-83820000D03*
%TO.P,J3,9,Pin_9*%
%TO.N,MISO*%
X139700000Y-86360000D03*
%TO.P,J3,10,Pin_10*%
%TO.N,SCK*%
X139700000Y-88900000D03*
%TO.P,J3,11,Pin_11*%
%TO.N,GND*%
X139700000Y-91440000D03*
%TO.P,J3,12,Pin_12*%
%TO.N,TXD1*%
X139700000Y-93980000D03*
%TO.P,J3,13,Pin_13*%
%TO.N,RXD1*%
X139700000Y-96520000D03*
%TO.P,J3,14,Pin_14*%
%TO.N,GND*%
X139700000Y-99060000D03*
%TO.P,J3,15,Pin_15*%
%TO.N,14*%
X139700000Y-101600000D03*
%TO.P,J3,16,Pin_16*%
%TO.N,15*%
X139700000Y-104140000D03*
%TD*%
D11*
%TO.P,J4,1,Pin_1*%
%TO.N,GND*%
X162560000Y-66040000D03*
D12*
%TO.P,J4,2,Pin_2*%
X162560000Y-68580000D03*
%TO.P,J4,3,Pin_3*%
%TO.N,1*%
X162560000Y-71120000D03*
%TO.P,J4,4,Pin_4*%
%TO.N,2*%
X162560000Y-73660000D03*
%TO.P,J4,5,Pin_5*%
%TO.N,3*%
X162560000Y-76200000D03*
%TO.P,J4,6,Pin_6*%
%TO.N,4*%
X162560000Y-78740000D03*
%TO.P,J4,7,Pin_7*%
%TO.N,5*%
X162560000Y-81280000D03*
%TO.P,J4,8,Pin_8*%
%TO.N,6*%
X162560000Y-83820000D03*
%TO.P,J4,9,Pin_9*%
%TO.N,7*%
X162560000Y-86360000D03*
%TO.P,J4,10,Pin_10*%
%TO.N,8*%
X162560000Y-88900000D03*
%TO.P,J4,11,Pin_11*%
%TO.N,9*%
X162560000Y-91440000D03*
%TO.P,J4,12,Pin_12*%
%TO.N,GND*%
X162560000Y-93980000D03*
%TO.P,J4,13,Pin_13*%
%TO.N,VCC_5V*%
X162560000Y-96520000D03*
%TO.P,J4,14,Pin_14*%
%TO.N,EXT_D+*%
X162560000Y-99060000D03*
%TO.P,J4,15,Pin_15*%
%TO.N,EXT_D-*%
X162560000Y-101600000D03*
%TO.P,J4,16,Pin_16*%
%TO.N,GND*%
X162560000Y-104140000D03*
%TD*%
D13*
%TO.N,GND*%
X153500000Y-104522000D03*
X150000000Y-102500000D03*
X148000000Y-95500000D03*
X145500000Y-98000000D03*
X157500000Y-92000000D03*
X155000000Y-90500000D03*
X145000000Y-85000000D03*
X155000000Y-81000000D03*
X151500000Y-82500000D03*
X156000000Y-78000000D03*
X150500000Y-78000000D03*
X145500000Y-78000000D03*
%TO.N,1*%
X147563638Y-69812064D03*
%TO.N,2*%
X147574000Y-70612000D03*
%TO.N,8*%
X147574000Y-75184000D03*
%TO.N,4*%
X147574000Y-72136000D03*
%TO.N,5*%
X147574000Y-72898000D03*
%TO.N,7*%
X147574000Y-74422000D03*
%TO.N,6*%
X147574000Y-73660000D03*
%TO.N,GND*%
X157480000Y-93472000D03*
X155000000Y-94150265D03*
X142748000Y-94996000D03*
X142621000Y-88519000D03*
X145542000Y-67271997D03*
X142621000Y-81661000D03*
X148830000Y-81788000D03*
%TO.N,Net-(J1-CC2)*%
X152908000Y-101600000D03*
X142748000Y-103886000D03*
%TO.N,VCC_5V*%
X147320000Y-97282000D03*
X154940000Y-98552000D03*
X153670000Y-84328000D03*
X149379750Y-88927750D03*
%TO.N,VCC_3.3V*%
X145542000Y-68072000D03*
X147574000Y-81534000D03*
%TO.N,BTN_RST*%
X156718000Y-66548000D03*
X153162000Y-94996000D03*
%TO.N,BTN_BOOT*%
X149225000Y-94869000D03*
X145542000Y-68914558D03*
%TO.N,9*%
X147574000Y-75946000D03*
%TO.N,3*%
X147574000Y-71374000D03*
%TO.N,RXD1*%
X150280000Y-80606000D03*
%TO.N,TXD1*%
X149430000Y-80694000D03*
%TD*%
D10*
%TO.N,VCC_5V*%
X147320000Y-97282000D02*
X147828000Y-97282000D01*
X154388000Y-98000000D02*
X154940000Y-98552000D01*
X147828000Y-97282000D02*
X148546000Y-98000000D01*
X148546000Y-98000000D02*
X154388000Y-98000000D01*
%TO.N,GND*%
X155531735Y-94150265D02*
X156210000Y-93472000D01*
X155000000Y-94150265D02*
X155531735Y-94150265D01*
X156210000Y-93472000D02*
X157480000Y-93472000D01*
%TO.N,1*%
X147563638Y-69812064D02*
X147601574Y-69850000D01*
X147601574Y-69850000D02*
X161290000Y-69850000D01*
X161290000Y-69850000D02*
X162560000Y-71120000D01*
%TO.N,2*%
X161290000Y-73660000D02*
X158242000Y-70612000D01*
X158242000Y-70612000D02*
X147574000Y-70612000D01*
X162560000Y-73660000D02*
X161290000Y-73660000D01*
%TO.N,8*%
X159245900Y-76200822D02*
X159245900Y-85585900D01*
X147574000Y-75184000D02*
X158229078Y-75184000D01*
X158229078Y-75184000D02*
X159245900Y-76200822D01*
X159245900Y-85585900D02*
X162560000Y-88900000D01*
%TO.N,4*%
X162560000Y-77978000D02*
X162560000Y-78740000D01*
X160849900Y-77029900D02*
X162560000Y-78740000D01*
X147574000Y-72136000D02*
X158242000Y-72136000D01*
X158242000Y-72136000D02*
X160849900Y-74743900D01*
X160849900Y-74743900D02*
X160849900Y-77029900D01*
%TO.N,5*%
X160448900Y-75104900D02*
X160448900Y-79168900D01*
X160448900Y-79168900D02*
X162560000Y-81280000D01*
X147574000Y-72898000D02*
X158242000Y-72898000D01*
X158242000Y-72898000D02*
X160448900Y-75104900D01*
%TO.N,7*%
X159646900Y-75826900D02*
X159646900Y-83446900D01*
X158242000Y-74422000D02*
X159646900Y-75826900D01*
X147574000Y-74422000D02*
X158242000Y-74422000D01*
X159646900Y-83446900D02*
X162560000Y-86360000D01*
%TO.N,6*%
X158242000Y-73660000D02*
X160047900Y-75465900D01*
X147574000Y-73660000D02*
X158242000Y-73660000D01*
X160047900Y-75465900D02*
X160047900Y-81307900D01*
X160047900Y-81307900D02*
X162560000Y-83820000D01*
%TO.N,GND*%
X144957835Y-67191265D02*
X141732000Y-70417100D01*
X145288000Y-67191265D02*
X144957835Y-67191265D01*
X145368732Y-67271997D02*
X145288000Y-67191265D01*
X143256000Y-82296000D02*
X142621000Y-81661000D01*
X139700000Y-99060000D02*
X141986000Y-96774000D01*
X141732000Y-80772000D02*
X142621000Y-81661000D01*
X142621000Y-81661000D02*
X141605000Y-81661000D01*
X141986000Y-96774000D02*
X141986000Y-95758000D01*
X142621000Y-81661000D02*
X142621000Y-88519000D01*
X141224000Y-81280000D02*
X139700000Y-81280000D01*
X141732000Y-70417100D02*
X141732000Y-80772000D01*
X148082000Y-82296000D02*
X143256000Y-82296000D01*
X141605000Y-81661000D02*
X141224000Y-81280000D01*
X141986000Y-95758000D02*
X142748000Y-94996000D01*
X145542000Y-67271997D02*
X145368732Y-67271997D01*
X148590000Y-81788000D02*
X148082000Y-82296000D01*
X142621000Y-88519000D02*
X139700000Y-91440000D01*
X148830000Y-81788000D02*
X148590000Y-81788000D01*
%TO.N,Net-(J1-CC2)*%
X142748000Y-103886000D02*
X150622000Y-103886000D01*
X150622000Y-103886000D02*
X152908000Y-101600000D01*
%TO.N,VCC_5V*%
X154940000Y-98552000D02*
X160528000Y-98552000D01*
X147320000Y-90987500D02*
X149379750Y-88927750D01*
X160528000Y-98552000D02*
X162560000Y-96520000D01*
X149379750Y-88618250D02*
X153670000Y-84328000D01*
X149379750Y-88927750D02*
X149379750Y-88618250D01*
X147320000Y-97282000D02*
X147320000Y-90987500D01*
%TO.N,VCC_3.3V*%
X142133000Y-70583200D02*
X142133000Y-79903000D01*
X142133000Y-79903000D02*
X143764000Y-81534000D01*
X145542000Y-68072000D02*
X144644200Y-68072000D01*
X144644200Y-68072000D02*
X142133000Y-70583200D01*
X143764000Y-81534000D02*
X147574000Y-81534000D01*
%TO.N,BTN_RST*%
X156972000Y-76708000D02*
X146554754Y-76708000D01*
X141224000Y-72271000D02*
X139835000Y-73660000D01*
X141224000Y-70358000D02*
X141224000Y-72271000D01*
X146554754Y-76708000D02*
X146050000Y-76203246D01*
X149098000Y-66548000D02*
X145034000Y-66548000D01*
X146050000Y-69342000D02*
X148844000Y-66548000D01*
X139835000Y-73660000D02*
X139700000Y-73660000D01*
X158242000Y-77978000D02*
X156972000Y-76708000D01*
X158242000Y-89916000D02*
X158242000Y-77978000D01*
X156718000Y-66548000D02*
X149098000Y-66548000D01*
X146050000Y-76203246D02*
X146050000Y-69342000D01*
X148844000Y-66548000D02*
X149098000Y-66548000D01*
X145034000Y-66548000D02*
X141224000Y-70358000D01*
X153162000Y-94996000D02*
X158242000Y-89916000D01*
%TO.N,BTN_BOOT*%
X157734000Y-89408000D02*
X152273000Y-94869000D01*
X157734000Y-78037100D02*
X157734000Y-89408000D01*
X145542000Y-68914558D02*
X145542000Y-76400521D01*
X152273000Y-94869000D02*
X149225000Y-94869000D01*
X156886160Y-77189260D02*
X157734000Y-78037100D01*
X146330739Y-77189260D02*
X156886160Y-77189260D01*
X145542000Y-76400521D02*
X146330739Y-77189260D01*
%TO.N,9*%
X147574000Y-75946000D02*
X158242000Y-75946000D01*
X158844900Y-76548900D02*
X158844900Y-87724900D01*
X158242000Y-75946000D02*
X158844900Y-76548900D01*
X158844900Y-87724900D02*
X162560000Y-91440000D01*
%TO.N,3*%
X161260450Y-74392450D02*
X158242000Y-71374000D01*
X161260450Y-74900450D02*
X161260450Y-74392450D01*
X162560000Y-76200000D02*
X161260450Y-74900450D01*
X158242000Y-71374000D02*
X147574000Y-71374000D01*
%TO.N,RXD1*%
X150280000Y-85940000D02*
X139700000Y-96520000D01*
X150280000Y-80606000D02*
X150280000Y-85940000D01*
%TO.N,TXD1*%
X149430000Y-84250000D02*
X139700000Y-93980000D01*
X149430000Y-80694000D02*
X149430000Y-84250000D01*
%TD*%
%TA.AperFunction,Conductor*%
%TO.N,GND*%
G36*
X148510340Y-88661407D02*
G01*
X148566273Y-88703279D01*
X148590690Y-88768743D01*
X148588623Y-88801781D01*
X148579111Y-88849600D01*
X148546726Y-88911511D01*
X148545175Y-88913089D01*
X146839481Y-90618782D01*
X146839479Y-90618785D01*
X146789361Y-90705594D01*
X146789359Y-90705596D01*
X146760425Y-90755709D01*
X146760424Y-90755710D01*
X146760423Y-90755715D01*
X146719499Y-90908443D01*
X146719499Y-90908445D01*
X146719499Y-91076546D01*
X146719500Y-91076559D01*
X146719500Y-96702234D01*
X146699815Y-96769273D01*
X146698602Y-96771125D01*
X146610609Y-96902814D01*
X146610602Y-96902827D01*
X146550264Y-97048498D01*
X146550261Y-97048510D01*
X146519500Y-97203153D01*
X146519500Y-97360846D01*
X146550261Y-97515489D01*
X146550264Y-97515501D01*
X146610602Y-97661172D01*
X146610609Y-97661185D01*
X146698210Y-97792288D01*
X146698213Y-97792292D01*
X146809707Y-97903786D01*
X146809711Y-97903789D01*
X146940814Y-97991390D01*
X146940827Y-97991397D01*
X147082626Y-98050131D01*
X147086503Y-98051737D01*
X147241153Y-98082499D01*
X147241156Y-98082500D01*
X147241158Y-98082500D01*
X147398844Y-98082500D01*
X147398845Y-98082499D01*
X147553497Y-98051737D01*
X147614840Y-98026327D01*
X147684305Y-98018858D01*
X147746785Y-98050131D01*
X147749972Y-98053207D01*
X148061139Y-98364374D01*
X148061149Y-98364385D01*
X148065479Y-98368715D01*
X148065480Y-98368716D01*
X148177284Y-98480520D01*
X148177286Y-98480521D01*
X148177290Y-98480524D01*
X148283058Y-98541588D01*
X148314216Y-98559577D01*
X148413149Y-98586086D01*
X148413148Y-98586086D01*
X148424516Y-98589131D01*
X148466942Y-98600500D01*
X148466943Y-98600500D01*
X154031700Y-98600500D01*
X154098739Y-98620185D01*
X154144494Y-98672989D01*
X154153317Y-98700308D01*
X154170261Y-98785491D01*
X154170264Y-98785501D01*
X154230602Y-98931172D01*
X154230609Y-98931185D01*
X154318210Y-99062288D01*
X154318213Y-99062292D01*
X154429707Y-99173786D01*
X154429711Y-99173789D01*
X154560814Y-99261390D01*
X154560827Y-99261397D01*
X154706498Y-99321735D01*
X154706503Y-99321737D01*
X154861153Y-99352499D01*
X154861156Y-99352500D01*
X154861158Y-99352500D01*
X155018844Y-99352500D01*
X155018845Y-99352499D01*
X155173497Y-99321737D01*
X155319179Y-99261394D01*
X155331752Y-99252993D01*
X155450875Y-99173398D01*
X155517553Y-99152520D01*
X155519766Y-99152500D01*
X160441331Y-99152500D01*
X160441347Y-99152501D01*
X160448943Y-99152501D01*
X160607054Y-99152501D01*
X160607057Y-99152501D01*
X160759785Y-99111577D01*
X160809904Y-99082639D01*
X160896716Y-99032520D01*
X160997820Y-98931415D01*
X161059141Y-98897932D01*
X161128833Y-98902916D01*
X161184767Y-98944787D01*
X161209184Y-99010251D01*
X161209500Y-99019098D01*
X161209500Y-99166286D01*
X161242753Y-99376239D01*
X161308444Y-99578414D01*
X161404951Y-99767820D01*
X161529890Y-99939786D01*
X161680213Y-100090109D01*
X161852182Y-100215050D01*
X161860946Y-100219516D01*
X161911742Y-100267491D01*
X161928536Y-100335312D01*
X161905998Y-100401447D01*
X161860946Y-100440484D01*
X161852182Y-100444949D01*
X161680213Y-100569890D01*
X161529890Y-100720213D01*
X161404951Y-100892179D01*
X161308444Y-101081585D01*
X161242753Y-101283760D01*
X161237942Y-101314136D01*
X161209500Y-101493713D01*
X161209500Y-101706287D01*
X161242754Y-101916243D01*
X161305803Y-102110288D01*
X161308444Y-102118414D01*
X161404951Y-102307820D01*
X161529890Y-102479786D01*
X161680213Y-102630109D01*
X161852179Y-102755048D01*
X161852181Y-102755049D01*
X161852184Y-102755051D01*
X161861493Y-102759794D01*
X161912290Y-102807766D01*
X161929087Y-102875587D01*
X161906552Y-102941722D01*
X161861505Y-102980760D01*
X161852446Y-102985376D01*
X161852440Y-102985380D01*
X161798282Y-103024727D01*
X161798282Y-103024728D01*
X162430591Y-103657037D01*
X162367007Y-103674075D01*
X162252993Y-103739901D01*
X162159901Y-103832993D01*
X162094075Y-103947007D01*
X162077037Y-104010591D01*
X161444728Y-103378282D01*
X161444727Y-103378282D01*
X161405380Y-103432439D01*
X161308904Y-103621782D01*
X161243242Y-103823869D01*
X161243242Y-103823872D01*
X161210000Y-104033753D01*
X161210000Y-104246246D01*
X161243242Y-104456127D01*
X161243242Y-104456130D01*
X161308904Y-104658217D01*
X161405375Y-104847550D01*
X161444728Y-104901716D01*
X162077037Y-104269408D01*
X162094075Y-104332993D01*
X162159901Y-104447007D01*
X162252993Y-104540099D01*
X162367007Y-104605925D01*
X162430590Y-104622962D01*
X161798282Y-105255269D01*
X161800526Y-105283770D01*
X161786162Y-105352147D01*
X161737112Y-105401905D01*
X161676908Y-105417500D01*
X140620914Y-105417500D01*
X140553875Y-105397815D01*
X140508120Y-105345011D01*
X140498176Y-105275853D01*
X140527201Y-105212297D01*
X140548029Y-105193182D01*
X140579785Y-105170109D01*
X140579783Y-105170109D01*
X140579792Y-105170104D01*
X140730104Y-105019792D01*
X140730106Y-105019788D01*
X140730109Y-105019786D01*
X140855048Y-104847820D01*
X140855047Y-104847820D01*
X140855051Y-104847816D01*
X140951557Y-104658412D01*
X141017246Y-104456243D01*
X141050500Y-104246287D01*
X141050500Y-104033713D01*
X141017246Y-103823757D01*
X141011851Y-103807153D01*
X141947500Y-103807153D01*
X141947500Y-103964846D01*
X141978261Y-104119489D01*
X141978264Y-104119501D01*
X142038602Y-104265172D01*
X142038609Y-104265185D01*
X142126210Y-104396288D01*
X142126213Y-104396292D01*
X142237707Y-104507786D01*
X142237711Y-104507789D01*
X142368814Y-104595390D01*
X142368827Y-104595397D01*
X142476510Y-104640000D01*
X142514503Y-104655737D01*
X142669153Y-104686499D01*
X142669156Y-104686500D01*
X142669158Y-104686500D01*
X142826844Y-104686500D01*
X142826845Y-104686499D01*
X142981497Y-104655737D01*
X143127179Y-104595394D01*
X143209934Y-104540099D01*
X143258875Y-104507398D01*
X143325553Y-104486520D01*
X143327766Y-104486500D01*
X150535331Y-104486500D01*
X150535347Y-104486501D01*
X150542943Y-104486501D01*
X150701054Y-104486501D01*
X150701057Y-104486501D01*
X150853785Y-104445577D01*
X150903904Y-104416639D01*
X150990716Y-104366520D01*
X151102520Y-104254716D01*
X151102520Y-104254714D01*
X151112728Y-104244507D01*
X151112729Y-104244504D01*
X152922662Y-102434572D01*
X152983983Y-102401089D01*
X152986150Y-102400638D01*
X153044085Y-102389113D01*
X153141497Y-102369737D01*
X153287179Y-102309394D01*
X153418289Y-102221789D01*
X153529789Y-102110289D01*
X153617394Y-101979179D01*
X153677737Y-101833497D01*
X153696742Y-101737955D01*
X153729127Y-101676044D01*
X153789842Y-101641470D01*
X153850450Y-101642370D01*
X153944234Y-101667500D01*
X153944236Y-101667500D01*
X154095764Y-101667500D01*
X154095766Y-101667500D01*
X154242135Y-101628281D01*
X154373365Y-101552515D01*
X154480515Y-101445365D01*
X154556281Y-101314135D01*
X154595500Y-101167766D01*
X154595500Y-101016234D01*
X154556281Y-100869865D01*
X154480515Y-100738635D01*
X154373365Y-100631485D01*
X154307750Y-100593602D01*
X154242136Y-100555719D01*
X154168950Y-100536109D01*
X154095766Y-100516500D01*
X153944234Y-100516500D01*
X153797863Y-100555719D01*
X153666635Y-100631485D01*
X153666632Y-100631487D01*
X153559487Y-100738632D01*
X153559485Y-100738635D01*
X153486561Y-100864942D01*
X153435993Y-100913157D01*
X153367386Y-100926379D01*
X153310283Y-100906043D01*
X153287185Y-100890609D01*
X153287172Y-100890602D01*
X153141501Y-100830264D01*
X153141489Y-100830261D01*
X152986845Y-100799500D01*
X152986842Y-100799500D01*
X152829158Y-100799500D01*
X152829155Y-100799500D01*
X152674510Y-100830261D01*
X152674498Y-100830264D01*
X152528827Y-100890602D01*
X152528814Y-100890609D01*
X152397711Y-100978210D01*
X152397707Y-100978213D01*
X152286213Y-101089707D01*
X152286210Y-101089711D01*
X152198609Y-101220814D01*
X152198602Y-101220827D01*
X152138264Y-101366498D01*
X152138261Y-101366508D01*
X152107361Y-101521850D01*
X152074976Y-101583761D01*
X152073425Y-101585339D01*
X150409584Y-103249181D01*
X150348261Y-103282666D01*
X150321903Y-103285500D01*
X143327766Y-103285500D01*
X143260727Y-103265815D01*
X143258875Y-103264602D01*
X143127185Y-103176609D01*
X143127172Y-103176602D01*
X142981501Y-103116264D01*
X142981489Y-103116261D01*
X142826845Y-103085500D01*
X142826842Y-103085500D01*
X142669158Y-103085500D01*
X142669155Y-103085500D01*
X142514510Y-103116261D01*
X142514498Y-103116264D01*
X142368827Y-103176602D01*
X142368814Y-103176609D01*
X142237711Y-103264210D01*
X142237707Y-103264213D01*
X142126213Y-103375707D01*
X142126210Y-103375711D01*
X142038609Y-103506814D01*
X142038602Y-103506827D01*
X141978264Y-103652498D01*
X141978261Y-103652510D01*
X141947500Y-103807153D01*
X141011851Y-103807153D01*
X140951557Y-103621588D01*
X140855051Y-103432184D01*
X140855049Y-103432181D01*
X140855048Y-103432179D01*
X140730109Y-103260213D01*
X140579786Y-103109890D01*
X140407820Y-102984951D01*
X140399600Y-102980763D01*
X140399054Y-102980485D01*
X140348259Y-102932512D01*
X140331463Y-102864692D01*
X140353999Y-102798556D01*
X140399054Y-102759515D01*
X140407816Y-102755051D01*
X140429789Y-102739086D01*
X140579786Y-102630109D01*
X140579788Y-102630106D01*
X140579792Y-102630104D01*
X140730104Y-102479792D01*
X140730106Y-102479788D01*
X140730109Y-102479786D01*
X140853902Y-102309397D01*
X140855051Y-102307816D01*
X140951557Y-102118412D01*
X141017246Y-101916243D01*
X141050500Y-101706287D01*
X141050500Y-101493713D01*
X141017246Y-101283757D01*
X140951557Y-101081588D01*
X140918258Y-101016234D01*
X147664500Y-101016234D01*
X147664500Y-101167766D01*
X147684109Y-101240950D01*
X147703719Y-101314136D01*
X147733951Y-101366498D01*
X147779485Y-101445365D01*
X147886635Y-101552515D01*
X148017865Y-101628281D01*
X148164234Y-101667500D01*
X148164236Y-101667500D01*
X148315764Y-101667500D01*
X148315766Y-101667500D01*
X148462135Y-101628281D01*
X148593365Y-101552515D01*
X148700515Y-101445365D01*
X148776281Y-101314135D01*
X148815500Y-101167766D01*
X148815500Y-101016234D01*
X148776281Y-100869865D01*
X148700515Y-100738635D01*
X148593365Y-100631485D01*
X148527750Y-100593602D01*
X148462136Y-100555719D01*
X148388950Y-100536109D01*
X148315766Y-100516500D01*
X148164234Y-100516500D01*
X148017863Y-100555719D01*
X147886635Y-100631485D01*
X147886632Y-100631487D01*
X147779487Y-100738632D01*
X147779485Y-100738635D01*
X147703719Y-100869863D01*
X147666996Y-101006918D01*
X147664500Y-101016234D01*
X140918258Y-101016234D01*
X140855051Y-100892184D01*
X140855049Y-100892181D01*
X140855048Y-100892179D01*
X140730109Y-100720213D01*
X140579786Y-100569890D01*
X140407817Y-100444949D01*
X140398504Y-100440204D01*
X140347707Y-100392230D01*
X140330912Y-100324409D01*
X140353449Y-100258274D01*
X140398507Y-100219232D01*
X140407555Y-100214622D01*
X140461716Y-100175270D01*
X140461717Y-100175270D01*
X139829408Y-99542962D01*
X139892993Y-99525925D01*
X140007007Y-99460099D01*
X140100099Y-99367007D01*
X140165925Y-99252993D01*
X140182962Y-99189409D01*
X140815270Y-99821717D01*
X140815270Y-99821716D01*
X140854622Y-99767554D01*
X140951095Y-99578217D01*
X141016757Y-99376130D01*
X141016757Y-99376127D01*
X141050000Y-99166246D01*
X141050000Y-98953753D01*
X141016757Y-98743872D01*
X141016757Y-98743869D01*
X140951095Y-98541782D01*
X140854624Y-98352449D01*
X140815270Y-98298282D01*
X140815269Y-98298282D01*
X140182962Y-98930590D01*
X140165925Y-98867007D01*
X140100099Y-98752993D01*
X140007007Y-98659901D01*
X139892993Y-98594075D01*
X139829409Y-98577037D01*
X140461716Y-97944728D01*
X140407547Y-97905373D01*
X140407547Y-97905372D01*
X140398500Y-97900763D01*
X140347706Y-97852788D01*
X140330912Y-97784966D01*
X140353451Y-97718832D01*
X140398508Y-97679793D01*
X140407816Y-97675051D01*
X140487007Y-97617515D01*
X140579786Y-97550109D01*
X140579788Y-97550106D01*
X140579792Y-97550104D01*
X140730104Y-97399792D01*
X140730106Y-97399788D01*
X140730109Y-97399786D01*
X140855048Y-97227820D01*
X140855047Y-97227820D01*
X140855051Y-97227816D01*
X140951557Y-97038412D01*
X141017246Y-96836243D01*
X141050500Y-96626287D01*
X141050500Y-96413713D01*
X141017246Y-96203757D01*
X141003506Y-96161473D01*
X141001512Y-96091635D01*
X141033755Y-96035478D01*
X148379327Y-88689906D01*
X148440648Y-88656423D01*
X148510340Y-88661407D01*
G37*
%TD.AperFunction*%
%TA.AperFunction,Conductor*%
G36*
X163675270Y-104901717D02*
G01*
X163703771Y-104899474D01*
X163772148Y-104913838D01*
X163821905Y-104962890D01*
X163837500Y-105023092D01*
X163837500Y-105293500D01*
X163817815Y-105360539D01*
X163765011Y-105406294D01*
X163713500Y-105417500D01*
X163443092Y-105417500D01*
X163376053Y-105397815D01*
X163330298Y-105345011D01*
X163319474Y-105283771D01*
X163321717Y-105255270D01*
X162689408Y-104622962D01*
X162752993Y-104605925D01*
X162867007Y-104540099D01*
X162960099Y-104447007D01*
X163025925Y-104332993D01*
X163042962Y-104269409D01*
X163675270Y-104901717D01*
G37*
%TD.AperFunction*%
%TA.AperFunction,Conductor*%
G36*
X163799919Y-102431987D02*
G01*
X163834277Y-102492825D01*
X163837500Y-102520913D01*
X163837500Y-103256907D01*
X163817815Y-103323946D01*
X163765011Y-103369701D01*
X163703771Y-103380525D01*
X163675270Y-103378281D01*
X163042962Y-104010590D01*
X163025925Y-103947007D01*
X162960099Y-103832993D01*
X162867007Y-103739901D01*
X162752993Y-103674075D01*
X162689409Y-103657037D01*
X163321716Y-103024728D01*
X163267547Y-102985373D01*
X163267547Y-102985372D01*
X163258500Y-102980763D01*
X163207706Y-102932788D01*
X163190912Y-102864966D01*
X163213451Y-102798832D01*
X163258508Y-102759793D01*
X163267816Y-102755051D01*
X163347007Y-102697515D01*
X163439786Y-102630109D01*
X163439788Y-102630106D01*
X163439792Y-102630104D01*
X163590104Y-102479792D01*
X163613181Y-102448028D01*
X163668510Y-102405363D01*
X163738123Y-102399382D01*
X163799919Y-102431987D01*
G37*
%TD.AperFunction*%
%TA.AperFunction,Conductor*%
G36*
X139234075Y-99252993D02*
G01*
X139299901Y-99367007D01*
X139392993Y-99460099D01*
X139507007Y-99525925D01*
X139570590Y-99542962D01*
X138938282Y-100175269D01*
X138938282Y-100175270D01*
X138992452Y-100214626D01*
X138992451Y-100214626D01*
X139001495Y-100219234D01*
X139052292Y-100267208D01*
X139069087Y-100335029D01*
X139046550Y-100401164D01*
X139001499Y-100440202D01*
X138992182Y-100444949D01*
X138820213Y-100569890D01*
X138669894Y-100720209D01*
X138669890Y-100720214D01*
X138646818Y-100751971D01*
X138591489Y-100794637D01*
X138521875Y-100800616D01*
X138460080Y-100768011D01*
X138425723Y-100707172D01*
X138422500Y-100679086D01*
X138422500Y-99943091D01*
X138442185Y-99876052D01*
X138494989Y-99830297D01*
X138556230Y-99819473D01*
X138584728Y-99821716D01*
X139217037Y-99189408D01*
X139234075Y-99252993D01*
G37*
%TD.AperFunction*%
%TA.AperFunction,Conductor*%
G36*
X138627703Y-97347200D02*
G01*
X138646819Y-97368029D01*
X138669892Y-97399788D01*
X138820213Y-97550109D01*
X138992179Y-97675048D01*
X138992181Y-97675049D01*
X138992184Y-97675051D01*
X139001493Y-97679794D01*
X139052290Y-97727766D01*
X139069087Y-97795587D01*
X139046552Y-97861722D01*
X139001505Y-97900760D01*
X138992446Y-97905376D01*
X138992440Y-97905380D01*
X138938282Y-97944727D01*
X138938282Y-97944728D01*
X139570591Y-98577037D01*
X139507007Y-98594075D01*
X139392993Y-98659901D01*
X139299901Y-98752993D01*
X139234075Y-98867007D01*
X139217037Y-98930591D01*
X138584728Y-98298282D01*
X138556229Y-98300525D01*
X138487852Y-98286161D01*
X138438095Y-98237109D01*
X138422500Y-98176907D01*
X138422500Y-97440913D01*
X138442185Y-97373874D01*
X138494989Y-97328119D01*
X138564147Y-97318175D01*
X138627703Y-97347200D01*
G37*
%TD.AperFunction*%
%TA.AperFunction,Conductor*%
G36*
X144680358Y-68987589D02*
G01*
X144736291Y-69029461D01*
X144758641Y-69079578D01*
X144772261Y-69148050D01*
X144772264Y-69148059D01*
X144832602Y-69293730D01*
X144832609Y-69293743D01*
X144920602Y-69425432D01*
X144941480Y-69492109D01*
X144941500Y-69494323D01*
X144941500Y-76313851D01*
X144941499Y-76313869D01*
X144941499Y-76479575D01*
X144941498Y-76479575D01*
X144982423Y-76632307D01*
X144995752Y-76655392D01*
X144995753Y-76655394D01*
X145061477Y-76769233D01*
X145061481Y-76769238D01*
X145180349Y-76888106D01*
X145180355Y-76888111D01*
X145845878Y-77553634D01*
X145845888Y-77553645D01*
X145850218Y-77557975D01*
X145850219Y-77557976D01*
X145962023Y-77669780D01*
X145962025Y-77669781D01*
X145962029Y-77669784D01*
X146098948Y-77748833D01*
X146098955Y-77748837D01*
X146207603Y-77777949D01*
X146251681Y-77789760D01*
X146251682Y-77789760D01*
X156586063Y-77789760D01*
X156653102Y-77809445D01*
X156673744Y-77826079D01*
X157097181Y-78249516D01*
X157130666Y-78310839D01*
X157133500Y-78337197D01*
X157133500Y-89107903D01*
X157113815Y-89174942D01*
X157097181Y-89195584D01*
X152060584Y-94232181D01*
X151999261Y-94265666D01*
X151972903Y-94268500D01*
X149804766Y-94268500D01*
X149737727Y-94248815D01*
X149735875Y-94247602D01*
X149604185Y-94159609D01*
X149604172Y-94159602D01*
X149458501Y-94099264D01*
X149458489Y-94099261D01*
X149303845Y-94068500D01*
X149303842Y-94068500D01*
X149146158Y-94068500D01*
X149146155Y-94068500D01*
X148991510Y-94099261D01*
X148991498Y-94099264D01*
X148845827Y-94159602D01*
X148845814Y-94159609D01*
X148714711Y-94247210D01*
X148714707Y-94247213D01*
X148603213Y-94358707D01*
X148603210Y-94358711D01*
X148515609Y-94489814D01*
X148515602Y-94489827D01*
X148455264Y-94635498D01*
X148455261Y-94635510D01*
X148424500Y-94790153D01*
X148424500Y-94947846D01*
X148455261Y-95102489D01*
X148455264Y-95102501D01*
X148515602Y-95248172D01*
X148515609Y-95248185D01*
X148603210Y-95379288D01*
X148603213Y-95379292D01*
X148714707Y-95490786D01*
X148714711Y-95490789D01*
X148845814Y-95578390D01*
X148845827Y-95578397D01*
X148963582Y-95627172D01*
X148991503Y-95638737D01*
X149129191Y-95666125D01*
X149146153Y-95669499D01*
X149146156Y-95669500D01*
X149146158Y-95669500D01*
X149303844Y-95669500D01*
X149303845Y-95669499D01*
X149458497Y-95638737D01*
X149604179Y-95578394D01*
X149604185Y-95578390D01*
X149735875Y-95490398D01*
X149802553Y-95469520D01*
X149804766Y-95469500D01*
X152186331Y-95469500D01*
X152186347Y-95469501D01*
X152193943Y-95469501D01*
X152352056Y-95469501D01*
X152352057Y-95469501D01*
X152404960Y-95455325D01*
X152474808Y-95456986D01*
X152532671Y-95496148D01*
X152540151Y-95506201D01*
X152540205Y-95506283D01*
X152540213Y-95506292D01*
X152651707Y-95617786D01*
X152651711Y-95617789D01*
X152782814Y-95705390D01*
X152782827Y-95705397D01*
X152928498Y-95765735D01*
X152928503Y-95765737D01*
X153083153Y-95796499D01*
X153083156Y-95796500D01*
X153083158Y-95796500D01*
X153240844Y-95796500D01*
X153240845Y-95796499D01*
X153395497Y-95765737D01*
X153541179Y-95705394D01*
X153672289Y-95617789D01*
X153783789Y-95506289D01*
X153871394Y-95375179D01*
X153931737Y-95229497D01*
X153962500Y-95074842D01*
X153962638Y-95074150D01*
X153995023Y-95012239D01*
X153996519Y-95010715D01*
X158600506Y-90406727D01*
X158600511Y-90406724D01*
X158610714Y-90396520D01*
X158610716Y-90396520D01*
X158722520Y-90284716D01*
X158799399Y-90151557D01*
X158801577Y-90147785D01*
X158842501Y-89995057D01*
X158842501Y-89836943D01*
X158842501Y-89829348D01*
X158842500Y-89829330D01*
X158842500Y-88871097D01*
X158862185Y-88804058D01*
X158914989Y-88758303D01*
X158984147Y-88748359D01*
X159047703Y-88777384D01*
X159054181Y-88783416D01*
X161226241Y-90955476D01*
X161259726Y-91016799D01*
X161256492Y-91081473D01*
X161242753Y-91123757D01*
X161227422Y-91220558D01*
X161209500Y-91333713D01*
X161209500Y-91546287D01*
X161217625Y-91597583D01*
X161242753Y-91756239D01*
X161308444Y-91958414D01*
X161404951Y-92147820D01*
X161529890Y-92319786D01*
X161680213Y-92470109D01*
X161852179Y-92595048D01*
X161852181Y-92595049D01*
X161852184Y-92595051D01*
X161861493Y-92599794D01*
X161912290Y-92647766D01*
X161929087Y-92715587D01*
X161906552Y-92781722D01*
X161861505Y-92820760D01*
X161852446Y-92825376D01*
X161852440Y-92825380D01*
X161798282Y-92864727D01*
X161798282Y-92864728D01*
X162430591Y-93497037D01*
X162367007Y-93514075D01*
X162252993Y-93579901D01*
X162159901Y-93672993D01*
X162094075Y-93787007D01*
X162077037Y-93850591D01*
X161444728Y-93218282D01*
X161444727Y-93218282D01*
X161405380Y-93272439D01*
X161308904Y-93461782D01*
X161243242Y-93663869D01*
X161243242Y-93663872D01*
X161210000Y-93873753D01*
X161210000Y-94086246D01*
X161243242Y-94296127D01*
X161243242Y-94296130D01*
X161308904Y-94498217D01*
X161405375Y-94687550D01*
X161444728Y-94741716D01*
X162077037Y-94109408D01*
X162094075Y-94172993D01*
X162159901Y-94287007D01*
X162252993Y-94380099D01*
X162367007Y-94445925D01*
X162430590Y-94462962D01*
X161798282Y-95095269D01*
X161798282Y-95095270D01*
X161852452Y-95134626D01*
X161852451Y-95134626D01*
X161861495Y-95139234D01*
X161912292Y-95187208D01*
X161929087Y-95255029D01*
X161906550Y-95321164D01*
X161861499Y-95360202D01*
X161852182Y-95364949D01*
X161680213Y-95489890D01*
X161529890Y-95640213D01*
X161404951Y-95812179D01*
X161308444Y-96001585D01*
X161242753Y-96203760D01*
X161209500Y-96413713D01*
X161209500Y-96626286D01*
X161242754Y-96836244D01*
X161242754Y-96836247D01*
X161256491Y-96878523D01*
X161258486Y-96948364D01*
X161226241Y-97004522D01*
X160315584Y-97915181D01*
X160254261Y-97948666D01*
X160227903Y-97951500D01*
X155519766Y-97951500D01*
X155452727Y-97931815D01*
X155450875Y-97930602D01*
X155319185Y-97842609D01*
X155319172Y-97842602D01*
X155173501Y-97782264D01*
X155173491Y-97782261D01*
X155018149Y-97751361D01*
X155001392Y-97742595D01*
X154982914Y-97738576D01*
X154957877Y-97719833D01*
X154956238Y-97718976D01*
X154954660Y-97717425D01*
X154875590Y-97638355D01*
X154875588Y-97638352D01*
X154756717Y-97519481D01*
X154756716Y-97519480D01*
X154669904Y-97469360D01*
X154669904Y-97469359D01*
X154669900Y-97469358D01*
X154619785Y-97440423D01*
X154467057Y-97399499D01*
X154308943Y-97399499D01*
X154301347Y-97399499D01*
X154301331Y-97399500D01*
X148846097Y-97399500D01*
X148779058Y-97379815D01*
X148758416Y-97363181D01*
X148315590Y-96920355D01*
X148315588Y-96920352D01*
X148196717Y-96801481D01*
X148196716Y-96801480D01*
X148109904Y-96751360D01*
X148059785Y-96722423D01*
X148004057Y-96707490D01*
X147996094Y-96704114D01*
X147975489Y-96687224D01*
X147952744Y-96673360D01*
X147948886Y-96665418D01*
X147942058Y-96659821D01*
X147933856Y-96634477D01*
X147922216Y-96610513D01*
X147920865Y-96594332D01*
X147920546Y-96593345D01*
X147920726Y-96592662D01*
X147920500Y-96589952D01*
X147920500Y-91287597D01*
X147940185Y-91220558D01*
X147956819Y-91199916D01*
X148649757Y-90506978D01*
X149394412Y-89762322D01*
X149455733Y-89728839D01*
X149457900Y-89728388D01*
X149515835Y-89716863D01*
X149613247Y-89697487D01*
X149758929Y-89637144D01*
X149890039Y-89549539D01*
X150001539Y-89438039D01*
X150089144Y-89306929D01*
X150149487Y-89161247D01*
X150180250Y-89006592D01*
X150180250Y-88848908D01*
X150180250Y-88848905D01*
X150162997Y-88762173D01*
X150169224Y-88692582D01*
X150196931Y-88650302D01*
X153684664Y-85162571D01*
X153745985Y-85129088D01*
X153748152Y-85128637D01*
X153748841Y-85128500D01*
X153748842Y-85128500D01*
X153903497Y-85097737D01*
X154049179Y-85037394D01*
X154180289Y-84949789D01*
X154291789Y-84838289D01*
X154379394Y-84707179D01*
X154382456Y-84699788D01*
X154439735Y-84561501D01*
X154439737Y-84561497D01*
X154470500Y-84406842D01*
X154470500Y-84249158D01*
X154470500Y-84249155D01*
X154470499Y-84249153D01*
X154464916Y-84221085D01*
X154439737Y-84094503D01*
X154401117Y-84001265D01*
X154379397Y-83948827D01*
X154379390Y-83948814D01*
X154291789Y-83817711D01*
X154291786Y-83817707D01*
X154180292Y-83706213D01*
X154180288Y-83706210D01*
X154049185Y-83618609D01*
X154049172Y-83618602D01*
X153903501Y-83558264D01*
X153903489Y-83558261D01*
X153748845Y-83527500D01*
X153748842Y-83527500D01*
X153591158Y-83527500D01*
X153591155Y-83527500D01*
X153436510Y-83558261D01*
X153436498Y-83558264D01*
X153290827Y-83618602D01*
X153290814Y-83618609D01*
X153159711Y-83706210D01*
X153159707Y-83706213D01*
X153048213Y-83817707D01*
X153048210Y-83817711D01*
X152960609Y-83948814D01*
X152960602Y-83948827D01*
X152900264Y-84094498D01*
X152900261Y-84094508D01*
X152869362Y-84249848D01*
X152836977Y-84311759D01*
X152835426Y-84313337D01*
X151092181Y-86056583D01*
X151030858Y-86090068D01*
X150961166Y-86085084D01*
X150905233Y-86043212D01*
X150880816Y-85977748D01*
X150880500Y-85968902D01*
X150880500Y-81185765D01*
X150900185Y-81118726D01*
X150901398Y-81116874D01*
X150989390Y-80985185D01*
X150989390Y-80985184D01*
X150989394Y-80985179D01*
X151049737Y-80839497D01*
X151080500Y-80684842D01*
X151080500Y-80527158D01*
X151080500Y-80527155D01*
X151080499Y-80527153D01*
X151059838Y-80423284D01*
X151049737Y-80372503D01*
X151025842Y-80314814D01*
X150989397Y-80226827D01*
X150989390Y-80226814D01*
X150901789Y-80095711D01*
X150901786Y-80095707D01*
X150790292Y-79984213D01*
X150790288Y-79984210D01*
X150659185Y-79896609D01*
X150659172Y-79896602D01*
X150513501Y-79836264D01*
X150513489Y-79836261D01*
X150358845Y-79805500D01*
X150358842Y-79805500D01*
X150201158Y-79805500D01*
X150201155Y-79805500D01*
X150046510Y-79836261D01*
X150046498Y-79836264D01*
X149900828Y-79896602D01*
X149900812Y-79896611D01*
X149839556Y-79937540D01*
X149772878Y-79958417D01*
X149723216Y-79948999D01*
X149698670Y-79938832D01*
X149663497Y-79924263D01*
X149663493Y-79924262D01*
X149663488Y-79924260D01*
X149508845Y-79893500D01*
X149508842Y-79893500D01*
X149351158Y-79893500D01*
X149351155Y-79893500D01*
X149196510Y-79924261D01*
X149196498Y-79924264D01*
X149050827Y-79984602D01*
X149050814Y-79984609D01*
X148919711Y-80072210D01*
X148919707Y-80072213D01*
X148808213Y-80183707D01*
X148808210Y-80183711D01*
X148720609Y-80314814D01*
X148720602Y-80314827D01*
X148660264Y-80460498D01*
X148660261Y-80460510D01*
X148629500Y-80615153D01*
X148629500Y-80772846D01*
X148660261Y-80927489D01*
X148660264Y-80927501D01*
X148720602Y-81073172D01*
X148720609Y-81073185D01*
X148808602Y-81204874D01*
X148829480Y-81271551D01*
X148829500Y-81273765D01*
X148829500Y-83949902D01*
X148809815Y-84016941D01*
X148793181Y-84037583D01*
X141261681Y-91569082D01*
X141200358Y-91602567D01*
X141130666Y-91597583D01*
X141074733Y-91555711D01*
X141050316Y-91490247D01*
X141050000Y-91481401D01*
X141050000Y-91333753D01*
X141016757Y-91123872D01*
X141016757Y-91123869D01*
X140951095Y-90921782D01*
X140854624Y-90732449D01*
X140815270Y-90678282D01*
X140815269Y-90678282D01*
X140182962Y-91310590D01*
X140165925Y-91247007D01*
X140100099Y-91132993D01*
X140007007Y-91039901D01*
X139892993Y-90974075D01*
X139829409Y-90957037D01*
X140461716Y-90324728D01*
X140407547Y-90285373D01*
X140407547Y-90285372D01*
X140398500Y-90280763D01*
X140347706Y-90232788D01*
X140330912Y-90164966D01*
X140353451Y-90098832D01*
X140398508Y-90059793D01*
X140407816Y-90055051D01*
X140490395Y-89995054D01*
X140579786Y-89930109D01*
X140579788Y-89930106D01*
X140579792Y-89930104D01*
X140730104Y-89779792D01*
X140730106Y-89779788D01*
X140730109Y-89779786D01*
X140855048Y-89607820D01*
X140855047Y-89607820D01*
X140855051Y-89607816D01*
X140951557Y-89418412D01*
X141017246Y-89216243D01*
X141050500Y-89006287D01*
X141050500Y-88793713D01*
X141017246Y-88583757D01*
X140951557Y-88381588D01*
X140855051Y-88192184D01*
X140855049Y-88192181D01*
X140855048Y-88192179D01*
X140730109Y-88020213D01*
X140579786Y-87869890D01*
X140407820Y-87744951D01*
X140407115Y-87744591D01*
X140399054Y-87740485D01*
X140348259Y-87692512D01*
X140331463Y-87624692D01*
X140353999Y-87558556D01*
X140399054Y-87519515D01*
X140407816Y-87515051D01*
X140495755Y-87451160D01*
X140579786Y-87390109D01*
X140579788Y-87390106D01*
X140579792Y-87390104D01*
X140730104Y-87239792D01*
X140730106Y-87239788D01*
X140730109Y-87239786D01*
X140855048Y-87067820D01*
X140855047Y-87067820D01*
X140855051Y-87067816D01*
X140951557Y-86878412D01*
X141017246Y-86676243D01*
X141050500Y-86466287D01*
X141050500Y-86253713D01*
X141017246Y-86043757D01*
X140951557Y-85841588D01*
X140855051Y-85652184D01*
X140855049Y-85652181D01*
X140855048Y-85652179D01*
X140730109Y-85480213D01*
X140579786Y-85329890D01*
X140407820Y-85204951D01*
X140407115Y-85204591D01*
X140399054Y-85200485D01*
X140348259Y-85152512D01*
X140331463Y-85084692D01*
X140353999Y-85018556D01*
X140399054Y-84979515D01*
X140407816Y-84975051D01*
X140442591Y-84949786D01*
X140579786Y-84850109D01*
X140579788Y-84850106D01*
X140579792Y-84850104D01*
X140730104Y-84699792D01*
X140730106Y-84699788D01*
X140730109Y-84699786D01*
X140855048Y-84527820D01*
X140855047Y-84527820D01*
X140855051Y-84527816D01*
X140951557Y-84338412D01*
X141017246Y-84136243D01*
X141050500Y-83926287D01*
X141050500Y-83713713D01*
X141017246Y-83503757D01*
X140951557Y-83301588D01*
X140855051Y-83112184D01*
X140855049Y-83112181D01*
X140855048Y-83112179D01*
X140730109Y-82940213D01*
X140579786Y-82789890D01*
X140407817Y-82664949D01*
X140398504Y-82660204D01*
X140347707Y-82612230D01*
X140330912Y-82544409D01*
X140353449Y-82478274D01*
X140398507Y-82439232D01*
X140407555Y-82434622D01*
X140461716Y-82395270D01*
X140461717Y-82395270D01*
X139829408Y-81762962D01*
X139892993Y-81745925D01*
X140007007Y-81680099D01*
X140100099Y-81587007D01*
X140165925Y-81472993D01*
X140182962Y-81409409D01*
X140815270Y-82041717D01*
X140815270Y-82041716D01*
X140854622Y-81987554D01*
X140951095Y-81798217D01*
X141016757Y-81596130D01*
X141016757Y-81596127D01*
X141050000Y-81386246D01*
X141050000Y-81173753D01*
X141016757Y-80963872D01*
X141016757Y-80963869D01*
X140951095Y-80761782D01*
X140854624Y-80572449D01*
X140815270Y-80518282D01*
X140815269Y-80518282D01*
X140182962Y-81150590D01*
X140165925Y-81087007D01*
X140100099Y-80972993D01*
X140007007Y-80879901D01*
X139892993Y-80814075D01*
X139829409Y-80797037D01*
X140461716Y-80164728D01*
X140407547Y-80125373D01*
X140407547Y-80125372D01*
X140398500Y-80120763D01*
X140347706Y-80072788D01*
X140330912Y-80004966D01*
X140353451Y-79938832D01*
X140398508Y-79899793D01*
X140407816Y-79895051D01*
X140488734Y-79836261D01*
X140579786Y-79770109D01*
X140579788Y-79770106D01*
X140579792Y-79770104D01*
X140730104Y-79619792D01*
X140730106Y-79619788D01*
X140730109Y-79619786D01*
X140855048Y-79447820D01*
X140855047Y-79447820D01*
X140855051Y-79447816D01*
X140951557Y-79258412D01*
X141017246Y-79056243D01*
X141050500Y-78846287D01*
X141050500Y-78633713D01*
X141017246Y-78423757D01*
X140951557Y-78221588D01*
X140855051Y-78032184D01*
X140855049Y-78032181D01*
X140855048Y-78032179D01*
X140730109Y-77860213D01*
X140579786Y-77709890D01*
X140407817Y-77584949D01*
X140398504Y-77580204D01*
X140347707Y-77532230D01*
X140330912Y-77464409D01*
X140353449Y-77398274D01*
X140398507Y-77359232D01*
X140407555Y-77354622D01*
X140461716Y-77315270D01*
X140461717Y-77315270D01*
X139829408Y-76682962D01*
X139892993Y-76665925D01*
X140007007Y-76600099D01*
X140100099Y-76507007D01*
X140165925Y-76392993D01*
X140182962Y-76329409D01*
X140815270Y-76961717D01*
X140815270Y-76961716D01*
X140854622Y-76907554D01*
X140951095Y-76718217D01*
X141016757Y-76516130D01*
X141016757Y-76516127D01*
X141050000Y-76306246D01*
X141050000Y-76093753D01*
X141016757Y-75883872D01*
X141016757Y-75883869D01*
X140951095Y-75681782D01*
X140854624Y-75492449D01*
X140815270Y-75438282D01*
X140815269Y-75438282D01*
X140182962Y-76070590D01*
X140165925Y-76007007D01*
X140100099Y-75892993D01*
X140007007Y-75799901D01*
X139892993Y-75734075D01*
X139829409Y-75717037D01*
X140461716Y-75084728D01*
X140407547Y-75045373D01*
X140407547Y-75045372D01*
X140398500Y-75040763D01*
X140347706Y-74992788D01*
X140330912Y-74924966D01*
X140353451Y-74858832D01*
X140398508Y-74819793D01*
X140407816Y-74815051D01*
X140487007Y-74757515D01*
X140579786Y-74690109D01*
X140579788Y-74690106D01*
X140579792Y-74690104D01*
X140730104Y-74539792D01*
X140730106Y-74539788D01*
X140730109Y-74539786D01*
X140855048Y-74367820D01*
X140855047Y-74367820D01*
X140855051Y-74367816D01*
X140951557Y-74178412D01*
X141017246Y-73976243D01*
X141050500Y-73766287D01*
X141050500Y-73553713D01*
X141024837Y-73391683D01*
X141033792Y-73322389D01*
X141059626Y-73284607D01*
X141320820Y-73023414D01*
X141382142Y-72989930D01*
X141451834Y-72994914D01*
X141507767Y-73036786D01*
X141532184Y-73102250D01*
X141532500Y-73111096D01*
X141532500Y-79816330D01*
X141532499Y-79816348D01*
X141532499Y-79982054D01*
X141532498Y-79982054D01*
X141539986Y-80010000D01*
X141570787Y-80124949D01*
X141573423Y-80134784D01*
X141573424Y-80134788D01*
X141601670Y-80183712D01*
X141601671Y-80183712D01*
X141652477Y-80271712D01*
X141652481Y-80271717D01*
X141771349Y-80390585D01*
X141771355Y-80390590D01*
X143279139Y-81898374D01*
X143279149Y-81898385D01*
X143283479Y-81902715D01*
X143283480Y-81902716D01*
X143395284Y-82014520D01*
X143469103Y-82057139D01*
X143532215Y-82093577D01*
X143684942Y-82134500D01*
X143684943Y-82134500D01*
X146994234Y-82134500D01*
X147061273Y-82154185D01*
X147063125Y-82155398D01*
X147194814Y-82243390D01*
X147194827Y-82243397D01*
X147340498Y-82303735D01*
X147340503Y-82303737D01*
X147495153Y-82334499D01*
X147495156Y-82334500D01*
X147495158Y-82334500D01*
X147652844Y-82334500D01*
X147652845Y-82334499D01*
X147807497Y-82303737D01*
X147953179Y-82243394D01*
X148084289Y-82155789D01*
X148195789Y-82044289D01*
X148283394Y-81913179D01*
X148343737Y-81767497D01*
X148374500Y-81612842D01*
X148374500Y-81455158D01*
X148374500Y-81455155D01*
X148374499Y-81455153D01*
X148361130Y-81387942D01*
X148343737Y-81300503D01*
X148335245Y-81280001D01*
X148283397Y-81154827D01*
X148283390Y-81154814D01*
X148195789Y-81023711D01*
X148195786Y-81023707D01*
X148084292Y-80912213D01*
X148084288Y-80912210D01*
X147953185Y-80824609D01*
X147953172Y-80824602D01*
X147807501Y-80764264D01*
X147807489Y-80764261D01*
X147652845Y-80733500D01*
X147652842Y-80733500D01*
X147495158Y-80733500D01*
X147495155Y-80733500D01*
X147340510Y-80764261D01*
X147340498Y-80764264D01*
X147194827Y-80824602D01*
X147194814Y-80824609D01*
X147063125Y-80912602D01*
X146996447Y-80933480D01*
X146994234Y-80933500D01*
X144064097Y-80933500D01*
X143997058Y-80913815D01*
X143976416Y-80897181D01*
X142769819Y-79690584D01*
X142736334Y-79629261D01*
X142733500Y-79602903D01*
X142733500Y-70883296D01*
X142753185Y-70816257D01*
X142769814Y-70795620D01*
X144549345Y-69016088D01*
X144610666Y-68982605D01*
X144680358Y-68987589D01*
G37*
%TD.AperFunction*%
%TA.AperFunction,Conductor*%
G36*
X163675270Y-94741717D02*
G01*
X163703771Y-94739474D01*
X163772148Y-94753838D01*
X163821905Y-94802890D01*
X163837500Y-94863092D01*
X163837500Y-95599086D01*
X163817815Y-95666125D01*
X163765011Y-95711880D01*
X163695853Y-95721824D01*
X163632297Y-95692799D01*
X163613182Y-95671971D01*
X163590109Y-95640214D01*
X163590105Y-95640209D01*
X163439786Y-95489890D01*
X163267817Y-95364949D01*
X163258504Y-95360204D01*
X163207707Y-95312230D01*
X163190912Y-95244409D01*
X163213449Y-95178274D01*
X163258507Y-95139232D01*
X163267555Y-95134622D01*
X163321716Y-95095270D01*
X163321717Y-95095270D01*
X162689408Y-94462962D01*
X162752993Y-94445925D01*
X162867007Y-94380099D01*
X162960099Y-94287007D01*
X163025925Y-94172993D01*
X163042962Y-94109409D01*
X163675270Y-94741717D01*
G37*
%TD.AperFunction*%
%TA.AperFunction,Conductor*%
G36*
X163799919Y-92271987D02*
G01*
X163834277Y-92332825D01*
X163837500Y-92360913D01*
X163837500Y-93096907D01*
X163817815Y-93163946D01*
X163765011Y-93209701D01*
X163703771Y-93220525D01*
X163675270Y-93218281D01*
X163042962Y-93850590D01*
X163025925Y-93787007D01*
X162960099Y-93672993D01*
X162867007Y-93579901D01*
X162752993Y-93514075D01*
X162689409Y-93497037D01*
X163321716Y-92864728D01*
X163267547Y-92825373D01*
X163267547Y-92825372D01*
X163258500Y-92820763D01*
X163207706Y-92772788D01*
X163190912Y-92704966D01*
X163213451Y-92638832D01*
X163258508Y-92599793D01*
X163267816Y-92595051D01*
X163347007Y-92537515D01*
X163439786Y-92470109D01*
X163439788Y-92470106D01*
X163439792Y-92470104D01*
X163590104Y-92319792D01*
X163613181Y-92288028D01*
X163668510Y-92245363D01*
X163738123Y-92239382D01*
X163799919Y-92271987D01*
G37*
%TD.AperFunction*%
%TA.AperFunction,Conductor*%
G36*
X139234075Y-91632993D02*
G01*
X139299901Y-91747007D01*
X139392993Y-91840099D01*
X139507007Y-91905925D01*
X139570590Y-91922962D01*
X138938282Y-92555269D01*
X138938282Y-92555270D01*
X138992452Y-92594626D01*
X138992451Y-92594626D01*
X139001495Y-92599234D01*
X139052292Y-92647208D01*
X139069087Y-92715029D01*
X139046550Y-92781164D01*
X139001499Y-92820202D01*
X138992182Y-92824949D01*
X138820213Y-92949890D01*
X138669894Y-93100209D01*
X138669890Y-93100214D01*
X138646818Y-93131971D01*
X138591489Y-93174637D01*
X138521875Y-93180616D01*
X138460080Y-93148011D01*
X138425723Y-93087172D01*
X138422500Y-93059086D01*
X138422500Y-92323091D01*
X138442185Y-92256052D01*
X138494989Y-92210297D01*
X138556230Y-92199473D01*
X138584728Y-92201716D01*
X139217037Y-91569408D01*
X139234075Y-91632993D01*
G37*
%TD.AperFunction*%
%TA.AperFunction,Conductor*%
G36*
X138627703Y-89727200D02*
G01*
X138646819Y-89748029D01*
X138669892Y-89779788D01*
X138820213Y-89930109D01*
X138992179Y-90055048D01*
X138992181Y-90055049D01*
X138992184Y-90055051D01*
X139001493Y-90059794D01*
X139052290Y-90107766D01*
X139069087Y-90175587D01*
X139046552Y-90241722D01*
X139001505Y-90280760D01*
X138992446Y-90285376D01*
X138992440Y-90285380D01*
X138938282Y-90324727D01*
X138938282Y-90324728D01*
X139570591Y-90957037D01*
X139507007Y-90974075D01*
X139392993Y-91039901D01*
X139299901Y-91132993D01*
X139234075Y-91247007D01*
X139217037Y-91310591D01*
X138584728Y-90678282D01*
X138556229Y-90680525D01*
X138487852Y-90666161D01*
X138438095Y-90617109D01*
X138422500Y-90556907D01*
X138422500Y-89820913D01*
X138442185Y-89753874D01*
X138494989Y-89708119D01*
X138564147Y-89698175D01*
X138627703Y-89727200D01*
G37*
%TD.AperFunction*%
%TA.AperFunction,Conductor*%
G36*
X139234075Y-81472993D02*
G01*
X139299901Y-81587007D01*
X139392993Y-81680099D01*
X139507007Y-81745925D01*
X139570590Y-81762962D01*
X138938282Y-82395269D01*
X138938282Y-82395270D01*
X138992452Y-82434626D01*
X138992451Y-82434626D01*
X139001495Y-82439234D01*
X139052292Y-82487208D01*
X139069087Y-82555029D01*
X139046550Y-82621164D01*
X139001499Y-82660202D01*
X138992182Y-82664949D01*
X138820213Y-82789890D01*
X138669894Y-82940209D01*
X138669890Y-82940214D01*
X138646818Y-82971971D01*
X138591489Y-83014637D01*
X138521875Y-83020616D01*
X138460080Y-82988011D01*
X138425723Y-82927172D01*
X138422500Y-82899086D01*
X138422500Y-82163091D01*
X138442185Y-82096052D01*
X138494989Y-82050297D01*
X138556230Y-82039473D01*
X138584728Y-82041716D01*
X139217037Y-81409408D01*
X139234075Y-81472993D01*
G37*
%TD.AperFunction*%
%TA.AperFunction,Conductor*%
G36*
X138627703Y-79567200D02*
G01*
X138646819Y-79588029D01*
X138669892Y-79619788D01*
X138820213Y-79770109D01*
X138992179Y-79895048D01*
X138992181Y-79895049D01*
X138992184Y-79895051D01*
X139001493Y-79899794D01*
X139052290Y-79947766D01*
X139069087Y-80015587D01*
X139046552Y-80081722D01*
X139001505Y-80120760D01*
X138992446Y-80125376D01*
X138992440Y-80125380D01*
X138938282Y-80164727D01*
X138938282Y-80164728D01*
X139570591Y-80797037D01*
X139507007Y-80814075D01*
X139392993Y-80879901D01*
X139299901Y-80972993D01*
X139234075Y-81087007D01*
X139217037Y-81150591D01*
X138584728Y-80518282D01*
X138556229Y-80520525D01*
X138487852Y-80506161D01*
X138438095Y-80457109D01*
X138422500Y-80396907D01*
X138422500Y-79660913D01*
X138442185Y-79593874D01*
X138494989Y-79548119D01*
X138564147Y-79538175D01*
X138627703Y-79567200D01*
G37*
%TD.AperFunction*%
%TA.AperFunction,Conductor*%
G36*
X139234075Y-76392993D02*
G01*
X139299901Y-76507007D01*
X139392993Y-76600099D01*
X139507007Y-76665925D01*
X139570590Y-76682962D01*
X138938282Y-77315269D01*
X138938282Y-77315270D01*
X138992452Y-77354626D01*
X138992451Y-77354626D01*
X139001495Y-77359234D01*
X139052292Y-77407208D01*
X139069087Y-77475029D01*
X139046550Y-77541164D01*
X139001499Y-77580202D01*
X138992182Y-77584949D01*
X138820213Y-77709890D01*
X138669894Y-77860209D01*
X138669890Y-77860214D01*
X138646818Y-77891971D01*
X138591489Y-77934637D01*
X138521875Y-77940616D01*
X138460080Y-77908011D01*
X138425723Y-77847172D01*
X138422500Y-77819086D01*
X138422500Y-77083091D01*
X138442185Y-77016052D01*
X138494989Y-76970297D01*
X138556230Y-76959473D01*
X138584728Y-76961716D01*
X139217037Y-76329408D01*
X139234075Y-76392993D01*
G37*
%TD.AperFunction*%
%TA.AperFunction,Conductor*%
G36*
X138627703Y-74487200D02*
G01*
X138646819Y-74508029D01*
X138669892Y-74539788D01*
X138820213Y-74690109D01*
X138992179Y-74815048D01*
X138992181Y-74815049D01*
X138992184Y-74815051D01*
X139001493Y-74819794D01*
X139052290Y-74867766D01*
X139069087Y-74935587D01*
X139046552Y-75001722D01*
X139001505Y-75040760D01*
X138992446Y-75045376D01*
X138992440Y-75045380D01*
X138938282Y-75084727D01*
X138938282Y-75084728D01*
X139570591Y-75717037D01*
X139507007Y-75734075D01*
X139392993Y-75799901D01*
X139299901Y-75892993D01*
X139234075Y-76007007D01*
X139217037Y-76070591D01*
X138584728Y-75438282D01*
X138556229Y-75440525D01*
X138487852Y-75426161D01*
X138438095Y-75377109D01*
X138422500Y-75316907D01*
X138422500Y-74580913D01*
X138442185Y-74513874D01*
X138494989Y-74468119D01*
X138564147Y-74458175D01*
X138627703Y-74487200D01*
G37*
%TD.AperFunction*%
%TA.AperFunction,Conductor*%
G36*
X163675270Y-69341717D02*
G01*
X163703771Y-69339474D01*
X163772148Y-69353838D01*
X163821905Y-69402890D01*
X163837500Y-69463092D01*
X163837500Y-70199086D01*
X163817815Y-70266125D01*
X163765011Y-70311880D01*
X163695853Y-70321824D01*
X163632297Y-70292799D01*
X163613182Y-70271971D01*
X163590109Y-70240214D01*
X163590105Y-70240209D01*
X163439786Y-70089890D01*
X163267817Y-69964949D01*
X163258504Y-69960204D01*
X163207707Y-69912230D01*
X163190912Y-69844409D01*
X163213449Y-69778274D01*
X163258507Y-69739232D01*
X163267555Y-69734622D01*
X163321716Y-69695270D01*
X163321717Y-69695270D01*
X162689408Y-69062962D01*
X162752993Y-69045925D01*
X162867007Y-68980099D01*
X162960099Y-68887007D01*
X163025925Y-68772993D01*
X163042962Y-68709409D01*
X163675270Y-69341717D01*
G37*
%TD.AperFunction*%
%TA.AperFunction,Conductor*%
G36*
X161225937Y-64782185D02*
G01*
X161271692Y-64834989D01*
X161281636Y-64904147D01*
X161267729Y-64945929D01*
X161266646Y-64947911D01*
X161216403Y-65082620D01*
X161216401Y-65082627D01*
X161210000Y-65142155D01*
X161210000Y-65790000D01*
X162126988Y-65790000D01*
X162094075Y-65847007D01*
X162060000Y-65974174D01*
X162060000Y-66105826D01*
X162094075Y-66232993D01*
X162126988Y-66290000D01*
X161210000Y-66290000D01*
X161210000Y-66937844D01*
X161216401Y-66997372D01*
X161216403Y-66997379D01*
X161266645Y-67132086D01*
X161266649Y-67132093D01*
X161352809Y-67247187D01*
X161352812Y-67247190D01*
X161467906Y-67333350D01*
X161467913Y-67333354D01*
X161602620Y-67383596D01*
X161602619Y-67383596D01*
X161685444Y-67392501D01*
X161685116Y-67395550D01*
X161702014Y-67394642D01*
X161761196Y-67427642D01*
X162430591Y-68097037D01*
X162367007Y-68114075D01*
X162252993Y-68179901D01*
X162159901Y-68272993D01*
X162094075Y-68387007D01*
X162077037Y-68450591D01*
X161444728Y-67818282D01*
X161444727Y-67818282D01*
X161405380Y-67872439D01*
X161308904Y-68061782D01*
X161243242Y-68263869D01*
X161243242Y-68263872D01*
X161210000Y-68473753D01*
X161210000Y-68686246D01*
X161243242Y-68896127D01*
X161243242Y-68896130D01*
X161305319Y-69087182D01*
X161307314Y-69157023D01*
X161271234Y-69216856D01*
X161208533Y-69247684D01*
X161187388Y-69249500D01*
X148184515Y-69249500D01*
X148117476Y-69229815D01*
X148096834Y-69213181D01*
X148073930Y-69190277D01*
X148073926Y-69190274D01*
X147942823Y-69102673D01*
X147942810Y-69102666D01*
X147797139Y-69042328D01*
X147797127Y-69042325D01*
X147642483Y-69011564D01*
X147642480Y-69011564D01*
X147529033Y-69011564D01*
X147461994Y-68991879D01*
X147416239Y-68939075D01*
X147406295Y-68869917D01*
X147435320Y-68806361D01*
X147441352Y-68799883D01*
X147968243Y-68272993D01*
X149056417Y-67184819D01*
X149117740Y-67151334D01*
X149144098Y-67148500D01*
X156138234Y-67148500D01*
X156205273Y-67168185D01*
X156207125Y-67169398D01*
X156338814Y-67257390D01*
X156338827Y-67257397D01*
X156417894Y-67290147D01*
X156484503Y-67317737D01*
X156605641Y-67341833D01*
X156639153Y-67348499D01*
X156639156Y-67348500D01*
X156639158Y-67348500D01*
X156796844Y-67348500D01*
X156796845Y-67348499D01*
X156951497Y-67317737D01*
X157097179Y-67257394D01*
X157228289Y-67169789D01*
X157339789Y-67058289D01*
X157427394Y-66927179D01*
X157487737Y-66781497D01*
X157518500Y-66626842D01*
X157518500Y-66469158D01*
X157518500Y-66469155D01*
X157518499Y-66469153D01*
X157487738Y-66314510D01*
X157487737Y-66314503D01*
X157447562Y-66217511D01*
X157427397Y-66168827D01*
X157427390Y-66168814D01*
X157339789Y-66037711D01*
X157339786Y-66037707D01*
X157228292Y-65926213D01*
X157228288Y-65926210D01*
X157097185Y-65838609D01*
X157097172Y-65838602D01*
X156951501Y-65778264D01*
X156951489Y-65778261D01*
X156796845Y-65747500D01*
X156796842Y-65747500D01*
X156639158Y-65747500D01*
X156639155Y-65747500D01*
X156484510Y-65778261D01*
X156484498Y-65778264D01*
X156338827Y-65838602D01*
X156338814Y-65838609D01*
X156207125Y-65926602D01*
X156140447Y-65947480D01*
X156138234Y-65947500D01*
X148923062Y-65947500D01*
X148923058Y-65947499D01*
X148764943Y-65947499D01*
X148764939Y-65947500D01*
X145120670Y-65947500D01*
X145120654Y-65947499D01*
X145113058Y-65947499D01*
X144954943Y-65947499D01*
X144878579Y-65967961D01*
X144802214Y-65988423D01*
X144802209Y-65988426D01*
X144665290Y-66067475D01*
X144665282Y-66067481D01*
X140743481Y-69989282D01*
X140743475Y-69989290D01*
X140723042Y-70024681D01*
X140712511Y-70034721D01*
X140705922Y-70047698D01*
X140687730Y-70058349D01*
X140672475Y-70072896D01*
X140658185Y-70075649D01*
X140645628Y-70083003D01*
X140624565Y-70082128D01*
X140603867Y-70086118D01*
X140589086Y-70080656D01*
X140575818Y-70080106D01*
X140546448Y-70064901D01*
X140544349Y-70064126D01*
X140543531Y-70063551D01*
X140407816Y-69964949D01*
X140391227Y-69956496D01*
X140384042Y-69951446D01*
X140367529Y-69930711D01*
X140348259Y-69912512D01*
X140346103Y-69903806D01*
X140340516Y-69896791D01*
X140337834Y-69870419D01*
X140331463Y-69844692D01*
X140334355Y-69836203D01*
X140333448Y-69827279D01*
X140345450Y-69803643D01*
X140353999Y-69778556D01*
X140361483Y-69772070D01*
X140365083Y-69764982D01*
X140379212Y-69756708D01*
X140399054Y-69739515D01*
X140407816Y-69735051D01*
X140462570Y-69695270D01*
X140579786Y-69610109D01*
X140579788Y-69610106D01*
X140579792Y-69610104D01*
X140730104Y-69459792D01*
X140730106Y-69459788D01*
X140730109Y-69459786D01*
X140855048Y-69287820D01*
X140855047Y-69287820D01*
X140855051Y-69287816D01*
X140951557Y-69098412D01*
X141017246Y-68896243D01*
X141050500Y-68686287D01*
X141050500Y-68473713D01*
X141017246Y-68263757D01*
X140951557Y-68061588D01*
X140855051Y-67872184D01*
X140855049Y-67872181D01*
X140855048Y-67872179D01*
X140730109Y-67700213D01*
X140616181Y-67586285D01*
X140582696Y-67524962D01*
X140587680Y-67455270D01*
X140629552Y-67399337D01*
X140660529Y-67382422D01*
X140792086Y-67333354D01*
X140792093Y-67333350D01*
X140907187Y-67247190D01*
X140907190Y-67247187D01*
X140993350Y-67132093D01*
X140993354Y-67132086D01*
X141043596Y-66997379D01*
X141043598Y-66997372D01*
X141049999Y-66937844D01*
X141050000Y-66937827D01*
X141050000Y-66290000D01*
X140133012Y-66290000D01*
X140165925Y-66232993D01*
X140200000Y-66105826D01*
X140200000Y-65974174D01*
X140165925Y-65847007D01*
X140133012Y-65790000D01*
X141050000Y-65790000D01*
X141050000Y-65142172D01*
X141049999Y-65142155D01*
X141043598Y-65082627D01*
X141043596Y-65082620D01*
X140993353Y-64947911D01*
X140992271Y-64945929D01*
X140991790Y-64943720D01*
X140990254Y-64939601D01*
X140990846Y-64939380D01*
X140977418Y-64877657D01*
X141001833Y-64812192D01*
X141057766Y-64770319D01*
X141101102Y-64762500D01*
X161158898Y-64762500D01*
X161225937Y-64782185D01*
G37*
%TD.AperFunction*%
%TA.AperFunction,Conductor*%
G36*
X163787808Y-67341833D02*
G01*
X163829681Y-67397766D01*
X163837500Y-67441102D01*
X163837500Y-67696907D01*
X163817815Y-67763946D01*
X163765011Y-67809701D01*
X163703771Y-67820525D01*
X163675270Y-67818281D01*
X163042962Y-68450590D01*
X163025925Y-68387007D01*
X162960099Y-68272993D01*
X162867007Y-68179901D01*
X162752993Y-68114075D01*
X162689409Y-68097037D01*
X163358802Y-67427642D01*
X163420125Y-67394157D01*
X163434833Y-67395078D01*
X163434556Y-67392501D01*
X163517375Y-67383598D01*
X163652088Y-67333353D01*
X163654071Y-67332271D01*
X163656279Y-67331790D01*
X163660399Y-67330254D01*
X163660619Y-67330846D01*
X163722343Y-67317418D01*
X163787808Y-67341833D01*
G37*
%TD.AperFunction*%
%TD*%
M02*
