M48
; DRILL file {KiCad 9.0.0} date 2025-05-27T11:29:27+0600
; FORMAT={-:-/ absolute / metric / decimal}
; #@! TF.CreationDate,2025-05-27T11:29:27+06:00
; #@! TF.GenerationSoftware,Kicad,Pcbnew,9.0.0
; #@! TF.FileFunction,Plated,1,2,PTH
FMAT,2
METRIC
; #@! TA.AperFunction,Plated,PTH,ViaDrill
T1C0.300
; #@! TA.AperFunction,Plated,PTH,ComponentDrill
T2C1.000
%
G90
G05
T1
X142.621Y-81.661
X142.621Y-88.519
X142.748Y-94.996
X142.748Y-103.886
X145.0Y-85.0
X145.5Y-78.0
X145.5Y-98.0
X145.542Y-67.272
X145.542Y-68.072
X145.542Y-68.915
X147.32Y-97.282
X147.564Y-69.812
X147.574Y-70.612
X147.574Y-71.374
X147.574Y-72.136
X147.574Y-72.898
X147.574Y-73.66
X147.574Y-74.422
X147.574Y-75.184
X147.574Y-75.946
X147.574Y-81.534
X148.0Y-95.5
X148.83Y-81.788
X149.225Y-94.869
X149.38Y-88.928
X149.43Y-80.694
X150.0Y-102.5
X150.28Y-80.606
X150.5Y-78.0
X151.5Y-82.5
X152.908Y-101.6
X153.162Y-94.996
X153.5Y-104.522
X153.67Y-84.328
X154.94Y-98.552
X155.0Y-81.0
X155.0Y-90.5
X155.0Y-94.15
X156.0Y-78.0
X156.718Y-66.548
X157.48Y-93.472
X157.5Y-92.0
T2
X139.7Y-66.04
X139.7Y-68.58
X139.7Y-71.12
X139.7Y-73.66
X139.7Y-76.2
X139.7Y-78.74
X139.7Y-81.28
X139.7Y-83.82
X139.7Y-86.36
X139.7Y-88.9
X139.7Y-91.44
X139.7Y-93.98
X139.7Y-96.52
X139.7Y-99.06
X139.7Y-101.6
X139.7Y-104.14
X162.56Y-66.04
X162.56Y-68.58
X162.56Y-71.12
X162.56Y-73.66
X162.56Y-76.2
X162.56Y-78.74
X162.56Y-81.28
X162.56Y-83.82
X162.56Y-86.36
X162.56Y-88.9
X162.56Y-91.44
X162.56Y-93.98
X162.56Y-96.52
X162.56Y-99.06
X162.56Y-101.6
X162.56Y-104.14
M30
