%TF.GenerationSoftware,KiCad,Pcbnew,9.0.0*%
%TF.CreationDate,2025-05-27T11:33:04+06:00*%
%TF.ProjectId,devboard,64657662-6f61-4726-942e-6b696361645f,rev?*%
%TF.SameCoordinates,Original*%
%TF.FileFunction,Paste,Top*%
%TF.FilePolarity,Positive*%
%FSLAX46Y46*%
G04 Gerber Fmt 4.6, Leading zero omitted, Abs format (unit mm)*
G04 Created by KiCad (PCBNEW 9.0.0) date 2025-05-27 11:33:04*
%MOMM*%
%LPD*%
G01*
G04 APERTURE LIST*
G04 Aperture macros list*
%AMRoundRect*
0 Rectangle with rounded corners*
0 $1 Rounding radius*
0 $2 $3 $4 $5 $6 $7 $8 $9 X,Y pos of 4 corners*
0 Add a 4 corners polygon primitive as box body*
4,1,4,$2,$3,$4,$5,$6,$7,$8,$9,$2,$3,0*
0 Add four circle primitives for the rounded corners*
1,1,$1+$1,$2,$3*
1,1,$1+$1,$4,$5*
1,1,$1+$1,$6,$7*
1,1,$1+$1,$8,$9*
0 Add four rect primitives between the rounded corners*
20,1,$1+$1,$2,$3,$4,$5,0*
20,1,$1+$1,$4,$5,$6,$7,0*
20,1,$1+$1,$6,$7,$8,$9,0*
20,1,$1+$1,$8,$9,$2,$3,0*%
%AMOutline5P*
0 Free polygon, 5 corners , with rotation*
0 The origin of the aperture is its center*
0 number of corners: always 5*
0 $1 to $10 corner X, Y*
0 $11 Rotation angle, in degrees counterclockwise*
0 create outline with 5 corners*
4,1,5,$1,$2,$3,$4,$5,$6,$7,$8,$9,$10,$1,$2,$11*%
%AMOutline6P*
0 Free polygon, 6 corners , with rotation*
0 The origin of the aperture is its center*
0 number of corners: always 6*
0 $1 to $12 corner X, Y*
0 $13 Rotation angle, in degrees counterclockwise*
0 create outline with 6 corners*
4,1,6,$1,$2,$3,$4,$5,$6,$7,$8,$9,$10,$11,$12,$1,$2,$13*%
%AMOutline7P*
0 Free polygon, 7 corners , with rotation*
0 The origin of the aperture is its center*
0 number of corners: always 7*
0 $1 to $14 corner X, Y*
0 $15 Rotation angle, in degrees counterclockwise*
0 create outline with 7 corners*
4,1,7,$1,$2,$3,$4,$5,$6,$7,$8,$9,$10,$11,$12,$13,$14,$1,$2,$15*%
%AMOutline8P*
0 Free polygon, 8 corners , with rotation*
0 The origin of the aperture is its center*
0 number of corners: always 8*
0 $1 to $16 corner X, Y*
0 $17 Rotation angle, in degrees counterclockwise*
0 create outline with 8 corners*
4,1,8,$1,$2,$3,$4,$5,$6,$7,$8,$9,$10,$11,$12,$13,$14,$15,$16,$1,$2,$17*%
G04 Aperture macros list end*
%ADD10RoundRect,0.218750X0.381250X-0.218750X0.381250X0.218750X-0.381250X0.218750X-0.381250X-0.218750X0*%
%ADD11RoundRect,0.135000X-0.185000X0.135000X-0.185000X-0.135000X0.185000X-0.135000X0.185000X0.135000X0*%
%ADD12R,1.000000X0.700000*%
%ADD13RoundRect,0.140000X-0.170000X0.140000X-0.170000X-0.140000X0.170000X-0.140000X0.170000X0.140000X0*%
%ADD14RoundRect,0.250000X-0.250000X-0.475000X0.250000X-0.475000X0.250000X0.475000X-0.250000X0.475000X0*%
%ADD15R,0.800000X0.550000*%
%ADD16RoundRect,0.135000X0.185000X-0.135000X0.185000X0.135000X-0.185000X0.135000X-0.185000X-0.135000X0*%
%ADD17R,0.600000X1.150000*%
%ADD18R,0.300000X1.150000*%
%ADD19R,2.180000X2.000000*%
%ADD20RoundRect,0.140000X0.170000X-0.140000X0.170000X0.140000X-0.170000X0.140000X-0.170000X-0.140000X0*%
%ADD21R,0.800000X0.400000*%
%ADD22R,0.400000X0.800000*%
%ADD23Outline5P,-0.600000X0.204000X-0.204000X0.600000X0.600000X0.600000X0.600000X-0.600000X-0.600000X-0.600000X0.000000*%
%ADD24R,1.200000X1.200000*%
%ADD25R,0.800000X0.800000*%
%ADD26RoundRect,0.225000X0.250000X-0.225000X0.250000X0.225000X-0.250000X0.225000X-0.250000X-0.225000X0*%
%ADD27RoundRect,0.150000X0.512500X0.150000X-0.512500X0.150000X-0.512500X-0.150000X0.512500X-0.150000X0*%
G04 APERTURE END LIST*
D10*
%TO.C,L1*%
X146812000Y-87422500D03*
X146812000Y-85297500D03*
%TD*%
D11*
%TO.C,R4*%
X150368000Y-96012000D03*
X150368000Y-97032000D03*
%TD*%
D12*
%TO.C,SW1*%
X153210000Y-93400000D03*
X159210000Y-93400000D03*
X153210000Y-97100000D03*
X159210000Y-97100000D03*
%TD*%
D13*
%TO.C,C3*%
X159258000Y-99060000D03*
X159258000Y-100020000D03*
%TD*%
D14*
%TO.C,C2*%
X146878000Y-83312000D03*
X148778000Y-83312000D03*
%TD*%
D15*
%TO.C,U2*%
X157400000Y-85278000D03*
X157400000Y-84328000D03*
X157400000Y-83378000D03*
X155000000Y-83378000D03*
X155000000Y-84328000D03*
X155000000Y-85278000D03*
%TD*%
D13*
%TO.C,C4*%
X143002000Y-99060000D03*
X143002000Y-100020000D03*
%TD*%
D16*
%TO.C,R2*%
X142494000Y-102872000D03*
X142494000Y-101852000D03*
%TD*%
D11*
%TO.C,R3*%
X151892000Y-96012000D03*
X151892000Y-97032000D03*
%TD*%
D16*
%TO.C,R1*%
X143510000Y-102872000D03*
X143510000Y-101852000D03*
%TD*%
D17*
%TO.C,J1*%
X147930000Y-100017000D03*
X148730000Y-100017000D03*
D18*
X149880000Y-100017000D03*
X150880000Y-100017000D03*
X151380000Y-100017000D03*
X152380000Y-100017000D03*
D17*
X154330000Y-100017000D03*
X153530000Y-100017000D03*
D18*
X152880000Y-100017000D03*
X151880000Y-100017000D03*
X150380000Y-100017000D03*
X149380000Y-100017000D03*
D19*
X146020000Y-100592000D03*
X156240000Y-100592000D03*
X146020000Y-104522000D03*
X156240000Y-104522000D03*
%TD*%
D20*
%TO.C,C5*%
X142240000Y-67762000D03*
X142240000Y-66802000D03*
%TD*%
D12*
%TO.C,SW2*%
X143050000Y-93400000D03*
X149050000Y-93400000D03*
X143050000Y-97100000D03*
X149050000Y-97100000D03*
%TD*%
D21*
%TO.C,U1*%
X144130000Y-66440000D03*
X144130000Y-67290000D03*
X144130000Y-68140000D03*
X144130000Y-68990000D03*
X144130000Y-69840000D03*
X144130000Y-70690000D03*
X144130000Y-71540000D03*
X144130000Y-72390000D03*
X144130000Y-73240000D03*
X144130000Y-74090000D03*
X144130000Y-74940000D03*
X144130000Y-75790000D03*
X144130000Y-76640000D03*
X144130000Y-77490000D03*
X144130000Y-78340000D03*
D22*
X145180000Y-79390000D03*
X146030000Y-79390000D03*
X146880000Y-79390000D03*
X147730000Y-79390000D03*
X148580000Y-79390000D03*
X149430000Y-79390000D03*
X150280000Y-79390000D03*
X151130000Y-79390000D03*
X151980000Y-79390000D03*
X152830000Y-79390000D03*
X153680000Y-79390000D03*
X154530000Y-79390000D03*
X155380000Y-79390000D03*
X156230000Y-79390000D03*
X157080000Y-79390000D03*
D21*
X158130000Y-78340000D03*
X158130000Y-77490000D03*
X158130000Y-76640000D03*
X158130000Y-75790000D03*
X158130000Y-74940000D03*
X158130000Y-74090000D03*
X158130000Y-73240000D03*
X158130000Y-72390000D03*
X158130000Y-71540000D03*
X158130000Y-70690000D03*
X158130000Y-69840000D03*
X158130000Y-68990000D03*
X158130000Y-68140000D03*
X158130000Y-67290000D03*
X158130000Y-66440000D03*
D22*
X157080000Y-65390000D03*
X156230000Y-65390000D03*
X155380000Y-65390000D03*
X154530000Y-65390000D03*
X153680000Y-65390000D03*
X152830000Y-65390000D03*
X151980000Y-65390000D03*
X151130000Y-65390000D03*
X150280000Y-65390000D03*
X149430000Y-65390000D03*
X148580000Y-65390000D03*
X147730000Y-65390000D03*
X146880000Y-65390000D03*
X146030000Y-65390000D03*
X145180000Y-65390000D03*
D23*
X149480000Y-70740000D03*
D24*
X149480000Y-72390000D03*
X149480000Y-74040000D03*
X151130000Y-70740000D03*
X151130000Y-72390000D03*
X151130000Y-74040000D03*
X152780000Y-70740000D03*
X152780000Y-72390000D03*
X152780000Y-74040000D03*
D25*
X144130000Y-65390000D03*
X144130000Y-79390000D03*
X158130000Y-79390000D03*
X158130000Y-65390000D03*
%TD*%
D26*
%TO.C,C1*%
X152654000Y-87897000D03*
X152654000Y-86347000D03*
%TD*%
D27*
%TO.C,U3*%
X150997500Y-87310000D03*
X150997500Y-86360000D03*
X150997500Y-85410000D03*
X148722500Y-85410000D03*
X148722500Y-87310000D03*
%TD*%
M02*
