%TF.GenerationSoftware,KiCad,Pcbnew,9.0.0*%
%TF.CreationDate,2025-07-11T23:31:07+02:00*%
%TF.ProjectId,usb-dmx,7573622d-646d-4782-9e6b-696361645f70,1*%
%TF.SameCoordinates,Original*%
%TF.FileFunction,Legend,Bot*%
%TF.FilePolarity,Positive*%
%FSLAX46Y46*%
G04 Gerber Fmt 4.6, Leading zero omitted, Abs format (unit mm)*
G04 Created by KiCad (PCBNEW 9.0.0) date 2025-07-11 23:31:07*
%MOMM*%
%LPD*%
G01*
G04 APERTURE LIST*
%ADD10C,0.093750*%
%ADD11C,0.400000*%
G04 APERTURE END LIST*
D10*
X108017856Y-93342089D02*
X108017856Y-92592089D01*
X108017856Y-92592089D02*
X107839285Y-92592089D01*
X107839285Y-92592089D02*
X107732142Y-92627803D01*
X107732142Y-92627803D02*
X107660713Y-92699232D01*
X107660713Y-92699232D02*
X107624999Y-92770660D01*
X107624999Y-92770660D02*
X107589285Y-92913517D01*
X107589285Y-92913517D02*
X107589285Y-93020660D01*
X107589285Y-93020660D02*
X107624999Y-93163517D01*
X107624999Y-93163517D02*
X107660713Y-93234946D01*
X107660713Y-93234946D02*
X107732142Y-93306375D01*
X107732142Y-93306375D02*
X107839285Y-93342089D01*
X107839285Y-93342089D02*
X108017856Y-93342089D01*
X107267856Y-92949232D02*
X107017856Y-92949232D01*
X106910713Y-93342089D02*
X107267856Y-93342089D01*
X107267856Y-93342089D02*
X107267856Y-92592089D01*
X107267856Y-92592089D02*
X106910713Y-92592089D01*
X106624999Y-93306375D02*
X106517857Y-93342089D01*
X106517857Y-93342089D02*
X106339285Y-93342089D01*
X106339285Y-93342089D02*
X106267857Y-93306375D01*
X106267857Y-93306375D02*
X106232142Y-93270660D01*
X106232142Y-93270660D02*
X106196428Y-93199232D01*
X106196428Y-93199232D02*
X106196428Y-93127803D01*
X106196428Y-93127803D02*
X106232142Y-93056375D01*
X106232142Y-93056375D02*
X106267857Y-93020660D01*
X106267857Y-93020660D02*
X106339285Y-92984946D01*
X106339285Y-92984946D02*
X106482142Y-92949232D01*
X106482142Y-92949232D02*
X106553571Y-92913517D01*
X106553571Y-92913517D02*
X106589285Y-92877803D01*
X106589285Y-92877803D02*
X106624999Y-92806375D01*
X106624999Y-92806375D02*
X106624999Y-92734946D01*
X106624999Y-92734946D02*
X106589285Y-92663517D01*
X106589285Y-92663517D02*
X106553571Y-92627803D01*
X106553571Y-92627803D02*
X106482142Y-92592089D01*
X106482142Y-92592089D02*
X106303571Y-92592089D01*
X106303571Y-92592089D02*
X106196428Y-92627803D01*
X105874999Y-93342089D02*
X105874999Y-92592089D01*
X105124999Y-92627803D02*
X105196428Y-92592089D01*
X105196428Y-92592089D02*
X105303570Y-92592089D01*
X105303570Y-92592089D02*
X105410713Y-92627803D01*
X105410713Y-92627803D02*
X105482142Y-92699232D01*
X105482142Y-92699232D02*
X105517856Y-92770660D01*
X105517856Y-92770660D02*
X105553570Y-92913517D01*
X105553570Y-92913517D02*
X105553570Y-93020660D01*
X105553570Y-93020660D02*
X105517856Y-93163517D01*
X105517856Y-93163517D02*
X105482142Y-93234946D01*
X105482142Y-93234946D02*
X105410713Y-93306375D01*
X105410713Y-93306375D02*
X105303570Y-93342089D01*
X105303570Y-93342089D02*
X105232142Y-93342089D01*
X105232142Y-93342089D02*
X105124999Y-93306375D01*
X105124999Y-93306375D02*
X105089285Y-93270660D01*
X105089285Y-93270660D02*
X105089285Y-93020660D01*
X105089285Y-93020660D02*
X105232142Y-93020660D01*
X104767856Y-93342089D02*
X104767856Y-92592089D01*
X104767856Y-92592089D02*
X104339285Y-93342089D01*
X104339285Y-93342089D02*
X104339285Y-92592089D01*
X103982142Y-92949232D02*
X103732142Y-92949232D01*
X103624999Y-93342089D02*
X103982142Y-93342089D01*
X103982142Y-93342089D02*
X103982142Y-92592089D01*
X103982142Y-92592089D02*
X103624999Y-92592089D01*
X103303571Y-93342089D02*
X103303571Y-92592089D01*
X103303571Y-92592089D02*
X103125000Y-92592089D01*
X103125000Y-92592089D02*
X103017857Y-92627803D01*
X103017857Y-92627803D02*
X102946428Y-92699232D01*
X102946428Y-92699232D02*
X102910714Y-92770660D01*
X102910714Y-92770660D02*
X102875000Y-92913517D01*
X102875000Y-92913517D02*
X102875000Y-93020660D01*
X102875000Y-93020660D02*
X102910714Y-93163517D01*
X102910714Y-93163517D02*
X102946428Y-93234946D01*
X102946428Y-93234946D02*
X103017857Y-93306375D01*
X103017857Y-93306375D02*
X103125000Y-93342089D01*
X103125000Y-93342089D02*
X103303571Y-93342089D01*
X101732142Y-92949232D02*
X101624999Y-92984946D01*
X101624999Y-92984946D02*
X101589285Y-93020660D01*
X101589285Y-93020660D02*
X101553571Y-93092089D01*
X101553571Y-93092089D02*
X101553571Y-93199232D01*
X101553571Y-93199232D02*
X101589285Y-93270660D01*
X101589285Y-93270660D02*
X101624999Y-93306375D01*
X101624999Y-93306375D02*
X101696428Y-93342089D01*
X101696428Y-93342089D02*
X101982142Y-93342089D01*
X101982142Y-93342089D02*
X101982142Y-92592089D01*
X101982142Y-92592089D02*
X101732142Y-92592089D01*
X101732142Y-92592089D02*
X101660714Y-92627803D01*
X101660714Y-92627803D02*
X101624999Y-92663517D01*
X101624999Y-92663517D02*
X101589285Y-92734946D01*
X101589285Y-92734946D02*
X101589285Y-92806375D01*
X101589285Y-92806375D02*
X101624999Y-92877803D01*
X101624999Y-92877803D02*
X101660714Y-92913517D01*
X101660714Y-92913517D02*
X101732142Y-92949232D01*
X101732142Y-92949232D02*
X101982142Y-92949232D01*
X101089285Y-92984946D02*
X101089285Y-93342089D01*
X101339285Y-92592089D02*
X101089285Y-92984946D01*
X101089285Y-92984946D02*
X100839285Y-92592089D01*
X100053570Y-93306375D02*
X99946428Y-93342089D01*
X99946428Y-93342089D02*
X99767856Y-93342089D01*
X99767856Y-93342089D02*
X99696428Y-93306375D01*
X99696428Y-93306375D02*
X99660713Y-93270660D01*
X99660713Y-93270660D02*
X99624999Y-93199232D01*
X99624999Y-93199232D02*
X99624999Y-93127803D01*
X99624999Y-93127803D02*
X99660713Y-93056375D01*
X99660713Y-93056375D02*
X99696428Y-93020660D01*
X99696428Y-93020660D02*
X99767856Y-92984946D01*
X99767856Y-92984946D02*
X99910713Y-92949232D01*
X99910713Y-92949232D02*
X99982142Y-92913517D01*
X99982142Y-92913517D02*
X100017856Y-92877803D01*
X100017856Y-92877803D02*
X100053570Y-92806375D01*
X100053570Y-92806375D02*
X100053570Y-92734946D01*
X100053570Y-92734946D02*
X100017856Y-92663517D01*
X100017856Y-92663517D02*
X99982142Y-92627803D01*
X99982142Y-92627803D02*
X99910713Y-92592089D01*
X99910713Y-92592089D02*
X99732142Y-92592089D01*
X99732142Y-92592089D02*
X99624999Y-92627803D01*
X99339284Y-93127803D02*
X98982142Y-93127803D01*
X99410713Y-93342089D02*
X99160713Y-92592089D01*
X99160713Y-92592089D02*
X98910713Y-93342089D01*
X98660713Y-93342089D02*
X98660713Y-92592089D01*
X98660713Y-92592089D02*
X98410713Y-93127803D01*
X98410713Y-93127803D02*
X98160713Y-92592089D01*
X98160713Y-92592089D02*
X98160713Y-93342089D01*
X97803570Y-92592089D02*
X97803570Y-93199232D01*
X97803570Y-93199232D02*
X97767856Y-93270660D01*
X97767856Y-93270660D02*
X97732142Y-93306375D01*
X97732142Y-93306375D02*
X97660713Y-93342089D01*
X97660713Y-93342089D02*
X97517856Y-93342089D01*
X97517856Y-93342089D02*
X97446427Y-93306375D01*
X97446427Y-93306375D02*
X97410713Y-93270660D01*
X97410713Y-93270660D02*
X97374999Y-93199232D01*
X97374999Y-93199232D02*
X97374999Y-92592089D01*
X97017856Y-92949232D02*
X96767856Y-92949232D01*
X96660713Y-93342089D02*
X97017856Y-93342089D01*
X97017856Y-93342089D02*
X97017856Y-92592089D01*
X97017856Y-92592089D02*
X96660713Y-92592089D01*
X95982142Y-93342089D02*
X96339285Y-93342089D01*
X96339285Y-93342089D02*
X96339285Y-92592089D01*
X95160713Y-93342089D02*
X95160713Y-92592089D01*
X95160713Y-92949232D02*
X94732142Y-92949232D01*
X94732142Y-93342089D02*
X94732142Y-92592089D01*
X94410713Y-93127803D02*
X94053571Y-93127803D01*
X94482142Y-93342089D02*
X94232142Y-92592089D01*
X94232142Y-92592089D02*
X93982142Y-93342089D01*
X93482142Y-92949232D02*
X93732142Y-92949232D01*
X93732142Y-93342089D02*
X93732142Y-92592089D01*
X93732142Y-92592089D02*
X93374999Y-92592089D01*
X93089285Y-92949232D02*
X92839285Y-92949232D01*
X92732142Y-93342089D02*
X93089285Y-93342089D01*
X93089285Y-93342089D02*
X93089285Y-92592089D01*
X93089285Y-92592089D02*
X92732142Y-92592089D01*
X92410714Y-93342089D02*
X92410714Y-92592089D01*
X92410714Y-92592089D02*
X91982143Y-93342089D01*
X91982143Y-93342089D02*
X91982143Y-92592089D01*
D11*
X105380952Y-65294662D02*
X104238095Y-65294662D01*
X104809524Y-67294662D02*
X104809524Y-65294662D01*
X102428571Y-67294662D02*
X103095238Y-66342281D01*
X103571428Y-67294662D02*
X103571428Y-65294662D01*
X103571428Y-65294662D02*
X102809523Y-65294662D01*
X102809523Y-65294662D02*
X102619047Y-65389900D01*
X102619047Y-65389900D02*
X102523809Y-65485138D01*
X102523809Y-65485138D02*
X102428571Y-65675614D01*
X102428571Y-65675614D02*
X102428571Y-65961328D01*
X102428571Y-65961328D02*
X102523809Y-66151804D01*
X102523809Y-66151804D02*
X102619047Y-66247043D01*
X102619047Y-66247043D02*
X102809523Y-66342281D01*
X102809523Y-66342281D02*
X103571428Y-66342281D01*
X101666666Y-66723233D02*
X100714285Y-66723233D01*
X101857142Y-67294662D02*
X101190476Y-65294662D01*
X101190476Y-65294662D02*
X100523809Y-67294662D01*
X99857142Y-67294662D02*
X99857142Y-65294662D01*
X99857142Y-65294662D02*
X98714285Y-67294662D01*
X98714285Y-67294662D02*
X98714285Y-65294662D01*
X96619047Y-67104185D02*
X96714285Y-67199424D01*
X96714285Y-67199424D02*
X96999999Y-67294662D01*
X96999999Y-67294662D02*
X97190475Y-67294662D01*
X97190475Y-67294662D02*
X97476190Y-67199424D01*
X97476190Y-67199424D02*
X97666666Y-67008947D01*
X97666666Y-67008947D02*
X97761904Y-66818471D01*
X97761904Y-66818471D02*
X97857142Y-66437519D01*
X97857142Y-66437519D02*
X97857142Y-66151804D01*
X97857142Y-66151804D02*
X97761904Y-65770852D01*
X97761904Y-65770852D02*
X97666666Y-65580376D01*
X97666666Y-65580376D02*
X97476190Y-65389900D01*
X97476190Y-65389900D02*
X97190475Y-65294662D01*
X97190475Y-65294662D02*
X96999999Y-65294662D01*
X96999999Y-65294662D02*
X96714285Y-65389900D01*
X96714285Y-65389900D02*
X96619047Y-65485138D01*
X95761904Y-66247043D02*
X95095237Y-66247043D01*
X94809523Y-67294662D02*
X95761904Y-67294662D01*
X95761904Y-67294662D02*
X95761904Y-65294662D01*
X95761904Y-65294662D02*
X94809523Y-65294662D01*
X106857142Y-68514550D02*
X106857142Y-70133597D01*
X106857142Y-70133597D02*
X106761904Y-70324073D01*
X106761904Y-70324073D02*
X106666666Y-70419312D01*
X106666666Y-70419312D02*
X106476190Y-70514550D01*
X106476190Y-70514550D02*
X106095237Y-70514550D01*
X106095237Y-70514550D02*
X105904761Y-70419312D01*
X105904761Y-70419312D02*
X105809523Y-70324073D01*
X105809523Y-70324073D02*
X105714285Y-70133597D01*
X105714285Y-70133597D02*
X105714285Y-68514550D01*
X104857142Y-70419312D02*
X104571428Y-70514550D01*
X104571428Y-70514550D02*
X104095237Y-70514550D01*
X104095237Y-70514550D02*
X103904761Y-70419312D01*
X103904761Y-70419312D02*
X103809523Y-70324073D01*
X103809523Y-70324073D02*
X103714285Y-70133597D01*
X103714285Y-70133597D02*
X103714285Y-69943121D01*
X103714285Y-69943121D02*
X103809523Y-69752645D01*
X103809523Y-69752645D02*
X103904761Y-69657407D01*
X103904761Y-69657407D02*
X104095237Y-69562169D01*
X104095237Y-69562169D02*
X104476190Y-69466931D01*
X104476190Y-69466931D02*
X104666666Y-69371692D01*
X104666666Y-69371692D02*
X104761904Y-69276454D01*
X104761904Y-69276454D02*
X104857142Y-69085978D01*
X104857142Y-69085978D02*
X104857142Y-68895502D01*
X104857142Y-68895502D02*
X104761904Y-68705026D01*
X104761904Y-68705026D02*
X104666666Y-68609788D01*
X104666666Y-68609788D02*
X104476190Y-68514550D01*
X104476190Y-68514550D02*
X103999999Y-68514550D01*
X103999999Y-68514550D02*
X103714285Y-68609788D01*
X102190475Y-69466931D02*
X101904761Y-69562169D01*
X101904761Y-69562169D02*
X101809523Y-69657407D01*
X101809523Y-69657407D02*
X101714285Y-69847883D01*
X101714285Y-69847883D02*
X101714285Y-70133597D01*
X101714285Y-70133597D02*
X101809523Y-70324073D01*
X101809523Y-70324073D02*
X101904761Y-70419312D01*
X101904761Y-70419312D02*
X102095237Y-70514550D01*
X102095237Y-70514550D02*
X102857142Y-70514550D01*
X102857142Y-70514550D02*
X102857142Y-68514550D01*
X102857142Y-68514550D02*
X102190475Y-68514550D01*
X102190475Y-68514550D02*
X101999999Y-68609788D01*
X101999999Y-68609788D02*
X101904761Y-68705026D01*
X101904761Y-68705026D02*
X101809523Y-68895502D01*
X101809523Y-68895502D02*
X101809523Y-69085978D01*
X101809523Y-69085978D02*
X101904761Y-69276454D01*
X101904761Y-69276454D02*
X101999999Y-69371692D01*
X101999999Y-69371692D02*
X102190475Y-69466931D01*
X102190475Y-69466931D02*
X102857142Y-69466931D01*
X100857142Y-69752645D02*
X99333333Y-69752645D01*
X98380952Y-70514550D02*
X98380952Y-68514550D01*
X98380952Y-68514550D02*
X97904762Y-68514550D01*
X97904762Y-68514550D02*
X97619047Y-68609788D01*
X97619047Y-68609788D02*
X97428571Y-68800264D01*
X97428571Y-68800264D02*
X97333333Y-68990740D01*
X97333333Y-68990740D02*
X97238095Y-69371692D01*
X97238095Y-69371692D02*
X97238095Y-69657407D01*
X97238095Y-69657407D02*
X97333333Y-70038359D01*
X97333333Y-70038359D02*
X97428571Y-70228835D01*
X97428571Y-70228835D02*
X97619047Y-70419312D01*
X97619047Y-70419312D02*
X97904762Y-70514550D01*
X97904762Y-70514550D02*
X98380952Y-70514550D01*
X96380952Y-70514550D02*
X96380952Y-68514550D01*
X96380952Y-68514550D02*
X95714285Y-69943121D01*
X95714285Y-69943121D02*
X95047619Y-68514550D01*
X95047619Y-68514550D02*
X95047619Y-70514550D01*
X94285714Y-68514550D02*
X92952381Y-70514550D01*
X92952381Y-68514550D02*
X94285714Y-70514550D01*
X103190476Y-73734438D02*
X103857143Y-72782057D01*
X104333333Y-73734438D02*
X104333333Y-71734438D01*
X104333333Y-71734438D02*
X103571428Y-71734438D01*
X103571428Y-71734438D02*
X103380952Y-71829676D01*
X103380952Y-71829676D02*
X103285714Y-71924914D01*
X103285714Y-71924914D02*
X103190476Y-72115390D01*
X103190476Y-72115390D02*
X103190476Y-72401104D01*
X103190476Y-72401104D02*
X103285714Y-72591580D01*
X103285714Y-72591580D02*
X103380952Y-72686819D01*
X103380952Y-72686819D02*
X103571428Y-72782057D01*
X103571428Y-72782057D02*
X104333333Y-72782057D01*
X101571428Y-73639200D02*
X101761904Y-73734438D01*
X101761904Y-73734438D02*
X102142857Y-73734438D01*
X102142857Y-73734438D02*
X102333333Y-73639200D01*
X102333333Y-73639200D02*
X102428571Y-73448723D01*
X102428571Y-73448723D02*
X102428571Y-72686819D01*
X102428571Y-72686819D02*
X102333333Y-72496342D01*
X102333333Y-72496342D02*
X102142857Y-72401104D01*
X102142857Y-72401104D02*
X101761904Y-72401104D01*
X101761904Y-72401104D02*
X101571428Y-72496342D01*
X101571428Y-72496342D02*
X101476190Y-72686819D01*
X101476190Y-72686819D02*
X101476190Y-72877295D01*
X101476190Y-72877295D02*
X102428571Y-73067771D01*
X100809523Y-72401104D02*
X100333333Y-73734438D01*
X100333333Y-73734438D02*
X99857142Y-72401104D01*
X99095237Y-73543961D02*
X98999999Y-73639200D01*
X98999999Y-73639200D02*
X99095237Y-73734438D01*
X99095237Y-73734438D02*
X99190475Y-73639200D01*
X99190475Y-73639200D02*
X99095237Y-73543961D01*
X99095237Y-73543961D02*
X99095237Y-73734438D01*
X99095237Y-72496342D02*
X98999999Y-72591580D01*
X98999999Y-72591580D02*
X99095237Y-72686819D01*
X99095237Y-72686819D02*
X99190475Y-72591580D01*
X99190475Y-72591580D02*
X99095237Y-72496342D01*
X99095237Y-72496342D02*
X99095237Y-72686819D01*
X95571427Y-73734438D02*
X96714284Y-73734438D01*
X96142856Y-73734438D02*
X96142856Y-71734438D01*
X96142856Y-71734438D02*
X96333332Y-72020152D01*
X96333332Y-72020152D02*
X96523808Y-72210628D01*
X96523808Y-72210628D02*
X96714284Y-72305866D01*
M02*
