M48
; DRILL file {KiCad 9.0.2+dfsg-1} date 2025-09-09T19:53:15+0200
; FORMAT={-:-/ absolute / metric / decimal}
; #@! TF.CreationDate,2025-09-09T19:53:15+02:00
; #@! TF.GenerationSoftware,Kicad,Pcbnew,9.0.2+dfsg-1
; #@! TF.FileFunction,Plated,1,2,PTH
FMAT,2
METRIC
; #@! TA.AperFunction,Plated,PTH,ViaDrill
T1C0.300
; #@! TA.AperFunction,Plated,PTH,ComponentDrill
T2C0.700
%
G90
G05
T1
X89.4Y-73.0
X90.05Y-92.45
X90.6Y-69.2
X90.8Y-81.2
X91.8Y-62.8
X92.4Y-86.4
X92.6Y-91.8
X93.0Y-73.2
X94.29Y-74.1
X96.0Y-89.6
X96.4Y-61.4
X96.688Y-70.0
X96.737Y-68.5
X97.6Y-74.6
X98.587Y-76.7
X98.8Y-74.3
X99.0Y-82.6
X100.2Y-63.0
X100.2Y-70.8
X100.412Y-76.7
X101.6Y-91.8
X103.0Y-86.5
X103.0Y-87.35
X103.0Y-88.2
X103.0Y-89.05
X103.365Y-73.275
X103.8Y-61.2
X104.0Y-77.8
X104.635Y-73.275
X104.8Y-71.2
X105.0Y-86.0
X105.8Y-65.2
X105.905Y-73.275
X106.0Y-93.0
X106.6Y-67.8
X107.8Y-62.4
X107.8Y-83.1
X108.0Y-93.8
X109.2Y-79.4
X109.5Y-85.6
X110.1Y-71.7
X110.637Y-87.5
X111.0Y-66.0
X111.05Y-84.6
X111.4Y-74.2
X111.7Y-83.1
T2
G00X94.15Y-63.575
M15
G01X94.15Y-61.775
M16
G05
G00X105.85Y-63.575
M15
G01X105.85Y-61.775
M16
G05
M30
