%TF.GenerationSoftware,KiCad,Pcbnew,9.0.5*%
%TF.CreationDate,2025-10-06T23:19:49+02:00*%
%TF.ProjectId,usb-dmx,7573622d-646d-4782-9e6b-696361645f70,1.2*%
%TF.SameCoordinates,Original*%
%TF.FileFunction,Legend,Bot*%
%TF.FilePolarity,Positive*%
%FSLAX46Y46*%
G04 Gerber Fmt 4.6, Leading zero omitted, Abs format (unit mm)*
G04 Created by KiCad (PCBNEW 9.0.5) date 2025-10-06 23:19:49*
%MOMM*%
%LPD*%
G01*
G04 APERTURE LIST*
%ADD10C,0.093750*%
%ADD11C,0.400000*%
G04 APERTURE END LIST*
D10*
X108017856Y-87342089D02*
X108017856Y-86592089D01*
X108017856Y-86592089D02*
X107839285Y-86592089D01*
X107839285Y-86592089D02*
X107732142Y-86627803D01*
X107732142Y-86627803D02*
X107660713Y-86699232D01*
X107660713Y-86699232D02*
X107624999Y-86770660D01*
X107624999Y-86770660D02*
X107589285Y-86913517D01*
X107589285Y-86913517D02*
X107589285Y-87020660D01*
X107589285Y-87020660D02*
X107624999Y-87163517D01*
X107624999Y-87163517D02*
X107660713Y-87234946D01*
X107660713Y-87234946D02*
X107732142Y-87306375D01*
X107732142Y-87306375D02*
X107839285Y-87342089D01*
X107839285Y-87342089D02*
X108017856Y-87342089D01*
X107267856Y-86949232D02*
X107017856Y-86949232D01*
X106910713Y-87342089D02*
X107267856Y-87342089D01*
X107267856Y-87342089D02*
X107267856Y-86592089D01*
X107267856Y-86592089D02*
X106910713Y-86592089D01*
X106624999Y-87306375D02*
X106517857Y-87342089D01*
X106517857Y-87342089D02*
X106339285Y-87342089D01*
X106339285Y-87342089D02*
X106267857Y-87306375D01*
X106267857Y-87306375D02*
X106232142Y-87270660D01*
X106232142Y-87270660D02*
X106196428Y-87199232D01*
X106196428Y-87199232D02*
X106196428Y-87127803D01*
X106196428Y-87127803D02*
X106232142Y-87056375D01*
X106232142Y-87056375D02*
X106267857Y-87020660D01*
X106267857Y-87020660D02*
X106339285Y-86984946D01*
X106339285Y-86984946D02*
X106482142Y-86949232D01*
X106482142Y-86949232D02*
X106553571Y-86913517D01*
X106553571Y-86913517D02*
X106589285Y-86877803D01*
X106589285Y-86877803D02*
X106624999Y-86806375D01*
X106624999Y-86806375D02*
X106624999Y-86734946D01*
X106624999Y-86734946D02*
X106589285Y-86663517D01*
X106589285Y-86663517D02*
X106553571Y-86627803D01*
X106553571Y-86627803D02*
X106482142Y-86592089D01*
X106482142Y-86592089D02*
X106303571Y-86592089D01*
X106303571Y-86592089D02*
X106196428Y-86627803D01*
X105874999Y-87342089D02*
X105874999Y-86592089D01*
X105124999Y-86627803D02*
X105196428Y-86592089D01*
X105196428Y-86592089D02*
X105303570Y-86592089D01*
X105303570Y-86592089D02*
X105410713Y-86627803D01*
X105410713Y-86627803D02*
X105482142Y-86699232D01*
X105482142Y-86699232D02*
X105517856Y-86770660D01*
X105517856Y-86770660D02*
X105553570Y-86913517D01*
X105553570Y-86913517D02*
X105553570Y-87020660D01*
X105553570Y-87020660D02*
X105517856Y-87163517D01*
X105517856Y-87163517D02*
X105482142Y-87234946D01*
X105482142Y-87234946D02*
X105410713Y-87306375D01*
X105410713Y-87306375D02*
X105303570Y-87342089D01*
X105303570Y-87342089D02*
X105232142Y-87342089D01*
X105232142Y-87342089D02*
X105124999Y-87306375D01*
X105124999Y-87306375D02*
X105089285Y-87270660D01*
X105089285Y-87270660D02*
X105089285Y-87020660D01*
X105089285Y-87020660D02*
X105232142Y-87020660D01*
X104767856Y-87342089D02*
X104767856Y-86592089D01*
X104767856Y-86592089D02*
X104339285Y-87342089D01*
X104339285Y-87342089D02*
X104339285Y-86592089D01*
X103982142Y-86949232D02*
X103732142Y-86949232D01*
X103624999Y-87342089D02*
X103982142Y-87342089D01*
X103982142Y-87342089D02*
X103982142Y-86592089D01*
X103982142Y-86592089D02*
X103624999Y-86592089D01*
X103303571Y-87342089D02*
X103303571Y-86592089D01*
X103303571Y-86592089D02*
X103125000Y-86592089D01*
X103125000Y-86592089D02*
X103017857Y-86627803D01*
X103017857Y-86627803D02*
X102946428Y-86699232D01*
X102946428Y-86699232D02*
X102910714Y-86770660D01*
X102910714Y-86770660D02*
X102875000Y-86913517D01*
X102875000Y-86913517D02*
X102875000Y-87020660D01*
X102875000Y-87020660D02*
X102910714Y-87163517D01*
X102910714Y-87163517D02*
X102946428Y-87234946D01*
X102946428Y-87234946D02*
X103017857Y-87306375D01*
X103017857Y-87306375D02*
X103125000Y-87342089D01*
X103125000Y-87342089D02*
X103303571Y-87342089D01*
X101732142Y-86949232D02*
X101624999Y-86984946D01*
X101624999Y-86984946D02*
X101589285Y-87020660D01*
X101589285Y-87020660D02*
X101553571Y-87092089D01*
X101553571Y-87092089D02*
X101553571Y-87199232D01*
X101553571Y-87199232D02*
X101589285Y-87270660D01*
X101589285Y-87270660D02*
X101624999Y-87306375D01*
X101624999Y-87306375D02*
X101696428Y-87342089D01*
X101696428Y-87342089D02*
X101982142Y-87342089D01*
X101982142Y-87342089D02*
X101982142Y-86592089D01*
X101982142Y-86592089D02*
X101732142Y-86592089D01*
X101732142Y-86592089D02*
X101660714Y-86627803D01*
X101660714Y-86627803D02*
X101624999Y-86663517D01*
X101624999Y-86663517D02*
X101589285Y-86734946D01*
X101589285Y-86734946D02*
X101589285Y-86806375D01*
X101589285Y-86806375D02*
X101624999Y-86877803D01*
X101624999Y-86877803D02*
X101660714Y-86913517D01*
X101660714Y-86913517D02*
X101732142Y-86949232D01*
X101732142Y-86949232D02*
X101982142Y-86949232D01*
X101089285Y-86984946D02*
X101089285Y-87342089D01*
X101339285Y-86592089D02*
X101089285Y-86984946D01*
X101089285Y-86984946D02*
X100839285Y-86592089D01*
X100053570Y-87306375D02*
X99946428Y-87342089D01*
X99946428Y-87342089D02*
X99767856Y-87342089D01*
X99767856Y-87342089D02*
X99696428Y-87306375D01*
X99696428Y-87306375D02*
X99660713Y-87270660D01*
X99660713Y-87270660D02*
X99624999Y-87199232D01*
X99624999Y-87199232D02*
X99624999Y-87127803D01*
X99624999Y-87127803D02*
X99660713Y-87056375D01*
X99660713Y-87056375D02*
X99696428Y-87020660D01*
X99696428Y-87020660D02*
X99767856Y-86984946D01*
X99767856Y-86984946D02*
X99910713Y-86949232D01*
X99910713Y-86949232D02*
X99982142Y-86913517D01*
X99982142Y-86913517D02*
X100017856Y-86877803D01*
X100017856Y-86877803D02*
X100053570Y-86806375D01*
X100053570Y-86806375D02*
X100053570Y-86734946D01*
X100053570Y-86734946D02*
X100017856Y-86663517D01*
X100017856Y-86663517D02*
X99982142Y-86627803D01*
X99982142Y-86627803D02*
X99910713Y-86592089D01*
X99910713Y-86592089D02*
X99732142Y-86592089D01*
X99732142Y-86592089D02*
X99624999Y-86627803D01*
X99339284Y-87127803D02*
X98982142Y-87127803D01*
X99410713Y-87342089D02*
X99160713Y-86592089D01*
X99160713Y-86592089D02*
X98910713Y-87342089D01*
X98660713Y-87342089D02*
X98660713Y-86592089D01*
X98660713Y-86592089D02*
X98410713Y-87127803D01*
X98410713Y-87127803D02*
X98160713Y-86592089D01*
X98160713Y-86592089D02*
X98160713Y-87342089D01*
X97803570Y-86592089D02*
X97803570Y-87199232D01*
X97803570Y-87199232D02*
X97767856Y-87270660D01*
X97767856Y-87270660D02*
X97732142Y-87306375D01*
X97732142Y-87306375D02*
X97660713Y-87342089D01*
X97660713Y-87342089D02*
X97517856Y-87342089D01*
X97517856Y-87342089D02*
X97446427Y-87306375D01*
X97446427Y-87306375D02*
X97410713Y-87270660D01*
X97410713Y-87270660D02*
X97374999Y-87199232D01*
X97374999Y-87199232D02*
X97374999Y-86592089D01*
X97017856Y-86949232D02*
X96767856Y-86949232D01*
X96660713Y-87342089D02*
X97017856Y-87342089D01*
X97017856Y-87342089D02*
X97017856Y-86592089D01*
X97017856Y-86592089D02*
X96660713Y-86592089D01*
X95982142Y-87342089D02*
X96339285Y-87342089D01*
X96339285Y-87342089D02*
X96339285Y-86592089D01*
X95160713Y-87342089D02*
X95160713Y-86592089D01*
X95160713Y-86949232D02*
X94732142Y-86949232D01*
X94732142Y-87342089D02*
X94732142Y-86592089D01*
X94410713Y-87127803D02*
X94053571Y-87127803D01*
X94482142Y-87342089D02*
X94232142Y-86592089D01*
X94232142Y-86592089D02*
X93982142Y-87342089D01*
X93482142Y-86949232D02*
X93732142Y-86949232D01*
X93732142Y-87342089D02*
X93732142Y-86592089D01*
X93732142Y-86592089D02*
X93374999Y-86592089D01*
X93089285Y-86949232D02*
X92839285Y-86949232D01*
X92732142Y-87342089D02*
X93089285Y-87342089D01*
X93089285Y-87342089D02*
X93089285Y-86592089D01*
X93089285Y-86592089D02*
X92732142Y-86592089D01*
X92410714Y-87342089D02*
X92410714Y-86592089D01*
X92410714Y-86592089D02*
X91982143Y-87342089D01*
X91982143Y-87342089D02*
X91982143Y-86592089D01*
D11*
X105380952Y-64044662D02*
X104238095Y-64044662D01*
X104809524Y-66044662D02*
X104809524Y-64044662D01*
X102428571Y-66044662D02*
X103095238Y-65092281D01*
X103571428Y-66044662D02*
X103571428Y-64044662D01*
X103571428Y-64044662D02*
X102809523Y-64044662D01*
X102809523Y-64044662D02*
X102619047Y-64139900D01*
X102619047Y-64139900D02*
X102523809Y-64235138D01*
X102523809Y-64235138D02*
X102428571Y-64425614D01*
X102428571Y-64425614D02*
X102428571Y-64711328D01*
X102428571Y-64711328D02*
X102523809Y-64901804D01*
X102523809Y-64901804D02*
X102619047Y-64997043D01*
X102619047Y-64997043D02*
X102809523Y-65092281D01*
X102809523Y-65092281D02*
X103571428Y-65092281D01*
X101666666Y-65473233D02*
X100714285Y-65473233D01*
X101857142Y-66044662D02*
X101190476Y-64044662D01*
X101190476Y-64044662D02*
X100523809Y-66044662D01*
X99857142Y-66044662D02*
X99857142Y-64044662D01*
X99857142Y-64044662D02*
X98714285Y-66044662D01*
X98714285Y-66044662D02*
X98714285Y-64044662D01*
X96619047Y-65854185D02*
X96714285Y-65949424D01*
X96714285Y-65949424D02*
X96999999Y-66044662D01*
X96999999Y-66044662D02*
X97190475Y-66044662D01*
X97190475Y-66044662D02*
X97476190Y-65949424D01*
X97476190Y-65949424D02*
X97666666Y-65758947D01*
X97666666Y-65758947D02*
X97761904Y-65568471D01*
X97761904Y-65568471D02*
X97857142Y-65187519D01*
X97857142Y-65187519D02*
X97857142Y-64901804D01*
X97857142Y-64901804D02*
X97761904Y-64520852D01*
X97761904Y-64520852D02*
X97666666Y-64330376D01*
X97666666Y-64330376D02*
X97476190Y-64139900D01*
X97476190Y-64139900D02*
X97190475Y-64044662D01*
X97190475Y-64044662D02*
X96999999Y-64044662D01*
X96999999Y-64044662D02*
X96714285Y-64139900D01*
X96714285Y-64139900D02*
X96619047Y-64235138D01*
X95761904Y-64997043D02*
X95095237Y-64997043D01*
X94809523Y-66044662D02*
X95761904Y-66044662D01*
X95761904Y-66044662D02*
X95761904Y-64044662D01*
X95761904Y-64044662D02*
X94809523Y-64044662D01*
X106857142Y-67264550D02*
X106857142Y-68883597D01*
X106857142Y-68883597D02*
X106761904Y-69074073D01*
X106761904Y-69074073D02*
X106666666Y-69169312D01*
X106666666Y-69169312D02*
X106476190Y-69264550D01*
X106476190Y-69264550D02*
X106095237Y-69264550D01*
X106095237Y-69264550D02*
X105904761Y-69169312D01*
X105904761Y-69169312D02*
X105809523Y-69074073D01*
X105809523Y-69074073D02*
X105714285Y-68883597D01*
X105714285Y-68883597D02*
X105714285Y-67264550D01*
X104857142Y-69169312D02*
X104571428Y-69264550D01*
X104571428Y-69264550D02*
X104095237Y-69264550D01*
X104095237Y-69264550D02*
X103904761Y-69169312D01*
X103904761Y-69169312D02*
X103809523Y-69074073D01*
X103809523Y-69074073D02*
X103714285Y-68883597D01*
X103714285Y-68883597D02*
X103714285Y-68693121D01*
X103714285Y-68693121D02*
X103809523Y-68502645D01*
X103809523Y-68502645D02*
X103904761Y-68407407D01*
X103904761Y-68407407D02*
X104095237Y-68312169D01*
X104095237Y-68312169D02*
X104476190Y-68216931D01*
X104476190Y-68216931D02*
X104666666Y-68121692D01*
X104666666Y-68121692D02*
X104761904Y-68026454D01*
X104761904Y-68026454D02*
X104857142Y-67835978D01*
X104857142Y-67835978D02*
X104857142Y-67645502D01*
X104857142Y-67645502D02*
X104761904Y-67455026D01*
X104761904Y-67455026D02*
X104666666Y-67359788D01*
X104666666Y-67359788D02*
X104476190Y-67264550D01*
X104476190Y-67264550D02*
X103999999Y-67264550D01*
X103999999Y-67264550D02*
X103714285Y-67359788D01*
X102190475Y-68216931D02*
X101904761Y-68312169D01*
X101904761Y-68312169D02*
X101809523Y-68407407D01*
X101809523Y-68407407D02*
X101714285Y-68597883D01*
X101714285Y-68597883D02*
X101714285Y-68883597D01*
X101714285Y-68883597D02*
X101809523Y-69074073D01*
X101809523Y-69074073D02*
X101904761Y-69169312D01*
X101904761Y-69169312D02*
X102095237Y-69264550D01*
X102095237Y-69264550D02*
X102857142Y-69264550D01*
X102857142Y-69264550D02*
X102857142Y-67264550D01*
X102857142Y-67264550D02*
X102190475Y-67264550D01*
X102190475Y-67264550D02*
X101999999Y-67359788D01*
X101999999Y-67359788D02*
X101904761Y-67455026D01*
X101904761Y-67455026D02*
X101809523Y-67645502D01*
X101809523Y-67645502D02*
X101809523Y-67835978D01*
X101809523Y-67835978D02*
X101904761Y-68026454D01*
X101904761Y-68026454D02*
X101999999Y-68121692D01*
X101999999Y-68121692D02*
X102190475Y-68216931D01*
X102190475Y-68216931D02*
X102857142Y-68216931D01*
X100857142Y-68502645D02*
X99333333Y-68502645D01*
X98380952Y-69264550D02*
X98380952Y-67264550D01*
X98380952Y-67264550D02*
X97904762Y-67264550D01*
X97904762Y-67264550D02*
X97619047Y-67359788D01*
X97619047Y-67359788D02*
X97428571Y-67550264D01*
X97428571Y-67550264D02*
X97333333Y-67740740D01*
X97333333Y-67740740D02*
X97238095Y-68121692D01*
X97238095Y-68121692D02*
X97238095Y-68407407D01*
X97238095Y-68407407D02*
X97333333Y-68788359D01*
X97333333Y-68788359D02*
X97428571Y-68978835D01*
X97428571Y-68978835D02*
X97619047Y-69169312D01*
X97619047Y-69169312D02*
X97904762Y-69264550D01*
X97904762Y-69264550D02*
X98380952Y-69264550D01*
X96380952Y-69264550D02*
X96380952Y-67264550D01*
X96380952Y-67264550D02*
X95714285Y-68693121D01*
X95714285Y-68693121D02*
X95047619Y-67264550D01*
X95047619Y-67264550D02*
X95047619Y-69264550D01*
X94285714Y-67264550D02*
X92952381Y-69264550D01*
X92952381Y-67264550D02*
X94285714Y-69264550D01*
X104619048Y-72484438D02*
X105285715Y-71532057D01*
X105761905Y-72484438D02*
X105761905Y-70484438D01*
X105761905Y-70484438D02*
X105000000Y-70484438D01*
X105000000Y-70484438D02*
X104809524Y-70579676D01*
X104809524Y-70579676D02*
X104714286Y-70674914D01*
X104714286Y-70674914D02*
X104619048Y-70865390D01*
X104619048Y-70865390D02*
X104619048Y-71151104D01*
X104619048Y-71151104D02*
X104714286Y-71341580D01*
X104714286Y-71341580D02*
X104809524Y-71436819D01*
X104809524Y-71436819D02*
X105000000Y-71532057D01*
X105000000Y-71532057D02*
X105761905Y-71532057D01*
X103000000Y-72389200D02*
X103190476Y-72484438D01*
X103190476Y-72484438D02*
X103571429Y-72484438D01*
X103571429Y-72484438D02*
X103761905Y-72389200D01*
X103761905Y-72389200D02*
X103857143Y-72198723D01*
X103857143Y-72198723D02*
X103857143Y-71436819D01*
X103857143Y-71436819D02*
X103761905Y-71246342D01*
X103761905Y-71246342D02*
X103571429Y-71151104D01*
X103571429Y-71151104D02*
X103190476Y-71151104D01*
X103190476Y-71151104D02*
X103000000Y-71246342D01*
X103000000Y-71246342D02*
X102904762Y-71436819D01*
X102904762Y-71436819D02*
X102904762Y-71627295D01*
X102904762Y-71627295D02*
X103857143Y-71817771D01*
X102238095Y-71151104D02*
X101761905Y-72484438D01*
X101761905Y-72484438D02*
X101285714Y-71151104D01*
X100523809Y-72293961D02*
X100428571Y-72389200D01*
X100428571Y-72389200D02*
X100523809Y-72484438D01*
X100523809Y-72484438D02*
X100619047Y-72389200D01*
X100619047Y-72389200D02*
X100523809Y-72293961D01*
X100523809Y-72293961D02*
X100523809Y-72484438D01*
X100523809Y-71246342D02*
X100428571Y-71341580D01*
X100428571Y-71341580D02*
X100523809Y-71436819D01*
X100523809Y-71436819D02*
X100619047Y-71341580D01*
X100619047Y-71341580D02*
X100523809Y-71246342D01*
X100523809Y-71246342D02*
X100523809Y-71436819D01*
X96999999Y-72484438D02*
X98142856Y-72484438D01*
X97571428Y-72484438D02*
X97571428Y-70484438D01*
X97571428Y-70484438D02*
X97761904Y-70770152D01*
X97761904Y-70770152D02*
X97952380Y-70960628D01*
X97952380Y-70960628D02*
X98142856Y-71055866D01*
X96142856Y-72293961D02*
X96047618Y-72389200D01*
X96047618Y-72389200D02*
X96142856Y-72484438D01*
X96142856Y-72484438D02*
X96238094Y-72389200D01*
X96238094Y-72389200D02*
X96142856Y-72293961D01*
X96142856Y-72293961D02*
X96142856Y-72484438D01*
X95285713Y-70674914D02*
X95190475Y-70579676D01*
X95190475Y-70579676D02*
X94999999Y-70484438D01*
X94999999Y-70484438D02*
X94523808Y-70484438D01*
X94523808Y-70484438D02*
X94333332Y-70579676D01*
X94333332Y-70579676D02*
X94238094Y-70674914D01*
X94238094Y-70674914D02*
X94142856Y-70865390D01*
X94142856Y-70865390D02*
X94142856Y-71055866D01*
X94142856Y-71055866D02*
X94238094Y-71341580D01*
X94238094Y-71341580D02*
X95380951Y-72484438D01*
X95380951Y-72484438D02*
X94142856Y-72484438D01*
M02*
