%TF.GenerationSoftware,KiCad,Pcbnew,9.0.0*%
%TF.CreationDate,2025-07-11T23:31:07+02:00*%
%TF.ProjectId,usb-dmx,7573622d-646d-4782-9e6b-696361645f70,1*%
%TF.SameCoordinates,Original*%
%TF.FileFunction,Paste,Top*%
%TF.FilePolarity,Positive*%
%FSLAX46Y46*%
G04 Gerber Fmt 4.6, Leading zero omitted, Abs format (unit mm)*
G04 Created by KiCad (PCBNEW 9.0.0) date 2025-07-11 23:31:07*
%MOMM*%
%LPD*%
G01*
G04 APERTURE LIST*
G04 Aperture macros list*
%AMRoundRect*
0 Rectangle with rounded corners*
0 $1 Rounding radius*
0 $2 $3 $4 $5 $6 $7 $8 $9 X,Y pos of 4 corners*
0 Add a 4 corners polygon primitive as box body*
4,1,4,$2,$3,$4,$5,$6,$7,$8,$9,$2,$3,0*
0 Add four circle primitives for the rounded corners*
1,1,$1+$1,$2,$3*
1,1,$1+$1,$4,$5*
1,1,$1+$1,$6,$7*
1,1,$1+$1,$8,$9*
0 Add four rect primitives between the rounded corners*
20,1,$1+$1,$2,$3,$4,$5,0*
20,1,$1+$1,$4,$5,$6,$7,0*
20,1,$1+$1,$6,$7,$8,$9,0*
20,1,$1+$1,$8,$9,$2,$3,0*%
%AMOutline5P*
0 Free polygon, 5 corners , with rotation*
0 The origin of the aperture is its center*
0 number of corners: always 5*
0 $1 to $10 corner X, Y*
0 $11 Rotation angle, in degrees counterclockwise*
0 create outline with 5 corners*
4,1,5,$1,$2,$3,$4,$5,$6,$7,$8,$9,$10,$1,$2,$11*%
%AMOutline6P*
0 Free polygon, 6 corners , with rotation*
0 The origin of the aperture is its center*
0 number of corners: always 6*
0 $1 to $12 corner X, Y*
0 $13 Rotation angle, in degrees counterclockwise*
0 create outline with 6 corners*
4,1,6,$1,$2,$3,$4,$5,$6,$7,$8,$9,$10,$11,$12,$1,$2,$13*%
%AMOutline7P*
0 Free polygon, 7 corners , with rotation*
0 The origin of the aperture is its center*
0 number of corners: always 7*
0 $1 to $14 corner X, Y*
0 $15 Rotation angle, in degrees counterclockwise*
0 create outline with 7 corners*
4,1,7,$1,$2,$3,$4,$5,$6,$7,$8,$9,$10,$11,$12,$13,$14,$1,$2,$15*%
%AMOutline8P*
0 Free polygon, 8 corners , with rotation*
0 The origin of the aperture is its center*
0 number of corners: always 8*
0 $1 to $16 corner X, Y*
0 $17 Rotation angle, in degrees counterclockwise*
0 create outline with 8 corners*
4,1,8,$1,$2,$3,$4,$5,$6,$7,$8,$9,$10,$11,$12,$13,$14,$15,$16,$1,$2,$17*%
G04 Aperture macros list end*
%ADD10RoundRect,0.150000X-0.425000X0.150000X-0.425000X-0.150000X0.425000X-0.150000X0.425000X0.150000X0*%
%ADD11RoundRect,0.075000X-0.500000X0.075000X-0.500000X-0.075000X0.500000X-0.075000X0.500000X0.075000X0*%
%ADD12RoundRect,0.250000X-0.750000X0.840000X-0.750000X-0.840000X0.750000X-0.840000X0.750000X0.840000X0*%
%ADD13RoundRect,0.237500X-0.237500X0.250000X-0.237500X-0.250000X0.237500X-0.250000X0.237500X0.250000X0*%
%ADD14RoundRect,0.237500X-0.250000X-0.237500X0.250000X-0.237500X0.250000X0.237500X-0.250000X0.237500X0*%
%ADD15R,0.850000X1.600000*%
%ADD16R,0.800000X0.400000*%
%ADD17R,0.400000X0.800000*%
%ADD18Outline5P,-0.600000X0.204000X-0.204000X0.600000X0.600000X0.600000X0.600000X-0.600000X-0.600000X-0.600000X180.000000*%
%ADD19R,1.200000X1.200000*%
%ADD20R,0.800000X0.800000*%
%ADD21RoundRect,0.225000X0.225000X0.250000X-0.225000X0.250000X-0.225000X-0.250000X0.225000X-0.250000X0*%
%ADD22RoundRect,0.150000X0.512500X0.150000X-0.512500X0.150000X-0.512500X-0.150000X0.512500X-0.150000X0*%
%ADD23RoundRect,0.237500X0.237500X-0.250000X0.237500X0.250000X-0.237500X0.250000X-0.237500X-0.250000X0*%
%ADD24RoundRect,0.150000X0.150000X-0.825000X0.150000X0.825000X-0.150000X0.825000X-0.150000X-0.825000X0*%
%ADD25R,0.800000X0.550000*%
%ADD26R,1.000000X0.700000*%
%ADD27RoundRect,0.237500X0.300000X0.237500X-0.300000X0.237500X-0.300000X-0.237500X0.300000X-0.237500X0*%
%ADD28RoundRect,0.237500X-0.237500X0.300000X-0.237500X-0.300000X0.237500X-0.300000X0.237500X0.300000X0*%
%ADD29RoundRect,0.237500X0.237500X-0.300000X0.237500X0.300000X-0.237500X0.300000X-0.237500X-0.300000X0*%
%ADD30RoundRect,0.237500X0.250000X0.237500X-0.250000X0.237500X-0.250000X-0.237500X0.250000X-0.237500X0*%
%ADD31RoundRect,0.218750X0.381250X-0.218750X0.381250X0.218750X-0.381250X0.218750X-0.381250X-0.218750X0*%
%ADD32RoundRect,0.300000X0.300000X-0.700000X0.300000X0.700000X-0.300000X0.700000X-0.300000X-0.700000X0*%
%ADD33RoundRect,0.237500X-0.300000X-0.237500X0.300000X-0.237500X0.300000X0.237500X-0.300000X0.237500X0*%
%ADD34RoundRect,0.250000X-0.250000X-0.475000X0.250000X-0.475000X0.250000X0.475000X-0.250000X0.475000X0*%
G04 APERTURE END LIST*
D10*
%TO.C,J1*%
X94290000Y-68500000D03*
X94290000Y-69300000D03*
D11*
X94290000Y-70450000D03*
X94290000Y-71450000D03*
X94290000Y-71950000D03*
X94290000Y-72950000D03*
D10*
X94290000Y-74100000D03*
X94290000Y-74900000D03*
X94290000Y-74900000D03*
X94290000Y-74100000D03*
D11*
X94290000Y-73450000D03*
X94290000Y-72450000D03*
X94290000Y-70950000D03*
X94290000Y-69950000D03*
D10*
X94290000Y-69300000D03*
X94290000Y-68500000D03*
D12*
X93715000Y-66590000D03*
X89785000Y-66590000D03*
X93715000Y-76810000D03*
X89785000Y-76810000D03*
%TD*%
D13*
%TO.C,R3*%
X106500000Y-90087500D03*
X106500000Y-91912500D03*
%TD*%
D14*
%TO.C,R1*%
X96687500Y-71500000D03*
X98512500Y-71500000D03*
%TD*%
%TO.C,R2*%
X96687500Y-70000000D03*
X98512500Y-70000000D03*
%TD*%
D15*
%TO.C,D1*%
X110100000Y-68200000D03*
X108350000Y-68200000D03*
X108350000Y-71700000D03*
X110100000Y-71700000D03*
%TD*%
D16*
%TO.C,U3*%
X103000000Y-92450000D03*
X103000000Y-91600000D03*
X103000000Y-90750000D03*
X103000000Y-89900000D03*
X103000000Y-89050000D03*
X103000000Y-88200000D03*
X103000000Y-87350000D03*
X103000000Y-86500000D03*
X103000000Y-85650000D03*
X103000000Y-84800000D03*
X103000000Y-83950000D03*
X103000000Y-83100000D03*
X103000000Y-82250000D03*
X103000000Y-81400000D03*
X103000000Y-80550000D03*
D17*
X101950000Y-79500000D03*
X101100000Y-79500000D03*
X100250000Y-79500000D03*
X99400000Y-79500000D03*
X98550000Y-79500000D03*
X97700000Y-79500000D03*
X96850000Y-79500000D03*
X96000000Y-79500000D03*
X95150000Y-79500000D03*
X94300000Y-79500000D03*
X93450000Y-79500000D03*
X92600000Y-79500000D03*
X91750000Y-79500000D03*
X90900000Y-79500000D03*
X90050000Y-79500000D03*
D16*
X89000000Y-80550000D03*
X89000000Y-81400000D03*
X89000000Y-82250000D03*
X89000000Y-83100000D03*
X89000000Y-83950000D03*
X89000000Y-84800000D03*
X89000000Y-85650000D03*
X89000000Y-86500000D03*
X89000000Y-87350000D03*
X89000000Y-88200000D03*
X89000000Y-89050000D03*
X89000000Y-89900000D03*
X89000000Y-90750000D03*
X89000000Y-91600000D03*
X89000000Y-92450000D03*
D17*
X90050000Y-93500000D03*
X90900000Y-93500000D03*
X91750000Y-93500000D03*
X92600000Y-93500000D03*
X93450000Y-93500000D03*
X94300000Y-93500000D03*
X95150000Y-93500000D03*
X96000000Y-93500000D03*
X96850000Y-93500000D03*
X97700000Y-93500000D03*
X98550000Y-93500000D03*
X99400000Y-93500000D03*
X100250000Y-93500000D03*
X101100000Y-93500000D03*
X101950000Y-93500000D03*
D18*
X97650000Y-88150000D03*
D19*
X97650000Y-86500000D03*
X97650000Y-84850000D03*
X96000000Y-88150000D03*
X96000000Y-86500000D03*
X96000000Y-84850000D03*
X94350000Y-88150000D03*
X94350000Y-86500000D03*
X94350000Y-84850000D03*
D20*
X103000000Y-93500000D03*
X103000000Y-79500000D03*
X89000000Y-79500000D03*
X89000000Y-93500000D03*
%TD*%
D21*
%TO.C,C1*%
X111050000Y-84550000D03*
X109500000Y-84550000D03*
%TD*%
D22*
%TO.C,U2*%
X110637500Y-88450000D03*
X110637500Y-87500000D03*
X110637500Y-86550000D03*
X108362500Y-86550000D03*
X108362500Y-88450000D03*
%TD*%
D23*
%TO.C,R5*%
X100400000Y-75212500D03*
X100400000Y-73387500D03*
%TD*%
D14*
%TO.C,R4*%
X105887500Y-81800000D03*
X107712500Y-81800000D03*
%TD*%
D24*
%TO.C,U4*%
X102095000Y-73275000D03*
X103365000Y-73275000D03*
X104635000Y-73275000D03*
X105905000Y-73275000D03*
X105905000Y-68325000D03*
X104635000Y-68325000D03*
X103365000Y-68325000D03*
X102095000Y-68325000D03*
%TD*%
D25*
%TO.C,U1*%
X96400000Y-73350000D03*
X96400000Y-74300000D03*
X96400000Y-75250000D03*
X98800000Y-75250000D03*
X98800000Y-74300000D03*
X98800000Y-73350000D03*
%TD*%
D26*
%TO.C,SW1*%
X105200000Y-76400000D03*
X111200000Y-76400000D03*
X105200000Y-80100000D03*
X111200000Y-80100000D03*
%TD*%
D27*
%TO.C,C6*%
X98462500Y-68500000D03*
X96737500Y-68500000D03*
%TD*%
D28*
%TO.C,C4*%
X105000000Y-90137500D03*
X105000000Y-91862500D03*
%TD*%
D29*
%TO.C,C3*%
X108000000Y-91862500D03*
X108000000Y-90137500D03*
%TD*%
D30*
%TO.C,R6*%
X100412500Y-76700000D03*
X98587500Y-76700000D03*
%TD*%
D31*
%TO.C,L1*%
X106362500Y-88562500D03*
X106362500Y-86437500D03*
%TD*%
D32*
%TO.C,J2*%
X96500000Y-65275000D03*
X99000000Y-65275000D03*
X101000000Y-65275000D03*
X103500000Y-65275000D03*
%TD*%
D33*
%TO.C,C5*%
X109337500Y-81800000D03*
X111062500Y-81800000D03*
%TD*%
D34*
%TO.C,C2*%
X106000000Y-84550000D03*
X107900000Y-84550000D03*
%TD*%
M02*
