%TF.GenerationSoftware,KiCad,Pcbnew,9.0.2+dfsg-1*%
%TF.CreationDate,2025-09-09T19:53:17+02:00*%
%TF.ProjectId,usb-dmx,7573622d-646d-4782-9e6b-696361645f70,1*%
%TF.SameCoordinates,Original*%
%TF.FileFunction,Copper,L2,Bot*%
%TF.FilePolarity,Positive*%
%FSLAX46Y46*%
G04 Gerber Fmt 4.6, Leading zero omitted, Abs format (unit mm)*
G04 Created by KiCad (PCBNEW 9.0.2+dfsg-1) date 2025-09-09 19:53:17*
%MOMM*%
%LPD*%
G01*
G04 APERTURE LIST*
%TA.AperFunction,HeatsinkPad*%
%ADD10O,1.300000X3.200000*%
%TD*%
%TA.AperFunction,ViaPad*%
%ADD11C,0.600000*%
%TD*%
%TA.AperFunction,Conductor*%
%ADD12C,0.200000*%
%TD*%
G04 APERTURE END LIST*
D10*
%TO.P,J2,5,Shield*%
%TO.N,GND*%
X94150000Y-62675000D03*
X105850000Y-62675000D03*
%TD*%
D11*
%TO.N,Net-(U3-EN)*%
X106000000Y-93000000D03*
X90050000Y-92450000D03*
%TO.N,1*%
X103000000Y-89050000D03*
X100412500Y-76700000D03*
%TO.N,2*%
X103365000Y-73275000D03*
X103000000Y-88200000D03*
%TO.N,4*%
X103000000Y-86500000D03*
X105905000Y-73275000D03*
%TO.N,GND*%
X110637500Y-87500000D03*
X96000000Y-89600000D03*
X111700000Y-83100000D03*
X90600000Y-69200000D03*
X107800000Y-83100000D03*
X106600000Y-67800000D03*
X111000000Y-66000000D03*
X105000000Y-86000000D03*
X103800000Y-61200000D03*
X107800000Y-62400000D03*
X90800000Y-81200000D03*
X101600000Y-91800000D03*
X100200000Y-63000000D03*
X105800000Y-65200000D03*
X92600000Y-91800000D03*
X91800000Y-62800000D03*
X92400000Y-86400000D03*
X100200000Y-70800000D03*
X96737500Y-68500000D03*
X89400000Y-73000000D03*
X109200000Y-79400000D03*
X96400000Y-61400000D03*
X104000000Y-77800000D03*
X109500000Y-85600000D03*
X104800000Y-71200000D03*
X97600000Y-74600000D03*
X99000000Y-82600000D03*
X111400000Y-74200000D03*
X108000000Y-93800000D03*
X98587500Y-76700000D03*
%TO.N,VCC_5V*%
X111050000Y-84600000D03*
X98800000Y-74300000D03*
X110100000Y-71700000D03*
X94290000Y-74100000D03*
%TO.N,3*%
X103000000Y-87350000D03*
X104635000Y-73275000D03*
%TO.N,Net-(J1-CC2)*%
X96687500Y-70000000D03*
X93000000Y-73200000D03*
%TD*%
D12*
%TO.N,Net-(U3-EN)*%
X91500000Y-93000000D02*
X106000000Y-93000000D01*
X90050000Y-92450000D02*
X90950000Y-92450000D01*
X90950000Y-92450000D02*
X91500000Y-93000000D01*
%TO.N,1*%
X100800000Y-77087500D02*
X100800000Y-86850000D01*
X100800000Y-86850000D02*
X103000000Y-89050000D01*
X100412500Y-76700000D02*
X100800000Y-77087500D01*
%TO.N,2*%
X103365000Y-74235000D02*
X101200000Y-76400000D01*
X101200000Y-76400000D02*
X101200000Y-86400000D01*
X103365000Y-73275000D02*
X103365000Y-74235000D01*
X101200000Y-86400000D02*
X103000000Y-88200000D01*
%TO.N,4*%
X102002000Y-85502000D02*
X103000000Y-86500000D01*
X102002000Y-77998000D02*
X102002000Y-85502000D01*
X105905000Y-74095000D02*
X102002000Y-77998000D01*
X105905000Y-73275000D02*
X105905000Y-74095000D01*
%TO.N,VCC_5V*%
X98800000Y-74300000D02*
X98099000Y-73599000D01*
X110100000Y-71700000D02*
X110100000Y-76900000D01*
X94791000Y-73599000D02*
X94290000Y-74100000D01*
X111050000Y-77850000D02*
X111050000Y-84600000D01*
X110100000Y-76900000D02*
X111050000Y-77850000D01*
X98099000Y-73599000D02*
X94791000Y-73599000D01*
%TO.N,3*%
X101601000Y-77199000D02*
X101601000Y-85951000D01*
X104635000Y-73275000D02*
X104635000Y-74165000D01*
X104635000Y-74165000D02*
X101601000Y-77199000D01*
X101601000Y-85951000D02*
X103000000Y-87350000D01*
%TO.N,Net-(J1-CC2)*%
X92800000Y-73000000D02*
X92800000Y-71400000D01*
X94200000Y-70000000D02*
X96687500Y-70000000D01*
X93000000Y-73200000D02*
X92800000Y-73000000D01*
X92800000Y-71400000D02*
X94200000Y-70000000D01*
%TD*%
%TA.AperFunction,Conductor*%
%TO.N,GND*%
G36*
X109908608Y-60520185D02*
G01*
X109954363Y-60572989D01*
X109964307Y-60642147D01*
X109935282Y-60705703D01*
X109897864Y-60734985D01*
X109765974Y-60802187D01*
X109587641Y-60931752D01*
X109587636Y-60931756D01*
X109431756Y-61087636D01*
X109431752Y-61087641D01*
X109302187Y-61265974D01*
X109202104Y-61462393D01*
X109202103Y-61462396D01*
X109133985Y-61672047D01*
X109099500Y-61889778D01*
X109099500Y-62110221D01*
X109133985Y-62327952D01*
X109202103Y-62537603D01*
X109202104Y-62537606D01*
X109302187Y-62734025D01*
X109431752Y-62912358D01*
X109431756Y-62912363D01*
X109587636Y-63068243D01*
X109587641Y-63068247D01*
X109743192Y-63181260D01*
X109765978Y-63197815D01*
X109894375Y-63263237D01*
X109962393Y-63297895D01*
X109962396Y-63297896D01*
X110067221Y-63331955D01*
X110172049Y-63366015D01*
X110389778Y-63400500D01*
X110389779Y-63400500D01*
X110610221Y-63400500D01*
X110610222Y-63400500D01*
X110827951Y-63366015D01*
X111037606Y-63297895D01*
X111234022Y-63197815D01*
X111412365Y-63068242D01*
X111568242Y-62912365D01*
X111697815Y-62734022D01*
X111765015Y-62602136D01*
X111812990Y-62551340D01*
X111880811Y-62534545D01*
X111946946Y-62557083D01*
X111990397Y-62611798D01*
X111999500Y-62658431D01*
X111999500Y-92341568D01*
X111979815Y-92408607D01*
X111927011Y-92454362D01*
X111857853Y-92464306D01*
X111794297Y-92435281D01*
X111765016Y-92397864D01*
X111697814Y-92265976D01*
X111568247Y-92087641D01*
X111568243Y-92087636D01*
X111412363Y-91931756D01*
X111412358Y-91931752D01*
X111234025Y-91802187D01*
X111234024Y-91802186D01*
X111234022Y-91802185D01*
X111171096Y-91770122D01*
X111037606Y-91702104D01*
X111037603Y-91702103D01*
X110827952Y-91633985D01*
X110719086Y-91616742D01*
X110610222Y-91599500D01*
X110389778Y-91599500D01*
X110317201Y-91610995D01*
X110172047Y-91633985D01*
X109962396Y-91702103D01*
X109962393Y-91702104D01*
X109765974Y-91802187D01*
X109587641Y-91931752D01*
X109587636Y-91931756D01*
X109431756Y-92087636D01*
X109431752Y-92087641D01*
X109302187Y-92265974D01*
X109202104Y-92462393D01*
X109202103Y-92462396D01*
X109133985Y-92672047D01*
X109099500Y-92889778D01*
X109099500Y-93110221D01*
X109133985Y-93327952D01*
X109202103Y-93537603D01*
X109202104Y-93537606D01*
X109302187Y-93734025D01*
X109431752Y-93912358D01*
X109431756Y-93912363D01*
X109587636Y-94068243D01*
X109587641Y-94068247D01*
X109743192Y-94181260D01*
X109765978Y-94197815D01*
X109894915Y-94263512D01*
X109897864Y-94265015D01*
X109948660Y-94312990D01*
X109965455Y-94380811D01*
X109942917Y-94446946D01*
X109888202Y-94490397D01*
X109841569Y-94499500D01*
X88124500Y-94499500D01*
X88057461Y-94479815D01*
X88011706Y-94427011D01*
X88000500Y-94375500D01*
X88000500Y-92377525D01*
X89499500Y-92377525D01*
X89499500Y-92522475D01*
X89533537Y-92649500D01*
X89537017Y-92662488D01*
X89609488Y-92788011D01*
X89609490Y-92788013D01*
X89609491Y-92788015D01*
X89711985Y-92890509D01*
X89711986Y-92890510D01*
X89711988Y-92890511D01*
X89837511Y-92962982D01*
X89837512Y-92962982D01*
X89837515Y-92962984D01*
X89977525Y-93000500D01*
X89977528Y-93000500D01*
X90122472Y-93000500D01*
X90122475Y-93000500D01*
X90262485Y-92962984D01*
X90388015Y-92890509D01*
X90441705Y-92836819D01*
X90468632Y-92822115D01*
X90494451Y-92805523D01*
X90500651Y-92804631D01*
X90503028Y-92803334D01*
X90529386Y-92800500D01*
X90753456Y-92800500D01*
X90820495Y-92820185D01*
X90841137Y-92836819D01*
X91284787Y-93280469D01*
X91347965Y-93316945D01*
X91347966Y-93316946D01*
X91358213Y-93322861D01*
X91364712Y-93326614D01*
X91453856Y-93350500D01*
X105520614Y-93350500D01*
X105587653Y-93370185D01*
X105608295Y-93386819D01*
X105661985Y-93440509D01*
X105661986Y-93440510D01*
X105661988Y-93440511D01*
X105787511Y-93512982D01*
X105787512Y-93512982D01*
X105787515Y-93512984D01*
X105927525Y-93550500D01*
X105927528Y-93550500D01*
X106072472Y-93550500D01*
X106072475Y-93550500D01*
X106212485Y-93512984D01*
X106338015Y-93440509D01*
X106440509Y-93338015D01*
X106512984Y-93212485D01*
X106550500Y-93072475D01*
X106550500Y-92927525D01*
X106512984Y-92787515D01*
X106446319Y-92672049D01*
X106440511Y-92661988D01*
X106440506Y-92661982D01*
X106338017Y-92559493D01*
X106338011Y-92559488D01*
X106212488Y-92487017D01*
X106212489Y-92487017D01*
X106201006Y-92483940D01*
X106072475Y-92449500D01*
X105927525Y-92449500D01*
X105798993Y-92483940D01*
X105787511Y-92487017D01*
X105661988Y-92559488D01*
X105661982Y-92559493D01*
X105608295Y-92613181D01*
X105546972Y-92646666D01*
X105520614Y-92649500D01*
X91696544Y-92649500D01*
X91629505Y-92629815D01*
X91608863Y-92613181D01*
X91165213Y-92169531D01*
X91165208Y-92169527D01*
X91085290Y-92123387D01*
X91085289Y-92123386D01*
X91085288Y-92123386D01*
X90996144Y-92099500D01*
X90996143Y-92099500D01*
X90529386Y-92099500D01*
X90462347Y-92079815D01*
X90441705Y-92063181D01*
X90388017Y-92009493D01*
X90388011Y-92009488D01*
X90262488Y-91937017D01*
X90262489Y-91937017D01*
X90242862Y-91931758D01*
X90122475Y-91899500D01*
X89977525Y-91899500D01*
X89857138Y-91931758D01*
X89837511Y-91937017D01*
X89711988Y-92009488D01*
X89711982Y-92009493D01*
X89609493Y-92111982D01*
X89609488Y-92111988D01*
X89537017Y-92237511D01*
X89537016Y-92237515D01*
X89499500Y-92377525D01*
X88000500Y-92377525D01*
X88000500Y-76627525D01*
X99862000Y-76627525D01*
X99862000Y-76772475D01*
X99867001Y-76791137D01*
X99899517Y-76912488D01*
X99971988Y-77038011D01*
X99971990Y-77038013D01*
X99971991Y-77038015D01*
X100074485Y-77140509D01*
X100074486Y-77140510D01*
X100074488Y-77140511D01*
X100200011Y-77212982D01*
X100200012Y-77212982D01*
X100200015Y-77212984D01*
X100340025Y-77250500D01*
X100340032Y-77250500D01*
X100341680Y-77250717D01*
X100342974Y-77251289D01*
X100347876Y-77252603D01*
X100347671Y-77253367D01*
X100405578Y-77278981D01*
X100444052Y-77337304D01*
X100449500Y-77373657D01*
X100449500Y-86896144D01*
X100461388Y-86940511D01*
X100473384Y-86985285D01*
X100473385Y-86985286D01*
X100519527Y-87065208D01*
X100519531Y-87065213D01*
X102413181Y-88958863D01*
X102446666Y-89020186D01*
X102449500Y-89046544D01*
X102449500Y-89122475D01*
X102487016Y-89262485D01*
X102487017Y-89262488D01*
X102559488Y-89388011D01*
X102559490Y-89388013D01*
X102559491Y-89388015D01*
X102661985Y-89490509D01*
X102661986Y-89490510D01*
X102661988Y-89490511D01*
X102787511Y-89562982D01*
X102787512Y-89562982D01*
X102787515Y-89562984D01*
X102927525Y-89600500D01*
X102927528Y-89600500D01*
X103072472Y-89600500D01*
X103072475Y-89600500D01*
X103212485Y-89562984D01*
X103338015Y-89490509D01*
X103440509Y-89388015D01*
X103512984Y-89262485D01*
X103550500Y-89122475D01*
X103550500Y-88977525D01*
X103512984Y-88837515D01*
X103440509Y-88711985D01*
X103440507Y-88711983D01*
X103435562Y-88705539D01*
X103436790Y-88704596D01*
X103407720Y-88651358D01*
X103412704Y-88581666D01*
X103436267Y-88545002D01*
X103435562Y-88544461D01*
X103440504Y-88538019D01*
X103440509Y-88538015D01*
X103512984Y-88412485D01*
X103550500Y-88272475D01*
X103550500Y-88127525D01*
X103512984Y-87987515D01*
X103440509Y-87861985D01*
X103440507Y-87861983D01*
X103435562Y-87855539D01*
X103436790Y-87854596D01*
X103407720Y-87801358D01*
X103412704Y-87731666D01*
X103436267Y-87695002D01*
X103435562Y-87694461D01*
X103440504Y-87688019D01*
X103440509Y-87688015D01*
X103512984Y-87562485D01*
X103550500Y-87422475D01*
X103550500Y-87277525D01*
X103512984Y-87137515D01*
X103471240Y-87065213D01*
X103440511Y-87011988D01*
X103435562Y-87005539D01*
X103436790Y-87004596D01*
X103407720Y-86951358D01*
X103412704Y-86881666D01*
X103436267Y-86845002D01*
X103435562Y-86844461D01*
X103440504Y-86838019D01*
X103440509Y-86838015D01*
X103512984Y-86712485D01*
X103550500Y-86572475D01*
X103550500Y-86427525D01*
X103512984Y-86287515D01*
X103440509Y-86161985D01*
X103338015Y-86059491D01*
X103338013Y-86059490D01*
X103338011Y-86059488D01*
X103212488Y-85987017D01*
X103212489Y-85987017D01*
X103201006Y-85983940D01*
X103072475Y-85949500D01*
X103072472Y-85949500D01*
X102996544Y-85949500D01*
X102929505Y-85929815D01*
X102908863Y-85913181D01*
X102388819Y-85393137D01*
X102355334Y-85331814D01*
X102352500Y-85305456D01*
X102352500Y-78194544D01*
X102372185Y-78127505D01*
X102388819Y-78106863D01*
X104243682Y-76252000D01*
X106185470Y-74310212D01*
X106231614Y-74230288D01*
X106255500Y-74141143D01*
X106255500Y-74048856D01*
X106255500Y-73754386D01*
X106275185Y-73687347D01*
X106291819Y-73666705D01*
X106318018Y-73640506D01*
X106345509Y-73613015D01*
X106417984Y-73487485D01*
X106455500Y-73347475D01*
X106455500Y-73202525D01*
X106417984Y-73062515D01*
X106374680Y-72987511D01*
X106345511Y-72936988D01*
X106345506Y-72936982D01*
X106243017Y-72834493D01*
X106243011Y-72834488D01*
X106117488Y-72762017D01*
X106117489Y-72762017D01*
X106106006Y-72758940D01*
X105977475Y-72724500D01*
X105832525Y-72724500D01*
X105703993Y-72758940D01*
X105692511Y-72762017D01*
X105566988Y-72834488D01*
X105566982Y-72834493D01*
X105464493Y-72936982D01*
X105464488Y-72936988D01*
X105392017Y-73062511D01*
X105392015Y-73062516D01*
X105389774Y-73070881D01*
X105353409Y-73130541D01*
X105290561Y-73161069D01*
X105221186Y-73152774D01*
X105167309Y-73108288D01*
X105150226Y-73070881D01*
X105147984Y-73062516D01*
X105147982Y-73062511D01*
X105075511Y-72936988D01*
X105075506Y-72936982D01*
X104973017Y-72834493D01*
X104973011Y-72834488D01*
X104847488Y-72762017D01*
X104847489Y-72762017D01*
X104836006Y-72758940D01*
X104707475Y-72724500D01*
X104562525Y-72724500D01*
X104433993Y-72758940D01*
X104422511Y-72762017D01*
X104296988Y-72834488D01*
X104296982Y-72834493D01*
X104194493Y-72936982D01*
X104194488Y-72936988D01*
X104122017Y-73062511D01*
X104122015Y-73062516D01*
X104119774Y-73070881D01*
X104083409Y-73130541D01*
X104020561Y-73161069D01*
X103951186Y-73152774D01*
X103897309Y-73108288D01*
X103880226Y-73070881D01*
X103877984Y-73062516D01*
X103877982Y-73062511D01*
X103805511Y-72936988D01*
X103805506Y-72936982D01*
X103703017Y-72834493D01*
X103703011Y-72834488D01*
X103577488Y-72762017D01*
X103577489Y-72762017D01*
X103566006Y-72758940D01*
X103437475Y-72724500D01*
X103292525Y-72724500D01*
X103163993Y-72758940D01*
X103152511Y-72762017D01*
X103026988Y-72834488D01*
X103026982Y-72834493D01*
X102924493Y-72936982D01*
X102924488Y-72936988D01*
X102852017Y-73062511D01*
X102852016Y-73062515D01*
X102814500Y-73202525D01*
X102814500Y-73347475D01*
X102849775Y-73479120D01*
X102852017Y-73487488D01*
X102924488Y-73613011D01*
X102924493Y-73613017D01*
X102978181Y-73666705D01*
X103011666Y-73728028D01*
X103014500Y-73754386D01*
X103014500Y-74038456D01*
X102994815Y-74105495D01*
X102978181Y-74126137D01*
X100919532Y-76184785D01*
X100919528Y-76184791D01*
X100906926Y-76206617D01*
X100856357Y-76254831D01*
X100787750Y-76268051D01*
X100737541Y-76252000D01*
X100624988Y-76187017D01*
X100624989Y-76187017D01*
X100613506Y-76183940D01*
X100484975Y-76149500D01*
X100340025Y-76149500D01*
X100211493Y-76183940D01*
X100200011Y-76187017D01*
X100074488Y-76259488D01*
X100074482Y-76259493D01*
X99971993Y-76361982D01*
X99971988Y-76361988D01*
X99899517Y-76487511D01*
X99899516Y-76487515D01*
X99862000Y-76627525D01*
X88000500Y-76627525D01*
X88000500Y-74514234D01*
X92639500Y-74514234D01*
X92639500Y-74665765D01*
X92678719Y-74812136D01*
X92679209Y-74812984D01*
X92754485Y-74943365D01*
X92861635Y-75050515D01*
X92992865Y-75126281D01*
X93139234Y-75165500D01*
X93139236Y-75165500D01*
X93290764Y-75165500D01*
X93290766Y-75165500D01*
X93437135Y-75126281D01*
X93568365Y-75050515D01*
X93675515Y-74943365D01*
X93751281Y-74812135D01*
X93790500Y-74665766D01*
X93790500Y-74662049D01*
X93791386Y-74659028D01*
X93791561Y-74657706D01*
X93791767Y-74657733D01*
X93810185Y-74595010D01*
X93862989Y-74549255D01*
X93932147Y-74539311D01*
X93976499Y-74554662D01*
X94020783Y-74580229D01*
X94077509Y-74612981D01*
X94077510Y-74612982D01*
X94077512Y-74612982D01*
X94077515Y-74612984D01*
X94217525Y-74650500D01*
X94217528Y-74650500D01*
X94362472Y-74650500D01*
X94362475Y-74650500D01*
X94502485Y-74612984D01*
X94628015Y-74540509D01*
X94730509Y-74438015D01*
X94802984Y-74312485D01*
X94840500Y-74172475D01*
X94840500Y-74096544D01*
X94849144Y-74067103D01*
X94855668Y-74037117D01*
X94859422Y-74032101D01*
X94860185Y-74029505D01*
X94876819Y-74008863D01*
X94899863Y-73985819D01*
X94961186Y-73952334D01*
X94987544Y-73949500D01*
X97902456Y-73949500D01*
X97969495Y-73969185D01*
X97990137Y-73985819D01*
X98213181Y-74208863D01*
X98246666Y-74270186D01*
X98249500Y-74296544D01*
X98249500Y-74372475D01*
X98270330Y-74450212D01*
X98287017Y-74512488D01*
X98359488Y-74638011D01*
X98359490Y-74638013D01*
X98359491Y-74638015D01*
X98461985Y-74740509D01*
X98461986Y-74740510D01*
X98461988Y-74740511D01*
X98587511Y-74812982D01*
X98587512Y-74812982D01*
X98587515Y-74812984D01*
X98727525Y-74850500D01*
X98727528Y-74850500D01*
X98872472Y-74850500D01*
X98872475Y-74850500D01*
X99012485Y-74812984D01*
X99138015Y-74740509D01*
X99240509Y-74638015D01*
X99312984Y-74512485D01*
X99350500Y-74372475D01*
X99350500Y-74227525D01*
X99312984Y-74087515D01*
X99282881Y-74035376D01*
X99240511Y-73961988D01*
X99240506Y-73961982D01*
X99138017Y-73859493D01*
X99138011Y-73859488D01*
X99012488Y-73787017D01*
X99012489Y-73787017D01*
X99001006Y-73783940D01*
X98872475Y-73749500D01*
X98872472Y-73749500D01*
X98796544Y-73749500D01*
X98729505Y-73729815D01*
X98708863Y-73713181D01*
X98314213Y-73318531D01*
X98314208Y-73318527D01*
X98234290Y-73272387D01*
X98234289Y-73272386D01*
X98234288Y-73272386D01*
X98145144Y-73248500D01*
X94744856Y-73248500D01*
X94655712Y-73272386D01*
X94655709Y-73272387D01*
X94575791Y-73318527D01*
X94575786Y-73318531D01*
X94381137Y-73513181D01*
X94319814Y-73546666D01*
X94293456Y-73549500D01*
X94217525Y-73549500D01*
X94088993Y-73583940D01*
X94077511Y-73587017D01*
X93951988Y-73659488D01*
X93951982Y-73659493D01*
X93849493Y-73761982D01*
X93849488Y-73761988D01*
X93777017Y-73887511D01*
X93777016Y-73887515D01*
X93755133Y-73969185D01*
X93739499Y-74027530D01*
X93739157Y-74030128D01*
X93738260Y-74032154D01*
X93737397Y-74035376D01*
X93736894Y-74035241D01*
X93710884Y-74094022D01*
X93652556Y-74132487D01*
X93582691Y-74133312D01*
X93554223Y-74121320D01*
X93460317Y-74067103D01*
X93437136Y-74053719D01*
X93356652Y-74032154D01*
X93290766Y-74014500D01*
X93139234Y-74014500D01*
X92992863Y-74053719D01*
X92861635Y-74129485D01*
X92861632Y-74129487D01*
X92754487Y-74236632D01*
X92754485Y-74236635D01*
X92678719Y-74367863D01*
X92639500Y-74514234D01*
X88000500Y-74514234D01*
X88000500Y-71353856D01*
X92449500Y-71353856D01*
X92449500Y-73046143D01*
X92451805Y-73054747D01*
X92451805Y-73118919D01*
X92449500Y-73127520D01*
X92449500Y-73127525D01*
X92449500Y-73272475D01*
X92482927Y-73397225D01*
X92487017Y-73412488D01*
X92559488Y-73538011D01*
X92559490Y-73538013D01*
X92559491Y-73538015D01*
X92661985Y-73640509D01*
X92661986Y-73640510D01*
X92661988Y-73640511D01*
X92787511Y-73712982D01*
X92787512Y-73712982D01*
X92787515Y-73712984D01*
X92927525Y-73750500D01*
X92927528Y-73750500D01*
X93072472Y-73750500D01*
X93072475Y-73750500D01*
X93212485Y-73712984D01*
X93338015Y-73640509D01*
X93440509Y-73538015D01*
X93512984Y-73412485D01*
X93550500Y-73272475D01*
X93550500Y-73127525D01*
X93512984Y-72987515D01*
X93483810Y-72936985D01*
X93440511Y-72861988D01*
X93440506Y-72861982D01*
X93338017Y-72759493D01*
X93338015Y-72759491D01*
X93212499Y-72687024D01*
X93164284Y-72636457D01*
X93150500Y-72579637D01*
X93150500Y-71627525D01*
X109549500Y-71627525D01*
X109549500Y-71772475D01*
X109587016Y-71912485D01*
X109587017Y-71912488D01*
X109659488Y-72038011D01*
X109659493Y-72038017D01*
X109713181Y-72091705D01*
X109746666Y-72153028D01*
X109749500Y-72179386D01*
X109749500Y-76946144D01*
X109759581Y-76983768D01*
X109759587Y-76983789D01*
X109773385Y-77035287D01*
X109819527Y-77115208D01*
X109819531Y-77115213D01*
X110663181Y-77958863D01*
X110696666Y-78020186D01*
X110699500Y-78046544D01*
X110699500Y-84120614D01*
X110679815Y-84187653D01*
X110663181Y-84208295D01*
X110609493Y-84261982D01*
X110609488Y-84261988D01*
X110537017Y-84387511D01*
X110537016Y-84387515D01*
X110499500Y-84527525D01*
X110499500Y-84672475D01*
X110537016Y-84812485D01*
X110537017Y-84812488D01*
X110609488Y-84938011D01*
X110609490Y-84938013D01*
X110609491Y-84938015D01*
X110711985Y-85040509D01*
X110711986Y-85040510D01*
X110711988Y-85040511D01*
X110837511Y-85112982D01*
X110837512Y-85112982D01*
X110837515Y-85112984D01*
X110977525Y-85150500D01*
X110977528Y-85150500D01*
X111122472Y-85150500D01*
X111122475Y-85150500D01*
X111262485Y-85112984D01*
X111388015Y-85040509D01*
X111490509Y-84938015D01*
X111562984Y-84812485D01*
X111600500Y-84672475D01*
X111600500Y-84527525D01*
X111562984Y-84387515D01*
X111490509Y-84261985D01*
X111436819Y-84208295D01*
X111403334Y-84146972D01*
X111400500Y-84120614D01*
X111400500Y-77803858D01*
X111400500Y-77803856D01*
X111376614Y-77714712D01*
X111330470Y-77634788D01*
X110486819Y-76791137D01*
X110453334Y-76729814D01*
X110450500Y-76703456D01*
X110450500Y-72179386D01*
X110470185Y-72112347D01*
X110486819Y-72091705D01*
X110540509Y-72038015D01*
X110612984Y-71912485D01*
X110650500Y-71772475D01*
X110650500Y-71627525D01*
X110612984Y-71487515D01*
X110540509Y-71361985D01*
X110438015Y-71259491D01*
X110438013Y-71259490D01*
X110438011Y-71259488D01*
X110312488Y-71187017D01*
X110312489Y-71187017D01*
X110301006Y-71183940D01*
X110172475Y-71149500D01*
X110027525Y-71149500D01*
X109898993Y-71183940D01*
X109887511Y-71187017D01*
X109761988Y-71259488D01*
X109761982Y-71259493D01*
X109659493Y-71361982D01*
X109659488Y-71361988D01*
X109587017Y-71487511D01*
X109587016Y-71487515D01*
X109549500Y-71627525D01*
X93150500Y-71627525D01*
X93150500Y-71596544D01*
X93170185Y-71529505D01*
X93186819Y-71508863D01*
X94308863Y-70386819D01*
X94370186Y-70353334D01*
X94396544Y-70350500D01*
X96208114Y-70350500D01*
X96275153Y-70370185D01*
X96295795Y-70386819D01*
X96349485Y-70440509D01*
X96349486Y-70440510D01*
X96349488Y-70440511D01*
X96475011Y-70512982D01*
X96475012Y-70512982D01*
X96475015Y-70512984D01*
X96615025Y-70550500D01*
X96615028Y-70550500D01*
X96759972Y-70550500D01*
X96759975Y-70550500D01*
X96899985Y-70512984D01*
X97025515Y-70440509D01*
X97128009Y-70338015D01*
X97200484Y-70212485D01*
X97238000Y-70072475D01*
X97238000Y-69927525D01*
X97200484Y-69787515D01*
X97161233Y-69719531D01*
X97128011Y-69661988D01*
X97128006Y-69661982D01*
X97025517Y-69559493D01*
X97025511Y-69559488D01*
X96899988Y-69487017D01*
X96899989Y-69487017D01*
X96888506Y-69483940D01*
X96759975Y-69449500D01*
X96615025Y-69449500D01*
X96486493Y-69483940D01*
X96475011Y-69487017D01*
X96349488Y-69559488D01*
X96349482Y-69559493D01*
X96295795Y-69613181D01*
X96234472Y-69646666D01*
X96208114Y-69649500D01*
X94153856Y-69649500D01*
X94064712Y-69673386D01*
X94064709Y-69673387D01*
X93984791Y-69719527D01*
X93984786Y-69719531D01*
X92519532Y-71184785D01*
X92519527Y-71184791D01*
X92476401Y-71259487D01*
X92476402Y-71259488D01*
X92473385Y-71264713D01*
X92449500Y-71353856D01*
X88000500Y-71353856D01*
X88000500Y-68734234D01*
X92639500Y-68734234D01*
X92639500Y-68885765D01*
X92678719Y-69032136D01*
X92716602Y-69097750D01*
X92754485Y-69163365D01*
X92861635Y-69270515D01*
X92992865Y-69346281D01*
X93139234Y-69385500D01*
X93139236Y-69385500D01*
X93290764Y-69385500D01*
X93290766Y-69385500D01*
X93437135Y-69346281D01*
X93568365Y-69270515D01*
X93675515Y-69163365D01*
X93751281Y-69032135D01*
X93790500Y-68885766D01*
X93790500Y-68734234D01*
X93751281Y-68587865D01*
X93675515Y-68456635D01*
X93568365Y-68349485D01*
X93502750Y-68311602D01*
X93437136Y-68273719D01*
X93363950Y-68254109D01*
X93290766Y-68234500D01*
X93139234Y-68234500D01*
X92992863Y-68273719D01*
X92861635Y-68349485D01*
X92861632Y-68349487D01*
X92754487Y-68456632D01*
X92754485Y-68456635D01*
X92678719Y-68587863D01*
X92639500Y-68734234D01*
X88000500Y-68734234D01*
X88000500Y-62658431D01*
X88020185Y-62591392D01*
X88072989Y-62545637D01*
X88142147Y-62535693D01*
X88205703Y-62564718D01*
X88234985Y-62602136D01*
X88302187Y-62734025D01*
X88431752Y-62912358D01*
X88431756Y-62912363D01*
X88587636Y-63068243D01*
X88587641Y-63068247D01*
X88743192Y-63181260D01*
X88765978Y-63197815D01*
X88894375Y-63263237D01*
X88962393Y-63297895D01*
X88962396Y-63297896D01*
X89067221Y-63331955D01*
X89172049Y-63366015D01*
X89389778Y-63400500D01*
X89389779Y-63400500D01*
X89610221Y-63400500D01*
X89610222Y-63400500D01*
X89827951Y-63366015D01*
X90037606Y-63297895D01*
X90234022Y-63197815D01*
X90412365Y-63068242D01*
X90568242Y-62912365D01*
X90697815Y-62734022D01*
X90706167Y-62717629D01*
X90719053Y-62692342D01*
X90797895Y-62537606D01*
X90797896Y-62537603D01*
X90852648Y-62369090D01*
X90866015Y-62327951D01*
X90900500Y-62110222D01*
X90900500Y-61889778D01*
X90866015Y-61672049D01*
X90866014Y-61672045D01*
X90866014Y-61672043D01*
X90864888Y-61668577D01*
X90854418Y-61636353D01*
X93250000Y-61636353D01*
X93250000Y-62550000D01*
X93800000Y-62550000D01*
X93800000Y-62800000D01*
X93250000Y-62800000D01*
X93250000Y-63713646D01*
X93284584Y-63887512D01*
X93284586Y-63887520D01*
X93352428Y-64051307D01*
X93352433Y-64051316D01*
X93450923Y-64198716D01*
X93450926Y-64198720D01*
X93576279Y-64324073D01*
X93576283Y-64324076D01*
X93723683Y-64422566D01*
X93723692Y-64422571D01*
X93887479Y-64490413D01*
X93887487Y-64490415D01*
X94024999Y-64517768D01*
X94025000Y-64517768D01*
X94025000Y-63903852D01*
X94103922Y-63925000D01*
X94196078Y-63925000D01*
X94275000Y-63903852D01*
X94275000Y-64517768D01*
X94412512Y-64490415D01*
X94412520Y-64490413D01*
X94576307Y-64422571D01*
X94576316Y-64422566D01*
X94723716Y-64324076D01*
X94723720Y-64324073D01*
X94849073Y-64198720D01*
X94849076Y-64198716D01*
X94947566Y-64051316D01*
X94947571Y-64051307D01*
X95015413Y-63887520D01*
X95015415Y-63887512D01*
X95049999Y-63713646D01*
X95050000Y-63713643D01*
X95050000Y-62800000D01*
X94500000Y-62800000D01*
X94500000Y-62596153D01*
X96949500Y-62596153D01*
X96949500Y-62753846D01*
X96980261Y-62908489D01*
X96980264Y-62908501D01*
X97040602Y-63054172D01*
X97040609Y-63054185D01*
X97128210Y-63185288D01*
X97128213Y-63185292D01*
X97239707Y-63296786D01*
X97239711Y-63296789D01*
X97370814Y-63384390D01*
X97370827Y-63384397D01*
X97516498Y-63444735D01*
X97516503Y-63444737D01*
X97671153Y-63475499D01*
X97671156Y-63475500D01*
X97671158Y-63475500D01*
X97828844Y-63475500D01*
X97828845Y-63475499D01*
X97983497Y-63444737D01*
X98129179Y-63384394D01*
X98260289Y-63296789D01*
X98371789Y-63185289D01*
X98459394Y-63054179D01*
X98519737Y-62908497D01*
X98550500Y-62753842D01*
X98550500Y-62596158D01*
X98550500Y-62596155D01*
X98550499Y-62596153D01*
X101449500Y-62596153D01*
X101449500Y-62753846D01*
X101480261Y-62908489D01*
X101480264Y-62908501D01*
X101540602Y-63054172D01*
X101540609Y-63054185D01*
X101628210Y-63185288D01*
X101628213Y-63185292D01*
X101739707Y-63296786D01*
X101739711Y-63296789D01*
X101870814Y-63384390D01*
X101870827Y-63384397D01*
X102016498Y-63444735D01*
X102016503Y-63444737D01*
X102171153Y-63475499D01*
X102171156Y-63475500D01*
X102171158Y-63475500D01*
X102328844Y-63475500D01*
X102328845Y-63475499D01*
X102483497Y-63444737D01*
X102629179Y-63384394D01*
X102760289Y-63296789D01*
X102871789Y-63185289D01*
X102959394Y-63054179D01*
X103019737Y-62908497D01*
X103050500Y-62753842D01*
X103050500Y-62596158D01*
X103050500Y-62596155D01*
X103050499Y-62596153D01*
X103041585Y-62551340D01*
X103019737Y-62441503D01*
X102968144Y-62316945D01*
X102959397Y-62295827D01*
X102959390Y-62295814D01*
X102871789Y-62164711D01*
X102871786Y-62164707D01*
X102760292Y-62053213D01*
X102760288Y-62053210D01*
X102629185Y-61965609D01*
X102629172Y-61965602D01*
X102483501Y-61905264D01*
X102483489Y-61905261D01*
X102328845Y-61874500D01*
X102328842Y-61874500D01*
X102171158Y-61874500D01*
X102171155Y-61874500D01*
X102016510Y-61905261D01*
X102016498Y-61905264D01*
X101870827Y-61965602D01*
X101870814Y-61965609D01*
X101739711Y-62053210D01*
X101739707Y-62053213D01*
X101628213Y-62164707D01*
X101628210Y-62164711D01*
X101540609Y-62295814D01*
X101540602Y-62295827D01*
X101480264Y-62441498D01*
X101480261Y-62441510D01*
X101449500Y-62596153D01*
X98550499Y-62596153D01*
X98541585Y-62551340D01*
X98519737Y-62441503D01*
X98468144Y-62316945D01*
X98459397Y-62295827D01*
X98459390Y-62295814D01*
X98371789Y-62164711D01*
X98371786Y-62164707D01*
X98260292Y-62053213D01*
X98260288Y-62053210D01*
X98129185Y-61965609D01*
X98129172Y-61965602D01*
X97983501Y-61905264D01*
X97983489Y-61905261D01*
X97828845Y-61874500D01*
X97828842Y-61874500D01*
X97671158Y-61874500D01*
X97671155Y-61874500D01*
X97516510Y-61905261D01*
X97516498Y-61905264D01*
X97370827Y-61965602D01*
X97370814Y-61965609D01*
X97239711Y-62053210D01*
X97239707Y-62053213D01*
X97128213Y-62164707D01*
X97128210Y-62164711D01*
X97040609Y-62295814D01*
X97040602Y-62295827D01*
X96980264Y-62441498D01*
X96980261Y-62441510D01*
X96949500Y-62596153D01*
X94500000Y-62596153D01*
X94500000Y-62550000D01*
X95050000Y-62550000D01*
X95050000Y-61636357D01*
X95049999Y-61636353D01*
X104950000Y-61636353D01*
X104950000Y-62550000D01*
X105500000Y-62550000D01*
X105500000Y-62800000D01*
X104950000Y-62800000D01*
X104950000Y-63713646D01*
X104984584Y-63887512D01*
X104984586Y-63887520D01*
X105052428Y-64051307D01*
X105052433Y-64051316D01*
X105150923Y-64198716D01*
X105150926Y-64198720D01*
X105276279Y-64324073D01*
X105276283Y-64324076D01*
X105423683Y-64422566D01*
X105423692Y-64422571D01*
X105587479Y-64490413D01*
X105587487Y-64490415D01*
X105724999Y-64517768D01*
X105725000Y-64517768D01*
X105725000Y-63903852D01*
X105803922Y-63925000D01*
X105896078Y-63925000D01*
X105975000Y-63903852D01*
X105975000Y-64517768D01*
X106112512Y-64490415D01*
X106112520Y-64490413D01*
X106276307Y-64422571D01*
X106276316Y-64422566D01*
X106423716Y-64324076D01*
X106423720Y-64324073D01*
X106549073Y-64198720D01*
X106549076Y-64198716D01*
X106647566Y-64051316D01*
X106647571Y-64051307D01*
X106715413Y-63887520D01*
X106715415Y-63887512D01*
X106749999Y-63713646D01*
X106750000Y-63713643D01*
X106750000Y-62800000D01*
X106200000Y-62800000D01*
X106200000Y-62550000D01*
X106750000Y-62550000D01*
X106750000Y-61636357D01*
X106749999Y-61636353D01*
X106715415Y-61462487D01*
X106715413Y-61462479D01*
X106647571Y-61298692D01*
X106647566Y-61298683D01*
X106549076Y-61151283D01*
X106549073Y-61151279D01*
X106423720Y-61025926D01*
X106423716Y-61025923D01*
X106276316Y-60927433D01*
X106276307Y-60927428D01*
X106112520Y-60859586D01*
X106112514Y-60859584D01*
X105975000Y-60832230D01*
X105975000Y-61446147D01*
X105896078Y-61425000D01*
X105803922Y-61425000D01*
X105725000Y-61446147D01*
X105725000Y-60832231D01*
X105724999Y-60832230D01*
X105587485Y-60859584D01*
X105587479Y-60859586D01*
X105423692Y-60927428D01*
X105423683Y-60927433D01*
X105276283Y-61025923D01*
X105276279Y-61025926D01*
X105150926Y-61151279D01*
X105150923Y-61151283D01*
X105052433Y-61298683D01*
X105052428Y-61298692D01*
X104984586Y-61462479D01*
X104984584Y-61462487D01*
X104950000Y-61636353D01*
X95049999Y-61636353D01*
X95015415Y-61462487D01*
X95015413Y-61462479D01*
X94947571Y-61298692D01*
X94947566Y-61298683D01*
X94849076Y-61151283D01*
X94849073Y-61151279D01*
X94723720Y-61025926D01*
X94723716Y-61025923D01*
X94576316Y-60927433D01*
X94576307Y-60927428D01*
X94412520Y-60859586D01*
X94412514Y-60859584D01*
X94275000Y-60832230D01*
X94275000Y-61446147D01*
X94196078Y-61425000D01*
X94103922Y-61425000D01*
X94025000Y-61446147D01*
X94025000Y-60832231D01*
X94024999Y-60832230D01*
X93887485Y-60859584D01*
X93887479Y-60859586D01*
X93723692Y-60927428D01*
X93723683Y-60927433D01*
X93576283Y-61025923D01*
X93576279Y-61025926D01*
X93450926Y-61151279D01*
X93450923Y-61151283D01*
X93352433Y-61298683D01*
X93352428Y-61298692D01*
X93284586Y-61462479D01*
X93284584Y-61462487D01*
X93250000Y-61636353D01*
X90854418Y-61636353D01*
X90797896Y-61462396D01*
X90797895Y-61462393D01*
X90736330Y-61341568D01*
X90697815Y-61265978D01*
X90614482Y-61151279D01*
X90568247Y-61087641D01*
X90568243Y-61087636D01*
X90412363Y-60931756D01*
X90412358Y-60931752D01*
X90234025Y-60802187D01*
X90234024Y-60802186D01*
X90234022Y-60802185D01*
X90102136Y-60734985D01*
X90051340Y-60687010D01*
X90034545Y-60619189D01*
X90057083Y-60553054D01*
X90111798Y-60509603D01*
X90158431Y-60500500D01*
X109841569Y-60500500D01*
X109908608Y-60520185D01*
G37*
%TD.AperFunction*%
%TD*%
M02*
