%TF.GenerationSoftware,KiCad,Pcbnew,9.0.5*%
%TF.CreationDate,2025-10-06T23:19:49+02:00*%
%TF.ProjectId,usb-dmx,7573622d-646d-4782-9e6b-696361645f70,1.2*%
%TF.SameCoordinates,Original*%
%TF.FileFunction,Copper,L2,Bot*%
%TF.FilePolarity,Positive*%
%FSLAX46Y46*%
G04 Gerber Fmt 4.6, Leading zero omitted, Abs format (unit mm)*
G04 Created by KiCad (PCBNEW 9.0.5) date 2025-10-06 23:19:49*
%MOMM*%
%LPD*%
G01*
G04 APERTURE LIST*
%TA.AperFunction,HeatsinkPad*%
%ADD10O,1.900000X3.500000*%
%TD*%
%TA.AperFunction,HeatsinkPad*%
%ADD11O,2.100000X1.000000*%
%TD*%
%TA.AperFunction,HeatsinkPad*%
%ADD12O,1.800000X1.000000*%
%TD*%
%TA.AperFunction,ViaPad*%
%ADD13C,0.600000*%
%TD*%
%TA.AperFunction,Conductor*%
%ADD14C,0.200000*%
%TD*%
G04 APERTURE END LIST*
D10*
%TO.P,J2,5,Shield*%
%TO.N,GND*%
X94300000Y-46900000D03*
X105700000Y-46900000D03*
%TD*%
D11*
%TO.P,J1,S1,SHIELD*%
%TO.N,GND*%
X96680000Y-52500000D03*
D12*
X92500000Y-52500000D03*
D11*
X96680000Y-61140000D03*
D12*
X92500000Y-61140000D03*
%TD*%
D13*
%TO.N,Net-(U3-EN)*%
X106850000Y-78737500D03*
X103000000Y-85250000D03*
%TO.N,14*%
X102250000Y-72750000D03*
X104249839Y-65958952D03*
%TO.N,1*%
X105000000Y-82300000D03*
X99337500Y-57500000D03*
%TO.N,2*%
X106115000Y-58037500D03*
X105000000Y-81450000D03*
%TO.N,0*%
X92125000Y-83875000D03*
X91100000Y-70650000D03*
%TO.N,4*%
X108655000Y-58037500D03*
X105000000Y-79750000D03*
%TO.N,GND*%
X95500000Y-56500000D03*
X104000000Y-75250000D03*
X108000000Y-65000000D03*
X101150000Y-66500000D03*
X108000000Y-77500000D03*
X98000000Y-83000000D03*
X98000000Y-75250000D03*
X99250000Y-66500000D03*
X102500000Y-53000000D03*
X101162500Y-56000000D03*
X101000000Y-85500000D03*
X104000000Y-59500000D03*
X93500000Y-75250000D03*
X108250000Y-55500000D03*
X100000000Y-47000000D03*
X93500000Y-79750000D03*
X93500000Y-69750000D03*
X91750000Y-45250000D03*
X93750000Y-66750000D03*
X108000000Y-74500000D03*
X101000000Y-83000000D03*
X92250000Y-56500000D03*
X104250000Y-70250000D03*
X92250000Y-57500000D03*
X104252983Y-66758949D03*
X102000000Y-77500000D03*
X107750000Y-82500000D03*
X94250000Y-49750000D03*
X93500000Y-85500000D03*
X106850000Y-72900000D03*
X93250000Y-63500000D03*
X105000000Y-55750000D03*
X108250000Y-46750000D03*
%TO.N,VCC_5V*%
X101700000Y-70450000D03*
X96500000Y-49650000D03*
%TO.N,D+*%
X97150000Y-72750000D03*
X101250000Y-63275000D03*
%TO.N,D-*%
X99350000Y-63275000D03*
X98000000Y-72750000D03*
%TO.N,3*%
X107385000Y-58037500D03*
X105000000Y-80600000D03*
%TO.N,Net-(J1-CC2)*%
X99337500Y-59000000D03*
X95500000Y-57500000D03*
%TD*%
D14*
%TO.N,Net-(U3-EN)*%
X104500000Y-85250000D02*
X106850000Y-82900000D01*
X106850000Y-82900000D02*
X106850000Y-78737500D01*
X103000000Y-85250000D02*
X104500000Y-85250000D01*
%TO.N,14*%
X104249839Y-65958952D02*
X104041048Y-65958952D01*
X103500000Y-66500000D02*
X103500000Y-71500000D01*
X103500000Y-71500000D02*
X102250000Y-72750000D01*
X104041048Y-65958952D02*
X103500000Y-66500000D01*
%TO.N,1*%
X101099000Y-78399000D02*
X105000000Y-82300000D01*
X102301000Y-60463500D02*
X102301000Y-68999057D01*
X101099000Y-70201057D02*
X101099000Y-78399000D01*
X102301000Y-68999057D02*
X101099000Y-70201057D01*
X99337500Y-57500000D02*
X102301000Y-60463500D01*
%TO.N,2*%
X105000000Y-81450000D02*
X103750000Y-80200000D01*
X105000000Y-77625000D02*
X105000000Y-59152500D01*
X105000000Y-59152500D02*
X106115000Y-58037500D01*
X103750000Y-80200000D02*
X103750000Y-78875000D01*
X103750000Y-78875000D02*
X105000000Y-77625000D01*
%TO.N,0*%
X92125000Y-83875000D02*
X91100000Y-82850000D01*
X91100000Y-82850000D02*
X91100000Y-70650000D01*
%TO.N,4*%
X106000000Y-60692500D02*
X108655000Y-58037500D01*
X106000000Y-78750000D02*
X106000000Y-60692500D01*
X105000000Y-79750000D02*
X106000000Y-78750000D01*
%TO.N,VCC_5V*%
X96500000Y-49650000D02*
X103000000Y-56150000D01*
X103000000Y-69150000D02*
X101700000Y-70450000D01*
X103000000Y-56150000D02*
X103000000Y-69150000D01*
%TO.N,D+*%
X97150000Y-64100000D02*
X97150000Y-72750000D01*
X100475000Y-62500000D02*
X98750000Y-62500000D01*
X101250000Y-63275000D02*
X100475000Y-62500000D01*
X98750000Y-62500000D02*
X97150000Y-64100000D01*
%TO.N,D-*%
X99350000Y-63275000D02*
X98000000Y-64625000D01*
X98000000Y-64625000D02*
X98000000Y-72750000D01*
%TO.N,3*%
X104750000Y-80349943D02*
X104399000Y-79998943D01*
X105000000Y-80600000D02*
X104750000Y-80350000D01*
X104399000Y-79351000D02*
X105500000Y-78250000D01*
X104750000Y-80350000D02*
X104750000Y-80349943D01*
X104399000Y-79998943D02*
X104399000Y-79351000D01*
X105500000Y-78250000D02*
X105500000Y-59922500D01*
X105500000Y-59922500D02*
X107385000Y-58037500D01*
%TO.N,Net-(J1-CC2)*%
X97000000Y-59000000D02*
X99337500Y-59000000D01*
X95500000Y-57500000D02*
X97000000Y-59000000D01*
%TD*%
%TA.AperFunction,Conductor*%
%TO.N,GND*%
G36*
X104597421Y-66477632D02*
G01*
X104640615Y-66532551D01*
X104649500Y-66578644D01*
X104649500Y-77428456D01*
X104629815Y-77495495D01*
X104613181Y-77516137D01*
X103469531Y-78659786D01*
X103469527Y-78659791D01*
X103423387Y-78739709D01*
X103423386Y-78739712D01*
X103399500Y-78828856D01*
X103399500Y-79904456D01*
X103379815Y-79971495D01*
X103327011Y-80017250D01*
X103257853Y-80027194D01*
X103194297Y-79998169D01*
X103187819Y-79992137D01*
X101485819Y-78290137D01*
X101452334Y-78228814D01*
X101449500Y-78202456D01*
X101449500Y-71114397D01*
X101469185Y-71047358D01*
X101521989Y-71001603D01*
X101591147Y-70991659D01*
X101605575Y-70994618D01*
X101627525Y-71000500D01*
X101627528Y-71000500D01*
X101772472Y-71000500D01*
X101772475Y-71000500D01*
X101912485Y-70962984D01*
X102038015Y-70890509D01*
X102140509Y-70788015D01*
X102212984Y-70662485D01*
X102250500Y-70522475D01*
X102250500Y-70446544D01*
X102270185Y-70379505D01*
X102286819Y-70358863D01*
X102937819Y-69707863D01*
X102999142Y-69674378D01*
X103068834Y-69679362D01*
X103124767Y-69721234D01*
X103149184Y-69786698D01*
X103149500Y-69795544D01*
X103149500Y-71303456D01*
X103129815Y-71370495D01*
X103113181Y-71391137D01*
X102341137Y-72163181D01*
X102279814Y-72196666D01*
X102253456Y-72199500D01*
X102177525Y-72199500D01*
X102048993Y-72233940D01*
X102037511Y-72237017D01*
X101911988Y-72309488D01*
X101911982Y-72309493D01*
X101809493Y-72411982D01*
X101809488Y-72411988D01*
X101737017Y-72537511D01*
X101737016Y-72537515D01*
X101699500Y-72677525D01*
X101699500Y-72822475D01*
X101737016Y-72962485D01*
X101737017Y-72962488D01*
X101809488Y-73088011D01*
X101809490Y-73088013D01*
X101809491Y-73088015D01*
X101911985Y-73190509D01*
X101911986Y-73190510D01*
X101911988Y-73190511D01*
X102037511Y-73262982D01*
X102037512Y-73262982D01*
X102037515Y-73262984D01*
X102177525Y-73300500D01*
X102177528Y-73300500D01*
X102322472Y-73300500D01*
X102322475Y-73300500D01*
X102462485Y-73262984D01*
X102588015Y-73190509D01*
X102690509Y-73088015D01*
X102762984Y-72962485D01*
X102800500Y-72822475D01*
X102800500Y-72746544D01*
X102820185Y-72679505D01*
X102836819Y-72658863D01*
X103299016Y-72196666D01*
X103780470Y-71715212D01*
X103826614Y-71635288D01*
X103850500Y-71546144D01*
X103850500Y-66696542D01*
X103859143Y-66667105D01*
X103865667Y-66637116D01*
X103869422Y-66632098D01*
X103870185Y-66629503D01*
X103886810Y-66608870D01*
X103976001Y-66519679D01*
X104037319Y-66486197D01*
X104095766Y-66487587D01*
X104177364Y-66509452D01*
X104177368Y-66509452D01*
X104322311Y-66509452D01*
X104322314Y-66509452D01*
X104462324Y-66471936D01*
X104462733Y-66471699D01*
X104463494Y-66471261D01*
X104464604Y-66470991D01*
X104469838Y-66468824D01*
X104470175Y-66469639D01*
X104531393Y-66454784D01*
X104597421Y-66477632D01*
G37*
%TD.AperFunction*%
%TA.AperFunction,Conductor*%
G36*
X109442539Y-44270185D02*
G01*
X109488294Y-44322989D01*
X109499500Y-44374500D01*
X109499500Y-48699986D01*
X109479815Y-48767025D01*
X109427011Y-48812780D01*
X109357853Y-48822724D01*
X109302615Y-48800305D01*
X109234748Y-48750997D01*
X109038135Y-48650817D01*
X108828277Y-48582631D01*
X108610336Y-48548112D01*
X108610331Y-48548112D01*
X108389669Y-48548112D01*
X108389664Y-48548112D01*
X108171722Y-48582631D01*
X107961864Y-48650817D01*
X107765247Y-48751000D01*
X107586737Y-48880694D01*
X107586732Y-48880698D01*
X107430698Y-49036732D01*
X107430694Y-49036737D01*
X107301000Y-49215247D01*
X107200817Y-49411864D01*
X107132631Y-49621722D01*
X107098112Y-49839663D01*
X107098112Y-50060336D01*
X107132631Y-50278277D01*
X107200817Y-50488135D01*
X107301000Y-50684752D01*
X107430694Y-50863262D01*
X107430698Y-50863267D01*
X107586732Y-51019301D01*
X107586737Y-51019305D01*
X107742443Y-51132431D01*
X107765251Y-51149002D01*
X107961862Y-51249181D01*
X107961864Y-51249182D01*
X108066793Y-51283275D01*
X108171724Y-51317369D01*
X108272664Y-51333356D01*
X108389664Y-51351888D01*
X108389669Y-51351888D01*
X108610336Y-51351888D01*
X108715991Y-51335153D01*
X108828276Y-51317369D01*
X109038138Y-51249181D01*
X109234749Y-51149002D01*
X109302614Y-51099694D01*
X109368421Y-51076215D01*
X109436475Y-51092040D01*
X109485170Y-51142146D01*
X109499500Y-51200013D01*
X109499500Y-87125500D01*
X109479815Y-87192539D01*
X109427011Y-87238294D01*
X109375500Y-87249500D01*
X90624500Y-87249500D01*
X90557461Y-87229815D01*
X90511706Y-87177011D01*
X90500500Y-87125500D01*
X90500500Y-71128386D01*
X90506738Y-71107140D01*
X90508318Y-71085052D01*
X90516390Y-71074268D01*
X90520185Y-71061347D01*
X90536918Y-71046847D01*
X90550190Y-71029119D01*
X90562810Y-71024411D01*
X90572989Y-71015592D01*
X90594906Y-71012440D01*
X90615654Y-71004702D01*
X90628814Y-71007564D01*
X90642147Y-71005648D01*
X90662290Y-71014847D01*
X90683927Y-71019554D01*
X90701652Y-71032822D01*
X90705703Y-71034673D01*
X90712181Y-71040705D01*
X90713181Y-71041705D01*
X90746666Y-71103028D01*
X90749500Y-71129386D01*
X90749500Y-82896144D01*
X90773386Y-82985288D01*
X90773387Y-82985289D01*
X90819527Y-83065208D01*
X90819531Y-83065213D01*
X91538181Y-83783863D01*
X91571666Y-83845186D01*
X91574500Y-83871544D01*
X91574500Y-83947475D01*
X91612016Y-84087485D01*
X91612017Y-84087488D01*
X91684488Y-84213011D01*
X91684490Y-84213013D01*
X91684491Y-84213015D01*
X91786985Y-84315509D01*
X91786986Y-84315510D01*
X91786988Y-84315511D01*
X91912511Y-84387982D01*
X91912512Y-84387982D01*
X91912515Y-84387984D01*
X92052525Y-84425500D01*
X92052528Y-84425500D01*
X92197472Y-84425500D01*
X92197475Y-84425500D01*
X92337485Y-84387984D01*
X92463015Y-84315509D01*
X92565509Y-84213015D01*
X92637984Y-84087485D01*
X92675500Y-83947475D01*
X92675500Y-83802525D01*
X92637984Y-83662515D01*
X92565509Y-83536985D01*
X92463015Y-83434491D01*
X92463013Y-83434490D01*
X92463011Y-83434488D01*
X92337488Y-83362017D01*
X92337489Y-83362017D01*
X92326006Y-83358940D01*
X92197475Y-83324500D01*
X92197472Y-83324500D01*
X92121544Y-83324500D01*
X92054505Y-83304815D01*
X92033863Y-83288181D01*
X91486819Y-82741137D01*
X91453334Y-82679814D01*
X91450500Y-82653456D01*
X91450500Y-71129386D01*
X91470185Y-71062347D01*
X91486819Y-71041705D01*
X91512932Y-71015592D01*
X91540509Y-70988015D01*
X91612984Y-70862485D01*
X91650500Y-70722475D01*
X91650500Y-70577525D01*
X91612984Y-70437515D01*
X91540509Y-70311985D01*
X91438015Y-70209491D01*
X91438013Y-70209490D01*
X91438011Y-70209488D01*
X91312488Y-70137017D01*
X91312489Y-70137017D01*
X91301006Y-70133940D01*
X91172475Y-70099500D01*
X91027525Y-70099500D01*
X90898993Y-70133940D01*
X90887511Y-70137017D01*
X90761988Y-70209488D01*
X90761982Y-70209493D01*
X90712181Y-70259295D01*
X90650858Y-70292780D01*
X90581166Y-70287796D01*
X90525233Y-70245924D01*
X90500816Y-70180460D01*
X90500500Y-70171614D01*
X90500500Y-60890000D01*
X91130138Y-60890000D01*
X91933012Y-60890000D01*
X91915795Y-60899940D01*
X91859940Y-60955795D01*
X91820444Y-61024204D01*
X91800000Y-61100504D01*
X91800000Y-61179496D01*
X91820444Y-61255796D01*
X91859940Y-61324205D01*
X91915795Y-61380060D01*
X91933012Y-61390000D01*
X91130138Y-61390000D01*
X91138430Y-61431690D01*
X91138430Y-61431692D01*
X91213807Y-61613671D01*
X91213814Y-61613684D01*
X91323248Y-61777462D01*
X91323251Y-61777466D01*
X91462533Y-61916748D01*
X91462537Y-61916751D01*
X91626315Y-62026185D01*
X91626328Y-62026192D01*
X91808306Y-62101569D01*
X91808318Y-62101572D01*
X92001504Y-62139999D01*
X92001508Y-62140000D01*
X92250000Y-62140000D01*
X92250000Y-61440000D01*
X92750000Y-61440000D01*
X92750000Y-62140000D01*
X92998492Y-62140000D01*
X92998495Y-62139999D01*
X93191681Y-62101572D01*
X93191693Y-62101569D01*
X93373671Y-62026192D01*
X93373684Y-62026185D01*
X93537462Y-61916751D01*
X93537466Y-61916748D01*
X93676748Y-61777466D01*
X93676751Y-61777462D01*
X93786185Y-61613684D01*
X93786192Y-61613671D01*
X93861569Y-61431692D01*
X93861569Y-61431690D01*
X93869862Y-61390000D01*
X93066988Y-61390000D01*
X93084205Y-61380060D01*
X93140060Y-61324205D01*
X93179556Y-61255796D01*
X93200000Y-61179496D01*
X93200000Y-61100504D01*
X93179556Y-61024204D01*
X93140060Y-60955795D01*
X93084205Y-60899940D01*
X93066988Y-60890000D01*
X93869862Y-60890000D01*
X93861569Y-60848309D01*
X93861569Y-60848307D01*
X93786192Y-60666328D01*
X93786185Y-60666315D01*
X93676751Y-60502537D01*
X93676748Y-60502533D01*
X93537466Y-60363251D01*
X93537462Y-60363248D01*
X93373684Y-60253814D01*
X93373671Y-60253807D01*
X93191693Y-60178430D01*
X93191681Y-60178427D01*
X92998495Y-60140000D01*
X92750000Y-60140000D01*
X92750000Y-60840000D01*
X92250000Y-60840000D01*
X92250000Y-60140000D01*
X92001504Y-60140000D01*
X91808318Y-60178427D01*
X91808306Y-60178430D01*
X91626328Y-60253807D01*
X91626315Y-60253814D01*
X91462537Y-60363248D01*
X91462533Y-60363251D01*
X91323251Y-60502533D01*
X91323248Y-60502537D01*
X91213814Y-60666315D01*
X91213807Y-60666328D01*
X91138430Y-60848307D01*
X91138430Y-60848309D01*
X91130138Y-60890000D01*
X90500500Y-60890000D01*
X90500500Y-57427525D01*
X94949500Y-57427525D01*
X94949500Y-57572475D01*
X94987016Y-57712485D01*
X94987017Y-57712488D01*
X95059488Y-57838011D01*
X95059490Y-57838013D01*
X95059491Y-57838015D01*
X95161985Y-57940509D01*
X95161986Y-57940510D01*
X95161988Y-57940511D01*
X95287511Y-58012982D01*
X95287512Y-58012982D01*
X95287515Y-58012984D01*
X95427525Y-58050500D01*
X95503456Y-58050500D01*
X95570495Y-58070185D01*
X95591137Y-58086819D01*
X96134133Y-58629815D01*
X96451795Y-58947476D01*
X96485280Y-59008799D01*
X96480296Y-59078490D01*
X96438424Y-59134424D01*
X96372960Y-59158841D01*
X96332022Y-59154932D01*
X96255767Y-59134500D01*
X96255766Y-59134500D01*
X96104234Y-59134500D01*
X95957863Y-59173719D01*
X95826635Y-59249485D01*
X95826632Y-59249487D01*
X95719487Y-59356632D01*
X95719485Y-59356635D01*
X95643719Y-59487863D01*
X95604500Y-59634234D01*
X95604500Y-59785765D01*
X95643719Y-59932136D01*
X95683153Y-60000437D01*
X95719485Y-60063365D01*
X95719486Y-60063366D01*
X95723549Y-60070403D01*
X95721346Y-60071674D01*
X95741959Y-60124983D01*
X95727923Y-60193428D01*
X95679112Y-60243420D01*
X95665845Y-60249866D01*
X95656324Y-60253809D01*
X95656315Y-60253814D01*
X95492537Y-60363248D01*
X95492533Y-60363251D01*
X95353251Y-60502533D01*
X95353248Y-60502537D01*
X95243814Y-60666315D01*
X95243807Y-60666328D01*
X95168430Y-60848307D01*
X95168430Y-60848309D01*
X95160138Y-60890000D01*
X95963012Y-60890000D01*
X95945795Y-60899940D01*
X95889940Y-60955795D01*
X95850444Y-61024204D01*
X95830000Y-61100504D01*
X95830000Y-61179496D01*
X95850444Y-61255796D01*
X95889940Y-61324205D01*
X95945795Y-61380060D01*
X95963012Y-61390000D01*
X95160138Y-61390000D01*
X95168430Y-61431690D01*
X95168430Y-61431692D01*
X95243807Y-61613671D01*
X95243814Y-61613684D01*
X95353248Y-61777462D01*
X95353251Y-61777466D01*
X95492533Y-61916748D01*
X95492537Y-61916751D01*
X95656315Y-62026185D01*
X95656328Y-62026192D01*
X95838306Y-62101569D01*
X95838318Y-62101572D01*
X96031504Y-62139999D01*
X96031508Y-62140000D01*
X96430000Y-62140000D01*
X96430000Y-61440000D01*
X96930000Y-61440000D01*
X96930000Y-62140000D01*
X97328492Y-62140000D01*
X97328495Y-62139999D01*
X97521681Y-62101572D01*
X97521693Y-62101569D01*
X97703671Y-62026192D01*
X97703684Y-62026185D01*
X97867462Y-61916751D01*
X97867466Y-61916748D01*
X98006748Y-61777466D01*
X98006751Y-61777462D01*
X98116185Y-61613684D01*
X98116192Y-61613671D01*
X98191569Y-61431692D01*
X98191569Y-61431690D01*
X98199862Y-61390000D01*
X97396988Y-61390000D01*
X97414205Y-61380060D01*
X97470060Y-61324205D01*
X97509556Y-61255796D01*
X97530000Y-61179496D01*
X97530000Y-61100504D01*
X97509556Y-61024204D01*
X97470060Y-60955795D01*
X97414205Y-60899940D01*
X97396988Y-60890000D01*
X98199862Y-60890000D01*
X98191569Y-60848309D01*
X98191569Y-60848307D01*
X98116192Y-60666328D01*
X98116185Y-60666315D01*
X98006751Y-60502537D01*
X98006748Y-60502533D01*
X97867466Y-60363251D01*
X97867462Y-60363248D01*
X97703684Y-60253814D01*
X97703671Y-60253807D01*
X97521693Y-60178430D01*
X97521681Y-60178427D01*
X97328495Y-60140000D01*
X96930000Y-60140000D01*
X96930000Y-60840000D01*
X96430000Y-60840000D01*
X96430000Y-60301784D01*
X96449685Y-60234745D01*
X96492000Y-60194397D01*
X96533365Y-60170515D01*
X96640515Y-60063365D01*
X96641372Y-60061879D01*
X96661721Y-60026637D01*
X96716279Y-59932138D01*
X96716281Y-59932135D01*
X96755500Y-59785766D01*
X96755500Y-59634234D01*
X96716281Y-59487865D01*
X96716280Y-59487863D01*
X96714177Y-59480014D01*
X96717250Y-59479190D01*
X96711368Y-59424615D01*
X96742627Y-59362127D01*
X96802706Y-59326459D01*
X96865495Y-59326823D01*
X96953856Y-59350500D01*
X98858114Y-59350500D01*
X98925153Y-59370185D01*
X98945795Y-59386819D01*
X98999485Y-59440509D01*
X98999486Y-59440510D01*
X98999488Y-59440511D01*
X99125011Y-59512982D01*
X99125012Y-59512982D01*
X99125015Y-59512984D01*
X99265025Y-59550500D01*
X99265028Y-59550500D01*
X99409972Y-59550500D01*
X99409975Y-59550500D01*
X99549985Y-59512984D01*
X99675515Y-59440509D01*
X99778009Y-59338015D01*
X99850484Y-59212485D01*
X99888000Y-59072475D01*
X99888000Y-58927525D01*
X99868192Y-58853601D01*
X99869855Y-58783755D01*
X99909017Y-58725893D01*
X99973245Y-58698388D01*
X100042147Y-58709974D01*
X100075648Y-58733830D01*
X101914181Y-60572363D01*
X101947666Y-60633686D01*
X101950500Y-60660044D01*
X101950500Y-62924528D01*
X101930815Y-62991567D01*
X101878011Y-63037322D01*
X101808853Y-63047266D01*
X101745297Y-63018241D01*
X101719113Y-62986529D01*
X101708761Y-62968599D01*
X101690509Y-62936985D01*
X101588015Y-62834491D01*
X101588013Y-62834490D01*
X101588011Y-62834488D01*
X101462488Y-62762017D01*
X101462489Y-62762017D01*
X101451006Y-62758940D01*
X101322475Y-62724500D01*
X101322472Y-62724500D01*
X101246544Y-62724500D01*
X101179505Y-62704815D01*
X101158863Y-62688181D01*
X100690213Y-62219531D01*
X100690208Y-62219527D01*
X100610290Y-62173387D01*
X100610289Y-62173386D01*
X100610288Y-62173386D01*
X100521144Y-62149500D01*
X98703856Y-62149500D01*
X98614712Y-62173386D01*
X98614709Y-62173387D01*
X98534791Y-62219527D01*
X98534786Y-62219531D01*
X96869531Y-63884786D01*
X96869527Y-63884791D01*
X96823387Y-63964709D01*
X96823386Y-63964712D01*
X96799500Y-64053856D01*
X96799500Y-72270614D01*
X96779815Y-72337653D01*
X96763181Y-72358295D01*
X96709493Y-72411982D01*
X96709488Y-72411988D01*
X96637017Y-72537511D01*
X96637016Y-72537515D01*
X96599500Y-72677525D01*
X96599500Y-72822475D01*
X96637016Y-72962485D01*
X96637017Y-72962488D01*
X96709488Y-73088011D01*
X96709490Y-73088013D01*
X96709491Y-73088015D01*
X96811985Y-73190509D01*
X96811986Y-73190510D01*
X96811988Y-73190511D01*
X96937511Y-73262982D01*
X96937512Y-73262982D01*
X96937515Y-73262984D01*
X97077525Y-73300500D01*
X97077528Y-73300500D01*
X97222472Y-73300500D01*
X97222475Y-73300500D01*
X97362485Y-73262984D01*
X97488015Y-73190509D01*
X97488019Y-73190504D01*
X97494461Y-73185562D01*
X97495403Y-73186790D01*
X97548642Y-73157720D01*
X97618334Y-73162704D01*
X97654997Y-73186267D01*
X97655539Y-73185562D01*
X97661988Y-73190511D01*
X97787511Y-73262982D01*
X97787512Y-73262982D01*
X97787515Y-73262984D01*
X97927525Y-73300500D01*
X97927528Y-73300500D01*
X98072472Y-73300500D01*
X98072475Y-73300500D01*
X98212485Y-73262984D01*
X98338015Y-73190509D01*
X98440509Y-73088015D01*
X98512984Y-72962485D01*
X98550500Y-72822475D01*
X98550500Y-72677525D01*
X98512984Y-72537515D01*
X98440509Y-72411985D01*
X98386819Y-72358295D01*
X98353334Y-72296972D01*
X98350500Y-72270614D01*
X98350500Y-64821543D01*
X98370185Y-64754504D01*
X98386819Y-64733862D01*
X99258862Y-63861819D01*
X99320185Y-63828334D01*
X99346543Y-63825500D01*
X99422472Y-63825500D01*
X99422475Y-63825500D01*
X99562485Y-63787984D01*
X99688015Y-63715509D01*
X99790509Y-63613015D01*
X99862984Y-63487485D01*
X99900500Y-63347475D01*
X99900500Y-63202525D01*
X99862984Y-63062515D01*
X99862982Y-63062511D01*
X99847965Y-63036500D01*
X99831492Y-62968599D01*
X99854345Y-62902573D01*
X99909266Y-62859382D01*
X99955352Y-62850500D01*
X100278456Y-62850500D01*
X100345495Y-62870185D01*
X100366137Y-62886819D01*
X100663181Y-63183863D01*
X100696666Y-63245186D01*
X100699500Y-63271544D01*
X100699500Y-63347475D01*
X100737016Y-63487485D01*
X100737017Y-63487488D01*
X100809488Y-63613011D01*
X100809490Y-63613013D01*
X100809491Y-63613015D01*
X100911985Y-63715509D01*
X100911986Y-63715510D01*
X100911988Y-63715511D01*
X101037511Y-63787982D01*
X101037512Y-63787982D01*
X101037515Y-63787984D01*
X101177525Y-63825500D01*
X101177528Y-63825500D01*
X101322472Y-63825500D01*
X101322475Y-63825500D01*
X101462485Y-63787984D01*
X101588015Y-63715509D01*
X101690509Y-63613015D01*
X101719113Y-63563470D01*
X101769680Y-63515256D01*
X101838287Y-63502032D01*
X101903151Y-63528000D01*
X101943680Y-63584914D01*
X101950500Y-63625471D01*
X101950500Y-68802513D01*
X101930815Y-68869552D01*
X101914181Y-68890194D01*
X100818531Y-69985843D01*
X100818529Y-69985846D01*
X100781780Y-70049499D01*
X100781778Y-70049502D01*
X100772386Y-70065767D01*
X100748500Y-70154913D01*
X100748500Y-78445143D01*
X100769171Y-78522288D01*
X100772386Y-78534289D01*
X100818527Y-78614208D01*
X100818531Y-78614213D01*
X104413181Y-82208863D01*
X104446666Y-82270186D01*
X104449500Y-82296544D01*
X104449500Y-82372475D01*
X104487016Y-82512485D01*
X104487017Y-82512488D01*
X104559488Y-82638011D01*
X104559490Y-82638013D01*
X104559491Y-82638015D01*
X104661985Y-82740509D01*
X104661986Y-82740510D01*
X104661988Y-82740511D01*
X104787511Y-82812982D01*
X104787512Y-82812982D01*
X104787515Y-82812984D01*
X104927525Y-82850500D01*
X104927528Y-82850500D01*
X105072472Y-82850500D01*
X105072475Y-82850500D01*
X105212485Y-82812984D01*
X105338015Y-82740509D01*
X105440509Y-82638015D01*
X105512984Y-82512485D01*
X105550500Y-82372475D01*
X105550500Y-82227525D01*
X105512984Y-82087515D01*
X105440509Y-81961985D01*
X105440507Y-81961983D01*
X105435562Y-81955539D01*
X105436790Y-81954596D01*
X105407720Y-81901358D01*
X105412704Y-81831666D01*
X105436267Y-81795002D01*
X105435562Y-81794461D01*
X105440504Y-81788019D01*
X105440509Y-81788015D01*
X105512984Y-81662485D01*
X105550500Y-81522475D01*
X105550500Y-81377525D01*
X105512984Y-81237515D01*
X105440509Y-81111985D01*
X105440507Y-81111983D01*
X105435562Y-81105539D01*
X105436790Y-81104596D01*
X105407720Y-81051358D01*
X105412704Y-80981666D01*
X105436267Y-80945002D01*
X105435562Y-80944461D01*
X105440504Y-80938019D01*
X105440509Y-80938015D01*
X105512984Y-80812485D01*
X105550500Y-80672475D01*
X105550500Y-80527525D01*
X105512984Y-80387515D01*
X105440509Y-80261985D01*
X105440507Y-80261983D01*
X105435562Y-80255539D01*
X105436790Y-80254596D01*
X105407720Y-80201358D01*
X105412704Y-80131666D01*
X105436267Y-80095002D01*
X105435562Y-80094461D01*
X105440504Y-80088019D01*
X105440509Y-80088015D01*
X105512984Y-79962485D01*
X105550500Y-79822475D01*
X105550500Y-79746544D01*
X105570185Y-79679505D01*
X105586819Y-79658863D01*
X106207626Y-79038055D01*
X106268947Y-79004572D01*
X106338638Y-79009556D01*
X106388401Y-79043829D01*
X106396533Y-79053072D01*
X106409491Y-79075515D01*
X106465982Y-79132006D01*
X106468596Y-79134977D01*
X106481745Y-79163204D01*
X106496666Y-79190528D01*
X106497323Y-79196641D01*
X106498101Y-79198311D01*
X106497766Y-79200766D01*
X106499500Y-79216886D01*
X106499500Y-82703456D01*
X106479815Y-82770495D01*
X106463181Y-82791137D01*
X104391137Y-84863181D01*
X104329814Y-84896666D01*
X104303456Y-84899500D01*
X103479386Y-84899500D01*
X103412347Y-84879815D01*
X103391705Y-84863181D01*
X103338017Y-84809493D01*
X103338011Y-84809488D01*
X103212488Y-84737017D01*
X103212489Y-84737017D01*
X103201006Y-84733940D01*
X103072475Y-84699500D01*
X102927525Y-84699500D01*
X102798993Y-84733940D01*
X102787511Y-84737017D01*
X102661988Y-84809488D01*
X102661982Y-84809493D01*
X102559493Y-84911982D01*
X102559488Y-84911988D01*
X102487017Y-85037511D01*
X102487016Y-85037515D01*
X102449500Y-85177525D01*
X102449500Y-85322475D01*
X102487016Y-85462485D01*
X102487017Y-85462488D01*
X102559488Y-85588011D01*
X102559490Y-85588013D01*
X102559491Y-85588015D01*
X102661985Y-85690509D01*
X102661986Y-85690510D01*
X102661988Y-85690511D01*
X102787511Y-85762982D01*
X102787512Y-85762982D01*
X102787515Y-85762984D01*
X102927525Y-85800500D01*
X102927528Y-85800500D01*
X103072472Y-85800500D01*
X103072475Y-85800500D01*
X103212485Y-85762984D01*
X103338015Y-85690509D01*
X103391705Y-85636819D01*
X103453028Y-85603334D01*
X103479386Y-85600500D01*
X104546142Y-85600500D01*
X104546144Y-85600500D01*
X104635288Y-85576614D01*
X104645912Y-85570480D01*
X104715212Y-85530470D01*
X107130470Y-83115212D01*
X107176614Y-83035288D01*
X107190011Y-82985288D01*
X107200500Y-82946144D01*
X107200500Y-79216886D01*
X107220185Y-79149847D01*
X107236819Y-79129205D01*
X107290509Y-79075515D01*
X107362984Y-78949985D01*
X107400500Y-78809975D01*
X107400500Y-78665025D01*
X107362984Y-78525015D01*
X107316870Y-78445144D01*
X107290511Y-78399488D01*
X107290506Y-78399482D01*
X107188017Y-78296993D01*
X107188011Y-78296988D01*
X107062488Y-78224517D01*
X107062489Y-78224517D01*
X107051006Y-78221440D01*
X106922475Y-78187000D01*
X106777525Y-78187000D01*
X106648993Y-78221440D01*
X106637511Y-78224517D01*
X106536500Y-78282837D01*
X106468600Y-78299310D01*
X106402573Y-78276458D01*
X106359383Y-78221537D01*
X106350500Y-78175450D01*
X106350500Y-60889044D01*
X106370185Y-60822005D01*
X106386819Y-60801363D01*
X108563863Y-58624319D01*
X108625186Y-58590834D01*
X108651544Y-58588000D01*
X108727472Y-58588000D01*
X108727475Y-58588000D01*
X108867485Y-58550484D01*
X108993015Y-58478009D01*
X109095509Y-58375515D01*
X109167984Y-58249985D01*
X109205500Y-58109975D01*
X109205500Y-57965025D01*
X109167984Y-57825015D01*
X109103016Y-57712488D01*
X109095511Y-57699488D01*
X109095506Y-57699482D01*
X108993017Y-57596993D01*
X108993011Y-57596988D01*
X108867488Y-57524517D01*
X108867489Y-57524517D01*
X108856006Y-57521440D01*
X108727475Y-57487000D01*
X108582525Y-57487000D01*
X108453993Y-57521440D01*
X108442511Y-57524517D01*
X108316988Y-57596988D01*
X108316982Y-57596993D01*
X108214493Y-57699482D01*
X108214488Y-57699488D01*
X108142017Y-57825011D01*
X108142015Y-57825016D01*
X108139774Y-57833381D01*
X108103409Y-57893041D01*
X108040561Y-57923569D01*
X107971186Y-57915274D01*
X107917309Y-57870788D01*
X107900226Y-57833381D01*
X107897984Y-57825016D01*
X107897982Y-57825011D01*
X107825511Y-57699488D01*
X107825506Y-57699482D01*
X107723017Y-57596993D01*
X107723011Y-57596988D01*
X107597488Y-57524517D01*
X107597489Y-57524517D01*
X107586006Y-57521440D01*
X107457475Y-57487000D01*
X107312525Y-57487000D01*
X107183993Y-57521440D01*
X107172511Y-57524517D01*
X107046988Y-57596988D01*
X107046982Y-57596993D01*
X106944493Y-57699482D01*
X106944488Y-57699488D01*
X106872017Y-57825011D01*
X106872015Y-57825016D01*
X106869774Y-57833381D01*
X106833409Y-57893041D01*
X106770561Y-57923569D01*
X106701186Y-57915274D01*
X106647309Y-57870788D01*
X106630226Y-57833381D01*
X106627984Y-57825016D01*
X106627982Y-57825011D01*
X106555511Y-57699488D01*
X106555506Y-57699482D01*
X106453017Y-57596993D01*
X106453011Y-57596988D01*
X106327488Y-57524517D01*
X106327489Y-57524517D01*
X106316006Y-57521440D01*
X106187475Y-57487000D01*
X106042525Y-57487000D01*
X105913993Y-57521440D01*
X105902511Y-57524517D01*
X105776988Y-57596988D01*
X105776982Y-57596993D01*
X105674493Y-57699482D01*
X105674488Y-57699488D01*
X105602017Y-57825011D01*
X105602016Y-57825015D01*
X105564500Y-57965025D01*
X105564500Y-57965027D01*
X105564500Y-58040956D01*
X105544815Y-58107995D01*
X105528181Y-58128637D01*
X104719531Y-58937286D01*
X104719527Y-58937291D01*
X104673387Y-59017209D01*
X104673386Y-59017212D01*
X104649500Y-59106356D01*
X104649500Y-65339259D01*
X104629815Y-65406298D01*
X104577011Y-65452053D01*
X104507853Y-65461997D01*
X104469924Y-65448870D01*
X104469838Y-65449080D01*
X104466319Y-65447622D01*
X104463503Y-65446648D01*
X104462327Y-65445969D01*
X104462328Y-65445969D01*
X104450845Y-65442892D01*
X104322314Y-65408452D01*
X104177364Y-65408452D01*
X104048832Y-65442892D01*
X104037350Y-65445969D01*
X103911827Y-65518440D01*
X103911821Y-65518445D01*
X103809332Y-65620934D01*
X103809328Y-65620940D01*
X103736853Y-65746469D01*
X103733742Y-65753981D01*
X103731902Y-65753218D01*
X103729749Y-65756947D01*
X103726826Y-65770387D01*
X103705676Y-65798642D01*
X103562179Y-65942138D01*
X103500859Y-65975622D01*
X103431167Y-65970638D01*
X103375233Y-65928767D01*
X103350816Y-65863302D01*
X103350500Y-65854456D01*
X103350500Y-56103858D01*
X103350500Y-56103856D01*
X103326614Y-56014712D01*
X103280470Y-55934788D01*
X97086819Y-49741137D01*
X97053334Y-49679814D01*
X97050500Y-49653456D01*
X97050500Y-49577527D01*
X97050500Y-49577525D01*
X97012984Y-49437515D01*
X96998174Y-49411864D01*
X96940511Y-49311988D01*
X96940506Y-49311982D01*
X96838017Y-49209493D01*
X96838011Y-49209488D01*
X96712488Y-49137017D01*
X96712489Y-49137017D01*
X96680617Y-49128477D01*
X96572475Y-49099500D01*
X96427525Y-49099500D01*
X96319383Y-49128477D01*
X96287511Y-49137017D01*
X96161988Y-49209488D01*
X96161982Y-49209493D01*
X96059493Y-49311982D01*
X96059488Y-49311988D01*
X95987017Y-49437511D01*
X95987016Y-49437515D01*
X95949500Y-49577525D01*
X95949500Y-49722475D01*
X95987016Y-49862485D01*
X95987017Y-49862488D01*
X96059488Y-49988011D01*
X96059490Y-49988013D01*
X96059491Y-49988015D01*
X96161985Y-50090509D01*
X96161986Y-50090510D01*
X96161988Y-50090511D01*
X96287511Y-50162982D01*
X96287512Y-50162982D01*
X96287515Y-50162984D01*
X96427525Y-50200500D01*
X96503456Y-50200500D01*
X96570495Y-50220185D01*
X96591137Y-50236819D01*
X97714321Y-51360003D01*
X97747806Y-51421326D01*
X97742822Y-51491018D01*
X97700950Y-51546951D01*
X97635486Y-51571368D01*
X97579188Y-51562245D01*
X97521693Y-51538430D01*
X97521681Y-51538427D01*
X97328495Y-51500000D01*
X96930000Y-51500000D01*
X96930000Y-52200000D01*
X96430000Y-52200000D01*
X96430000Y-51500000D01*
X96031504Y-51500000D01*
X95838318Y-51538427D01*
X95838306Y-51538430D01*
X95656328Y-51613807D01*
X95656315Y-51613814D01*
X95492537Y-51723248D01*
X95492533Y-51723251D01*
X95353251Y-51862533D01*
X95353248Y-51862537D01*
X95243814Y-52026315D01*
X95243807Y-52026328D01*
X95168430Y-52208307D01*
X95168430Y-52208309D01*
X95160138Y-52250000D01*
X95963012Y-52250000D01*
X95945795Y-52259940D01*
X95889940Y-52315795D01*
X95850444Y-52384204D01*
X95830000Y-52460504D01*
X95830000Y-52539496D01*
X95850444Y-52615796D01*
X95889940Y-52684205D01*
X95945795Y-52740060D01*
X95963012Y-52750000D01*
X95160138Y-52750000D01*
X95168430Y-52791690D01*
X95168430Y-52791692D01*
X95243807Y-52973671D01*
X95243814Y-52973684D01*
X95353248Y-53137462D01*
X95353251Y-53137466D01*
X95492533Y-53276748D01*
X95492537Y-53276751D01*
X95656315Y-53386185D01*
X95656328Y-53386192D01*
X95665838Y-53390131D01*
X95720243Y-53433970D01*
X95742310Y-53500264D01*
X95725033Y-53567963D01*
X95721350Y-53573405D01*
X95643719Y-53707863D01*
X95604500Y-53854234D01*
X95604500Y-54005765D01*
X95643719Y-54152136D01*
X95681602Y-54217750D01*
X95719485Y-54283365D01*
X95826635Y-54390515D01*
X95957865Y-54466281D01*
X96104234Y-54505500D01*
X96104236Y-54505500D01*
X96255764Y-54505500D01*
X96255766Y-54505500D01*
X96402135Y-54466281D01*
X96533365Y-54390515D01*
X96640515Y-54283365D01*
X96716281Y-54152135D01*
X96755500Y-54005766D01*
X96755500Y-53854234D01*
X96716281Y-53707865D01*
X96640515Y-53576635D01*
X96533365Y-53469485D01*
X96519654Y-53461569D01*
X96491998Y-53445601D01*
X96443784Y-53395033D01*
X96430000Y-53338215D01*
X96430000Y-52800000D01*
X96930000Y-52800000D01*
X96930000Y-53500000D01*
X97328492Y-53500000D01*
X97328495Y-53499999D01*
X97521681Y-53461572D01*
X97521693Y-53461569D01*
X97703671Y-53386192D01*
X97703684Y-53386185D01*
X97867462Y-53276751D01*
X97867466Y-53276748D01*
X98006748Y-53137466D01*
X98006751Y-53137462D01*
X98116185Y-52973684D01*
X98116192Y-52973671D01*
X98191569Y-52791692D01*
X98191569Y-52791690D01*
X98199862Y-52750000D01*
X97396988Y-52750000D01*
X97414205Y-52740060D01*
X97470060Y-52684205D01*
X97509556Y-52615796D01*
X97530000Y-52539496D01*
X97530000Y-52460504D01*
X97509556Y-52384204D01*
X97470060Y-52315795D01*
X97414205Y-52259940D01*
X97396988Y-52250000D01*
X98199862Y-52250000D01*
X98191570Y-52208310D01*
X98167753Y-52150811D01*
X98160284Y-52081342D01*
X98191559Y-52018862D01*
X98251648Y-51983210D01*
X98321473Y-51985704D01*
X98369995Y-52015677D01*
X102613181Y-56258863D01*
X102646666Y-56320186D01*
X102649500Y-56346544D01*
X102649500Y-60016956D01*
X102629815Y-60083995D01*
X102577011Y-60129750D01*
X102507853Y-60139694D01*
X102444297Y-60110669D01*
X102437819Y-60104637D01*
X99924319Y-57591137D01*
X99890834Y-57529814D01*
X99888000Y-57503456D01*
X99888000Y-57427527D01*
X99888000Y-57427525D01*
X99850484Y-57287515D01*
X99778009Y-57161985D01*
X99675515Y-57059491D01*
X99675513Y-57059490D01*
X99675511Y-57059488D01*
X99549988Y-56987017D01*
X99549989Y-56987017D01*
X99538506Y-56983940D01*
X99409975Y-56949500D01*
X99265025Y-56949500D01*
X99136493Y-56983940D01*
X99125011Y-56987017D01*
X98999488Y-57059488D01*
X98999482Y-57059493D01*
X98896993Y-57161982D01*
X98896988Y-57161988D01*
X98824517Y-57287511D01*
X98824516Y-57287515D01*
X98787000Y-57427525D01*
X98787000Y-57572475D01*
X98824516Y-57712485D01*
X98824517Y-57712488D01*
X98896988Y-57838011D01*
X98896990Y-57838013D01*
X98896991Y-57838015D01*
X98999485Y-57940509D01*
X98999486Y-57940510D01*
X98999488Y-57940511D01*
X99125011Y-58012982D01*
X99125012Y-58012982D01*
X99125015Y-58012984D01*
X99265025Y-58050500D01*
X99340956Y-58050500D01*
X99370396Y-58059144D01*
X99400383Y-58065668D01*
X99405398Y-58069422D01*
X99407995Y-58070185D01*
X99428637Y-58086819D01*
X99603669Y-58261851D01*
X99637154Y-58323174D01*
X99632170Y-58392866D01*
X99590298Y-58448799D01*
X99524834Y-58473216D01*
X99483895Y-58469307D01*
X99475743Y-58467122D01*
X99409975Y-58449500D01*
X99265025Y-58449500D01*
X99158622Y-58478011D01*
X99125011Y-58487017D01*
X98999488Y-58559488D01*
X98999482Y-58559493D01*
X98945795Y-58613181D01*
X98884472Y-58646666D01*
X98858114Y-58649500D01*
X97196543Y-58649500D01*
X97129504Y-58629815D01*
X97108862Y-58613181D01*
X96086819Y-57591137D01*
X96053334Y-57529814D01*
X96050500Y-57503456D01*
X96050500Y-57427527D01*
X96050500Y-57427525D01*
X96012984Y-57287515D01*
X95940509Y-57161985D01*
X95838015Y-57059491D01*
X95838013Y-57059490D01*
X95838011Y-57059488D01*
X95712488Y-56987017D01*
X95712489Y-56987017D01*
X95701006Y-56983940D01*
X95572475Y-56949500D01*
X95427525Y-56949500D01*
X95298993Y-56983940D01*
X95287511Y-56987017D01*
X95161988Y-57059488D01*
X95161982Y-57059493D01*
X95059493Y-57161982D01*
X95059488Y-57161988D01*
X94987017Y-57287511D01*
X94987016Y-57287515D01*
X94949500Y-57427525D01*
X90500500Y-57427525D01*
X90500500Y-51200013D01*
X90520185Y-51132974D01*
X90572989Y-51087219D01*
X90642147Y-51077275D01*
X90697384Y-51099694D01*
X90765251Y-51149002D01*
X90961862Y-51249181D01*
X90961864Y-51249182D01*
X91066793Y-51283275D01*
X91171724Y-51317369D01*
X91272664Y-51333356D01*
X91389664Y-51351888D01*
X91389669Y-51351888D01*
X91610335Y-51351888D01*
X91622125Y-51350019D01*
X91625262Y-51349523D01*
X91694556Y-51358474D01*
X91748010Y-51403467D01*
X91768653Y-51470218D01*
X91749932Y-51537533D01*
X91697789Y-51584040D01*
X91692120Y-51586556D01*
X91626322Y-51613811D01*
X91626315Y-51613814D01*
X91462537Y-51723248D01*
X91462533Y-51723251D01*
X91323251Y-51862533D01*
X91323248Y-51862537D01*
X91213814Y-52026315D01*
X91213807Y-52026328D01*
X91138430Y-52208307D01*
X91138430Y-52208309D01*
X91130138Y-52250000D01*
X91933012Y-52250000D01*
X91915795Y-52259940D01*
X91859940Y-52315795D01*
X91820444Y-52384204D01*
X91800000Y-52460504D01*
X91800000Y-52539496D01*
X91820444Y-52615796D01*
X91859940Y-52684205D01*
X91915795Y-52740060D01*
X91933012Y-52750000D01*
X91130138Y-52750000D01*
X91138430Y-52791690D01*
X91138430Y-52791692D01*
X91213807Y-52973671D01*
X91213814Y-52973684D01*
X91323248Y-53137462D01*
X91323251Y-53137466D01*
X91462533Y-53276748D01*
X91462537Y-53276751D01*
X91626315Y-53386185D01*
X91626328Y-53386192D01*
X91808306Y-53461569D01*
X91808318Y-53461572D01*
X92001504Y-53499999D01*
X92001508Y-53500000D01*
X92250000Y-53500000D01*
X92250000Y-52800000D01*
X92750000Y-52800000D01*
X92750000Y-53500000D01*
X92998492Y-53500000D01*
X92998495Y-53499999D01*
X93191681Y-53461572D01*
X93191693Y-53461569D01*
X93373671Y-53386192D01*
X93373684Y-53386185D01*
X93537462Y-53276751D01*
X93537466Y-53276748D01*
X93676748Y-53137466D01*
X93676751Y-53137462D01*
X93786185Y-52973684D01*
X93786192Y-52973671D01*
X93861569Y-52791692D01*
X93861569Y-52791690D01*
X93869862Y-52750000D01*
X93066988Y-52750000D01*
X93084205Y-52740060D01*
X93140060Y-52684205D01*
X93179556Y-52615796D01*
X93200000Y-52539496D01*
X93200000Y-52460504D01*
X93179556Y-52384204D01*
X93140060Y-52315795D01*
X93084205Y-52259940D01*
X93066988Y-52250000D01*
X93869862Y-52250000D01*
X93861569Y-52208309D01*
X93861569Y-52208307D01*
X93786192Y-52026328D01*
X93786185Y-52026315D01*
X93676751Y-51862537D01*
X93676748Y-51862533D01*
X93537466Y-51723251D01*
X93537462Y-51723248D01*
X93373684Y-51613814D01*
X93373671Y-51613807D01*
X93191693Y-51538430D01*
X93191681Y-51538427D01*
X92998495Y-51500000D01*
X92750000Y-51500000D01*
X92750000Y-52200000D01*
X92250000Y-52200000D01*
X92250000Y-51500000D01*
X92049103Y-51500000D01*
X91982064Y-51480315D01*
X91936309Y-51427511D01*
X91926365Y-51358353D01*
X91955390Y-51294797D01*
X92010786Y-51258069D01*
X92038133Y-51249183D01*
X92038135Y-51249181D01*
X92038138Y-51249181D01*
X92234749Y-51149002D01*
X92413269Y-51019300D01*
X92569300Y-50863269D01*
X92699002Y-50684749D01*
X92799181Y-50488138D01*
X92867369Y-50278276D01*
X92895065Y-50103413D01*
X92901888Y-50060336D01*
X92901888Y-49839663D01*
X92880530Y-49704818D01*
X92867369Y-49621724D01*
X92799181Y-49411862D01*
X92699002Y-49215251D01*
X92635957Y-49128477D01*
X92569305Y-49036737D01*
X92569301Y-49036732D01*
X92413267Y-48880698D01*
X92413262Y-48880694D01*
X92234752Y-48751000D01*
X92234751Y-48750999D01*
X92234749Y-48750998D01*
X92134633Y-48699986D01*
X92038135Y-48650817D01*
X91828277Y-48582631D01*
X91610336Y-48548112D01*
X91610331Y-48548112D01*
X91389669Y-48548112D01*
X91389664Y-48548112D01*
X91171722Y-48582631D01*
X90961864Y-48650817D01*
X90765251Y-48750997D01*
X90697385Y-48800305D01*
X90631578Y-48823784D01*
X90563524Y-48807958D01*
X90514830Y-48757852D01*
X90500500Y-48699986D01*
X90500500Y-45985883D01*
X92850000Y-45985883D01*
X92850000Y-46650000D01*
X93850000Y-46650000D01*
X93850000Y-47150000D01*
X92850000Y-47150000D01*
X92850000Y-47814116D01*
X92885704Y-48039544D01*
X92956230Y-48256604D01*
X93059849Y-48459966D01*
X93194004Y-48644614D01*
X93355385Y-48805995D01*
X93540033Y-48940150D01*
X93743395Y-49043769D01*
X93960455Y-49114295D01*
X94050000Y-49128478D01*
X94050000Y-48075277D01*
X94126306Y-48119333D01*
X94240756Y-48150000D01*
X94359244Y-48150000D01*
X94473694Y-48119333D01*
X94550000Y-48075277D01*
X94550000Y-49128477D01*
X94639544Y-49114295D01*
X94856604Y-49043769D01*
X95059966Y-48940150D01*
X95244614Y-48805995D01*
X95405995Y-48644614D01*
X95540150Y-48459966D01*
X95643769Y-48256604D01*
X95714295Y-48039544D01*
X95750000Y-47814116D01*
X95750000Y-47150000D01*
X94750000Y-47150000D01*
X94750000Y-46821153D01*
X96899500Y-46821153D01*
X96899500Y-46978846D01*
X96930261Y-47133489D01*
X96930264Y-47133501D01*
X96990602Y-47279172D01*
X96990609Y-47279185D01*
X97078210Y-47410288D01*
X97078213Y-47410292D01*
X97189707Y-47521786D01*
X97189711Y-47521789D01*
X97320814Y-47609390D01*
X97320827Y-47609397D01*
X97466498Y-47669735D01*
X97466503Y-47669737D01*
X97621153Y-47700499D01*
X97621156Y-47700500D01*
X97621158Y-47700500D01*
X97778844Y-47700500D01*
X97778845Y-47700499D01*
X97933497Y-47669737D01*
X98079179Y-47609394D01*
X98210289Y-47521789D01*
X98321789Y-47410289D01*
X98409394Y-47279179D01*
X98469737Y-47133497D01*
X98500500Y-46978842D01*
X98500500Y-46821158D01*
X98500500Y-46821155D01*
X98500499Y-46821153D01*
X101499500Y-46821153D01*
X101499500Y-46978846D01*
X101530261Y-47133489D01*
X101530264Y-47133501D01*
X101590602Y-47279172D01*
X101590609Y-47279185D01*
X101678210Y-47410288D01*
X101678213Y-47410292D01*
X101789707Y-47521786D01*
X101789711Y-47521789D01*
X101920814Y-47609390D01*
X101920827Y-47609397D01*
X102066498Y-47669735D01*
X102066503Y-47669737D01*
X102221153Y-47700499D01*
X102221156Y-47700500D01*
X102221158Y-47700500D01*
X102378844Y-47700500D01*
X102378845Y-47700499D01*
X102533497Y-47669737D01*
X102679179Y-47609394D01*
X102810289Y-47521789D01*
X102921789Y-47410289D01*
X103009394Y-47279179D01*
X103069737Y-47133497D01*
X103083739Y-47063102D01*
X103100500Y-46978844D01*
X103100500Y-46821155D01*
X103100499Y-46821153D01*
X103069738Y-46666510D01*
X103069737Y-46666503D01*
X103062901Y-46650000D01*
X103009397Y-46520827D01*
X103009390Y-46520814D01*
X102921789Y-46389711D01*
X102921786Y-46389707D01*
X102810292Y-46278213D01*
X102810288Y-46278210D01*
X102679185Y-46190609D01*
X102679172Y-46190602D01*
X102533501Y-46130264D01*
X102533491Y-46130261D01*
X102394570Y-46102628D01*
X102394569Y-46102627D01*
X102378845Y-46099500D01*
X102378842Y-46099500D01*
X102221158Y-46099500D01*
X102221155Y-46099500D01*
X102066510Y-46130261D01*
X102066498Y-46130264D01*
X101920827Y-46190602D01*
X101920814Y-46190609D01*
X101789711Y-46278210D01*
X101789707Y-46278213D01*
X101678213Y-46389707D01*
X101678210Y-46389711D01*
X101590609Y-46520814D01*
X101590602Y-46520827D01*
X101530264Y-46666498D01*
X101530261Y-46666510D01*
X101499500Y-46821153D01*
X98500499Y-46821153D01*
X98469738Y-46666510D01*
X98469737Y-46666503D01*
X98462901Y-46650000D01*
X98409397Y-46520827D01*
X98409390Y-46520814D01*
X98321789Y-46389711D01*
X98321786Y-46389707D01*
X98210292Y-46278213D01*
X98210288Y-46278210D01*
X98079185Y-46190609D01*
X98079172Y-46190602D01*
X97933501Y-46130264D01*
X97933489Y-46130261D01*
X97778845Y-46099500D01*
X97778842Y-46099500D01*
X97621158Y-46099500D01*
X97621155Y-46099500D01*
X97466510Y-46130261D01*
X97466498Y-46130264D01*
X97320827Y-46190602D01*
X97320814Y-46190609D01*
X97189711Y-46278210D01*
X97189707Y-46278213D01*
X97078213Y-46389707D01*
X97078210Y-46389711D01*
X96990609Y-46520814D01*
X96990602Y-46520827D01*
X96930264Y-46666498D01*
X96930261Y-46666510D01*
X96899500Y-46821153D01*
X94750000Y-46821153D01*
X94750000Y-46650000D01*
X95750000Y-46650000D01*
X95750000Y-45985883D01*
X104250000Y-45985883D01*
X104250000Y-46650000D01*
X105250000Y-46650000D01*
X105250000Y-47150000D01*
X104250000Y-47150000D01*
X104250000Y-47814116D01*
X104285704Y-48039544D01*
X104356230Y-48256604D01*
X104459849Y-48459966D01*
X104594004Y-48644614D01*
X104755385Y-48805995D01*
X104940033Y-48940150D01*
X105143395Y-49043769D01*
X105360455Y-49114295D01*
X105450000Y-49128478D01*
X105450000Y-48075277D01*
X105526306Y-48119333D01*
X105640756Y-48150000D01*
X105759244Y-48150000D01*
X105873694Y-48119333D01*
X105950000Y-48075277D01*
X105950000Y-49128477D01*
X106039544Y-49114295D01*
X106256604Y-49043769D01*
X106459966Y-48940150D01*
X106644614Y-48805995D01*
X106805995Y-48644614D01*
X106940150Y-48459966D01*
X107043769Y-48256604D01*
X107114295Y-48039544D01*
X107150000Y-47814116D01*
X107150000Y-47150000D01*
X106150000Y-47150000D01*
X106150000Y-46650000D01*
X107150000Y-46650000D01*
X107150000Y-45985883D01*
X107114295Y-45760455D01*
X107043769Y-45543395D01*
X106940150Y-45340033D01*
X106805995Y-45155385D01*
X106644614Y-44994004D01*
X106459966Y-44859849D01*
X106256602Y-44756229D01*
X106039541Y-44685703D01*
X105950000Y-44671521D01*
X105950000Y-45724722D01*
X105873694Y-45680667D01*
X105759244Y-45650000D01*
X105640756Y-45650000D01*
X105526306Y-45680667D01*
X105450000Y-45724722D01*
X105450000Y-44671521D01*
X105449999Y-44671521D01*
X105360458Y-44685703D01*
X105143397Y-44756229D01*
X104940033Y-44859849D01*
X104755385Y-44994004D01*
X104594004Y-45155385D01*
X104459849Y-45340033D01*
X104356230Y-45543395D01*
X104285704Y-45760455D01*
X104250000Y-45985883D01*
X95750000Y-45985883D01*
X95714295Y-45760455D01*
X95643769Y-45543395D01*
X95540150Y-45340033D01*
X95405995Y-45155385D01*
X95244614Y-44994004D01*
X95059966Y-44859849D01*
X94856602Y-44756229D01*
X94639541Y-44685703D01*
X94550000Y-44671521D01*
X94550000Y-45724722D01*
X94473694Y-45680667D01*
X94359244Y-45650000D01*
X94240756Y-45650000D01*
X94126306Y-45680667D01*
X94050000Y-45724722D01*
X94050000Y-44671521D01*
X94049999Y-44671521D01*
X93960458Y-44685703D01*
X93743397Y-44756229D01*
X93540033Y-44859849D01*
X93355385Y-44994004D01*
X93194004Y-45155385D01*
X93059849Y-45340033D01*
X92956230Y-45543395D01*
X92885704Y-45760455D01*
X92850000Y-45985883D01*
X90500500Y-45985883D01*
X90500500Y-44374500D01*
X90520185Y-44307461D01*
X90572989Y-44261706D01*
X90624500Y-44250500D01*
X109375500Y-44250500D01*
X109442539Y-44270185D01*
G37*
%TD.AperFunction*%
%TD*%
M02*
