%TF.GenerationSoftware,KiCad,Pcbnew,9.0.5*%
%TF.CreationDate,2025-10-06T23:19:49+02:00*%
%TF.ProjectId,usb-dmx,7573622d-646d-4782-9e6b-696361645f70,1.2*%
%TF.SameCoordinates,Original*%
%TF.FileFunction,Legend,Top*%
%TF.FilePolarity,Positive*%
%FSLAX46Y46*%
G04 Gerber Fmt 4.6, Leading zero omitted, Abs format (unit mm)*
G04 Created by KiCad (PCBNEW 9.0.5) date 2025-10-06 23:19:49*
%MOMM*%
%LPD*%
G01*
G04 APERTURE LIST*
%ADD10C,0.150000*%
%ADD11C,0.120000*%
G04 APERTURE END LIST*
D10*
X91416666Y-46454819D02*
X91416666Y-47169104D01*
X91416666Y-47169104D02*
X91369047Y-47311961D01*
X91369047Y-47311961D02*
X91273809Y-47407200D01*
X91273809Y-47407200D02*
X91130952Y-47454819D01*
X91130952Y-47454819D02*
X91035714Y-47454819D01*
X91845238Y-46550057D02*
X91892857Y-46502438D01*
X91892857Y-46502438D02*
X91988095Y-46454819D01*
X91988095Y-46454819D02*
X92226190Y-46454819D01*
X92226190Y-46454819D02*
X92321428Y-46502438D01*
X92321428Y-46502438D02*
X92369047Y-46550057D01*
X92369047Y-46550057D02*
X92416666Y-46645295D01*
X92416666Y-46645295D02*
X92416666Y-46740533D01*
X92416666Y-46740533D02*
X92369047Y-46883390D01*
X92369047Y-46883390D02*
X91797619Y-47454819D01*
X91797619Y-47454819D02*
X92416666Y-47454819D01*
X108704819Y-79916666D02*
X108228628Y-80249999D01*
X108704819Y-80488094D02*
X107704819Y-80488094D01*
X107704819Y-80488094D02*
X107704819Y-80107142D01*
X107704819Y-80107142D02*
X107752438Y-80011904D01*
X107752438Y-80011904D02*
X107800057Y-79964285D01*
X107800057Y-79964285D02*
X107895295Y-79916666D01*
X107895295Y-79916666D02*
X108038152Y-79916666D01*
X108038152Y-79916666D02*
X108133390Y-79964285D01*
X108133390Y-79964285D02*
X108181009Y-80011904D01*
X108181009Y-80011904D02*
X108228628Y-80107142D01*
X108228628Y-80107142D02*
X108228628Y-80488094D01*
X107704819Y-79583332D02*
X107704819Y-78964285D01*
X107704819Y-78964285D02*
X108085771Y-79297618D01*
X108085771Y-79297618D02*
X108085771Y-79154761D01*
X108085771Y-79154761D02*
X108133390Y-79059523D01*
X108133390Y-79059523D02*
X108181009Y-79011904D01*
X108181009Y-79011904D02*
X108276247Y-78964285D01*
X108276247Y-78964285D02*
X108514342Y-78964285D01*
X108514342Y-78964285D02*
X108609580Y-79011904D01*
X108609580Y-79011904D02*
X108657200Y-79059523D01*
X108657200Y-79059523D02*
X108704819Y-79154761D01*
X108704819Y-79154761D02*
X108704819Y-79440475D01*
X108704819Y-79440475D02*
X108657200Y-79535713D01*
X108657200Y-79535713D02*
X108609580Y-79583332D01*
X98488095Y-70704819D02*
X98488095Y-71514342D01*
X98488095Y-71514342D02*
X98535714Y-71609580D01*
X98535714Y-71609580D02*
X98583333Y-71657200D01*
X98583333Y-71657200D02*
X98678571Y-71704819D01*
X98678571Y-71704819D02*
X98869047Y-71704819D01*
X98869047Y-71704819D02*
X98964285Y-71657200D01*
X98964285Y-71657200D02*
X99011904Y-71609580D01*
X99011904Y-71609580D02*
X99059523Y-71514342D01*
X99059523Y-71514342D02*
X99059523Y-70704819D01*
X99440476Y-70704819D02*
X100059523Y-70704819D01*
X100059523Y-70704819D02*
X99726190Y-71085771D01*
X99726190Y-71085771D02*
X99869047Y-71085771D01*
X99869047Y-71085771D02*
X99964285Y-71133390D01*
X99964285Y-71133390D02*
X100011904Y-71181009D01*
X100011904Y-71181009D02*
X100059523Y-71276247D01*
X100059523Y-71276247D02*
X100059523Y-71514342D01*
X100059523Y-71514342D02*
X100011904Y-71609580D01*
X100011904Y-71609580D02*
X99964285Y-71657200D01*
X99964285Y-71657200D02*
X99869047Y-71704819D01*
X99869047Y-71704819D02*
X99583333Y-71704819D01*
X99583333Y-71704819D02*
X99488095Y-71657200D01*
X99488095Y-71657200D02*
X99440476Y-71609580D01*
X102583333Y-57954819D02*
X102250000Y-57478628D01*
X102011905Y-57954819D02*
X102011905Y-56954819D01*
X102011905Y-56954819D02*
X102392857Y-56954819D01*
X102392857Y-56954819D02*
X102488095Y-57002438D01*
X102488095Y-57002438D02*
X102535714Y-57050057D01*
X102535714Y-57050057D02*
X102583333Y-57145295D01*
X102583333Y-57145295D02*
X102583333Y-57288152D01*
X102583333Y-57288152D02*
X102535714Y-57383390D01*
X102535714Y-57383390D02*
X102488095Y-57431009D01*
X102488095Y-57431009D02*
X102392857Y-57478628D01*
X102392857Y-57478628D02*
X102011905Y-57478628D01*
X103488095Y-56954819D02*
X103011905Y-56954819D01*
X103011905Y-56954819D02*
X102964286Y-57431009D01*
X102964286Y-57431009D02*
X103011905Y-57383390D01*
X103011905Y-57383390D02*
X103107143Y-57335771D01*
X103107143Y-57335771D02*
X103345238Y-57335771D01*
X103345238Y-57335771D02*
X103440476Y-57383390D01*
X103440476Y-57383390D02*
X103488095Y-57431009D01*
X103488095Y-57431009D02*
X103535714Y-57526247D01*
X103535714Y-57526247D02*
X103535714Y-57764342D01*
X103535714Y-57764342D02*
X103488095Y-57859580D01*
X103488095Y-57859580D02*
X103440476Y-57907200D01*
X103440476Y-57907200D02*
X103345238Y-57954819D01*
X103345238Y-57954819D02*
X103107143Y-57954819D01*
X103107143Y-57954819D02*
X103011905Y-57907200D01*
X103011905Y-57907200D02*
X102964286Y-57859580D01*
X108609580Y-76316666D02*
X108657200Y-76364285D01*
X108657200Y-76364285D02*
X108704819Y-76507142D01*
X108704819Y-76507142D02*
X108704819Y-76602380D01*
X108704819Y-76602380D02*
X108657200Y-76745237D01*
X108657200Y-76745237D02*
X108561961Y-76840475D01*
X108561961Y-76840475D02*
X108466723Y-76888094D01*
X108466723Y-76888094D02*
X108276247Y-76935713D01*
X108276247Y-76935713D02*
X108133390Y-76935713D01*
X108133390Y-76935713D02*
X107942914Y-76888094D01*
X107942914Y-76888094D02*
X107847676Y-76840475D01*
X107847676Y-76840475D02*
X107752438Y-76745237D01*
X107752438Y-76745237D02*
X107704819Y-76602380D01*
X107704819Y-76602380D02*
X107704819Y-76507142D01*
X107704819Y-76507142D02*
X107752438Y-76364285D01*
X107752438Y-76364285D02*
X107800057Y-76316666D01*
X107704819Y-75983332D02*
X107704819Y-75364285D01*
X107704819Y-75364285D02*
X108085771Y-75697618D01*
X108085771Y-75697618D02*
X108085771Y-75554761D01*
X108085771Y-75554761D02*
X108133390Y-75459523D01*
X108133390Y-75459523D02*
X108181009Y-75411904D01*
X108181009Y-75411904D02*
X108276247Y-75364285D01*
X108276247Y-75364285D02*
X108514342Y-75364285D01*
X108514342Y-75364285D02*
X108609580Y-75411904D01*
X108609580Y-75411904D02*
X108657200Y-75459523D01*
X108657200Y-75459523D02*
X108704819Y-75554761D01*
X108704819Y-75554761D02*
X108704819Y-75840475D01*
X108704819Y-75840475D02*
X108657200Y-75935713D01*
X108657200Y-75935713D02*
X108609580Y-75983332D01*
X96738095Y-62454819D02*
X96738095Y-63264342D01*
X96738095Y-63264342D02*
X96785714Y-63359580D01*
X96785714Y-63359580D02*
X96833333Y-63407200D01*
X96833333Y-63407200D02*
X96928571Y-63454819D01*
X96928571Y-63454819D02*
X97119047Y-63454819D01*
X97119047Y-63454819D02*
X97214285Y-63407200D01*
X97214285Y-63407200D02*
X97261904Y-63359580D01*
X97261904Y-63359580D02*
X97309523Y-63264342D01*
X97309523Y-63264342D02*
X97309523Y-62454819D01*
X98214285Y-62788152D02*
X98214285Y-63454819D01*
X97976190Y-62407200D02*
X97738095Y-63121485D01*
X97738095Y-63121485D02*
X98357142Y-63121485D01*
X102583333Y-54954819D02*
X102250000Y-54478628D01*
X102011905Y-54954819D02*
X102011905Y-53954819D01*
X102011905Y-53954819D02*
X102392857Y-53954819D01*
X102392857Y-53954819D02*
X102488095Y-54002438D01*
X102488095Y-54002438D02*
X102535714Y-54050057D01*
X102535714Y-54050057D02*
X102583333Y-54145295D01*
X102583333Y-54145295D02*
X102583333Y-54288152D01*
X102583333Y-54288152D02*
X102535714Y-54383390D01*
X102535714Y-54383390D02*
X102488095Y-54431009D01*
X102488095Y-54431009D02*
X102392857Y-54478628D01*
X102392857Y-54478628D02*
X102011905Y-54478628D01*
X103535714Y-54954819D02*
X102964286Y-54954819D01*
X103250000Y-54954819D02*
X103250000Y-53954819D01*
X103250000Y-53954819D02*
X103154762Y-54097676D01*
X103154762Y-54097676D02*
X103059524Y-54192914D01*
X103059524Y-54192914D02*
X102964286Y-54240533D01*
X109109580Y-83166666D02*
X109157200Y-83214285D01*
X109157200Y-83214285D02*
X109204819Y-83357142D01*
X109204819Y-83357142D02*
X109204819Y-83452380D01*
X109204819Y-83452380D02*
X109157200Y-83595237D01*
X109157200Y-83595237D02*
X109061961Y-83690475D01*
X109061961Y-83690475D02*
X108966723Y-83738094D01*
X108966723Y-83738094D02*
X108776247Y-83785713D01*
X108776247Y-83785713D02*
X108633390Y-83785713D01*
X108633390Y-83785713D02*
X108442914Y-83738094D01*
X108442914Y-83738094D02*
X108347676Y-83690475D01*
X108347676Y-83690475D02*
X108252438Y-83595237D01*
X108252438Y-83595237D02*
X108204819Y-83452380D01*
X108204819Y-83452380D02*
X108204819Y-83357142D01*
X108204819Y-83357142D02*
X108252438Y-83214285D01*
X108252438Y-83214285D02*
X108300057Y-83166666D01*
X108538152Y-82309523D02*
X109204819Y-82309523D01*
X108157200Y-82547618D02*
X108871485Y-82785713D01*
X108871485Y-82785713D02*
X108871485Y-82166666D01*
X94583333Y-64454819D02*
X94250000Y-63978628D01*
X94011905Y-64454819D02*
X94011905Y-63454819D01*
X94011905Y-63454819D02*
X94392857Y-63454819D01*
X94392857Y-63454819D02*
X94488095Y-63502438D01*
X94488095Y-63502438D02*
X94535714Y-63550057D01*
X94535714Y-63550057D02*
X94583333Y-63645295D01*
X94583333Y-63645295D02*
X94583333Y-63788152D01*
X94583333Y-63788152D02*
X94535714Y-63883390D01*
X94535714Y-63883390D02*
X94488095Y-63931009D01*
X94488095Y-63931009D02*
X94392857Y-63978628D01*
X94392857Y-63978628D02*
X94011905Y-63978628D01*
X95440476Y-63788152D02*
X95440476Y-64454819D01*
X95202381Y-63407200D02*
X94964286Y-64121485D01*
X94964286Y-64121485D02*
X95583333Y-64121485D01*
X99083333Y-66859580D02*
X99035714Y-66907200D01*
X99035714Y-66907200D02*
X98892857Y-66954819D01*
X98892857Y-66954819D02*
X98797619Y-66954819D01*
X98797619Y-66954819D02*
X98654762Y-66907200D01*
X98654762Y-66907200D02*
X98559524Y-66811961D01*
X98559524Y-66811961D02*
X98511905Y-66716723D01*
X98511905Y-66716723D02*
X98464286Y-66526247D01*
X98464286Y-66526247D02*
X98464286Y-66383390D01*
X98464286Y-66383390D02*
X98511905Y-66192914D01*
X98511905Y-66192914D02*
X98559524Y-66097676D01*
X98559524Y-66097676D02*
X98654762Y-66002438D01*
X98654762Y-66002438D02*
X98797619Y-65954819D01*
X98797619Y-65954819D02*
X98892857Y-65954819D01*
X98892857Y-65954819D02*
X99035714Y-66002438D01*
X99035714Y-66002438D02*
X99083333Y-66050057D01*
X99464286Y-66050057D02*
X99511905Y-66002438D01*
X99511905Y-66002438D02*
X99607143Y-65954819D01*
X99607143Y-65954819D02*
X99845238Y-65954819D01*
X99845238Y-65954819D02*
X99940476Y-66002438D01*
X99940476Y-66002438D02*
X99988095Y-66050057D01*
X99988095Y-66050057D02*
X100035714Y-66145295D01*
X100035714Y-66145295D02*
X100035714Y-66240533D01*
X100035714Y-66240533D02*
X99988095Y-66383390D01*
X99988095Y-66383390D02*
X99416667Y-66954819D01*
X99416667Y-66954819D02*
X100035714Y-66954819D01*
X102583333Y-59454819D02*
X102250000Y-58978628D01*
X102011905Y-59454819D02*
X102011905Y-58454819D01*
X102011905Y-58454819D02*
X102392857Y-58454819D01*
X102392857Y-58454819D02*
X102488095Y-58502438D01*
X102488095Y-58502438D02*
X102535714Y-58550057D01*
X102535714Y-58550057D02*
X102583333Y-58645295D01*
X102583333Y-58645295D02*
X102583333Y-58788152D01*
X102583333Y-58788152D02*
X102535714Y-58883390D01*
X102535714Y-58883390D02*
X102488095Y-58931009D01*
X102488095Y-58931009D02*
X102392857Y-58978628D01*
X102392857Y-58978628D02*
X102011905Y-58978628D01*
X102964286Y-58550057D02*
X103011905Y-58502438D01*
X103011905Y-58502438D02*
X103107143Y-58454819D01*
X103107143Y-58454819D02*
X103345238Y-58454819D01*
X103345238Y-58454819D02*
X103440476Y-58502438D01*
X103440476Y-58502438D02*
X103488095Y-58550057D01*
X103488095Y-58550057D02*
X103535714Y-58645295D01*
X103535714Y-58645295D02*
X103535714Y-58740533D01*
X103535714Y-58740533D02*
X103488095Y-58883390D01*
X103488095Y-58883390D02*
X102916667Y-59454819D01*
X102916667Y-59454819D02*
X103535714Y-59454819D01*
X107359580Y-82666666D02*
X107407200Y-82714285D01*
X107407200Y-82714285D02*
X107454819Y-82857142D01*
X107454819Y-82857142D02*
X107454819Y-82952380D01*
X107454819Y-82952380D02*
X107407200Y-83095237D01*
X107407200Y-83095237D02*
X107311961Y-83190475D01*
X107311961Y-83190475D02*
X107216723Y-83238094D01*
X107216723Y-83238094D02*
X107026247Y-83285713D01*
X107026247Y-83285713D02*
X106883390Y-83285713D01*
X106883390Y-83285713D02*
X106692914Y-83238094D01*
X106692914Y-83238094D02*
X106597676Y-83190475D01*
X106597676Y-83190475D02*
X106502438Y-83095237D01*
X106502438Y-83095237D02*
X106454819Y-82952380D01*
X106454819Y-82952380D02*
X106454819Y-82857142D01*
X106454819Y-82857142D02*
X106502438Y-82714285D01*
X106502438Y-82714285D02*
X106550057Y-82666666D01*
X106454819Y-82333332D02*
X106454819Y-81666666D01*
X106454819Y-81666666D02*
X107454819Y-82095237D01*
X102238095Y-63454819D02*
X102238095Y-64264342D01*
X102238095Y-64264342D02*
X102285714Y-64359580D01*
X102285714Y-64359580D02*
X102333333Y-64407200D01*
X102333333Y-64407200D02*
X102428571Y-64454819D01*
X102428571Y-64454819D02*
X102619047Y-64454819D01*
X102619047Y-64454819D02*
X102714285Y-64407200D01*
X102714285Y-64407200D02*
X102761904Y-64359580D01*
X102761904Y-64359580D02*
X102809523Y-64264342D01*
X102809523Y-64264342D02*
X102809523Y-63454819D01*
X103809523Y-64454819D02*
X103238095Y-64454819D01*
X103523809Y-64454819D02*
X103523809Y-63454819D01*
X103523809Y-63454819D02*
X103428571Y-63597676D01*
X103428571Y-63597676D02*
X103333333Y-63692914D01*
X103333333Y-63692914D02*
X103238095Y-63740533D01*
X107833333Y-71609580D02*
X107785714Y-71657200D01*
X107785714Y-71657200D02*
X107642857Y-71704819D01*
X107642857Y-71704819D02*
X107547619Y-71704819D01*
X107547619Y-71704819D02*
X107404762Y-71657200D01*
X107404762Y-71657200D02*
X107309524Y-71561961D01*
X107309524Y-71561961D02*
X107261905Y-71466723D01*
X107261905Y-71466723D02*
X107214286Y-71276247D01*
X107214286Y-71276247D02*
X107214286Y-71133390D01*
X107214286Y-71133390D02*
X107261905Y-70942914D01*
X107261905Y-70942914D02*
X107309524Y-70847676D01*
X107309524Y-70847676D02*
X107404762Y-70752438D01*
X107404762Y-70752438D02*
X107547619Y-70704819D01*
X107547619Y-70704819D02*
X107642857Y-70704819D01*
X107642857Y-70704819D02*
X107785714Y-70752438D01*
X107785714Y-70752438D02*
X107833333Y-70800057D01*
X108785714Y-71704819D02*
X108214286Y-71704819D01*
X108500000Y-71704819D02*
X108500000Y-70704819D01*
X108500000Y-70704819D02*
X108404762Y-70847676D01*
X108404762Y-70847676D02*
X108309524Y-70942914D01*
X108309524Y-70942914D02*
X108214286Y-70990533D01*
X102261905Y-61954819D02*
X102261905Y-60954819D01*
X102261905Y-60954819D02*
X102500000Y-60954819D01*
X102500000Y-60954819D02*
X102642857Y-61002438D01*
X102642857Y-61002438D02*
X102738095Y-61097676D01*
X102738095Y-61097676D02*
X102785714Y-61192914D01*
X102785714Y-61192914D02*
X102833333Y-61383390D01*
X102833333Y-61383390D02*
X102833333Y-61526247D01*
X102833333Y-61526247D02*
X102785714Y-61716723D01*
X102785714Y-61716723D02*
X102738095Y-61811961D01*
X102738095Y-61811961D02*
X102642857Y-61907200D01*
X102642857Y-61907200D02*
X102500000Y-61954819D01*
X102500000Y-61954819D02*
X102261905Y-61954819D01*
X103785714Y-61954819D02*
X103214286Y-61954819D01*
X103500000Y-61954819D02*
X103500000Y-60954819D01*
X103500000Y-60954819D02*
X103404762Y-61097676D01*
X103404762Y-61097676D02*
X103309524Y-61192914D01*
X103309524Y-61192914D02*
X103214286Y-61240533D01*
X102583333Y-56454819D02*
X102250000Y-55978628D01*
X102011905Y-56454819D02*
X102011905Y-55454819D01*
X102011905Y-55454819D02*
X102392857Y-55454819D01*
X102392857Y-55454819D02*
X102488095Y-55502438D01*
X102488095Y-55502438D02*
X102535714Y-55550057D01*
X102535714Y-55550057D02*
X102583333Y-55645295D01*
X102583333Y-55645295D02*
X102583333Y-55788152D01*
X102583333Y-55788152D02*
X102535714Y-55883390D01*
X102535714Y-55883390D02*
X102488095Y-55931009D01*
X102488095Y-55931009D02*
X102392857Y-55978628D01*
X102392857Y-55978628D02*
X102011905Y-55978628D01*
X103440476Y-55454819D02*
X103250000Y-55454819D01*
X103250000Y-55454819D02*
X103154762Y-55502438D01*
X103154762Y-55502438D02*
X103107143Y-55550057D01*
X103107143Y-55550057D02*
X103011905Y-55692914D01*
X103011905Y-55692914D02*
X102964286Y-55883390D01*
X102964286Y-55883390D02*
X102964286Y-56264342D01*
X102964286Y-56264342D02*
X103011905Y-56359580D01*
X103011905Y-56359580D02*
X103059524Y-56407200D01*
X103059524Y-56407200D02*
X103154762Y-56454819D01*
X103154762Y-56454819D02*
X103345238Y-56454819D01*
X103345238Y-56454819D02*
X103440476Y-56407200D01*
X103440476Y-56407200D02*
X103488095Y-56359580D01*
X103488095Y-56359580D02*
X103535714Y-56264342D01*
X103535714Y-56264342D02*
X103535714Y-56026247D01*
X103535714Y-56026247D02*
X103488095Y-55931009D01*
X103488095Y-55931009D02*
X103440476Y-55883390D01*
X103440476Y-55883390D02*
X103345238Y-55835771D01*
X103345238Y-55835771D02*
X103154762Y-55835771D01*
X103154762Y-55835771D02*
X103059524Y-55883390D01*
X103059524Y-55883390D02*
X103011905Y-55931009D01*
X103011905Y-55931009D02*
X102964286Y-56026247D01*
X102583333Y-53359580D02*
X102535714Y-53407200D01*
X102535714Y-53407200D02*
X102392857Y-53454819D01*
X102392857Y-53454819D02*
X102297619Y-53454819D01*
X102297619Y-53454819D02*
X102154762Y-53407200D01*
X102154762Y-53407200D02*
X102059524Y-53311961D01*
X102059524Y-53311961D02*
X102011905Y-53216723D01*
X102011905Y-53216723D02*
X101964286Y-53026247D01*
X101964286Y-53026247D02*
X101964286Y-52883390D01*
X101964286Y-52883390D02*
X102011905Y-52692914D01*
X102011905Y-52692914D02*
X102059524Y-52597676D01*
X102059524Y-52597676D02*
X102154762Y-52502438D01*
X102154762Y-52502438D02*
X102297619Y-52454819D01*
X102297619Y-52454819D02*
X102392857Y-52454819D01*
X102392857Y-52454819D02*
X102535714Y-52502438D01*
X102535714Y-52502438D02*
X102583333Y-52550057D01*
X103440476Y-52454819D02*
X103250000Y-52454819D01*
X103250000Y-52454819D02*
X103154762Y-52502438D01*
X103154762Y-52502438D02*
X103107143Y-52550057D01*
X103107143Y-52550057D02*
X103011905Y-52692914D01*
X103011905Y-52692914D02*
X102964286Y-52883390D01*
X102964286Y-52883390D02*
X102964286Y-53264342D01*
X102964286Y-53264342D02*
X103011905Y-53359580D01*
X103011905Y-53359580D02*
X103059524Y-53407200D01*
X103059524Y-53407200D02*
X103154762Y-53454819D01*
X103154762Y-53454819D02*
X103345238Y-53454819D01*
X103345238Y-53454819D02*
X103440476Y-53407200D01*
X103440476Y-53407200D02*
X103488095Y-53359580D01*
X103488095Y-53359580D02*
X103535714Y-53264342D01*
X103535714Y-53264342D02*
X103535714Y-53026247D01*
X103535714Y-53026247D02*
X103488095Y-52931009D01*
X103488095Y-52931009D02*
X103440476Y-52883390D01*
X103440476Y-52883390D02*
X103345238Y-52835771D01*
X103345238Y-52835771D02*
X103154762Y-52835771D01*
X103154762Y-52835771D02*
X103059524Y-52883390D01*
X103059524Y-52883390D02*
X103011905Y-52931009D01*
X103011905Y-52931009D02*
X102964286Y-53026247D01*
X93166666Y-50204819D02*
X93166666Y-50919104D01*
X93166666Y-50919104D02*
X93119047Y-51061961D01*
X93119047Y-51061961D02*
X93023809Y-51157200D01*
X93023809Y-51157200D02*
X92880952Y-51204819D01*
X92880952Y-51204819D02*
X92785714Y-51204819D01*
X94166666Y-51204819D02*
X93595238Y-51204819D01*
X93880952Y-51204819D02*
X93880952Y-50204819D01*
X93880952Y-50204819D02*
X93785714Y-50347676D01*
X93785714Y-50347676D02*
X93690476Y-50442914D01*
X93690476Y-50442914D02*
X93595238Y-50490533D01*
X96416667Y-65657200D02*
X96559524Y-65704819D01*
X96559524Y-65704819D02*
X96797619Y-65704819D01*
X96797619Y-65704819D02*
X96892857Y-65657200D01*
X96892857Y-65657200D02*
X96940476Y-65609580D01*
X96940476Y-65609580D02*
X96988095Y-65514342D01*
X96988095Y-65514342D02*
X96988095Y-65419104D01*
X96988095Y-65419104D02*
X96940476Y-65323866D01*
X96940476Y-65323866D02*
X96892857Y-65276247D01*
X96892857Y-65276247D02*
X96797619Y-65228628D01*
X96797619Y-65228628D02*
X96607143Y-65181009D01*
X96607143Y-65181009D02*
X96511905Y-65133390D01*
X96511905Y-65133390D02*
X96464286Y-65085771D01*
X96464286Y-65085771D02*
X96416667Y-64990533D01*
X96416667Y-64990533D02*
X96416667Y-64895295D01*
X96416667Y-64895295D02*
X96464286Y-64800057D01*
X96464286Y-64800057D02*
X96511905Y-64752438D01*
X96511905Y-64752438D02*
X96607143Y-64704819D01*
X96607143Y-64704819D02*
X96845238Y-64704819D01*
X96845238Y-64704819D02*
X96988095Y-64752438D01*
X97321429Y-64704819D02*
X97559524Y-65704819D01*
X97559524Y-65704819D02*
X97750000Y-64990533D01*
X97750000Y-64990533D02*
X97940476Y-65704819D01*
X97940476Y-65704819D02*
X98178572Y-64704819D01*
X98511905Y-64800057D02*
X98559524Y-64752438D01*
X98559524Y-64752438D02*
X98654762Y-64704819D01*
X98654762Y-64704819D02*
X98892857Y-64704819D01*
X98892857Y-64704819D02*
X98988095Y-64752438D01*
X98988095Y-64752438D02*
X99035714Y-64800057D01*
X99035714Y-64800057D02*
X99083333Y-64895295D01*
X99083333Y-64895295D02*
X99083333Y-64990533D01*
X99083333Y-64990533D02*
X99035714Y-65133390D01*
X99035714Y-65133390D02*
X98464286Y-65704819D01*
X98464286Y-65704819D02*
X99083333Y-65704819D01*
X91583333Y-64359580D02*
X91535714Y-64407200D01*
X91535714Y-64407200D02*
X91392857Y-64454819D01*
X91392857Y-64454819D02*
X91297619Y-64454819D01*
X91297619Y-64454819D02*
X91154762Y-64407200D01*
X91154762Y-64407200D02*
X91059524Y-64311961D01*
X91059524Y-64311961D02*
X91011905Y-64216723D01*
X91011905Y-64216723D02*
X90964286Y-64026247D01*
X90964286Y-64026247D02*
X90964286Y-63883390D01*
X90964286Y-63883390D02*
X91011905Y-63692914D01*
X91011905Y-63692914D02*
X91059524Y-63597676D01*
X91059524Y-63597676D02*
X91154762Y-63502438D01*
X91154762Y-63502438D02*
X91297619Y-63454819D01*
X91297619Y-63454819D02*
X91392857Y-63454819D01*
X91392857Y-63454819D02*
X91535714Y-63502438D01*
X91535714Y-63502438D02*
X91583333Y-63550057D01*
X92488095Y-63454819D02*
X92011905Y-63454819D01*
X92011905Y-63454819D02*
X91964286Y-63931009D01*
X91964286Y-63931009D02*
X92011905Y-63883390D01*
X92011905Y-63883390D02*
X92107143Y-63835771D01*
X92107143Y-63835771D02*
X92345238Y-63835771D01*
X92345238Y-63835771D02*
X92440476Y-63883390D01*
X92440476Y-63883390D02*
X92488095Y-63931009D01*
X92488095Y-63931009D02*
X92535714Y-64026247D01*
X92535714Y-64026247D02*
X92535714Y-64264342D01*
X92535714Y-64264342D02*
X92488095Y-64359580D01*
X92488095Y-64359580D02*
X92440476Y-64407200D01*
X92440476Y-64407200D02*
X92345238Y-64454819D01*
X92345238Y-64454819D02*
X92107143Y-64454819D01*
X92107143Y-64454819D02*
X92011905Y-64407200D01*
X92011905Y-64407200D02*
X91964286Y-64359580D01*
X105988095Y-50454819D02*
X105988095Y-51264342D01*
X105988095Y-51264342D02*
X106035714Y-51359580D01*
X106035714Y-51359580D02*
X106083333Y-51407200D01*
X106083333Y-51407200D02*
X106178571Y-51454819D01*
X106178571Y-51454819D02*
X106369047Y-51454819D01*
X106369047Y-51454819D02*
X106464285Y-51407200D01*
X106464285Y-51407200D02*
X106511904Y-51359580D01*
X106511904Y-51359580D02*
X106559523Y-51264342D01*
X106559523Y-51264342D02*
X106559523Y-50454819D01*
X107511904Y-50454819D02*
X107035714Y-50454819D01*
X107035714Y-50454819D02*
X106988095Y-50931009D01*
X106988095Y-50931009D02*
X107035714Y-50883390D01*
X107035714Y-50883390D02*
X107130952Y-50835771D01*
X107130952Y-50835771D02*
X107369047Y-50835771D01*
X107369047Y-50835771D02*
X107464285Y-50883390D01*
X107464285Y-50883390D02*
X107511904Y-50931009D01*
X107511904Y-50931009D02*
X107559523Y-51026247D01*
X107559523Y-51026247D02*
X107559523Y-51264342D01*
X107559523Y-51264342D02*
X107511904Y-51359580D01*
X107511904Y-51359580D02*
X107464285Y-51407200D01*
X107464285Y-51407200D02*
X107369047Y-51454819D01*
X107369047Y-51454819D02*
X107130952Y-51454819D01*
X107130952Y-51454819D02*
X107035714Y-51407200D01*
X107035714Y-51407200D02*
X106988095Y-51359580D01*
D11*
%TO.C,J2*%
X93855000Y-44850000D02*
X93855000Y-43800000D01*
X95600000Y-48020000D02*
X95600000Y-48775000D01*
X95600000Y-48020000D02*
X104400000Y-48020000D01*
X106145000Y-44850000D02*
X106145000Y-43800000D01*
%TO.C,R3*%
X106327500Y-79904724D02*
X106327500Y-79395276D01*
X107372500Y-79904724D02*
X107372500Y-79395276D01*
%TO.C,U3*%
X90200000Y-71950000D02*
X105800000Y-71950000D01*
X90200000Y-87550000D02*
X90200000Y-71950000D01*
X105800000Y-71950000D02*
X105800000Y-87550000D01*
X105800000Y-87550000D02*
X90200000Y-87550000D01*
X106311000Y-85940000D02*
X105975000Y-85700000D01*
X106311000Y-85460000D01*
X106311000Y-85940000D01*
G36*
X106311000Y-85940000D02*
G01*
X105975000Y-85700000D01*
X106311000Y-85460000D01*
X106311000Y-85940000D01*
G37*
%TO.C,R5*%
X99995276Y-56977500D02*
X100504724Y-56977500D01*
X99995276Y-58022500D02*
X100504724Y-58022500D01*
%TO.C,C3*%
X106340000Y-76296267D02*
X106340000Y-76003733D01*
X107360000Y-76296267D02*
X107360000Y-76003733D01*
%TO.C,U4*%
X98740000Y-61227500D02*
X98790000Y-61227500D01*
X98740000Y-63047500D02*
X98740000Y-61227500D01*
X98790000Y-63047500D02*
X98740000Y-63047500D01*
X101810000Y-61227500D02*
X101860000Y-61227500D01*
X101860000Y-61227500D02*
X101860000Y-63047500D01*
X101860000Y-63047500D02*
X101810000Y-63047500D01*
X102140000Y-60927500D02*
X101810000Y-60687500D01*
X102140000Y-60447500D01*
X102140000Y-60927500D01*
G36*
X102140000Y-60927500D02*
G01*
X101810000Y-60687500D01*
X102140000Y-60447500D01*
X102140000Y-60927500D01*
G37*
%TO.C,R1*%
X99995276Y-53977500D02*
X100504724Y-53977500D01*
X99995276Y-55022500D02*
X100504724Y-55022500D01*
%TO.C,C4*%
X108240000Y-85603733D02*
X108240000Y-85896267D01*
X109260000Y-85603733D02*
X109260000Y-85896267D01*
%TO.C,R4*%
X94987258Y-64727500D02*
X94512742Y-64727500D01*
X94987258Y-65772500D02*
X94512742Y-65772500D01*
%TO.C,C2*%
X98515000Y-69011252D02*
X98515000Y-68488748D01*
X99985000Y-69011252D02*
X99985000Y-68488748D01*
%TO.C,R2*%
X99995276Y-58477500D02*
X100504724Y-58477500D01*
X99995276Y-59522500D02*
X100504724Y-59522500D01*
%TO.C,C7*%
X106265000Y-85238748D02*
X106265000Y-85761252D01*
X107735000Y-85238748D02*
X107735000Y-85761252D01*
%TO.C,U1*%
X103000000Y-64740000D02*
X106760000Y-64740000D01*
X103000000Y-71560000D02*
X106760000Y-71560000D01*
X106760000Y-64740000D02*
X106760000Y-66000000D01*
X106760000Y-71560000D02*
X106760000Y-70300000D01*
X101720000Y-64840000D02*
X101480000Y-64510000D01*
X101960000Y-64510000D01*
X101720000Y-64840000D01*
G36*
X101720000Y-64840000D02*
G01*
X101480000Y-64510000D01*
X101960000Y-64510000D01*
X101720000Y-64840000D01*
G37*
%TO.C,C1*%
X108061252Y-72165000D02*
X107538748Y-72165000D01*
X108061252Y-73635000D02*
X107538748Y-73635000D01*
%TO.C,D1*%
X103950000Y-60000000D02*
X103950000Y-64000000D01*
X103950000Y-60000000D02*
X109550000Y-60000000D01*
X103950000Y-64000000D02*
X108950000Y-64000000D01*
X109550000Y-63400000D02*
X108950000Y-64000000D01*
X109550000Y-63400000D02*
X109550000Y-60000000D01*
%TO.C,R6*%
X99995276Y-55477500D02*
X100504724Y-55477500D01*
X99995276Y-56522500D02*
X100504724Y-56522500D01*
%TO.C,C6*%
X100103733Y-52490000D02*
X100396267Y-52490000D01*
X100103733Y-53510000D02*
X100396267Y-53510000D01*
%TO.C,J1*%
X93675000Y-52150000D02*
X95375000Y-52150000D01*
X93675000Y-61490000D02*
X95375000Y-61490000D01*
%TO.C,SW2*%
X91350000Y-67775000D02*
X91350000Y-69775000D01*
X92350000Y-66475000D02*
X92800000Y-66025000D01*
X92350000Y-71075000D02*
X92800000Y-71525000D01*
X92800000Y-66025000D02*
X95400000Y-66025000D01*
X92800000Y-71525000D02*
X95400000Y-71525000D01*
X95850000Y-66475000D02*
X95400000Y-66025000D01*
X95850000Y-71075000D02*
X95400000Y-71525000D01*
X96850000Y-67775000D02*
X96850000Y-69775000D01*
%TO.C,C5*%
X91890580Y-64740000D02*
X91609420Y-64740000D01*
X91890580Y-65760000D02*
X91609420Y-65760000D01*
%TO.C,U5*%
X104160000Y-53510000D02*
X104260000Y-53510000D01*
X104160000Y-57490000D02*
X104160000Y-53510000D01*
X104260000Y-57490000D02*
X104160000Y-57490000D01*
X109240000Y-53510000D02*
X109340000Y-53510000D01*
X109340000Y-53510000D02*
X109340000Y-57490000D01*
X109340000Y-57490000D02*
X109240000Y-57490000D01*
X104250000Y-58040000D02*
X103920000Y-58280000D01*
X103920000Y-57800000D01*
X104250000Y-58040000D01*
G36*
X104250000Y-58040000D02*
G01*
X103920000Y-58280000D01*
X103920000Y-57800000D01*
X104250000Y-58040000D01*
G37*
%TD*%
M02*
