%TF.GenerationSoftware,KiCad,Pcbnew,9.0.0*%
%TF.CreationDate,2025-05-27T11:33:04+06:00*%
%TF.ProjectId,devboard,64657662-6f61-4726-942e-6b696361645f,rev?*%
%TF.SameCoordinates,Original*%
%TF.FileFunction,Copper,L1,Top*%
%TF.FilePolarity,Positive*%
%FSLAX46Y46*%
G04 Gerber Fmt 4.6, Leading zero omitted, Abs format (unit mm)*
G04 Created by KiCad (PCBNEW 9.0.0) date 2025-05-27 11:33:04*
%MOMM*%
%LPD*%
G01*
G04 APERTURE LIST*
G04 Aperture macros list*
%AMRoundRect*
0 Rectangle with rounded corners*
0 $1 Rounding radius*
0 $2 $3 $4 $5 $6 $7 $8 $9 X,Y pos of 4 corners*
0 Add a 4 corners polygon primitive as box body*
4,1,4,$2,$3,$4,$5,$6,$7,$8,$9,$2,$3,0*
0 Add four circle primitives for the rounded corners*
1,1,$1+$1,$2,$3*
1,1,$1+$1,$4,$5*
1,1,$1+$1,$6,$7*
1,1,$1+$1,$8,$9*
0 Add four rect primitives between the rounded corners*
20,1,$1+$1,$2,$3,$4,$5,0*
20,1,$1+$1,$4,$5,$6,$7,0*
20,1,$1+$1,$6,$7,$8,$9,0*
20,1,$1+$1,$8,$9,$2,$3,0*%
%AMOutline5P*
0 Free polygon, 5 corners , with rotation*
0 The origin of the aperture is its center*
0 number of corners: always 5*
0 $1 to $10 corner X, Y*
0 $11 Rotation angle, in degrees counterclockwise*
0 create outline with 5 corners*
4,1,5,$1,$2,$3,$4,$5,$6,$7,$8,$9,$10,$1,$2,$11*%
%AMOutline6P*
0 Free polygon, 6 corners , with rotation*
0 The origin of the aperture is its center*
0 number of corners: always 6*
0 $1 to $12 corner X, Y*
0 $13 Rotation angle, in degrees counterclockwise*
0 create outline with 6 corners*
4,1,6,$1,$2,$3,$4,$5,$6,$7,$8,$9,$10,$11,$12,$1,$2,$13*%
%AMOutline7P*
0 Free polygon, 7 corners , with rotation*
0 The origin of the aperture is its center*
0 number of corners: always 7*
0 $1 to $14 corner X, Y*
0 $15 Rotation angle, in degrees counterclockwise*
0 create outline with 7 corners*
4,1,7,$1,$2,$3,$4,$5,$6,$7,$8,$9,$10,$11,$12,$13,$14,$1,$2,$15*%
%AMOutline8P*
0 Free polygon, 8 corners , with rotation*
0 The origin of the aperture is its center*
0 number of corners: always 8*
0 $1 to $16 corner X, Y*
0 $17 Rotation angle, in degrees counterclockwise*
0 create outline with 8 corners*
4,1,8,$1,$2,$3,$4,$5,$6,$7,$8,$9,$10,$11,$12,$13,$14,$15,$16,$1,$2,$17*%
G04 Aperture macros list end*
%TA.AperFunction,SMDPad,CuDef*%
%ADD10RoundRect,0.218750X0.381250X-0.218750X0.381250X0.218750X-0.381250X0.218750X-0.381250X-0.218750X0*%
%TD*%
%TA.AperFunction,SMDPad,CuDef*%
%ADD11RoundRect,0.135000X-0.185000X0.135000X-0.185000X-0.135000X0.185000X-0.135000X0.185000X0.135000X0*%
%TD*%
%TA.AperFunction,ComponentPad*%
%ADD12R,1.700000X1.700000*%
%TD*%
%TA.AperFunction,ComponentPad*%
%ADD13C,1.700000*%
%TD*%
%TA.AperFunction,SMDPad,CuDef*%
%ADD14R,1.000000X0.700000*%
%TD*%
%TA.AperFunction,SMDPad,CuDef*%
%ADD15RoundRect,0.140000X-0.170000X0.140000X-0.170000X-0.140000X0.170000X-0.140000X0.170000X0.140000X0*%
%TD*%
%TA.AperFunction,SMDPad,CuDef*%
%ADD16RoundRect,0.250000X-0.250000X-0.475000X0.250000X-0.475000X0.250000X0.475000X-0.250000X0.475000X0*%
%TD*%
%TA.AperFunction,SMDPad,CuDef*%
%ADD17R,0.800000X0.550000*%
%TD*%
%TA.AperFunction,SMDPad,CuDef*%
%ADD18RoundRect,0.135000X0.185000X-0.135000X0.185000X0.135000X-0.185000X0.135000X-0.185000X-0.135000X0*%
%TD*%
%TA.AperFunction,SMDPad,CuDef*%
%ADD19R,0.600000X1.150000*%
%TD*%
%TA.AperFunction,SMDPad,CuDef*%
%ADD20R,0.300000X1.150000*%
%TD*%
%TA.AperFunction,SMDPad,CuDef*%
%ADD21R,2.180000X2.000000*%
%TD*%
%TA.AperFunction,SMDPad,CuDef*%
%ADD22RoundRect,0.140000X0.170000X-0.140000X0.170000X0.140000X-0.170000X0.140000X-0.170000X-0.140000X0*%
%TD*%
%TA.AperFunction,SMDPad,CuDef*%
%ADD23R,0.800000X0.400000*%
%TD*%
%TA.AperFunction,SMDPad,CuDef*%
%ADD24R,0.400000X0.800000*%
%TD*%
%TA.AperFunction,HeatsinkPad*%
%ADD25Outline5P,-0.600000X0.204000X-0.204000X0.600000X0.600000X0.600000X0.600000X-0.600000X-0.600000X-0.600000X0.000000*%
%TD*%
%TA.AperFunction,HeatsinkPad*%
%ADD26R,1.200000X1.200000*%
%TD*%
%TA.AperFunction,SMDPad,CuDef*%
%ADD27R,0.800000X0.800000*%
%TD*%
%TA.AperFunction,SMDPad,CuDef*%
%ADD28RoundRect,0.225000X0.250000X-0.225000X0.250000X0.225000X-0.250000X0.225000X-0.250000X-0.225000X0*%
%TD*%
%TA.AperFunction,SMDPad,CuDef*%
%ADD29RoundRect,0.150000X0.512500X0.150000X-0.512500X0.150000X-0.512500X-0.150000X0.512500X-0.150000X0*%
%TD*%
%TA.AperFunction,ViaPad*%
%ADD30C,0.600000*%
%TD*%
%TA.AperFunction,Conductor*%
%ADD31C,0.200000*%
%TD*%
G04 APERTURE END LIST*
D10*
%TO.P,L1,1,1*%
%TO.N,Net-(U3-SW)*%
X146812000Y-87422500D03*
%TO.P,L1,2,2*%
%TO.N,VCC_3.3V*%
X146812000Y-85297500D03*
%TD*%
D11*
%TO.P,R4,1*%
%TO.N,VCC_3.3V*%
X150368000Y-96012000D03*
%TO.P,R4,2*%
%TO.N,BTN_BOOT*%
X150368000Y-97032000D03*
%TD*%
D12*
%TO.P,J3,1,Pin_1*%
%TO.N,GND*%
X139700000Y-66040000D03*
D13*
%TO.P,J3,2,Pin_2*%
%TO.N,VCC_3.3V*%
X139700000Y-68580000D03*
%TO.P,J3,3,Pin_3*%
%TO.N,BTN_BOOT*%
X139700000Y-71120000D03*
%TO.P,J3,4,Pin_4*%
%TO.N,BTN_RST*%
X139700000Y-73660000D03*
%TO.P,J3,5,Pin_5*%
%TO.N,GND*%
X139700000Y-76200000D03*
%TO.P,J3,6,Pin_6*%
%TO.N,CS*%
X139700000Y-78740000D03*
%TO.P,J3,7,Pin_7*%
%TO.N,GND*%
X139700000Y-81280000D03*
%TO.P,J3,8,Pin_8*%
%TO.N,MOSI*%
X139700000Y-83820000D03*
%TO.P,J3,9,Pin_9*%
%TO.N,MISO*%
X139700000Y-86360000D03*
%TO.P,J3,10,Pin_10*%
%TO.N,SCK*%
X139700000Y-88900000D03*
%TO.P,J3,11,Pin_11*%
%TO.N,GND*%
X139700000Y-91440000D03*
%TO.P,J3,12,Pin_12*%
%TO.N,TXD1*%
X139700000Y-93980000D03*
%TO.P,J3,13,Pin_13*%
%TO.N,RXD1*%
X139700000Y-96520000D03*
%TO.P,J3,14,Pin_14*%
%TO.N,GND*%
X139700000Y-99060000D03*
%TO.P,J3,15,Pin_15*%
%TO.N,14*%
X139700000Y-101600000D03*
%TO.P,J3,16,Pin_16*%
%TO.N,15*%
X139700000Y-104140000D03*
%TD*%
D14*
%TO.P,SW1,1*%
%TO.N,GND*%
X153210000Y-93400000D03*
%TO.P,SW1,2*%
X159210000Y-93400000D03*
%TO.P,SW1,3*%
%TO.N,BTN_RST*%
X153210000Y-97100000D03*
%TO.P,SW1,4*%
X159210000Y-97100000D03*
%TD*%
D15*
%TO.P,C3,1*%
%TO.N,BTN_RST*%
X159258000Y-99060000D03*
%TO.P,C3,2*%
%TO.N,GND*%
X159258000Y-100020000D03*
%TD*%
D16*
%TO.P,C2,1*%
%TO.N,VCC_3.3V*%
X146878000Y-83312000D03*
%TO.P,C2,2*%
%TO.N,GND*%
X148778000Y-83312000D03*
%TD*%
D17*
%TO.P,U2,1*%
%TO.N,EXT_D+*%
X157400000Y-85278000D03*
%TO.P,U2,2*%
%TO.N,GND*%
X157400000Y-84328000D03*
%TO.P,U2,3*%
%TO.N,D+*%
X157400000Y-83378000D03*
%TO.P,U2,4*%
%TO.N,D-*%
X155000000Y-83378000D03*
%TO.P,U2,5*%
%TO.N,VCC_5V*%
X155000000Y-84328000D03*
%TO.P,U2,6*%
%TO.N,EXT_D-*%
X155000000Y-85278000D03*
%TD*%
D15*
%TO.P,C4,1*%
%TO.N,BTN_BOOT*%
X143002000Y-99060000D03*
%TO.P,C4,2*%
%TO.N,GND*%
X143002000Y-100020000D03*
%TD*%
D18*
%TO.P,R2,1*%
%TO.N,Net-(J1-CC2)*%
X142494000Y-102872000D03*
%TO.P,R2,2*%
%TO.N,GND*%
X142494000Y-101852000D03*
%TD*%
D11*
%TO.P,R3,1*%
%TO.N,VCC_3.3V*%
X151892000Y-96012000D03*
%TO.P,R3,2*%
%TO.N,BTN_RST*%
X151892000Y-97032000D03*
%TD*%
D18*
%TO.P,R1,1*%
%TO.N,Net-(J1-CC1)*%
X143510000Y-102872000D03*
%TO.P,R1,2*%
%TO.N,GND*%
X143510000Y-101852000D03*
%TD*%
D12*
%TO.P,J4,1,Pin_1*%
%TO.N,GND*%
X162560000Y-66040000D03*
D13*
%TO.P,J4,2,Pin_2*%
X162560000Y-68580000D03*
%TO.P,J4,3,Pin_3*%
%TO.N,1*%
X162560000Y-71120000D03*
%TO.P,J4,4,Pin_4*%
%TO.N,2*%
X162560000Y-73660000D03*
%TO.P,J4,5,Pin_5*%
%TO.N,3*%
X162560000Y-76200000D03*
%TO.P,J4,6,Pin_6*%
%TO.N,4*%
X162560000Y-78740000D03*
%TO.P,J4,7,Pin_7*%
%TO.N,5*%
X162560000Y-81280000D03*
%TO.P,J4,8,Pin_8*%
%TO.N,6*%
X162560000Y-83820000D03*
%TO.P,J4,9,Pin_9*%
%TO.N,7*%
X162560000Y-86360000D03*
%TO.P,J4,10,Pin_10*%
%TO.N,8*%
X162560000Y-88900000D03*
%TO.P,J4,11,Pin_11*%
%TO.N,9*%
X162560000Y-91440000D03*
%TO.P,J4,12,Pin_12*%
%TO.N,GND*%
X162560000Y-93980000D03*
%TO.P,J4,13,Pin_13*%
%TO.N,VCC_5V*%
X162560000Y-96520000D03*
%TO.P,J4,14,Pin_14*%
%TO.N,EXT_D+*%
X162560000Y-99060000D03*
%TO.P,J4,15,Pin_15*%
%TO.N,EXT_D-*%
X162560000Y-101600000D03*
%TO.P,J4,16,Pin_16*%
%TO.N,GND*%
X162560000Y-104140000D03*
%TD*%
D19*
%TO.P,J1,A1/B12,GND*%
%TO.N,GND*%
X147930000Y-100017000D03*
%TO.P,J1,A4/B9,VBUS*%
%TO.N,VCC_5V*%
X148730000Y-100017000D03*
D20*
%TO.P,J1,A5,CC1*%
%TO.N,Net-(J1-CC1)*%
X149880000Y-100017000D03*
%TO.P,J1,A6,DP1*%
%TO.N,EXT_D+*%
X150880000Y-100017000D03*
%TO.P,J1,A7,DN1*%
%TO.N,EXT_D-*%
X151380000Y-100017000D03*
%TO.P,J1,A8,SBU1*%
%TO.N,unconnected-(J1-SBU1-PadA8)*%
X152380000Y-100017000D03*
D19*
%TO.P,J1,B1/A12,GND*%
%TO.N,GND*%
X154330000Y-100017000D03*
%TO.P,J1,B4/A9,VBUS*%
%TO.N,VCC_5V*%
X153530000Y-100017000D03*
D20*
%TO.P,J1,B5,CC2*%
%TO.N,Net-(J1-CC2)*%
X152880000Y-100017000D03*
%TO.P,J1,B6,DP2*%
%TO.N,EXT_D+*%
X151880000Y-100017000D03*
%TO.P,J1,B7,DN2*%
%TO.N,EXT_D-*%
X150380000Y-100017000D03*
%TO.P,J1,B8,SBU2*%
%TO.N,unconnected-(J1-SBU2-PadB8)*%
X149380000Y-100017000D03*
D21*
%TO.P,J1,S1,GND*%
%TO.N,GND*%
X146020000Y-100592000D03*
%TO.P,J1,S2,GND*%
X156240000Y-100592000D03*
%TO.P,J1,S3,GND*%
X146020000Y-104522000D03*
%TO.P,J1,S4,GND*%
X156240000Y-104522000D03*
%TD*%
D22*
%TO.P,C5,1*%
%TO.N,VCC_3.3V*%
X142240000Y-67762000D03*
%TO.P,C5,2*%
%TO.N,GND*%
X142240000Y-66802000D03*
%TD*%
D14*
%TO.P,SW2,1*%
%TO.N,GND*%
X143050000Y-93400000D03*
%TO.P,SW2,2*%
X149050000Y-93400000D03*
%TO.P,SW2,3*%
%TO.N,BTN_BOOT*%
X143050000Y-97100000D03*
%TO.P,SW2,4*%
X149050000Y-97100000D03*
%TD*%
D23*
%TO.P,U1,1,GND*%
%TO.N,GND*%
X144130000Y-66440000D03*
%TO.P,U1,2,GND*%
X144130000Y-67290000D03*
%TO.P,U1,3,3V3*%
%TO.N,VCC_3.3V*%
X144130000Y-68140000D03*
%TO.P,U1,4,IO0*%
%TO.N,BTN_BOOT*%
X144130000Y-68990000D03*
%TO.P,U1,5,IO1*%
%TO.N,1*%
X144130000Y-69840000D03*
%TO.P,U1,6,IO2*%
%TO.N,2*%
X144130000Y-70690000D03*
%TO.P,U1,7,IO3*%
%TO.N,3*%
X144130000Y-71540000D03*
%TO.P,U1,8,IO4*%
%TO.N,4*%
X144130000Y-72390000D03*
%TO.P,U1,9,IO5*%
%TO.N,5*%
X144130000Y-73240000D03*
%TO.P,U1,10,IO6*%
%TO.N,6*%
X144130000Y-74090000D03*
%TO.P,U1,11,IO7*%
%TO.N,7*%
X144130000Y-74940000D03*
%TO.P,U1,12,IO8*%
%TO.N,8*%
X144130000Y-75790000D03*
%TO.P,U1,13,IO9*%
%TO.N,9*%
X144130000Y-76640000D03*
%TO.P,U1,14,IO10*%
%TO.N,CS*%
X144130000Y-77490000D03*
%TO.P,U1,15,IO11*%
%TO.N,MOSI*%
X144130000Y-78340000D03*
D24*
%TO.P,U1,16,IO12*%
%TO.N,MISO*%
X145180000Y-79390000D03*
%TO.P,U1,17,IO13*%
%TO.N,SCK*%
X146030000Y-79390000D03*
%TO.P,U1,18,IO14*%
%TO.N,14*%
X146880000Y-79390000D03*
%TO.P,U1,19,IO15*%
%TO.N,15*%
X147730000Y-79390000D03*
%TO.P,U1,20,IO16*%
%TO.N,unconnected-(U1-IO16-Pad20)*%
X148580000Y-79390000D03*
%TO.P,U1,21,IO17*%
%TO.N,TXD1*%
X149430000Y-79390000D03*
%TO.P,U1,22,IO18*%
%TO.N,RXD1*%
X150280000Y-79390000D03*
%TO.P,U1,23,USB_D-*%
%TO.N,D-*%
X151130000Y-79390000D03*
%TO.P,U1,24,USB_D+*%
%TO.N,D+*%
X151980000Y-79390000D03*
%TO.P,U1,25,IO21*%
%TO.N,unconnected-(U1-IO21-Pad25)*%
X152830000Y-79390000D03*
%TO.P,U1,26,IO26*%
%TO.N,unconnected-(U1-IO26-Pad26)*%
X153680000Y-79390000D03*
%TO.P,U1,27,IO47*%
%TO.N,unconnected-(U1-IO47-Pad27)*%
X154530000Y-79390000D03*
%TO.P,U1,28,IO33*%
%TO.N,unconnected-(U1-IO33-Pad28)*%
X155380000Y-79390000D03*
%TO.P,U1,29,IO34*%
%TO.N,unconnected-(U1-IO34-Pad29)*%
X156230000Y-79390000D03*
%TO.P,U1,30,IO48*%
%TO.N,unconnected-(U1-IO48-Pad30)*%
X157080000Y-79390000D03*
D23*
%TO.P,U1,31,IO35*%
%TO.N,unconnected-(U1-IO35-Pad31)*%
X158130000Y-78340000D03*
%TO.P,U1,32,IO36*%
%TO.N,unconnected-(U1-IO36-Pad32)*%
X158130000Y-77490000D03*
%TO.P,U1,33,IO37*%
%TO.N,unconnected-(U1-IO37-Pad33)*%
X158130000Y-76640000D03*
%TO.P,U1,34,IO38*%
%TO.N,unconnected-(U1-IO38-Pad34)*%
X158130000Y-75790000D03*
%TO.P,U1,35,IO39*%
%TO.N,unconnected-(U1-IO39-Pad35)*%
X158130000Y-74940000D03*
%TO.P,U1,36,IO40*%
%TO.N,unconnected-(U1-IO40-Pad36)*%
X158130000Y-74090000D03*
%TO.P,U1,37,IO41*%
%TO.N,unconnected-(U1-IO41-Pad37)*%
X158130000Y-73240000D03*
%TO.P,U1,38,IO42*%
%TO.N,unconnected-(U1-IO42-Pad38)*%
X158130000Y-72390000D03*
%TO.P,U1,39,TXD0*%
%TO.N,unconnected-(U1-TXD0-Pad39)*%
X158130000Y-71540000D03*
%TO.P,U1,40,RXD0*%
%TO.N,unconnected-(U1-RXD0-Pad40)*%
X158130000Y-70690000D03*
%TO.P,U1,41,IO45*%
%TO.N,unconnected-(U1-IO45-Pad41)*%
X158130000Y-69840000D03*
%TO.P,U1,42,GND*%
%TO.N,GND*%
X158130000Y-68990000D03*
%TO.P,U1,43,GND*%
X158130000Y-68140000D03*
%TO.P,U1,44,IO46*%
%TO.N,unconnected-(U1-IO46-Pad44)*%
X158130000Y-67290000D03*
%TO.P,U1,45,EN*%
%TO.N,BTN_RST*%
X158130000Y-66440000D03*
D24*
%TO.P,U1,46,GND*%
%TO.N,GND*%
X157080000Y-65390000D03*
%TO.P,U1,47,GND*%
X156230000Y-65390000D03*
%TO.P,U1,48,GND*%
X155380000Y-65390000D03*
%TO.P,U1,49,GND*%
X154530000Y-65390000D03*
%TO.P,U1,50,GND*%
X153680000Y-65390000D03*
%TO.P,U1,51,GND*%
X152830000Y-65390000D03*
%TO.P,U1,52,GND*%
X151980000Y-65390000D03*
%TO.P,U1,53,GND*%
X151130000Y-65390000D03*
%TO.P,U1,54,GND*%
X150280000Y-65390000D03*
%TO.P,U1,55,GND*%
X149430000Y-65390000D03*
%TO.P,U1,56,GND*%
X148580000Y-65390000D03*
%TO.P,U1,57,GND*%
X147730000Y-65390000D03*
%TO.P,U1,58,GND*%
X146880000Y-65390000D03*
%TO.P,U1,59,GND*%
X146030000Y-65390000D03*
%TO.P,U1,60,GND*%
X145180000Y-65390000D03*
D25*
%TO.P,U1,61,GND*%
X149480000Y-70740000D03*
D26*
X149480000Y-72390000D03*
X149480000Y-74040000D03*
X151130000Y-70740000D03*
X151130000Y-72390000D03*
X151130000Y-74040000D03*
X152780000Y-70740000D03*
X152780000Y-72390000D03*
X152780000Y-74040000D03*
D27*
%TO.P,U1,62,GND*%
X144130000Y-65390000D03*
%TO.P,U1,63,GND*%
X144130000Y-79390000D03*
%TO.P,U1,64,GND*%
X158130000Y-79390000D03*
%TO.P,U1,65,GND*%
X158130000Y-65390000D03*
%TD*%
D28*
%TO.P,C1,1*%
%TO.N,VCC_5V*%
X152654000Y-87897000D03*
%TO.P,C1,2*%
%TO.N,GND*%
X152654000Y-86347000D03*
%TD*%
D29*
%TO.P,U3,1,Vin*%
%TO.N,VCC_5V*%
X150997500Y-87310000D03*
%TO.P,U3,2,GND*%
%TO.N,GND*%
X150997500Y-86360000D03*
%TO.P,U3,3,EN*%
%TO.N,VCC_5V*%
X150997500Y-85410000D03*
%TO.P,U3,4,FB*%
%TO.N,VCC_3.3V*%
X148722500Y-85410000D03*
%TO.P,U3,5,SW*%
%TO.N,Net-(U3-SW)*%
X148722500Y-87310000D03*
%TD*%
D30*
%TO.N,GND*%
X153500000Y-104522000D03*
X150000000Y-102500000D03*
X148000000Y-95500000D03*
X145500000Y-98000000D03*
X157500000Y-92000000D03*
X155000000Y-90500000D03*
X145000000Y-85000000D03*
X155000000Y-81000000D03*
X151500000Y-82500000D03*
X156000000Y-78000000D03*
X150500000Y-78000000D03*
X145500000Y-78000000D03*
%TO.N,1*%
X147563638Y-69812064D03*
%TO.N,2*%
X147574000Y-70612000D03*
%TO.N,8*%
X147574000Y-75184000D03*
%TO.N,4*%
X147574000Y-72136000D03*
%TO.N,5*%
X147574000Y-72898000D03*
%TO.N,7*%
X147574000Y-74422000D03*
%TO.N,6*%
X147574000Y-73660000D03*
%TO.N,GND*%
X157480000Y-93472000D03*
X155000000Y-94150265D03*
X142748000Y-94996000D03*
X142621000Y-88519000D03*
X145542000Y-67271997D03*
X142621000Y-81661000D03*
X148830000Y-81788000D03*
%TO.N,Net-(J1-CC2)*%
X152908000Y-101600000D03*
X142748000Y-103886000D03*
%TO.N,VCC_5V*%
X147320000Y-97282000D03*
X154940000Y-98552000D03*
X153670000Y-84328000D03*
X149379750Y-88927750D03*
%TO.N,VCC_3.3V*%
X145542000Y-68072000D03*
X147574000Y-81534000D03*
%TO.N,BTN_RST*%
X156718000Y-66548000D03*
X153162000Y-94996000D03*
%TO.N,BTN_BOOT*%
X149225000Y-94869000D03*
X145542000Y-68914558D03*
%TO.N,9*%
X147574000Y-75946000D03*
%TO.N,3*%
X147574000Y-71374000D03*
%TO.N,RXD1*%
X150280000Y-80606000D03*
%TO.N,TXD1*%
X149430000Y-80694000D03*
%TD*%
D31*
%TO.N,GND*%
X153500000Y-104522000D02*
X156240000Y-104522000D01*
X154106000Y-93400000D02*
X153210000Y-93400000D01*
X155000000Y-94150265D02*
X154856265Y-94150265D01*
X154856265Y-94150265D02*
X154106000Y-93400000D01*
%TO.N,D-*%
X151130000Y-79390000D02*
X151130000Y-79590000D01*
X151130000Y-79590000D02*
X154918000Y-83378000D01*
X154918000Y-83378000D02*
X155000000Y-83378000D01*
%TO.N,D+*%
X154686000Y-82296000D02*
X156318000Y-82296000D01*
X156318000Y-82296000D02*
X157400000Y-83378000D01*
%TO.N,VCC_5V*%
X153670000Y-84328000D02*
X155000000Y-84328000D01*
%TO.N,GND*%
X159026000Y-84328000D02*
X157400000Y-84328000D01*
%TO.N,EXT_D+*%
X156427000Y-95902100D02*
X156427000Y-86251000D01*
X156427000Y-86251000D02*
X157400000Y-85278000D01*
X151880000Y-100017000D02*
X151880000Y-99190000D01*
X151880000Y-99190000D02*
X152010000Y-99060000D01*
X152010000Y-99060000D02*
X153269100Y-99060000D01*
X153269100Y-99060000D02*
X156427000Y-95902100D01*
X157400000Y-85278000D02*
X157275000Y-85278000D01*
%TO.N,EXT_D-*%
X156026000Y-95736000D02*
X156026000Y-86304000D01*
X156026000Y-86304000D02*
X155000000Y-85278000D01*
X156026000Y-95736000D02*
X153103000Y-98659000D01*
X153103000Y-98659000D02*
X151892000Y-98659000D01*
%TO.N,14*%
X140851000Y-100449000D02*
X139700000Y-101600000D01*
X146880000Y-80196000D02*
X141986000Y-85090000D01*
X146880000Y-79390000D02*
X146880000Y-80196000D01*
X141986000Y-85090000D02*
X141986000Y-87376000D01*
X140851000Y-88511000D02*
X140851000Y-100449000D01*
X141986000Y-87376000D02*
X140851000Y-88511000D01*
%TO.N,15*%
X141478000Y-102362000D02*
X139700000Y-104140000D01*
X147730000Y-80264000D02*
X142494000Y-85500000D01*
X147730000Y-79390000D02*
X147730000Y-80264000D01*
X141478000Y-88646000D02*
X141478000Y-102362000D01*
X142494000Y-87630000D02*
X141478000Y-88646000D01*
X142494000Y-85500000D02*
X142494000Y-87630000D01*
%TO.N,1*%
X147563638Y-69812064D02*
X147535702Y-69840000D01*
X147535702Y-69840000D02*
X144130000Y-69840000D01*
%TO.N,2*%
X144130000Y-70690000D02*
X147496000Y-70690000D01*
X147496000Y-70690000D02*
X147574000Y-70612000D01*
%TO.N,8*%
X147066000Y-75184000D02*
X147574000Y-75184000D01*
X146460000Y-75790000D02*
X147066000Y-75184000D01*
X144130000Y-75790000D02*
X146460000Y-75790000D01*
%TO.N,4*%
X144130000Y-72390000D02*
X146812000Y-72390000D01*
X146812000Y-72390000D02*
X147066000Y-72136000D01*
X147066000Y-72136000D02*
X147574000Y-72136000D01*
%TO.N,5*%
X147066000Y-72898000D02*
X147574000Y-72898000D01*
X144130000Y-73240000D02*
X146724000Y-73240000D01*
X146724000Y-73240000D02*
X147066000Y-72898000D01*
%TO.N,7*%
X144130000Y-74940000D02*
X146548000Y-74940000D01*
X146548000Y-74940000D02*
X147066000Y-74422000D01*
X147066000Y-74422000D02*
X147574000Y-74422000D01*
%TO.N,6*%
X146636000Y-74090000D02*
X147066000Y-73660000D01*
X147066000Y-73660000D02*
X147574000Y-73660000D01*
X144130000Y-74090000D02*
X146636000Y-74090000D01*
%TO.N,GND*%
X158130000Y-79390000D02*
X159258000Y-80518000D01*
X145448000Y-100020000D02*
X146020000Y-100592000D01*
X146595000Y-100017000D02*
X146020000Y-100592000D01*
X160540000Y-66040000D02*
X162560000Y-66040000D01*
X145542000Y-67271997D02*
X144710003Y-66440000D01*
X155665000Y-100017000D02*
X156240000Y-100592000D01*
X148830000Y-81788000D02*
X148830000Y-82686000D01*
X143002000Y-100020000D02*
X145448000Y-100020000D01*
X144130000Y-67290000D02*
X144130000Y-66440000D01*
X142621000Y-80899000D02*
X144130000Y-79390000D01*
X151130000Y-74040000D02*
X152780000Y-74040000D01*
X162560000Y-68580000D02*
X160580000Y-68580000D01*
X159210000Y-93400000D02*
X159210000Y-93950000D01*
X159258000Y-80518000D02*
X159258000Y-84096000D01*
X159210000Y-93950000D02*
X156240000Y-96920000D01*
X159210000Y-93400000D02*
X157552000Y-93400000D01*
X142494000Y-101852000D02*
X141873000Y-102473000D01*
X149480000Y-70740000D02*
X149480000Y-72390000D01*
X159210000Y-93400000D02*
X161980000Y-93400000D01*
X149480000Y-70740000D02*
X151130000Y-70740000D01*
X146020000Y-104522000D02*
X153500000Y-104522000D01*
X139700000Y-66040000D02*
X142040000Y-66040000D01*
X148778000Y-82738000D02*
X148778000Y-83312000D01*
X144130000Y-65390000D02*
X158130000Y-65390000D01*
X144130000Y-66440000D02*
X144130000Y-65390000D01*
X141873000Y-104140000D02*
X142255000Y-104522000D01*
X144130000Y-66440000D02*
X142440000Y-66440000D01*
X152654000Y-84836000D02*
X152654000Y-86347000D01*
X142240000Y-66802000D02*
X142240000Y-66640000D01*
X151130000Y-72390000D02*
X151130000Y-70740000D01*
X159026000Y-84328000D02*
X159210000Y-84512000D01*
X157552000Y-93400000D02*
X157480000Y-93472000D01*
X142494000Y-101852000D02*
X143510000Y-101852000D01*
X153670000Y-92940000D02*
X153210000Y-93400000D01*
X141986000Y-99004000D02*
X143002000Y-100020000D01*
X141986000Y-95758000D02*
X141986000Y-99004000D01*
X143510000Y-101852000D02*
X144760000Y-101852000D01*
X152654000Y-86347000D02*
X153670000Y-87363000D01*
X151130000Y-70740000D02*
X151130000Y-65390000D01*
X141986000Y-95758000D02*
X142748000Y-94996000D01*
X154330000Y-100017000D02*
X155665000Y-100017000D01*
X149480000Y-72390000D02*
X151130000Y-72390000D01*
X148830000Y-82686000D02*
X148778000Y-82738000D01*
X153670000Y-87363000D02*
X153670000Y-92940000D01*
X160140000Y-68140000D02*
X158130000Y-68140000D01*
X152780000Y-70740000D02*
X151130000Y-70740000D01*
X162178000Y-104522000D02*
X162560000Y-104140000D01*
X151130000Y-83312000D02*
X152654000Y-84836000D01*
X156240000Y-104522000D02*
X162178000Y-104522000D01*
X158130000Y-68990000D02*
X158130000Y-68140000D01*
X156240000Y-96920000D02*
X156240000Y-100592000D01*
X162560000Y-66040000D02*
X162560000Y-68580000D01*
X156240000Y-100592000D02*
X158686000Y-100592000D01*
X152641000Y-86360000D02*
X152654000Y-86347000D01*
X142621000Y-81661000D02*
X142621000Y-80899000D01*
X156240000Y-104522000D02*
X159312340Y-104522000D01*
X158686000Y-100592000D02*
X159258000Y-100020000D01*
X151130000Y-74040000D02*
X151130000Y-72390000D01*
X144710003Y-66440000D02*
X144130000Y-66440000D01*
X141873000Y-102473000D02*
X141873000Y-104140000D01*
X160580000Y-68580000D02*
X160140000Y-68140000D01*
X158130000Y-65390000D02*
X159890000Y-65390000D01*
X149480000Y-74040000D02*
X151130000Y-74040000D01*
X142255000Y-104522000D02*
X146020000Y-104522000D01*
X142440000Y-66440000D02*
X142040000Y-66040000D01*
X151130000Y-72390000D02*
X152780000Y-72390000D01*
X143050000Y-93400000D02*
X142820000Y-93400000D01*
X142621000Y-88519000D02*
X141986000Y-89154000D01*
X141986000Y-94234000D02*
X141986000Y-95758000D01*
X159210000Y-84512000D02*
X159210000Y-93400000D01*
X159258000Y-84096000D02*
X159026000Y-84328000D01*
X142820000Y-93400000D02*
X141986000Y-94234000D01*
X152780000Y-74040000D02*
X152780000Y-72390000D01*
X149050000Y-93400000D02*
X153210000Y-93400000D01*
X161980000Y-93400000D02*
X162560000Y-93980000D01*
X159890000Y-65390000D02*
X160540000Y-66040000D01*
X149480000Y-72390000D02*
X149480000Y-74040000D01*
X147930000Y-100017000D02*
X146595000Y-100017000D01*
X142240000Y-66640000D02*
X142440000Y-66440000D01*
X141986000Y-89154000D02*
X141986000Y-94234000D01*
X148778000Y-83312000D02*
X151130000Y-83312000D01*
X150997500Y-86360000D02*
X152641000Y-86360000D01*
X144760000Y-101852000D02*
X146020000Y-100592000D01*
%TO.N,Net-(J1-CC2)*%
X152880000Y-100017000D02*
X152880000Y-101572000D01*
X142494000Y-103632000D02*
X142748000Y-103886000D01*
X152880000Y-101572000D02*
X152908000Y-101600000D01*
X142494000Y-102872000D02*
X142494000Y-103632000D01*
%TO.N,Net-(J1-CC1)*%
X143510000Y-102872000D02*
X147852000Y-102872000D01*
X147852000Y-102872000D02*
X149880000Y-100844000D01*
X149880000Y-100844000D02*
X149880000Y-100017000D01*
%TO.N,VCC_5V*%
X150997500Y-87310000D02*
X150335001Y-87310000D01*
X152067000Y-87310000D02*
X152654000Y-87897000D01*
X150335001Y-85410000D02*
X150997500Y-85410000D01*
X147320000Y-97282000D02*
X147320000Y-98552000D01*
X150034000Y-85711001D02*
X150335001Y-85410000D01*
X153530000Y-99366200D02*
X154344200Y-98552000D01*
X148336000Y-98552000D02*
X148730000Y-98946000D01*
X148730000Y-98946000D02*
X148730000Y-100017000D01*
X150997500Y-87310000D02*
X152067000Y-87310000D01*
X153530000Y-100017000D02*
X153530000Y-99366200D01*
X147320000Y-98552000D02*
X148336000Y-98552000D01*
X150335001Y-87310000D02*
X150034000Y-87008999D01*
X150034000Y-87008999D02*
X150034000Y-85711001D01*
X154344200Y-98552000D02*
X154940000Y-98552000D01*
X150997500Y-87310000D02*
X149379750Y-88927750D01*
%TO.N,VCC_3.3V*%
X146812000Y-85297500D02*
X146812000Y-83378000D01*
X145542000Y-68072000D02*
X145474000Y-68140000D01*
X139700000Y-68580000D02*
X140140000Y-68140000D01*
X146812000Y-83378000D02*
X146878000Y-83312000D01*
X147574000Y-81920000D02*
X146878000Y-82616000D01*
X146924500Y-85410000D02*
X146812000Y-85297500D01*
X149256943Y-94051000D02*
X150368000Y-95162057D01*
X146812000Y-85297500D02*
X145911000Y-86198500D01*
X142240000Y-67762000D02*
X142240000Y-68140000D01*
X150368000Y-95162057D02*
X150368000Y-96012000D01*
X148249000Y-94051000D02*
X149256943Y-94051000D01*
X146878000Y-82616000D02*
X146878000Y-83312000D01*
X145911000Y-86198500D02*
X145911000Y-91713000D01*
X145911000Y-91713000D02*
X148249000Y-94051000D01*
X150368000Y-96012000D02*
X151892000Y-96012000D01*
X140140000Y-68140000D02*
X142240000Y-68140000D01*
X145474000Y-68140000D02*
X144130000Y-68140000D01*
X148722500Y-85410000D02*
X146924500Y-85410000D01*
X142240000Y-68140000D02*
X144130000Y-68140000D01*
X147574000Y-81534000D02*
X147574000Y-81920000D01*
%TO.N,D+*%
X151980000Y-79590000D02*
X154686000Y-82296000D01*
X151980000Y-79390000D02*
X151980000Y-79590000D01*
%TO.N,Net-(U3-SW)*%
X146924500Y-87310000D02*
X146812000Y-87422500D01*
X148722500Y-87310000D02*
X146924500Y-87310000D01*
%TO.N,BTN_RST*%
X153210000Y-95044000D02*
X153162000Y-94996000D01*
X151960000Y-97100000D02*
X151892000Y-97032000D01*
X159258000Y-97148000D02*
X159210000Y-97100000D01*
X153210000Y-97100000D02*
X151960000Y-97100000D01*
X153210000Y-97100000D02*
X153210000Y-95044000D01*
X159258000Y-99060000D02*
X159258000Y-97148000D01*
X158130000Y-66440000D02*
X156826000Y-66440000D01*
X156826000Y-66440000D02*
X156718000Y-66548000D01*
%TO.N,BTN_BOOT*%
X141830000Y-68990000D02*
X144130000Y-68990000D01*
X145034000Y-68990000D02*
X144130000Y-68990000D01*
X149050000Y-95044000D02*
X149050000Y-97100000D01*
X150300000Y-97100000D02*
X150368000Y-97032000D01*
X148631000Y-96681000D02*
X149050000Y-97100000D01*
X143002000Y-99060000D02*
X143002000Y-97148000D01*
X149225000Y-94869000D02*
X149050000Y-95044000D01*
X143050000Y-97100000D02*
X143469000Y-96681000D01*
X143002000Y-97148000D02*
X143050000Y-97100000D01*
X145542000Y-68914558D02*
X145109442Y-68914558D01*
X149050000Y-97100000D02*
X150300000Y-97100000D01*
X139700000Y-71120000D02*
X141830000Y-68990000D01*
X143469000Y-96681000D02*
X148631000Y-96681000D01*
X145109442Y-68914558D02*
X145034000Y-68990000D01*
%TO.N,9*%
X147066000Y-75946000D02*
X147574000Y-75946000D01*
X144130000Y-76640000D02*
X146372000Y-76640000D01*
X146372000Y-76640000D02*
X147066000Y-75946000D01*
%TO.N,3*%
X147408000Y-71540000D02*
X147574000Y-71374000D01*
X144130000Y-71540000D02*
X147408000Y-71540000D01*
%TO.N,EXT_D+*%
X159004000Y-102616000D02*
X162560000Y-99060000D01*
X150929000Y-100893000D02*
X151831000Y-100893000D01*
X150880000Y-100844000D02*
X152652000Y-102616000D01*
X151880000Y-100844000D02*
X151880000Y-100017000D01*
X151831000Y-100893000D02*
X151880000Y-100844000D01*
X150880000Y-100844000D02*
X150929000Y-100893000D01*
X152652000Y-102616000D02*
X159004000Y-102616000D01*
X150880000Y-100017000D02*
X150880000Y-100844000D01*
%TO.N,EXT_D-*%
X150380000Y-100911100D02*
X152592900Y-103124000D01*
X161036000Y-103124000D02*
X162560000Y-101600000D01*
X151892000Y-98659000D02*
X150911000Y-98659000D01*
X151380000Y-99064000D02*
X151785000Y-98659000D01*
X150380000Y-99190000D02*
X150380000Y-100017000D01*
X151380000Y-100017000D02*
X151380000Y-99064000D01*
X152592900Y-103124000D02*
X161036000Y-103124000D01*
X150911000Y-98659000D02*
X150380000Y-99190000D01*
X150380000Y-100017000D02*
X150380000Y-100911100D01*
X151785000Y-98659000D02*
X151892000Y-98659000D01*
%TO.N,CS*%
X140950000Y-77490000D02*
X144130000Y-77490000D01*
X139700000Y-78740000D02*
X140950000Y-77490000D01*
%TO.N,MOSI*%
X140970000Y-82550000D02*
X139700000Y-83820000D01*
X140970000Y-80881536D02*
X140970000Y-82550000D01*
X143511536Y-78340000D02*
X140970000Y-80881536D01*
X144130000Y-78340000D02*
X143511536Y-78340000D01*
%TO.N,MISO*%
X145180000Y-80118000D02*
X140970000Y-84328000D01*
X140970000Y-85090000D02*
X139700000Y-86360000D01*
X140970000Y-84328000D02*
X140970000Y-85090000D01*
X145180000Y-79390000D02*
X145180000Y-80118000D01*
%TO.N,SCK*%
X141478000Y-87122000D02*
X141478000Y-84796000D01*
X139700000Y-88900000D02*
X141478000Y-87122000D01*
X141478000Y-84796000D02*
X146030000Y-80244000D01*
X146030000Y-80244000D02*
X146030000Y-79390000D01*
%TO.N,RXD1*%
X150280000Y-80606000D02*
X150280000Y-79390000D01*
%TO.N,TXD1*%
X149430000Y-80694000D02*
X149430000Y-79390000D01*
%TD*%
%TA.AperFunction,Conductor*%
%TO.N,GND*%
G36*
X150139783Y-101535964D02*
G01*
X150184130Y-101564465D01*
X152108039Y-103488374D01*
X152108049Y-103488385D01*
X152112379Y-103492715D01*
X152112380Y-103492716D01*
X152224184Y-103604520D01*
X152289968Y-103642500D01*
X152361115Y-103683577D01*
X152513842Y-103724500D01*
X152513843Y-103724500D01*
X154526000Y-103724500D01*
X154593039Y-103744185D01*
X154638794Y-103796989D01*
X154650000Y-103848500D01*
X154650000Y-104272000D01*
X157830000Y-104272000D01*
X157830000Y-103848500D01*
X157849685Y-103781461D01*
X157902489Y-103735706D01*
X157954000Y-103724500D01*
X160949332Y-103724500D01*
X160956939Y-103724500D01*
X160956943Y-103724501D01*
X161113797Y-103724501D01*
X161180836Y-103744186D01*
X161226591Y-103796990D01*
X161233997Y-103848501D01*
X161236534Y-103866148D01*
X161236269Y-103867899D01*
X161210000Y-104033753D01*
X161210000Y-104246246D01*
X161243242Y-104456127D01*
X161243242Y-104456130D01*
X161308904Y-104658217D01*
X161405375Y-104847550D01*
X161444728Y-104901716D01*
X162077037Y-104269408D01*
X162094075Y-104332993D01*
X162159901Y-104447007D01*
X162252993Y-104540099D01*
X162367007Y-104605925D01*
X162430590Y-104622962D01*
X161798282Y-105255269D01*
X161800526Y-105283770D01*
X161786162Y-105352147D01*
X161737112Y-105401905D01*
X161676908Y-105417500D01*
X157954000Y-105417500D01*
X157886961Y-105397815D01*
X157841206Y-105345011D01*
X157830000Y-105293500D01*
X157830000Y-104772000D01*
X154650000Y-104772000D01*
X154650000Y-105293500D01*
X154630315Y-105360539D01*
X154577511Y-105406294D01*
X154526000Y-105417500D01*
X147734000Y-105417500D01*
X147666961Y-105397815D01*
X147621206Y-105345011D01*
X147610000Y-105293500D01*
X147610000Y-104772000D01*
X144430000Y-104772000D01*
X144430000Y-105293500D01*
X144410315Y-105360539D01*
X144357511Y-105406294D01*
X144306000Y-105417500D01*
X140620914Y-105417500D01*
X140553875Y-105397815D01*
X140508120Y-105345011D01*
X140498176Y-105275853D01*
X140527201Y-105212297D01*
X140548029Y-105193182D01*
X140579785Y-105170109D01*
X140579783Y-105170109D01*
X140579792Y-105170104D01*
X140730104Y-105019792D01*
X140730106Y-105019788D01*
X140730109Y-105019786D01*
X140855048Y-104847820D01*
X140855047Y-104847820D01*
X140855051Y-104847816D01*
X140951557Y-104658412D01*
X141017246Y-104456243D01*
X141050500Y-104246287D01*
X141050500Y-104033713D01*
X141017246Y-103823757D01*
X141003506Y-103781473D01*
X141001512Y-103711635D01*
X141033755Y-103655478D01*
X141506846Y-103182387D01*
X141568167Y-103148904D01*
X141637859Y-103153888D01*
X141693792Y-103195760D01*
X141713600Y-103235473D01*
X141721131Y-103261393D01*
X141802865Y-103399598D01*
X141857182Y-103453915D01*
X141871888Y-103480846D01*
X141888477Y-103506660D01*
X141889368Y-103512859D01*
X141890666Y-103515236D01*
X141893500Y-103541595D01*
X141893500Y-103545330D01*
X141893499Y-103545348D01*
X141893499Y-103711054D01*
X141893498Y-103711054D01*
X141893499Y-103711057D01*
X141930327Y-103848500D01*
X141934424Y-103863787D01*
X141937533Y-103871293D01*
X141934830Y-103872412D01*
X141947500Y-103919660D01*
X141947500Y-103964846D01*
X141978261Y-104119489D01*
X141978264Y-104119501D01*
X142038602Y-104265172D01*
X142038609Y-104265185D01*
X142126210Y-104396288D01*
X142126213Y-104396292D01*
X142237707Y-104507786D01*
X142237711Y-104507789D01*
X142368814Y-104595390D01*
X142368827Y-104595397D01*
X142476510Y-104640000D01*
X142514503Y-104655737D01*
X142669153Y-104686499D01*
X142669156Y-104686500D01*
X142669158Y-104686500D01*
X142826844Y-104686500D01*
X142826845Y-104686499D01*
X142981497Y-104655737D01*
X143127179Y-104595394D01*
X143258289Y-104507789D01*
X143369789Y-104396289D01*
X143457394Y-104265179D01*
X143517737Y-104119497D01*
X143548500Y-103964842D01*
X143548500Y-103807158D01*
X143548500Y-103807155D01*
X143548499Y-103807153D01*
X143545225Y-103790690D01*
X143551452Y-103721099D01*
X143594315Y-103665921D01*
X143660205Y-103642677D01*
X143666842Y-103642499D01*
X143759168Y-103642499D01*
X143759180Y-103642499D01*
X143795204Y-103639665D01*
X143949393Y-103594869D01*
X144087598Y-103513135D01*
X144087874Y-103512859D01*
X144091915Y-103508819D01*
X144118842Y-103494115D01*
X144144661Y-103477523D01*
X144150861Y-103476631D01*
X144153238Y-103475334D01*
X144179596Y-103472500D01*
X144306000Y-103472500D01*
X144373039Y-103492185D01*
X144418794Y-103544989D01*
X144430000Y-103596500D01*
X144430000Y-104272000D01*
X147610000Y-104272000D01*
X147610000Y-103596500D01*
X147612550Y-103587814D01*
X147611262Y-103578853D01*
X147622240Y-103554812D01*
X147629685Y-103529461D01*
X147636525Y-103523533D01*
X147640287Y-103515297D01*
X147662521Y-103501007D01*
X147682489Y-103483706D01*
X147693003Y-103481418D01*
X147699065Y-103477523D01*
X147734000Y-103472500D01*
X147765331Y-103472500D01*
X147765347Y-103472501D01*
X147772943Y-103472501D01*
X147931054Y-103472501D01*
X147931057Y-103472501D01*
X148083785Y-103431577D01*
X148139174Y-103399598D01*
X148220716Y-103352520D01*
X148332520Y-103240716D01*
X148332520Y-103240714D01*
X148342724Y-103230511D01*
X148342727Y-103230506D01*
X150008772Y-101564462D01*
X150070091Y-101530980D01*
X150139783Y-101535964D01*
G37*
%TD.AperFunction*%
%TA.AperFunction,Conductor*%
G36*
X163675270Y-104901717D02*
G01*
X163703771Y-104899474D01*
X163772148Y-104913838D01*
X163821905Y-104962890D01*
X163837500Y-105023092D01*
X163837500Y-105293500D01*
X163817815Y-105360539D01*
X163765011Y-105406294D01*
X163713500Y-105417500D01*
X163443092Y-105417500D01*
X163376053Y-105397815D01*
X163330298Y-105345011D01*
X163319474Y-105283771D01*
X163321717Y-105255270D01*
X162689408Y-104622962D01*
X162752993Y-104605925D01*
X162867007Y-104540099D01*
X162960099Y-104447007D01*
X163025925Y-104332993D01*
X163042962Y-104269409D01*
X163675270Y-104901717D01*
G37*
%TD.AperFunction*%
%TA.AperFunction,Conductor*%
G36*
X163799919Y-102431987D02*
G01*
X163834277Y-102492825D01*
X163837500Y-102520913D01*
X163837500Y-103256907D01*
X163817815Y-103323946D01*
X163765011Y-103369701D01*
X163703771Y-103380525D01*
X163675270Y-103378281D01*
X163042962Y-104010590D01*
X163025925Y-103947007D01*
X162960099Y-103832993D01*
X162867007Y-103739901D01*
X162752993Y-103674075D01*
X162689408Y-103657037D01*
X163321716Y-103024728D01*
X163267547Y-102985373D01*
X163267547Y-102985372D01*
X163258500Y-102980763D01*
X163207706Y-102932788D01*
X163190912Y-102864966D01*
X163213451Y-102798832D01*
X163258508Y-102759793D01*
X163267816Y-102755051D01*
X163347007Y-102697515D01*
X163439786Y-102630109D01*
X163439788Y-102630106D01*
X163439792Y-102630104D01*
X163590104Y-102479792D01*
X163613181Y-102448028D01*
X163668510Y-102405363D01*
X163738123Y-102399382D01*
X163799919Y-102431987D01*
G37*
%TD.AperFunction*%
%TA.AperFunction,Conductor*%
G36*
X146468993Y-97301185D02*
G01*
X146514748Y-97353989D01*
X146523571Y-97381309D01*
X146550261Y-97515489D01*
X146550264Y-97515501D01*
X146610602Y-97661172D01*
X146610609Y-97661185D01*
X146698602Y-97792874D01*
X146719480Y-97859551D01*
X146719500Y-97861722D01*
X146719500Y-98472942D01*
X146719500Y-98472943D01*
X146719500Y-98631057D01*
X146755578Y-98765700D01*
X146760423Y-98783783D01*
X146760423Y-98783784D01*
X146830984Y-98906001D01*
X146847456Y-98973901D01*
X146824603Y-99039928D01*
X146769681Y-99083118D01*
X146723596Y-99092000D01*
X146270000Y-99092000D01*
X146270000Y-100468000D01*
X146250315Y-100535039D01*
X146197511Y-100580794D01*
X146146000Y-100592000D01*
X146020000Y-100592000D01*
X146020000Y-100718000D01*
X146000315Y-100785039D01*
X145947511Y-100830794D01*
X145896000Y-100842000D01*
X144430000Y-100842000D01*
X144430000Y-101259107D01*
X144410315Y-101326146D01*
X144357511Y-101371901D01*
X144288353Y-101381845D01*
X144224797Y-101352820D01*
X144206102Y-101330419D01*
X144205516Y-101330874D01*
X144200731Y-101324705D01*
X144087294Y-101211268D01*
X144087285Y-101211261D01*
X143949191Y-101129593D01*
X143949188Y-101129592D01*
X143795130Y-101084834D01*
X143760000Y-101082068D01*
X143760000Y-101728000D01*
X143740315Y-101795039D01*
X143687511Y-101840794D01*
X143636000Y-101852000D01*
X143510000Y-101852000D01*
X143510000Y-101977500D01*
X143507514Y-101985966D01*
X143508802Y-101994697D01*
X143497820Y-102018977D01*
X143490315Y-102044539D01*
X143483647Y-102050316D01*
X143480010Y-102058359D01*
X143457643Y-102072848D01*
X143437511Y-102090294D01*
X143427234Y-102092549D01*
X143421371Y-102096348D01*
X143387337Y-102101305D01*
X143386455Y-102101499D01*
X143385977Y-102101500D01*
X143260820Y-102101501D01*
X143254706Y-102101981D01*
X143250062Y-102101999D01*
X143250010Y-102101984D01*
X143249607Y-102102000D01*
X142754409Y-102102000D01*
X142744680Y-102101618D01*
X142743186Y-102101500D01*
X142618000Y-102101500D01*
X142550961Y-102081815D01*
X142505206Y-102029011D01*
X142494000Y-101977500D01*
X142494000Y-101852000D01*
X142368000Y-101852000D01*
X142300961Y-101832315D01*
X142255206Y-101779511D01*
X142244000Y-101728000D01*
X142244000Y-101111462D01*
X142171259Y-101082068D01*
X142744000Y-101082068D01*
X142744000Y-101602000D01*
X143260000Y-101602000D01*
X143260000Y-101082068D01*
X143259999Y-101082068D01*
X143224869Y-101084834D01*
X143224868Y-101084834D01*
X143070812Y-101129592D01*
X143070805Y-101129594D01*
X143065115Y-101132960D01*
X142997390Y-101150138D01*
X142938885Y-101132960D01*
X142933194Y-101129594D01*
X142933187Y-101129592D01*
X142779130Y-101084834D01*
X142744000Y-101082068D01*
X142171259Y-101082068D01*
X142156042Y-101075919D01*
X142150621Y-101071627D01*
X142143853Y-101070206D01*
X142123577Y-101050217D01*
X142101261Y-101032551D01*
X142099020Y-101026009D01*
X142094096Y-101021155D01*
X142083969Y-100982063D01*
X142078622Y-100966451D01*
X142079256Y-100963871D01*
X142078500Y-100960951D01*
X142078500Y-100596434D01*
X142098185Y-100529395D01*
X142150989Y-100483640D01*
X142220147Y-100473696D01*
X142283703Y-100502721D01*
X142309233Y-100533314D01*
X142322281Y-100555377D01*
X142322285Y-100555383D01*
X142436616Y-100669714D01*
X142436625Y-100669721D01*
X142575804Y-100752031D01*
X142731089Y-100797145D01*
X142752000Y-100798789D01*
X143252000Y-100798789D01*
X143272910Y-100797145D01*
X143428195Y-100752031D01*
X143567374Y-100669721D01*
X143567383Y-100669714D01*
X143681714Y-100555383D01*
X143681721Y-100555374D01*
X143764031Y-100416195D01*
X143806504Y-100270000D01*
X143252000Y-100270000D01*
X143252000Y-100798789D01*
X142752000Y-100798789D01*
X142752000Y-100144000D01*
X142771685Y-100076961D01*
X142824489Y-100031206D01*
X142876000Y-100020000D01*
X143002000Y-100020000D01*
X143002000Y-99964500D01*
X143021685Y-99897461D01*
X143074489Y-99851706D01*
X143126000Y-99840500D01*
X143236682Y-99840500D01*
X143236690Y-99840500D01*
X143272993Y-99837643D01*
X143272995Y-99837642D01*
X143272997Y-99837642D01*
X143428389Y-99792496D01*
X143428389Y-99792495D01*
X143428395Y-99792494D01*
X143437233Y-99787267D01*
X143500352Y-99770000D01*
X143806504Y-99770000D01*
X143764031Y-99623804D01*
X143752368Y-99604083D01*
X143752154Y-99603722D01*
X143736976Y-99544155D01*
X144430000Y-99544155D01*
X144430000Y-100342000D01*
X145770000Y-100342000D01*
X145770000Y-99092000D01*
X144882155Y-99092000D01*
X144822627Y-99098401D01*
X144822620Y-99098403D01*
X144687913Y-99148645D01*
X144687906Y-99148649D01*
X144572812Y-99234809D01*
X144572809Y-99234812D01*
X144486649Y-99349906D01*
X144486645Y-99349913D01*
X144436403Y-99484620D01*
X144436401Y-99484627D01*
X144430000Y-99544155D01*
X143736976Y-99544155D01*
X143734902Y-99536016D01*
X143752089Y-99477369D01*
X143764494Y-99456395D01*
X143809643Y-99300993D01*
X143812500Y-99264690D01*
X143812500Y-98855310D01*
X143809643Y-98819007D01*
X143799908Y-98785501D01*
X143764495Y-98663609D01*
X143764494Y-98663606D01*
X143764494Y-98663605D01*
X143682117Y-98524313D01*
X143682115Y-98524311D01*
X143682112Y-98524307D01*
X143638819Y-98481014D01*
X143605334Y-98419691D01*
X143602500Y-98393333D01*
X143602500Y-98050693D01*
X143622185Y-97983654D01*
X143674989Y-97937899D01*
X143683168Y-97934511D01*
X143792326Y-97893798D01*
X143792326Y-97893797D01*
X143792331Y-97893796D01*
X143907546Y-97807546D01*
X143993796Y-97692331D01*
X144044091Y-97557483D01*
X144050500Y-97497873D01*
X144050500Y-97405500D01*
X144070185Y-97338461D01*
X144122989Y-97292706D01*
X144174500Y-97281500D01*
X146401954Y-97281500D01*
X146468993Y-97301185D01*
G37*
%TD.AperFunction*%
%TA.AperFunction,Conductor*%
G36*
X143178310Y-64782185D02*
G01*
X143224065Y-64834989D01*
X143234560Y-64899757D01*
X143230000Y-64942158D01*
X143230000Y-65140000D01*
X145058638Y-65140000D01*
X145125677Y-65159685D01*
X145146319Y-65176319D01*
X145160000Y-65190000D01*
X157100000Y-65190000D01*
X157113681Y-65176319D01*
X157175004Y-65142834D01*
X157201362Y-65140000D01*
X159030000Y-65140000D01*
X159030000Y-64942172D01*
X159029999Y-64942158D01*
X159025440Y-64899757D01*
X159037844Y-64830997D01*
X159085454Y-64779859D01*
X159148729Y-64762500D01*
X161158898Y-64762500D01*
X161225937Y-64782185D01*
X161271692Y-64834989D01*
X161281636Y-64904147D01*
X161267729Y-64945929D01*
X161266646Y-64947911D01*
X161216403Y-65082620D01*
X161216401Y-65082627D01*
X161210000Y-65142155D01*
X161210000Y-65790000D01*
X162126988Y-65790000D01*
X162094075Y-65847007D01*
X162060000Y-65974174D01*
X162060000Y-66105826D01*
X162094075Y-66232993D01*
X162126988Y-66290000D01*
X161210000Y-66290000D01*
X161210000Y-66937844D01*
X161216401Y-66997372D01*
X161216403Y-66997379D01*
X161266645Y-67132086D01*
X161266649Y-67132093D01*
X161352809Y-67247187D01*
X161352812Y-67247190D01*
X161467906Y-67333350D01*
X161467913Y-67333354D01*
X161602620Y-67383596D01*
X161602619Y-67383596D01*
X161685444Y-67392501D01*
X161685116Y-67395550D01*
X161702014Y-67394642D01*
X161761196Y-67427642D01*
X162430591Y-68097037D01*
X162367007Y-68114075D01*
X162252993Y-68179901D01*
X162159901Y-68272993D01*
X162094075Y-68387007D01*
X162077037Y-68450591D01*
X161444728Y-67818282D01*
X161444727Y-67818282D01*
X161405380Y-67872439D01*
X161308904Y-68061782D01*
X161243242Y-68263869D01*
X161243242Y-68263872D01*
X161210000Y-68473753D01*
X161210000Y-68686246D01*
X161243242Y-68896127D01*
X161243242Y-68896130D01*
X161308904Y-69098217D01*
X161405375Y-69287550D01*
X161444728Y-69341716D01*
X162077037Y-68709408D01*
X162094075Y-68772993D01*
X162159901Y-68887007D01*
X162252993Y-68980099D01*
X162367007Y-69045925D01*
X162430590Y-69062962D01*
X161798282Y-69695269D01*
X161798282Y-69695270D01*
X161852452Y-69734626D01*
X161852451Y-69734626D01*
X161861495Y-69739234D01*
X161912292Y-69787208D01*
X161929087Y-69855029D01*
X161906550Y-69921164D01*
X161861499Y-69960202D01*
X161852182Y-69964949D01*
X161680213Y-70089890D01*
X161529890Y-70240213D01*
X161404951Y-70412179D01*
X161308444Y-70601585D01*
X161242753Y-70803760D01*
X161216268Y-70970983D01*
X161209500Y-71013713D01*
X161209500Y-71226287D01*
X161242754Y-71436243D01*
X161298395Y-71607489D01*
X161308444Y-71638414D01*
X161404951Y-71827820D01*
X161529890Y-71999786D01*
X161680213Y-72150109D01*
X161852182Y-72275050D01*
X161860946Y-72279516D01*
X161911742Y-72327491D01*
X161928536Y-72395312D01*
X161905998Y-72461447D01*
X161860946Y-72500484D01*
X161852182Y-72504949D01*
X161680213Y-72629890D01*
X161529890Y-72780213D01*
X161404951Y-72952179D01*
X161308444Y-73141585D01*
X161242753Y-73343760D01*
X161210487Y-73547483D01*
X161209500Y-73553713D01*
X161209500Y-73766287D01*
X161242754Y-73976243D01*
X161279213Y-74088453D01*
X161308444Y-74178414D01*
X161404951Y-74367820D01*
X161529890Y-74539786D01*
X161680213Y-74690109D01*
X161852182Y-74815050D01*
X161860946Y-74819516D01*
X161911742Y-74867491D01*
X161928536Y-74935312D01*
X161905998Y-75001447D01*
X161860946Y-75040484D01*
X161852182Y-75044949D01*
X161680213Y-75169890D01*
X161529890Y-75320213D01*
X161404951Y-75492179D01*
X161308444Y-75681585D01*
X161242753Y-75883760D01*
X161218346Y-76037864D01*
X161209500Y-76093713D01*
X161209500Y-76306287D01*
X161213655Y-76332518D01*
X161242735Y-76516127D01*
X161242754Y-76516243D01*
X161308051Y-76717207D01*
X161308444Y-76718414D01*
X161404951Y-76907820D01*
X161529890Y-77079786D01*
X161680213Y-77230109D01*
X161852182Y-77355050D01*
X161860946Y-77359516D01*
X161911742Y-77407491D01*
X161928536Y-77475312D01*
X161905998Y-77541447D01*
X161860946Y-77580484D01*
X161852182Y-77584949D01*
X161680213Y-77709890D01*
X161529890Y-77860213D01*
X161404951Y-78032179D01*
X161308444Y-78221585D01*
X161242753Y-78423760D01*
X161209500Y-78633713D01*
X161209500Y-78846286D01*
X161240260Y-79040500D01*
X161242754Y-79056243D01*
X161288476Y-79196961D01*
X161308444Y-79258414D01*
X161404951Y-79447820D01*
X161529890Y-79619786D01*
X161680213Y-79770109D01*
X161852182Y-79895050D01*
X161860946Y-79899516D01*
X161911742Y-79947491D01*
X161928536Y-80015312D01*
X161905998Y-80081447D01*
X161860946Y-80120484D01*
X161852182Y-80124949D01*
X161680213Y-80249890D01*
X161529890Y-80400213D01*
X161404951Y-80572179D01*
X161308444Y-80761585D01*
X161242753Y-80963760D01*
X161212493Y-81154814D01*
X161209500Y-81173713D01*
X161209500Y-81386287D01*
X161242754Y-81596243D01*
X161298399Y-81767501D01*
X161308444Y-81798414D01*
X161404951Y-81987820D01*
X161529890Y-82159786D01*
X161680213Y-82310109D01*
X161852182Y-82435050D01*
X161860946Y-82439516D01*
X161911742Y-82487491D01*
X161928536Y-82555312D01*
X161905998Y-82621447D01*
X161860946Y-82660484D01*
X161852182Y-82664949D01*
X161680213Y-82789890D01*
X161529890Y-82940213D01*
X161404951Y-83112179D01*
X161308444Y-83301585D01*
X161242753Y-83503760D01*
X161209500Y-83713713D01*
X161209500Y-83926286D01*
X161237983Y-84106124D01*
X161242754Y-84136243D01*
X161308076Y-84337283D01*
X161308444Y-84338414D01*
X161404951Y-84527820D01*
X161529890Y-84699786D01*
X161680213Y-84850109D01*
X161852182Y-84975050D01*
X161860946Y-84979516D01*
X161911742Y-85027491D01*
X161928536Y-85095312D01*
X161905998Y-85161447D01*
X161860946Y-85200484D01*
X161852182Y-85204949D01*
X161680213Y-85329890D01*
X161529890Y-85480213D01*
X161404951Y-85652179D01*
X161308444Y-85841585D01*
X161242753Y-86043760D01*
X161215880Y-86213434D01*
X161209500Y-86253713D01*
X161209500Y-86466287D01*
X161213979Y-86494563D01*
X161237946Y-86645890D01*
X161242754Y-86676243D01*
X161269362Y-86758135D01*
X161308444Y-86878414D01*
X161404951Y-87067820D01*
X161529890Y-87239786D01*
X161680213Y-87390109D01*
X161852182Y-87515050D01*
X161860946Y-87519516D01*
X161911742Y-87567491D01*
X161928536Y-87635312D01*
X161905998Y-87701447D01*
X161860946Y-87740484D01*
X161852182Y-87744949D01*
X161680213Y-87869890D01*
X161529890Y-88020213D01*
X161404951Y-88192179D01*
X161308444Y-88381585D01*
X161242753Y-88583760D01*
X161209500Y-88793713D01*
X161209500Y-89006286D01*
X161242753Y-89216239D01*
X161308444Y-89418414D01*
X161404951Y-89607820D01*
X161529890Y-89779786D01*
X161680213Y-89930109D01*
X161852182Y-90055050D01*
X161860946Y-90059516D01*
X161911742Y-90107491D01*
X161928536Y-90175312D01*
X161905998Y-90241447D01*
X161860946Y-90280484D01*
X161852182Y-90284949D01*
X161680213Y-90409890D01*
X161529890Y-90560213D01*
X161404951Y-90732179D01*
X161308444Y-90921585D01*
X161242753Y-91123760D01*
X161209500Y-91333713D01*
X161209500Y-91546286D01*
X161222180Y-91626348D01*
X161242754Y-91756243D01*
X161304015Y-91944785D01*
X161308444Y-91958414D01*
X161404951Y-92147820D01*
X161529890Y-92319786D01*
X161680213Y-92470109D01*
X161852179Y-92595048D01*
X161852181Y-92595049D01*
X161852184Y-92595051D01*
X161861493Y-92599794D01*
X161912290Y-92647766D01*
X161929087Y-92715587D01*
X161906552Y-92781722D01*
X161861505Y-92820760D01*
X161852446Y-92825376D01*
X161852440Y-92825380D01*
X161798282Y-92864727D01*
X161798282Y-92864728D01*
X162430591Y-93497037D01*
X162367007Y-93514075D01*
X162252993Y-93579901D01*
X162159901Y-93672993D01*
X162094075Y-93787007D01*
X162077037Y-93850591D01*
X161444728Y-93218282D01*
X161444727Y-93218282D01*
X161405380Y-93272439D01*
X161308904Y-93461782D01*
X161243242Y-93663869D01*
X161243242Y-93663872D01*
X161210000Y-93873753D01*
X161210000Y-94086246D01*
X161243242Y-94296127D01*
X161243242Y-94296130D01*
X161308904Y-94498217D01*
X161405375Y-94687550D01*
X161444728Y-94741716D01*
X162077037Y-94109408D01*
X162094075Y-94172993D01*
X162159901Y-94287007D01*
X162252993Y-94380099D01*
X162367007Y-94445925D01*
X162430590Y-94462962D01*
X161798282Y-95095269D01*
X161798282Y-95095270D01*
X161852452Y-95134626D01*
X161852451Y-95134626D01*
X161861495Y-95139234D01*
X161912292Y-95187208D01*
X161929087Y-95255029D01*
X161906550Y-95321164D01*
X161861499Y-95360202D01*
X161852182Y-95364949D01*
X161680213Y-95489890D01*
X161529890Y-95640213D01*
X161404951Y-95812179D01*
X161308444Y-96001585D01*
X161242753Y-96203760D01*
X161212867Y-96392452D01*
X161209500Y-96413713D01*
X161209500Y-96626287D01*
X161212071Y-96642517D01*
X161242753Y-96836239D01*
X161308444Y-97038414D01*
X161404951Y-97227820D01*
X161529890Y-97399786D01*
X161680213Y-97550109D01*
X161852182Y-97675050D01*
X161860946Y-97679516D01*
X161911742Y-97727491D01*
X161928536Y-97795312D01*
X161905998Y-97861447D01*
X161860946Y-97900484D01*
X161852182Y-97904949D01*
X161680213Y-98029890D01*
X161529890Y-98180213D01*
X161404951Y-98352179D01*
X161308444Y-98541585D01*
X161242753Y-98743760D01*
X161209500Y-98953713D01*
X161209500Y-99166286D01*
X161242754Y-99376244D01*
X161242754Y-99376247D01*
X161256491Y-99418523D01*
X161258486Y-99488364D01*
X161226241Y-99544522D01*
X160224468Y-100546295D01*
X160163145Y-100579780D01*
X160093453Y-100574796D01*
X160037520Y-100532924D01*
X160013103Y-100467460D01*
X160020470Y-100424446D01*
X160017855Y-100423687D01*
X160062504Y-100270000D01*
X159508000Y-100270000D01*
X159508000Y-100798789D01*
X159528910Y-100797145D01*
X159691687Y-100749855D01*
X159692636Y-100753123D01*
X159746569Y-100746403D01*
X159809567Y-100776619D01*
X159846228Y-100836097D01*
X159844914Y-100905955D01*
X159814296Y-100956468D01*
X158791584Y-101979181D01*
X158730261Y-102012666D01*
X158703903Y-102015500D01*
X157883286Y-102015500D01*
X157816247Y-101995815D01*
X157770492Y-101943011D01*
X157760548Y-101873853D01*
X157770933Y-101842652D01*
X157770254Y-101842399D01*
X157823596Y-101699379D01*
X157823598Y-101699372D01*
X157829999Y-101639844D01*
X157830000Y-101639827D01*
X157830000Y-100842000D01*
X156364000Y-100842000D01*
X156296961Y-100822315D01*
X156251206Y-100769511D01*
X156240000Y-100718000D01*
X156240000Y-100592000D01*
X156114000Y-100592000D01*
X156046961Y-100572315D01*
X156001206Y-100519511D01*
X155990000Y-100468000D01*
X155990000Y-100342000D01*
X156490000Y-100342000D01*
X157830000Y-100342000D01*
X157830000Y-100270000D01*
X158453496Y-100270000D01*
X158495968Y-100416195D01*
X158578278Y-100555374D01*
X158578285Y-100555383D01*
X158692616Y-100669714D01*
X158692625Y-100669721D01*
X158831804Y-100752031D01*
X158987089Y-100797145D01*
X159008000Y-100798789D01*
X159008000Y-100270000D01*
X158453496Y-100270000D01*
X157830000Y-100270000D01*
X157830000Y-99544172D01*
X157829999Y-99544155D01*
X157823598Y-99484627D01*
X157823596Y-99484620D01*
X157773354Y-99349913D01*
X157773350Y-99349906D01*
X157687190Y-99234812D01*
X157687187Y-99234809D01*
X157572093Y-99148649D01*
X157572086Y-99148645D01*
X157437379Y-99098403D01*
X157437372Y-99098401D01*
X157377844Y-99092000D01*
X156490000Y-99092000D01*
X156490000Y-100342000D01*
X155990000Y-100342000D01*
X155990000Y-99092000D01*
X155768359Y-99092000D01*
X155701320Y-99072315D01*
X155655565Y-99019511D01*
X155645621Y-98950353D01*
X155653798Y-98920548D01*
X155709735Y-98785501D01*
X155709737Y-98785497D01*
X155740500Y-98630842D01*
X155740500Y-98473158D01*
X155740500Y-98473155D01*
X155740499Y-98473153D01*
X155737957Y-98460372D01*
X155709737Y-98318503D01*
X155698049Y-98290286D01*
X155649397Y-98172827D01*
X155649390Y-98172814D01*
X155561789Y-98041711D01*
X155561786Y-98041707D01*
X155450292Y-97930213D01*
X155445581Y-97926347D01*
X155447278Y-97924278D01*
X155409903Y-97879516D01*
X155401225Y-97810187D01*
X155431407Y-97747173D01*
X155435920Y-97742413D01*
X156476199Y-96702135D01*
X158209500Y-96702135D01*
X158209500Y-97497870D01*
X158209501Y-97497876D01*
X158215908Y-97557483D01*
X158266202Y-97692328D01*
X158266206Y-97692335D01*
X158352452Y-97807544D01*
X158352455Y-97807547D01*
X158467664Y-97893793D01*
X158467673Y-97893798D01*
X158576832Y-97934511D01*
X158632766Y-97976381D01*
X158657184Y-98041846D01*
X158657500Y-98050693D01*
X158657500Y-98393333D01*
X158637815Y-98460372D01*
X158621181Y-98481014D01*
X158577887Y-98524307D01*
X158577881Y-98524315D01*
X158495505Y-98663606D01*
X158495504Y-98663609D01*
X158450357Y-98819002D01*
X158450356Y-98819008D01*
X158447500Y-98855302D01*
X158447500Y-99264697D01*
X158450356Y-99300991D01*
X158450357Y-99300997D01*
X158495504Y-99456390D01*
X158495507Y-99456397D01*
X158507910Y-99477370D01*
X158525093Y-99545094D01*
X158507912Y-99603608D01*
X158495968Y-99623804D01*
X158453496Y-99770000D01*
X158759648Y-99770000D01*
X158822766Y-99787267D01*
X158831605Y-99792494D01*
X158831608Y-99792494D01*
X158831610Y-99792496D01*
X158987002Y-99837642D01*
X158987005Y-99837642D01*
X158987007Y-99837643D01*
X159023310Y-99840500D01*
X159023318Y-99840500D01*
X159492682Y-99840500D01*
X159492690Y-99840500D01*
X159528993Y-99837643D01*
X159528995Y-99837642D01*
X159528997Y-99837642D01*
X159684389Y-99792496D01*
X159684389Y-99792495D01*
X159684395Y-99792494D01*
X159693233Y-99787267D01*
X159756352Y-99770000D01*
X160062504Y-99770000D01*
X160020031Y-99623803D01*
X160008090Y-99603613D01*
X159990906Y-99535889D01*
X160008089Y-99477369D01*
X160020494Y-99456395D01*
X160065643Y-99300993D01*
X160068500Y-99264690D01*
X160068500Y-98855310D01*
X160065643Y-98819007D01*
X160055908Y-98785501D01*
X160020495Y-98663609D01*
X160020494Y-98663606D01*
X160020494Y-98663605D01*
X159938117Y-98524313D01*
X159938115Y-98524311D01*
X159938112Y-98524307D01*
X159894819Y-98481014D01*
X159861334Y-98419691D01*
X159858500Y-98393333D01*
X159858500Y-98014887D01*
X159878185Y-97947848D01*
X159930989Y-97902093D01*
X159939140Y-97898715D01*
X159952331Y-97893796D01*
X160067546Y-97807546D01*
X160153796Y-97692331D01*
X160204091Y-97557483D01*
X160210500Y-97497873D01*
X160210499Y-96702128D01*
X160204091Y-96642517D01*
X160198037Y-96626286D01*
X160153797Y-96507671D01*
X160153793Y-96507664D01*
X160067547Y-96392455D01*
X160067544Y-96392452D01*
X159952335Y-96306206D01*
X159952328Y-96306202D01*
X159817482Y-96255908D01*
X159817483Y-96255908D01*
X159757883Y-96249501D01*
X159757881Y-96249500D01*
X159757873Y-96249500D01*
X159757864Y-96249500D01*
X158662129Y-96249500D01*
X158662123Y-96249501D01*
X158602516Y-96255908D01*
X158467671Y-96306202D01*
X158467664Y-96306206D01*
X158352455Y-96392452D01*
X158352452Y-96392455D01*
X158266206Y-96507664D01*
X158266202Y-96507671D01*
X158215908Y-96642517D01*
X158209501Y-96702116D01*
X158209501Y-96702123D01*
X158209500Y-96702135D01*
X156476199Y-96702135D01*
X156795713Y-96382621D01*
X156795716Y-96382620D01*
X156907520Y-96270816D01*
X156957639Y-96184004D01*
X156986577Y-96133885D01*
X157027501Y-95981157D01*
X157027501Y-95823043D01*
X157027501Y-95815448D01*
X157027500Y-95815430D01*
X157027500Y-93797844D01*
X158210000Y-93797844D01*
X158216401Y-93857372D01*
X158216403Y-93857379D01*
X158266645Y-93992086D01*
X158266649Y-93992093D01*
X158352809Y-94107187D01*
X158352812Y-94107190D01*
X158467906Y-94193350D01*
X158467913Y-94193354D01*
X158602620Y-94243596D01*
X158602627Y-94243598D01*
X158662155Y-94249999D01*
X158662172Y-94250000D01*
X158960000Y-94250000D01*
X159460000Y-94250000D01*
X159757828Y-94250000D01*
X159757844Y-94249999D01*
X159817372Y-94243598D01*
X159817379Y-94243596D01*
X159952086Y-94193354D01*
X159952093Y-94193350D01*
X160067187Y-94107190D01*
X160067190Y-94107187D01*
X160153350Y-93992093D01*
X160153354Y-93992086D01*
X160203596Y-93857379D01*
X160203785Y-93855629D01*
X160203786Y-93855625D01*
X160203786Y-93855624D01*
X160209999Y-93797841D01*
X160210000Y-93797827D01*
X160210000Y-93650000D01*
X159460000Y-93650000D01*
X159460000Y-94250000D01*
X158960000Y-94250000D01*
X158960000Y-93650000D01*
X158210000Y-93650000D01*
X158210000Y-93797844D01*
X157027500Y-93797844D01*
X157027500Y-93002155D01*
X158210000Y-93002155D01*
X158210000Y-93150000D01*
X158960000Y-93150000D01*
X159460000Y-93150000D01*
X160210000Y-93150000D01*
X160210000Y-93002172D01*
X160209999Y-93002155D01*
X160203598Y-92942627D01*
X160203596Y-92942620D01*
X160153354Y-92807913D01*
X160153350Y-92807906D01*
X160067190Y-92692812D01*
X160067187Y-92692809D01*
X159952093Y-92606649D01*
X159952086Y-92606645D01*
X159817379Y-92556403D01*
X159817372Y-92556401D01*
X159757844Y-92550000D01*
X159460000Y-92550000D01*
X159460000Y-93150000D01*
X158960000Y-93150000D01*
X158960000Y-92550000D01*
X158662155Y-92550000D01*
X158602627Y-92556401D01*
X158602620Y-92556403D01*
X158467913Y-92606645D01*
X158467906Y-92606649D01*
X158352812Y-92692809D01*
X158352809Y-92692812D01*
X158266649Y-92807906D01*
X158266645Y-92807913D01*
X158216403Y-92942620D01*
X158216401Y-92942627D01*
X158210000Y-93002155D01*
X157027500Y-93002155D01*
X157027500Y-86551097D01*
X157047185Y-86484058D01*
X157063819Y-86463416D01*
X157437417Y-86089818D01*
X157498740Y-86056333D01*
X157525098Y-86053499D01*
X157847871Y-86053499D01*
X157847872Y-86053499D01*
X157907483Y-86047091D01*
X158042331Y-85996796D01*
X158157546Y-85910546D01*
X158243796Y-85795331D01*
X158294091Y-85660483D01*
X158300500Y-85600873D01*
X158300499Y-84955128D01*
X158294091Y-84895517D01*
X158280499Y-84859076D01*
X158275480Y-84845618D01*
X158270495Y-84775927D01*
X158275480Y-84758949D01*
X158293597Y-84710375D01*
X158293598Y-84710372D01*
X158299999Y-84650844D01*
X158300000Y-84650827D01*
X158300000Y-84578000D01*
X158108403Y-84578000D01*
X158048975Y-84562832D01*
X158042328Y-84559202D01*
X157907482Y-84508908D01*
X157907483Y-84508908D01*
X157847883Y-84502501D01*
X157847881Y-84502500D01*
X157847873Y-84502500D01*
X157847865Y-84502500D01*
X156952129Y-84502500D01*
X156952123Y-84502501D01*
X156892516Y-84508908D01*
X156757671Y-84559202D01*
X156751025Y-84562832D01*
X156691597Y-84578000D01*
X156500000Y-84578000D01*
X156500000Y-84650844D01*
X156506401Y-84710372D01*
X156506403Y-84710383D01*
X156524519Y-84758953D01*
X156529503Y-84828644D01*
X156524520Y-84845616D01*
X156505908Y-84895517D01*
X156500074Y-84949786D01*
X156499501Y-84955123D01*
X156499500Y-84955135D01*
X156499500Y-85277901D01*
X156490855Y-85307341D01*
X156484332Y-85337328D01*
X156480577Y-85342343D01*
X156479815Y-85344940D01*
X156463181Y-85365582D01*
X156287680Y-85541083D01*
X156226357Y-85574568D01*
X156156665Y-85569584D01*
X156112318Y-85541083D01*
X155936818Y-85365583D01*
X155903333Y-85304260D01*
X155900499Y-85277902D01*
X155900499Y-84955129D01*
X155900498Y-84955123D01*
X155894091Y-84895517D01*
X155875747Y-84846334D01*
X155870762Y-84776643D01*
X155875747Y-84759665D01*
X155876014Y-84758949D01*
X155894091Y-84710483D01*
X155900500Y-84650873D01*
X155900499Y-84005128D01*
X155894091Y-83945517D01*
X155876013Y-83897048D01*
X155875747Y-83896334D01*
X155870762Y-83826643D01*
X155875747Y-83809665D01*
X155894089Y-83760488D01*
X155894088Y-83760488D01*
X155894091Y-83760483D01*
X155900500Y-83700873D01*
X155900499Y-83055128D01*
X155900498Y-83055126D01*
X155900498Y-83055112D01*
X155898634Y-83037776D01*
X155911038Y-82969017D01*
X155958648Y-82917879D01*
X156026347Y-82900599D01*
X156092642Y-82922663D01*
X156109604Y-82936839D01*
X156463181Y-83290416D01*
X156496666Y-83351739D01*
X156499500Y-83378097D01*
X156499500Y-83700869D01*
X156499501Y-83700876D01*
X156505909Y-83760484D01*
X156524519Y-83810382D01*
X156529503Y-83880074D01*
X156524520Y-83897046D01*
X156506402Y-83945623D01*
X156506401Y-83945627D01*
X156500000Y-84005155D01*
X156500000Y-84078000D01*
X156691597Y-84078000D01*
X156751025Y-84093168D01*
X156757671Y-84096797D01*
X156783247Y-84106336D01*
X156892517Y-84147091D01*
X156952127Y-84153500D01*
X157847872Y-84153499D01*
X157907483Y-84147091D01*
X158042331Y-84096796D01*
X158042334Y-84096793D01*
X158048975Y-84093168D01*
X158108403Y-84078000D01*
X158300000Y-84078000D01*
X158300000Y-84005172D01*
X158299999Y-84005155D01*
X158293598Y-83945627D01*
X158275479Y-83897048D01*
X158270495Y-83827356D01*
X158275476Y-83810391D01*
X158294091Y-83760483D01*
X158300500Y-83700873D01*
X158300499Y-83055128D01*
X158294091Y-82995517D01*
X158293077Y-82992799D01*
X158243797Y-82860671D01*
X158243793Y-82860664D01*
X158157547Y-82745455D01*
X158157544Y-82745452D01*
X158042335Y-82659206D01*
X158042328Y-82659202D01*
X157907482Y-82608908D01*
X157907483Y-82608908D01*
X157847883Y-82602501D01*
X157847881Y-82602500D01*
X157847873Y-82602500D01*
X157847865Y-82602500D01*
X157525097Y-82602500D01*
X157458058Y-82582815D01*
X157437416Y-82566181D01*
X156805590Y-81934355D01*
X156805588Y-81934352D01*
X156686717Y-81815481D01*
X156686709Y-81815475D01*
X156580081Y-81753914D01*
X156580078Y-81753913D01*
X156549787Y-81736424D01*
X156549786Y-81736423D01*
X156549785Y-81736423D01*
X156397057Y-81695499D01*
X156238943Y-81695499D01*
X156231347Y-81695499D01*
X156231331Y-81695500D01*
X154986097Y-81695500D01*
X154919058Y-81675815D01*
X154898416Y-81659181D01*
X153741415Y-80502180D01*
X153707930Y-80440857D01*
X153712914Y-80371165D01*
X153754786Y-80315232D01*
X153820250Y-80290815D01*
X153829096Y-80290499D01*
X153927871Y-80290499D01*
X153927872Y-80290499D01*
X153987483Y-80284091D01*
X154061667Y-80256421D01*
X154131358Y-80251438D01*
X154148327Y-80256420D01*
X154209010Y-80279053D01*
X154221192Y-80283597D01*
X154222517Y-80284091D01*
X154282127Y-80290500D01*
X154777872Y-80290499D01*
X154837483Y-80284091D01*
X154911667Y-80256421D01*
X154981358Y-80251438D01*
X154998327Y-80256420D01*
X155059010Y-80279053D01*
X155071192Y-80283597D01*
X155072517Y-80284091D01*
X155132127Y-80290500D01*
X155627872Y-80290499D01*
X155687483Y-80284091D01*
X155761667Y-80256421D01*
X155831358Y-80251438D01*
X155848327Y-80256420D01*
X155909010Y-80279053D01*
X155921192Y-80283597D01*
X155922517Y-80284091D01*
X155982127Y-80290500D01*
X156477872Y-80290499D01*
X156537483Y-80284091D01*
X156611667Y-80256421D01*
X156681358Y-80251438D01*
X156698327Y-80256420D01*
X156759010Y-80279053D01*
X156771192Y-80283597D01*
X156772517Y-80284091D01*
X156832127Y-80290500D01*
X157327872Y-80290499D01*
X157387483Y-80284091D01*
X157462380Y-80256155D01*
X157532071Y-80251171D01*
X157549049Y-80256156D01*
X157622621Y-80283597D01*
X157682155Y-80289999D01*
X157682172Y-80290000D01*
X157880000Y-80290000D01*
X158380000Y-80290000D01*
X158577828Y-80290000D01*
X158577844Y-80289999D01*
X158637372Y-80283598D01*
X158637379Y-80283596D01*
X158772086Y-80233354D01*
X158772093Y-80233350D01*
X158887187Y-80147190D01*
X158887190Y-80147187D01*
X158973350Y-80032093D01*
X158973354Y-80032086D01*
X159023596Y-79897379D01*
X159023598Y-79897372D01*
X159029999Y-79837844D01*
X159030000Y-79837827D01*
X159030000Y-79640000D01*
X158380000Y-79640000D01*
X158380000Y-80290000D01*
X157880000Y-80290000D01*
X157880000Y-79514000D01*
X157899685Y-79446961D01*
X157952489Y-79401206D01*
X158004000Y-79390000D01*
X158130000Y-79390000D01*
X158130000Y-79264000D01*
X158149685Y-79196961D01*
X158202489Y-79151206D01*
X158254000Y-79140000D01*
X159030000Y-79140000D01*
X159030000Y-78942172D01*
X159029999Y-78942155D01*
X159023598Y-78882623D01*
X158996155Y-78809047D01*
X158991171Y-78739355D01*
X158996148Y-78722399D01*
X159024091Y-78647483D01*
X159030500Y-78587873D01*
X159030499Y-78092128D01*
X159024091Y-78032517D01*
X158996421Y-77958332D01*
X158991438Y-77888642D01*
X158996422Y-77871667D01*
X159024091Y-77797483D01*
X159030500Y-77737873D01*
X159030499Y-77242128D01*
X159024091Y-77182517D01*
X158996421Y-77108332D01*
X158991438Y-77038642D01*
X158996422Y-77021667D01*
X159024091Y-76947483D01*
X159030500Y-76887873D01*
X159030499Y-76392128D01*
X159024091Y-76332517D01*
X158996421Y-76258332D01*
X158991438Y-76188642D01*
X158996422Y-76171667D01*
X159024091Y-76097483D01*
X159030500Y-76037873D01*
X159030499Y-75542128D01*
X159024091Y-75482517D01*
X158996421Y-75408332D01*
X158991438Y-75338642D01*
X158996422Y-75321667D01*
X159024091Y-75247483D01*
X159030500Y-75187873D01*
X159030499Y-74692128D01*
X159024091Y-74632517D01*
X158996421Y-74558332D01*
X158991438Y-74488642D01*
X158996422Y-74471667D01*
X159024091Y-74397483D01*
X159030500Y-74337873D01*
X159030499Y-73842128D01*
X159024091Y-73782517D01*
X158996421Y-73708332D01*
X158991438Y-73638642D01*
X158996422Y-73621667D01*
X159024091Y-73547483D01*
X159030500Y-73487873D01*
X159030499Y-72992128D01*
X159024091Y-72932517D01*
X158996421Y-72858332D01*
X158991438Y-72788642D01*
X158996422Y-72771667D01*
X159024091Y-72697483D01*
X159030500Y-72637873D01*
X159030499Y-72142128D01*
X159024091Y-72082517D01*
X158996421Y-72008332D01*
X158991438Y-71938642D01*
X158996422Y-71921667D01*
X159024091Y-71847483D01*
X159030500Y-71787873D01*
X159030499Y-71292128D01*
X159024091Y-71232517D01*
X158996421Y-71158332D01*
X158991438Y-71088642D01*
X158996422Y-71071667D01*
X159024091Y-70997483D01*
X159030500Y-70937873D01*
X159030499Y-70442128D01*
X159024091Y-70382517D01*
X158996421Y-70308332D01*
X158991438Y-70238642D01*
X158996422Y-70221667D01*
X159024091Y-70147483D01*
X159030500Y-70087873D01*
X159030499Y-69592128D01*
X159024091Y-69532517D01*
X158996154Y-69457616D01*
X158991171Y-69387927D01*
X158996156Y-69370950D01*
X159023597Y-69297379D01*
X159023597Y-69297377D01*
X159029999Y-69237844D01*
X159030000Y-69237827D01*
X159030000Y-69190000D01*
X158778069Y-69190000D01*
X158734736Y-69182182D01*
X158637482Y-69145908D01*
X158637483Y-69145908D01*
X158577883Y-69139501D01*
X158577881Y-69139500D01*
X158577873Y-69139500D01*
X158577865Y-69139500D01*
X157682129Y-69139500D01*
X157682123Y-69139501D01*
X157622516Y-69145908D01*
X157525264Y-69182182D01*
X157481931Y-69190000D01*
X157230000Y-69190000D01*
X157230000Y-69237844D01*
X157236401Y-69297372D01*
X157236403Y-69297379D01*
X157263844Y-69370952D01*
X157268828Y-69440643D01*
X157263844Y-69457618D01*
X157247697Y-69500913D01*
X157235909Y-69532517D01*
X157229500Y-69592127D01*
X157229500Y-69592134D01*
X157229500Y-69592135D01*
X157229500Y-70087870D01*
X157229501Y-70087876D01*
X157235908Y-70147483D01*
X157263577Y-70221667D01*
X157268561Y-70291358D01*
X157263577Y-70308331D01*
X157235910Y-70382511D01*
X157235909Y-70382515D01*
X157235909Y-70382517D01*
X157229500Y-70442127D01*
X157229500Y-70442134D01*
X157229500Y-70442135D01*
X157229500Y-70937870D01*
X157229501Y-70937876D01*
X157235908Y-70997483D01*
X157263577Y-71071667D01*
X157268561Y-71141358D01*
X157263577Y-71158331D01*
X157235910Y-71232511D01*
X157235909Y-71232515D01*
X157235909Y-71232517D01*
X157229500Y-71292127D01*
X157229500Y-71292134D01*
X157229500Y-71292135D01*
X157229500Y-71787870D01*
X157229501Y-71787876D01*
X157235908Y-71847483D01*
X157263577Y-71921667D01*
X157268561Y-71991358D01*
X157263577Y-72008331D01*
X157235910Y-72082511D01*
X157235909Y-72082515D01*
X157235909Y-72082517D01*
X157229500Y-72142127D01*
X157229500Y-72142134D01*
X157229500Y-72142135D01*
X157229500Y-72637870D01*
X157229501Y-72637876D01*
X157235908Y-72697483D01*
X157263577Y-72771667D01*
X157268561Y-72841358D01*
X157263577Y-72858331D01*
X157235910Y-72932511D01*
X157235909Y-72932515D01*
X157235909Y-72932517D01*
X157229500Y-72992127D01*
X157229500Y-72992134D01*
X157229500Y-72992135D01*
X157229500Y-73487870D01*
X157229501Y-73487876D01*
X157235908Y-73547483D01*
X157263577Y-73621667D01*
X157268561Y-73691358D01*
X157263577Y-73708331D01*
X157235910Y-73782511D01*
X157235909Y-73782515D01*
X157235909Y-73782517D01*
X157229500Y-73842127D01*
X157229500Y-73842134D01*
X157229500Y-73842135D01*
X157229500Y-74337870D01*
X157229501Y-74337876D01*
X157235908Y-74397483D01*
X157263577Y-74471667D01*
X157268561Y-74541358D01*
X157263577Y-74558331D01*
X157235910Y-74632511D01*
X157235909Y-74632515D01*
X157235909Y-74632517D01*
X157229500Y-74692127D01*
X157229500Y-74692134D01*
X157229500Y-74692135D01*
X157229500Y-75187870D01*
X157229501Y-75187876D01*
X157235908Y-75247483D01*
X157263577Y-75321667D01*
X157268561Y-75391358D01*
X157263577Y-75408331D01*
X157235910Y-75482511D01*
X157235909Y-75482515D01*
X157235909Y-75482517D01*
X157229500Y-75542127D01*
X157229500Y-75542134D01*
X157229500Y-75542135D01*
X157229500Y-76037870D01*
X157229501Y-76037876D01*
X157235908Y-76097483D01*
X157263577Y-76171667D01*
X157268561Y-76241358D01*
X157263577Y-76258331D01*
X157235910Y-76332511D01*
X157235909Y-76332515D01*
X157235909Y-76332517D01*
X157229500Y-76392127D01*
X157229500Y-76392134D01*
X157229500Y-76392135D01*
X157229500Y-76887870D01*
X157229501Y-76887876D01*
X157235908Y-76947483D01*
X157263577Y-77021667D01*
X157268561Y-77091358D01*
X157263577Y-77108331D01*
X157235910Y-77182511D01*
X157235909Y-77182515D01*
X157235909Y-77182517D01*
X157229500Y-77242127D01*
X157229500Y-77242134D01*
X157229500Y-77242135D01*
X157229500Y-77737870D01*
X157229501Y-77737876D01*
X157235908Y-77797483D01*
X157263577Y-77871667D01*
X157268561Y-77941358D01*
X157263577Y-77958331D01*
X157235909Y-78032514D01*
X157235908Y-78032516D01*
X157229675Y-78090500D01*
X157229501Y-78092123D01*
X157229500Y-78092135D01*
X157229500Y-78365500D01*
X157209815Y-78432539D01*
X157157011Y-78478294D01*
X157105500Y-78489500D01*
X156832130Y-78489500D01*
X156832123Y-78489501D01*
X156772516Y-78495908D01*
X156698332Y-78523577D01*
X156628640Y-78528561D01*
X156611668Y-78523577D01*
X156537488Y-78495910D01*
X156537484Y-78495909D01*
X156537483Y-78495909D01*
X156477873Y-78489500D01*
X156477863Y-78489500D01*
X155982129Y-78489500D01*
X155982123Y-78489501D01*
X155922516Y-78495908D01*
X155848332Y-78523577D01*
X155778640Y-78528561D01*
X155761668Y-78523577D01*
X155687488Y-78495910D01*
X155687484Y-78495909D01*
X155687483Y-78495909D01*
X155627873Y-78489500D01*
X155627863Y-78489500D01*
X155132129Y-78489500D01*
X155132123Y-78489501D01*
X155072516Y-78495908D01*
X154998332Y-78523577D01*
X154928640Y-78528561D01*
X154911668Y-78523577D01*
X154837488Y-78495910D01*
X154837484Y-78495909D01*
X154837483Y-78495909D01*
X154777873Y-78489500D01*
X154777863Y-78489500D01*
X154282129Y-78489500D01*
X154282123Y-78489501D01*
X154222516Y-78495908D01*
X154148332Y-78523577D01*
X154078640Y-78528561D01*
X154061668Y-78523577D01*
X153987488Y-78495910D01*
X153987484Y-78495909D01*
X153987483Y-78495909D01*
X153927873Y-78489500D01*
X153927863Y-78489500D01*
X153432129Y-78489500D01*
X153432123Y-78489501D01*
X153372516Y-78495908D01*
X153298332Y-78523577D01*
X153228640Y-78528561D01*
X153211668Y-78523577D01*
X153137488Y-78495910D01*
X153137484Y-78495909D01*
X153137483Y-78495909D01*
X153077873Y-78489500D01*
X153077863Y-78489500D01*
X152582129Y-78489500D01*
X152582123Y-78489501D01*
X152522516Y-78495908D01*
X152448332Y-78523577D01*
X152378640Y-78528561D01*
X152361668Y-78523577D01*
X152287488Y-78495910D01*
X152287484Y-78495909D01*
X152287483Y-78495909D01*
X152227873Y-78489500D01*
X152227863Y-78489500D01*
X151732129Y-78489500D01*
X151732123Y-78489501D01*
X151672516Y-78495908D01*
X151598332Y-78523577D01*
X151528640Y-78528561D01*
X151511668Y-78523577D01*
X151437488Y-78495910D01*
X151437484Y-78495909D01*
X151437483Y-78495909D01*
X151377873Y-78489500D01*
X151377863Y-78489500D01*
X150882129Y-78489500D01*
X150882123Y-78489501D01*
X150822516Y-78495908D01*
X150748332Y-78523577D01*
X150678640Y-78528561D01*
X150661668Y-78523577D01*
X150587488Y-78495910D01*
X150587484Y-78495909D01*
X150587483Y-78495909D01*
X150527873Y-78489500D01*
X150527863Y-78489500D01*
X150032129Y-78489500D01*
X150032123Y-78489501D01*
X149972516Y-78495908D01*
X149898332Y-78523577D01*
X149828640Y-78528561D01*
X149811668Y-78523577D01*
X149737488Y-78495910D01*
X149737484Y-78495909D01*
X149737483Y-78495909D01*
X149677873Y-78489500D01*
X149677863Y-78489500D01*
X149182129Y-78489500D01*
X149182123Y-78489501D01*
X149122516Y-78495908D01*
X149048332Y-78523577D01*
X148978640Y-78528561D01*
X148961668Y-78523577D01*
X148887488Y-78495910D01*
X148887484Y-78495909D01*
X148887483Y-78495909D01*
X148827873Y-78489500D01*
X148827863Y-78489500D01*
X148332129Y-78489500D01*
X148332123Y-78489501D01*
X148272516Y-78495908D01*
X148198332Y-78523577D01*
X148128640Y-78528561D01*
X148111668Y-78523577D01*
X148037488Y-78495910D01*
X148037484Y-78495909D01*
X148037483Y-78495909D01*
X147977873Y-78489500D01*
X147977863Y-78489500D01*
X147482129Y-78489500D01*
X147482123Y-78489501D01*
X147422516Y-78495908D01*
X147348332Y-78523577D01*
X147278640Y-78528561D01*
X147261668Y-78523577D01*
X147187488Y-78495910D01*
X147187484Y-78495909D01*
X147187483Y-78495909D01*
X147127873Y-78489500D01*
X147127863Y-78489500D01*
X146632129Y-78489500D01*
X146632123Y-78489501D01*
X146572516Y-78495908D01*
X146498332Y-78523577D01*
X146428640Y-78528561D01*
X146411668Y-78523577D01*
X146337488Y-78495910D01*
X146337484Y-78495909D01*
X146337483Y-78495909D01*
X146277873Y-78489500D01*
X146277863Y-78489500D01*
X145782129Y-78489500D01*
X145782123Y-78489501D01*
X145722516Y-78495908D01*
X145648332Y-78523577D01*
X145578640Y-78528561D01*
X145561668Y-78523577D01*
X145487485Y-78495909D01*
X145487483Y-78495908D01*
X145427883Y-78489501D01*
X145427881Y-78489500D01*
X145427873Y-78489500D01*
X145427865Y-78489500D01*
X145154499Y-78489500D01*
X145087460Y-78469815D01*
X145041705Y-78417011D01*
X145030499Y-78365500D01*
X145030499Y-78092129D01*
X145030498Y-78092123D01*
X145030497Y-78092116D01*
X145024091Y-78032517D01*
X144996421Y-77958332D01*
X144991438Y-77888642D01*
X144996422Y-77871667D01*
X145024091Y-77797483D01*
X145030500Y-77737873D01*
X145030499Y-77364499D01*
X145050183Y-77297461D01*
X145102987Y-77251706D01*
X145154499Y-77240500D01*
X146285331Y-77240500D01*
X146285347Y-77240501D01*
X146292943Y-77240501D01*
X146451054Y-77240501D01*
X146451057Y-77240501D01*
X146603785Y-77199577D01*
X146653904Y-77170639D01*
X146740716Y-77120520D01*
X146852520Y-77008716D01*
X146852520Y-77008714D01*
X146862728Y-76998507D01*
X146862730Y-76998504D01*
X147144028Y-76717205D01*
X147205349Y-76683722D01*
X147275041Y-76688706D01*
X147279099Y-76690302D01*
X147340503Y-76715737D01*
X147495153Y-76746499D01*
X147495156Y-76746500D01*
X147495158Y-76746500D01*
X147652844Y-76746500D01*
X147652845Y-76746499D01*
X147807497Y-76715737D01*
X147953179Y-76655394D01*
X148084289Y-76567789D01*
X148195789Y-76456289D01*
X148283394Y-76325179D01*
X148343737Y-76179497D01*
X148374500Y-76024842D01*
X148374500Y-75867158D01*
X148374500Y-75867155D01*
X148374499Y-75867153D01*
X148370380Y-75846446D01*
X148343737Y-75712503D01*
X148302294Y-75612452D01*
X148294826Y-75542983D01*
X148302295Y-75517547D01*
X148312691Y-75492449D01*
X148343737Y-75417497D01*
X148374500Y-75262842D01*
X148374500Y-75105158D01*
X148374500Y-75105155D01*
X148374499Y-75105153D01*
X148362609Y-75045380D01*
X148343737Y-74950503D01*
X148302294Y-74850452D01*
X148294826Y-74780983D01*
X148302295Y-74755547D01*
X148343737Y-74655497D01*
X148374500Y-74500842D01*
X148374500Y-74343158D01*
X148374500Y-74343155D01*
X148374499Y-74343153D01*
X148343738Y-74188510D01*
X148343737Y-74188503D01*
X148302294Y-74088452D01*
X148294826Y-74018983D01*
X148302295Y-73993547D01*
X148343737Y-73893497D01*
X148374500Y-73738842D01*
X148374500Y-73581158D01*
X148374500Y-73581155D01*
X148374499Y-73581153D01*
X148367802Y-73547485D01*
X148343737Y-73426503D01*
X148302294Y-73326452D01*
X148294826Y-73256983D01*
X148302295Y-73231547D01*
X148306485Y-73221431D01*
X148343737Y-73131497D01*
X148374500Y-72976842D01*
X148374500Y-72819158D01*
X148374500Y-72819155D01*
X148374499Y-72819153D01*
X148368430Y-72788642D01*
X148343737Y-72664503D01*
X148302294Y-72564452D01*
X148294826Y-72494983D01*
X148302295Y-72469547D01*
X148309351Y-72452512D01*
X148343737Y-72369497D01*
X148374500Y-72214842D01*
X148374500Y-72057158D01*
X148374500Y-72057155D01*
X148374499Y-72057153D01*
X148371269Y-72040913D01*
X148343737Y-71902503D01*
X148302294Y-71802452D01*
X148294826Y-71732983D01*
X148302295Y-71707547D01*
X148343737Y-71607497D01*
X148374500Y-71452842D01*
X148374500Y-71295158D01*
X148374500Y-71295155D01*
X148374499Y-71295153D01*
X148362040Y-71232517D01*
X148343737Y-71140503D01*
X148302294Y-71040452D01*
X148294826Y-70970983D01*
X148302295Y-70945547D01*
X148343737Y-70845497D01*
X148374500Y-70690842D01*
X148374500Y-70533158D01*
X148374500Y-70533155D01*
X148374499Y-70533153D01*
X148356393Y-70442128D01*
X148343737Y-70378503D01*
X148306254Y-70288011D01*
X148289257Y-70246975D01*
X148281788Y-70177506D01*
X148289254Y-70152077D01*
X148333375Y-70045561D01*
X148364138Y-69890906D01*
X148364138Y-69733222D01*
X148364138Y-69733219D01*
X148364137Y-69733217D01*
X148336074Y-69592135D01*
X148333375Y-69578567D01*
X148285544Y-69463092D01*
X148273035Y-69432891D01*
X148273028Y-69432878D01*
X148185427Y-69301775D01*
X148185424Y-69301771D01*
X148073930Y-69190277D01*
X148073926Y-69190274D01*
X147942823Y-69102673D01*
X147942810Y-69102666D01*
X147797139Y-69042328D01*
X147797127Y-69042325D01*
X147642483Y-69011564D01*
X147642480Y-69011564D01*
X147484796Y-69011564D01*
X147484793Y-69011564D01*
X147330148Y-69042325D01*
X147330136Y-69042328D01*
X147184465Y-69102666D01*
X147184452Y-69102673D01*
X147053349Y-69190274D01*
X147053345Y-69190277D01*
X147040442Y-69203181D01*
X146979119Y-69236666D01*
X146952761Y-69239500D01*
X146444642Y-69239500D01*
X146377603Y-69219815D01*
X146331848Y-69167011D01*
X146321904Y-69097853D01*
X146323025Y-69091308D01*
X146342500Y-68993402D01*
X146342500Y-68835713D01*
X146342499Y-68835711D01*
X146333406Y-68790000D01*
X146311737Y-68681061D01*
X146281612Y-68608332D01*
X146253611Y-68540731D01*
X146250639Y-68513097D01*
X146244385Y-68486022D01*
X146246662Y-68476100D01*
X146246142Y-68471262D01*
X146251443Y-68451441D01*
X146252455Y-68448617D01*
X146277628Y-68387844D01*
X157230000Y-68387844D01*
X157236401Y-68447372D01*
X157236403Y-68447382D01*
X157264110Y-68521668D01*
X157269094Y-68591359D01*
X157264110Y-68608332D01*
X157236403Y-68682617D01*
X157236401Y-68682627D01*
X157230000Y-68742155D01*
X157230000Y-68790000D01*
X157930000Y-68790000D01*
X158330000Y-68790000D01*
X159030000Y-68790000D01*
X159030000Y-68742172D01*
X159029999Y-68742155D01*
X159023598Y-68682628D01*
X158995888Y-68608334D01*
X158994080Y-68583066D01*
X158988245Y-68558418D01*
X158991275Y-68543843D01*
X158990904Y-68538642D01*
X158995115Y-68523799D01*
X159024283Y-68440999D01*
X159029999Y-68387844D01*
X159030000Y-68387827D01*
X159030000Y-68340000D01*
X158330000Y-68340000D01*
X158330000Y-68790000D01*
X157930000Y-68790000D01*
X157930000Y-68340000D01*
X157230000Y-68340000D01*
X157230000Y-68387844D01*
X146277628Y-68387844D01*
X146311737Y-68305497D01*
X146327462Y-68226446D01*
X146342499Y-68150846D01*
X146342500Y-68150844D01*
X146342500Y-67993155D01*
X146342499Y-67993153D01*
X146318487Y-67872439D01*
X146311737Y-67838503D01*
X146309303Y-67832627D01*
X146251397Y-67692827D01*
X146251390Y-67692814D01*
X146163789Y-67561711D01*
X146163786Y-67561707D01*
X146052292Y-67450213D01*
X146052288Y-67450210D01*
X145921185Y-67362609D01*
X145921172Y-67362602D01*
X145775501Y-67302264D01*
X145775489Y-67302261D01*
X145620845Y-67271500D01*
X145620842Y-67271500D01*
X145463158Y-67271500D01*
X145463155Y-67271500D01*
X145308510Y-67302261D01*
X145308498Y-67302264D01*
X145162827Y-67362602D01*
X145162814Y-67362609D01*
X145031711Y-67450210D01*
X145031707Y-67450213D01*
X145028240Y-67453681D01*
X145001312Y-67468384D01*
X144975494Y-67484977D01*
X144969293Y-67485868D01*
X144966917Y-67487166D01*
X144940559Y-67490000D01*
X144778069Y-67490000D01*
X144734736Y-67482182D01*
X144637482Y-67445908D01*
X144637483Y-67445908D01*
X144577883Y-67439501D01*
X144577881Y-67439500D01*
X144577873Y-67439500D01*
X144577865Y-67439500D01*
X143682129Y-67439500D01*
X143682123Y-67439501D01*
X143622516Y-67445908D01*
X143525264Y-67482182D01*
X143481931Y-67490000D01*
X143229999Y-67490000D01*
X143229974Y-67490025D01*
X143199463Y-67506684D01*
X143169007Y-67523431D01*
X143168818Y-67523418D01*
X143168650Y-67523510D01*
X143133815Y-67521017D01*
X143099301Y-67518651D01*
X143099148Y-67518537D01*
X143098959Y-67518524D01*
X143071167Y-67497718D01*
X143043245Y-67476944D01*
X143043142Y-67476739D01*
X143043026Y-67476652D01*
X143026240Y-67446017D01*
X143024556Y-67441542D01*
X143002494Y-67365605D01*
X142984578Y-67335312D01*
X142980767Y-67325183D01*
X142978944Y-67300705D01*
X142972906Y-67276909D01*
X142976308Y-67265320D01*
X142975578Y-67255506D01*
X142983457Y-67240974D01*
X142990091Y-67218384D01*
X143002032Y-67198193D01*
X143019212Y-67139058D01*
X143056818Y-67080172D01*
X143120290Y-67050964D01*
X143189476Y-67060709D01*
X143225970Y-67085970D01*
X143230000Y-67090000D01*
X143930000Y-67090000D01*
X144330000Y-67090000D01*
X145030000Y-67090000D01*
X145030000Y-67042172D01*
X145029999Y-67042155D01*
X145023598Y-66982628D01*
X144995888Y-66908334D01*
X144990904Y-66838642D01*
X144995888Y-66821666D01*
X145023598Y-66747371D01*
X145029999Y-66687844D01*
X145030000Y-66687827D01*
X145030000Y-66640000D01*
X144330000Y-66640000D01*
X144330000Y-67090000D01*
X143930000Y-67090000D01*
X143930000Y-66640000D01*
X143209766Y-66640000D01*
X143193007Y-66649150D01*
X143123316Y-66644163D01*
X143067384Y-66602289D01*
X143047577Y-66562577D01*
X143002031Y-66405804D01*
X142933545Y-66290000D01*
X145380000Y-66290000D01*
X145427828Y-66290000D01*
X145427844Y-66289999D01*
X145487371Y-66283598D01*
X145561666Y-66255888D01*
X145631358Y-66250904D01*
X145648334Y-66255888D01*
X145722628Y-66283598D01*
X145722627Y-66283598D01*
X145782155Y-66289999D01*
X145782172Y-66290000D01*
X145830000Y-66290000D01*
X146230000Y-66290000D01*
X146277828Y-66290000D01*
X146277844Y-66289999D01*
X146337371Y-66283598D01*
X146411666Y-66255888D01*
X146481358Y-66250904D01*
X146498334Y-66255888D01*
X146572628Y-66283598D01*
X146572627Y-66283598D01*
X146632155Y-66289999D01*
X146632172Y-66290000D01*
X146680000Y-66290000D01*
X147080000Y-66290000D01*
X147127828Y-66290000D01*
X147127844Y-66289999D01*
X147187371Y-66283598D01*
X147261666Y-66255888D01*
X147331358Y-66250904D01*
X147348334Y-66255888D01*
X147422628Y-66283598D01*
X147422627Y-66283598D01*
X147482155Y-66289999D01*
X147482172Y-66290000D01*
X147530000Y-66290000D01*
X147930000Y-66290000D01*
X147977828Y-66290000D01*
X147977844Y-66289999D01*
X148037371Y-66283598D01*
X148111666Y-66255888D01*
X148181358Y-66250904D01*
X148198334Y-66255888D01*
X148272628Y-66283598D01*
X148272627Y-66283598D01*
X148332155Y-66289999D01*
X148332172Y-66290000D01*
X148380000Y-66290000D01*
X148780000Y-66290000D01*
X148827828Y-66290000D01*
X148827844Y-66289999D01*
X148887371Y-66283598D01*
X148961666Y-66255888D01*
X149031358Y-66250904D01*
X149048334Y-66255888D01*
X149122628Y-66283598D01*
X149122627Y-66283598D01*
X149182155Y-66289999D01*
X149182172Y-66290000D01*
X149230000Y-66290000D01*
X149630000Y-66290000D01*
X149677828Y-66290000D01*
X149677844Y-66289999D01*
X149737371Y-66283598D01*
X149811666Y-66255888D01*
X149881358Y-66250904D01*
X149898334Y-66255888D01*
X149972628Y-66283598D01*
X149972627Y-66283598D01*
X150032155Y-66289999D01*
X150032172Y-66290000D01*
X150080000Y-66290000D01*
X150480000Y-66290000D01*
X150527828Y-66290000D01*
X150527844Y-66289999D01*
X150587371Y-66283598D01*
X150661666Y-66255888D01*
X150731358Y-66250904D01*
X150748334Y-66255888D01*
X150822628Y-66283598D01*
X150822627Y-66283598D01*
X150882155Y-66289999D01*
X150882172Y-66290000D01*
X150930000Y-66290000D01*
X151330000Y-66290000D01*
X151377828Y-66290000D01*
X151377844Y-66289999D01*
X151437371Y-66283598D01*
X151511666Y-66255888D01*
X151581358Y-66250904D01*
X151598334Y-66255888D01*
X151672628Y-66283598D01*
X151672627Y-66283598D01*
X151732155Y-66289999D01*
X151732172Y-66290000D01*
X151780000Y-66290000D01*
X152180000Y-66290000D01*
X152227828Y-66290000D01*
X152227844Y-66289999D01*
X152287371Y-66283598D01*
X152361666Y-66255888D01*
X152431358Y-66250904D01*
X152448334Y-66255888D01*
X152522628Y-66283598D01*
X152522627Y-66283598D01*
X152582155Y-66289999D01*
X152582172Y-66290000D01*
X152630000Y-66290000D01*
X153030000Y-66290000D01*
X153077828Y-66290000D01*
X153077844Y-66289999D01*
X153137371Y-66283598D01*
X153211666Y-66255888D01*
X153281358Y-66250904D01*
X153298334Y-66255888D01*
X153372628Y-66283598D01*
X153372627Y-66283598D01*
X153432155Y-66289999D01*
X153432172Y-66290000D01*
X153480000Y-66290000D01*
X153880000Y-66290000D01*
X153927828Y-66290000D01*
X153927844Y-66289999D01*
X153987371Y-66283598D01*
X154061666Y-66255888D01*
X154131358Y-66250904D01*
X154148334Y-66255888D01*
X154222628Y-66283598D01*
X154222627Y-66283598D01*
X154282155Y-66289999D01*
X154282172Y-66290000D01*
X154330000Y-66290000D01*
X154730000Y-66290000D01*
X154777828Y-66290000D01*
X154777844Y-66289999D01*
X154837371Y-66283598D01*
X154911666Y-66255888D01*
X154981358Y-66250904D01*
X154998334Y-66255888D01*
X155072628Y-66283598D01*
X155072627Y-66283598D01*
X155132155Y-66289999D01*
X155132172Y-66290000D01*
X155180000Y-66290000D01*
X155580000Y-66290000D01*
X155627828Y-66290000D01*
X155627844Y-66289999D01*
X155687372Y-66283598D01*
X155687375Y-66283597D01*
X155761664Y-66255889D01*
X155788021Y-66254003D01*
X155813845Y-66248386D01*
X155826889Y-66251223D01*
X155831356Y-66250904D01*
X155848332Y-66255888D01*
X155853343Y-66257757D01*
X155909277Y-66299628D01*
X155933694Y-66365093D01*
X155931628Y-66398129D01*
X155917500Y-66469158D01*
X155917500Y-66626846D01*
X155948261Y-66781489D01*
X155948264Y-66781501D01*
X156008602Y-66927172D01*
X156008609Y-66927185D01*
X156096210Y-67058288D01*
X156096213Y-67058292D01*
X156207707Y-67169786D01*
X156207711Y-67169789D01*
X156338814Y-67257390D01*
X156338827Y-67257397D01*
X156480874Y-67316234D01*
X156484503Y-67317737D01*
X156605641Y-67341833D01*
X156639153Y-67348499D01*
X156639156Y-67348500D01*
X156639158Y-67348500D01*
X156796844Y-67348500D01*
X156796845Y-67348499D01*
X156951497Y-67317737D01*
X157058049Y-67273601D01*
X157127516Y-67266133D01*
X157189996Y-67297408D01*
X157225648Y-67357497D01*
X157229500Y-67388162D01*
X157229500Y-67537869D01*
X157229501Y-67537876D01*
X157235909Y-67597485D01*
X157263843Y-67672382D01*
X157268827Y-67742074D01*
X157263844Y-67759046D01*
X157236402Y-67832623D01*
X157236401Y-67832627D01*
X157230000Y-67892155D01*
X157230000Y-67940000D01*
X157481931Y-67940000D01*
X157525263Y-67947817D01*
X157622517Y-67984091D01*
X157682127Y-67990500D01*
X158577872Y-67990499D01*
X158637483Y-67984091D01*
X158734736Y-67947817D01*
X158778069Y-67940000D01*
X159030000Y-67940000D01*
X159030000Y-67892172D01*
X159029999Y-67892155D01*
X159023598Y-67832623D01*
X158996155Y-67759047D01*
X158991171Y-67689355D01*
X158996148Y-67672399D01*
X159024091Y-67597483D01*
X159030500Y-67537873D01*
X159030499Y-67042128D01*
X159024091Y-66982517D01*
X158996421Y-66908332D01*
X158991438Y-66838642D01*
X158996420Y-66821672D01*
X159024091Y-66747483D01*
X159030500Y-66687873D01*
X159030499Y-66192128D01*
X159024091Y-66132517D01*
X158996154Y-66057616D01*
X158991171Y-65987927D01*
X158996156Y-65970950D01*
X159023597Y-65897379D01*
X159023597Y-65897377D01*
X159029999Y-65837844D01*
X159030000Y-65837827D01*
X159030000Y-65640000D01*
X157201362Y-65640000D01*
X157134323Y-65620315D01*
X157113681Y-65603681D01*
X157100000Y-65590000D01*
X155580000Y-65590000D01*
X155580000Y-66290000D01*
X155180000Y-66290000D01*
X155180000Y-65590000D01*
X154730000Y-65590000D01*
X154730000Y-66290000D01*
X154330000Y-66290000D01*
X154330000Y-65590000D01*
X153880000Y-65590000D01*
X153880000Y-66290000D01*
X153480000Y-66290000D01*
X153480000Y-65590000D01*
X153030000Y-65590000D01*
X153030000Y-66290000D01*
X152630000Y-66290000D01*
X152630000Y-65590000D01*
X152180000Y-65590000D01*
X152180000Y-66290000D01*
X151780000Y-66290000D01*
X151780000Y-65590000D01*
X151330000Y-65590000D01*
X151330000Y-66290000D01*
X150930000Y-66290000D01*
X150930000Y-65590000D01*
X150480000Y-65590000D01*
X150480000Y-66290000D01*
X150080000Y-66290000D01*
X150080000Y-65590000D01*
X149630000Y-65590000D01*
X149630000Y-66290000D01*
X149230000Y-66290000D01*
X149230000Y-65590000D01*
X148780000Y-65590000D01*
X148780000Y-66290000D01*
X148380000Y-66290000D01*
X148380000Y-65590000D01*
X147930000Y-65590000D01*
X147930000Y-66290000D01*
X147530000Y-66290000D01*
X147530000Y-65590000D01*
X147080000Y-65590000D01*
X147080000Y-66290000D01*
X146680000Y-66290000D01*
X146680000Y-65590000D01*
X146230000Y-65590000D01*
X146230000Y-66290000D01*
X145830000Y-66290000D01*
X145830000Y-65590000D01*
X145380000Y-65590000D01*
X145380000Y-66290000D01*
X142933545Y-66290000D01*
X142919721Y-66266625D01*
X142919714Y-66266616D01*
X142805383Y-66152285D01*
X142805374Y-66152278D01*
X142666195Y-66069968D01*
X142666190Y-66069966D01*
X142510918Y-66024855D01*
X142510912Y-66024854D01*
X142490000Y-66023209D01*
X142490000Y-66678000D01*
X142470315Y-66745039D01*
X142417511Y-66790794D01*
X142366000Y-66802000D01*
X142240000Y-66802000D01*
X142240000Y-66857500D01*
X142220315Y-66924539D01*
X142167511Y-66970294D01*
X142116000Y-66981500D01*
X142005302Y-66981500D01*
X141969008Y-66984356D01*
X141969002Y-66984357D01*
X141813610Y-67029503D01*
X141813605Y-67029506D01*
X141804766Y-67034732D01*
X141741648Y-67052000D01*
X141435496Y-67052000D01*
X141477968Y-67198194D01*
X141489911Y-67218389D01*
X141507092Y-67286113D01*
X141499552Y-67324323D01*
X141495653Y-67334918D01*
X141477506Y-67365605D01*
X141451751Y-67454252D01*
X141450257Y-67458314D01*
X141431922Y-67483035D01*
X141415353Y-67508980D01*
X141411296Y-67510846D01*
X141408636Y-67514434D01*
X141379844Y-67525319D01*
X141351881Y-67538187D01*
X141344359Y-67538735D01*
X141343282Y-67539143D01*
X141342131Y-67538898D01*
X141333883Y-67539500D01*
X140889269Y-67539500D01*
X140822230Y-67519815D01*
X140776475Y-67467011D01*
X140766531Y-67397853D01*
X140795556Y-67334297D01*
X140814958Y-67316234D01*
X140907187Y-67247190D01*
X140907190Y-67247187D01*
X140993350Y-67132093D01*
X140993354Y-67132086D01*
X141043596Y-66997379D01*
X141043598Y-66997372D01*
X141049999Y-66937844D01*
X141050000Y-66937827D01*
X141050000Y-66552000D01*
X141435496Y-66552000D01*
X141990000Y-66552000D01*
X141990000Y-66023210D01*
X141989999Y-66023209D01*
X141969087Y-66024854D01*
X141969081Y-66024855D01*
X141813809Y-66069966D01*
X141813804Y-66069968D01*
X141674625Y-66152278D01*
X141674616Y-66152285D01*
X141560285Y-66266616D01*
X141560278Y-66266625D01*
X141477968Y-66405804D01*
X141435496Y-66552000D01*
X141050000Y-66552000D01*
X141050000Y-66290000D01*
X140133012Y-66290000D01*
X140165925Y-66232993D01*
X140200000Y-66105826D01*
X140200000Y-65974174D01*
X140165925Y-65847007D01*
X140160635Y-65837844D01*
X143230000Y-65837844D01*
X143236401Y-65897372D01*
X143236403Y-65897382D01*
X143264110Y-65971668D01*
X143269094Y-66041359D01*
X143264110Y-66058332D01*
X143236403Y-66132617D01*
X143236401Y-66132627D01*
X143230000Y-66192155D01*
X143230000Y-66240000D01*
X143880000Y-66240000D01*
X144380000Y-66240000D01*
X144980000Y-66240000D01*
X144980000Y-65640000D01*
X144380000Y-65640000D01*
X144380000Y-66240000D01*
X143880000Y-66240000D01*
X143880000Y-65640000D01*
X143230000Y-65640000D01*
X143230000Y-65837844D01*
X140160635Y-65837844D01*
X140133012Y-65790000D01*
X141050000Y-65790000D01*
X141050000Y-65142172D01*
X141049999Y-65142155D01*
X141043598Y-65082627D01*
X141043596Y-65082620D01*
X140993353Y-64947911D01*
X140992271Y-64945929D01*
X140991790Y-64943720D01*
X140990254Y-64939601D01*
X140990846Y-64939380D01*
X140977418Y-64877657D01*
X141001833Y-64812192D01*
X141057766Y-64770319D01*
X141101102Y-64762500D01*
X143111271Y-64762500D01*
X143178310Y-64782185D01*
G37*
%TD.AperFunction*%
%TA.AperFunction,Conductor*%
G36*
X139234075Y-99252993D02*
G01*
X139299901Y-99367007D01*
X139392993Y-99460099D01*
X139507007Y-99525925D01*
X139570589Y-99542962D01*
X138938282Y-100175269D01*
X138938282Y-100175270D01*
X138992452Y-100214626D01*
X138992451Y-100214626D01*
X139001495Y-100219234D01*
X139052292Y-100267208D01*
X139069087Y-100335029D01*
X139046550Y-100401164D01*
X139001499Y-100440202D01*
X138992182Y-100444949D01*
X138820213Y-100569890D01*
X138669894Y-100720209D01*
X138669890Y-100720214D01*
X138646818Y-100751971D01*
X138591489Y-100794637D01*
X138521875Y-100800616D01*
X138460080Y-100768011D01*
X138425723Y-100707172D01*
X138422500Y-100679086D01*
X138422500Y-99943091D01*
X138442185Y-99876052D01*
X138494989Y-99830297D01*
X138556230Y-99819473D01*
X138584728Y-99821716D01*
X139217037Y-99189408D01*
X139234075Y-99252993D01*
G37*
%TD.AperFunction*%
%TA.AperFunction,Conductor*%
G36*
X138627703Y-97347200D02*
G01*
X138646819Y-97368029D01*
X138669892Y-97399788D01*
X138820213Y-97550109D01*
X138992179Y-97675048D01*
X138992181Y-97675049D01*
X138992184Y-97675051D01*
X139001493Y-97679794D01*
X139052290Y-97727766D01*
X139069087Y-97795587D01*
X139046552Y-97861722D01*
X139001505Y-97900760D01*
X138992446Y-97905376D01*
X138992440Y-97905380D01*
X138938282Y-97944727D01*
X138938282Y-97944728D01*
X139570591Y-98577037D01*
X139507007Y-98594075D01*
X139392993Y-98659901D01*
X139299901Y-98752993D01*
X139234075Y-98867007D01*
X139217037Y-98930591D01*
X138584728Y-98298282D01*
X138556229Y-98300525D01*
X138487852Y-98286161D01*
X138438095Y-98237109D01*
X138422500Y-98176907D01*
X138422500Y-97440913D01*
X138442185Y-97373874D01*
X138494989Y-97328119D01*
X138564147Y-97318175D01*
X138627703Y-97347200D01*
G37*
%TD.AperFunction*%
%TA.AperFunction,Conductor*%
G36*
X142227203Y-97850146D02*
G01*
X142233669Y-97849943D01*
X142266219Y-97863586D01*
X142271696Y-97866867D01*
X142307669Y-97893796D01*
X142331477Y-97902675D01*
X142341219Y-97908511D01*
X142388615Y-97959847D01*
X142401500Y-98014887D01*
X142401500Y-98393333D01*
X142381815Y-98460372D01*
X142365181Y-98481014D01*
X142321887Y-98524307D01*
X142321883Y-98524313D01*
X142311669Y-98541585D01*
X142309232Y-98545705D01*
X142258162Y-98593388D01*
X142189421Y-98605891D01*
X142124831Y-98579245D01*
X142084901Y-98521910D01*
X142078500Y-98482583D01*
X142078500Y-97969962D01*
X142080495Y-97963166D01*
X142079267Y-97956191D01*
X142090210Y-97930080D01*
X142098185Y-97902923D01*
X142103536Y-97898285D01*
X142106275Y-97891752D01*
X142129599Y-97875702D01*
X142150989Y-97857168D01*
X142157999Y-97856160D01*
X142163834Y-97852145D01*
X142192127Y-97851252D01*
X142220147Y-97847224D01*
X142227203Y-97850146D01*
G37*
%TD.AperFunction*%
%TA.AperFunction,Conductor*%
G36*
X148612140Y-80310184D02*
G01*
X148657895Y-80362988D01*
X148667839Y-80432146D01*
X148661689Y-80454572D01*
X148662031Y-80454676D01*
X148660261Y-80460510D01*
X148629500Y-80615153D01*
X148629500Y-80772846D01*
X148660261Y-80927489D01*
X148660264Y-80927501D01*
X148720602Y-81073172D01*
X148720609Y-81073185D01*
X148808210Y-81204288D01*
X148808213Y-81204292D01*
X148919707Y-81315786D01*
X148919711Y-81315789D01*
X149050814Y-81403390D01*
X149050827Y-81403397D01*
X149175779Y-81455153D01*
X149196503Y-81463737D01*
X149351153Y-81494499D01*
X149351156Y-81494500D01*
X149351158Y-81494500D01*
X149508844Y-81494500D01*
X149508845Y-81494499D01*
X149663497Y-81463737D01*
X149776166Y-81417067D01*
X149809172Y-81403397D01*
X149809172Y-81403396D01*
X149809179Y-81403394D01*
X149870442Y-81362458D01*
X149937117Y-81341581D01*
X149986778Y-81350998D01*
X150046503Y-81375737D01*
X150185523Y-81403390D01*
X150201153Y-81406499D01*
X150201156Y-81406500D01*
X150201158Y-81406500D01*
X150358844Y-81406500D01*
X150358845Y-81406499D01*
X150513497Y-81375737D01*
X150634450Y-81325637D01*
X150659172Y-81315397D01*
X150659172Y-81315396D01*
X150659179Y-81315394D01*
X150790289Y-81227789D01*
X150901789Y-81116289D01*
X150989394Y-80985179D01*
X151049737Y-80839497D01*
X151080500Y-80684842D01*
X151080500Y-80684835D01*
X151081097Y-80678782D01*
X151083460Y-80679014D01*
X151100185Y-80622058D01*
X151152989Y-80576303D01*
X151222147Y-80566359D01*
X151285703Y-80595384D01*
X151292181Y-80601416D01*
X154052552Y-83361787D01*
X154086037Y-83423110D01*
X154081053Y-83492802D01*
X154039181Y-83548735D01*
X153973717Y-83573152D01*
X153917421Y-83564030D01*
X153903500Y-83558264D01*
X153903498Y-83558263D01*
X153903497Y-83558263D01*
X153903494Y-83558262D01*
X153903489Y-83558261D01*
X153748845Y-83527500D01*
X153748842Y-83527500D01*
X153591158Y-83527500D01*
X153591155Y-83527500D01*
X153436510Y-83558261D01*
X153436498Y-83558264D01*
X153290827Y-83618602D01*
X153290814Y-83618609D01*
X153159711Y-83706210D01*
X153159707Y-83706213D01*
X153048213Y-83817707D01*
X153048210Y-83817711D01*
X152960609Y-83948814D01*
X152960602Y-83948827D01*
X152900264Y-84094498D01*
X152900261Y-84094510D01*
X152869500Y-84249153D01*
X152869500Y-84406846D01*
X152900261Y-84561489D01*
X152900264Y-84561501D01*
X152960602Y-84707172D01*
X152960609Y-84707185D01*
X153048210Y-84838288D01*
X153048213Y-84838292D01*
X153159707Y-84949786D01*
X153159711Y-84949789D01*
X153290814Y-85037390D01*
X153290827Y-85037397D01*
X153417824Y-85090000D01*
X153436503Y-85097737D01*
X153591153Y-85128499D01*
X153591156Y-85128500D01*
X153591158Y-85128500D01*
X153748844Y-85128500D01*
X153748845Y-85128499D01*
X153903497Y-85097737D01*
X153928048Y-85087567D01*
X153997514Y-85080098D01*
X154059994Y-85111371D01*
X154095647Y-85171459D01*
X154099500Y-85202128D01*
X154099500Y-85600870D01*
X154099501Y-85600876D01*
X154105908Y-85660483D01*
X154156202Y-85795328D01*
X154156206Y-85795335D01*
X154242452Y-85910544D01*
X154242455Y-85910547D01*
X154357664Y-85996793D01*
X154357671Y-85996797D01*
X154394411Y-86010500D01*
X154492517Y-86047091D01*
X154552127Y-86053500D01*
X154874902Y-86053499D01*
X154941941Y-86073183D01*
X154962583Y-86089818D01*
X155389181Y-86516416D01*
X155422666Y-86577739D01*
X155425500Y-86604097D01*
X155425500Y-95435902D01*
X155405815Y-95502941D01*
X155389181Y-95523583D01*
X154358498Y-96554265D01*
X154297175Y-96587750D01*
X154227483Y-96582766D01*
X154171550Y-96540894D01*
X154154635Y-96509918D01*
X154154363Y-96509191D01*
X154153796Y-96507669D01*
X154153794Y-96507666D01*
X154153793Y-96507664D01*
X154067547Y-96392455D01*
X154067544Y-96392452D01*
X153952335Y-96306206D01*
X153952328Y-96306202D01*
X153891167Y-96283391D01*
X153835233Y-96241520D01*
X153810816Y-96176056D01*
X153810500Y-96167209D01*
X153810500Y-95503928D01*
X153830185Y-95436889D01*
X153831364Y-95435087D01*
X153871394Y-95375179D01*
X153931737Y-95229497D01*
X153962500Y-95074842D01*
X153962500Y-94917158D01*
X153962500Y-94917155D01*
X153962499Y-94917153D01*
X153959269Y-94900913D01*
X153931737Y-94762503D01*
X153898200Y-94681537D01*
X153871397Y-94616827D01*
X153871390Y-94616814D01*
X153783789Y-94485711D01*
X153783786Y-94485707D01*
X153751597Y-94453518D01*
X153718112Y-94392195D01*
X153723096Y-94322503D01*
X153764968Y-94266570D01*
X153810768Y-94245159D01*
X153817378Y-94243597D01*
X153952086Y-94193354D01*
X153952093Y-94193350D01*
X154067187Y-94107190D01*
X154067190Y-94107187D01*
X154153350Y-93992093D01*
X154153354Y-93992086D01*
X154203596Y-93857379D01*
X154203598Y-93857372D01*
X154209999Y-93797844D01*
X154210000Y-93797827D01*
X154210000Y-93650000D01*
X152210000Y-93650000D01*
X152210000Y-93797844D01*
X152216401Y-93857372D01*
X152216403Y-93857379D01*
X152266645Y-93992086D01*
X152266649Y-93992093D01*
X152352809Y-94107187D01*
X152352812Y-94107190D01*
X152467906Y-94193350D01*
X152467913Y-94193354D01*
X152552723Y-94224986D01*
X152608657Y-94266857D01*
X152633074Y-94332321D01*
X152618223Y-94400594D01*
X152597072Y-94428849D01*
X152540210Y-94485711D01*
X152452609Y-94616814D01*
X152452602Y-94616827D01*
X152392264Y-94762498D01*
X152392261Y-94762510D01*
X152361500Y-94917153D01*
X152361500Y-95074846D01*
X152368758Y-95111335D01*
X152362531Y-95180927D01*
X152319667Y-95236104D01*
X152253777Y-95259348D01*
X152212547Y-95254603D01*
X152177202Y-95244334D01*
X152141181Y-95241500D01*
X151642830Y-95241500D01*
X151642808Y-95241501D01*
X151606794Y-95244335D01*
X151452611Y-95289129D01*
X151452606Y-95289131D01*
X151314404Y-95370863D01*
X151314396Y-95370869D01*
X151310085Y-95375181D01*
X151283157Y-95389884D01*
X151257339Y-95406477D01*
X151251138Y-95407368D01*
X151248762Y-95408666D01*
X151222404Y-95411500D01*
X151092500Y-95411500D01*
X151025461Y-95391815D01*
X150979706Y-95339011D01*
X150968500Y-95287500D01*
X150968500Y-95251116D01*
X150968501Y-95251103D01*
X150968501Y-95083002D01*
X150968501Y-95083000D01*
X150927577Y-94930272D01*
X150859417Y-94812216D01*
X150848520Y-94793341D01*
X150736716Y-94681537D01*
X150736713Y-94681535D01*
X150064348Y-94009170D01*
X150030863Y-93947847D01*
X150035847Y-93878155D01*
X150035849Y-93878152D01*
X150043597Y-93857379D01*
X150043597Y-93857377D01*
X150049999Y-93797844D01*
X150050000Y-93797827D01*
X150050000Y-93650000D01*
X149756541Y-93650000D01*
X149689502Y-93630315D01*
X149683694Y-93626346D01*
X149675779Y-93620600D01*
X149625659Y-93570480D01*
X149538847Y-93520360D01*
X149488728Y-93491423D01*
X149336000Y-93450499D01*
X149177886Y-93450499D01*
X149170290Y-93450499D01*
X149170274Y-93450500D01*
X149151862Y-93450500D01*
X149084823Y-93430815D01*
X149064181Y-93414181D01*
X149050000Y-93400000D01*
X148924000Y-93400000D01*
X148856961Y-93380315D01*
X148811206Y-93327511D01*
X148800000Y-93276000D01*
X148800000Y-93150000D01*
X149300000Y-93150000D01*
X150050000Y-93150000D01*
X150050000Y-93002172D01*
X150049999Y-93002155D01*
X152210000Y-93002155D01*
X152210000Y-93150000D01*
X152960000Y-93150000D01*
X153460000Y-93150000D01*
X154210000Y-93150000D01*
X154210000Y-93002172D01*
X154209999Y-93002155D01*
X154203598Y-92942627D01*
X154203596Y-92942620D01*
X154153354Y-92807913D01*
X154153350Y-92807906D01*
X154067190Y-92692812D01*
X154067187Y-92692809D01*
X153952093Y-92606649D01*
X153952086Y-92606645D01*
X153817379Y-92556403D01*
X153817372Y-92556401D01*
X153757844Y-92550000D01*
X153460000Y-92550000D01*
X153460000Y-93150000D01*
X152960000Y-93150000D01*
X152960000Y-92550000D01*
X152662155Y-92550000D01*
X152602627Y-92556401D01*
X152602620Y-92556403D01*
X152467913Y-92606645D01*
X152467906Y-92606649D01*
X152352812Y-92692809D01*
X152352809Y-92692812D01*
X152266649Y-92807906D01*
X152266645Y-92807913D01*
X152216403Y-92942620D01*
X152216401Y-92942627D01*
X152210000Y-93002155D01*
X150049999Y-93002155D01*
X150043598Y-92942627D01*
X150043596Y-92942620D01*
X149993354Y-92807913D01*
X149993350Y-92807906D01*
X149907190Y-92692812D01*
X149907187Y-92692809D01*
X149792093Y-92606649D01*
X149792086Y-92606645D01*
X149657379Y-92556403D01*
X149657372Y-92556401D01*
X149597844Y-92550000D01*
X149300000Y-92550000D01*
X149300000Y-93150000D01*
X148800000Y-93150000D01*
X148800000Y-92550000D01*
X148502155Y-92550000D01*
X148442627Y-92556401D01*
X148442620Y-92556403D01*
X148307913Y-92606645D01*
X148307906Y-92606649D01*
X148192812Y-92692809D01*
X148192809Y-92692812D01*
X148106649Y-92807906D01*
X148106640Y-92807922D01*
X148105747Y-92810318D01*
X148104216Y-92812362D01*
X148102396Y-92815696D01*
X148101916Y-92815434D01*
X148063870Y-92866248D01*
X147998403Y-92890658D01*
X147930132Y-92875799D01*
X147901889Y-92854654D01*
X146547819Y-91500584D01*
X146514334Y-91439261D01*
X146511500Y-91412903D01*
X146511500Y-88484500D01*
X146531185Y-88417461D01*
X146583989Y-88371706D01*
X146635500Y-88360500D01*
X147241169Y-88360500D01*
X147241174Y-88360500D01*
X147339685Y-88350436D01*
X147499287Y-88297549D01*
X147642391Y-88209281D01*
X147761281Y-88090391D01*
X147761284Y-88090385D01*
X147765762Y-88084724D01*
X147766995Y-88085699D01*
X147812595Y-88044671D01*
X147881556Y-88033438D01*
X147929323Y-88049751D01*
X147949602Y-88061744D01*
X147971173Y-88068011D01*
X148107426Y-88107597D01*
X148107429Y-88107597D01*
X148107431Y-88107598D01*
X148144306Y-88110500D01*
X148144314Y-88110500D01*
X148765559Y-88110500D01*
X148832598Y-88130185D01*
X148878353Y-88182989D01*
X148888297Y-88252147D01*
X148859272Y-88315703D01*
X148853240Y-88322181D01*
X148757963Y-88417457D01*
X148757960Y-88417461D01*
X148670359Y-88548564D01*
X148670352Y-88548577D01*
X148610014Y-88694248D01*
X148610011Y-88694260D01*
X148579250Y-88848903D01*
X148579250Y-89006596D01*
X148610011Y-89161239D01*
X148610014Y-89161251D01*
X148670352Y-89306922D01*
X148670359Y-89306935D01*
X148757960Y-89438038D01*
X148757963Y-89438042D01*
X148869457Y-89549536D01*
X148869461Y-89549539D01*
X149000564Y-89637140D01*
X149000577Y-89637147D01*
X149145966Y-89697368D01*
X149146253Y-89697487D01*
X149273097Y-89722718D01*
X149300903Y-89728249D01*
X149300906Y-89728250D01*
X149300908Y-89728250D01*
X149458594Y-89728250D01*
X149458595Y-89728249D01*
X149613247Y-89697487D01*
X149758929Y-89637144D01*
X149890039Y-89549539D01*
X150001539Y-89438039D01*
X150089144Y-89306929D01*
X150149487Y-89161247D01*
X150168863Y-89063835D01*
X150180388Y-89005900D01*
X150212773Y-88943989D01*
X150214268Y-88942466D01*
X151009916Y-88146819D01*
X151071239Y-88113334D01*
X151097597Y-88110500D01*
X151560409Y-88110500D01*
X151627448Y-88130185D01*
X151673203Y-88182989D01*
X151683767Y-88221898D01*
X151688651Y-88269708D01*
X151688651Y-88269710D01*
X151741996Y-88430694D01*
X151742001Y-88430705D01*
X151831029Y-88575040D01*
X151831032Y-88575044D01*
X151950955Y-88694967D01*
X151950959Y-88694970D01*
X152095294Y-88783998D01*
X152095297Y-88783999D01*
X152095303Y-88784003D01*
X152256292Y-88837349D01*
X152355655Y-88847500D01*
X152952344Y-88847499D01*
X152952352Y-88847498D01*
X152952355Y-88847498D01*
X153006760Y-88841940D01*
X153051708Y-88837349D01*
X153212697Y-88784003D01*
X153357044Y-88694968D01*
X153476968Y-88575044D01*
X153566003Y-88430697D01*
X153619349Y-88269708D01*
X153629500Y-88170345D01*
X153629499Y-87623656D01*
X153619349Y-87524292D01*
X153566003Y-87363303D01*
X153565999Y-87363297D01*
X153565998Y-87363294D01*
X153476970Y-87218959D01*
X153476967Y-87218955D01*
X153467339Y-87209327D01*
X153433854Y-87148004D01*
X153438838Y-87078312D01*
X153467345Y-87033959D01*
X153476573Y-87024731D01*
X153565542Y-86880492D01*
X153565547Y-86880481D01*
X153618855Y-86719606D01*
X153628999Y-86620322D01*
X153629000Y-86620309D01*
X153629000Y-86597000D01*
X152270614Y-86597000D01*
X152251996Y-86607166D01*
X152225638Y-86610000D01*
X151891815Y-86610000D01*
X151828694Y-86592732D01*
X151770396Y-86558255D01*
X151770393Y-86558254D01*
X151612573Y-86512402D01*
X151612567Y-86512401D01*
X151575701Y-86509500D01*
X151575694Y-86509500D01*
X151121500Y-86509500D01*
X151112814Y-86506949D01*
X151103853Y-86508238D01*
X151079812Y-86497259D01*
X151054461Y-86489815D01*
X151048533Y-86482974D01*
X151040297Y-86479213D01*
X151026007Y-86456978D01*
X151008706Y-86437011D01*
X151006418Y-86426496D01*
X151002523Y-86420435D01*
X150997500Y-86385500D01*
X150997500Y-86334500D01*
X151017185Y-86267461D01*
X151069989Y-86221706D01*
X151121500Y-86210500D01*
X151575686Y-86210500D01*
X151575694Y-86210500D01*
X151612569Y-86207598D01*
X151612571Y-86207597D01*
X151612573Y-86207597D01*
X151654191Y-86195505D01*
X151770398Y-86161744D01*
X151850676Y-86114268D01*
X151913797Y-86097000D01*
X152404000Y-86097000D01*
X152904000Y-86097000D01*
X153628999Y-86097000D01*
X153628999Y-86073692D01*
X153628998Y-86073677D01*
X153618855Y-85974392D01*
X153565547Y-85813518D01*
X153565542Y-85813507D01*
X153476575Y-85669271D01*
X153476572Y-85669267D01*
X153356732Y-85549427D01*
X153356728Y-85549424D01*
X153212492Y-85460457D01*
X153212481Y-85460452D01*
X153051606Y-85407144D01*
X152952322Y-85397000D01*
X152904000Y-85397000D01*
X152904000Y-86097000D01*
X152404000Y-86097000D01*
X152404000Y-85397000D01*
X152403999Y-85396999D01*
X152355693Y-85397000D01*
X152355673Y-85397001D01*
X152297101Y-85402985D01*
X152228408Y-85390215D01*
X152177524Y-85342334D01*
X152160500Y-85279627D01*
X152160500Y-85194313D01*
X152160499Y-85194298D01*
X152157598Y-85157432D01*
X152157597Y-85157426D01*
X152111745Y-84999606D01*
X152111744Y-84999603D01*
X152111744Y-84999602D01*
X152028081Y-84858135D01*
X152028078Y-84858132D01*
X152028076Y-84858129D01*
X151911870Y-84741923D01*
X151911862Y-84741917D01*
X151796807Y-84673874D01*
X151770398Y-84658256D01*
X151770397Y-84658255D01*
X151770396Y-84658255D01*
X151770393Y-84658254D01*
X151612573Y-84612402D01*
X151612567Y-84612401D01*
X151575701Y-84609500D01*
X151575694Y-84609500D01*
X150419306Y-84609500D01*
X150419298Y-84609500D01*
X150382432Y-84612401D01*
X150382426Y-84612402D01*
X150224606Y-84658254D01*
X150224603Y-84658255D01*
X150083137Y-84741917D01*
X150083129Y-84741923D01*
X149966923Y-84858129D01*
X149966911Y-84858145D01*
X149966721Y-84858467D01*
X149966506Y-84858667D01*
X149962139Y-84864298D01*
X149961229Y-84863592D01*
X149915645Y-84906142D01*
X149846901Y-84918635D01*
X149782316Y-84891980D01*
X149758144Y-84864078D01*
X149757861Y-84864298D01*
X149753810Y-84859076D01*
X149753265Y-84858446D01*
X149753081Y-84858135D01*
X149753080Y-84858134D01*
X149753079Y-84858132D01*
X149636870Y-84741923D01*
X149636862Y-84741917D01*
X149521807Y-84673874D01*
X149495398Y-84658256D01*
X149495397Y-84658255D01*
X149495396Y-84658255D01*
X149456902Y-84647071D01*
X149398017Y-84609463D01*
X149368812Y-84545990D01*
X149378559Y-84476804D01*
X149424164Y-84423870D01*
X149426403Y-84422456D01*
X149496343Y-84379317D01*
X149620315Y-84255345D01*
X149712356Y-84106124D01*
X149712358Y-84106119D01*
X149767505Y-83939697D01*
X149767506Y-83939690D01*
X149777999Y-83836986D01*
X149778000Y-83836973D01*
X149778000Y-83562000D01*
X148902000Y-83562000D01*
X148834961Y-83542315D01*
X148789206Y-83489511D01*
X148778000Y-83438000D01*
X148778000Y-83312000D01*
X148652000Y-83312000D01*
X148584961Y-83292315D01*
X148539206Y-83239511D01*
X148528000Y-83188000D01*
X148528000Y-83062000D01*
X149028000Y-83062000D01*
X149777999Y-83062000D01*
X149777999Y-82787028D01*
X149777998Y-82787013D01*
X149767505Y-82684302D01*
X149712358Y-82517880D01*
X149712356Y-82517875D01*
X149620315Y-82368654D01*
X149496345Y-82244684D01*
X149347124Y-82152643D01*
X149347119Y-82152641D01*
X149180697Y-82097494D01*
X149180690Y-82097493D01*
X149077986Y-82087000D01*
X149028000Y-82087000D01*
X149028000Y-83062000D01*
X148528000Y-83062000D01*
X148528000Y-82087000D01*
X148527999Y-82086999D01*
X148478029Y-82087000D01*
X148478009Y-82087001D01*
X148405673Y-82094391D01*
X148336980Y-82081621D01*
X148286096Y-82033740D01*
X148269176Y-81965950D01*
X148281923Y-81919164D01*
X148281063Y-81918808D01*
X148320697Y-81823120D01*
X148343737Y-81767497D01*
X148374500Y-81612842D01*
X148374500Y-81455158D01*
X148374500Y-81455155D01*
X148374499Y-81455153D01*
X148364203Y-81403390D01*
X148343737Y-81300503D01*
X148343735Y-81300498D01*
X148283397Y-81154827D01*
X148283390Y-81154814D01*
X148195789Y-81023711D01*
X148195786Y-81023707D01*
X148095338Y-80923259D01*
X148061853Y-80861936D01*
X148066837Y-80792244D01*
X148095338Y-80747896D01*
X148098713Y-80744521D01*
X148098716Y-80744520D01*
X148210520Y-80632716D01*
X148248831Y-80566359D01*
X148262934Y-80541932D01*
X148289575Y-80495788D01*
X148289577Y-80495785D01*
X148319957Y-80382403D01*
X148334449Y-80358628D01*
X148346018Y-80333296D01*
X148352383Y-80329205D01*
X148356321Y-80322745D01*
X148381368Y-80310577D01*
X148404796Y-80295522D01*
X148415543Y-80293976D01*
X148419168Y-80292216D01*
X148439722Y-80290499D01*
X148545102Y-80290499D01*
X148612140Y-80310184D01*
G37*
%TD.AperFunction*%
%TA.AperFunction,Conductor*%
G36*
X145796834Y-83148913D02*
G01*
X145852767Y-83190785D01*
X145877184Y-83256249D01*
X145877500Y-83265095D01*
X145877500Y-83837001D01*
X145877501Y-83837019D01*
X145888000Y-83939796D01*
X145888001Y-83939799D01*
X145909664Y-84005172D01*
X145943186Y-84106334D01*
X146035096Y-84255345D01*
X146035289Y-84255657D01*
X146061675Y-84282043D01*
X146095160Y-84343366D01*
X146090176Y-84413058D01*
X146048304Y-84468991D01*
X146039092Y-84475262D01*
X145981609Y-84510718D01*
X145862719Y-84629608D01*
X145862716Y-84629612D01*
X145774455Y-84772704D01*
X145774450Y-84772715D01*
X145752721Y-84838289D01*
X145721564Y-84932315D01*
X145721564Y-84932316D01*
X145721563Y-84932316D01*
X145711500Y-85030818D01*
X145711500Y-85497402D01*
X145691815Y-85564441D01*
X145675181Y-85585083D01*
X145430481Y-85829782D01*
X145430479Y-85829785D01*
X145423665Y-85841588D01*
X145383853Y-85910546D01*
X145380361Y-85916594D01*
X145380359Y-85916596D01*
X145351425Y-85966709D01*
X145351424Y-85966710D01*
X145351423Y-85966715D01*
X145310499Y-86119443D01*
X145310499Y-86119445D01*
X145310499Y-86287546D01*
X145310500Y-86287559D01*
X145310500Y-91626330D01*
X145310499Y-91626348D01*
X145310499Y-91792054D01*
X145310498Y-91792054D01*
X145351423Y-91944787D01*
X145359291Y-91958413D01*
X145359290Y-91958413D01*
X145359292Y-91958415D01*
X145430475Y-92081709D01*
X145430481Y-92081717D01*
X145549349Y-92200585D01*
X145549355Y-92200590D01*
X147764139Y-94415374D01*
X147764149Y-94415385D01*
X147768479Y-94419715D01*
X147768480Y-94419716D01*
X147880284Y-94531520D01*
X147935641Y-94563480D01*
X148017215Y-94610577D01*
X148169942Y-94651500D01*
X148169943Y-94651500D01*
X148301344Y-94651500D01*
X148368383Y-94671185D01*
X148414138Y-94723989D01*
X148424147Y-94784066D01*
X148424500Y-94784066D01*
X148424500Y-94786182D01*
X148424746Y-94787659D01*
X148424500Y-94790155D01*
X148424500Y-94790158D01*
X148424500Y-94947842D01*
X148424500Y-94947844D01*
X148424499Y-94947844D01*
X148447116Y-95061538D01*
X148449499Y-95085727D01*
X148449499Y-95123057D01*
X148449499Y-95123059D01*
X148449500Y-95133053D01*
X148449500Y-95956500D01*
X148429815Y-96023539D01*
X148377011Y-96069294D01*
X148325500Y-96080500D01*
X143389941Y-96080500D01*
X143350542Y-96091056D01*
X143350543Y-96091057D01*
X143237214Y-96121423D01*
X143237209Y-96121426D01*
X143100291Y-96200475D01*
X143100285Y-96200479D01*
X143087580Y-96213184D01*
X143026256Y-96246667D01*
X142999901Y-96249500D01*
X142502129Y-96249500D01*
X142502123Y-96249501D01*
X142442516Y-96255908D01*
X142307671Y-96306202D01*
X142307665Y-96306206D01*
X142276810Y-96329304D01*
X142211346Y-96353721D01*
X142143073Y-96338869D01*
X142093668Y-96289464D01*
X142078500Y-96230037D01*
X142078500Y-94269338D01*
X142098185Y-94202299D01*
X142150989Y-94156544D01*
X142220147Y-94146600D01*
X142276812Y-94170072D01*
X142307910Y-94193352D01*
X142307913Y-94193354D01*
X142442620Y-94243596D01*
X142442627Y-94243598D01*
X142502155Y-94249999D01*
X142502172Y-94250000D01*
X142800000Y-94250000D01*
X143300000Y-94250000D01*
X143597828Y-94250000D01*
X143597844Y-94249999D01*
X143657372Y-94243598D01*
X143657379Y-94243596D01*
X143792086Y-94193354D01*
X143792093Y-94193350D01*
X143907187Y-94107190D01*
X143907190Y-94107187D01*
X143993350Y-93992093D01*
X143993354Y-93992086D01*
X144043596Y-93857379D01*
X144043598Y-93857372D01*
X144049999Y-93797844D01*
X144050000Y-93797827D01*
X144050000Y-93650000D01*
X143300000Y-93650000D01*
X143300000Y-94250000D01*
X142800000Y-94250000D01*
X142800000Y-93150000D01*
X143300000Y-93150000D01*
X144050000Y-93150000D01*
X144050000Y-93002172D01*
X144049999Y-93002155D01*
X144043598Y-92942627D01*
X144043596Y-92942620D01*
X143993354Y-92807913D01*
X143993350Y-92807906D01*
X143907190Y-92692812D01*
X143907187Y-92692809D01*
X143792093Y-92606649D01*
X143792086Y-92606645D01*
X143657379Y-92556403D01*
X143657372Y-92556401D01*
X143597844Y-92550000D01*
X143300000Y-92550000D01*
X143300000Y-93150000D01*
X142800000Y-93150000D01*
X142800000Y-92550000D01*
X142502155Y-92550000D01*
X142442627Y-92556401D01*
X142442620Y-92556403D01*
X142307913Y-92606645D01*
X142307906Y-92606649D01*
X142276810Y-92629928D01*
X142211346Y-92654345D01*
X142143073Y-92639493D01*
X142093668Y-92590088D01*
X142078500Y-92530661D01*
X142078500Y-88946096D01*
X142098185Y-88879057D01*
X142114815Y-88858419D01*
X142862713Y-88110521D01*
X142862716Y-88110520D01*
X142974520Y-87998716D01*
X143024639Y-87911904D01*
X143053577Y-87861785D01*
X143094501Y-87709057D01*
X143094501Y-87550943D01*
X143094501Y-87543348D01*
X143094500Y-87543330D01*
X143094500Y-85800096D01*
X143114185Y-85733057D01*
X143130814Y-85712420D01*
X145665821Y-83177412D01*
X145727142Y-83143929D01*
X145796834Y-83148913D01*
G37*
%TD.AperFunction*%
%TA.AperFunction,Conductor*%
G36*
X163675270Y-94741717D02*
G01*
X163703771Y-94739474D01*
X163772148Y-94753838D01*
X163821905Y-94802890D01*
X163837500Y-94863092D01*
X163837500Y-95599086D01*
X163817815Y-95666125D01*
X163765011Y-95711880D01*
X163695853Y-95721824D01*
X163632297Y-95692799D01*
X163613182Y-95671971D01*
X163590109Y-95640214D01*
X163590105Y-95640209D01*
X163439786Y-95489890D01*
X163267817Y-95364949D01*
X163258504Y-95360204D01*
X163207707Y-95312230D01*
X163190912Y-95244409D01*
X163213449Y-95178274D01*
X163258507Y-95139232D01*
X163267555Y-95134622D01*
X163321716Y-95095270D01*
X163321717Y-95095270D01*
X162689408Y-94462962D01*
X162752993Y-94445925D01*
X162867007Y-94380099D01*
X162960099Y-94287007D01*
X163025925Y-94172993D01*
X163042962Y-94109409D01*
X163675270Y-94741717D01*
G37*
%TD.AperFunction*%
%TA.AperFunction,Conductor*%
G36*
X163799919Y-92271987D02*
G01*
X163834277Y-92332825D01*
X163837500Y-92360913D01*
X163837500Y-93096907D01*
X163817815Y-93163946D01*
X163765011Y-93209701D01*
X163703771Y-93220525D01*
X163675270Y-93218281D01*
X163042962Y-93850590D01*
X163025925Y-93787007D01*
X162960099Y-93672993D01*
X162867007Y-93579901D01*
X162752993Y-93514075D01*
X162689409Y-93497037D01*
X163321716Y-92864728D01*
X163267547Y-92825373D01*
X163267547Y-92825372D01*
X163258500Y-92820763D01*
X163207706Y-92772788D01*
X163190912Y-92704966D01*
X163213451Y-92638832D01*
X163258508Y-92599793D01*
X163267816Y-92595051D01*
X163356442Y-92530661D01*
X163439786Y-92470109D01*
X163439788Y-92470106D01*
X163439792Y-92470104D01*
X163590104Y-92319792D01*
X163613181Y-92288028D01*
X163668510Y-92245363D01*
X163738123Y-92239382D01*
X163799919Y-92271987D01*
G37*
%TD.AperFunction*%
%TA.AperFunction,Conductor*%
G36*
X139234075Y-91632993D02*
G01*
X139299901Y-91747007D01*
X139392993Y-91840099D01*
X139507007Y-91905925D01*
X139570589Y-91922962D01*
X138938282Y-92555269D01*
X138938282Y-92555270D01*
X138992452Y-92594626D01*
X138992451Y-92594626D01*
X139001495Y-92599234D01*
X139052292Y-92647208D01*
X139069087Y-92715029D01*
X139046550Y-92781164D01*
X139001499Y-92820202D01*
X138992182Y-92824949D01*
X138820213Y-92949890D01*
X138820212Y-92949892D01*
X138669894Y-93100209D01*
X138669890Y-93100214D01*
X138646818Y-93131971D01*
X138591489Y-93174637D01*
X138521875Y-93180616D01*
X138460080Y-93148011D01*
X138425723Y-93087172D01*
X138422500Y-93059086D01*
X138422500Y-92323091D01*
X138442185Y-92256052D01*
X138494989Y-92210297D01*
X138556230Y-92199473D01*
X138584728Y-92201716D01*
X139217037Y-91569408D01*
X139234075Y-91632993D01*
G37*
%TD.AperFunction*%
%TA.AperFunction,Conductor*%
G36*
X138560523Y-89698695D02*
G01*
X138564147Y-89698175D01*
X138592833Y-89711275D01*
X138622222Y-89722718D01*
X138625679Y-89726275D01*
X138627703Y-89727200D01*
X138646819Y-89748029D01*
X138669892Y-89779788D01*
X138820213Y-89930109D01*
X138992179Y-90055048D01*
X138992181Y-90055049D01*
X138992184Y-90055051D01*
X139001493Y-90059794D01*
X139052290Y-90107766D01*
X139069087Y-90175587D01*
X139046552Y-90241722D01*
X139001505Y-90280760D01*
X138992446Y-90285376D01*
X138992440Y-90285380D01*
X138938282Y-90324727D01*
X138938282Y-90324728D01*
X139570591Y-90957037D01*
X139507007Y-90974075D01*
X139392993Y-91039901D01*
X139299901Y-91132993D01*
X139234075Y-91247007D01*
X139217037Y-91310591D01*
X138584728Y-90678282D01*
X138556229Y-90680525D01*
X138487852Y-90666161D01*
X138438095Y-90617109D01*
X138422500Y-90556907D01*
X138422500Y-89820913D01*
X138431384Y-89790654D01*
X138438529Y-89759936D01*
X138441154Y-89757384D01*
X138442185Y-89753874D01*
X138466009Y-89733230D01*
X138488635Y-89711242D01*
X138492224Y-89710514D01*
X138494989Y-89708119D01*
X138526197Y-89703631D01*
X138557113Y-89697368D01*
X138560523Y-89698695D01*
G37*
%TD.AperFunction*%
%TA.AperFunction,Conductor*%
G36*
X139234075Y-81472993D02*
G01*
X139299901Y-81587007D01*
X139392993Y-81680099D01*
X139507007Y-81745925D01*
X139570590Y-81762962D01*
X138938282Y-82395269D01*
X138938282Y-82395270D01*
X138992452Y-82434626D01*
X138992451Y-82434626D01*
X139001495Y-82439234D01*
X139052292Y-82487208D01*
X139069087Y-82555029D01*
X139046550Y-82621164D01*
X139001499Y-82660202D01*
X138992182Y-82664949D01*
X138820213Y-82789890D01*
X138669894Y-82940209D01*
X138669890Y-82940214D01*
X138646818Y-82971971D01*
X138591489Y-83014637D01*
X138521875Y-83020616D01*
X138460080Y-82988011D01*
X138425723Y-82927172D01*
X138422500Y-82899086D01*
X138422500Y-82163091D01*
X138442185Y-82096052D01*
X138494989Y-82050297D01*
X138556230Y-82039473D01*
X138584728Y-82041716D01*
X139217037Y-81409408D01*
X139234075Y-81472993D01*
G37*
%TD.AperFunction*%
%TA.AperFunction,Conductor*%
G36*
X143149334Y-79653951D02*
G01*
X143205267Y-79695823D01*
X143229684Y-79761287D01*
X143230000Y-79770133D01*
X143230000Y-79837844D01*
X143236401Y-79897372D01*
X143236403Y-79897379D01*
X143286645Y-80032086D01*
X143286649Y-80032093D01*
X143372809Y-80147187D01*
X143372812Y-80147190D01*
X143487906Y-80233350D01*
X143487913Y-80233354D01*
X143622620Y-80283596D01*
X143622627Y-80283598D01*
X143682155Y-80289999D01*
X143682172Y-80290000D01*
X143859402Y-80290000D01*
X143926441Y-80309685D01*
X143972196Y-80362489D01*
X143982140Y-80431647D01*
X143953115Y-80495203D01*
X143947083Y-80501681D01*
X141782181Y-82666583D01*
X141720858Y-82700068D01*
X141651166Y-82695084D01*
X141595233Y-82653212D01*
X141570816Y-82587748D01*
X141570500Y-82578902D01*
X141570500Y-81181633D01*
X141590185Y-81114594D01*
X141606819Y-81093952D01*
X143018319Y-79682452D01*
X143079642Y-79648967D01*
X143149334Y-79653951D01*
G37*
%TD.AperFunction*%
%TA.AperFunction,Conductor*%
G36*
X138627703Y-79567200D02*
G01*
X138646819Y-79588029D01*
X138669892Y-79619788D01*
X138820213Y-79770109D01*
X138992179Y-79895048D01*
X138992181Y-79895049D01*
X138992184Y-79895051D01*
X139001493Y-79899794D01*
X139052290Y-79947766D01*
X139069087Y-80015587D01*
X139046552Y-80081722D01*
X139001505Y-80120760D01*
X138992446Y-80125376D01*
X138992440Y-80125380D01*
X138938282Y-80164727D01*
X138938282Y-80164728D01*
X139570591Y-80797037D01*
X139507007Y-80814075D01*
X139392993Y-80879901D01*
X139299901Y-80972993D01*
X139234075Y-81087007D01*
X139217037Y-81150591D01*
X138584728Y-80518282D01*
X138556229Y-80520525D01*
X138487852Y-80506161D01*
X138438095Y-80457109D01*
X138422500Y-80396907D01*
X138422500Y-79660913D01*
X138442185Y-79593874D01*
X138494989Y-79548119D01*
X138564147Y-79538175D01*
X138627703Y-79567200D01*
G37*
%TD.AperFunction*%
%TA.AperFunction,Conductor*%
G36*
X142679477Y-78110185D02*
G01*
X142725232Y-78162989D01*
X142735176Y-78232147D01*
X142706151Y-78295703D01*
X142700119Y-78302181D01*
X140489481Y-80512818D01*
X140489479Y-80512821D01*
X140481202Y-80527158D01*
X140440002Y-80598520D01*
X140410423Y-80649751D01*
X140369499Y-80802479D01*
X140369499Y-80802481D01*
X140369499Y-80912693D01*
X140349814Y-80979732D01*
X140333180Y-81000374D01*
X140182962Y-81150591D01*
X140165925Y-81087007D01*
X140100099Y-80972993D01*
X140007007Y-80879901D01*
X139892993Y-80814075D01*
X139829409Y-80797037D01*
X140461716Y-80164728D01*
X140407547Y-80125373D01*
X140407547Y-80125372D01*
X140398500Y-80120763D01*
X140347706Y-80072788D01*
X140330912Y-80004966D01*
X140353451Y-79938832D01*
X140398508Y-79899793D01*
X140407816Y-79895051D01*
X140487007Y-79837515D01*
X140579786Y-79770109D01*
X140579788Y-79770106D01*
X140579792Y-79770104D01*
X140730104Y-79619792D01*
X140730106Y-79619788D01*
X140730109Y-79619786D01*
X140855048Y-79447820D01*
X140855047Y-79447820D01*
X140855051Y-79447816D01*
X140951557Y-79258412D01*
X141017246Y-79056243D01*
X141050500Y-78846287D01*
X141050500Y-78633713D01*
X141017246Y-78423757D01*
X141003506Y-78381473D01*
X141003072Y-78366261D01*
X140997754Y-78352002D01*
X141002095Y-78332046D01*
X141001512Y-78311635D01*
X141009599Y-78297549D01*
X141012606Y-78283729D01*
X141033750Y-78255483D01*
X141162417Y-78126816D01*
X141223740Y-78093334D01*
X141250097Y-78090500D01*
X142612438Y-78090500D01*
X142679477Y-78110185D01*
G37*
%TD.AperFunction*%
%TA.AperFunction,Conductor*%
G36*
X139234075Y-76392993D02*
G01*
X139299901Y-76507007D01*
X139392993Y-76600099D01*
X139507007Y-76665925D01*
X139570590Y-76682962D01*
X138938282Y-77315269D01*
X138938282Y-77315270D01*
X138992452Y-77354626D01*
X138992451Y-77354626D01*
X139001495Y-77359234D01*
X139052292Y-77407208D01*
X139069087Y-77475029D01*
X139046550Y-77541164D01*
X139001499Y-77580202D01*
X138992182Y-77584949D01*
X138820213Y-77709890D01*
X138669894Y-77860209D01*
X138669890Y-77860214D01*
X138646818Y-77891971D01*
X138591489Y-77934637D01*
X138521875Y-77940616D01*
X138460080Y-77908011D01*
X138425723Y-77847172D01*
X138422500Y-77819086D01*
X138422500Y-77083091D01*
X138442185Y-77016052D01*
X138494989Y-76970297D01*
X138556230Y-76959473D01*
X138584728Y-76961716D01*
X139217037Y-76329408D01*
X139234075Y-76392993D01*
G37*
%TD.AperFunction*%
%TA.AperFunction,Conductor*%
G36*
X143172539Y-69610185D02*
G01*
X143218294Y-69662989D01*
X143229500Y-69714500D01*
X143229500Y-70087869D01*
X143229501Y-70087876D01*
X143235908Y-70147483D01*
X143263577Y-70221667D01*
X143268561Y-70291358D01*
X143263577Y-70308331D01*
X143235910Y-70382511D01*
X143235909Y-70382515D01*
X143235909Y-70382517D01*
X143229500Y-70442127D01*
X143229500Y-70442134D01*
X143229500Y-70442135D01*
X143229500Y-70937870D01*
X143229501Y-70937876D01*
X143235908Y-70997483D01*
X143263577Y-71071667D01*
X143268561Y-71141358D01*
X143263577Y-71158331D01*
X143235910Y-71232511D01*
X143235909Y-71232515D01*
X143235909Y-71232517D01*
X143229500Y-71292127D01*
X143229500Y-71292134D01*
X143229500Y-71292135D01*
X143229500Y-71787870D01*
X143229501Y-71787876D01*
X143235908Y-71847483D01*
X143263577Y-71921667D01*
X143268561Y-71991358D01*
X143263577Y-72008331D01*
X143235910Y-72082511D01*
X143235909Y-72082515D01*
X143235909Y-72082517D01*
X143229500Y-72142127D01*
X143229500Y-72142134D01*
X143229500Y-72142135D01*
X143229500Y-72637870D01*
X143229501Y-72637876D01*
X143235908Y-72697483D01*
X143263577Y-72771667D01*
X143268561Y-72841358D01*
X143263577Y-72858331D01*
X143235910Y-72932511D01*
X143235909Y-72932515D01*
X143235909Y-72932517D01*
X143229500Y-72992127D01*
X143229500Y-72992134D01*
X143229500Y-72992135D01*
X143229500Y-73487870D01*
X143229501Y-73487876D01*
X143235908Y-73547483D01*
X143263577Y-73621667D01*
X143268561Y-73691358D01*
X143263577Y-73708331D01*
X143235910Y-73782511D01*
X143235909Y-73782515D01*
X143235909Y-73782517D01*
X143229500Y-73842127D01*
X143229500Y-73842134D01*
X143229500Y-73842135D01*
X143229500Y-74337870D01*
X143229501Y-74337876D01*
X143235908Y-74397483D01*
X143263577Y-74471667D01*
X143268561Y-74541358D01*
X143263577Y-74558331D01*
X143235910Y-74632511D01*
X143235909Y-74632515D01*
X143235909Y-74632517D01*
X143229500Y-74692127D01*
X143229500Y-74692134D01*
X143229500Y-74692135D01*
X143229500Y-75187870D01*
X143229501Y-75187876D01*
X143235908Y-75247483D01*
X143263577Y-75321667D01*
X143268561Y-75391358D01*
X143263577Y-75408331D01*
X143235910Y-75482511D01*
X143235909Y-75482515D01*
X143235909Y-75482517D01*
X143229500Y-75542127D01*
X143229500Y-75542134D01*
X143229500Y-75542135D01*
X143229500Y-76037870D01*
X143229501Y-76037876D01*
X143235908Y-76097483D01*
X143263577Y-76171667D01*
X143268561Y-76241358D01*
X143263577Y-76258331D01*
X143235910Y-76332511D01*
X143235909Y-76332515D01*
X143235909Y-76332517D01*
X143229500Y-76392127D01*
X143229500Y-76638568D01*
X143229501Y-76765500D01*
X143209817Y-76832539D01*
X143157013Y-76878294D01*
X143105501Y-76889500D01*
X141065726Y-76889500D01*
X140998687Y-76869815D01*
X140952932Y-76817011D01*
X140942988Y-76747853D01*
X140949826Y-76722931D01*
X140949588Y-76722854D01*
X141016757Y-76516130D01*
X141016757Y-76516127D01*
X141050000Y-76306246D01*
X141050000Y-76093753D01*
X141016757Y-75883872D01*
X141016757Y-75883869D01*
X140951095Y-75681782D01*
X140854624Y-75492449D01*
X140815270Y-75438282D01*
X140815269Y-75438282D01*
X140182962Y-76070590D01*
X140165925Y-76007007D01*
X140100099Y-75892993D01*
X140007007Y-75799901D01*
X139892993Y-75734075D01*
X139829409Y-75717037D01*
X140461716Y-75084728D01*
X140407547Y-75045373D01*
X140407547Y-75045372D01*
X140398500Y-75040763D01*
X140347706Y-74992788D01*
X140330912Y-74924966D01*
X140353451Y-74858832D01*
X140398508Y-74819793D01*
X140407816Y-74815051D01*
X140576997Y-74692135D01*
X140579786Y-74690109D01*
X140579788Y-74690106D01*
X140579792Y-74690104D01*
X140730104Y-74539792D01*
X140730106Y-74539788D01*
X140730109Y-74539786D01*
X140855048Y-74367820D01*
X140855047Y-74367820D01*
X140855051Y-74367816D01*
X140951557Y-74178412D01*
X141017246Y-73976243D01*
X141050500Y-73766287D01*
X141050500Y-73553713D01*
X141017246Y-73343757D01*
X140951557Y-73141588D01*
X140855051Y-72952184D01*
X140855049Y-72952181D01*
X140855048Y-72952179D01*
X140730109Y-72780213D01*
X140579786Y-72629890D01*
X140407820Y-72504951D01*
X140407115Y-72504591D01*
X140399054Y-72500485D01*
X140348259Y-72452512D01*
X140331463Y-72384692D01*
X140353999Y-72318556D01*
X140399054Y-72279515D01*
X140407816Y-72275051D01*
X140490682Y-72214846D01*
X140579786Y-72150109D01*
X140579788Y-72150106D01*
X140579792Y-72150104D01*
X140730104Y-71999792D01*
X140730106Y-71999788D01*
X140730109Y-71999786D01*
X140855048Y-71827820D01*
X140855047Y-71827820D01*
X140855051Y-71827816D01*
X140951557Y-71638412D01*
X141017246Y-71436243D01*
X141050500Y-71226287D01*
X141050500Y-71013713D01*
X141017246Y-70803757D01*
X141003506Y-70761473D01*
X141001512Y-70691635D01*
X141033755Y-70635478D01*
X142042416Y-69626819D01*
X142103739Y-69593334D01*
X142130097Y-69590500D01*
X143105500Y-69590500D01*
X143172539Y-69610185D01*
G37*
%TD.AperFunction*%
%TA.AperFunction,Conductor*%
G36*
X138627703Y-74487200D02*
G01*
X138646819Y-74508029D01*
X138669892Y-74539788D01*
X138820213Y-74690109D01*
X138992179Y-74815048D01*
X138992181Y-74815049D01*
X138992184Y-74815051D01*
X139001493Y-74819794D01*
X139052290Y-74867766D01*
X139069087Y-74935587D01*
X139046552Y-75001722D01*
X139001505Y-75040760D01*
X138992446Y-75045376D01*
X138992440Y-75045380D01*
X138938282Y-75084727D01*
X138938282Y-75084728D01*
X139570591Y-75717037D01*
X139507007Y-75734075D01*
X139392993Y-75799901D01*
X139299901Y-75892993D01*
X139234075Y-76007007D01*
X139217037Y-76070591D01*
X138584728Y-75438282D01*
X138556229Y-75440525D01*
X138487852Y-75426161D01*
X138438095Y-75377109D01*
X138422500Y-75316907D01*
X138422500Y-74580913D01*
X138442185Y-74513874D01*
X138494989Y-74468119D01*
X138564147Y-74458175D01*
X138627703Y-74487200D01*
G37*
%TD.AperFunction*%
%TA.AperFunction,Conductor*%
G36*
X163675270Y-69341717D02*
G01*
X163703771Y-69339474D01*
X163772148Y-69353838D01*
X163821905Y-69402890D01*
X163837500Y-69463092D01*
X163837500Y-70199086D01*
X163817815Y-70266125D01*
X163765011Y-70311880D01*
X163695853Y-70321824D01*
X163632297Y-70292799D01*
X163613182Y-70271971D01*
X163590109Y-70240214D01*
X163590105Y-70240209D01*
X163439786Y-70089890D01*
X163267817Y-69964949D01*
X163258504Y-69960204D01*
X163207707Y-69912230D01*
X163190912Y-69844409D01*
X163213449Y-69778274D01*
X163258507Y-69739232D01*
X163267555Y-69734622D01*
X163321716Y-69695270D01*
X163321717Y-69695270D01*
X162689408Y-69062962D01*
X162752993Y-69045925D01*
X162867007Y-68980099D01*
X162960099Y-68887007D01*
X163025925Y-68772993D01*
X163042962Y-68709409D01*
X163675270Y-69341717D01*
G37*
%TD.AperFunction*%
%TA.AperFunction,Conductor*%
G36*
X163787808Y-67341833D02*
G01*
X163829681Y-67397766D01*
X163837500Y-67441102D01*
X163837500Y-67696907D01*
X163817815Y-67763946D01*
X163765011Y-67809701D01*
X163703771Y-67820525D01*
X163675270Y-67818281D01*
X163042962Y-68450590D01*
X163025925Y-68387007D01*
X162960099Y-68272993D01*
X162867007Y-68179901D01*
X162752993Y-68114075D01*
X162689409Y-68097037D01*
X163358802Y-67427642D01*
X163420125Y-67394157D01*
X163434833Y-67395078D01*
X163434556Y-67392501D01*
X163517375Y-67383598D01*
X163652088Y-67333353D01*
X163654071Y-67332271D01*
X163656279Y-67331790D01*
X163660399Y-67330254D01*
X163660619Y-67330846D01*
X163722343Y-67317418D01*
X163787808Y-67341833D01*
G37*
%TD.AperFunction*%
%TD*%
M02*
