%TF.GenerationSoftware,KiCad,Pcbnew,9.0.7*%
%TF.CreationDate,2026-01-14T01:24:10+01:00*%
%TF.ProjectId,pixel-led,70697865-6c2d-46c6-9564-2e6b69636164,1.2*%
%TF.SameCoordinates,Original*%
%TF.FileFunction,Copper,L2,Bot*%
%TF.FilePolarity,Positive*%
%FSLAX46Y46*%
G04 Gerber Fmt 4.6, Leading zero omitted, Abs format (unit mm)*
G04 Created by KiCad (PCBNEW 9.0.7) date 2026-01-14 01:24:10*
%MOMM*%
%LPD*%
G01*
G04 APERTURE LIST*
%TA.AperFunction,ComponentPad*%
%ADD10R,1.700000X1.700000*%
%TD*%
%TA.AperFunction,ComponentPad*%
%ADD11C,1.700000*%
%TD*%
%TA.AperFunction,ComponentPad*%
%ADD12R,1.050000X1.500000*%
%TD*%
%TA.AperFunction,ComponentPad*%
%ADD13O,1.050000X1.500000*%
%TD*%
%TA.AperFunction,HeatsinkPad*%
%ADD14O,1.900000X3.500000*%
%TD*%
%TA.AperFunction,ViaPad*%
%ADD15C,0.600000*%
%TD*%
%TA.AperFunction,Conductor*%
%ADD16C,0.200000*%
%TD*%
%TA.AperFunction,Conductor*%
%ADD17C,1.300000*%
%TD*%
G04 APERTURE END LIST*
D10*
%TO.P,J1,1,Pin_1*%
%TO.N,VCC_5V*%
X108500000Y-79190000D03*
D11*
%TO.P,J1,2,Pin_2*%
%TO.N,DAT*%
X108500000Y-81730000D03*
%TO.P,J1,3,Pin_3*%
%TO.N,CLK*%
X108500000Y-84270000D03*
%TO.P,J1,4,Pin_4*%
%TO.N,GND*%
X108500000Y-86810000D03*
%TD*%
D12*
%TO.P,U2,1,OUT*%
%TO.N,IR*%
X103020000Y-78500000D03*
D13*
%TO.P,U2,2,GND*%
%TO.N,GND*%
X101750000Y-78500000D03*
%TO.P,U2,3,Vs*%
%TO.N,VCC_3.3V*%
X100480000Y-78500000D03*
%TD*%
D14*
%TO.P,J2,5,Shield*%
%TO.N,GND*%
X94300000Y-42900000D03*
X105700000Y-42900000D03*
%TD*%
D15*
%TO.N,0*%
X106496000Y-52000000D03*
X99100000Y-76250000D03*
%TO.N,GND*%
X100000000Y-43500000D03*
X107250000Y-64500000D03*
X109500000Y-76250000D03*
X109500000Y-62250000D03*
X99250000Y-69500000D03*
X95500000Y-48500000D03*
X90250000Y-45500000D03*
X98000000Y-51000000D03*
X103250000Y-85750000D03*
X102250000Y-59250000D03*
X99250000Y-73250000D03*
X108750000Y-57250000D03*
X97750000Y-53500000D03*
X101750000Y-47750000D03*
X99250000Y-78500000D03*
X109500000Y-46750000D03*
X100500000Y-51500000D03*
X103750000Y-49000000D03*
X104000000Y-55000000D03*
X100000000Y-55500000D03*
X106250000Y-67250000D03*
X92000000Y-45500000D03*
X109500000Y-50500000D03*
X96500000Y-41500000D03*
X106750000Y-59250000D03*
X103500000Y-73000000D03*
X106750000Y-74250000D03*
X105250000Y-83000000D03*
X103500000Y-41500000D03*
X97000000Y-85500000D03*
X103500000Y-65750000D03*
X106750000Y-55250000D03*
X99500000Y-63750000D03*
X107750000Y-70750000D03*
X98101468Y-82105575D03*
X101500000Y-64000000D03*
%TO.N,VCC_5V*%
X108000000Y-48950000D03*
X99250000Y-50000000D03*
X99250000Y-51500000D03*
X99250000Y-50750000D03*
X99250000Y-52250000D03*
X97750000Y-55750000D03*
%TO.N,VCC_3.3V*%
X100750000Y-49500000D03*
X97612500Y-80500000D03*
%TO.N,D+*%
X109500000Y-68400000D03*
X108000000Y-48000000D03*
%TO.N,D-*%
X109500000Y-69250000D03*
X108000000Y-49900000D03*
%TD*%
D16*
%TO.N,0*%
X106496000Y-52000000D02*
X104606943Y-53889057D01*
X104606943Y-53889057D02*
X104606943Y-63856943D01*
X104606943Y-63856943D02*
X105250000Y-64500000D01*
X100250000Y-74250000D02*
X99100000Y-75400000D01*
X104250000Y-74250000D02*
X100250000Y-74250000D01*
X99100000Y-75400000D02*
X99100000Y-76250000D01*
X105250000Y-64500000D02*
X105250000Y-73250000D01*
X105250000Y-73250000D02*
X104250000Y-74250000D01*
%TO.N,GND*%
X101750000Y-79000000D02*
X101750000Y-78500000D01*
D17*
X100000000Y-43500000D02*
X99998976Y-43501024D01*
X99998976Y-43501024D02*
X99151000Y-43501024D01*
X95500000Y-46750000D02*
X95500000Y-48500000D01*
X99151000Y-43501024D02*
X98301024Y-44351000D01*
X100810000Y-86810000D02*
X108500000Y-86810000D01*
X97899000Y-44351000D02*
X95500000Y-46750000D01*
X95500000Y-81500000D02*
X100810000Y-86810000D01*
X95500000Y-48500000D02*
X95500000Y-81500000D01*
X98301024Y-44351000D02*
X97899000Y-44351000D01*
D16*
%TO.N,VCC_5V*%
X99250000Y-50000000D02*
X99250000Y-51750000D01*
D17*
X99250000Y-54250000D02*
X97750000Y-55750000D01*
D16*
X103250000Y-53250000D02*
X107550000Y-48950000D01*
X99250000Y-51750000D02*
X100750000Y-53250000D01*
D17*
X97750000Y-55750000D02*
X97750000Y-78750000D01*
X97750000Y-78750000D02*
X99750000Y-80750000D01*
X106940000Y-80750000D02*
X108500000Y-79190000D01*
D16*
X100750000Y-53250000D02*
X103250000Y-53250000D01*
X107550000Y-48950000D02*
X108000000Y-48950000D01*
D17*
X99750000Y-80750000D02*
X106940000Y-80750000D01*
X99250000Y-50000000D02*
X99250000Y-54250000D01*
D16*
%TO.N,VCC_3.3V*%
X97451000Y-49049000D02*
X96500000Y-50000000D01*
X100299000Y-49049000D02*
X97451000Y-49049000D01*
X96500000Y-79387500D02*
X97612500Y-80500000D01*
X100750000Y-49500000D02*
X100299000Y-49049000D01*
X96500000Y-50000000D02*
X96500000Y-79387500D01*
%TO.N,D+*%
X110250000Y-50250000D02*
X110250000Y-67650000D01*
X110250000Y-67650000D02*
X109500000Y-68400000D01*
X108000000Y-48000000D02*
X110250000Y-50250000D01*
%TO.N,D-*%
X108000000Y-67750000D02*
X108000000Y-49900000D01*
X109500000Y-69250000D02*
X108000000Y-67750000D01*
%TO.N,DAT*%
X108500000Y-81492000D02*
X108500000Y-81730000D01*
%TD*%
%TA.AperFunction,Conductor*%
%TO.N,GND*%
G36*
X93814587Y-40520185D02*
G01*
X93860342Y-40572989D01*
X93870286Y-40642147D01*
X93841261Y-40705703D01*
X93785866Y-40742431D01*
X93743395Y-40756230D01*
X93540033Y-40859849D01*
X93355385Y-40994004D01*
X93194004Y-41155385D01*
X93059849Y-41340033D01*
X92956230Y-41543395D01*
X92885704Y-41760455D01*
X92850000Y-41985883D01*
X92850000Y-42650000D01*
X93850000Y-42650000D01*
X93850000Y-43150000D01*
X92850000Y-43150000D01*
X92850000Y-43814116D01*
X92885704Y-44039544D01*
X92956230Y-44256604D01*
X93059849Y-44459966D01*
X93194004Y-44644614D01*
X93355385Y-44805995D01*
X93540033Y-44940150D01*
X93743395Y-45043769D01*
X93960455Y-45114295D01*
X94050000Y-45128478D01*
X94050000Y-44075277D01*
X94126306Y-44119333D01*
X94240756Y-44150000D01*
X94359244Y-44150000D01*
X94473694Y-44119333D01*
X94550000Y-44075277D01*
X94550000Y-45128477D01*
X94639544Y-45114295D01*
X94856604Y-45043769D01*
X95059966Y-44940150D01*
X95244614Y-44805995D01*
X95405995Y-44644614D01*
X95540150Y-44459966D01*
X95643769Y-44256604D01*
X95714295Y-44039544D01*
X95750000Y-43814116D01*
X95750000Y-43150000D01*
X94750000Y-43150000D01*
X94750000Y-42821153D01*
X96899500Y-42821153D01*
X96899500Y-42978846D01*
X96930261Y-43133489D01*
X96930264Y-43133501D01*
X96990602Y-43279172D01*
X96990609Y-43279185D01*
X97078210Y-43410288D01*
X97078213Y-43410292D01*
X97189707Y-43521786D01*
X97189711Y-43521789D01*
X97320814Y-43609390D01*
X97320827Y-43609397D01*
X97466498Y-43669735D01*
X97466503Y-43669737D01*
X97621153Y-43700499D01*
X97621156Y-43700500D01*
X97621158Y-43700500D01*
X97778844Y-43700500D01*
X97778845Y-43700499D01*
X97933497Y-43669737D01*
X98079179Y-43609394D01*
X98210289Y-43521789D01*
X98321789Y-43410289D01*
X98409394Y-43279179D01*
X98469737Y-43133497D01*
X98500500Y-42978842D01*
X98500500Y-42821158D01*
X98500500Y-42821155D01*
X98500499Y-42821153D01*
X101499500Y-42821153D01*
X101499500Y-42978846D01*
X101530261Y-43133489D01*
X101530264Y-43133501D01*
X101590602Y-43279172D01*
X101590609Y-43279185D01*
X101678210Y-43410288D01*
X101678213Y-43410292D01*
X101789707Y-43521786D01*
X101789711Y-43521789D01*
X101920814Y-43609390D01*
X101920827Y-43609397D01*
X102066498Y-43669735D01*
X102066503Y-43669737D01*
X102221153Y-43700499D01*
X102221156Y-43700500D01*
X102221158Y-43700500D01*
X102378844Y-43700500D01*
X102378845Y-43700499D01*
X102533497Y-43669737D01*
X102679179Y-43609394D01*
X102810289Y-43521789D01*
X102921789Y-43410289D01*
X103009394Y-43279179D01*
X103069737Y-43133497D01*
X103085883Y-43052326D01*
X103100500Y-42978844D01*
X103100500Y-42821155D01*
X103100499Y-42821153D01*
X103072810Y-42681954D01*
X103069737Y-42666503D01*
X103043244Y-42602542D01*
X103009397Y-42520827D01*
X103009390Y-42520814D01*
X102921789Y-42389711D01*
X102921786Y-42389707D01*
X102810292Y-42278213D01*
X102810288Y-42278210D01*
X102679185Y-42190609D01*
X102679172Y-42190602D01*
X102533501Y-42130264D01*
X102533489Y-42130261D01*
X102378845Y-42099500D01*
X102378842Y-42099500D01*
X102221158Y-42099500D01*
X102221155Y-42099500D01*
X102066510Y-42130261D01*
X102066498Y-42130264D01*
X101920827Y-42190602D01*
X101920814Y-42190609D01*
X101789711Y-42278210D01*
X101789707Y-42278213D01*
X101678213Y-42389707D01*
X101678210Y-42389711D01*
X101590609Y-42520814D01*
X101590602Y-42520827D01*
X101530264Y-42666498D01*
X101530261Y-42666510D01*
X101499500Y-42821153D01*
X98500499Y-42821153D01*
X98472810Y-42681954D01*
X98469737Y-42666503D01*
X98443244Y-42602542D01*
X98409397Y-42520827D01*
X98409390Y-42520814D01*
X98321789Y-42389711D01*
X98321786Y-42389707D01*
X98210292Y-42278213D01*
X98210288Y-42278210D01*
X98079185Y-42190609D01*
X98079172Y-42190602D01*
X97933501Y-42130264D01*
X97933489Y-42130261D01*
X97778845Y-42099500D01*
X97778842Y-42099500D01*
X97621158Y-42099500D01*
X97621155Y-42099500D01*
X97466510Y-42130261D01*
X97466498Y-42130264D01*
X97320827Y-42190602D01*
X97320814Y-42190609D01*
X97189711Y-42278210D01*
X97189707Y-42278213D01*
X97078213Y-42389707D01*
X97078210Y-42389711D01*
X96990609Y-42520814D01*
X96990602Y-42520827D01*
X96930264Y-42666498D01*
X96930261Y-42666510D01*
X96899500Y-42821153D01*
X94750000Y-42821153D01*
X94750000Y-42650000D01*
X95750000Y-42650000D01*
X95750000Y-41985883D01*
X95714295Y-41760455D01*
X95643769Y-41543395D01*
X95540150Y-41340033D01*
X95405995Y-41155385D01*
X95244614Y-40994004D01*
X95059966Y-40859849D01*
X94856604Y-40756230D01*
X94814134Y-40742431D01*
X94756458Y-40702994D01*
X94729260Y-40638635D01*
X94741175Y-40569789D01*
X94788419Y-40518313D01*
X94852452Y-40500500D01*
X105147548Y-40500500D01*
X105214587Y-40520185D01*
X105260342Y-40572989D01*
X105270286Y-40642147D01*
X105241261Y-40705703D01*
X105185866Y-40742431D01*
X105143395Y-40756230D01*
X104940033Y-40859849D01*
X104755385Y-40994004D01*
X104594004Y-41155385D01*
X104459849Y-41340033D01*
X104356230Y-41543395D01*
X104285704Y-41760455D01*
X104250000Y-41985883D01*
X104250000Y-42650000D01*
X105250000Y-42650000D01*
X105250000Y-43150000D01*
X104250000Y-43150000D01*
X104250000Y-43814116D01*
X104285704Y-44039544D01*
X104356230Y-44256604D01*
X104459849Y-44459966D01*
X104594004Y-44644614D01*
X104755385Y-44805995D01*
X104940033Y-44940150D01*
X105143395Y-45043769D01*
X105360455Y-45114295D01*
X105450000Y-45128478D01*
X105450000Y-44075277D01*
X105526306Y-44119333D01*
X105640756Y-44150000D01*
X105759244Y-44150000D01*
X105873694Y-44119333D01*
X105950000Y-44075277D01*
X105950000Y-45128477D01*
X106039544Y-45114295D01*
X106256604Y-45043769D01*
X106459966Y-44940150D01*
X106644614Y-44805995D01*
X106805995Y-44644614D01*
X106940150Y-44459966D01*
X107043769Y-44256604D01*
X107114295Y-44039544D01*
X107150000Y-43814116D01*
X107150000Y-43150000D01*
X106150000Y-43150000D01*
X106150000Y-42650000D01*
X107150000Y-42650000D01*
X107150000Y-41985883D01*
X107114295Y-41760455D01*
X107043769Y-41543395D01*
X106940150Y-41340033D01*
X106805995Y-41155385D01*
X106644614Y-40994004D01*
X106459966Y-40859849D01*
X106256604Y-40756230D01*
X106214134Y-40742431D01*
X106156458Y-40702994D01*
X106129260Y-40638635D01*
X106141175Y-40569789D01*
X106188419Y-40518313D01*
X106252452Y-40500500D01*
X110375500Y-40500500D01*
X110442539Y-40520185D01*
X110488294Y-40572989D01*
X110499500Y-40624500D01*
X110499500Y-42338512D01*
X110479815Y-42405551D01*
X110427011Y-42451306D01*
X110357853Y-42461250D01*
X110294297Y-42432225D01*
X110265016Y-42394808D01*
X110199001Y-42265249D01*
X110069305Y-42086737D01*
X110069301Y-42086732D01*
X109913267Y-41930698D01*
X109913262Y-41930694D01*
X109734752Y-41801000D01*
X109734751Y-41800999D01*
X109734749Y-41800998D01*
X109614858Y-41739910D01*
X109538135Y-41700817D01*
X109328277Y-41632631D01*
X109110336Y-41598112D01*
X109110331Y-41598112D01*
X108889669Y-41598112D01*
X108889664Y-41598112D01*
X108671722Y-41632631D01*
X108461864Y-41700817D01*
X108265247Y-41801000D01*
X108086737Y-41930694D01*
X108086732Y-41930698D01*
X107930698Y-42086732D01*
X107930694Y-42086737D01*
X107801000Y-42265247D01*
X107700817Y-42461864D01*
X107632631Y-42671722D01*
X107598112Y-42889663D01*
X107598112Y-43110336D01*
X107632631Y-43328277D01*
X107700817Y-43538135D01*
X107739908Y-43614854D01*
X107767871Y-43669735D01*
X107801000Y-43734752D01*
X107930694Y-43913262D01*
X107930698Y-43913267D01*
X108086732Y-44069301D01*
X108086737Y-44069305D01*
X108197805Y-44150000D01*
X108265251Y-44199002D01*
X108378301Y-44256604D01*
X108461864Y-44299182D01*
X108566793Y-44333275D01*
X108671724Y-44367369D01*
X108772664Y-44383356D01*
X108889664Y-44401888D01*
X108889669Y-44401888D01*
X109110336Y-44401888D01*
X109215991Y-44385153D01*
X109328276Y-44367369D01*
X109538138Y-44299181D01*
X109734749Y-44199002D01*
X109913269Y-44069300D01*
X110069300Y-43913269D01*
X110199002Y-43734749D01*
X110265015Y-43605191D01*
X110312990Y-43554396D01*
X110380811Y-43537601D01*
X110446946Y-43560139D01*
X110490397Y-43614854D01*
X110499500Y-43661487D01*
X110499500Y-49704456D01*
X110479815Y-49771495D01*
X110427011Y-49817250D01*
X110357853Y-49827194D01*
X110294297Y-49798169D01*
X110287819Y-49792137D01*
X108586819Y-48091137D01*
X108553334Y-48029814D01*
X108550500Y-48003456D01*
X108550500Y-47927527D01*
X108550500Y-47927525D01*
X108512984Y-47787515D01*
X108440509Y-47661985D01*
X108338015Y-47559491D01*
X108338013Y-47559490D01*
X108338011Y-47559488D01*
X108212488Y-47487017D01*
X108212489Y-47487017D01*
X108201006Y-47483940D01*
X108072475Y-47449500D01*
X107927525Y-47449500D01*
X107798993Y-47483940D01*
X107787511Y-47487017D01*
X107661988Y-47559488D01*
X107661982Y-47559493D01*
X107559493Y-47661982D01*
X107559488Y-47661988D01*
X107487017Y-47787511D01*
X107487016Y-47787515D01*
X107449500Y-47927525D01*
X107449500Y-48072475D01*
X107454501Y-48091137D01*
X107487017Y-48212488D01*
X107559488Y-48338011D01*
X107559493Y-48338017D01*
X107608795Y-48387319D01*
X107613133Y-48395264D01*
X107620381Y-48400690D01*
X107629615Y-48425449D01*
X107642280Y-48448642D01*
X107641634Y-48457671D01*
X107644798Y-48466154D01*
X107639181Y-48491974D01*
X107637296Y-48518334D01*
X107631477Y-48527387D01*
X107629946Y-48534427D01*
X107608795Y-48562681D01*
X107608295Y-48563181D01*
X107546972Y-48596666D01*
X107520614Y-48599500D01*
X107503856Y-48599500D01*
X107414712Y-48623386D01*
X107414711Y-48623386D01*
X107414709Y-48623387D01*
X107414706Y-48623388D01*
X107334794Y-48669526D01*
X107334785Y-48669533D01*
X103141137Y-52863181D01*
X103079814Y-52896666D01*
X103053456Y-52899500D01*
X100946543Y-52899500D01*
X100879504Y-52879815D01*
X100858862Y-52863181D01*
X100186819Y-52191137D01*
X100153334Y-52129814D01*
X100150500Y-52103456D01*
X100150500Y-49978386D01*
X100170185Y-49911347D01*
X100222989Y-49865592D01*
X100292147Y-49855648D01*
X100355703Y-49884673D01*
X100362181Y-49890705D01*
X100411985Y-49940509D01*
X100411986Y-49940510D01*
X100411988Y-49940511D01*
X100537511Y-50012982D01*
X100537512Y-50012982D01*
X100537515Y-50012984D01*
X100677525Y-50050500D01*
X100677528Y-50050500D01*
X100822472Y-50050500D01*
X100822475Y-50050500D01*
X100962485Y-50012984D01*
X101088015Y-49940509D01*
X101190509Y-49838015D01*
X101262984Y-49712485D01*
X101300500Y-49572475D01*
X101300500Y-49427525D01*
X101262984Y-49287515D01*
X101208504Y-49193154D01*
X101190511Y-49161988D01*
X101190506Y-49161982D01*
X101088017Y-49059493D01*
X101088011Y-49059488D01*
X100962488Y-48987017D01*
X100962489Y-48987017D01*
X100951006Y-48983940D01*
X100822475Y-48949500D01*
X100822472Y-48949500D01*
X100746544Y-48949500D01*
X100679505Y-48929815D01*
X100658863Y-48913181D01*
X100514213Y-48768531D01*
X100514208Y-48768527D01*
X100434290Y-48722387D01*
X100434289Y-48722386D01*
X100434288Y-48722386D01*
X100345144Y-48698500D01*
X97404856Y-48698500D01*
X97315712Y-48722386D01*
X97315709Y-48722387D01*
X97235791Y-48768527D01*
X97235786Y-48768531D01*
X96219531Y-49784786D01*
X96219527Y-49784791D01*
X96181592Y-49850498D01*
X96181592Y-49850499D01*
X96173386Y-49864710D01*
X96149500Y-49953856D01*
X96149500Y-79433646D01*
X96159428Y-79470695D01*
X96159429Y-79470699D01*
X96173384Y-79522785D01*
X96173385Y-79522786D01*
X96219527Y-79602708D01*
X96219531Y-79602713D01*
X97025681Y-80408863D01*
X97059166Y-80470186D01*
X97062000Y-80496544D01*
X97062000Y-80572475D01*
X97099516Y-80712485D01*
X97099517Y-80712488D01*
X97171988Y-80838011D01*
X97171990Y-80838013D01*
X97171991Y-80838015D01*
X97274485Y-80940509D01*
X97274486Y-80940510D01*
X97274488Y-80940511D01*
X97400011Y-81012982D01*
X97400012Y-81012982D01*
X97400015Y-81012984D01*
X97540025Y-81050500D01*
X97540028Y-81050500D01*
X97684972Y-81050500D01*
X97684975Y-81050500D01*
X97824985Y-81012984D01*
X97950515Y-80940509D01*
X98053009Y-80838015D01*
X98125484Y-80712485D01*
X98136147Y-80672688D01*
X98172510Y-80613030D01*
X98235356Y-80582500D01*
X98304732Y-80590794D01*
X98343602Y-80617102D01*
X99175966Y-81449466D01*
X99210140Y-81472299D01*
X99235040Y-81488936D01*
X99323453Y-81548013D01*
X99405393Y-81581953D01*
X99411480Y-81584474D01*
X99411485Y-81584477D01*
X99443920Y-81597912D01*
X99487334Y-81615895D01*
X99625558Y-81643389D01*
X99661303Y-81650499D01*
X99661307Y-81650500D01*
X99661308Y-81650500D01*
X107028693Y-81650500D01*
X107028694Y-81650499D01*
X107202666Y-81615895D01*
X107228046Y-81605381D01*
X107297513Y-81597912D01*
X107359993Y-81629185D01*
X107395647Y-81689272D01*
X107399500Y-81719942D01*
X107399500Y-81816611D01*
X107426598Y-81987701D01*
X107480127Y-82152445D01*
X107558768Y-82306788D01*
X107660586Y-82446928D01*
X107783072Y-82569414D01*
X107923212Y-82671232D01*
X108077555Y-82749873D01*
X108242299Y-82803402D01*
X108413389Y-82830500D01*
X108413390Y-82830500D01*
X108586610Y-82830500D01*
X108586611Y-82830500D01*
X108757701Y-82803402D01*
X108922445Y-82749873D01*
X109076788Y-82671232D01*
X109216928Y-82569414D01*
X109339414Y-82446928D01*
X109441232Y-82306788D01*
X109519873Y-82152445D01*
X109573402Y-81987701D01*
X109600500Y-81816611D01*
X109600500Y-81643389D01*
X109573402Y-81472299D01*
X109519873Y-81307555D01*
X109441232Y-81153212D01*
X109339414Y-81013072D01*
X109216928Y-80890586D01*
X109076788Y-80788768D01*
X108922445Y-80710127D01*
X108757701Y-80656598D01*
X108757699Y-80656597D01*
X108757698Y-80656597D01*
X108608905Y-80633031D01*
X108597529Y-80627638D01*
X108584969Y-80626740D01*
X108566554Y-80612954D01*
X108545770Y-80603102D01*
X108539114Y-80592413D01*
X108529035Y-80584868D01*
X108520996Y-80563315D01*
X108508839Y-80543790D01*
X108509018Y-80531200D01*
X108504619Y-80519403D01*
X108509508Y-80496927D01*
X108509837Y-80473928D01*
X108517149Y-80461800D01*
X108519471Y-80451131D01*
X108540617Y-80422882D01*
X108636682Y-80326816D01*
X108698005Y-80293334D01*
X108724362Y-80290500D01*
X109374676Y-80290500D01*
X109374677Y-80290499D01*
X109447740Y-80275966D01*
X109530601Y-80220601D01*
X109585966Y-80137740D01*
X109600500Y-80064674D01*
X109600500Y-78315326D01*
X109600500Y-78315323D01*
X109600499Y-78315321D01*
X109585967Y-78242264D01*
X109585966Y-78242260D01*
X109556807Y-78198620D01*
X109530601Y-78159399D01*
X109447740Y-78104034D01*
X109447739Y-78104033D01*
X109447735Y-78104032D01*
X109374677Y-78089500D01*
X109374674Y-78089500D01*
X107625326Y-78089500D01*
X107625323Y-78089500D01*
X107552264Y-78104032D01*
X107552260Y-78104033D01*
X107469399Y-78159399D01*
X107414033Y-78242260D01*
X107414032Y-78242264D01*
X107399500Y-78315321D01*
X107399500Y-78965638D01*
X107379815Y-79032677D01*
X107363181Y-79053319D01*
X106603319Y-79813181D01*
X106541996Y-79846666D01*
X106515638Y-79849500D01*
X102320794Y-79849500D01*
X102288305Y-79839960D01*
X102255628Y-79830996D01*
X102254858Y-79830138D01*
X102253755Y-79829815D01*
X102231597Y-79804243D01*
X102208937Y-79779017D01*
X102208752Y-79777879D01*
X102208000Y-79777011D01*
X102203179Y-79743488D01*
X102197761Y-79710047D01*
X102198219Y-79708992D01*
X102198056Y-79707853D01*
X102212129Y-79677035D01*
X102225646Y-79645983D01*
X102226773Y-79644970D01*
X102227081Y-79644297D01*
X102251903Y-79622398D01*
X102403059Y-79521398D01*
X102469736Y-79500520D01*
X102471950Y-79500500D01*
X103569676Y-79500500D01*
X103569677Y-79500499D01*
X103642740Y-79485966D01*
X103725601Y-79430601D01*
X103780966Y-79347740D01*
X103795500Y-79274674D01*
X103795500Y-77725326D01*
X103795500Y-77725323D01*
X103795499Y-77725321D01*
X103780967Y-77652264D01*
X103780966Y-77652260D01*
X103746390Y-77600513D01*
X103725601Y-77569399D01*
X103642740Y-77514034D01*
X103642739Y-77514033D01*
X103642735Y-77514032D01*
X103569677Y-77499500D01*
X103569674Y-77499500D01*
X102471950Y-77499500D01*
X102404911Y-77479815D01*
X102403059Y-77478602D01*
X102235526Y-77366659D01*
X102235513Y-77366652D01*
X102048984Y-77289390D01*
X102048977Y-77289388D01*
X102000000Y-77279645D01*
X102000000Y-78219670D01*
X101980255Y-78199925D01*
X101894745Y-78150556D01*
X101799370Y-78125000D01*
X101700630Y-78125000D01*
X101605255Y-78150556D01*
X101519745Y-78199925D01*
X101500000Y-78219670D01*
X101500000Y-77279646D01*
X101499999Y-77279645D01*
X101451022Y-77289388D01*
X101451015Y-77289390D01*
X101264486Y-77366652D01*
X101264473Y-77366659D01*
X101096600Y-77478829D01*
X101096596Y-77478832D01*
X101003417Y-77572012D01*
X100942094Y-77605497D01*
X100872402Y-77600513D01*
X100852787Y-77590473D01*
X100852704Y-77590630D01*
X100847335Y-77587760D01*
X100706205Y-77529302D01*
X100706197Y-77529300D01*
X100556384Y-77499500D01*
X100556380Y-77499500D01*
X100403620Y-77499500D01*
X100403615Y-77499500D01*
X100253802Y-77529300D01*
X100253794Y-77529302D01*
X100112665Y-77587759D01*
X100112656Y-77587764D01*
X99985648Y-77672629D01*
X99985644Y-77672632D01*
X99877632Y-77780644D01*
X99877629Y-77780648D01*
X99792764Y-77907656D01*
X99792759Y-77907665D01*
X99734302Y-78048794D01*
X99734300Y-78048802D01*
X99704500Y-78198615D01*
X99704500Y-78801384D01*
X99734300Y-78951197D01*
X99734302Y-78951205D01*
X99792759Y-79092334D01*
X99792764Y-79092343D01*
X99877629Y-79219351D01*
X99877632Y-79219355D01*
X99985644Y-79327367D01*
X99985648Y-79327370D01*
X100112656Y-79412235D01*
X100112662Y-79412238D01*
X100112663Y-79412239D01*
X100253795Y-79470698D01*
X100403615Y-79500499D01*
X100403619Y-79500500D01*
X100403620Y-79500500D01*
X100556381Y-79500500D01*
X100556382Y-79500499D01*
X100706205Y-79470698D01*
X100847337Y-79412239D01*
X100847344Y-79412233D01*
X100852710Y-79409367D01*
X100853336Y-79410538D01*
X100913502Y-79391689D01*
X100980886Y-79410163D01*
X101003417Y-79427988D01*
X101096596Y-79521167D01*
X101096600Y-79521170D01*
X101248097Y-79622398D01*
X101292902Y-79676010D01*
X101301609Y-79745335D01*
X101271454Y-79808363D01*
X101212011Y-79845082D01*
X101179206Y-79849500D01*
X100174362Y-79849500D01*
X100107323Y-79829815D01*
X100086681Y-79813181D01*
X98686819Y-78413319D01*
X98653334Y-78351996D01*
X98650500Y-78325638D01*
X98650500Y-76840917D01*
X98670185Y-76773878D01*
X98722989Y-76728123D01*
X98792147Y-76718179D01*
X98836499Y-76733530D01*
X98887515Y-76762984D01*
X99027525Y-76800500D01*
X99027528Y-76800500D01*
X99172472Y-76800500D01*
X99172475Y-76800500D01*
X99312485Y-76762984D01*
X99438015Y-76690509D01*
X99540509Y-76588015D01*
X99612984Y-76462485D01*
X99650500Y-76322475D01*
X99650500Y-76177525D01*
X99612984Y-76037515D01*
X99540509Y-75911985D01*
X99486819Y-75858295D01*
X99472115Y-75831367D01*
X99455523Y-75805549D01*
X99454631Y-75799348D01*
X99453334Y-75796972D01*
X99450500Y-75770614D01*
X99450500Y-75596544D01*
X99470185Y-75529505D01*
X99486819Y-75508863D01*
X100358863Y-74636819D01*
X100420186Y-74603334D01*
X100446544Y-74600500D01*
X104296142Y-74600500D01*
X104296144Y-74600500D01*
X104385288Y-74576614D01*
X104465212Y-74530470D01*
X105530470Y-73465212D01*
X105576614Y-73385288D01*
X105600500Y-73296143D01*
X105600500Y-73203856D01*
X105600500Y-64453856D01*
X105576614Y-64364712D01*
X105530470Y-64284788D01*
X104993762Y-63748080D01*
X104960277Y-63686757D01*
X104957443Y-63660399D01*
X104957443Y-54085601D01*
X104977128Y-54018562D01*
X104993762Y-53997920D01*
X106404863Y-52586819D01*
X106466186Y-52553334D01*
X106492544Y-52550500D01*
X106568472Y-52550500D01*
X106568475Y-52550500D01*
X106708485Y-52512984D01*
X106834015Y-52440509D01*
X106936509Y-52338015D01*
X107008984Y-52212485D01*
X107046500Y-52072475D01*
X107046500Y-51927525D01*
X107008984Y-51787515D01*
X106936509Y-51661985D01*
X106834015Y-51559491D01*
X106834013Y-51559490D01*
X106834011Y-51559488D01*
X106708488Y-51487017D01*
X106708489Y-51487017D01*
X106697006Y-51483940D01*
X106568475Y-51449500D01*
X106423525Y-51449500D01*
X106294993Y-51483940D01*
X106283511Y-51487017D01*
X106157988Y-51559488D01*
X106157982Y-51559493D01*
X106055493Y-51661982D01*
X106055488Y-51661988D01*
X105983017Y-51787511D01*
X105983016Y-51787515D01*
X105945500Y-51927525D01*
X105945500Y-51927527D01*
X105945500Y-52003456D01*
X105925815Y-52070495D01*
X105909181Y-52091137D01*
X104326474Y-53673843D01*
X104326470Y-53673848D01*
X104280330Y-53753766D01*
X104280329Y-53753769D01*
X104256443Y-53842913D01*
X104256443Y-63903086D01*
X104280329Y-63992230D01*
X104280330Y-63992233D01*
X104326470Y-64072151D01*
X104326474Y-64072156D01*
X104863181Y-64608863D01*
X104896666Y-64670186D01*
X104899500Y-64696544D01*
X104899500Y-73053456D01*
X104879815Y-73120495D01*
X104863181Y-73141137D01*
X104141137Y-73863181D01*
X104079814Y-73896666D01*
X104053456Y-73899500D01*
X100203856Y-73899500D01*
X100114712Y-73923386D01*
X100114709Y-73923387D01*
X100034791Y-73969527D01*
X100034786Y-73969531D01*
X98862181Y-75142137D01*
X98800858Y-75175622D01*
X98731166Y-75170638D01*
X98675233Y-75128766D01*
X98650816Y-75063302D01*
X98650500Y-75054456D01*
X98650500Y-56174361D01*
X98670185Y-56107322D01*
X98686819Y-56086680D01*
X99949463Y-54824036D01*
X99949465Y-54824033D01*
X100048009Y-54676553D01*
X100048009Y-54676552D01*
X100048013Y-54676547D01*
X100115894Y-54512666D01*
X100150500Y-54338691D01*
X100150500Y-53445543D01*
X100170185Y-53378504D01*
X100222989Y-53332749D01*
X100292147Y-53322805D01*
X100355703Y-53351830D01*
X100362181Y-53357862D01*
X100469531Y-53465212D01*
X100534788Y-53530469D01*
X100534791Y-53530470D01*
X100534794Y-53530473D01*
X100614706Y-53576611D01*
X100614707Y-53576611D01*
X100614712Y-53576614D01*
X100703856Y-53600500D01*
X100703858Y-53600500D01*
X103296142Y-53600500D01*
X103296144Y-53600500D01*
X103385288Y-53576614D01*
X103465212Y-53530470D01*
X107237819Y-49757860D01*
X107299142Y-49724376D01*
X107368834Y-49729360D01*
X107424767Y-49771232D01*
X107449184Y-49836696D01*
X107449500Y-49845542D01*
X107449500Y-49972475D01*
X107487016Y-50112485D01*
X107487017Y-50112488D01*
X107559488Y-50238011D01*
X107559493Y-50238017D01*
X107613181Y-50291705D01*
X107646666Y-50353028D01*
X107649500Y-50379386D01*
X107649500Y-67796144D01*
X107663797Y-67849500D01*
X107663797Y-67849501D01*
X107673385Y-67885286D01*
X107719527Y-67965208D01*
X107719531Y-67965213D01*
X108913181Y-69158862D01*
X108946666Y-69220185D01*
X108949500Y-69246543D01*
X108949500Y-69322475D01*
X108987016Y-69462485D01*
X108987017Y-69462488D01*
X109059488Y-69588011D01*
X109059490Y-69588013D01*
X109059491Y-69588015D01*
X109161985Y-69690509D01*
X109161986Y-69690510D01*
X109161988Y-69690511D01*
X109287511Y-69762982D01*
X109287512Y-69762982D01*
X109287515Y-69762984D01*
X109427525Y-69800500D01*
X109427528Y-69800500D01*
X109572472Y-69800500D01*
X109572475Y-69800500D01*
X109712485Y-69762984D01*
X109838015Y-69690509D01*
X109940509Y-69588015D01*
X110012984Y-69462485D01*
X110050500Y-69322475D01*
X110050500Y-69177525D01*
X110012984Y-69037515D01*
X109940509Y-68911985D01*
X109940507Y-68911983D01*
X109935562Y-68905539D01*
X109936790Y-68904596D01*
X109907720Y-68851358D01*
X109912704Y-68781666D01*
X109936267Y-68745002D01*
X109935562Y-68744461D01*
X109940504Y-68738019D01*
X109940509Y-68738015D01*
X110012984Y-68612485D01*
X110050500Y-68472475D01*
X110050500Y-68396544D01*
X110070185Y-68329505D01*
X110086819Y-68308863D01*
X110287819Y-68107863D01*
X110349142Y-68074378D01*
X110418834Y-68079362D01*
X110474767Y-68121234D01*
X110499184Y-68186698D01*
X110499500Y-68195544D01*
X110499500Y-89375500D01*
X110479815Y-89442539D01*
X110427011Y-89488294D01*
X110375500Y-89499500D01*
X94824000Y-89499500D01*
X94756961Y-89479815D01*
X94711206Y-89427011D01*
X94700000Y-89375500D01*
X94700000Y-86703753D01*
X107150000Y-86703753D01*
X107150000Y-86916246D01*
X107183242Y-87126127D01*
X107183242Y-87126130D01*
X107248904Y-87328217D01*
X107345375Y-87517550D01*
X107384728Y-87571716D01*
X108017037Y-86939408D01*
X108034075Y-87002993D01*
X108099901Y-87117007D01*
X108192993Y-87210099D01*
X108307007Y-87275925D01*
X108370590Y-87292962D01*
X107738282Y-87925269D01*
X107738282Y-87925270D01*
X107792449Y-87964624D01*
X107981782Y-88061095D01*
X108183870Y-88126757D01*
X108393754Y-88160000D01*
X108606246Y-88160000D01*
X108816127Y-88126757D01*
X108816130Y-88126757D01*
X109018217Y-88061095D01*
X109207554Y-87964622D01*
X109261716Y-87925270D01*
X109261717Y-87925270D01*
X108629408Y-87292962D01*
X108692993Y-87275925D01*
X108807007Y-87210099D01*
X108900099Y-87117007D01*
X108965925Y-87002993D01*
X108982962Y-86939408D01*
X109615270Y-87571717D01*
X109615270Y-87571716D01*
X109654622Y-87517554D01*
X109751095Y-87328217D01*
X109816757Y-87126130D01*
X109816757Y-87126127D01*
X109850000Y-86916246D01*
X109850000Y-86703753D01*
X109816757Y-86493872D01*
X109816757Y-86493869D01*
X109751095Y-86291782D01*
X109654624Y-86102449D01*
X109615270Y-86048282D01*
X109615269Y-86048282D01*
X108982962Y-86680590D01*
X108965925Y-86617007D01*
X108900099Y-86502993D01*
X108807007Y-86409901D01*
X108692993Y-86344075D01*
X108629409Y-86327037D01*
X109261716Y-85694728D01*
X109207550Y-85655375D01*
X109018217Y-85558904D01*
X108919287Y-85526760D01*
X108861611Y-85487323D01*
X108834413Y-85422964D01*
X108846328Y-85354118D01*
X108893572Y-85302642D01*
X108919290Y-85290897D01*
X108922445Y-85289873D01*
X109076788Y-85211232D01*
X109216928Y-85109414D01*
X109339414Y-84986928D01*
X109441232Y-84846788D01*
X109519873Y-84692445D01*
X109573402Y-84527701D01*
X109600500Y-84356611D01*
X109600500Y-84183389D01*
X109573402Y-84012299D01*
X109519873Y-83847555D01*
X109441232Y-83693212D01*
X109339414Y-83553072D01*
X109216928Y-83430586D01*
X109076788Y-83328768D01*
X108922445Y-83250127D01*
X108757701Y-83196598D01*
X108757699Y-83196597D01*
X108757698Y-83196597D01*
X108626271Y-83175781D01*
X108586611Y-83169500D01*
X108413389Y-83169500D01*
X108373728Y-83175781D01*
X108242302Y-83196597D01*
X108077552Y-83250128D01*
X107923211Y-83328768D01*
X107843256Y-83386859D01*
X107783072Y-83430586D01*
X107783070Y-83430588D01*
X107783069Y-83430588D01*
X107660588Y-83553069D01*
X107660588Y-83553070D01*
X107660586Y-83553072D01*
X107616859Y-83613256D01*
X107558768Y-83693211D01*
X107480128Y-83847552D01*
X107426597Y-84012302D01*
X107399500Y-84183389D01*
X107399500Y-84356611D01*
X107426598Y-84527701D01*
X107480127Y-84692445D01*
X107558768Y-84846788D01*
X107660586Y-84986928D01*
X107783072Y-85109414D01*
X107923212Y-85211232D01*
X108077555Y-85289873D01*
X108080708Y-85290897D01*
X108081752Y-85291611D01*
X108082048Y-85291734D01*
X108082022Y-85291795D01*
X108138383Y-85330330D01*
X108165585Y-85394688D01*
X108153674Y-85463535D01*
X108106433Y-85515013D01*
X108080712Y-85526760D01*
X107981783Y-85558904D01*
X107792439Y-85655380D01*
X107738282Y-85694727D01*
X107738282Y-85694728D01*
X108370591Y-86327037D01*
X108307007Y-86344075D01*
X108192993Y-86409901D01*
X108099901Y-86502993D01*
X108034075Y-86617007D01*
X108017037Y-86680591D01*
X107384728Y-86048282D01*
X107384727Y-86048282D01*
X107345380Y-86102439D01*
X107248904Y-86291782D01*
X107183242Y-86493869D01*
X107183242Y-86493872D01*
X107150000Y-86703753D01*
X94700000Y-86703753D01*
X94700000Y-46550000D01*
X89624500Y-46550000D01*
X89557461Y-46530315D01*
X89511706Y-46477511D01*
X89500500Y-46426000D01*
X89500500Y-43661487D01*
X89520185Y-43594448D01*
X89572989Y-43548693D01*
X89642147Y-43538749D01*
X89705703Y-43567774D01*
X89734984Y-43605191D01*
X89783547Y-43700500D01*
X89801000Y-43734752D01*
X89930694Y-43913262D01*
X89930698Y-43913267D01*
X90086732Y-44069301D01*
X90086737Y-44069305D01*
X90197805Y-44150000D01*
X90265251Y-44199002D01*
X90378301Y-44256604D01*
X90461864Y-44299182D01*
X90566793Y-44333275D01*
X90671724Y-44367369D01*
X90772664Y-44383356D01*
X90889664Y-44401888D01*
X90889669Y-44401888D01*
X91110336Y-44401888D01*
X91215991Y-44385153D01*
X91328276Y-44367369D01*
X91538138Y-44299181D01*
X91734749Y-44199002D01*
X91913269Y-44069300D01*
X92069300Y-43913269D01*
X92199002Y-43734749D01*
X92299181Y-43538138D01*
X92299356Y-43537601D01*
X92304494Y-43521786D01*
X92367369Y-43328276D01*
X92395065Y-43153413D01*
X92401888Y-43110336D01*
X92401888Y-42889663D01*
X92393145Y-42834464D01*
X92368989Y-42681954D01*
X92367369Y-42671724D01*
X92318336Y-42520814D01*
X92299182Y-42461864D01*
X92293802Y-42451306D01*
X92199002Y-42265251D01*
X92144772Y-42190609D01*
X92069305Y-42086737D01*
X92069301Y-42086732D01*
X91913267Y-41930698D01*
X91913262Y-41930694D01*
X91734752Y-41801000D01*
X91734751Y-41800999D01*
X91734749Y-41800998D01*
X91614858Y-41739910D01*
X91538135Y-41700817D01*
X91328277Y-41632631D01*
X91110336Y-41598112D01*
X91110331Y-41598112D01*
X90889669Y-41598112D01*
X90889664Y-41598112D01*
X90671722Y-41632631D01*
X90461864Y-41700817D01*
X90265247Y-41801000D01*
X90086737Y-41930694D01*
X90086732Y-41930698D01*
X89930698Y-42086732D01*
X89930694Y-42086737D01*
X89800998Y-42265249D01*
X89734984Y-42394808D01*
X89687010Y-42445603D01*
X89619189Y-42462398D01*
X89553054Y-42439860D01*
X89509603Y-42385145D01*
X89500500Y-42338512D01*
X89500500Y-40624500D01*
X89520185Y-40557461D01*
X89572989Y-40511706D01*
X89624500Y-40500500D01*
X93747548Y-40500500D01*
X93814587Y-40520185D01*
G37*
%TD.AperFunction*%
%TA.AperFunction,Conductor*%
G36*
X108614363Y-49146162D02*
G01*
X108621564Y-49145608D01*
X108646370Y-49158976D01*
X108672525Y-49169447D01*
X108682919Y-49178672D01*
X108683070Y-49178754D01*
X108683126Y-49178856D01*
X108683554Y-49179236D01*
X109863181Y-50358863D01*
X109896666Y-50420186D01*
X109899500Y-50446544D01*
X109899500Y-67453456D01*
X109879815Y-67520495D01*
X109863181Y-67541137D01*
X109591137Y-67813181D01*
X109529814Y-67846666D01*
X109503456Y-67849500D01*
X109427525Y-67849500D01*
X109298993Y-67883940D01*
X109287511Y-67887017D01*
X109161988Y-67959488D01*
X109161982Y-67959493D01*
X109059493Y-68061982D01*
X109059489Y-68061988D01*
X109048114Y-68081689D01*
X108997545Y-68129903D01*
X108928938Y-68143123D01*
X108864074Y-68117153D01*
X108853048Y-68107366D01*
X108386819Y-67641137D01*
X108353334Y-67579814D01*
X108350500Y-67553456D01*
X108350500Y-50379386D01*
X108370185Y-50312347D01*
X108386819Y-50291705D01*
X108440509Y-50238015D01*
X108512984Y-50112485D01*
X108550500Y-49972475D01*
X108550500Y-49827525D01*
X108512984Y-49687515D01*
X108446565Y-49572475D01*
X108440511Y-49561988D01*
X108440506Y-49561982D01*
X108391205Y-49512681D01*
X108357720Y-49451358D01*
X108362704Y-49381666D01*
X108379211Y-49351237D01*
X108384688Y-49343835D01*
X108440509Y-49288015D01*
X108492009Y-49198814D01*
X108496198Y-49193154D01*
X108518661Y-49176144D01*
X108539053Y-49156701D01*
X108546144Y-49155334D01*
X108551900Y-49150976D01*
X108579990Y-49148811D01*
X108607660Y-49143479D01*
X108614363Y-49146162D01*
G37*
%TD.AperFunction*%
%TA.AperFunction,Conductor*%
G36*
X98405500Y-49419185D02*
G01*
X98451255Y-49471989D01*
X98461199Y-49541147D01*
X98453023Y-49570952D01*
X98451987Y-49573452D01*
X98451987Y-49573453D01*
X98384106Y-49737334D01*
X98384105Y-49737338D01*
X98384104Y-49737341D01*
X98384103Y-49737341D01*
X98349500Y-49911304D01*
X98349500Y-53825637D01*
X98329815Y-53892676D01*
X98313181Y-53913318D01*
X97062181Y-55164318D01*
X97000858Y-55197803D01*
X96931166Y-55192819D01*
X96875233Y-55150947D01*
X96850816Y-55085483D01*
X96850500Y-55076637D01*
X96850500Y-50196544D01*
X96870185Y-50129505D01*
X96886819Y-50108863D01*
X97559863Y-49435819D01*
X97621186Y-49402334D01*
X97647544Y-49399500D01*
X98338461Y-49399500D01*
X98405500Y-49419185D01*
G37*
%TD.AperFunction*%
%TD*%
M02*
