M48
; DRILL file {KiCad 9.0.7} date 2026-01-14T01:24:05+0100
; FORMAT={-:-/ absolute / metric / decimal}
; #@! TF.CreationDate,2026-01-14T01:24:05+01:00
; #@! TF.GenerationSoftware,Kicad,Pcbnew,9.0.7
; #@! TF.FileFunction,Plated,1,2,PTH
FMAT,2
METRIC
; #@! TA.AperFunction,Plated,PTH,ViaDrill
T1C0.300
; #@! TA.AperFunction,Plated,PTH,ComponentDrill
T2C0.750
; #@! TA.AperFunction,Plated,PTH,ComponentDrill
T3C0.900
; #@! TA.AperFunction,Plated,PTH,ComponentDrill
T4C1.000
%
G90
G05
T1
X90.25Y-45.5
X92.0Y-45.5
X95.5Y-48.5
X96.5Y-41.5
X97.0Y-85.5
X97.612Y-80.5
X97.75Y-53.5
X97.75Y-55.75
X98.0Y-51.0
X98.101Y-82.106
X99.1Y-76.25
X99.25Y-50.0
X99.25Y-50.75
X99.25Y-51.5
X99.25Y-52.25
X99.25Y-69.5
X99.25Y-73.25
X99.25Y-78.5
X99.5Y-63.75
X100.0Y-43.5
X100.0Y-55.5
X100.5Y-51.5
X100.75Y-49.5
X101.5Y-64.0
X101.75Y-47.75
X102.25Y-59.25
X103.25Y-85.75
X103.5Y-41.5
X103.5Y-65.75
X103.5Y-73.0
X103.75Y-49.0
X104.0Y-55.0
X105.25Y-83.0
X106.25Y-67.25
X106.496Y-52.0
X106.75Y-55.25
X106.75Y-59.25
X106.75Y-74.25
X107.25Y-64.5
X107.75Y-70.75
X108.0Y-48.0
X108.0Y-48.95
X108.0Y-49.9
X108.75Y-57.25
X109.5Y-46.75
X109.5Y-50.5
X109.5Y-62.25
X109.5Y-68.4
X109.5Y-69.25
X109.5Y-76.25
T2
X100.48Y-78.5
X101.75Y-78.5
X103.02Y-78.5
T4
X108.5Y-79.19
X108.5Y-81.73
X108.5Y-84.27
X108.5Y-86.81
T3
G00X94.3Y-43.7
M15
G01X94.3Y-42.1
M16
G05
G00X105.7Y-43.7
M15
G01X105.7Y-42.1
M16
G05
M30
