%TF.GenerationSoftware,KiCad,Pcbnew,9.0.7*%
%TF.CreationDate,2026-01-14T01:24:10+01:00*%
%TF.ProjectId,pixel-led,70697865-6c2d-46c6-9564-2e6b69636164,1.2*%
%TF.SameCoordinates,Original*%
%TF.FileFunction,Copper,L1,Top*%
%TF.FilePolarity,Positive*%
%FSLAX46Y46*%
G04 Gerber Fmt 4.6, Leading zero omitted, Abs format (unit mm)*
G04 Created by KiCad (PCBNEW 9.0.7) date 2026-01-14 01:24:10*
%MOMM*%
%LPD*%
G01*
G04 APERTURE LIST*
G04 Aperture macros list*
%AMRoundRect*
0 Rectangle with rounded corners*
0 $1 Rounding radius*
0 $2 $3 $4 $5 $6 $7 $8 $9 X,Y pos of 4 corners*
0 Add a 4 corners polygon primitive as box body*
4,1,4,$2,$3,$4,$5,$6,$7,$8,$9,$2,$3,0*
0 Add four circle primitives for the rounded corners*
1,1,$1+$1,$2,$3*
1,1,$1+$1,$4,$5*
1,1,$1+$1,$6,$7*
1,1,$1+$1,$8,$9*
0 Add four rect primitives between the rounded corners*
20,1,$1+$1,$2,$3,$4,$5,0*
20,1,$1+$1,$4,$5,$6,$7,0*
20,1,$1+$1,$6,$7,$8,$9,0*
20,1,$1+$1,$8,$9,$2,$3,0*%
%AMOutline5P*
0 Free polygon, 5 corners , with rotation*
0 The origin of the aperture is its center*
0 number of corners: always 5*
0 $1 to $10 corner X, Y*
0 $11 Rotation angle, in degrees counterclockwise*
0 create outline with 5 corners*
4,1,5,$1,$2,$3,$4,$5,$6,$7,$8,$9,$10,$1,$2,$11*%
%AMOutline6P*
0 Free polygon, 6 corners , with rotation*
0 The origin of the aperture is its center*
0 number of corners: always 6*
0 $1 to $12 corner X, Y*
0 $13 Rotation angle, in degrees counterclockwise*
0 create outline with 6 corners*
4,1,6,$1,$2,$3,$4,$5,$6,$7,$8,$9,$10,$11,$12,$1,$2,$13*%
%AMOutline7P*
0 Free polygon, 7 corners , with rotation*
0 The origin of the aperture is its center*
0 number of corners: always 7*
0 $1 to $14 corner X, Y*
0 $15 Rotation angle, in degrees counterclockwise*
0 create outline with 7 corners*
4,1,7,$1,$2,$3,$4,$5,$6,$7,$8,$9,$10,$11,$12,$13,$14,$1,$2,$15*%
%AMOutline8P*
0 Free polygon, 8 corners , with rotation*
0 The origin of the aperture is its center*
0 number of corners: always 8*
0 $1 to $16 corner X, Y*
0 $17 Rotation angle, in degrees counterclockwise*
0 create outline with 8 corners*
4,1,8,$1,$2,$3,$4,$5,$6,$7,$8,$9,$10,$11,$12,$13,$14,$15,$16,$1,$2,$17*%
G04 Aperture macros list end*
%TA.AperFunction,SMDPad,CuDef*%
%ADD10RoundRect,0.200000X-0.200000X-0.275000X0.200000X-0.275000X0.200000X0.275000X-0.200000X0.275000X0*%
%TD*%
%TA.AperFunction,SMDPad,CuDef*%
%ADD11RoundRect,0.250000X0.250000X0.475000X-0.250000X0.475000X-0.250000X-0.475000X0.250000X-0.475000X0*%
%TD*%
%TA.AperFunction,SMDPad,CuDef*%
%ADD12RoundRect,0.237500X0.250000X0.237500X-0.250000X0.237500X-0.250000X-0.237500X0.250000X-0.237500X0*%
%TD*%
%TA.AperFunction,SMDPad,CuDef*%
%ADD13R,0.850000X1.600000*%
%TD*%
%TA.AperFunction,ComponentPad*%
%ADD14R,1.700000X1.700000*%
%TD*%
%TA.AperFunction,ComponentPad*%
%ADD15C,1.700000*%
%TD*%
%TA.AperFunction,SMDPad,CuDef*%
%ADD16RoundRect,0.375000X-0.625000X-0.375000X0.625000X-0.375000X0.625000X0.375000X-0.625000X0.375000X0*%
%TD*%
%TA.AperFunction,SMDPad,CuDef*%
%ADD17RoundRect,0.500000X-0.500000X-1.400000X0.500000X-1.400000X0.500000X1.400000X-0.500000X1.400000X0*%
%TD*%
%TA.AperFunction,SMDPad,CuDef*%
%ADD18RoundRect,0.237500X0.300000X0.237500X-0.300000X0.237500X-0.300000X-0.237500X0.300000X-0.237500X0*%
%TD*%
%TA.AperFunction,SMDPad,CuDef*%
%ADD19RoundRect,0.225000X-0.225000X-0.250000X0.225000X-0.250000X0.225000X0.250000X-0.225000X0.250000X0*%
%TD*%
%TA.AperFunction,SMDPad,CuDef*%
%ADD20RoundRect,0.150000X-0.512500X-0.150000X0.512500X-0.150000X0.512500X0.150000X-0.512500X0.150000X0*%
%TD*%
%TA.AperFunction,ComponentPad*%
%ADD21R,1.050000X1.500000*%
%TD*%
%TA.AperFunction,ComponentPad*%
%ADD22O,1.050000X1.500000*%
%TD*%
%TA.AperFunction,SMDPad,CuDef*%
%ADD23R,0.400000X0.800000*%
%TD*%
%TA.AperFunction,SMDPad,CuDef*%
%ADD24R,0.800000X0.400000*%
%TD*%
%TA.AperFunction,HeatsinkPad*%
%ADD25Outline5P,-0.600000X0.204000X-0.204000X0.600000X0.600000X0.600000X0.600000X-0.600000X-0.600000X-0.600000X90.000000*%
%TD*%
%TA.AperFunction,HeatsinkPad*%
%ADD26R,1.200000X1.200000*%
%TD*%
%TA.AperFunction,SMDPad,CuDef*%
%ADD27R,0.800000X0.800000*%
%TD*%
%TA.AperFunction,SMDPad,CuDef*%
%ADD28R,1.100000X2.500000*%
%TD*%
%TA.AperFunction,HeatsinkPad*%
%ADD29O,1.900000X3.500000*%
%TD*%
%TA.AperFunction,SMDPad,CuDef*%
%ADD30R,0.750000X1.000000*%
%TD*%
%TA.AperFunction,SMDPad,CuDef*%
%ADD31RoundRect,0.250000X0.337500X0.475000X-0.337500X0.475000X-0.337500X-0.475000X0.337500X-0.475000X0*%
%TD*%
%TA.AperFunction,SMDPad,CuDef*%
%ADD32RoundRect,0.250000X-0.250000X-0.475000X0.250000X-0.475000X0.250000X0.475000X-0.250000X0.475000X0*%
%TD*%
%TA.AperFunction,ViaPad*%
%ADD33C,0.600000*%
%TD*%
%TA.AperFunction,Conductor*%
%ADD34C,0.200000*%
%TD*%
%TA.AperFunction,Conductor*%
%ADD35C,0.250000*%
%TD*%
%TA.AperFunction,Conductor*%
%ADD36C,1.300000*%
%TD*%
G04 APERTURE END LIST*
D10*
%TO.P,R4,1*%
%TO.N,VCC_3.3V*%
X104839000Y-52000000D03*
%TO.P,R4,2*%
%TO.N,0*%
X106489000Y-52000000D03*
%TD*%
D11*
%TO.P,C1,1*%
%TO.N,VCC_3.3V*%
X101000000Y-58000000D03*
%TO.P,C1,2*%
%TO.N,GND*%
X99100000Y-58000000D03*
%TD*%
D12*
%TO.P,R3,1*%
%TO.N,VCC_3.3V*%
X100912500Y-60250000D03*
%TO.P,R3,2*%
%TO.N,Net-(U3-EN)*%
X99087500Y-60250000D03*
%TD*%
D13*
%TO.P,D1,1,DOUT*%
%TO.N,unconnected-(D1-DOUT-Pad1)*%
X97875000Y-83750000D03*
%TO.P,D1,2,VSS*%
%TO.N,GND*%
X96125000Y-83750000D03*
%TO.P,D1,3,DIN*%
%TO.N,14*%
X96125000Y-87250000D03*
%TO.P,D1,4,VDD*%
%TO.N,VCC_5V*%
X97875000Y-87250000D03*
%TD*%
D14*
%TO.P,J1,1,Pin_1*%
%TO.N,VCC_5V*%
X108500000Y-79190000D03*
D15*
%TO.P,J1,2,Pin_2*%
%TO.N,DAT*%
X108500000Y-81730000D03*
%TO.P,J1,3,Pin_3*%
%TO.N,CLK*%
X108500000Y-84270000D03*
%TO.P,J1,4,Pin_4*%
%TO.N,GND*%
X108500000Y-86810000D03*
%TD*%
D16*
%TO.P,U1,1,GND*%
%TO.N,GND*%
X96100000Y-50950000D03*
%TO.P,U1,2,VO*%
%TO.N,VCC_3.3V*%
X96100000Y-53250000D03*
D17*
X102400000Y-53250000D03*
D16*
%TO.P,U1,3,VI*%
%TO.N,VCC_5V*%
X96100000Y-55550000D03*
%TD*%
D18*
%TO.P,C4,1*%
%TO.N,VCC_3.3V*%
X97612500Y-80500000D03*
%TO.P,C4,2*%
%TO.N,GND*%
X95887500Y-80500000D03*
%TD*%
D19*
%TO.P,C5,1*%
%TO.N,0*%
X107975000Y-52000000D03*
%TO.P,C5,2*%
%TO.N,GND*%
X109525000Y-52000000D03*
%TD*%
D20*
%TO.P,U4,1,I/O1*%
%TO.N,Net-(J2-D+)*%
X105725000Y-48000000D03*
%TO.P,U4,2,GND*%
%TO.N,GND*%
X105725000Y-48950000D03*
%TO.P,U4,3,I/O2*%
%TO.N,Net-(J2-D-)*%
X105725000Y-49900000D03*
%TO.P,U4,4,I/O2*%
%TO.N,D-*%
X108000000Y-49900000D03*
%TO.P,U4,5,VBUS*%
%TO.N,VCC_5V*%
X108000000Y-48950000D03*
%TO.P,U4,6,I/O1*%
%TO.N,D+*%
X108000000Y-48000000D03*
%TD*%
D21*
%TO.P,U2,1,OUT*%
%TO.N,IR*%
X103020000Y-78500000D03*
D22*
%TO.P,U2,2,GND*%
%TO.N,GND*%
X101750000Y-78500000D03*
%TO.P,U2,3,Vs*%
%TO.N,VCC_3.3V*%
X100480000Y-78500000D03*
%TD*%
D23*
%TO.P,U3,1,GND*%
%TO.N,GND*%
X96550000Y-76250000D03*
%TO.P,U3,2,GND*%
X97400000Y-76250000D03*
%TO.P,U3,3,3V3*%
%TO.N,VCC_3.3V*%
X98250000Y-76250000D03*
%TO.P,U3,4,IO0*%
%TO.N,0*%
X99100000Y-76250000D03*
%TO.P,U3,5,IO1*%
%TO.N,unconnected-(U3-IO1-Pad5)*%
X99950000Y-76250000D03*
%TO.P,U3,6,IO2*%
%TO.N,unconnected-(U3-IO2-Pad6)*%
X100800000Y-76250000D03*
%TO.P,U3,7,IO3*%
%TO.N,IR*%
X101650000Y-76250000D03*
%TO.P,U3,8,IO4*%
%TO.N,unconnected-(U3-IO4-Pad8)*%
X102500000Y-76250000D03*
%TO.P,U3,9,IO5*%
%TO.N,unconnected-(U3-IO5-Pad9)*%
X103350000Y-76250000D03*
%TO.P,U3,10,IO6*%
%TO.N,unconnected-(U3-IO6-Pad10)*%
X104200000Y-76250000D03*
%TO.P,U3,11,IO7*%
%TO.N,CLK*%
X105050000Y-76250000D03*
%TO.P,U3,12,IO8*%
%TO.N,DAT*%
X105900000Y-76250000D03*
%TO.P,U3,13,IO9*%
%TO.N,unconnected-(U3-IO9-Pad13)*%
X106750000Y-76250000D03*
%TO.P,U3,14,IO10*%
%TO.N,unconnected-(U3-IO10-Pad14)*%
X107600000Y-76250000D03*
%TO.P,U3,15,IO11*%
%TO.N,unconnected-(U3-IO11-Pad15)*%
X108450000Y-76250000D03*
D24*
%TO.P,U3,16,IO12*%
%TO.N,unconnected-(U3-IO12-Pad16)*%
X109500000Y-75200000D03*
%TO.P,U3,17,IO13*%
%TO.N,unconnected-(U3-IO13-Pad17)*%
X109500000Y-74350000D03*
%TO.P,U3,18,IO14*%
%TO.N,14*%
X109500000Y-73500000D03*
%TO.P,U3,19,IO15*%
%TO.N,15*%
X109500000Y-72650000D03*
%TO.P,U3,20,IO16*%
%TO.N,unconnected-(U3-IO16-Pad20)*%
X109500000Y-71800000D03*
%TO.P,U3,21,IO17*%
%TO.N,unconnected-(U3-IO17-Pad21)*%
X109500000Y-70950000D03*
%TO.P,U3,22,IO18*%
%TO.N,unconnected-(U3-IO18-Pad22)*%
X109500000Y-70100000D03*
%TO.P,U3,23,USB_D-*%
%TO.N,D-*%
X109500000Y-69250000D03*
%TO.P,U3,24,USB_D+*%
%TO.N,D+*%
X109500000Y-68400000D03*
%TO.P,U3,25,IO21*%
%TO.N,unconnected-(U3-IO21-Pad25)*%
X109500000Y-67550000D03*
%TO.P,U3,26,IO26*%
%TO.N,unconnected-(U3-IO26-Pad26)*%
X109500000Y-66700000D03*
%TO.P,U3,27,IO47*%
%TO.N,unconnected-(U3-IO47-Pad27)*%
X109500000Y-65850000D03*
%TO.P,U3,28,IO33*%
%TO.N,unconnected-(U3-IO33-Pad28)*%
X109500000Y-65000000D03*
%TO.P,U3,29,IO34*%
%TO.N,unconnected-(U3-IO34-Pad29)*%
X109500000Y-64150000D03*
%TO.P,U3,30,IO48*%
%TO.N,unconnected-(U3-IO48-Pad30)*%
X109500000Y-63300000D03*
D23*
%TO.P,U3,31,IO35*%
%TO.N,unconnected-(U3-IO35-Pad31)*%
X108450000Y-62250000D03*
%TO.P,U3,32,IO36*%
%TO.N,unconnected-(U3-IO36-Pad32)*%
X107600000Y-62250000D03*
%TO.P,U3,33,IO37*%
%TO.N,unconnected-(U3-IO37-Pad33)*%
X106750000Y-62250000D03*
%TO.P,U3,34,IO38*%
%TO.N,unconnected-(U3-IO38-Pad34)*%
X105900000Y-62250000D03*
%TO.P,U3,35,IO39*%
%TO.N,unconnected-(U3-IO39-Pad35)*%
X105050000Y-62250000D03*
%TO.P,U3,36,IO40*%
%TO.N,unconnected-(U3-IO40-Pad36)*%
X104200000Y-62250000D03*
%TO.P,U3,37,IO41*%
%TO.N,unconnected-(U3-IO41-Pad37)*%
X103350000Y-62250000D03*
%TO.P,U3,38,IO42*%
%TO.N,unconnected-(U3-IO42-Pad38)*%
X102500000Y-62250000D03*
%TO.P,U3,39,TXD0*%
%TO.N,unconnected-(U3-TXD0-Pad39)*%
X101650000Y-62250000D03*
%TO.P,U3,40,RXD0*%
%TO.N,unconnected-(U3-RXD0-Pad40)*%
X100800000Y-62250000D03*
%TO.P,U3,41,IO45*%
%TO.N,unconnected-(U3-IO45-Pad41)*%
X99950000Y-62250000D03*
%TO.P,U3,42,GND*%
%TO.N,GND*%
X99100000Y-62250000D03*
%TO.P,U3,43,GND*%
X98250000Y-62250000D03*
%TO.P,U3,44,IO46*%
%TO.N,unconnected-(U3-IO46-Pad44)*%
X97400000Y-62250000D03*
%TO.P,U3,45,EN*%
%TO.N,Net-(U3-EN)*%
X96550000Y-62250000D03*
D24*
%TO.P,U3,46,GND*%
%TO.N,GND*%
X95500000Y-63300000D03*
%TO.P,U3,47,GND*%
X95500000Y-64150000D03*
%TO.P,U3,48,GND*%
X95500000Y-65000000D03*
%TO.P,U3,49,GND*%
X95500000Y-65850000D03*
%TO.P,U3,50,GND*%
X95500000Y-66700000D03*
%TO.P,U3,51,GND*%
X95500000Y-67550000D03*
%TO.P,U3,52,GND*%
X95500000Y-68400000D03*
%TO.P,U3,53,GND*%
X95500000Y-69250000D03*
%TO.P,U3,54,GND*%
X95500000Y-70100000D03*
%TO.P,U3,55,GND*%
X95500000Y-70950000D03*
%TO.P,U3,56,GND*%
X95500000Y-71800000D03*
%TO.P,U3,57,GND*%
X95500000Y-72650000D03*
%TO.P,U3,58,GND*%
X95500000Y-73500000D03*
%TO.P,U3,59,GND*%
X95500000Y-74350000D03*
%TO.P,U3,60,GND*%
X95500000Y-75200000D03*
D25*
%TO.P,U3,61,GND*%
X100850000Y-70900000D03*
D26*
X102500000Y-70900000D03*
X104150000Y-70900000D03*
X100850000Y-69250000D03*
X102500000Y-69250000D03*
X104150000Y-69250000D03*
X100850000Y-67600000D03*
X102500000Y-67600000D03*
X104150000Y-67600000D03*
D27*
%TO.P,U3,62,GND*%
X95500000Y-76250000D03*
%TO.P,U3,63,GND*%
X109500000Y-76250000D03*
%TO.P,U3,64,GND*%
X109500000Y-62250000D03*
%TO.P,U3,65,GND*%
X95500000Y-62250000D03*
%TD*%
D28*
%TO.P,J2,1,VBUS*%
%TO.N,VCC_5V*%
X96500000Y-45650000D03*
%TO.P,J2,2,D-*%
%TO.N,Net-(J2-D-)*%
X99000000Y-45650000D03*
%TO.P,J2,3,D+*%
%TO.N,Net-(J2-D+)*%
X101000000Y-45650000D03*
%TO.P,J2,4,GND*%
%TO.N,GND*%
X103500000Y-45650000D03*
D29*
%TO.P,J2,5,Shield*%
X94300000Y-42900000D03*
X105700000Y-42900000D03*
%TD*%
D30*
%TO.P,SW2,1,1*%
%TO.N,GND*%
X105625000Y-60250000D03*
X105625000Y-54250000D03*
%TO.P,SW2,2,2*%
%TO.N,0*%
X109375000Y-60250000D03*
X109375000Y-54250000D03*
%TD*%
D31*
%TO.P,C7,1*%
%TO.N,VCC_3.3V*%
X97787500Y-78500000D03*
%TO.P,C7,2*%
%TO.N,GND*%
X95712500Y-78500000D03*
%TD*%
D18*
%TO.P,C3,1*%
%TO.N,Net-(U3-EN)*%
X97362500Y-60250000D03*
%TO.P,C3,2*%
%TO.N,GND*%
X95637500Y-60250000D03*
%TD*%
D32*
%TO.P,C2,1*%
%TO.N,VCC_5V*%
X95550000Y-58000000D03*
%TO.P,C2,2*%
%TO.N,GND*%
X97450000Y-58000000D03*
%TD*%
D33*
%TO.N,0*%
X106496000Y-52000000D03*
X99100000Y-76250000D03*
%TO.N,GND*%
X100000000Y-43500000D03*
X107250000Y-64500000D03*
X109500000Y-76250000D03*
X109500000Y-62250000D03*
X99250000Y-69500000D03*
X95500000Y-48500000D03*
X90250000Y-45500000D03*
X98000000Y-51000000D03*
X103250000Y-85750000D03*
X102250000Y-59250000D03*
X99250000Y-73250000D03*
X108750000Y-57250000D03*
X97750000Y-53500000D03*
X101750000Y-47750000D03*
X99250000Y-78500000D03*
X109500000Y-46750000D03*
X100500000Y-51500000D03*
X103750000Y-49000000D03*
X104000000Y-55000000D03*
X100000000Y-55500000D03*
X106250000Y-67250000D03*
X92000000Y-45500000D03*
X109500000Y-50500000D03*
X96500000Y-41500000D03*
X106750000Y-59250000D03*
X103500000Y-73000000D03*
X106750000Y-74250000D03*
X105250000Y-83000000D03*
X103500000Y-41500000D03*
X97000000Y-85500000D03*
X103500000Y-65750000D03*
X106750000Y-55250000D03*
X99500000Y-63750000D03*
X107750000Y-70750000D03*
X98101468Y-82105575D03*
X101500000Y-64000000D03*
%TO.N,VCC_5V*%
X108000000Y-48950000D03*
X99250000Y-50000000D03*
X99250000Y-51500000D03*
X99250000Y-50750000D03*
X99250000Y-52250000D03*
X97750000Y-55750000D03*
%TO.N,VCC_3.3V*%
X100750000Y-49500000D03*
X97612500Y-80500000D03*
%TO.N,D+*%
X109500000Y-68400000D03*
X108000000Y-48000000D03*
%TO.N,D-*%
X109500000Y-69250000D03*
X108000000Y-49900000D03*
%TD*%
D34*
%TO.N,Net-(U3-EN)*%
X97362500Y-60250000D02*
X99087500Y-60250000D01*
X96550000Y-62250000D02*
X96550000Y-61062500D01*
X96550000Y-61062500D02*
X97362500Y-60250000D01*
%TO.N,14*%
X97226000Y-88351000D02*
X109601000Y-88351000D01*
X109601000Y-88351000D02*
X110201000Y-87751000D01*
X110201000Y-74001000D02*
X109700000Y-73500000D01*
X110201000Y-87751000D02*
X110201000Y-74001000D01*
X109700000Y-73500000D02*
X109500000Y-73500000D01*
X96125000Y-87250000D02*
X97226000Y-88351000D01*
%TO.N,0*%
X109375000Y-54250000D02*
X109375000Y-54003000D01*
X109375000Y-54250000D02*
X109375000Y-60250000D01*
X106496000Y-52000000D02*
X107975000Y-52000000D01*
X109375000Y-54003000D02*
X107975000Y-52603000D01*
X106489000Y-52000000D02*
X106496000Y-52000000D01*
X107975000Y-52603000D02*
X107975000Y-52000000D01*
%TO.N,GND*%
X105625000Y-60250000D02*
X105625000Y-54250000D01*
X95712500Y-80212500D02*
X95712500Y-78500000D01*
X104679468Y-45650000D02*
X106688500Y-47659032D01*
X106387499Y-48950000D02*
X105725000Y-48950000D01*
X103500000Y-45650000D02*
X104679468Y-45650000D01*
X95887500Y-80387500D02*
X95712500Y-80212500D01*
X106688500Y-48648999D02*
X106387499Y-48950000D01*
X95712500Y-76462500D02*
X95500000Y-76250000D01*
X94300000Y-46007164D02*
X94300000Y-42900000D01*
X96125000Y-83750000D02*
X96125000Y-80737500D01*
X106688500Y-47659032D02*
X106688500Y-48648999D01*
X96125000Y-80737500D02*
X95887500Y-80500000D01*
X96100000Y-50950000D02*
X96100000Y-47807164D01*
X96100000Y-47807164D02*
X94300000Y-46007164D01*
X97450000Y-58000000D02*
X99100000Y-58000000D01*
X95712500Y-78500000D02*
X95712500Y-76462500D01*
X95887500Y-80500000D02*
X95887500Y-80387500D01*
D35*
%TO.N,VCC_5V*%
X97550000Y-55550000D02*
X97750000Y-55750000D01*
D36*
X99250000Y-50750000D02*
X99250000Y-51500000D01*
D35*
X96100000Y-55550000D02*
X97550000Y-55550000D01*
X95550000Y-58000000D02*
X95550000Y-56100000D01*
D36*
X96500000Y-46250000D02*
X99250000Y-49000000D01*
D34*
X108976760Y-85421000D02*
X109651000Y-84746760D01*
D36*
X96500000Y-45650000D02*
X96500000Y-46250000D01*
X99250000Y-50000000D02*
X99250000Y-50750000D01*
D35*
X95550000Y-56100000D02*
X96100000Y-55550000D01*
D34*
X109651000Y-80341000D02*
X108500000Y-79190000D01*
X106829000Y-85421000D02*
X108976760Y-85421000D01*
D36*
X99250000Y-49000000D02*
X99250000Y-50000000D01*
X99250000Y-51500000D02*
X99250000Y-52250000D01*
D34*
X109651000Y-84746760D02*
X109651000Y-80341000D01*
X105000000Y-87250000D02*
X106829000Y-85421000D01*
X97875000Y-87250000D02*
X105000000Y-87250000D01*
%TO.N,VCC_3.3V*%
X97787500Y-78500000D02*
X97787500Y-80325000D01*
X102400000Y-53250000D02*
X102400000Y-51150000D01*
X101000000Y-60162500D02*
X100912500Y-60250000D01*
X102400000Y-56600000D02*
X101000000Y-58000000D01*
X98480000Y-80500000D02*
X100480000Y-78500000D01*
X102400000Y-53250000D02*
X102400000Y-56600000D01*
X104839000Y-52000000D02*
X103650000Y-52000000D01*
X102400000Y-51150000D02*
X100750000Y-49500000D01*
X101000000Y-58000000D02*
X101000000Y-60162500D01*
X97787500Y-78500000D02*
X98250000Y-78037500D01*
X97787500Y-80325000D02*
X97612500Y-80500000D01*
X98250000Y-78037500D02*
X98250000Y-76250000D01*
X103650000Y-52000000D02*
X102400000Y-53250000D01*
X97612500Y-80500000D02*
X98480000Y-80500000D01*
%TO.N,DAT*%
X106000000Y-79230000D02*
X108500000Y-81730000D01*
X105900000Y-76250000D02*
X106000000Y-76350000D01*
X106000000Y-76350000D02*
X106000000Y-79230000D01*
%TO.N,CLK*%
X105050000Y-76250000D02*
X105050000Y-80820000D01*
X105050000Y-80820000D02*
X108500000Y-84270000D01*
%TO.N,Net-(J2-D-)*%
X99000000Y-45650000D02*
X99000000Y-46350000D01*
X99000000Y-46350000D02*
X102550000Y-49900000D01*
X102550000Y-49900000D02*
X105725000Y-49900000D01*
%TO.N,Net-(J2-D+)*%
X103350000Y-48000000D02*
X105725000Y-48000000D01*
X101000000Y-45650000D02*
X103350000Y-48000000D01*
%TO.N,IR*%
X103020000Y-78275000D02*
X101650000Y-76905000D01*
X103020000Y-78500000D02*
X103020000Y-78275000D01*
X101650000Y-76905000D02*
X101650000Y-76250000D01*
%TD*%
%TA.AperFunction,Conductor*%
%TO.N,GND*%
G36*
X93814587Y-40520185D02*
G01*
X93860342Y-40572989D01*
X93870286Y-40642147D01*
X93841261Y-40705703D01*
X93785866Y-40742431D01*
X93743395Y-40756230D01*
X93540033Y-40859849D01*
X93355385Y-40994004D01*
X93194004Y-41155385D01*
X93059849Y-41340033D01*
X92956230Y-41543395D01*
X92885704Y-41760455D01*
X92850000Y-41985883D01*
X92850000Y-42650000D01*
X93850000Y-42650000D01*
X93850000Y-43150000D01*
X92850000Y-43150000D01*
X92850000Y-43814116D01*
X92885704Y-44039544D01*
X92956230Y-44256604D01*
X93059849Y-44459966D01*
X93194004Y-44644614D01*
X93355385Y-44805995D01*
X93540033Y-44940150D01*
X93743395Y-45043769D01*
X93960455Y-45114295D01*
X94050000Y-45128478D01*
X94050000Y-44075277D01*
X94126306Y-44119333D01*
X94240756Y-44150000D01*
X94359244Y-44150000D01*
X94473694Y-44119333D01*
X94550000Y-44075277D01*
X94550000Y-45128477D01*
X94639544Y-45114295D01*
X94856604Y-45043769D01*
X95059966Y-44940150D01*
X95244614Y-44805995D01*
X95405995Y-44644614D01*
X95406000Y-44644608D01*
X95475182Y-44549388D01*
X95530512Y-44506722D01*
X95600125Y-44500743D01*
X95661920Y-44533348D01*
X95696277Y-44594187D01*
X95699500Y-44622273D01*
X95699500Y-45204793D01*
X95690061Y-45252245D01*
X95634106Y-45387332D01*
X95634103Y-45387341D01*
X95599500Y-45561304D01*
X95599500Y-46338696D01*
X95634103Y-46512659D01*
X95634104Y-46512663D01*
X95634105Y-46512666D01*
X95649570Y-46550000D01*
X95690061Y-46647754D01*
X95699500Y-46695207D01*
X95699500Y-46924678D01*
X95714032Y-46997735D01*
X95714033Y-46997739D01*
X95714034Y-46997740D01*
X95769399Y-47080601D01*
X95852260Y-47135966D01*
X95852264Y-47135967D01*
X95925321Y-47150499D01*
X95925324Y-47150500D01*
X95925326Y-47150500D01*
X96075638Y-47150500D01*
X96142677Y-47170185D01*
X96163319Y-47186819D01*
X98313181Y-49336680D01*
X98346666Y-49398003D01*
X98349500Y-49424361D01*
X98349500Y-52338695D01*
X98384103Y-52512658D01*
X98384106Y-52512667D01*
X98451983Y-52676540D01*
X98451990Y-52676553D01*
X98550535Y-52824034D01*
X98550538Y-52824038D01*
X98675961Y-52949461D01*
X98675965Y-52949464D01*
X98823446Y-53048009D01*
X98823459Y-53048016D01*
X98946363Y-53098923D01*
X98987334Y-53115894D01*
X98987336Y-53115894D01*
X98987341Y-53115896D01*
X99161304Y-53150499D01*
X99161307Y-53150500D01*
X99161309Y-53150500D01*
X99338693Y-53150500D01*
X99338694Y-53150499D01*
X99396682Y-53138964D01*
X99512658Y-53115896D01*
X99512661Y-53115894D01*
X99512666Y-53115894D01*
X99676547Y-53048013D01*
X99824035Y-52949464D01*
X99949464Y-52824035D01*
X100048013Y-52676547D01*
X100050051Y-52671628D01*
X100083991Y-52589687D01*
X100115894Y-52512666D01*
X100120685Y-52488583D01*
X100148151Y-52350500D01*
X100150500Y-52338691D01*
X100150500Y-51411309D01*
X100150500Y-50661309D01*
X100150500Y-49978386D01*
X100170185Y-49911347D01*
X100222989Y-49865592D01*
X100292147Y-49855648D01*
X100355703Y-49884673D01*
X100362181Y-49890705D01*
X100411985Y-49940509D01*
X100411986Y-49940510D01*
X100411988Y-49940511D01*
X100537511Y-50012982D01*
X100537512Y-50012982D01*
X100537515Y-50012984D01*
X100677525Y-50050500D01*
X100753456Y-50050500D01*
X100820495Y-50070185D01*
X100841137Y-50086819D01*
X101693018Y-50938699D01*
X101726503Y-51000022D01*
X101721519Y-51069713D01*
X101679647Y-51125647D01*
X101644342Y-51144085D01*
X101580669Y-51165185D01*
X101580666Y-51165186D01*
X101580663Y-51165187D01*
X101431342Y-51257289D01*
X101307289Y-51381342D01*
X101215187Y-51530663D01*
X101215185Y-51530668D01*
X101203327Y-51566454D01*
X101160001Y-51697203D01*
X101160001Y-51697204D01*
X101160000Y-51697204D01*
X101149500Y-51799983D01*
X101149500Y-54700001D01*
X101149501Y-54700018D01*
X101160000Y-54802796D01*
X101160001Y-54802799D01*
X101215185Y-54969331D01*
X101215187Y-54969336D01*
X101233639Y-54999251D01*
X101307288Y-55118656D01*
X101431344Y-55242712D01*
X101580666Y-55334814D01*
X101747203Y-55389999D01*
X101849991Y-55400500D01*
X101925500Y-55400499D01*
X101992538Y-55420183D01*
X102038294Y-55472986D01*
X102049500Y-55524499D01*
X102049500Y-56403455D01*
X102029815Y-56470494D01*
X102013181Y-56491136D01*
X101498265Y-57006051D01*
X101436942Y-57039536D01*
X101367251Y-57034552D01*
X101357486Y-57030910D01*
X101357485Y-57030909D01*
X101357483Y-57030909D01*
X101297873Y-57024500D01*
X101297863Y-57024500D01*
X100702129Y-57024500D01*
X100702123Y-57024501D01*
X100642516Y-57030908D01*
X100507671Y-57081202D01*
X100507664Y-57081206D01*
X100392455Y-57167452D01*
X100392452Y-57167455D01*
X100306206Y-57282664D01*
X100306201Y-57282674D01*
X100298817Y-57302471D01*
X100256945Y-57358404D01*
X100191480Y-57382820D01*
X100123207Y-57367967D01*
X100073803Y-57318561D01*
X100064930Y-57298140D01*
X100034358Y-57205880D01*
X100034356Y-57205875D01*
X99942315Y-57056654D01*
X99818345Y-56932684D01*
X99669124Y-56840643D01*
X99669119Y-56840641D01*
X99502697Y-56785494D01*
X99502690Y-56785493D01*
X99399986Y-56775000D01*
X99350000Y-56775000D01*
X99350000Y-59224999D01*
X99399972Y-59224999D01*
X99399986Y-59224998D01*
X99502697Y-59214505D01*
X99669119Y-59159358D01*
X99669124Y-59159356D01*
X99818345Y-59067315D01*
X99942315Y-58943345D01*
X100034356Y-58794124D01*
X100034359Y-58794117D01*
X100064930Y-58701860D01*
X100104702Y-58644415D01*
X100169218Y-58617591D01*
X100237994Y-58629906D01*
X100289194Y-58677448D01*
X100298818Y-58697529D01*
X100306203Y-58717329D01*
X100306206Y-58717335D01*
X100392452Y-58832544D01*
X100392455Y-58832547D01*
X100507664Y-58918793D01*
X100507669Y-58918796D01*
X100568833Y-58941608D01*
X100624766Y-58983478D01*
X100649184Y-59048942D01*
X100649500Y-59057790D01*
X100649500Y-59410942D01*
X100629815Y-59477981D01*
X100577011Y-59523736D01*
X100564911Y-59527884D01*
X100564969Y-59528038D01*
X100426219Y-59579789D01*
X100313884Y-59663884D01*
X100229789Y-59776219D01*
X100180748Y-59907700D01*
X100174500Y-59965809D01*
X100174500Y-60534190D01*
X100180748Y-60592299D01*
X100199770Y-60643297D01*
X100229788Y-60723778D01*
X100313884Y-60836116D01*
X100426222Y-60920212D01*
X100518594Y-60954665D01*
X100557700Y-60969251D01*
X100615809Y-60975499D01*
X100615826Y-60975500D01*
X101209174Y-60975500D01*
X101209190Y-60975499D01*
X101267299Y-60969251D01*
X101398778Y-60920212D01*
X101511116Y-60836116D01*
X101539766Y-60797844D01*
X104750000Y-60797844D01*
X104756401Y-60857372D01*
X104756403Y-60857379D01*
X104806645Y-60992086D01*
X104806649Y-60992093D01*
X104892809Y-61107187D01*
X104892812Y-61107190D01*
X105007906Y-61193350D01*
X105007913Y-61193354D01*
X105142620Y-61243596D01*
X105142627Y-61243598D01*
X105202155Y-61249999D01*
X105202172Y-61250000D01*
X105375000Y-61250000D01*
X105875000Y-61250000D01*
X106047828Y-61250000D01*
X106047844Y-61249999D01*
X106107372Y-61243598D01*
X106107379Y-61243596D01*
X106242086Y-61193354D01*
X106242093Y-61193350D01*
X106357187Y-61107190D01*
X106357190Y-61107187D01*
X106443350Y-60992093D01*
X106443354Y-60992086D01*
X106493596Y-60857379D01*
X106493598Y-60857372D01*
X106499999Y-60797844D01*
X106500000Y-60797827D01*
X106500000Y-60500000D01*
X105875000Y-60500000D01*
X105875000Y-61250000D01*
X105375000Y-61250000D01*
X105375000Y-60500000D01*
X104750000Y-60500000D01*
X104750000Y-60797844D01*
X101539766Y-60797844D01*
X101595212Y-60723778D01*
X101644251Y-60592299D01*
X101650499Y-60534190D01*
X101650500Y-60534173D01*
X101650500Y-59965826D01*
X101650499Y-59965809D01*
X101644251Y-59907700D01*
X101625230Y-59856703D01*
X101595212Y-59776222D01*
X101539766Y-59702155D01*
X104750000Y-59702155D01*
X104750000Y-60000000D01*
X105375000Y-60000000D01*
X105875000Y-60000000D01*
X106500000Y-60000000D01*
X106500000Y-59702172D01*
X106499999Y-59702155D01*
X106493598Y-59642627D01*
X106493596Y-59642620D01*
X106443354Y-59507913D01*
X106443350Y-59507906D01*
X106357190Y-59392812D01*
X106357187Y-59392809D01*
X106242093Y-59306649D01*
X106242086Y-59306645D01*
X106107379Y-59256403D01*
X106107372Y-59256401D01*
X106047844Y-59250000D01*
X105875000Y-59250000D01*
X105875000Y-60000000D01*
X105375000Y-60000000D01*
X105375000Y-59250000D01*
X105202155Y-59250000D01*
X105142627Y-59256401D01*
X105142620Y-59256403D01*
X105007913Y-59306645D01*
X105007906Y-59306649D01*
X104892812Y-59392809D01*
X104892809Y-59392812D01*
X104806649Y-59507906D01*
X104806645Y-59507913D01*
X104756403Y-59642620D01*
X104756401Y-59642627D01*
X104750000Y-59702155D01*
X101539766Y-59702155D01*
X101511116Y-59663884D01*
X101482711Y-59642620D01*
X101400189Y-59580843D01*
X101358318Y-59524909D01*
X101350500Y-59481577D01*
X101350500Y-59057790D01*
X101370185Y-58990751D01*
X101422989Y-58944996D01*
X101431146Y-58941616D01*
X101492331Y-58918796D01*
X101607546Y-58832546D01*
X101693796Y-58717331D01*
X101744091Y-58582483D01*
X101750500Y-58522873D01*
X101750499Y-57796542D01*
X101770183Y-57729504D01*
X101786813Y-57708867D01*
X102680470Y-56815212D01*
X102726614Y-56735288D01*
X102750500Y-56646144D01*
X102750500Y-55524499D01*
X102770185Y-55457460D01*
X102822989Y-55411705D01*
X102874500Y-55400499D01*
X102950002Y-55400499D01*
X102950008Y-55400499D01*
X103052797Y-55389999D01*
X103219334Y-55334814D01*
X103368656Y-55242712D01*
X103492712Y-55118656D01*
X103584814Y-54969334D01*
X103639999Y-54802797D01*
X103640505Y-54797844D01*
X104750000Y-54797844D01*
X104756401Y-54857372D01*
X104756403Y-54857379D01*
X104806645Y-54992086D01*
X104806648Y-54992091D01*
X104892809Y-55107187D01*
X104892812Y-55107190D01*
X105007906Y-55193350D01*
X105007913Y-55193354D01*
X105142620Y-55243596D01*
X105142627Y-55243598D01*
X105202155Y-55249999D01*
X105202172Y-55250000D01*
X105375000Y-55250000D01*
X105875000Y-55250000D01*
X106047828Y-55250000D01*
X106047844Y-55249999D01*
X106107372Y-55243598D01*
X106107379Y-55243596D01*
X106242086Y-55193354D01*
X106242093Y-55193350D01*
X106357187Y-55107190D01*
X106357190Y-55107187D01*
X106443352Y-54992091D01*
X106443354Y-54992086D01*
X106493596Y-54857379D01*
X106493598Y-54857372D01*
X106499999Y-54797844D01*
X106500000Y-54797827D01*
X106500000Y-54500000D01*
X105875000Y-54500000D01*
X105875000Y-55250000D01*
X105375000Y-55250000D01*
X105375000Y-54500000D01*
X104750000Y-54500000D01*
X104750000Y-54797844D01*
X103640505Y-54797844D01*
X103650500Y-54700009D01*
X103650499Y-53702155D01*
X104750000Y-53702155D01*
X104750000Y-54000000D01*
X105375000Y-54000000D01*
X105875000Y-54000000D01*
X106500000Y-54000000D01*
X106500000Y-53702172D01*
X106499999Y-53702155D01*
X106493598Y-53642627D01*
X106493596Y-53642620D01*
X106443354Y-53507913D01*
X106443350Y-53507906D01*
X106357190Y-53392812D01*
X106357187Y-53392809D01*
X106242093Y-53306649D01*
X106242086Y-53306645D01*
X106107379Y-53256403D01*
X106107372Y-53256401D01*
X106047844Y-53250000D01*
X105875000Y-53250000D01*
X105875000Y-54000000D01*
X105375000Y-54000000D01*
X105375000Y-53250000D01*
X105202155Y-53250000D01*
X105142627Y-53256401D01*
X105142620Y-53256403D01*
X105007913Y-53306645D01*
X105007906Y-53306649D01*
X104892812Y-53392809D01*
X104892809Y-53392812D01*
X104806649Y-53507906D01*
X104806645Y-53507913D01*
X104756403Y-53642620D01*
X104756401Y-53642627D01*
X104750000Y-53702155D01*
X103650499Y-53702155D01*
X103650499Y-53569399D01*
X103650499Y-52546545D01*
X103659143Y-52517107D01*
X103665667Y-52487117D01*
X103669422Y-52482100D01*
X103670184Y-52479506D01*
X103686818Y-52458863D01*
X103758864Y-52386818D01*
X103820188Y-52353334D01*
X103846545Y-52350500D01*
X104100153Y-52350500D01*
X104167192Y-52370185D01*
X104212947Y-52422989D01*
X104217187Y-52433528D01*
X104236207Y-52487882D01*
X104316850Y-52597150D01*
X104426118Y-52677793D01*
X104468845Y-52692744D01*
X104554299Y-52722646D01*
X104584730Y-52725500D01*
X104584734Y-52725500D01*
X105093270Y-52725500D01*
X105123699Y-52722646D01*
X105123701Y-52722646D01*
X105191590Y-52698890D01*
X105251882Y-52677793D01*
X105361150Y-52597150D01*
X105441793Y-52487882D01*
X105477157Y-52386818D01*
X105486646Y-52359701D01*
X105486646Y-52359699D01*
X105489500Y-52329269D01*
X105489500Y-51670730D01*
X105838500Y-51670730D01*
X105838500Y-52329269D01*
X105841353Y-52359699D01*
X105841353Y-52359701D01*
X105885939Y-52487117D01*
X105886207Y-52487882D01*
X105966850Y-52597150D01*
X106076118Y-52677793D01*
X106118845Y-52692744D01*
X106204299Y-52722646D01*
X106234730Y-52725500D01*
X106234734Y-52725500D01*
X106743270Y-52725500D01*
X106773699Y-52722646D01*
X106773701Y-52722646D01*
X106841590Y-52698890D01*
X106901882Y-52677793D01*
X107011150Y-52597150D01*
X107091793Y-52487882D01*
X107094370Y-52480515D01*
X107135088Y-52423742D01*
X107200040Y-52397992D01*
X107268602Y-52411446D01*
X107319006Y-52459832D01*
X107327591Y-52478133D01*
X107328371Y-52480225D01*
X107334621Y-52488574D01*
X107410313Y-52589687D01*
X107519774Y-52671628D01*
X107592870Y-52698891D01*
X107648801Y-52740762D01*
X107656921Y-52753072D01*
X107694527Y-52818208D01*
X107694531Y-52818213D01*
X108713181Y-53836863D01*
X108746666Y-53898186D01*
X108749500Y-53924544D01*
X108749500Y-54774678D01*
X108764032Y-54847735D01*
X108764033Y-54847739D01*
X108764034Y-54847740D01*
X108819399Y-54930601D01*
X108902260Y-54985966D01*
X108924690Y-54990427D01*
X108986601Y-55022811D01*
X109021176Y-55083526D01*
X109024500Y-55112045D01*
X109024500Y-59387954D01*
X109004815Y-59454993D01*
X108952011Y-59500748D01*
X108924693Y-59509571D01*
X108902262Y-59514032D01*
X108902260Y-59514033D01*
X108819399Y-59569399D01*
X108764033Y-59652260D01*
X108764032Y-59652264D01*
X108749500Y-59725321D01*
X108749500Y-60774678D01*
X108764032Y-60847735D01*
X108764033Y-60847739D01*
X108764034Y-60847740D01*
X108819399Y-60930601D01*
X108890838Y-60978334D01*
X108902260Y-60985966D01*
X108902264Y-60985967D01*
X108975321Y-61000499D01*
X108975324Y-61000500D01*
X108975326Y-61000500D01*
X109774676Y-61000500D01*
X109774677Y-61000499D01*
X109847740Y-60985966D01*
X109930601Y-60930601D01*
X109985966Y-60847740D01*
X110000500Y-60774674D01*
X110000500Y-59725326D01*
X110000500Y-59725323D01*
X110000499Y-59725321D01*
X109985967Y-59652264D01*
X109985966Y-59652260D01*
X109982143Y-59646539D01*
X109930601Y-59569399D01*
X109863404Y-59524500D01*
X109847739Y-59514033D01*
X109847737Y-59514032D01*
X109825307Y-59509571D01*
X109763397Y-59477185D01*
X109728823Y-59416469D01*
X109725500Y-59387954D01*
X109725500Y-55112045D01*
X109745185Y-55045006D01*
X109797989Y-54999251D01*
X109825307Y-54990428D01*
X109847740Y-54985966D01*
X109930601Y-54930601D01*
X109985966Y-54847740D01*
X110000500Y-54774674D01*
X110000500Y-53725326D01*
X110000500Y-53725323D01*
X110000499Y-53725321D01*
X109985967Y-53652264D01*
X109985966Y-53652260D01*
X109930601Y-53569399D01*
X109847740Y-53514034D01*
X109847739Y-53514033D01*
X109847735Y-53514032D01*
X109774677Y-53499500D01*
X109774674Y-53499500D01*
X109418544Y-53499500D01*
X109351505Y-53479815D01*
X109330863Y-53463181D01*
X109042211Y-53174529D01*
X109008726Y-53113206D01*
X109013710Y-53043514D01*
X109055582Y-52987581D01*
X109121046Y-52963164D01*
X109145586Y-52964881D01*
X109145659Y-52964168D01*
X109251683Y-52974999D01*
X109275000Y-52974998D01*
X109275000Y-51024999D01*
X109251693Y-51025000D01*
X109251674Y-51025001D01*
X109152392Y-51035144D01*
X108991518Y-51088452D01*
X108991507Y-51088457D01*
X108847271Y-51177424D01*
X108847267Y-51177427D01*
X108727424Y-51297270D01*
X108691649Y-51355270D01*
X108639701Y-51401993D01*
X108570738Y-51413214D01*
X108511802Y-51389438D01*
X108430230Y-51328374D01*
X108430227Y-51328373D01*
X108430226Y-51328372D01*
X108302114Y-51280588D01*
X108302112Y-51280587D01*
X108302110Y-51280587D01*
X108245493Y-51274500D01*
X107704518Y-51274500D01*
X107704509Y-51274501D01*
X107647885Y-51280587D01*
X107519773Y-51328372D01*
X107410313Y-51410313D01*
X107328371Y-51519774D01*
X107327590Y-51521870D01*
X107326250Y-51523658D01*
X107324124Y-51527554D01*
X107323563Y-51527247D01*
X107285715Y-51577801D01*
X107220249Y-51602214D01*
X107151977Y-51587357D01*
X107102575Y-51537949D01*
X107094372Y-51519490D01*
X107091793Y-51512118D01*
X107011150Y-51402850D01*
X106901882Y-51322207D01*
X106901880Y-51322206D01*
X106773700Y-51277353D01*
X106743270Y-51274500D01*
X106743266Y-51274500D01*
X106234734Y-51274500D01*
X106234730Y-51274500D01*
X106204300Y-51277353D01*
X106204298Y-51277353D01*
X106076119Y-51322206D01*
X106076117Y-51322207D01*
X105966850Y-51402850D01*
X105886207Y-51512117D01*
X105886206Y-51512119D01*
X105841353Y-51640298D01*
X105841353Y-51640300D01*
X105838500Y-51670730D01*
X105489500Y-51670730D01*
X105486646Y-51640300D01*
X105486646Y-51640298D01*
X105444472Y-51519774D01*
X105441793Y-51512118D01*
X105361150Y-51402850D01*
X105251882Y-51322207D01*
X105251880Y-51322206D01*
X105123700Y-51277353D01*
X105093270Y-51274500D01*
X105093266Y-51274500D01*
X104584734Y-51274500D01*
X104584730Y-51274500D01*
X104554300Y-51277353D01*
X104554298Y-51277353D01*
X104426119Y-51322206D01*
X104426117Y-51322207D01*
X104335023Y-51389438D01*
X104316850Y-51402850D01*
X104236207Y-51512118D01*
X104217193Y-51566456D01*
X104176473Y-51623231D01*
X104111520Y-51648978D01*
X104100153Y-51649500D01*
X103713733Y-51649500D01*
X103646694Y-51629815D01*
X103600939Y-51577011D01*
X103596028Y-51564506D01*
X103587227Y-51537949D01*
X103584814Y-51530666D01*
X103492712Y-51381344D01*
X103368656Y-51257288D01*
X103239175Y-51177424D01*
X103219336Y-51165187D01*
X103219331Y-51165185D01*
X103217862Y-51164698D01*
X103052797Y-51110001D01*
X103052795Y-51110000D01*
X102950016Y-51099500D01*
X102950009Y-51099500D01*
X102844482Y-51099500D01*
X102777443Y-51079815D01*
X102744384Y-51048688D01*
X102730704Y-51029978D01*
X102726614Y-51014712D01*
X102680469Y-50934788D01*
X102615212Y-50869531D01*
X101996180Y-50250499D01*
X101336819Y-49591137D01*
X101303334Y-49529814D01*
X101300500Y-49503456D01*
X101300500Y-49445544D01*
X101320185Y-49378505D01*
X101372989Y-49332750D01*
X101442147Y-49322806D01*
X101505703Y-49351831D01*
X101512181Y-49357863D01*
X102334788Y-50180470D01*
X102390240Y-50212485D01*
X102390242Y-50212486D01*
X102414709Y-50226613D01*
X102414711Y-50226613D01*
X102414712Y-50226614D01*
X102503856Y-50250500D01*
X104795245Y-50250500D01*
X104862284Y-50270185D01*
X104882926Y-50286819D01*
X104974152Y-50378045D01*
X104974154Y-50378046D01*
X104974158Y-50378050D01*
X105087194Y-50435645D01*
X105087198Y-50435647D01*
X105180975Y-50450499D01*
X105180981Y-50450500D01*
X106269018Y-50450499D01*
X106362804Y-50435646D01*
X106475842Y-50378050D01*
X106565550Y-50288342D01*
X106623146Y-50175304D01*
X106623146Y-50175302D01*
X106623147Y-50175301D01*
X106634919Y-50100974D01*
X106638000Y-50081519D01*
X106637999Y-49718482D01*
X106634245Y-49694780D01*
X106643198Y-49625490D01*
X106669038Y-49587700D01*
X106755178Y-49501561D01*
X106755185Y-49501552D01*
X106838781Y-49360197D01*
X106871894Y-49246223D01*
X106883725Y-49227696D01*
X106891292Y-49207060D01*
X106902161Y-49198828D01*
X106909500Y-49187337D01*
X106929468Y-49178148D01*
X106946992Y-49164878D01*
X106960586Y-49163829D01*
X106972973Y-49158130D01*
X106994738Y-49161196D01*
X107016655Y-49159506D01*
X107028659Y-49165974D01*
X107042159Y-49167876D01*
X107058810Y-49182221D01*
X107078163Y-49192649D01*
X107090482Y-49209505D01*
X107095094Y-49213479D01*
X107099471Y-49220786D01*
X107101807Y-49225008D01*
X107101854Y-49225304D01*
X107159450Y-49338342D01*
X107170783Y-49349675D01*
X107179245Y-49364969D01*
X107183205Y-49382698D01*
X107191911Y-49398642D01*
X107190663Y-49416088D01*
X107194476Y-49433158D01*
X107188222Y-49450212D01*
X107186927Y-49468334D01*
X107174474Y-49487709D01*
X107170424Y-49498757D01*
X107164489Y-49503251D01*
X107165189Y-49503759D01*
X107159451Y-49511657D01*
X107101852Y-49624698D01*
X107087000Y-49718475D01*
X107087000Y-50081517D01*
X107097792Y-50149657D01*
X107101854Y-50175304D01*
X107159450Y-50288342D01*
X107159452Y-50288344D01*
X107159454Y-50288347D01*
X107249152Y-50378045D01*
X107249154Y-50378046D01*
X107249158Y-50378050D01*
X107362194Y-50435645D01*
X107362198Y-50435647D01*
X107455975Y-50450499D01*
X107455981Y-50450500D01*
X107927523Y-50450499D01*
X107927525Y-50450500D01*
X108072475Y-50450500D01*
X108072477Y-50450499D01*
X108544018Y-50450499D01*
X108637804Y-50435646D01*
X108750842Y-50378050D01*
X108840550Y-50288342D01*
X108898146Y-50175304D01*
X108898146Y-50175302D01*
X108898147Y-50175301D01*
X108909919Y-50100974D01*
X108913000Y-50081519D01*
X108912999Y-49718482D01*
X108898146Y-49624696D01*
X108840550Y-49511658D01*
X108840545Y-49511653D01*
X108834811Y-49503759D01*
X108836165Y-49502774D01*
X108808090Y-49451368D01*
X108813069Y-49381676D01*
X108835513Y-49346751D01*
X108834811Y-49346241D01*
X108840542Y-49338349D01*
X108840550Y-49338342D01*
X108898146Y-49225304D01*
X108898146Y-49225302D01*
X108898147Y-49225301D01*
X108912999Y-49131524D01*
X108913000Y-49131519D01*
X108912999Y-48768482D01*
X108898146Y-48674696D01*
X108840550Y-48561658D01*
X108840545Y-48561653D01*
X108834811Y-48553759D01*
X108836165Y-48552774D01*
X108808090Y-48501368D01*
X108813069Y-48431676D01*
X108835513Y-48396751D01*
X108834811Y-48396241D01*
X108840542Y-48388349D01*
X108840550Y-48388342D01*
X108898146Y-48275304D01*
X108898146Y-48275302D01*
X108898147Y-48275301D01*
X108912999Y-48181524D01*
X108913000Y-48181519D01*
X108912999Y-47818482D01*
X108898146Y-47724696D01*
X108840550Y-47611658D01*
X108840546Y-47611654D01*
X108840545Y-47611652D01*
X108750847Y-47521954D01*
X108750844Y-47521952D01*
X108750842Y-47521950D01*
X108674017Y-47482805D01*
X108637801Y-47464352D01*
X108544024Y-47449500D01*
X108544019Y-47449500D01*
X108072476Y-47449500D01*
X108072475Y-47449500D01*
X107927525Y-47449500D01*
X107927522Y-47449500D01*
X107455982Y-47449500D01*
X107375019Y-47462323D01*
X107362196Y-47464354D01*
X107249158Y-47521950D01*
X107249157Y-47521951D01*
X107249152Y-47521954D01*
X107159454Y-47611652D01*
X107159451Y-47611657D01*
X107101852Y-47724698D01*
X107087000Y-47818475D01*
X107087000Y-48181517D01*
X107097792Y-48249657D01*
X107101854Y-48275304D01*
X107159450Y-48388342D01*
X107159453Y-48388345D01*
X107165189Y-48396241D01*
X107163834Y-48397224D01*
X107191911Y-48448642D01*
X107186927Y-48518334D01*
X107179245Y-48535032D01*
X107170784Y-48550323D01*
X107159450Y-48561658D01*
X107101854Y-48674696D01*
X107101807Y-48674991D01*
X107099471Y-48679214D01*
X107076073Y-48702351D01*
X107053481Y-48726273D01*
X107051350Y-48726800D01*
X107049791Y-48728343D01*
X107017598Y-48735158D01*
X106985660Y-48743068D01*
X106983583Y-48742360D01*
X106981437Y-48742815D01*
X106950663Y-48731141D01*
X106919525Y-48720530D01*
X106918160Y-48718812D01*
X106916109Y-48718034D01*
X106896534Y-48691580D01*
X106876074Y-48665815D01*
X106874839Y-48662258D01*
X106874550Y-48661868D01*
X106874514Y-48661322D01*
X106871894Y-48653777D01*
X106838781Y-48539801D01*
X106755185Y-48398447D01*
X106755178Y-48398438D01*
X106669038Y-48312298D01*
X106635553Y-48250975D01*
X106634246Y-48205219D01*
X106638000Y-48181519D01*
X106637999Y-47818482D01*
X106623146Y-47724696D01*
X106565550Y-47611658D01*
X106565546Y-47611654D01*
X106565545Y-47611652D01*
X106475847Y-47521954D01*
X106475844Y-47521952D01*
X106475842Y-47521950D01*
X106399017Y-47482805D01*
X106362801Y-47464352D01*
X106269024Y-47449500D01*
X105180982Y-47449500D01*
X105100019Y-47462323D01*
X105087196Y-47464354D01*
X104974158Y-47521950D01*
X104974157Y-47521951D01*
X104974152Y-47521954D01*
X104882926Y-47613181D01*
X104821603Y-47646666D01*
X104795245Y-47649500D01*
X103546544Y-47649500D01*
X103479505Y-47629815D01*
X103458863Y-47613181D01*
X103286319Y-47440637D01*
X103264129Y-47400000D01*
X103750000Y-47400000D01*
X104097828Y-47400000D01*
X104097844Y-47399999D01*
X104157372Y-47393598D01*
X104157379Y-47393596D01*
X104292086Y-47343354D01*
X104292093Y-47343350D01*
X104407187Y-47257190D01*
X104407190Y-47257187D01*
X104493350Y-47142093D01*
X104493354Y-47142086D01*
X104543596Y-47007379D01*
X104543598Y-47007372D01*
X104549999Y-46947844D01*
X104550000Y-46947827D01*
X104550000Y-45900000D01*
X103750000Y-45900000D01*
X103750000Y-47400000D01*
X103264129Y-47400000D01*
X103252834Y-47379314D01*
X103250000Y-47352956D01*
X103250000Y-45900000D01*
X102450000Y-45900000D01*
X102450000Y-46304956D01*
X102430315Y-46371995D01*
X102377511Y-46417750D01*
X102308353Y-46427694D01*
X102244797Y-46398669D01*
X102238319Y-46392637D01*
X101836819Y-45991137D01*
X101803334Y-45929814D01*
X101800500Y-45903456D01*
X101800500Y-44375324D01*
X101800047Y-44373048D01*
X101800047Y-44373045D01*
X101800046Y-44373042D01*
X101795891Y-44352155D01*
X102450000Y-44352155D01*
X102450000Y-45400000D01*
X103250000Y-45400000D01*
X103250000Y-43900000D01*
X102902155Y-43900000D01*
X102842627Y-43906401D01*
X102842620Y-43906403D01*
X102707913Y-43956645D01*
X102707906Y-43956649D01*
X102592812Y-44042809D01*
X102592809Y-44042812D01*
X102506649Y-44157906D01*
X102506645Y-44157913D01*
X102456403Y-44292620D01*
X102456401Y-44292627D01*
X102450000Y-44352155D01*
X101795891Y-44352155D01*
X101785967Y-44302264D01*
X101785966Y-44302260D01*
X101783909Y-44299181D01*
X101730601Y-44219399D01*
X101647740Y-44164034D01*
X101647739Y-44164033D01*
X101647735Y-44164032D01*
X101574677Y-44149500D01*
X101574674Y-44149500D01*
X100425326Y-44149500D01*
X100425323Y-44149500D01*
X100352264Y-44164032D01*
X100352260Y-44164033D01*
X100269399Y-44219399D01*
X100214033Y-44302260D01*
X100214032Y-44302264D01*
X100199500Y-44375321D01*
X100199500Y-46754456D01*
X100193261Y-46775701D01*
X100191682Y-46797790D01*
X100183609Y-46808573D01*
X100179815Y-46821495D01*
X100163081Y-46835994D01*
X100149810Y-46853723D01*
X100137189Y-46858430D01*
X100127011Y-46867250D01*
X100105093Y-46870401D01*
X100084346Y-46878140D01*
X100071185Y-46875277D01*
X100057853Y-46877194D01*
X100037709Y-46867994D01*
X100016073Y-46863288D01*
X99998347Y-46850019D01*
X99994297Y-46848169D01*
X99987819Y-46842137D01*
X99836819Y-46691137D01*
X99803334Y-46629814D01*
X99800500Y-46603456D01*
X99800500Y-44375323D01*
X99800499Y-44375321D01*
X99785967Y-44302264D01*
X99785966Y-44302260D01*
X99783909Y-44299181D01*
X99730601Y-44219399D01*
X99647740Y-44164034D01*
X99647739Y-44164033D01*
X99647735Y-44164032D01*
X99574677Y-44149500D01*
X99574674Y-44149500D01*
X98425326Y-44149500D01*
X98425323Y-44149500D01*
X98352264Y-44164032D01*
X98352260Y-44164033D01*
X98269399Y-44219399D01*
X98214033Y-44302260D01*
X98214032Y-44302264D01*
X98199500Y-44375321D01*
X98199500Y-46376638D01*
X98179815Y-46443677D01*
X98127011Y-46489432D01*
X98057853Y-46499376D01*
X97994297Y-46470351D01*
X97987819Y-46464319D01*
X97436819Y-45913319D01*
X97403334Y-45851996D01*
X97400500Y-45825638D01*
X97400500Y-45561306D01*
X97400499Y-45561304D01*
X97365896Y-45387341D01*
X97365893Y-45387332D01*
X97309939Y-45252245D01*
X97300500Y-45204793D01*
X97300500Y-44375323D01*
X97300499Y-44375321D01*
X97285967Y-44302264D01*
X97285966Y-44302260D01*
X97283909Y-44299181D01*
X97230601Y-44219399D01*
X97147740Y-44164034D01*
X97147739Y-44164033D01*
X97147735Y-44164032D01*
X97074677Y-44149500D01*
X97074674Y-44149500D01*
X95925326Y-44149500D01*
X95863944Y-44161709D01*
X95794352Y-44155480D01*
X95739176Y-44112617D01*
X95715932Y-44046727D01*
X95717281Y-44020693D01*
X95750000Y-43814116D01*
X95750000Y-43150000D01*
X94750000Y-43150000D01*
X94750000Y-42821153D01*
X96899500Y-42821153D01*
X96899500Y-42978846D01*
X96930261Y-43133489D01*
X96930264Y-43133501D01*
X96990602Y-43279172D01*
X96990609Y-43279185D01*
X97078210Y-43410288D01*
X97078213Y-43410292D01*
X97189707Y-43521786D01*
X97189711Y-43521789D01*
X97320814Y-43609390D01*
X97320827Y-43609397D01*
X97466498Y-43669735D01*
X97466503Y-43669737D01*
X97621153Y-43700499D01*
X97621156Y-43700500D01*
X97621158Y-43700500D01*
X97778844Y-43700500D01*
X97778845Y-43700499D01*
X97933497Y-43669737D01*
X98079179Y-43609394D01*
X98210289Y-43521789D01*
X98321789Y-43410289D01*
X98409394Y-43279179D01*
X98469737Y-43133497D01*
X98500500Y-42978842D01*
X98500500Y-42821158D01*
X98500500Y-42821155D01*
X98500499Y-42821153D01*
X101499500Y-42821153D01*
X101499500Y-42978846D01*
X101530261Y-43133489D01*
X101530264Y-43133501D01*
X101590602Y-43279172D01*
X101590609Y-43279185D01*
X101678210Y-43410288D01*
X101678213Y-43410292D01*
X101789707Y-43521786D01*
X101789711Y-43521789D01*
X101920814Y-43609390D01*
X101920827Y-43609397D01*
X102066498Y-43669735D01*
X102066503Y-43669737D01*
X102221153Y-43700499D01*
X102221156Y-43700500D01*
X102221158Y-43700500D01*
X102378844Y-43700500D01*
X102378845Y-43700499D01*
X102533497Y-43669737D01*
X102679179Y-43609394D01*
X102810289Y-43521789D01*
X102921789Y-43410289D01*
X103009394Y-43279179D01*
X103069737Y-43133497D01*
X103100500Y-42978842D01*
X103100500Y-42821158D01*
X103100500Y-42821155D01*
X103100499Y-42821153D01*
X103072810Y-42681954D01*
X103069737Y-42666503D01*
X103043244Y-42602542D01*
X103009397Y-42520827D01*
X103009390Y-42520814D01*
X102921789Y-42389711D01*
X102921786Y-42389707D01*
X102810292Y-42278213D01*
X102810288Y-42278210D01*
X102679185Y-42190609D01*
X102679172Y-42190602D01*
X102533501Y-42130264D01*
X102533489Y-42130261D01*
X102378845Y-42099500D01*
X102378842Y-42099500D01*
X102221158Y-42099500D01*
X102221155Y-42099500D01*
X102066510Y-42130261D01*
X102066498Y-42130264D01*
X101920827Y-42190602D01*
X101920814Y-42190609D01*
X101789711Y-42278210D01*
X101789707Y-42278213D01*
X101678213Y-42389707D01*
X101678210Y-42389711D01*
X101590609Y-42520814D01*
X101590602Y-42520827D01*
X101530264Y-42666498D01*
X101530261Y-42666510D01*
X101499500Y-42821153D01*
X98500499Y-42821153D01*
X98472810Y-42681954D01*
X98469737Y-42666503D01*
X98443244Y-42602542D01*
X98409397Y-42520827D01*
X98409390Y-42520814D01*
X98321789Y-42389711D01*
X98321786Y-42389707D01*
X98210292Y-42278213D01*
X98210288Y-42278210D01*
X98079185Y-42190609D01*
X98079172Y-42190602D01*
X97933501Y-42130264D01*
X97933489Y-42130261D01*
X97778845Y-42099500D01*
X97778842Y-42099500D01*
X97621158Y-42099500D01*
X97621155Y-42099500D01*
X97466510Y-42130261D01*
X97466498Y-42130264D01*
X97320827Y-42190602D01*
X97320814Y-42190609D01*
X97189711Y-42278210D01*
X97189707Y-42278213D01*
X97078213Y-42389707D01*
X97078210Y-42389711D01*
X96990609Y-42520814D01*
X96990602Y-42520827D01*
X96930264Y-42666498D01*
X96930261Y-42666510D01*
X96899500Y-42821153D01*
X94750000Y-42821153D01*
X94750000Y-42650000D01*
X95750000Y-42650000D01*
X95750000Y-41985883D01*
X95714295Y-41760455D01*
X95643769Y-41543395D01*
X95540150Y-41340033D01*
X95405995Y-41155385D01*
X95244614Y-40994004D01*
X95059966Y-40859849D01*
X94856604Y-40756230D01*
X94814134Y-40742431D01*
X94756458Y-40702994D01*
X94729260Y-40638635D01*
X94741175Y-40569789D01*
X94788419Y-40518313D01*
X94852452Y-40500500D01*
X105147548Y-40500500D01*
X105214587Y-40520185D01*
X105260342Y-40572989D01*
X105270286Y-40642147D01*
X105241261Y-40705703D01*
X105185866Y-40742431D01*
X105143395Y-40756230D01*
X104940033Y-40859849D01*
X104755385Y-40994004D01*
X104594004Y-41155385D01*
X104459849Y-41340033D01*
X104356230Y-41543395D01*
X104285704Y-41760455D01*
X104250000Y-41985883D01*
X104250000Y-42650000D01*
X105250000Y-42650000D01*
X105250000Y-43150000D01*
X104250000Y-43150000D01*
X104250000Y-43778313D01*
X104230315Y-43845352D01*
X104177511Y-43891107D01*
X104112750Y-43901603D01*
X104097840Y-43900000D01*
X103750000Y-43900000D01*
X103750000Y-45400000D01*
X104550000Y-45400000D01*
X104550000Y-44899556D01*
X104569685Y-44832517D01*
X104622489Y-44786762D01*
X104691647Y-44776818D01*
X104751043Y-44803689D01*
X104751447Y-44803134D01*
X104754141Y-44805091D01*
X104754538Y-44805271D01*
X104755389Y-44805998D01*
X104940033Y-44940150D01*
X105143395Y-45043769D01*
X105360455Y-45114295D01*
X105450000Y-45128478D01*
X105450000Y-44075277D01*
X105526306Y-44119333D01*
X105640756Y-44150000D01*
X105759244Y-44150000D01*
X105873694Y-44119333D01*
X105950000Y-44075277D01*
X105950000Y-45128477D01*
X106039544Y-45114295D01*
X106256604Y-45043769D01*
X106459966Y-44940150D01*
X106644614Y-44805995D01*
X106805995Y-44644614D01*
X106940150Y-44459966D01*
X107043769Y-44256604D01*
X107114295Y-44039544D01*
X107150000Y-43814116D01*
X107150000Y-43150000D01*
X106150000Y-43150000D01*
X106150000Y-42650000D01*
X107150000Y-42650000D01*
X107150000Y-41985883D01*
X107114295Y-41760455D01*
X107043769Y-41543395D01*
X106940150Y-41340033D01*
X106805995Y-41155385D01*
X106644614Y-40994004D01*
X106459966Y-40859849D01*
X106256604Y-40756230D01*
X106214134Y-40742431D01*
X106156458Y-40702994D01*
X106129260Y-40638635D01*
X106141175Y-40569789D01*
X106188419Y-40518313D01*
X106252452Y-40500500D01*
X110375500Y-40500500D01*
X110442539Y-40520185D01*
X110488294Y-40572989D01*
X110499500Y-40624500D01*
X110499500Y-42338512D01*
X110479815Y-42405551D01*
X110427011Y-42451306D01*
X110357853Y-42461250D01*
X110294297Y-42432225D01*
X110265016Y-42394808D01*
X110199001Y-42265249D01*
X110069305Y-42086737D01*
X110069301Y-42086732D01*
X109913267Y-41930698D01*
X109913262Y-41930694D01*
X109734752Y-41801000D01*
X109734751Y-41800999D01*
X109734749Y-41800998D01*
X109614858Y-41739910D01*
X109538135Y-41700817D01*
X109328277Y-41632631D01*
X109110336Y-41598112D01*
X109110331Y-41598112D01*
X108889669Y-41598112D01*
X108889664Y-41598112D01*
X108671722Y-41632631D01*
X108461864Y-41700817D01*
X108265247Y-41801000D01*
X108086737Y-41930694D01*
X108086732Y-41930698D01*
X107930698Y-42086732D01*
X107930694Y-42086737D01*
X107801000Y-42265247D01*
X107700817Y-42461864D01*
X107632631Y-42671722D01*
X107598112Y-42889663D01*
X107598112Y-43110336D01*
X107632631Y-43328277D01*
X107700817Y-43538135D01*
X107739908Y-43614854D01*
X107767871Y-43669735D01*
X107801000Y-43734752D01*
X107930694Y-43913262D01*
X107930698Y-43913267D01*
X108086732Y-44069301D01*
X108086737Y-44069305D01*
X108242443Y-44182431D01*
X108265251Y-44199002D01*
X108448999Y-44292627D01*
X108461864Y-44299182D01*
X108566793Y-44333275D01*
X108671724Y-44367369D01*
X108772664Y-44383356D01*
X108889664Y-44401888D01*
X108889669Y-44401888D01*
X109110336Y-44401888D01*
X109215991Y-44385153D01*
X109328276Y-44367369D01*
X109538138Y-44299181D01*
X109734749Y-44199002D01*
X109913269Y-44069300D01*
X110069300Y-43913269D01*
X110199002Y-43734749D01*
X110265015Y-43605191D01*
X110312990Y-43554396D01*
X110380811Y-43537601D01*
X110446946Y-43560139D01*
X110490397Y-43614854D01*
X110499500Y-43661487D01*
X110499500Y-51174833D01*
X110479815Y-51241872D01*
X110427011Y-51287627D01*
X110357853Y-51297571D01*
X110294297Y-51268546D01*
X110287819Y-51262514D01*
X110202732Y-51177427D01*
X110202728Y-51177424D01*
X110058492Y-51088457D01*
X110058481Y-51088452D01*
X109897606Y-51035144D01*
X109798322Y-51025000D01*
X109775000Y-51025000D01*
X109775000Y-52974999D01*
X109798308Y-52974999D01*
X109798322Y-52974998D01*
X109897607Y-52964855D01*
X110058481Y-52911547D01*
X110058492Y-52911542D01*
X110202728Y-52822575D01*
X110202732Y-52822572D01*
X110287819Y-52737486D01*
X110349142Y-52704001D01*
X110418834Y-52708985D01*
X110474767Y-52750857D01*
X110499184Y-52816321D01*
X110499500Y-52825167D01*
X110499500Y-61443940D01*
X110479815Y-61510979D01*
X110427011Y-61556734D01*
X110357853Y-61566678D01*
X110294297Y-61537653D01*
X110276234Y-61518252D01*
X110257187Y-61492809D01*
X110142093Y-61406649D01*
X110142086Y-61406645D01*
X110007379Y-61356403D01*
X110007372Y-61356401D01*
X109947844Y-61350000D01*
X109750000Y-61350000D01*
X109750000Y-62126000D01*
X109730315Y-62193039D01*
X109677511Y-62238794D01*
X109626000Y-62250000D01*
X109374000Y-62250000D01*
X109306961Y-62230315D01*
X109261206Y-62177511D01*
X109250000Y-62126000D01*
X109250000Y-61350000D01*
X109052155Y-61350000D01*
X108992627Y-61356401D01*
X108992620Y-61356403D01*
X108857913Y-61406645D01*
X108857906Y-61406649D01*
X108742814Y-61492808D01*
X108742809Y-61492813D01*
X108700141Y-61549811D01*
X108644207Y-61591682D01*
X108600874Y-61599500D01*
X108225323Y-61599500D01*
X108152264Y-61614032D01*
X108152261Y-61614033D01*
X108093889Y-61653035D01*
X108027211Y-61673911D01*
X107959831Y-61655425D01*
X107956111Y-61653035D01*
X107906612Y-61619962D01*
X107897740Y-61614034D01*
X107897739Y-61614033D01*
X107897738Y-61614033D01*
X107897735Y-61614032D01*
X107824677Y-61599500D01*
X107824674Y-61599500D01*
X107375326Y-61599500D01*
X107375323Y-61599500D01*
X107302264Y-61614032D01*
X107302261Y-61614033D01*
X107243889Y-61653035D01*
X107177211Y-61673911D01*
X107109831Y-61655425D01*
X107106111Y-61653035D01*
X107056612Y-61619962D01*
X107047740Y-61614034D01*
X107047739Y-61614033D01*
X107047738Y-61614033D01*
X107047735Y-61614032D01*
X106974677Y-61599500D01*
X106974674Y-61599500D01*
X106525326Y-61599500D01*
X106525323Y-61599500D01*
X106452264Y-61614032D01*
X106452261Y-61614033D01*
X106393889Y-61653035D01*
X106327211Y-61673911D01*
X106259831Y-61655425D01*
X106256111Y-61653035D01*
X106206612Y-61619962D01*
X106197740Y-61614034D01*
X106197739Y-61614033D01*
X106197738Y-61614033D01*
X106197735Y-61614032D01*
X106124677Y-61599500D01*
X106124674Y-61599500D01*
X105675326Y-61599500D01*
X105675323Y-61599500D01*
X105602264Y-61614032D01*
X105602261Y-61614033D01*
X105543889Y-61653035D01*
X105477211Y-61673911D01*
X105409831Y-61655425D01*
X105406111Y-61653035D01*
X105356612Y-61619962D01*
X105347740Y-61614034D01*
X105347739Y-61614033D01*
X105347738Y-61614033D01*
X105347735Y-61614032D01*
X105274677Y-61599500D01*
X105274674Y-61599500D01*
X104825326Y-61599500D01*
X104825323Y-61599500D01*
X104752264Y-61614032D01*
X104752261Y-61614033D01*
X104693889Y-61653035D01*
X104627211Y-61673911D01*
X104559831Y-61655425D01*
X104556111Y-61653035D01*
X104506612Y-61619962D01*
X104497740Y-61614034D01*
X104497739Y-61614033D01*
X104497738Y-61614033D01*
X104497735Y-61614032D01*
X104424677Y-61599500D01*
X104424674Y-61599500D01*
X103975326Y-61599500D01*
X103975323Y-61599500D01*
X103902264Y-61614032D01*
X103902261Y-61614033D01*
X103843889Y-61653035D01*
X103777211Y-61673911D01*
X103709831Y-61655425D01*
X103706111Y-61653035D01*
X103656612Y-61619962D01*
X103647740Y-61614034D01*
X103647739Y-61614033D01*
X103647738Y-61614033D01*
X103647735Y-61614032D01*
X103574677Y-61599500D01*
X103574674Y-61599500D01*
X103125326Y-61599500D01*
X103125323Y-61599500D01*
X103052264Y-61614032D01*
X103052261Y-61614033D01*
X102993889Y-61653035D01*
X102927211Y-61673911D01*
X102859831Y-61655425D01*
X102856111Y-61653035D01*
X102806612Y-61619962D01*
X102797740Y-61614034D01*
X102797739Y-61614033D01*
X102797738Y-61614033D01*
X102797735Y-61614032D01*
X102724677Y-61599500D01*
X102724674Y-61599500D01*
X102275326Y-61599500D01*
X102275323Y-61599500D01*
X102202264Y-61614032D01*
X102202261Y-61614033D01*
X102143889Y-61653035D01*
X102077211Y-61673911D01*
X102009831Y-61655425D01*
X102006111Y-61653035D01*
X101956612Y-61619962D01*
X101947740Y-61614034D01*
X101947739Y-61614033D01*
X101947738Y-61614033D01*
X101947735Y-61614032D01*
X101874677Y-61599500D01*
X101874674Y-61599500D01*
X101425326Y-61599500D01*
X101425323Y-61599500D01*
X101352264Y-61614032D01*
X101352261Y-61614033D01*
X101293889Y-61653035D01*
X101227211Y-61673911D01*
X101159831Y-61655425D01*
X101156111Y-61653035D01*
X101106612Y-61619962D01*
X101097740Y-61614034D01*
X101097739Y-61614033D01*
X101097738Y-61614033D01*
X101097735Y-61614032D01*
X101024677Y-61599500D01*
X101024674Y-61599500D01*
X100575326Y-61599500D01*
X100575323Y-61599500D01*
X100502264Y-61614032D01*
X100502261Y-61614033D01*
X100443889Y-61653035D01*
X100377211Y-61673911D01*
X100309831Y-61655425D01*
X100306111Y-61653035D01*
X100256612Y-61619962D01*
X100247740Y-61614034D01*
X100247739Y-61614033D01*
X100247738Y-61614033D01*
X100247735Y-61614032D01*
X100174677Y-61599500D01*
X100174674Y-61599500D01*
X99799126Y-61599500D01*
X99732087Y-61579815D01*
X99699859Y-61549811D01*
X99657190Y-61492813D01*
X99657185Y-61492808D01*
X99542093Y-61406649D01*
X99542086Y-61406645D01*
X99407379Y-61356403D01*
X99407372Y-61356401D01*
X99347844Y-61350000D01*
X99300000Y-61350000D01*
X99300000Y-63150000D01*
X99347828Y-63150000D01*
X99347844Y-63149999D01*
X99407372Y-63143598D01*
X99407379Y-63143596D01*
X99542086Y-63093354D01*
X99542093Y-63093350D01*
X99657185Y-63007191D01*
X99657190Y-63007186D01*
X99699859Y-62950189D01*
X99755793Y-62908318D01*
X99799126Y-62900500D01*
X100174676Y-62900500D01*
X100174677Y-62900499D01*
X100247740Y-62885966D01*
X100306111Y-62846964D01*
X100372787Y-62826087D01*
X100440167Y-62844572D01*
X100443861Y-62846946D01*
X100502260Y-62885966D01*
X100502262Y-62885966D01*
X100502264Y-62885967D01*
X100575321Y-62900499D01*
X100575324Y-62900500D01*
X100575326Y-62900500D01*
X101024676Y-62900500D01*
X101024677Y-62900499D01*
X101097740Y-62885966D01*
X101156111Y-62846964D01*
X101222787Y-62826087D01*
X101290167Y-62844572D01*
X101293861Y-62846946D01*
X101352260Y-62885966D01*
X101352262Y-62885966D01*
X101352264Y-62885967D01*
X101425321Y-62900499D01*
X101425324Y-62900500D01*
X101425326Y-62900500D01*
X101874676Y-62900500D01*
X101874677Y-62900499D01*
X101947740Y-62885966D01*
X102006111Y-62846964D01*
X102072787Y-62826087D01*
X102140167Y-62844572D01*
X102143861Y-62846946D01*
X102202260Y-62885966D01*
X102202262Y-62885966D01*
X102202264Y-62885967D01*
X102275321Y-62900499D01*
X102275324Y-62900500D01*
X102275326Y-62900500D01*
X102724676Y-62900500D01*
X102724677Y-62900499D01*
X102797740Y-62885966D01*
X102856111Y-62846964D01*
X102922787Y-62826087D01*
X102990167Y-62844572D01*
X102993861Y-62846946D01*
X103052260Y-62885966D01*
X103052262Y-62885966D01*
X103052264Y-62885967D01*
X103125321Y-62900499D01*
X103125324Y-62900500D01*
X103125326Y-62900500D01*
X103574676Y-62900500D01*
X103574677Y-62900499D01*
X103647740Y-62885966D01*
X103706111Y-62846964D01*
X103772787Y-62826087D01*
X103840167Y-62844572D01*
X103843861Y-62846946D01*
X103902260Y-62885966D01*
X103902262Y-62885966D01*
X103902264Y-62885967D01*
X103975321Y-62900499D01*
X103975324Y-62900500D01*
X103975326Y-62900500D01*
X104424676Y-62900500D01*
X104424677Y-62900499D01*
X104497740Y-62885966D01*
X104556111Y-62846964D01*
X104622787Y-62826087D01*
X104690167Y-62844572D01*
X104693861Y-62846946D01*
X104752260Y-62885966D01*
X104752262Y-62885966D01*
X104752264Y-62885967D01*
X104825321Y-62900499D01*
X104825324Y-62900500D01*
X104825326Y-62900500D01*
X105274676Y-62900500D01*
X105274677Y-62900499D01*
X105347740Y-62885966D01*
X105406111Y-62846964D01*
X105472787Y-62826087D01*
X105540167Y-62844572D01*
X105543861Y-62846946D01*
X105602260Y-62885966D01*
X105602262Y-62885966D01*
X105602264Y-62885967D01*
X105675321Y-62900499D01*
X105675324Y-62900500D01*
X105675326Y-62900500D01*
X106124676Y-62900500D01*
X106124677Y-62900499D01*
X106197740Y-62885966D01*
X106256111Y-62846964D01*
X106322787Y-62826087D01*
X106390167Y-62844572D01*
X106393861Y-62846946D01*
X106452260Y-62885966D01*
X106452262Y-62885966D01*
X106452264Y-62885967D01*
X106525321Y-62900499D01*
X106525324Y-62900500D01*
X106525326Y-62900500D01*
X106974676Y-62900500D01*
X106974677Y-62900499D01*
X107047740Y-62885966D01*
X107106111Y-62846964D01*
X107172787Y-62826087D01*
X107240167Y-62844572D01*
X107243861Y-62846946D01*
X107302260Y-62885966D01*
X107302262Y-62885966D01*
X107302264Y-62885967D01*
X107375321Y-62900499D01*
X107375324Y-62900500D01*
X107375326Y-62900500D01*
X107824676Y-62900500D01*
X107824677Y-62900499D01*
X107897740Y-62885966D01*
X107956111Y-62846964D01*
X108022787Y-62826087D01*
X108090167Y-62844572D01*
X108093861Y-62846946D01*
X108152260Y-62885966D01*
X108152262Y-62885966D01*
X108152264Y-62885967D01*
X108225321Y-62900499D01*
X108225324Y-62900500D01*
X108600874Y-62900500D01*
X108667913Y-62920185D01*
X108688555Y-62936818D01*
X108813181Y-63061443D01*
X108825846Y-63084637D01*
X108841682Y-63105792D01*
X108843796Y-63117510D01*
X108846666Y-63122766D01*
X108846120Y-63130393D01*
X108849500Y-63149125D01*
X108849500Y-63524678D01*
X108864032Y-63597735D01*
X108864033Y-63597738D01*
X108903035Y-63656111D01*
X108923911Y-63722789D01*
X108905425Y-63790169D01*
X108903035Y-63793889D01*
X108864033Y-63852261D01*
X108864032Y-63852264D01*
X108849500Y-63925321D01*
X108849500Y-64374678D01*
X108864032Y-64447735D01*
X108864033Y-64447738D01*
X108903035Y-64506111D01*
X108923911Y-64572789D01*
X108905425Y-64640169D01*
X108903035Y-64643889D01*
X108864033Y-64702261D01*
X108864032Y-64702264D01*
X108849500Y-64775321D01*
X108849500Y-65224678D01*
X108864032Y-65297735D01*
X108864033Y-65297738D01*
X108903035Y-65356111D01*
X108923911Y-65422789D01*
X108905425Y-65490169D01*
X108903035Y-65493889D01*
X108864033Y-65552261D01*
X108864032Y-65552264D01*
X108849500Y-65625321D01*
X108849500Y-66074678D01*
X108864032Y-66147735D01*
X108864033Y-66147738D01*
X108903035Y-66206111D01*
X108923911Y-66272789D01*
X108905425Y-66340169D01*
X108903035Y-66343889D01*
X108864033Y-66402261D01*
X108864032Y-66402264D01*
X108849500Y-66475321D01*
X108849500Y-66924678D01*
X108864032Y-66997735D01*
X108864033Y-66997738D01*
X108903035Y-67056111D01*
X108923911Y-67122789D01*
X108905425Y-67190169D01*
X108903035Y-67193889D01*
X108864033Y-67252261D01*
X108864032Y-67252264D01*
X108849500Y-67325321D01*
X108849500Y-67774678D01*
X108864032Y-67847735D01*
X108864033Y-67847738D01*
X108903035Y-67906111D01*
X108923911Y-67972789D01*
X108905425Y-68040169D01*
X108903035Y-68043889D01*
X108864033Y-68102261D01*
X108864032Y-68102264D01*
X108849500Y-68175321D01*
X108849500Y-68624678D01*
X108864032Y-68697735D01*
X108864033Y-68697738D01*
X108903035Y-68756111D01*
X108923911Y-68822789D01*
X108905425Y-68890169D01*
X108903035Y-68893889D01*
X108864033Y-68952261D01*
X108864032Y-68952264D01*
X108849500Y-69025321D01*
X108849500Y-69474678D01*
X108864032Y-69547735D01*
X108864033Y-69547738D01*
X108903035Y-69606111D01*
X108923911Y-69672789D01*
X108905425Y-69740169D01*
X108903035Y-69743889D01*
X108864033Y-69802261D01*
X108864032Y-69802264D01*
X108849500Y-69875321D01*
X108849500Y-70324678D01*
X108864032Y-70397735D01*
X108864033Y-70397738D01*
X108903035Y-70456111D01*
X108923911Y-70522789D01*
X108905425Y-70590169D01*
X108903035Y-70593889D01*
X108864033Y-70652261D01*
X108864032Y-70652264D01*
X108849500Y-70725321D01*
X108849500Y-71174678D01*
X108864032Y-71247735D01*
X108864033Y-71247738D01*
X108903035Y-71306111D01*
X108923911Y-71372789D01*
X108905425Y-71440169D01*
X108903035Y-71443889D01*
X108864033Y-71502261D01*
X108864032Y-71502264D01*
X108849500Y-71575321D01*
X108849500Y-72024678D01*
X108864032Y-72097735D01*
X108864033Y-72097738D01*
X108903035Y-72156111D01*
X108923911Y-72222789D01*
X108905425Y-72290169D01*
X108903035Y-72293889D01*
X108864033Y-72352261D01*
X108864032Y-72352264D01*
X108849500Y-72425321D01*
X108849500Y-72874678D01*
X108864032Y-72947735D01*
X108864033Y-72947738D01*
X108903035Y-73006111D01*
X108923911Y-73072789D01*
X108905425Y-73140169D01*
X108903035Y-73143889D01*
X108864033Y-73202261D01*
X108864032Y-73202264D01*
X108849500Y-73275321D01*
X108849500Y-73724678D01*
X108864032Y-73797735D01*
X108864033Y-73797738D01*
X108903035Y-73856111D01*
X108923911Y-73922789D01*
X108905425Y-73990169D01*
X108903035Y-73993889D01*
X108864033Y-74052261D01*
X108864032Y-74052264D01*
X108849500Y-74125321D01*
X108849500Y-74574678D01*
X108864032Y-74647735D01*
X108864033Y-74647738D01*
X108903035Y-74706111D01*
X108923911Y-74772789D01*
X108905425Y-74840169D01*
X108903035Y-74843889D01*
X108864033Y-74902261D01*
X108864032Y-74902264D01*
X108849500Y-74975321D01*
X108849500Y-75350873D01*
X108829815Y-75417912D01*
X108813182Y-75438554D01*
X108688556Y-75563181D01*
X108665361Y-75575846D01*
X108644207Y-75591682D01*
X108632488Y-75593796D01*
X108627233Y-75596666D01*
X108619605Y-75596120D01*
X108600874Y-75599500D01*
X108225323Y-75599500D01*
X108152264Y-75614032D01*
X108152261Y-75614033D01*
X108093889Y-75653035D01*
X108027211Y-75673911D01*
X107959831Y-75655425D01*
X107956111Y-75653035D01*
X107919024Y-75628255D01*
X107897740Y-75614034D01*
X107897739Y-75614033D01*
X107897738Y-75614033D01*
X107897735Y-75614032D01*
X107824677Y-75599500D01*
X107824674Y-75599500D01*
X107375326Y-75599500D01*
X107375323Y-75599500D01*
X107302264Y-75614032D01*
X107302261Y-75614033D01*
X107243889Y-75653035D01*
X107177211Y-75673911D01*
X107109831Y-75655425D01*
X107106111Y-75653035D01*
X107069024Y-75628255D01*
X107047740Y-75614034D01*
X107047739Y-75614033D01*
X107047738Y-75614033D01*
X107047735Y-75614032D01*
X106974677Y-75599500D01*
X106974674Y-75599500D01*
X106525326Y-75599500D01*
X106525323Y-75599500D01*
X106452264Y-75614032D01*
X106452261Y-75614033D01*
X106393889Y-75653035D01*
X106327211Y-75673911D01*
X106259831Y-75655425D01*
X106256111Y-75653035D01*
X106219024Y-75628255D01*
X106197740Y-75614034D01*
X106197739Y-75614033D01*
X106197738Y-75614033D01*
X106197735Y-75614032D01*
X106124677Y-75599500D01*
X106124674Y-75599500D01*
X105675326Y-75599500D01*
X105675323Y-75599500D01*
X105602264Y-75614032D01*
X105602261Y-75614033D01*
X105543889Y-75653035D01*
X105477211Y-75673911D01*
X105409831Y-75655425D01*
X105406111Y-75653035D01*
X105369024Y-75628255D01*
X105347740Y-75614034D01*
X105347739Y-75614033D01*
X105347738Y-75614033D01*
X105347735Y-75614032D01*
X105274677Y-75599500D01*
X105274674Y-75599500D01*
X104825326Y-75599500D01*
X104825323Y-75599500D01*
X104752264Y-75614032D01*
X104752261Y-75614033D01*
X104693889Y-75653035D01*
X104627211Y-75673911D01*
X104559831Y-75655425D01*
X104556111Y-75653035D01*
X104519024Y-75628255D01*
X104497740Y-75614034D01*
X104497739Y-75614033D01*
X104497738Y-75614033D01*
X104497735Y-75614032D01*
X104424677Y-75599500D01*
X104424674Y-75599500D01*
X103975326Y-75599500D01*
X103975323Y-75599500D01*
X103902264Y-75614032D01*
X103902261Y-75614033D01*
X103843889Y-75653035D01*
X103777211Y-75673911D01*
X103709831Y-75655425D01*
X103706111Y-75653035D01*
X103669024Y-75628255D01*
X103647740Y-75614034D01*
X103647739Y-75614033D01*
X103647738Y-75614033D01*
X103647735Y-75614032D01*
X103574677Y-75599500D01*
X103574674Y-75599500D01*
X103125326Y-75599500D01*
X103125323Y-75599500D01*
X103052264Y-75614032D01*
X103052261Y-75614033D01*
X102993889Y-75653035D01*
X102927211Y-75673911D01*
X102859831Y-75655425D01*
X102856111Y-75653035D01*
X102819024Y-75628255D01*
X102797740Y-75614034D01*
X102797739Y-75614033D01*
X102797738Y-75614033D01*
X102797735Y-75614032D01*
X102724677Y-75599500D01*
X102724674Y-75599500D01*
X102275326Y-75599500D01*
X102275323Y-75599500D01*
X102202264Y-75614032D01*
X102202261Y-75614033D01*
X102143889Y-75653035D01*
X102077211Y-75673911D01*
X102009831Y-75655425D01*
X102006111Y-75653035D01*
X101969024Y-75628255D01*
X101947740Y-75614034D01*
X101947739Y-75614033D01*
X101947738Y-75614033D01*
X101947735Y-75614032D01*
X101874677Y-75599500D01*
X101874674Y-75599500D01*
X101425326Y-75599500D01*
X101425323Y-75599500D01*
X101352264Y-75614032D01*
X101352261Y-75614033D01*
X101293889Y-75653035D01*
X101227211Y-75673911D01*
X101159831Y-75655425D01*
X101156111Y-75653035D01*
X101119024Y-75628255D01*
X101097740Y-75614034D01*
X101097739Y-75614033D01*
X101097738Y-75614033D01*
X101097735Y-75614032D01*
X101024677Y-75599500D01*
X101024674Y-75599500D01*
X100575326Y-75599500D01*
X100575323Y-75599500D01*
X100502264Y-75614032D01*
X100502261Y-75614033D01*
X100443889Y-75653035D01*
X100377211Y-75673911D01*
X100309831Y-75655425D01*
X100306111Y-75653035D01*
X100269024Y-75628255D01*
X100247740Y-75614034D01*
X100247739Y-75614033D01*
X100247738Y-75614033D01*
X100247735Y-75614032D01*
X100174677Y-75599500D01*
X100174674Y-75599500D01*
X99725326Y-75599500D01*
X99725323Y-75599500D01*
X99652264Y-75614032D01*
X99652261Y-75614033D01*
X99593889Y-75653035D01*
X99527211Y-75673911D01*
X99459831Y-75655425D01*
X99456111Y-75653035D01*
X99419024Y-75628255D01*
X99397740Y-75614034D01*
X99397739Y-75614033D01*
X99397738Y-75614033D01*
X99397735Y-75614032D01*
X99324677Y-75599500D01*
X99324674Y-75599500D01*
X98875326Y-75599500D01*
X98875323Y-75599500D01*
X98802264Y-75614032D01*
X98802261Y-75614033D01*
X98743889Y-75653035D01*
X98677211Y-75673911D01*
X98609831Y-75655425D01*
X98606111Y-75653035D01*
X98569024Y-75628255D01*
X98547740Y-75614034D01*
X98547739Y-75614033D01*
X98547738Y-75614033D01*
X98547735Y-75614032D01*
X98474677Y-75599500D01*
X98474674Y-75599500D01*
X98099126Y-75599500D01*
X98032087Y-75579815D01*
X97999859Y-75549811D01*
X97957190Y-75492813D01*
X97957185Y-75492808D01*
X97842093Y-75406649D01*
X97842086Y-75406645D01*
X97707379Y-75356403D01*
X97707372Y-75356401D01*
X97647844Y-75350000D01*
X97600000Y-75350000D01*
X97600000Y-77150000D01*
X97647828Y-77150000D01*
X97647844Y-77149999D01*
X97707372Y-77143598D01*
X97707377Y-77143597D01*
X97732164Y-77134352D01*
X97762776Y-77132161D01*
X97793147Y-77127795D01*
X97797300Y-77129691D01*
X97801856Y-77129366D01*
X97828791Y-77144073D01*
X97856703Y-77156820D01*
X97859171Y-77160661D01*
X97863180Y-77162850D01*
X97877887Y-77189784D01*
X97894477Y-77215598D01*
X97895368Y-77221796D01*
X97896666Y-77224173D01*
X97899500Y-77250533D01*
X97899500Y-77400500D01*
X97879815Y-77467539D01*
X97827011Y-77513294D01*
X97775500Y-77524500D01*
X97402130Y-77524500D01*
X97402123Y-77524501D01*
X97342516Y-77530908D01*
X97207671Y-77581202D01*
X97207664Y-77581206D01*
X97092455Y-77667452D01*
X97092452Y-77667455D01*
X97006206Y-77782664D01*
X97006201Y-77782674D01*
X96998817Y-77802471D01*
X96956945Y-77858404D01*
X96891480Y-77882820D01*
X96823207Y-77867967D01*
X96773803Y-77818561D01*
X96764930Y-77798140D01*
X96734358Y-77705880D01*
X96734356Y-77705875D01*
X96642315Y-77556654D01*
X96518345Y-77432684D01*
X96372857Y-77342946D01*
X96326132Y-77290998D01*
X96314911Y-77222035D01*
X96342754Y-77157953D01*
X96350000Y-77150024D01*
X96350000Y-77150000D01*
X96750000Y-77150000D01*
X96797828Y-77150000D01*
X96797844Y-77149999D01*
X96857371Y-77143598D01*
X96931666Y-77115888D01*
X97001358Y-77110904D01*
X97018334Y-77115888D01*
X97092628Y-77143598D01*
X97092627Y-77143598D01*
X97152155Y-77149999D01*
X97152172Y-77150000D01*
X97200000Y-77150000D01*
X97200000Y-76450000D01*
X96750000Y-76450000D01*
X96750000Y-77150000D01*
X96350000Y-77150000D01*
X96350000Y-76500000D01*
X95750000Y-76500000D01*
X95750000Y-77145000D01*
X95838500Y-77145000D01*
X95905539Y-77164685D01*
X95951294Y-77217489D01*
X95962500Y-77269000D01*
X95962500Y-79395000D01*
X96013500Y-79395000D01*
X96080539Y-79414685D01*
X96126294Y-79467489D01*
X96137500Y-79519000D01*
X96137500Y-81474999D01*
X96236640Y-81474999D01*
X96236654Y-81474998D01*
X96337652Y-81464680D01*
X96501300Y-81410453D01*
X96501311Y-81410448D01*
X96648034Y-81319947D01*
X96648038Y-81319944D01*
X96769945Y-81198037D01*
X96807204Y-81137631D01*
X96859152Y-81090906D01*
X96928114Y-81079683D01*
X96987052Y-81103460D01*
X97076222Y-81170212D01*
X97168594Y-81204665D01*
X97207700Y-81219251D01*
X97265809Y-81225499D01*
X97265826Y-81225500D01*
X97959174Y-81225500D01*
X97959190Y-81225499D01*
X98017299Y-81219251D01*
X98148778Y-81170212D01*
X98261116Y-81086116D01*
X98345212Y-80973778D01*
X98345214Y-80973773D01*
X98361105Y-80931168D01*
X98402976Y-80875234D01*
X98450481Y-80853432D01*
X98463723Y-80850500D01*
X98526144Y-80850500D01*
X98615288Y-80826614D01*
X98625912Y-80820480D01*
X98695212Y-80780470D01*
X100019273Y-79456407D01*
X100080594Y-79422924D01*
X100150285Y-79427908D01*
X100154397Y-79429525D01*
X100253795Y-79470698D01*
X100380082Y-79495818D01*
X100403615Y-79500499D01*
X100403619Y-79500500D01*
X100403620Y-79500500D01*
X100556381Y-79500500D01*
X100556382Y-79500499D01*
X100706205Y-79470698D01*
X100847337Y-79412239D01*
X100847344Y-79412233D01*
X100852710Y-79409367D01*
X100853336Y-79410538D01*
X100913502Y-79391689D01*
X100980886Y-79410163D01*
X101003417Y-79427988D01*
X101096596Y-79521167D01*
X101096600Y-79521170D01*
X101264473Y-79633340D01*
X101264486Y-79633347D01*
X101451016Y-79710609D01*
X101451025Y-79710612D01*
X101500000Y-79720353D01*
X101500000Y-78780330D01*
X101519745Y-78800075D01*
X101605255Y-78849444D01*
X101700630Y-78875000D01*
X101799370Y-78875000D01*
X101894745Y-78849444D01*
X101980255Y-78800075D01*
X102000000Y-78780330D01*
X102000000Y-79720352D01*
X102048974Y-79710612D01*
X102048983Y-79710609D01*
X102235513Y-79633347D01*
X102235526Y-79633340D01*
X102403059Y-79521398D01*
X102469736Y-79500520D01*
X102471950Y-79500500D01*
X103569676Y-79500500D01*
X103569677Y-79500499D01*
X103642740Y-79485966D01*
X103725601Y-79430601D01*
X103780966Y-79347740D01*
X103795500Y-79274674D01*
X103795500Y-77725326D01*
X103795500Y-77725323D01*
X103795499Y-77725321D01*
X103780967Y-77652264D01*
X103780966Y-77652260D01*
X103746390Y-77600513D01*
X103725601Y-77569399D01*
X103642740Y-77514034D01*
X103642739Y-77514033D01*
X103642735Y-77514032D01*
X103569677Y-77499500D01*
X103569674Y-77499500D01*
X102791544Y-77499500D01*
X102724505Y-77479815D01*
X102703863Y-77463181D01*
X102352863Y-77112181D01*
X102319378Y-77050858D01*
X102324362Y-76981166D01*
X102366234Y-76925233D01*
X102431698Y-76900816D01*
X102440544Y-76900500D01*
X102724676Y-76900500D01*
X102724677Y-76900499D01*
X102797740Y-76885966D01*
X102856111Y-76846964D01*
X102922787Y-76826087D01*
X102990167Y-76844572D01*
X102993861Y-76846946D01*
X103052260Y-76885966D01*
X103052262Y-76885966D01*
X103052264Y-76885967D01*
X103125321Y-76900499D01*
X103125324Y-76900500D01*
X103125326Y-76900500D01*
X103574676Y-76900500D01*
X103574677Y-76900499D01*
X103647740Y-76885966D01*
X103706111Y-76846964D01*
X103772787Y-76826087D01*
X103840167Y-76844572D01*
X103843861Y-76846946D01*
X103902260Y-76885966D01*
X103902262Y-76885966D01*
X103902264Y-76885967D01*
X103975321Y-76900499D01*
X103975324Y-76900500D01*
X103975326Y-76900500D01*
X104424676Y-76900500D01*
X104424677Y-76900499D01*
X104497740Y-76885966D01*
X104497743Y-76885964D01*
X104506610Y-76880040D01*
X104573287Y-76859162D01*
X104640667Y-76877647D01*
X104687357Y-76929626D01*
X104699500Y-76983142D01*
X104699500Y-80866144D01*
X104708700Y-80900480D01*
X104708706Y-80900501D01*
X104723385Y-80955287D01*
X104769527Y-81035208D01*
X104769531Y-81035213D01*
X107451347Y-83717029D01*
X107484832Y-83778352D01*
X107481597Y-83843028D01*
X107426597Y-84012301D01*
X107399500Y-84183389D01*
X107399500Y-84356611D01*
X107426598Y-84527701D01*
X107478992Y-84688953D01*
X107480128Y-84692447D01*
X107558767Y-84846787D01*
X107578259Y-84873615D01*
X107601738Y-84939422D01*
X107585912Y-85007475D01*
X107535806Y-85056170D01*
X107477940Y-85070500D01*
X106782856Y-85070500D01*
X106693712Y-85094386D01*
X106693709Y-85094387D01*
X106613791Y-85140527D01*
X106613786Y-85140531D01*
X104891137Y-86863181D01*
X104829814Y-86896666D01*
X104803456Y-86899500D01*
X98674500Y-86899500D01*
X98607461Y-86879815D01*
X98561706Y-86827011D01*
X98550500Y-86775500D01*
X98550500Y-86425323D01*
X98550499Y-86425321D01*
X98535967Y-86352264D01*
X98535966Y-86352260D01*
X98507729Y-86310000D01*
X98480601Y-86269399D01*
X98397740Y-86214034D01*
X98397739Y-86214033D01*
X98397735Y-86214032D01*
X98324677Y-86199500D01*
X98324674Y-86199500D01*
X97425326Y-86199500D01*
X97425323Y-86199500D01*
X97352264Y-86214032D01*
X97352260Y-86214033D01*
X97269399Y-86269399D01*
X97214033Y-86352260D01*
X97214032Y-86352264D01*
X97199500Y-86425321D01*
X97199500Y-87529456D01*
X97193261Y-87550701D01*
X97191682Y-87572790D01*
X97183609Y-87583573D01*
X97179815Y-87596495D01*
X97163081Y-87610994D01*
X97149810Y-87628723D01*
X97137189Y-87633430D01*
X97127011Y-87642250D01*
X97105093Y-87645401D01*
X97084346Y-87653140D01*
X97071185Y-87650277D01*
X97057853Y-87652194D01*
X97037709Y-87642994D01*
X97016073Y-87638288D01*
X96998347Y-87625019D01*
X96994297Y-87623169D01*
X96987819Y-87617137D01*
X96836819Y-87466137D01*
X96803334Y-87404814D01*
X96800500Y-87378456D01*
X96800500Y-86425323D01*
X96800499Y-86425321D01*
X96785967Y-86352264D01*
X96785966Y-86352260D01*
X96757729Y-86310000D01*
X96730601Y-86269399D01*
X96647740Y-86214034D01*
X96647739Y-86214033D01*
X96647735Y-86214032D01*
X96574677Y-86199500D01*
X96574674Y-86199500D01*
X95675326Y-86199500D01*
X95675323Y-86199500D01*
X95602264Y-86214032D01*
X95602260Y-86214033D01*
X95519399Y-86269399D01*
X95464033Y-86352260D01*
X95464032Y-86352264D01*
X95449500Y-86425321D01*
X95449500Y-88074678D01*
X95464032Y-88147735D01*
X95464033Y-88147739D01*
X95464034Y-88147740D01*
X95519399Y-88230601D01*
X95591742Y-88278938D01*
X95602260Y-88285966D01*
X95602264Y-88285967D01*
X95675321Y-88300499D01*
X95675324Y-88300500D01*
X95675326Y-88300500D01*
X96574674Y-88300500D01*
X96597366Y-88295986D01*
X96666957Y-88302212D01*
X96709240Y-88329922D01*
X97010788Y-88631470D01*
X97090712Y-88677614D01*
X97179856Y-88701500D01*
X97179858Y-88701500D01*
X109647142Y-88701500D01*
X109647144Y-88701500D01*
X109736288Y-88677614D01*
X109816212Y-88631470D01*
X110287819Y-88159863D01*
X110349142Y-88126378D01*
X110418834Y-88131362D01*
X110474767Y-88173234D01*
X110499184Y-88238698D01*
X110499500Y-88247544D01*
X110499500Y-89375500D01*
X110479815Y-89442539D01*
X110427011Y-89488294D01*
X110375500Y-89499500D01*
X94824000Y-89499500D01*
X94756961Y-89479815D01*
X94711206Y-89427011D01*
X94700000Y-89375500D01*
X94700000Y-84597844D01*
X95200000Y-84597844D01*
X95206401Y-84657372D01*
X95206403Y-84657379D01*
X95256645Y-84792086D01*
X95256649Y-84792093D01*
X95342809Y-84907187D01*
X95342812Y-84907190D01*
X95457906Y-84993350D01*
X95457913Y-84993354D01*
X95592620Y-85043596D01*
X95592627Y-85043598D01*
X95652155Y-85049999D01*
X95652172Y-85050000D01*
X95875000Y-85050000D01*
X96375000Y-85050000D01*
X96597828Y-85050000D01*
X96597844Y-85049999D01*
X96657372Y-85043598D01*
X96657379Y-85043596D01*
X96792086Y-84993354D01*
X96792093Y-84993350D01*
X96907187Y-84907190D01*
X96907190Y-84907187D01*
X96993350Y-84792093D01*
X96993355Y-84792084D01*
X97022287Y-84714512D01*
X97064157Y-84658578D01*
X97129621Y-84634160D01*
X97197894Y-84649011D01*
X97241571Y-84688953D01*
X97269398Y-84730600D01*
X97352260Y-84785966D01*
X97352264Y-84785967D01*
X97425321Y-84800499D01*
X97425324Y-84800500D01*
X97425326Y-84800500D01*
X98324676Y-84800500D01*
X98324677Y-84800499D01*
X98397740Y-84785966D01*
X98480601Y-84730601D01*
X98535966Y-84647740D01*
X98550500Y-84574674D01*
X98550500Y-82925326D01*
X98550500Y-82925323D01*
X98550499Y-82925321D01*
X98535967Y-82852264D01*
X98535966Y-82852260D01*
X98480601Y-82769399D01*
X98397740Y-82714034D01*
X98397739Y-82714033D01*
X98397735Y-82714032D01*
X98324677Y-82699500D01*
X98324674Y-82699500D01*
X97425326Y-82699500D01*
X97425323Y-82699500D01*
X97352264Y-82714032D01*
X97352260Y-82714033D01*
X97269399Y-82769399D01*
X97241571Y-82811047D01*
X97187958Y-82855851D01*
X97118633Y-82864558D01*
X97055606Y-82834403D01*
X97022287Y-82785487D01*
X96993355Y-82707915D01*
X96993350Y-82707906D01*
X96907190Y-82592812D01*
X96907187Y-82592809D01*
X96792093Y-82506649D01*
X96792086Y-82506645D01*
X96657379Y-82456403D01*
X96657372Y-82456401D01*
X96597844Y-82450000D01*
X96375000Y-82450000D01*
X96375000Y-85050000D01*
X95875000Y-85050000D01*
X95875000Y-84000000D01*
X95200000Y-84000000D01*
X95200000Y-84597844D01*
X94700000Y-84597844D01*
X94700000Y-82902155D01*
X95200000Y-82902155D01*
X95200000Y-83500000D01*
X95875000Y-83500000D01*
X95875000Y-82450000D01*
X95652155Y-82450000D01*
X95592627Y-82456401D01*
X95592620Y-82456403D01*
X95457913Y-82506645D01*
X95457906Y-82506649D01*
X95342812Y-82592809D01*
X95342809Y-82592812D01*
X95256649Y-82707906D01*
X95256645Y-82707913D01*
X95206403Y-82842620D01*
X95206401Y-82842627D01*
X95200000Y-82902155D01*
X94700000Y-82902155D01*
X94700000Y-81140704D01*
X94719685Y-81073665D01*
X94772489Y-81027910D01*
X94841647Y-81017966D01*
X94905203Y-81046991D01*
X94929539Y-81075607D01*
X95005056Y-81198039D01*
X95126961Y-81319944D01*
X95126965Y-81319947D01*
X95273688Y-81410448D01*
X95273699Y-81410453D01*
X95437347Y-81464680D01*
X95538351Y-81474999D01*
X95637500Y-81474998D01*
X95637500Y-79855000D01*
X95586500Y-79855000D01*
X95519461Y-79835315D01*
X95473706Y-79782511D01*
X95462500Y-79731000D01*
X95462500Y-77280000D01*
X95374000Y-77280000D01*
X95306961Y-77260315D01*
X95261206Y-77207511D01*
X95250000Y-77156000D01*
X95250000Y-76050000D01*
X96750000Y-76050000D01*
X97200000Y-76050000D01*
X97200000Y-75350000D01*
X97152155Y-75350000D01*
X97092627Y-75356401D01*
X97092617Y-75356403D01*
X97018332Y-75384110D01*
X96948641Y-75389094D01*
X96931668Y-75384110D01*
X96857382Y-75356403D01*
X96857372Y-75356401D01*
X96797844Y-75350000D01*
X96750000Y-75350000D01*
X96750000Y-76050000D01*
X95250000Y-76050000D01*
X95250000Y-76000000D01*
X95750000Y-76000000D01*
X96350000Y-76000000D01*
X96350000Y-75400000D01*
X95750000Y-75400000D01*
X95750000Y-76000000D01*
X95250000Y-76000000D01*
X95250000Y-75321362D01*
X95269685Y-75254323D01*
X95286319Y-75233681D01*
X95300000Y-75220000D01*
X95300000Y-75000000D01*
X95700000Y-75000000D01*
X96400000Y-75000000D01*
X96400000Y-74952172D01*
X96399999Y-74952155D01*
X96393598Y-74892628D01*
X96365888Y-74818334D01*
X96360904Y-74748642D01*
X96365888Y-74731666D01*
X96393598Y-74657371D01*
X96399999Y-74597844D01*
X96400000Y-74597827D01*
X96400000Y-74550000D01*
X95700000Y-74550000D01*
X95700000Y-75000000D01*
X95300000Y-75000000D01*
X95300000Y-74150000D01*
X95700000Y-74150000D01*
X96400000Y-74150000D01*
X96400000Y-74102172D01*
X96399999Y-74102155D01*
X96393598Y-74042628D01*
X96365888Y-73968334D01*
X96360904Y-73898642D01*
X96365888Y-73881666D01*
X96393598Y-73807371D01*
X96399999Y-73747844D01*
X96400000Y-73747827D01*
X96400000Y-73700000D01*
X95700000Y-73700000D01*
X95700000Y-74150000D01*
X95300000Y-74150000D01*
X95300000Y-73300000D01*
X95700000Y-73300000D01*
X96400000Y-73300000D01*
X96400000Y-73252172D01*
X96399999Y-73252155D01*
X96393598Y-73192628D01*
X96365888Y-73118334D01*
X96360904Y-73048642D01*
X96365888Y-73031666D01*
X96393598Y-72957371D01*
X96399999Y-72897844D01*
X96400000Y-72897827D01*
X96400000Y-72850000D01*
X95700000Y-72850000D01*
X95700000Y-73300000D01*
X95300000Y-73300000D01*
X95300000Y-72450000D01*
X95700000Y-72450000D01*
X96400000Y-72450000D01*
X96400000Y-72402172D01*
X96399999Y-72402155D01*
X96393598Y-72342628D01*
X96365888Y-72268334D01*
X96360904Y-72198642D01*
X96365888Y-72181666D01*
X96393598Y-72107371D01*
X96399999Y-72047844D01*
X96400000Y-72047827D01*
X96400000Y-72000000D01*
X95700000Y-72000000D01*
X95700000Y-72450000D01*
X95300000Y-72450000D01*
X95300000Y-71600000D01*
X95700000Y-71600000D01*
X96400000Y-71600000D01*
X96400000Y-71552172D01*
X96399999Y-71552155D01*
X96393598Y-71492628D01*
X96365888Y-71418334D01*
X96360904Y-71348642D01*
X96365888Y-71331666D01*
X96393598Y-71257371D01*
X96399999Y-71197844D01*
X96400000Y-71197827D01*
X96400000Y-71150000D01*
X95700000Y-71150000D01*
X95700000Y-71600000D01*
X95300000Y-71600000D01*
X95300000Y-70750000D01*
X95700000Y-70750000D01*
X96400000Y-70750000D01*
X96400000Y-70702172D01*
X96399999Y-70702155D01*
X96393598Y-70642628D01*
X96365888Y-70568334D01*
X96360904Y-70498642D01*
X96365888Y-70481666D01*
X96393598Y-70407371D01*
X96399999Y-70347844D01*
X96400000Y-70347827D01*
X96400000Y-70300000D01*
X95700000Y-70300000D01*
X95700000Y-70750000D01*
X95300000Y-70750000D01*
X95300000Y-69900000D01*
X95700000Y-69900000D01*
X96400000Y-69900000D01*
X96400000Y-69852172D01*
X96399999Y-69852155D01*
X96393598Y-69792628D01*
X96365888Y-69718334D01*
X96360904Y-69648642D01*
X96365888Y-69631666D01*
X96393598Y-69557371D01*
X96399999Y-69497844D01*
X96400000Y-69497827D01*
X96400000Y-69450000D01*
X95700000Y-69450000D01*
X95700000Y-69900000D01*
X95300000Y-69900000D01*
X95300000Y-69050000D01*
X95700000Y-69050000D01*
X96400000Y-69050000D01*
X96400000Y-69002172D01*
X96399999Y-69002155D01*
X96393598Y-68942628D01*
X96365888Y-68868334D01*
X96360904Y-68798642D01*
X96365888Y-68781666D01*
X96393598Y-68707371D01*
X96399999Y-68647844D01*
X96400000Y-68647827D01*
X96400000Y-68600000D01*
X95700000Y-68600000D01*
X95700000Y-69050000D01*
X95300000Y-69050000D01*
X95300000Y-68200000D01*
X95700000Y-68200000D01*
X96400000Y-68200000D01*
X96400000Y-68152172D01*
X96399999Y-68152155D01*
X96393598Y-68092628D01*
X96365888Y-68018334D01*
X96360904Y-67948642D01*
X96365888Y-67931666D01*
X96393598Y-67857371D01*
X96399999Y-67797844D01*
X96400000Y-67797827D01*
X96400000Y-67750000D01*
X95700000Y-67750000D01*
X95700000Y-68200000D01*
X95300000Y-68200000D01*
X95300000Y-67350000D01*
X95700000Y-67350000D01*
X96400000Y-67350000D01*
X96400000Y-67302172D01*
X96399999Y-67302155D01*
X96393598Y-67242628D01*
X96365888Y-67168334D01*
X96360904Y-67098642D01*
X96365888Y-67081666D01*
X96393598Y-67007371D01*
X96399999Y-66947844D01*
X96400000Y-66947827D01*
X96400000Y-66900000D01*
X95700000Y-66900000D01*
X95700000Y-67350000D01*
X95300000Y-67350000D01*
X95300000Y-66500000D01*
X95700000Y-66500000D01*
X96400000Y-66500000D01*
X96400000Y-66452172D01*
X96399999Y-66452155D01*
X96393598Y-66392628D01*
X96365888Y-66318334D01*
X96360904Y-66248642D01*
X96365888Y-66231666D01*
X96393598Y-66157371D01*
X96399999Y-66097844D01*
X96400000Y-66097827D01*
X96400000Y-66050000D01*
X95700000Y-66050000D01*
X95700000Y-66500000D01*
X95300000Y-66500000D01*
X95300000Y-65650000D01*
X95700000Y-65650000D01*
X96400000Y-65650000D01*
X96400000Y-65602172D01*
X96399999Y-65602155D01*
X96393598Y-65542628D01*
X96365888Y-65468334D01*
X96360904Y-65398642D01*
X96365888Y-65381666D01*
X96393598Y-65307371D01*
X96399999Y-65247844D01*
X96400000Y-65247827D01*
X96400000Y-65200000D01*
X95700000Y-65200000D01*
X95700000Y-65650000D01*
X95300000Y-65650000D01*
X95300000Y-64800000D01*
X95700000Y-64800000D01*
X96400000Y-64800000D01*
X96400000Y-64752172D01*
X96399999Y-64752155D01*
X96393598Y-64692628D01*
X96365888Y-64618334D01*
X96360904Y-64548642D01*
X96365888Y-64531666D01*
X96393598Y-64457371D01*
X96399999Y-64397844D01*
X96400000Y-64397827D01*
X96400000Y-64350000D01*
X95700000Y-64350000D01*
X95700000Y-64800000D01*
X95300000Y-64800000D01*
X95300000Y-63950000D01*
X95700000Y-63950000D01*
X96400000Y-63950000D01*
X96400000Y-63902172D01*
X96399999Y-63902155D01*
X96393598Y-63842628D01*
X96365888Y-63768334D01*
X96360904Y-63698642D01*
X96365888Y-63681666D01*
X96393598Y-63607371D01*
X96399999Y-63547844D01*
X96400000Y-63547827D01*
X96400000Y-63500000D01*
X95700000Y-63500000D01*
X95700000Y-63950000D01*
X95300000Y-63950000D01*
X95300000Y-63280000D01*
X95286319Y-63266319D01*
X95252834Y-63204996D01*
X95250000Y-63178638D01*
X95250000Y-61378371D01*
X95750000Y-61378371D01*
X95750000Y-63100000D01*
X96400000Y-63100000D01*
X96400000Y-63052172D01*
X96399999Y-63052171D01*
X96398450Y-63037755D01*
X96410856Y-62968996D01*
X96458466Y-62917858D01*
X96521740Y-62900500D01*
X96774676Y-62900500D01*
X96774677Y-62900499D01*
X96847740Y-62885966D01*
X96906111Y-62846964D01*
X96972787Y-62826087D01*
X97040167Y-62844572D01*
X97043861Y-62846946D01*
X97102260Y-62885966D01*
X97102262Y-62885966D01*
X97102264Y-62885967D01*
X97175321Y-62900499D01*
X97175324Y-62900500D01*
X97550874Y-62900500D01*
X97617913Y-62920185D01*
X97650141Y-62950189D01*
X97692809Y-63007186D01*
X97692814Y-63007191D01*
X97807906Y-63093350D01*
X97807913Y-63093354D01*
X97942620Y-63143596D01*
X97942627Y-63143598D01*
X98002155Y-63149999D01*
X98002172Y-63150000D01*
X98050000Y-63150000D01*
X98450000Y-63150000D01*
X98497828Y-63150000D01*
X98497844Y-63149999D01*
X98557371Y-63143598D01*
X98631666Y-63115888D01*
X98701358Y-63110904D01*
X98718334Y-63115888D01*
X98792628Y-63143598D01*
X98792627Y-63143598D01*
X98852155Y-63149999D01*
X98852172Y-63150000D01*
X98900000Y-63150000D01*
X98900000Y-62450000D01*
X98450000Y-62450000D01*
X98450000Y-63150000D01*
X98050000Y-63150000D01*
X98050000Y-62050000D01*
X98450000Y-62050000D01*
X98900000Y-62050000D01*
X98900000Y-61350000D01*
X98852155Y-61350000D01*
X98792627Y-61356401D01*
X98792617Y-61356403D01*
X98718332Y-61384110D01*
X98648641Y-61389094D01*
X98631668Y-61384110D01*
X98557382Y-61356403D01*
X98557372Y-61356401D01*
X98497844Y-61350000D01*
X98450000Y-61350000D01*
X98450000Y-62050000D01*
X98050000Y-62050000D01*
X98050000Y-61350000D01*
X98002155Y-61350000D01*
X97942627Y-61356401D01*
X97942620Y-61356403D01*
X97807913Y-61406645D01*
X97807906Y-61406649D01*
X97692814Y-61492808D01*
X97692809Y-61492813D01*
X97650141Y-61549811D01*
X97594207Y-61591682D01*
X97550874Y-61599500D01*
X97175323Y-61599500D01*
X97102264Y-61614032D01*
X97102258Y-61614034D01*
X97093387Y-61619962D01*
X97026708Y-61640837D01*
X96959329Y-61622350D01*
X96912641Y-61570369D01*
X96900500Y-61516857D01*
X96900500Y-61259044D01*
X96909144Y-61229603D01*
X96915668Y-61199617D01*
X96919422Y-61194601D01*
X96920185Y-61192005D01*
X96936819Y-61171363D01*
X97096363Y-61011819D01*
X97157686Y-60978334D01*
X97184044Y-60975500D01*
X97709174Y-60975500D01*
X97709190Y-60975499D01*
X97767299Y-60969251D01*
X97898778Y-60920212D01*
X98011116Y-60836116D01*
X98095212Y-60723778D01*
X98111105Y-60681168D01*
X98124373Y-60663442D01*
X98133574Y-60643297D01*
X98144906Y-60636014D01*
X98152976Y-60625234D01*
X98173721Y-60617495D01*
X98192352Y-60605523D01*
X98214269Y-60602371D01*
X98218440Y-60600816D01*
X98227287Y-60600500D01*
X98272713Y-60600500D01*
X98339752Y-60620185D01*
X98385507Y-60672989D01*
X98388895Y-60681168D01*
X98404785Y-60723773D01*
X98404787Y-60723777D01*
X98404788Y-60723778D01*
X98488884Y-60836116D01*
X98601222Y-60920212D01*
X98693594Y-60954665D01*
X98732700Y-60969251D01*
X98790809Y-60975499D01*
X98790826Y-60975500D01*
X99384174Y-60975500D01*
X99384190Y-60975499D01*
X99442299Y-60969251D01*
X99573778Y-60920212D01*
X99686116Y-60836116D01*
X99770212Y-60723778D01*
X99819251Y-60592299D01*
X99825499Y-60534190D01*
X99825500Y-60534173D01*
X99825500Y-59965826D01*
X99825499Y-59965809D01*
X99819251Y-59907700D01*
X99800230Y-59856703D01*
X99770212Y-59776222D01*
X99767921Y-59773162D01*
X99732109Y-59725323D01*
X99686116Y-59663884D01*
X99617301Y-59612369D01*
X99573780Y-59579789D01*
X99573778Y-59579788D01*
X99545924Y-59569399D01*
X99442299Y-59530748D01*
X99384190Y-59524500D01*
X99384174Y-59524500D01*
X98790826Y-59524500D01*
X98790809Y-59524500D01*
X98732700Y-59530748D01*
X98601219Y-59579789D01*
X98488884Y-59663884D01*
X98404787Y-59776222D01*
X98404785Y-59776226D01*
X98388895Y-59818832D01*
X98375626Y-59836557D01*
X98366426Y-59856703D01*
X98355093Y-59863985D01*
X98347024Y-59874766D01*
X98326278Y-59882504D01*
X98307648Y-59894477D01*
X98285730Y-59897628D01*
X98281560Y-59899184D01*
X98272713Y-59899500D01*
X98227287Y-59899500D01*
X98160248Y-59879815D01*
X98114493Y-59827011D01*
X98111105Y-59818832D01*
X98095214Y-59776226D01*
X98095212Y-59776222D01*
X98057109Y-59725323D01*
X98011116Y-59663884D01*
X97942301Y-59612369D01*
X97898780Y-59579789D01*
X97898778Y-59579788D01*
X97870924Y-59569399D01*
X97767299Y-59530748D01*
X97709190Y-59524500D01*
X97709174Y-59524500D01*
X97015826Y-59524500D01*
X97015809Y-59524500D01*
X96957700Y-59530748D01*
X96826219Y-59579789D01*
X96737054Y-59646539D01*
X96671590Y-59670956D01*
X96603317Y-59656104D01*
X96557204Y-59612369D01*
X96519943Y-59551960D01*
X96398038Y-59430055D01*
X96398034Y-59430052D01*
X96251311Y-59339551D01*
X96251300Y-59339546D01*
X96087652Y-59285319D01*
X95986654Y-59275000D01*
X95887500Y-59275000D01*
X95887500Y-61231000D01*
X95867815Y-61298039D01*
X95821421Y-61340641D01*
X95750000Y-61378371D01*
X95250000Y-61378371D01*
X95250000Y-61344000D01*
X95269685Y-61276961D01*
X95322489Y-61231206D01*
X95329591Y-61228225D01*
X95387500Y-61206012D01*
X95387500Y-59274999D01*
X95288360Y-59275000D01*
X95288344Y-59275001D01*
X95187347Y-59285319D01*
X95023699Y-59339546D01*
X95023688Y-59339551D01*
X94889097Y-59422569D01*
X94821705Y-59441010D01*
X94755041Y-59420088D01*
X94710271Y-59366446D01*
X94700000Y-59317031D01*
X94700000Y-58881225D01*
X94719685Y-58814186D01*
X94772489Y-58768431D01*
X94841647Y-58758487D01*
X94905203Y-58787512D01*
X94923267Y-58806915D01*
X94942454Y-58832546D01*
X94942455Y-58832547D01*
X95057664Y-58918793D01*
X95057671Y-58918797D01*
X95102618Y-58935561D01*
X95192517Y-58969091D01*
X95252127Y-58975500D01*
X95847872Y-58975499D01*
X95907483Y-58969091D01*
X96042331Y-58918796D01*
X96157546Y-58832546D01*
X96243796Y-58717331D01*
X96251180Y-58697532D01*
X96293050Y-58641598D01*
X96358514Y-58617179D01*
X96426787Y-58632029D01*
X96476194Y-58681433D01*
X96485069Y-58701859D01*
X96515641Y-58794119D01*
X96515643Y-58794124D01*
X96607684Y-58943345D01*
X96731654Y-59067315D01*
X96880875Y-59159356D01*
X96880880Y-59159358D01*
X97047302Y-59214505D01*
X97047309Y-59214506D01*
X97150019Y-59224999D01*
X97700000Y-59224999D01*
X97749972Y-59224999D01*
X97749986Y-59224998D01*
X97852697Y-59214505D01*
X98019119Y-59159358D01*
X98019124Y-59159356D01*
X98168345Y-59067315D01*
X98187319Y-59048342D01*
X98248642Y-59014857D01*
X98318334Y-59019841D01*
X98362681Y-59048342D01*
X98381654Y-59067315D01*
X98530875Y-59159356D01*
X98530880Y-59159358D01*
X98697302Y-59214505D01*
X98697309Y-59214506D01*
X98800019Y-59224999D01*
X98849999Y-59224998D01*
X98850000Y-59224998D01*
X98850000Y-58250000D01*
X97700000Y-58250000D01*
X97700000Y-59224999D01*
X97150019Y-59224999D01*
X97199999Y-59224998D01*
X97200000Y-59224998D01*
X97200000Y-56775000D01*
X97700000Y-56775000D01*
X97700000Y-57750000D01*
X98850000Y-57750000D01*
X98850000Y-56775000D01*
X98849999Y-56774999D01*
X98800029Y-56775000D01*
X98800011Y-56775001D01*
X98697302Y-56785494D01*
X98530880Y-56840641D01*
X98530875Y-56840643D01*
X98381654Y-56932684D01*
X98362681Y-56951658D01*
X98301358Y-56985143D01*
X98231666Y-56980159D01*
X98187319Y-56951658D01*
X98168345Y-56932684D01*
X98019124Y-56840643D01*
X98019119Y-56840641D01*
X97852697Y-56785494D01*
X97852690Y-56785493D01*
X97749986Y-56775000D01*
X97700000Y-56775000D01*
X97200000Y-56775000D01*
X97199999Y-56774999D01*
X97150029Y-56775000D01*
X97150011Y-56775001D01*
X97047302Y-56785494D01*
X96880880Y-56840641D01*
X96880875Y-56840643D01*
X96731654Y-56932684D01*
X96607684Y-57056654D01*
X96515643Y-57205875D01*
X96515642Y-57205878D01*
X96485069Y-57298141D01*
X96445296Y-57355585D01*
X96380780Y-57382408D01*
X96312004Y-57370093D01*
X96260804Y-57322549D01*
X96251181Y-57302468D01*
X96243798Y-57282673D01*
X96243793Y-57282664D01*
X96157547Y-57167455D01*
X96157544Y-57167452D01*
X96042334Y-57081205D01*
X96006164Y-57067714D01*
X95950231Y-57025841D01*
X95925816Y-56960376D01*
X95925500Y-56951533D01*
X95925500Y-56674499D01*
X95945185Y-56607460D01*
X95997989Y-56561705D01*
X96049500Y-56550499D01*
X96788150Y-56550499D01*
X96788162Y-56550499D01*
X96823627Y-56547709D01*
X96975390Y-56503618D01*
X97111420Y-56423170D01*
X97223170Y-56311420D01*
X97262072Y-56245639D01*
X97313141Y-56197957D01*
X97381882Y-56185453D01*
X97430801Y-56201373D01*
X97537515Y-56262984D01*
X97677525Y-56300500D01*
X97677528Y-56300500D01*
X97822472Y-56300500D01*
X97822475Y-56300500D01*
X97962485Y-56262984D01*
X98088015Y-56190509D01*
X98190509Y-56088015D01*
X98262984Y-55962485D01*
X98300500Y-55822475D01*
X98300500Y-55677525D01*
X98262984Y-55537515D01*
X98190509Y-55411985D01*
X98088015Y-55309491D01*
X98088013Y-55309490D01*
X98088011Y-55309488D01*
X97962488Y-55237017D01*
X97962489Y-55237017D01*
X97951006Y-55233940D01*
X97822475Y-55199500D01*
X97822472Y-55199500D01*
X97709061Y-55199500D01*
X97676968Y-55195275D01*
X97647186Y-55187295D01*
X97647184Y-55187294D01*
X97599436Y-55174500D01*
X97599435Y-55174500D01*
X97469035Y-55174500D01*
X97401996Y-55154815D01*
X97356241Y-55102011D01*
X97350042Y-55082293D01*
X97349477Y-55082458D01*
X97323221Y-54992086D01*
X97303618Y-54924610D01*
X97223170Y-54788580D01*
X97223168Y-54788578D01*
X97223165Y-54788574D01*
X97111425Y-54676834D01*
X97111416Y-54676827D01*
X96975390Y-54596382D01*
X96975385Y-54596380D01*
X96823633Y-54552292D01*
X96823620Y-54552290D01*
X96788163Y-54549500D01*
X95411849Y-54549500D01*
X95411824Y-54549501D01*
X95376372Y-54552291D01*
X95224614Y-54596380D01*
X95224609Y-54596382D01*
X95088583Y-54676827D01*
X95088574Y-54676834D01*
X94976834Y-54788574D01*
X94976827Y-54788583D01*
X94930732Y-54866527D01*
X94879663Y-54914211D01*
X94810921Y-54926714D01*
X94746332Y-54900069D01*
X94706402Y-54842733D01*
X94700000Y-54803406D01*
X94700000Y-53996593D01*
X94719685Y-53929554D01*
X94772489Y-53883799D01*
X94841647Y-53873855D01*
X94905203Y-53902880D01*
X94930732Y-53933472D01*
X94976828Y-54011417D01*
X94976834Y-54011425D01*
X95088574Y-54123165D01*
X95088578Y-54123168D01*
X95088580Y-54123170D01*
X95224610Y-54203618D01*
X95376373Y-54247709D01*
X95411837Y-54250500D01*
X96788162Y-54250499D01*
X96823627Y-54247709D01*
X96975390Y-54203618D01*
X97111420Y-54123170D01*
X97223170Y-54011420D01*
X97303618Y-53875390D01*
X97347709Y-53723627D01*
X97350500Y-53688163D01*
X97350499Y-52811838D01*
X97347709Y-52776373D01*
X97303618Y-52624610D01*
X97237415Y-52512667D01*
X97223172Y-52488583D01*
X97223165Y-52488574D01*
X97111425Y-52376834D01*
X97111417Y-52376828D01*
X97062737Y-52348039D01*
X97015054Y-52296970D01*
X97002550Y-52228229D01*
X97029195Y-52163639D01*
X97070764Y-52130219D01*
X97199022Y-52066609D01*
X97199025Y-52066607D01*
X97347366Y-51947367D01*
X97347367Y-51947366D01*
X97466607Y-51799025D01*
X97466609Y-51799022D01*
X97551168Y-51628523D01*
X97597102Y-51443824D01*
X97600000Y-51401096D01*
X97600000Y-51200000D01*
X96224000Y-51200000D01*
X96156961Y-51180315D01*
X96111206Y-51127511D01*
X96100000Y-51076000D01*
X96100000Y-50950000D01*
X95974000Y-50950000D01*
X95906961Y-50930315D01*
X95861206Y-50877511D01*
X95850000Y-50826000D01*
X95850000Y-50700000D01*
X96350000Y-50700000D01*
X97600000Y-50700000D01*
X97600000Y-50498903D01*
X97597102Y-50456175D01*
X97551168Y-50271476D01*
X97466609Y-50100977D01*
X97466607Y-50100974D01*
X97347367Y-49952633D01*
X97347366Y-49952632D01*
X97199025Y-49833392D01*
X97199022Y-49833390D01*
X97028523Y-49748831D01*
X96843824Y-49702897D01*
X96801097Y-49700000D01*
X96350000Y-49700000D01*
X96350000Y-50700000D01*
X95850000Y-50700000D01*
X95850000Y-49700000D01*
X95398903Y-49700000D01*
X95356175Y-49702897D01*
X95171476Y-49748831D01*
X95000977Y-49833390D01*
X95000974Y-49833392D01*
X94901687Y-49913202D01*
X94837103Y-49939861D01*
X94768359Y-49927370D01*
X94717280Y-49879697D01*
X94700000Y-49816555D01*
X94700000Y-46550000D01*
X89624500Y-46550000D01*
X89557461Y-46530315D01*
X89511706Y-46477511D01*
X89500500Y-46426000D01*
X89500500Y-43661487D01*
X89520185Y-43594448D01*
X89572989Y-43548693D01*
X89642147Y-43538749D01*
X89705703Y-43567774D01*
X89734984Y-43605191D01*
X89783547Y-43700500D01*
X89801000Y-43734752D01*
X89930694Y-43913262D01*
X89930698Y-43913267D01*
X90086732Y-44069301D01*
X90086737Y-44069305D01*
X90242443Y-44182431D01*
X90265251Y-44199002D01*
X90448999Y-44292627D01*
X90461864Y-44299182D01*
X90566793Y-44333275D01*
X90671724Y-44367369D01*
X90772664Y-44383356D01*
X90889664Y-44401888D01*
X90889669Y-44401888D01*
X91110336Y-44401888D01*
X91215991Y-44385153D01*
X91328276Y-44367369D01*
X91538138Y-44299181D01*
X91734749Y-44199002D01*
X91913269Y-44069300D01*
X92069300Y-43913269D01*
X92199002Y-43734749D01*
X92299181Y-43538138D01*
X92299356Y-43537601D01*
X92304494Y-43521786D01*
X92367369Y-43328276D01*
X92395065Y-43153413D01*
X92401888Y-43110336D01*
X92401888Y-42889663D01*
X92393145Y-42834464D01*
X92368989Y-42681954D01*
X92367369Y-42671724D01*
X92318336Y-42520814D01*
X92299182Y-42461864D01*
X92293802Y-42451306D01*
X92199002Y-42265251D01*
X92144772Y-42190609D01*
X92069305Y-42086737D01*
X92069301Y-42086732D01*
X91913267Y-41930698D01*
X91913262Y-41930694D01*
X91734752Y-41801000D01*
X91734751Y-41800999D01*
X91734749Y-41800998D01*
X91614858Y-41739910D01*
X91538135Y-41700817D01*
X91328277Y-41632631D01*
X91110336Y-41598112D01*
X91110331Y-41598112D01*
X90889669Y-41598112D01*
X90889664Y-41598112D01*
X90671722Y-41632631D01*
X90461864Y-41700817D01*
X90265247Y-41801000D01*
X90086737Y-41930694D01*
X90086732Y-41930698D01*
X89930698Y-42086732D01*
X89930694Y-42086737D01*
X89800998Y-42265249D01*
X89734984Y-42394808D01*
X89687010Y-42445603D01*
X89619189Y-42462398D01*
X89553054Y-42439860D01*
X89509603Y-42385145D01*
X89500500Y-42338512D01*
X89500500Y-40624500D01*
X89520185Y-40557461D01*
X89572989Y-40511706D01*
X89624500Y-40500500D01*
X93747548Y-40500500D01*
X93814587Y-40520185D01*
G37*
%TD.AperFunction*%
%TA.AperFunction,Conductor*%
G36*
X107409498Y-85791185D02*
G01*
X107455253Y-85843989D01*
X107465197Y-85913147D01*
X107442777Y-85968385D01*
X107345379Y-86102442D01*
X107248904Y-86291782D01*
X107183242Y-86493869D01*
X107183242Y-86493872D01*
X107150000Y-86703753D01*
X107150000Y-86916246D01*
X107183242Y-87126127D01*
X107183242Y-87126130D01*
X107248904Y-87328217D01*
X107345375Y-87517550D01*
X107384728Y-87571716D01*
X108017037Y-86939408D01*
X108034075Y-87002993D01*
X108099901Y-87117007D01*
X108192993Y-87210099D01*
X108307007Y-87275925D01*
X108370590Y-87292962D01*
X107699371Y-87964181D01*
X107638048Y-87997666D01*
X107611690Y-88000500D01*
X98674500Y-88000500D01*
X98665814Y-87997949D01*
X98656853Y-87999238D01*
X98632812Y-87988259D01*
X98607461Y-87980815D01*
X98601533Y-87973974D01*
X98593297Y-87970213D01*
X98579007Y-87947978D01*
X98561706Y-87928011D01*
X98559418Y-87917496D01*
X98555523Y-87911435D01*
X98550500Y-87876500D01*
X98550500Y-87724500D01*
X98570185Y-87657461D01*
X98622989Y-87611706D01*
X98674500Y-87600500D01*
X105046142Y-87600500D01*
X105046144Y-87600500D01*
X105135288Y-87576614D01*
X105215212Y-87530470D01*
X106937863Y-85807819D01*
X106999186Y-85774334D01*
X107025544Y-85771500D01*
X107342459Y-85771500D01*
X107409498Y-85791185D01*
G37*
%TD.AperFunction*%
%TA.AperFunction,Conductor*%
G36*
X109769834Y-85226121D02*
G01*
X109825767Y-85267993D01*
X109850184Y-85333457D01*
X109850500Y-85342303D01*
X109850500Y-85990414D01*
X109830815Y-86057453D01*
X109778011Y-86103208D01*
X109708853Y-86113152D01*
X109645297Y-86084127D01*
X109626182Y-86063299D01*
X109615271Y-86048282D01*
X109615269Y-86048282D01*
X108982962Y-86680590D01*
X108965925Y-86617007D01*
X108900099Y-86502993D01*
X108807007Y-86409901D01*
X108692993Y-86344075D01*
X108629408Y-86327037D01*
X109261715Y-85694729D01*
X109261604Y-85693312D01*
X109275967Y-85624934D01*
X109297535Y-85595906D01*
X109638819Y-85254621D01*
X109700142Y-85221137D01*
X109769834Y-85226121D01*
G37*
%TD.AperFunction*%
%TA.AperFunction,Conductor*%
G36*
X100440167Y-76844572D02*
G01*
X100443861Y-76846946D01*
X100502260Y-76885966D01*
X100502262Y-76885966D01*
X100502264Y-76885967D01*
X100575321Y-76900499D01*
X100575324Y-76900500D01*
X100575326Y-76900500D01*
X101024676Y-76900500D01*
X101024677Y-76900499D01*
X101097740Y-76885966D01*
X101110169Y-76877660D01*
X101176846Y-76856781D01*
X101244226Y-76875264D01*
X101290918Y-76927242D01*
X101298837Y-76948668D01*
X101299500Y-76951142D01*
X101299500Y-76951144D01*
X101314518Y-77007191D01*
X101323386Y-77040287D01*
X101323387Y-77040290D01*
X101369527Y-77120208D01*
X101369531Y-77120213D01*
X101381799Y-77132481D01*
X101415284Y-77193804D01*
X101410300Y-77263496D01*
X101368428Y-77319429D01*
X101341572Y-77334723D01*
X101264479Y-77366656D01*
X101264473Y-77366659D01*
X101096600Y-77478829D01*
X101096596Y-77478832D01*
X101003417Y-77572012D01*
X100942094Y-77605497D01*
X100872402Y-77600513D01*
X100852787Y-77590473D01*
X100852704Y-77590630D01*
X100847335Y-77587760D01*
X100706205Y-77529302D01*
X100706197Y-77529300D01*
X100556384Y-77499500D01*
X100556380Y-77499500D01*
X100403620Y-77499500D01*
X100403615Y-77499500D01*
X100253802Y-77529300D01*
X100253794Y-77529302D01*
X100112665Y-77587759D01*
X100112656Y-77587764D01*
X99985648Y-77672629D01*
X99985644Y-77672632D01*
X99877632Y-77780644D01*
X99877629Y-77780648D01*
X99792764Y-77907656D01*
X99792759Y-77907665D01*
X99734302Y-78048794D01*
X99734300Y-78048802D01*
X99704500Y-78198615D01*
X99704500Y-78728455D01*
X99684815Y-78795494D01*
X99668181Y-78816136D01*
X98494727Y-79989589D01*
X98433404Y-80023074D01*
X98363712Y-80018090D01*
X98320219Y-79990436D01*
X98313460Y-79983807D01*
X98261116Y-79913884D01*
X98181074Y-79853965D01*
X98175173Y-79848177D01*
X98161999Y-79824597D01*
X98145818Y-79802981D01*
X98143860Y-79792130D01*
X98141095Y-79787181D01*
X98141572Y-79779450D01*
X98138000Y-79759649D01*
X98138000Y-79589531D01*
X98157685Y-79522492D01*
X98210489Y-79476737D01*
X98228951Y-79470408D01*
X98232481Y-79469091D01*
X98232483Y-79469091D01*
X98367331Y-79418796D01*
X98482546Y-79332546D01*
X98568796Y-79217331D01*
X98619091Y-79082483D01*
X98625500Y-79022873D01*
X98625499Y-77977128D01*
X98619091Y-77917517D01*
X98608317Y-77888632D01*
X98600500Y-77845300D01*
X98600500Y-76983142D01*
X98620185Y-76916103D01*
X98672989Y-76870348D01*
X98742147Y-76860404D01*
X98793390Y-76880040D01*
X98802256Y-76885964D01*
X98802258Y-76885964D01*
X98802260Y-76885966D01*
X98802262Y-76885966D01*
X98802264Y-76885967D01*
X98875321Y-76900499D01*
X98875324Y-76900500D01*
X98875326Y-76900500D01*
X99324676Y-76900500D01*
X99324677Y-76900499D01*
X99397740Y-76885966D01*
X99456111Y-76846964D01*
X99522787Y-76826087D01*
X99590167Y-76844572D01*
X99593861Y-76846946D01*
X99652260Y-76885966D01*
X99652262Y-76885966D01*
X99652264Y-76885967D01*
X99725321Y-76900499D01*
X99725324Y-76900500D01*
X99725326Y-76900500D01*
X100174676Y-76900500D01*
X100174677Y-76900499D01*
X100247740Y-76885966D01*
X100306111Y-76846964D01*
X100372787Y-76826087D01*
X100440167Y-76844572D01*
G37*
%TD.AperFunction*%
%TA.AperFunction,Conductor*%
G36*
X109693039Y-76269685D02*
G01*
X109738794Y-76322489D01*
X109750000Y-76374000D01*
X109750000Y-77150000D01*
X109759768Y-77159768D01*
X109793539Y-77169685D01*
X109839294Y-77222489D01*
X109850500Y-77274000D01*
X109850500Y-79745456D01*
X109844261Y-79766701D01*
X109842682Y-79788790D01*
X109834609Y-79799573D01*
X109830815Y-79812495D01*
X109814081Y-79826994D01*
X109800810Y-79844723D01*
X109788189Y-79849430D01*
X109778011Y-79858250D01*
X109756093Y-79861401D01*
X109735346Y-79869140D01*
X109722185Y-79866277D01*
X109708853Y-79868194D01*
X109688709Y-79858994D01*
X109667073Y-79854288D01*
X109649347Y-79841019D01*
X109645297Y-79839169D01*
X109638819Y-79833137D01*
X109636819Y-79831137D01*
X109603334Y-79769814D01*
X109600500Y-79743456D01*
X109600500Y-78315323D01*
X109600499Y-78315321D01*
X109585967Y-78242264D01*
X109585966Y-78242260D01*
X109556807Y-78198620D01*
X109530601Y-78159399D01*
X109447740Y-78104034D01*
X109447739Y-78104033D01*
X109447735Y-78104032D01*
X109374677Y-78089500D01*
X109374674Y-78089500D01*
X107625326Y-78089500D01*
X107625323Y-78089500D01*
X107552264Y-78104032D01*
X107552260Y-78104033D01*
X107469399Y-78159399D01*
X107414033Y-78242260D01*
X107414032Y-78242264D01*
X107399500Y-78315321D01*
X107399500Y-79834456D01*
X107379815Y-79901495D01*
X107327011Y-79947250D01*
X107257853Y-79957194D01*
X107194297Y-79928169D01*
X107187819Y-79922137D01*
X106386819Y-79121137D01*
X106353334Y-79059814D01*
X106350500Y-79033456D01*
X106350500Y-77016819D01*
X106370185Y-76949780D01*
X106422989Y-76904025D01*
X106492147Y-76894081D01*
X106498677Y-76895199D01*
X106525326Y-76900500D01*
X106974676Y-76900500D01*
X106974677Y-76900499D01*
X107047740Y-76885966D01*
X107106111Y-76846964D01*
X107172787Y-76826087D01*
X107240167Y-76844572D01*
X107243861Y-76846946D01*
X107302260Y-76885966D01*
X107302262Y-76885966D01*
X107302264Y-76885967D01*
X107375321Y-76900499D01*
X107375324Y-76900500D01*
X107375326Y-76900500D01*
X107824676Y-76900500D01*
X107824677Y-76900499D01*
X107897740Y-76885966D01*
X107956111Y-76846964D01*
X108022787Y-76826087D01*
X108090167Y-76844572D01*
X108093861Y-76846946D01*
X108152260Y-76885966D01*
X108152262Y-76885966D01*
X108152264Y-76885967D01*
X108225321Y-76900499D01*
X108225324Y-76900500D01*
X108600874Y-76900500D01*
X108667913Y-76920185D01*
X108700141Y-76950189D01*
X108742809Y-77007186D01*
X108742814Y-77007191D01*
X108857906Y-77093350D01*
X108857913Y-77093354D01*
X108992620Y-77143596D01*
X108992627Y-77143598D01*
X109052155Y-77149999D01*
X109052172Y-77150000D01*
X109250000Y-77150000D01*
X109250000Y-76374000D01*
X109269685Y-76306961D01*
X109322489Y-76261206D01*
X109374000Y-76250000D01*
X109626000Y-76250000D01*
X109693039Y-76269685D01*
G37*
%TD.AperFunction*%
%TA.AperFunction,Conductor*%
G36*
X101914445Y-47060379D02*
G01*
X101919278Y-47064960D01*
X103134788Y-48280470D01*
X103204085Y-48320478D01*
X103204087Y-48320480D01*
X103211342Y-48324668D01*
X103214712Y-48326614D01*
X103303856Y-48350500D01*
X104505776Y-48350500D01*
X104572815Y-48370185D01*
X104618570Y-48422989D01*
X104628514Y-48492147D01*
X104614266Y-48532624D01*
X104614315Y-48532646D01*
X104614013Y-48533341D01*
X104612508Y-48537620D01*
X104611219Y-48539799D01*
X104565399Y-48697513D01*
X104565204Y-48699998D01*
X104565205Y-48700000D01*
X105601000Y-48700000D01*
X105668039Y-48719685D01*
X105713794Y-48772489D01*
X105725000Y-48824000D01*
X105725000Y-49076000D01*
X105705315Y-49143039D01*
X105652511Y-49188794D01*
X105601000Y-49200000D01*
X104565205Y-49200000D01*
X104565204Y-49200001D01*
X104565399Y-49202486D01*
X104611219Y-49360200D01*
X104612508Y-49362380D01*
X104612997Y-49364310D01*
X104614315Y-49367354D01*
X104613823Y-49367566D01*
X104629691Y-49430104D01*
X104607531Y-49496366D01*
X104553064Y-49540129D01*
X104505776Y-49549500D01*
X102746544Y-49549500D01*
X102679505Y-49529815D01*
X102658863Y-49513181D01*
X100507863Y-47362181D01*
X100474378Y-47300858D01*
X100479362Y-47231166D01*
X100521234Y-47175233D01*
X100586698Y-47150816D01*
X100595544Y-47150500D01*
X101574676Y-47150500D01*
X101574677Y-47150499D01*
X101647740Y-47135966D01*
X101730601Y-47080601D01*
X101730603Y-47080597D01*
X101739237Y-47071965D01*
X101740768Y-47073496D01*
X101782089Y-47038953D01*
X101851413Y-47030235D01*
X101914445Y-47060379D01*
G37*
%TD.AperFunction*%
%TD*%
M02*
