M48
; DRILL file {KiCad 9.0.5} date 2025-10-06T23:19:45+0200
; FORMAT={-:-/ absolute / metric / decimal}
; #@! TF.CreationDate,2025-10-06T23:19:45+02:00
; #@! TF.GenerationSoftware,Kicad,Pcbnew,9.0.5
; #@! TF.FileFunction,Plated,1,2,PTH
FMAT,2
METRIC
; #@! TA.AperFunction,Plated,PTH,ViaDrill
T1C0.300
; #@! TA.AperFunction,Plated,PTH,ComponentDrill
T2C0.600
; #@! TA.AperFunction,Plated,PTH,ComponentDrill
T3C0.900
%
G90
G05
T1
X91.1Y-70.65
X91.75Y-45.25
X92.125Y-83.875
X92.25Y-56.5
X92.25Y-57.5
X93.25Y-63.5
X93.5Y-69.75
X93.5Y-75.25
X93.5Y-79.75
X93.5Y-85.5
X93.75Y-66.75
X94.25Y-49.75
X95.5Y-56.5
X95.5Y-57.5
X96.5Y-49.65
X97.15Y-72.75
X98.0Y-72.75
X98.0Y-75.25
X98.0Y-83.0
X99.25Y-66.5
X99.337Y-57.5
X99.337Y-59.0
X99.35Y-63.275
X100.0Y-47.0
X101.0Y-83.0
X101.0Y-85.5
X101.15Y-66.5
X101.162Y-56.0
X101.25Y-63.275
X101.7Y-70.45
X102.0Y-77.5
X102.25Y-72.75
X102.5Y-53.0
X103.0Y-85.25
X104.0Y-59.5
X104.0Y-75.25
X104.25Y-65.959
X104.25Y-70.25
X104.253Y-66.759
X105.0Y-55.75
X105.0Y-79.75
X105.0Y-80.6
X105.0Y-81.45
X105.0Y-82.3
X106.115Y-58.037
X106.85Y-72.9
X106.85Y-78.737
X107.385Y-58.037
X107.75Y-82.5
X108.0Y-65.0
X108.0Y-74.5
X108.0Y-77.5
X108.25Y-46.75
X108.25Y-55.5
X108.655Y-58.037
T2
G00X92.9Y-52.5
M15
G01X92.1Y-52.5
M16
G05
G00X92.9Y-61.14
M15
G01X92.1Y-61.14
M16
G05
G00X97.23Y-52.5
M15
G01X96.13Y-52.5
M16
G05
G00X97.23Y-61.14
M15
G01X96.13Y-61.14
M16
G05
T3
G00X94.3Y-47.7
M15
G01X94.3Y-46.1
M16
G05
G00X105.7Y-47.7
M15
G01X105.7Y-46.1
M16
G05
M30
