M48
; DRILL file {KiCad 9.0.7} date 2026-02-09T14:49:59+0100
; FORMAT={-:-/ absolute / metric / decimal}
; #@! TF.CreationDate,2026-02-09T14:49:59+01:00
; #@! TF.GenerationSoftware,Kicad,Pcbnew,9.0.7
; #@! TF.FileFunction,Plated,1,2,PTH
FMAT,2
METRIC
; #@! TA.AperFunction,Plated,PTH,ViaDrill
T1C0.300
; #@! TA.AperFunction,Plated,PTH,ComponentDrill
T2C0.600
; #@! TA.AperFunction,Plated,PTH,ComponentDrill
T3C0.900
%
G90
G05
T1
X92.5Y-75.75
X94.0Y-59.25
X94.25Y-67.5
X96.75Y-71.0
X97.0Y-73.25
X100.25Y-65.0
X102.75Y-59.25
X103.0Y-62.5
X103.25Y-66.337
X103.75Y-72.0
X103.75Y-75.25
X104.75Y-68.162
X104.75Y-72.0
X104.75Y-75.25
X105.287Y-58.845
X105.287Y-60.115
X105.287Y-61.385
X106.25Y-68.162
X106.75Y-63.5
X110.525Y-66.25
X110.525Y-68.15
X110.75Y-74.25
X112.25Y-59.5
X113.209Y-63.25
X113.75Y-66.35
X113.75Y-68.25
X114.0Y-73.75
X114.009Y-63.247
X117.0Y-74.0
X117.5Y-63.25
X117.7Y-65.8
X117.9Y-76.4
X120.0Y-65.25
X120.0Y-69.5
X120.0Y-70.35
X120.15Y-60.65
X121.75Y-59.5
X122.5Y-63.5
X122.5Y-69.5
X122.5Y-74.0
X124.75Y-59.5
X124.75Y-65.5
X125.987Y-60.65
X127.0Y-62.5
X127.0Y-74.0
X127.85Y-62.5
X128.7Y-62.5
X129.55Y-62.5
X129.75Y-59.75
X130.25Y-66.5
X130.25Y-69.5
X131.125Y-75.375
X132.5Y-64.5
X132.75Y-66.5
X132.75Y-74.0
T2
G00X99.75Y-70.27
M15
G01X99.75Y-71.37
M16
G05
G00X99.75Y-74.6
M15
G01X99.75Y-75.4
M16
G05
G00X108.39Y-70.27
M15
G01X108.39Y-71.37
M16
G05
G00X108.39Y-74.6
M15
G01X108.39Y-75.4
M16
G05
T3
G00X94.8Y-61.8
M15
G01X93.2Y-61.8
M16
G05
G00X94.8Y-73.2
M15
G01X93.2Y-73.2
M16
G05
M30
