%TF.GenerationSoftware,KiCad,Pcbnew,9.0.7*%
%TF.CreationDate,2026-02-09T14:49:56+01:00*%
%TF.ProjectId,usb-dmx,7573622d-646d-4782-9e6b-696361645f70,1.3*%
%TF.SameCoordinates,Original*%
%TF.FileFunction,Legend,Bot*%
%TF.FilePolarity,Positive*%
%FSLAX46Y46*%
G04 Gerber Fmt 4.6, Leading zero omitted, Abs format (unit mm)*
G04 Created by KiCad (PCBNEW 9.0.7) date 2026-02-09 14:49:56*
%MOMM*%
%LPD*%
G01*
G04 APERTURE LIST*
%ADD10C,0.093750*%
%ADD11C,0.400000*%
G04 APERTURE END LIST*
D10*
X134592089Y-59482143D02*
X133842089Y-59482143D01*
X133842089Y-59482143D02*
X133842089Y-59660714D01*
X133842089Y-59660714D02*
X133877803Y-59767857D01*
X133877803Y-59767857D02*
X133949232Y-59839286D01*
X133949232Y-59839286D02*
X134020660Y-59875000D01*
X134020660Y-59875000D02*
X134163517Y-59910714D01*
X134163517Y-59910714D02*
X134270660Y-59910714D01*
X134270660Y-59910714D02*
X134413517Y-59875000D01*
X134413517Y-59875000D02*
X134484946Y-59839286D01*
X134484946Y-59839286D02*
X134556375Y-59767857D01*
X134556375Y-59767857D02*
X134592089Y-59660714D01*
X134592089Y-59660714D02*
X134592089Y-59482143D01*
X134199232Y-60232143D02*
X134199232Y-60482143D01*
X134592089Y-60589286D02*
X134592089Y-60232143D01*
X134592089Y-60232143D02*
X133842089Y-60232143D01*
X133842089Y-60232143D02*
X133842089Y-60589286D01*
X134556375Y-60875000D02*
X134592089Y-60982143D01*
X134592089Y-60982143D02*
X134592089Y-61160714D01*
X134592089Y-61160714D02*
X134556375Y-61232143D01*
X134556375Y-61232143D02*
X134520660Y-61267857D01*
X134520660Y-61267857D02*
X134449232Y-61303571D01*
X134449232Y-61303571D02*
X134377803Y-61303571D01*
X134377803Y-61303571D02*
X134306375Y-61267857D01*
X134306375Y-61267857D02*
X134270660Y-61232143D01*
X134270660Y-61232143D02*
X134234946Y-61160714D01*
X134234946Y-61160714D02*
X134199232Y-61017857D01*
X134199232Y-61017857D02*
X134163517Y-60946428D01*
X134163517Y-60946428D02*
X134127803Y-60910714D01*
X134127803Y-60910714D02*
X134056375Y-60875000D01*
X134056375Y-60875000D02*
X133984946Y-60875000D01*
X133984946Y-60875000D02*
X133913517Y-60910714D01*
X133913517Y-60910714D02*
X133877803Y-60946428D01*
X133877803Y-60946428D02*
X133842089Y-61017857D01*
X133842089Y-61017857D02*
X133842089Y-61196428D01*
X133842089Y-61196428D02*
X133877803Y-61303571D01*
X134592089Y-61625000D02*
X133842089Y-61625000D01*
X133877803Y-62375000D02*
X133842089Y-62303572D01*
X133842089Y-62303572D02*
X133842089Y-62196429D01*
X133842089Y-62196429D02*
X133877803Y-62089286D01*
X133877803Y-62089286D02*
X133949232Y-62017857D01*
X133949232Y-62017857D02*
X134020660Y-61982143D01*
X134020660Y-61982143D02*
X134163517Y-61946429D01*
X134163517Y-61946429D02*
X134270660Y-61946429D01*
X134270660Y-61946429D02*
X134413517Y-61982143D01*
X134413517Y-61982143D02*
X134484946Y-62017857D01*
X134484946Y-62017857D02*
X134556375Y-62089286D01*
X134556375Y-62089286D02*
X134592089Y-62196429D01*
X134592089Y-62196429D02*
X134592089Y-62267857D01*
X134592089Y-62267857D02*
X134556375Y-62375000D01*
X134556375Y-62375000D02*
X134520660Y-62410714D01*
X134520660Y-62410714D02*
X134270660Y-62410714D01*
X134270660Y-62410714D02*
X134270660Y-62267857D01*
X134592089Y-62732143D02*
X133842089Y-62732143D01*
X133842089Y-62732143D02*
X134592089Y-63160714D01*
X134592089Y-63160714D02*
X133842089Y-63160714D01*
X134199232Y-63517857D02*
X134199232Y-63767857D01*
X134592089Y-63875000D02*
X134592089Y-63517857D01*
X134592089Y-63517857D02*
X133842089Y-63517857D01*
X133842089Y-63517857D02*
X133842089Y-63875000D01*
X134592089Y-64196428D02*
X133842089Y-64196428D01*
X133842089Y-64196428D02*
X133842089Y-64374999D01*
X133842089Y-64374999D02*
X133877803Y-64482142D01*
X133877803Y-64482142D02*
X133949232Y-64553571D01*
X133949232Y-64553571D02*
X134020660Y-64589285D01*
X134020660Y-64589285D02*
X134163517Y-64624999D01*
X134163517Y-64624999D02*
X134270660Y-64624999D01*
X134270660Y-64624999D02*
X134413517Y-64589285D01*
X134413517Y-64589285D02*
X134484946Y-64553571D01*
X134484946Y-64553571D02*
X134556375Y-64482142D01*
X134556375Y-64482142D02*
X134592089Y-64374999D01*
X134592089Y-64374999D02*
X134592089Y-64196428D01*
X134199232Y-65767857D02*
X134234946Y-65875000D01*
X134234946Y-65875000D02*
X134270660Y-65910714D01*
X134270660Y-65910714D02*
X134342089Y-65946428D01*
X134342089Y-65946428D02*
X134449232Y-65946428D01*
X134449232Y-65946428D02*
X134520660Y-65910714D01*
X134520660Y-65910714D02*
X134556375Y-65875000D01*
X134556375Y-65875000D02*
X134592089Y-65803571D01*
X134592089Y-65803571D02*
X134592089Y-65517857D01*
X134592089Y-65517857D02*
X133842089Y-65517857D01*
X133842089Y-65517857D02*
X133842089Y-65767857D01*
X133842089Y-65767857D02*
X133877803Y-65839286D01*
X133877803Y-65839286D02*
X133913517Y-65875000D01*
X133913517Y-65875000D02*
X133984946Y-65910714D01*
X133984946Y-65910714D02*
X134056375Y-65910714D01*
X134056375Y-65910714D02*
X134127803Y-65875000D01*
X134127803Y-65875000D02*
X134163517Y-65839286D01*
X134163517Y-65839286D02*
X134199232Y-65767857D01*
X134199232Y-65767857D02*
X134199232Y-65517857D01*
X134234946Y-66410714D02*
X134592089Y-66410714D01*
X133842089Y-66160714D02*
X134234946Y-66410714D01*
X134234946Y-66410714D02*
X133842089Y-66660714D01*
X134556375Y-67446429D02*
X134592089Y-67553572D01*
X134592089Y-67553572D02*
X134592089Y-67732143D01*
X134592089Y-67732143D02*
X134556375Y-67803572D01*
X134556375Y-67803572D02*
X134520660Y-67839286D01*
X134520660Y-67839286D02*
X134449232Y-67875000D01*
X134449232Y-67875000D02*
X134377803Y-67875000D01*
X134377803Y-67875000D02*
X134306375Y-67839286D01*
X134306375Y-67839286D02*
X134270660Y-67803572D01*
X134270660Y-67803572D02*
X134234946Y-67732143D01*
X134234946Y-67732143D02*
X134199232Y-67589286D01*
X134199232Y-67589286D02*
X134163517Y-67517857D01*
X134163517Y-67517857D02*
X134127803Y-67482143D01*
X134127803Y-67482143D02*
X134056375Y-67446429D01*
X134056375Y-67446429D02*
X133984946Y-67446429D01*
X133984946Y-67446429D02*
X133913517Y-67482143D01*
X133913517Y-67482143D02*
X133877803Y-67517857D01*
X133877803Y-67517857D02*
X133842089Y-67589286D01*
X133842089Y-67589286D02*
X133842089Y-67767857D01*
X133842089Y-67767857D02*
X133877803Y-67875000D01*
X134377803Y-68160715D02*
X134377803Y-68517858D01*
X134592089Y-68089286D02*
X133842089Y-68339286D01*
X133842089Y-68339286D02*
X134592089Y-68589286D01*
X134592089Y-68839286D02*
X133842089Y-68839286D01*
X133842089Y-68839286D02*
X134377803Y-69089286D01*
X134377803Y-69089286D02*
X133842089Y-69339286D01*
X133842089Y-69339286D02*
X134592089Y-69339286D01*
X133842089Y-69696429D02*
X134449232Y-69696429D01*
X134449232Y-69696429D02*
X134520660Y-69732143D01*
X134520660Y-69732143D02*
X134556375Y-69767858D01*
X134556375Y-69767858D02*
X134592089Y-69839286D01*
X134592089Y-69839286D02*
X134592089Y-69982143D01*
X134592089Y-69982143D02*
X134556375Y-70053572D01*
X134556375Y-70053572D02*
X134520660Y-70089286D01*
X134520660Y-70089286D02*
X134449232Y-70125000D01*
X134449232Y-70125000D02*
X133842089Y-70125000D01*
X134199232Y-70482143D02*
X134199232Y-70732143D01*
X134592089Y-70839286D02*
X134592089Y-70482143D01*
X134592089Y-70482143D02*
X133842089Y-70482143D01*
X133842089Y-70482143D02*
X133842089Y-70839286D01*
X134592089Y-71517857D02*
X134592089Y-71160714D01*
X134592089Y-71160714D02*
X133842089Y-71160714D01*
X134592089Y-72339286D02*
X133842089Y-72339286D01*
X134199232Y-72339286D02*
X134199232Y-72767857D01*
X134592089Y-72767857D02*
X133842089Y-72767857D01*
X134377803Y-73089286D02*
X134377803Y-73446429D01*
X134592089Y-73017857D02*
X133842089Y-73267857D01*
X133842089Y-73267857D02*
X134592089Y-73517857D01*
X134199232Y-74017857D02*
X134199232Y-73767857D01*
X134592089Y-73767857D02*
X133842089Y-73767857D01*
X133842089Y-73767857D02*
X133842089Y-74125000D01*
X134199232Y-74410714D02*
X134199232Y-74660714D01*
X134592089Y-74767857D02*
X134592089Y-74410714D01*
X134592089Y-74410714D02*
X133842089Y-74410714D01*
X133842089Y-74410714D02*
X133842089Y-74767857D01*
X134592089Y-75089285D02*
X133842089Y-75089285D01*
X133842089Y-75089285D02*
X134592089Y-75517856D01*
X134592089Y-75517856D02*
X133842089Y-75517856D01*
D11*
X111294662Y-62119047D02*
X111294662Y-63261904D01*
X113294662Y-62690475D02*
X111294662Y-62690475D01*
X113294662Y-65071428D02*
X112342281Y-64404761D01*
X113294662Y-63928571D02*
X111294662Y-63928571D01*
X111294662Y-63928571D02*
X111294662Y-64690476D01*
X111294662Y-64690476D02*
X111389900Y-64880952D01*
X111389900Y-64880952D02*
X111485138Y-64976190D01*
X111485138Y-64976190D02*
X111675614Y-65071428D01*
X111675614Y-65071428D02*
X111961328Y-65071428D01*
X111961328Y-65071428D02*
X112151804Y-64976190D01*
X112151804Y-64976190D02*
X112247043Y-64880952D01*
X112247043Y-64880952D02*
X112342281Y-64690476D01*
X112342281Y-64690476D02*
X112342281Y-63928571D01*
X112723233Y-65833333D02*
X112723233Y-66785714D01*
X113294662Y-65642857D02*
X111294662Y-66309523D01*
X111294662Y-66309523D02*
X113294662Y-66976190D01*
X113294662Y-67642857D02*
X111294662Y-67642857D01*
X111294662Y-67642857D02*
X113294662Y-68785714D01*
X113294662Y-68785714D02*
X111294662Y-68785714D01*
X113104185Y-70880952D02*
X113199424Y-70785714D01*
X113199424Y-70785714D02*
X113294662Y-70500000D01*
X113294662Y-70500000D02*
X113294662Y-70309524D01*
X113294662Y-70309524D02*
X113199424Y-70023809D01*
X113199424Y-70023809D02*
X113008947Y-69833333D01*
X113008947Y-69833333D02*
X112818471Y-69738095D01*
X112818471Y-69738095D02*
X112437519Y-69642857D01*
X112437519Y-69642857D02*
X112151804Y-69642857D01*
X112151804Y-69642857D02*
X111770852Y-69738095D01*
X111770852Y-69738095D02*
X111580376Y-69833333D01*
X111580376Y-69833333D02*
X111389900Y-70023809D01*
X111389900Y-70023809D02*
X111294662Y-70309524D01*
X111294662Y-70309524D02*
X111294662Y-70500000D01*
X111294662Y-70500000D02*
X111389900Y-70785714D01*
X111389900Y-70785714D02*
X111485138Y-70880952D01*
X112247043Y-71738095D02*
X112247043Y-72404762D01*
X113294662Y-72690476D02*
X113294662Y-71738095D01*
X113294662Y-71738095D02*
X111294662Y-71738095D01*
X111294662Y-71738095D02*
X111294662Y-72690476D01*
X114514550Y-60642857D02*
X116133597Y-60642857D01*
X116133597Y-60642857D02*
X116324073Y-60738095D01*
X116324073Y-60738095D02*
X116419312Y-60833333D01*
X116419312Y-60833333D02*
X116514550Y-61023809D01*
X116514550Y-61023809D02*
X116514550Y-61404762D01*
X116514550Y-61404762D02*
X116419312Y-61595238D01*
X116419312Y-61595238D02*
X116324073Y-61690476D01*
X116324073Y-61690476D02*
X116133597Y-61785714D01*
X116133597Y-61785714D02*
X114514550Y-61785714D01*
X116419312Y-62642857D02*
X116514550Y-62928571D01*
X116514550Y-62928571D02*
X116514550Y-63404762D01*
X116514550Y-63404762D02*
X116419312Y-63595238D01*
X116419312Y-63595238D02*
X116324073Y-63690476D01*
X116324073Y-63690476D02*
X116133597Y-63785714D01*
X116133597Y-63785714D02*
X115943121Y-63785714D01*
X115943121Y-63785714D02*
X115752645Y-63690476D01*
X115752645Y-63690476D02*
X115657407Y-63595238D01*
X115657407Y-63595238D02*
X115562169Y-63404762D01*
X115562169Y-63404762D02*
X115466931Y-63023809D01*
X115466931Y-63023809D02*
X115371692Y-62833333D01*
X115371692Y-62833333D02*
X115276454Y-62738095D01*
X115276454Y-62738095D02*
X115085978Y-62642857D01*
X115085978Y-62642857D02*
X114895502Y-62642857D01*
X114895502Y-62642857D02*
X114705026Y-62738095D01*
X114705026Y-62738095D02*
X114609788Y-62833333D01*
X114609788Y-62833333D02*
X114514550Y-63023809D01*
X114514550Y-63023809D02*
X114514550Y-63500000D01*
X114514550Y-63500000D02*
X114609788Y-63785714D01*
X115466931Y-65309524D02*
X115562169Y-65595238D01*
X115562169Y-65595238D02*
X115657407Y-65690476D01*
X115657407Y-65690476D02*
X115847883Y-65785714D01*
X115847883Y-65785714D02*
X116133597Y-65785714D01*
X116133597Y-65785714D02*
X116324073Y-65690476D01*
X116324073Y-65690476D02*
X116419312Y-65595238D01*
X116419312Y-65595238D02*
X116514550Y-65404762D01*
X116514550Y-65404762D02*
X116514550Y-64642857D01*
X116514550Y-64642857D02*
X114514550Y-64642857D01*
X114514550Y-64642857D02*
X114514550Y-65309524D01*
X114514550Y-65309524D02*
X114609788Y-65500000D01*
X114609788Y-65500000D02*
X114705026Y-65595238D01*
X114705026Y-65595238D02*
X114895502Y-65690476D01*
X114895502Y-65690476D02*
X115085978Y-65690476D01*
X115085978Y-65690476D02*
X115276454Y-65595238D01*
X115276454Y-65595238D02*
X115371692Y-65500000D01*
X115371692Y-65500000D02*
X115466931Y-65309524D01*
X115466931Y-65309524D02*
X115466931Y-64642857D01*
X115752645Y-66642857D02*
X115752645Y-68166667D01*
X116514550Y-69119047D02*
X114514550Y-69119047D01*
X114514550Y-69119047D02*
X114514550Y-69595237D01*
X114514550Y-69595237D02*
X114609788Y-69880952D01*
X114609788Y-69880952D02*
X114800264Y-70071428D01*
X114800264Y-70071428D02*
X114990740Y-70166666D01*
X114990740Y-70166666D02*
X115371692Y-70261904D01*
X115371692Y-70261904D02*
X115657407Y-70261904D01*
X115657407Y-70261904D02*
X116038359Y-70166666D01*
X116038359Y-70166666D02*
X116228835Y-70071428D01*
X116228835Y-70071428D02*
X116419312Y-69880952D01*
X116419312Y-69880952D02*
X116514550Y-69595237D01*
X116514550Y-69595237D02*
X116514550Y-69119047D01*
X116514550Y-71119047D02*
X114514550Y-71119047D01*
X114514550Y-71119047D02*
X115943121Y-71785714D01*
X115943121Y-71785714D02*
X114514550Y-72452380D01*
X114514550Y-72452380D02*
X116514550Y-72452380D01*
X114514550Y-73214285D02*
X116514550Y-74547618D01*
X114514550Y-74547618D02*
X116514550Y-73214285D01*
X119734438Y-62880951D02*
X118782057Y-62214284D01*
X119734438Y-61738094D02*
X117734438Y-61738094D01*
X117734438Y-61738094D02*
X117734438Y-62499999D01*
X117734438Y-62499999D02*
X117829676Y-62690475D01*
X117829676Y-62690475D02*
X117924914Y-62785713D01*
X117924914Y-62785713D02*
X118115390Y-62880951D01*
X118115390Y-62880951D02*
X118401104Y-62880951D01*
X118401104Y-62880951D02*
X118591580Y-62785713D01*
X118591580Y-62785713D02*
X118686819Y-62690475D01*
X118686819Y-62690475D02*
X118782057Y-62499999D01*
X118782057Y-62499999D02*
X118782057Y-61738094D01*
X119639200Y-64499999D02*
X119734438Y-64309523D01*
X119734438Y-64309523D02*
X119734438Y-63928570D01*
X119734438Y-63928570D02*
X119639200Y-63738094D01*
X119639200Y-63738094D02*
X119448723Y-63642856D01*
X119448723Y-63642856D02*
X118686819Y-63642856D01*
X118686819Y-63642856D02*
X118496342Y-63738094D01*
X118496342Y-63738094D02*
X118401104Y-63928570D01*
X118401104Y-63928570D02*
X118401104Y-64309523D01*
X118401104Y-64309523D02*
X118496342Y-64499999D01*
X118496342Y-64499999D02*
X118686819Y-64595237D01*
X118686819Y-64595237D02*
X118877295Y-64595237D01*
X118877295Y-64595237D02*
X119067771Y-63642856D01*
X118401104Y-65261904D02*
X119734438Y-65738094D01*
X119734438Y-65738094D02*
X118401104Y-66214285D01*
X119543961Y-66976190D02*
X119639200Y-67071428D01*
X119639200Y-67071428D02*
X119734438Y-66976190D01*
X119734438Y-66976190D02*
X119639200Y-66880952D01*
X119639200Y-66880952D02*
X119543961Y-66976190D01*
X119543961Y-66976190D02*
X119734438Y-66976190D01*
X118496342Y-66976190D02*
X118591580Y-67071428D01*
X118591580Y-67071428D02*
X118686819Y-66976190D01*
X118686819Y-66976190D02*
X118591580Y-66880952D01*
X118591580Y-66880952D02*
X118496342Y-66976190D01*
X118496342Y-66976190D02*
X118686819Y-66976190D01*
X119734438Y-70500000D02*
X119734438Y-69357143D01*
X119734438Y-69928571D02*
X117734438Y-69928571D01*
X117734438Y-69928571D02*
X118020152Y-69738095D01*
X118020152Y-69738095D02*
X118210628Y-69547619D01*
X118210628Y-69547619D02*
X118305866Y-69357143D01*
X119543961Y-71357143D02*
X119639200Y-71452381D01*
X119639200Y-71452381D02*
X119734438Y-71357143D01*
X119734438Y-71357143D02*
X119639200Y-71261905D01*
X119639200Y-71261905D02*
X119543961Y-71357143D01*
X119543961Y-71357143D02*
X119734438Y-71357143D01*
X117734438Y-72119048D02*
X117734438Y-73357143D01*
X117734438Y-73357143D02*
X118496342Y-72690476D01*
X118496342Y-72690476D02*
X118496342Y-72976191D01*
X118496342Y-72976191D02*
X118591580Y-73166667D01*
X118591580Y-73166667D02*
X118686819Y-73261905D01*
X118686819Y-73261905D02*
X118877295Y-73357143D01*
X118877295Y-73357143D02*
X119353485Y-73357143D01*
X119353485Y-73357143D02*
X119543961Y-73261905D01*
X119543961Y-73261905D02*
X119639200Y-73166667D01*
X119639200Y-73166667D02*
X119734438Y-72976191D01*
X119734438Y-72976191D02*
X119734438Y-72404762D01*
X119734438Y-72404762D02*
X119639200Y-72214286D01*
X119639200Y-72214286D02*
X119543961Y-72119048D01*
M02*
