%TF.GenerationSoftware,KiCad,Pcbnew,9.0.7*%
%TF.CreationDate,2026-02-09T14:49:55+01:00*%
%TF.ProjectId,usb-dmx,7573622d-646d-4782-9e6b-696361645f70,1.3*%
%TF.SameCoordinates,Original*%
%TF.FileFunction,Paste,Top*%
%TF.FilePolarity,Positive*%
%FSLAX46Y46*%
G04 Gerber Fmt 4.6, Leading zero omitted, Abs format (unit mm)*
G04 Created by KiCad (PCBNEW 9.0.7) date 2026-02-09 14:49:55*
%MOMM*%
%LPD*%
G01*
G04 APERTURE LIST*
G04 Aperture macros list*
%AMRoundRect*
0 Rectangle with rounded corners*
0 $1 Rounding radius*
0 $2 $3 $4 $5 $6 $7 $8 $9 X,Y pos of 4 corners*
0 Add a 4 corners polygon primitive as box body*
4,1,4,$2,$3,$4,$5,$6,$7,$8,$9,$2,$3,0*
0 Add four circle primitives for the rounded corners*
1,1,$1+$1,$2,$3*
1,1,$1+$1,$4,$5*
1,1,$1+$1,$6,$7*
1,1,$1+$1,$8,$9*
0 Add four rect primitives between the rounded corners*
20,1,$1+$1,$2,$3,$4,$5,0*
20,1,$1+$1,$4,$5,$6,$7,0*
20,1,$1+$1,$6,$7,$8,$9,0*
20,1,$1+$1,$8,$9,$2,$3,0*%
%AMOutline5P*
0 Free polygon, 5 corners , with rotation*
0 The origin of the aperture is its center*
0 number of corners: always 5*
0 $1 to $10 corner X, Y*
0 $11 Rotation angle, in degrees counterclockwise*
0 create outline with 5 corners*
4,1,5,$1,$2,$3,$4,$5,$6,$7,$8,$9,$10,$1,$2,$11*%
%AMOutline6P*
0 Free polygon, 6 corners , with rotation*
0 The origin of the aperture is its center*
0 number of corners: always 6*
0 $1 to $12 corner X, Y*
0 $13 Rotation angle, in degrees counterclockwise*
0 create outline with 6 corners*
4,1,6,$1,$2,$3,$4,$5,$6,$7,$8,$9,$10,$11,$12,$1,$2,$13*%
%AMOutline7P*
0 Free polygon, 7 corners , with rotation*
0 The origin of the aperture is its center*
0 number of corners: always 7*
0 $1 to $14 corner X, Y*
0 $15 Rotation angle, in degrees counterclockwise*
0 create outline with 7 corners*
4,1,7,$1,$2,$3,$4,$5,$6,$7,$8,$9,$10,$11,$12,$13,$14,$1,$2,$15*%
%AMOutline8P*
0 Free polygon, 8 corners , with rotation*
0 The origin of the aperture is its center*
0 number of corners: always 8*
0 $1 to $16 corner X, Y*
0 $17 Rotation angle, in degrees counterclockwise*
0 create outline with 8 corners*
4,1,8,$1,$2,$3,$4,$5,$6,$7,$8,$9,$10,$11,$12,$13,$14,$15,$16,$1,$2,$17*%
G04 Aperture macros list end*
%ADD10R,2.500000X1.100000*%
%ADD11RoundRect,0.237500X0.250000X0.237500X-0.250000X0.237500X-0.250000X-0.237500X0.250000X-0.237500X0*%
%ADD12R,0.400000X0.800000*%
%ADD13R,0.800000X0.400000*%
%ADD14Outline5P,-0.600000X0.204000X-0.204000X0.600000X0.600000X0.600000X0.600000X-0.600000X-0.600000X-0.600000X270.000000*%
%ADD15R,1.200000X1.200000*%
%ADD16R,0.800000X0.800000*%
%ADD17RoundRect,0.237500X0.237500X-0.250000X0.237500X0.250000X-0.237500X0.250000X-0.237500X-0.250000X0*%
%ADD18RoundRect,0.237500X0.300000X0.237500X-0.300000X0.237500X-0.300000X-0.237500X0.300000X-0.237500X0*%
%ADD19RoundRect,0.150000X-0.512500X-0.150000X0.512500X-0.150000X0.512500X0.150000X-0.512500X0.150000X0*%
%ADD20RoundRect,0.237500X-0.300000X-0.237500X0.300000X-0.237500X0.300000X0.237500X-0.300000X0.237500X0*%
%ADD21RoundRect,0.200000X-0.275000X0.200000X-0.275000X-0.200000X0.275000X-0.200000X0.275000X0.200000X0*%
%ADD22RoundRect,0.250000X0.250000X0.475000X-0.250000X0.475000X-0.250000X-0.475000X0.250000X-0.475000X0*%
%ADD23RoundRect,0.250000X-0.337500X-0.475000X0.337500X-0.475000X0.337500X0.475000X-0.337500X0.475000X0*%
%ADD24RoundRect,0.375000X0.375000X-0.625000X0.375000X0.625000X-0.375000X0.625000X-0.375000X-0.625000X0*%
%ADD25RoundRect,0.500000X1.400000X-0.500000X1.400000X0.500000X-1.400000X0.500000X-1.400000X-0.500000X0*%
%ADD26RoundRect,0.250000X-0.475000X0.250000X-0.475000X-0.250000X0.475000X-0.250000X0.475000X0.250000X0*%
%ADD27R,0.850000X1.600000*%
%ADD28RoundRect,0.237500X0.237500X-0.300000X0.237500X0.300000X-0.237500X0.300000X-0.237500X-0.300000X0*%
%ADD29RoundRect,0.150000X-0.150000X-0.425000X0.150000X-0.425000X0.150000X0.425000X-0.150000X0.425000X0*%
%ADD30RoundRect,0.075000X-0.075000X-0.500000X0.075000X-0.500000X0.075000X0.500000X-0.075000X0.500000X0*%
%ADD31O,1.000000X2.100000*%
%ADD32O,1.000000X1.800000*%
%ADD33R,0.750000X1.000000*%
%ADD34RoundRect,0.225000X-0.250000X0.225000X-0.250000X-0.225000X0.250000X-0.225000X0.250000X0.225000X0*%
%ADD35RoundRect,0.162500X0.825000X0.162500X-0.825000X0.162500X-0.825000X-0.162500X0.825000X-0.162500X0*%
G04 APERTURE END LIST*
D10*
%TO.C,J2*%
X96750000Y-64000000D03*
X96750000Y-66500000D03*
X96750000Y-68500000D03*
X96750000Y-71000000D03*
%TD*%
D11*
%TO.C,R3*%
X127812500Y-60650000D03*
X125987500Y-60650000D03*
%TD*%
D12*
%TO.C,U3*%
X132950000Y-62500000D03*
X132100000Y-62500000D03*
X131250000Y-62500000D03*
X130400000Y-62500000D03*
X129550000Y-62500000D03*
X128700000Y-62500000D03*
X127850000Y-62500000D03*
X127000000Y-62500000D03*
X126150000Y-62500000D03*
X125300000Y-62500000D03*
X124450000Y-62500000D03*
X123600000Y-62500000D03*
X122750000Y-62500000D03*
X121900000Y-62500000D03*
X121050000Y-62500000D03*
D13*
X120000000Y-63550000D03*
X120000000Y-64400000D03*
X120000000Y-65250000D03*
X120000000Y-66100000D03*
X120000000Y-66950000D03*
X120000000Y-67800000D03*
X120000000Y-68650000D03*
X120000000Y-69500000D03*
X120000000Y-70350000D03*
X120000000Y-71200000D03*
X120000000Y-72050000D03*
X120000000Y-72900000D03*
X120000000Y-73750000D03*
X120000000Y-74600000D03*
X120000000Y-75450000D03*
D12*
X121050000Y-76500000D03*
X121900000Y-76500000D03*
X122750000Y-76500000D03*
X123600000Y-76500000D03*
X124450000Y-76500000D03*
X125300000Y-76500000D03*
X126150000Y-76500000D03*
X127000000Y-76500000D03*
X127850000Y-76500000D03*
X128700000Y-76500000D03*
X129550000Y-76500000D03*
X130400000Y-76500000D03*
X131250000Y-76500000D03*
X132100000Y-76500000D03*
X132950000Y-76500000D03*
D13*
X134000000Y-75450000D03*
X134000000Y-74600000D03*
X134000000Y-73750000D03*
X134000000Y-72900000D03*
X134000000Y-72050000D03*
X134000000Y-71200000D03*
X134000000Y-70350000D03*
X134000000Y-69500000D03*
X134000000Y-68650000D03*
X134000000Y-67800000D03*
X134000000Y-66950000D03*
X134000000Y-66100000D03*
X134000000Y-65250000D03*
X134000000Y-64400000D03*
X134000000Y-63550000D03*
D14*
X128650000Y-67850000D03*
D15*
X127000000Y-67850000D03*
X125350000Y-67850000D03*
X128650000Y-69500000D03*
X127000000Y-69500000D03*
X125350000Y-69500000D03*
X128650000Y-71150000D03*
X127000000Y-71150000D03*
X125350000Y-71150000D03*
D16*
X134000000Y-62500000D03*
X120000000Y-62500000D03*
X120000000Y-76500000D03*
X134000000Y-76500000D03*
%TD*%
D17*
%TO.C,R5*%
X104750000Y-68162500D03*
X104750000Y-66337500D03*
%TD*%
D18*
%TO.C,C3*%
X124262500Y-60650000D03*
X122537500Y-60650000D03*
%TD*%
D19*
%TO.C,U4*%
X108250000Y-66250000D03*
X108250000Y-67200000D03*
X108250000Y-68150000D03*
X110525000Y-68150000D03*
X110525000Y-67200000D03*
X110525000Y-66250000D03*
%TD*%
D17*
%TO.C,R1*%
X101750000Y-68162500D03*
X101750000Y-66337500D03*
%TD*%
D20*
%TO.C,C4*%
X132137500Y-58750000D03*
X133862500Y-58750000D03*
%TD*%
D21*
%TO.C,R4*%
X112500000Y-71925000D03*
X112500000Y-73575000D03*
%TD*%
D22*
%TO.C,C2*%
X116950000Y-68250000D03*
X115050000Y-68250000D03*
%TD*%
D17*
%TO.C,R2*%
X106250000Y-68162500D03*
X106250000Y-66337500D03*
%TD*%
D23*
%TO.C,C7*%
X131712500Y-60500000D03*
X133787500Y-60500000D03*
%TD*%
D24*
%TO.C,U1*%
X113100000Y-65800000D03*
X115400000Y-65800000D03*
D25*
X115400000Y-59500000D03*
D24*
X117700000Y-65800000D03*
%TD*%
D26*
%TO.C,C1*%
X120150000Y-58750000D03*
X120150000Y-60650000D03*
%TD*%
D27*
%TO.C,D1*%
X108375000Y-62500000D03*
X110125000Y-62500000D03*
X110125000Y-59000000D03*
X108375000Y-59000000D03*
%TD*%
D17*
%TO.C,R6*%
X103250000Y-68162500D03*
X103250000Y-66337500D03*
%TD*%
D28*
%TO.C,C6*%
X100250000Y-68112500D03*
X100250000Y-66387500D03*
%TD*%
D29*
%TO.C,J1*%
X100870000Y-70245000D03*
X101670000Y-70245000D03*
D30*
X102820000Y-70245000D03*
X103820000Y-70245000D03*
X104320000Y-70245000D03*
X105320000Y-70245000D03*
D29*
X106470000Y-70245000D03*
X107270000Y-70245000D03*
X107270000Y-70245000D03*
X106470000Y-70245000D03*
D30*
X105820000Y-70245000D03*
X104820000Y-70245000D03*
X103320000Y-70245000D03*
X102320000Y-70245000D03*
D29*
X101670000Y-70245000D03*
X100870000Y-70245000D03*
D31*
X99750000Y-70820000D03*
D32*
X99750000Y-75000000D03*
D31*
X108390000Y-70820000D03*
D32*
X108390000Y-75000000D03*
%TD*%
D33*
%TO.C,SW2*%
X114150000Y-76400000D03*
X114150000Y-70400000D03*
X117900000Y-76400000D03*
X117900000Y-70400000D03*
%TD*%
D34*
%TO.C,C5*%
X112500000Y-74975000D03*
X112500000Y-76525000D03*
%TD*%
D35*
%TO.C,U5*%
X105287500Y-62655000D03*
X105287500Y-61385000D03*
X105287500Y-60115000D03*
X105287500Y-58845000D03*
X100212500Y-58845000D03*
X100212500Y-60115000D03*
X100212500Y-61385000D03*
X100212500Y-62655000D03*
%TD*%
M02*
