%TF.GenerationSoftware,KiCad,Pcbnew,9.0.7*%
%TF.CreationDate,2026-02-09T14:49:55+01:00*%
%TF.ProjectId,usb-dmx,7573622d-646d-4782-9e6b-696361645f70,1.3*%
%TF.SameCoordinates,Original*%
%TF.FileFunction,Copper,L1,Top*%
%TF.FilePolarity,Positive*%
%FSLAX46Y46*%
G04 Gerber Fmt 4.6, Leading zero omitted, Abs format (unit mm)*
G04 Created by KiCad (PCBNEW 9.0.7) date 2026-02-09 14:49:55*
%MOMM*%
%LPD*%
G01*
G04 APERTURE LIST*
G04 Aperture macros list*
%AMRoundRect*
0 Rectangle with rounded corners*
0 $1 Rounding radius*
0 $2 $3 $4 $5 $6 $7 $8 $9 X,Y pos of 4 corners*
0 Add a 4 corners polygon primitive as box body*
4,1,4,$2,$3,$4,$5,$6,$7,$8,$9,$2,$3,0*
0 Add four circle primitives for the rounded corners*
1,1,$1+$1,$2,$3*
1,1,$1+$1,$4,$5*
1,1,$1+$1,$6,$7*
1,1,$1+$1,$8,$9*
0 Add four rect primitives between the rounded corners*
20,1,$1+$1,$2,$3,$4,$5,0*
20,1,$1+$1,$4,$5,$6,$7,0*
20,1,$1+$1,$6,$7,$8,$9,0*
20,1,$1+$1,$8,$9,$2,$3,0*%
%AMOutline5P*
0 Free polygon, 5 corners , with rotation*
0 The origin of the aperture is its center*
0 number of corners: always 5*
0 $1 to $10 corner X, Y*
0 $11 Rotation angle, in degrees counterclockwise*
0 create outline with 5 corners*
4,1,5,$1,$2,$3,$4,$5,$6,$7,$8,$9,$10,$1,$2,$11*%
%AMOutline6P*
0 Free polygon, 6 corners , with rotation*
0 The origin of the aperture is its center*
0 number of corners: always 6*
0 $1 to $12 corner X, Y*
0 $13 Rotation angle, in degrees counterclockwise*
0 create outline with 6 corners*
4,1,6,$1,$2,$3,$4,$5,$6,$7,$8,$9,$10,$11,$12,$1,$2,$13*%
%AMOutline7P*
0 Free polygon, 7 corners , with rotation*
0 The origin of the aperture is its center*
0 number of corners: always 7*
0 $1 to $14 corner X, Y*
0 $15 Rotation angle, in degrees counterclockwise*
0 create outline with 7 corners*
4,1,7,$1,$2,$3,$4,$5,$6,$7,$8,$9,$10,$11,$12,$13,$14,$1,$2,$15*%
%AMOutline8P*
0 Free polygon, 8 corners , with rotation*
0 The origin of the aperture is its center*
0 number of corners: always 8*
0 $1 to $16 corner X, Y*
0 $17 Rotation angle, in degrees counterclockwise*
0 create outline with 8 corners*
4,1,8,$1,$2,$3,$4,$5,$6,$7,$8,$9,$10,$11,$12,$13,$14,$15,$16,$1,$2,$17*%
G04 Aperture macros list end*
%TA.AperFunction,HeatsinkPad*%
%ADD10O,3.500000X1.900000*%
%TD*%
%TA.AperFunction,SMDPad,CuDef*%
%ADD11R,2.500000X1.100000*%
%TD*%
%TA.AperFunction,SMDPad,CuDef*%
%ADD12RoundRect,0.237500X0.250000X0.237500X-0.250000X0.237500X-0.250000X-0.237500X0.250000X-0.237500X0*%
%TD*%
%TA.AperFunction,SMDPad,CuDef*%
%ADD13R,0.400000X0.800000*%
%TD*%
%TA.AperFunction,SMDPad,CuDef*%
%ADD14R,0.800000X0.400000*%
%TD*%
%TA.AperFunction,HeatsinkPad*%
%ADD15Outline5P,-0.600000X0.204000X-0.204000X0.600000X0.600000X0.600000X0.600000X-0.600000X-0.600000X-0.600000X270.000000*%
%TD*%
%TA.AperFunction,HeatsinkPad*%
%ADD16R,1.200000X1.200000*%
%TD*%
%TA.AperFunction,SMDPad,CuDef*%
%ADD17R,0.800000X0.800000*%
%TD*%
%TA.AperFunction,SMDPad,CuDef*%
%ADD18RoundRect,0.237500X0.237500X-0.250000X0.237500X0.250000X-0.237500X0.250000X-0.237500X-0.250000X0*%
%TD*%
%TA.AperFunction,SMDPad,CuDef*%
%ADD19RoundRect,0.237500X0.300000X0.237500X-0.300000X0.237500X-0.300000X-0.237500X0.300000X-0.237500X0*%
%TD*%
%TA.AperFunction,SMDPad,CuDef*%
%ADD20RoundRect,0.150000X-0.512500X-0.150000X0.512500X-0.150000X0.512500X0.150000X-0.512500X0.150000X0*%
%TD*%
%TA.AperFunction,SMDPad,CuDef*%
%ADD21RoundRect,0.237500X-0.300000X-0.237500X0.300000X-0.237500X0.300000X0.237500X-0.300000X0.237500X0*%
%TD*%
%TA.AperFunction,SMDPad,CuDef*%
%ADD22RoundRect,0.200000X-0.275000X0.200000X-0.275000X-0.200000X0.275000X-0.200000X0.275000X0.200000X0*%
%TD*%
%TA.AperFunction,SMDPad,CuDef*%
%ADD23RoundRect,0.250000X0.250000X0.475000X-0.250000X0.475000X-0.250000X-0.475000X0.250000X-0.475000X0*%
%TD*%
%TA.AperFunction,SMDPad,CuDef*%
%ADD24RoundRect,0.250000X-0.337500X-0.475000X0.337500X-0.475000X0.337500X0.475000X-0.337500X0.475000X0*%
%TD*%
%TA.AperFunction,SMDPad,CuDef*%
%ADD25RoundRect,0.375000X0.375000X-0.625000X0.375000X0.625000X-0.375000X0.625000X-0.375000X-0.625000X0*%
%TD*%
%TA.AperFunction,SMDPad,CuDef*%
%ADD26RoundRect,0.500000X1.400000X-0.500000X1.400000X0.500000X-1.400000X0.500000X-1.400000X-0.500000X0*%
%TD*%
%TA.AperFunction,SMDPad,CuDef*%
%ADD27RoundRect,0.250000X-0.475000X0.250000X-0.475000X-0.250000X0.475000X-0.250000X0.475000X0.250000X0*%
%TD*%
%TA.AperFunction,SMDPad,CuDef*%
%ADD28R,0.850000X1.600000*%
%TD*%
%TA.AperFunction,SMDPad,CuDef*%
%ADD29RoundRect,0.237500X0.237500X-0.300000X0.237500X0.300000X-0.237500X0.300000X-0.237500X-0.300000X0*%
%TD*%
%TA.AperFunction,SMDPad,CuDef*%
%ADD30RoundRect,0.150000X-0.150000X-0.425000X0.150000X-0.425000X0.150000X0.425000X-0.150000X0.425000X0*%
%TD*%
%TA.AperFunction,SMDPad,CuDef*%
%ADD31RoundRect,0.075000X-0.075000X-0.500000X0.075000X-0.500000X0.075000X0.500000X-0.075000X0.500000X0*%
%TD*%
%TA.AperFunction,HeatsinkPad*%
%ADD32O,1.000000X2.100000*%
%TD*%
%TA.AperFunction,HeatsinkPad*%
%ADD33O,1.000000X1.800000*%
%TD*%
%TA.AperFunction,SMDPad,CuDef*%
%ADD34R,0.750000X1.000000*%
%TD*%
%TA.AperFunction,SMDPad,CuDef*%
%ADD35RoundRect,0.225000X-0.250000X0.225000X-0.250000X-0.225000X0.250000X-0.225000X0.250000X0.225000X0*%
%TD*%
%TA.AperFunction,SMDPad,CuDef*%
%ADD36RoundRect,0.162500X0.825000X0.162500X-0.825000X0.162500X-0.825000X-0.162500X0.825000X-0.162500X0*%
%TD*%
%TA.AperFunction,ViaPad*%
%ADD37C,0.600000*%
%TD*%
%TA.AperFunction,Conductor*%
%ADD38C,0.200000*%
%TD*%
%TA.AperFunction,Conductor*%
%ADD39C,0.400000*%
%TD*%
%TA.AperFunction,Conductor*%
%ADD40C,0.800000*%
%TD*%
G04 APERTURE END LIST*
D10*
%TO.P,J2,5,Shield*%
%TO.N,GND*%
X94000000Y-61800000D03*
X94000000Y-73200000D03*
D11*
%TO.P,J2,4,GND*%
X96750000Y-64000000D03*
%TO.P,J2,3,D+*%
%TO.N,DMX+*%
X96750000Y-66500000D03*
%TO.P,J2,2,D-*%
%TO.N,DMX-*%
X96750000Y-68500000D03*
%TO.P,J2,1,VBUS*%
%TO.N,VCC_5V*%
X96750000Y-71000000D03*
%TD*%
D12*
%TO.P,R3,1*%
%TO.N,VCC_3.3V*%
X127812500Y-60650000D03*
%TO.P,R3,2*%
%TO.N,Net-(U3-EN)*%
X125987500Y-60650000D03*
%TD*%
D13*
%TO.P,U3,1,GND*%
%TO.N,GND*%
X132950000Y-62500000D03*
%TO.P,U3,2,GND*%
X132100000Y-62500000D03*
%TO.P,U3,3,3V3*%
%TO.N,VCC_3.3V*%
X131250000Y-62500000D03*
%TO.P,U3,4,IO0*%
%TO.N,0*%
X130400000Y-62500000D03*
%TO.P,U3,5,IO1*%
%TO.N,1*%
X129550000Y-62500000D03*
%TO.P,U3,6,IO2*%
%TO.N,2*%
X128700000Y-62500000D03*
%TO.P,U3,7,IO3*%
%TO.N,3*%
X127850000Y-62500000D03*
%TO.P,U3,8,IO4*%
%TO.N,4*%
X127000000Y-62500000D03*
%TO.P,U3,9,IO5*%
%TO.N,unconnected-(U3-IO5-Pad9)*%
X126150000Y-62500000D03*
%TO.P,U3,10,IO6*%
%TO.N,unconnected-(U3-IO6-Pad10)*%
X125300000Y-62500000D03*
%TO.P,U3,11,IO7*%
%TO.N,unconnected-(U3-IO7-Pad11)*%
X124450000Y-62500000D03*
%TO.P,U3,12,IO8*%
%TO.N,unconnected-(U3-IO8-Pad12)*%
X123600000Y-62500000D03*
%TO.P,U3,13,IO9*%
%TO.N,unconnected-(U3-IO9-Pad13)*%
X122750000Y-62500000D03*
%TO.P,U3,14,IO10*%
%TO.N,unconnected-(U3-IO10-Pad14)*%
X121900000Y-62500000D03*
%TO.P,U3,15,IO11*%
%TO.N,unconnected-(U3-IO11-Pad15)*%
X121050000Y-62500000D03*
D14*
%TO.P,U3,16,IO12*%
%TO.N,unconnected-(U3-IO12-Pad16)*%
X120000000Y-63550000D03*
%TO.P,U3,17,IO13*%
%TO.N,unconnected-(U3-IO13-Pad17)*%
X120000000Y-64400000D03*
%TO.P,U3,18,IO14*%
%TO.N,14*%
X120000000Y-65250000D03*
%TO.P,U3,19,IO15*%
%TO.N,15*%
X120000000Y-66100000D03*
%TO.P,U3,20,IO16*%
%TO.N,unconnected-(U3-IO16-Pad20)*%
X120000000Y-66950000D03*
%TO.P,U3,21,IO17*%
%TO.N,unconnected-(U3-IO17-Pad21)*%
X120000000Y-67800000D03*
%TO.P,U3,22,IO18*%
%TO.N,unconnected-(U3-IO18-Pad22)*%
X120000000Y-68650000D03*
%TO.P,U3,23,USB_D-*%
%TO.N,D-*%
X120000000Y-69500000D03*
%TO.P,U3,24,USB_D+*%
%TO.N,D+*%
X120000000Y-70350000D03*
%TO.P,U3,25,IO21*%
%TO.N,unconnected-(U3-IO21-Pad25)*%
X120000000Y-71200000D03*
%TO.P,U3,26,IO26*%
%TO.N,unconnected-(U3-IO26-Pad26)*%
X120000000Y-72050000D03*
%TO.P,U3,27,IO47*%
%TO.N,unconnected-(U3-IO47-Pad27)*%
X120000000Y-72900000D03*
%TO.P,U3,28,IO33*%
%TO.N,unconnected-(U3-IO33-Pad28)*%
X120000000Y-73750000D03*
%TO.P,U3,29,IO34*%
%TO.N,unconnected-(U3-IO34-Pad29)*%
X120000000Y-74600000D03*
%TO.P,U3,30,IO48*%
%TO.N,unconnected-(U3-IO48-Pad30)*%
X120000000Y-75450000D03*
D13*
%TO.P,U3,31,IO35*%
%TO.N,unconnected-(U3-IO35-Pad31)*%
X121050000Y-76500000D03*
%TO.P,U3,32,IO36*%
%TO.N,unconnected-(U3-IO36-Pad32)*%
X121900000Y-76500000D03*
%TO.P,U3,33,IO37*%
%TO.N,unconnected-(U3-IO37-Pad33)*%
X122750000Y-76500000D03*
%TO.P,U3,34,IO38*%
%TO.N,unconnected-(U3-IO38-Pad34)*%
X123600000Y-76500000D03*
%TO.P,U3,35,IO39*%
%TO.N,unconnected-(U3-IO39-Pad35)*%
X124450000Y-76500000D03*
%TO.P,U3,36,IO40*%
%TO.N,unconnected-(U3-IO40-Pad36)*%
X125300000Y-76500000D03*
%TO.P,U3,37,IO41*%
%TO.N,unconnected-(U3-IO41-Pad37)*%
X126150000Y-76500000D03*
%TO.P,U3,38,IO42*%
%TO.N,unconnected-(U3-IO42-Pad38)*%
X127000000Y-76500000D03*
%TO.P,U3,39,TXD0*%
%TO.N,unconnected-(U3-TXD0-Pad39)*%
X127850000Y-76500000D03*
%TO.P,U3,40,RXD0*%
%TO.N,unconnected-(U3-RXD0-Pad40)*%
X128700000Y-76500000D03*
%TO.P,U3,41,IO45*%
%TO.N,unconnected-(U3-IO45-Pad41)*%
X129550000Y-76500000D03*
%TO.P,U3,42,GND*%
%TO.N,GND*%
X130400000Y-76500000D03*
%TO.P,U3,43,GND*%
X131250000Y-76500000D03*
%TO.P,U3,44,IO46*%
%TO.N,unconnected-(U3-IO46-Pad44)*%
X132100000Y-76500000D03*
%TO.P,U3,45,EN*%
%TO.N,Net-(U3-EN)*%
X132950000Y-76500000D03*
D14*
%TO.P,U3,46,GND*%
%TO.N,GND*%
X134000000Y-75450000D03*
%TO.P,U3,47,GND*%
X134000000Y-74600000D03*
%TO.P,U3,48,GND*%
X134000000Y-73750000D03*
%TO.P,U3,49,GND*%
X134000000Y-72900000D03*
%TO.P,U3,50,GND*%
X134000000Y-72050000D03*
%TO.P,U3,51,GND*%
X134000000Y-71200000D03*
%TO.P,U3,52,GND*%
X134000000Y-70350000D03*
%TO.P,U3,53,GND*%
X134000000Y-69500000D03*
%TO.P,U3,54,GND*%
X134000000Y-68650000D03*
%TO.P,U3,55,GND*%
X134000000Y-67800000D03*
%TO.P,U3,56,GND*%
X134000000Y-66950000D03*
%TO.P,U3,57,GND*%
X134000000Y-66100000D03*
%TO.P,U3,58,GND*%
X134000000Y-65250000D03*
%TO.P,U3,59,GND*%
X134000000Y-64400000D03*
%TO.P,U3,60,GND*%
X134000000Y-63550000D03*
D15*
%TO.P,U3,61,GND*%
X128650000Y-67850000D03*
D16*
X127000000Y-67850000D03*
X125350000Y-67850000D03*
X128650000Y-69500000D03*
X127000000Y-69500000D03*
X125350000Y-69500000D03*
X128650000Y-71150000D03*
X127000000Y-71150000D03*
X125350000Y-71150000D03*
D17*
%TO.P,U3,62,GND*%
X134000000Y-62500000D03*
%TO.P,U3,63,GND*%
X120000000Y-62500000D03*
%TO.P,U3,64,GND*%
X120000000Y-76500000D03*
%TO.P,U3,65,GND*%
X134000000Y-76500000D03*
%TD*%
D18*
%TO.P,R5,1*%
%TO.N,1*%
X104750000Y-68162500D03*
%TO.P,R5,2*%
%TO.N,Net-(U5-RO)*%
X104750000Y-66337500D03*
%TD*%
D19*
%TO.P,C3,1*%
%TO.N,Net-(U3-EN)*%
X124262500Y-60650000D03*
%TO.P,C3,2*%
%TO.N,GND*%
X122537500Y-60650000D03*
%TD*%
D20*
%TO.P,U4,1,I/O1*%
%TO.N,Net-(J1-D+-PadA6)*%
X108250000Y-66250000D03*
%TO.P,U4,2,GND*%
%TO.N,GND*%
X108250000Y-67200000D03*
%TO.P,U4,3,I/O2*%
%TO.N,Net-(J1-D--PadA7)*%
X108250000Y-68150000D03*
%TO.P,U4,4,I/O2*%
%TO.N,D-*%
X110525000Y-68150000D03*
%TO.P,U4,5,VBUS*%
%TO.N,VCC_5V*%
X110525000Y-67200000D03*
%TO.P,U4,6,I/O1*%
%TO.N,D+*%
X110525000Y-66250000D03*
%TD*%
D18*
%TO.P,R1,1*%
%TO.N,Net-(J1-CC1)*%
X101750000Y-68162500D03*
%TO.P,R1,2*%
%TO.N,GND*%
X101750000Y-66337500D03*
%TD*%
D21*
%TO.P,C4,1*%
%TO.N,VCC_3.3V*%
X132137500Y-58750000D03*
%TO.P,C4,2*%
%TO.N,GND*%
X133862500Y-58750000D03*
%TD*%
D22*
%TO.P,R4,1*%
%TO.N,VCC_3.3V*%
X112500000Y-71925000D03*
%TO.P,R4,2*%
%TO.N,0*%
X112500000Y-73575000D03*
%TD*%
D23*
%TO.P,C2,1*%
%TO.N,VCC_5V*%
X116950000Y-68250000D03*
%TO.P,C2,2*%
%TO.N,GND*%
X115050000Y-68250000D03*
%TD*%
D18*
%TO.P,R2,1*%
%TO.N,Net-(J1-CC2)*%
X106250000Y-68162500D03*
%TO.P,R2,2*%
%TO.N,GND*%
X106250000Y-66337500D03*
%TD*%
D24*
%TO.P,C7,1*%
%TO.N,VCC_3.3V*%
X131712500Y-60500000D03*
%TO.P,C7,2*%
%TO.N,GND*%
X133787500Y-60500000D03*
%TD*%
D25*
%TO.P,U1,1,GND*%
%TO.N,GND*%
X113100000Y-65800000D03*
%TO.P,U1,2,VO*%
%TO.N,VCC_3.3V*%
X115400000Y-65800000D03*
D26*
X115400000Y-59500000D03*
D25*
%TO.P,U1,3,VI*%
%TO.N,VCC_5V*%
X117700000Y-65800000D03*
%TD*%
D27*
%TO.P,C1,1*%
%TO.N,VCC_3.3V*%
X120150000Y-58750000D03*
%TO.P,C1,2*%
%TO.N,GND*%
X120150000Y-60650000D03*
%TD*%
D28*
%TO.P,D1,1,DOUT*%
%TO.N,unconnected-(D1-DOUT-Pad1)*%
X108375000Y-62500000D03*
%TO.P,D1,2,VSS*%
%TO.N,GND*%
X110125000Y-62500000D03*
%TO.P,D1,3,DIN*%
%TO.N,14*%
X110125000Y-59000000D03*
%TO.P,D1,4,VDD*%
%TO.N,VCC_5V*%
X108375000Y-59000000D03*
%TD*%
D18*
%TO.P,R6,1*%
%TO.N,1*%
X103250000Y-68162500D03*
%TO.P,R6,2*%
%TO.N,GND*%
X103250000Y-66337500D03*
%TD*%
D29*
%TO.P,C6,1*%
%TO.N,VCC_5V*%
X100250000Y-68112500D03*
%TO.P,C6,2*%
%TO.N,GND*%
X100250000Y-66387500D03*
%TD*%
D30*
%TO.P,J1,A1,GND*%
%TO.N,GND*%
X100870000Y-70245000D03*
%TO.P,J1,A4,VBUS*%
%TO.N,VCC_5V*%
X101670000Y-70245000D03*
D31*
%TO.P,J1,A5,CC1*%
%TO.N,Net-(J1-CC1)*%
X102820000Y-70245000D03*
%TO.P,J1,A6,D+*%
%TO.N,Net-(J1-D+-PadA6)*%
X103820000Y-70245000D03*
%TO.P,J1,A7,D-*%
%TO.N,Net-(J1-D--PadA7)*%
X104320000Y-70245000D03*
%TO.P,J1,A8,SBU1*%
%TO.N,unconnected-(J1-SBU1-PadA8)*%
X105320000Y-70245000D03*
D30*
%TO.P,J1,A9,VBUS*%
%TO.N,VCC_5V*%
X106470000Y-70245000D03*
%TO.P,J1,A12,GND*%
%TO.N,GND*%
X107270000Y-70245000D03*
%TO.P,J1,B1,GND*%
X107270000Y-70245000D03*
%TO.P,J1,B4,VBUS*%
%TO.N,VCC_5V*%
X106470000Y-70245000D03*
D31*
%TO.P,J1,B5,CC2*%
%TO.N,Net-(J1-CC2)*%
X105820000Y-70245000D03*
%TO.P,J1,B6,D+*%
%TO.N,Net-(J1-D+-PadA6)*%
X104820000Y-70245000D03*
%TO.P,J1,B7,D-*%
%TO.N,Net-(J1-D--PadA7)*%
X103320000Y-70245000D03*
%TO.P,J1,B8,SBU2*%
%TO.N,unconnected-(J1-SBU2-PadB8)*%
X102320000Y-70245000D03*
D30*
%TO.P,J1,B9,VBUS*%
%TO.N,VCC_5V*%
X101670000Y-70245000D03*
%TO.P,J1,B12,GND*%
%TO.N,GND*%
X100870000Y-70245000D03*
D32*
%TO.P,J1,S1,SHIELD*%
X99750000Y-70820000D03*
D33*
X99750000Y-75000000D03*
D32*
X108390000Y-70820000D03*
D33*
X108390000Y-75000000D03*
%TD*%
D34*
%TO.P,SW2,1,1*%
%TO.N,GND*%
X114150000Y-76400000D03*
X114150000Y-70400000D03*
%TO.P,SW2,2,2*%
%TO.N,0*%
X117900000Y-76400000D03*
X117900000Y-70400000D03*
%TD*%
D35*
%TO.P,C5,1*%
%TO.N,0*%
X112500000Y-74975000D03*
%TO.P,C5,2*%
%TO.N,GND*%
X112500000Y-76525000D03*
%TD*%
D36*
%TO.P,U5,1,RO*%
%TO.N,Net-(U5-RO)*%
X105287500Y-62655000D03*
%TO.P,U5,2,~{RE}*%
%TO.N,2*%
X105287500Y-61385000D03*
%TO.P,U5,3,DE*%
%TO.N,3*%
X105287500Y-60115000D03*
%TO.P,U5,4,DI*%
%TO.N,4*%
X105287500Y-58845000D03*
%TO.P,U5,5,GND*%
%TO.N,GND*%
X100212500Y-58845000D03*
%TO.P,U5,6,A*%
%TO.N,DMX+*%
X100212500Y-60115000D03*
%TO.P,U5,7,B*%
%TO.N,DMX-*%
X100212500Y-61385000D03*
%TO.P,U5,8,VCC*%
%TO.N,VCC_5V*%
X100212500Y-62655000D03*
%TD*%
D37*
%TO.N,Net-(U3-EN)*%
X125987500Y-60650000D03*
X132500000Y-64500000D03*
%TO.N,14*%
X120000000Y-65250000D03*
X113208952Y-63250161D03*
%TO.N,1*%
X129550000Y-62500000D03*
X104750000Y-68162500D03*
%TO.N,2*%
X105287500Y-61385000D03*
X128700000Y-62500000D03*
%TO.N,0*%
X131125000Y-75375000D03*
X117900000Y-76400000D03*
%TO.N,4*%
X105287500Y-58845000D03*
X127000000Y-62500000D03*
%TO.N,GND*%
X103750000Y-72000000D03*
X122500000Y-63500000D03*
X112250000Y-59500000D03*
X113750000Y-66350000D03*
X124750000Y-59500000D03*
X130250000Y-69500000D03*
X122500000Y-69500000D03*
X113750000Y-68250000D03*
X100250000Y-65000000D03*
X103250000Y-66337500D03*
X132750000Y-66500000D03*
X106750000Y-63500000D03*
X122500000Y-74000000D03*
X102750000Y-59250000D03*
X94250000Y-67500000D03*
X127000000Y-74000000D03*
X117000000Y-74000000D03*
X92500000Y-75750000D03*
X114000000Y-73750000D03*
X121750000Y-59500000D03*
X130250000Y-66500000D03*
X103750000Y-75250000D03*
X117500000Y-63250000D03*
X104750000Y-75250000D03*
X114008949Y-63247017D03*
X124750000Y-65500000D03*
X129750000Y-59750000D03*
X97000000Y-73250000D03*
X132750000Y-74000000D03*
X120150000Y-60650000D03*
X110750000Y-74250000D03*
X103000000Y-62500000D03*
X94000000Y-59250000D03*
%TO.N,VCC_5V*%
X117700000Y-65800000D03*
X96750000Y-71000000D03*
%TO.N,D+*%
X120000000Y-70350000D03*
X110525000Y-66250000D03*
%TO.N,D-*%
X110525000Y-68150000D03*
X120000000Y-69500000D03*
%TO.N,3*%
X105287500Y-60115000D03*
X127850000Y-62500000D03*
%TO.N,Net-(J1-CC2)*%
X106250000Y-68162500D03*
X104750000Y-72000000D03*
%TD*%
D38*
%TO.N,VCC_5V*%
X106470000Y-70245000D02*
X106470000Y-70714000D01*
X106470000Y-70714000D02*
X106284000Y-70900000D01*
X106284000Y-70900000D02*
X106284000Y-71600008D01*
X96750000Y-71000000D02*
X97362500Y-71000000D01*
X97362500Y-71000000D02*
X100250000Y-68112500D01*
%TO.N,Net-(U3-EN)*%
X132601000Y-75799000D02*
X132601000Y-76151000D01*
X132249000Y-75799000D02*
X132601000Y-75799000D01*
X132601000Y-76151000D02*
X132950000Y-76500000D01*
X132000000Y-65000000D02*
X132000000Y-75550000D01*
X124262500Y-60650000D02*
X125987500Y-60650000D01*
X132500000Y-64500000D02*
X132000000Y-65000000D01*
X132000000Y-75550000D02*
X132249000Y-75799000D01*
%TO.N,14*%
X113250000Y-63209113D02*
X113250000Y-62125000D01*
X113208952Y-63250161D02*
X113250000Y-63209113D01*
X113250000Y-62125000D02*
X110125000Y-59000000D01*
%TO.N,1*%
X104750000Y-68162500D02*
X103250000Y-68162500D01*
%TO.N,0*%
X130500000Y-62600000D02*
X130400000Y-62500000D01*
X130500000Y-63500000D02*
X130500000Y-62600000D01*
X131250000Y-75250000D02*
X131250000Y-64250000D01*
X116475000Y-74975000D02*
X112500000Y-74975000D01*
X117900000Y-70400000D02*
X117900000Y-76400000D01*
X112500000Y-74975000D02*
X112500000Y-73575000D01*
X131125000Y-75375000D02*
X131250000Y-75250000D01*
X131250000Y-64250000D02*
X130500000Y-63500000D01*
X117900000Y-76400000D02*
X116475000Y-74975000D01*
%TO.N,GND*%
X120000000Y-62500000D02*
X120000000Y-60800000D01*
X114150000Y-69150000D02*
X115050000Y-68250000D01*
D39*
X115050000Y-67750000D02*
X115050000Y-68250000D01*
D38*
X122537500Y-60650000D02*
X120150000Y-60650000D01*
X106250000Y-66337500D02*
X107112500Y-67200000D01*
D40*
X113100000Y-66050000D02*
X113100000Y-65800000D01*
D38*
X112500000Y-76525000D02*
X109915000Y-76525000D01*
X106250000Y-66337500D02*
X105337500Y-67250000D01*
X134000000Y-62500000D02*
X133787500Y-62287500D01*
D39*
X113750000Y-66350000D02*
X113750000Y-66450000D01*
D38*
X109915000Y-76525000D02*
X108390000Y-75000000D01*
X107112500Y-67200000D02*
X108250000Y-67200000D01*
X114150000Y-70400000D02*
X114150000Y-69150000D01*
X133787500Y-58875000D02*
X134012500Y-58650000D01*
X99655000Y-58845000D02*
X100212500Y-58845000D01*
X114150000Y-76400000D02*
X112625000Y-76400000D01*
X110087500Y-62500000D02*
X106250000Y-66337500D01*
X104162500Y-67250000D02*
X103250000Y-66337500D01*
X97750000Y-63150000D02*
X97750000Y-60750000D01*
X100870000Y-70245000D02*
X100325000Y-70245000D01*
X105337500Y-67250000D02*
X104162500Y-67250000D01*
X97750000Y-60750000D02*
X99655000Y-58845000D01*
X101750000Y-66337500D02*
X100300000Y-66337500D01*
X96900000Y-64000000D02*
X97750000Y-63150000D01*
X120000000Y-60800000D02*
X120150000Y-60650000D01*
X100325000Y-70245000D02*
X99750000Y-70820000D01*
X103250000Y-66337500D02*
X101750000Y-66337500D01*
X108390000Y-70820000D02*
X107845000Y-70820000D01*
D39*
X113750000Y-66450000D02*
X115050000Y-67750000D01*
D38*
X110125000Y-62500000D02*
X110087500Y-62500000D01*
X112625000Y-76400000D02*
X112500000Y-76525000D01*
D39*
X113100000Y-65800000D02*
X113650000Y-66350000D01*
D38*
X133787500Y-62287500D02*
X133787500Y-58875000D01*
D39*
X113650000Y-66350000D02*
X113750000Y-66350000D01*
D38*
X107845000Y-70820000D02*
X107270000Y-70245000D01*
%TO.N,VCC_5V*%
X108721785Y-72171000D02*
X111750000Y-69142785D01*
X101670000Y-70245000D02*
X101670000Y-69532500D01*
X111187499Y-67200000D02*
X110525000Y-67200000D01*
X106854992Y-72171000D02*
X108721785Y-72171000D01*
X106470000Y-72030000D02*
X105500000Y-73000000D01*
X101670000Y-70853992D02*
X101670000Y-70245000D01*
X99474000Y-67336500D02*
X100250000Y-68112500D01*
X103408004Y-73000000D02*
X101856000Y-71447996D01*
X111750000Y-62375000D02*
X108375000Y-59000000D01*
X101670000Y-69532500D02*
X100250000Y-68112500D01*
X111750000Y-67762501D02*
X111187499Y-67200000D01*
X99474000Y-63393500D02*
X99474000Y-67336500D01*
D39*
X116950000Y-66550000D02*
X117700000Y-65800000D01*
D38*
X101856000Y-71447996D02*
X101856000Y-71039992D01*
D39*
X116950000Y-68250000D02*
X116950000Y-66550000D01*
D38*
X100212500Y-62655000D02*
X99474000Y-63393500D01*
X110879468Y-67200000D02*
X111750000Y-66329468D01*
X106284000Y-71600008D02*
X106470000Y-71786008D01*
X110525000Y-67200000D02*
X110879468Y-67200000D01*
X101856000Y-71039992D02*
X101670000Y-70853992D01*
X105500000Y-73000000D02*
X103408004Y-73000000D01*
X106470000Y-71786008D02*
X106470000Y-72030000D01*
X111750000Y-69142785D02*
X111750000Y-67762501D01*
X111750000Y-66329468D02*
X111750000Y-62375000D01*
X106284000Y-71600008D02*
X106854992Y-72171000D01*
%TO.N,VCC_3.3V*%
X127812500Y-59812500D02*
X126750000Y-58750000D01*
X116149000Y-69878000D02*
X116149000Y-66549000D01*
X131250000Y-62500000D02*
X131250000Y-60962500D01*
X127812500Y-60650000D02*
X127812500Y-59812500D01*
X116149000Y-66549000D02*
X115400000Y-65800000D01*
X132137500Y-58800000D02*
X132137500Y-58750000D01*
D39*
X115400000Y-65800000D02*
X115400000Y-59500000D01*
D38*
X114102000Y-71925000D02*
X116149000Y-69878000D01*
X131862500Y-60350000D02*
X131862500Y-59075000D01*
X132137500Y-58750000D02*
X126750000Y-58750000D01*
D39*
X115400000Y-59500000D02*
X119400000Y-59500000D01*
X119400000Y-59500000D02*
X120150000Y-58750000D01*
D38*
X120150000Y-58750000D02*
X126750000Y-58750000D01*
X131250000Y-60962500D02*
X131862500Y-60350000D01*
X112500000Y-71925000D02*
X114102000Y-71925000D01*
X131862500Y-59075000D02*
X132137500Y-58800000D01*
%TO.N,DMX+*%
X98523000Y-60817001D02*
X99225001Y-60115000D01*
X96900000Y-66500000D02*
X98523000Y-64877000D01*
X98523000Y-64877000D02*
X98523000Y-60817001D01*
X99225001Y-60115000D02*
X100212500Y-60115000D01*
%TO.N,DMX-*%
X98924000Y-61686001D02*
X98924000Y-67176000D01*
X100212500Y-61385000D02*
X99225001Y-61385000D01*
X99225001Y-61385000D02*
X98924000Y-61686001D01*
X98924000Y-67176000D02*
X97600000Y-68500000D01*
X97600000Y-68500000D02*
X96900000Y-68500000D01*
%TO.N,Net-(J1-D--PadA7)*%
X103320000Y-70245000D02*
X103320000Y-69569076D01*
X104320000Y-70853824D02*
X104052824Y-71121000D01*
X103921076Y-68968000D02*
X107432000Y-68968000D01*
X107432000Y-68968000D02*
X108250000Y-68150000D01*
X103320000Y-70853824D02*
X103320000Y-70245000D01*
X103320000Y-69569076D02*
X103921076Y-68968000D01*
X104052824Y-71121000D02*
X103587176Y-71121000D01*
X104320000Y-70245000D02*
X104320000Y-70853824D01*
X103587176Y-71121000D02*
X103320000Y-70853824D01*
%TO.N,Net-(J1-CC2)*%
X104750000Y-72000000D02*
X105820000Y-70930000D01*
X105820000Y-70930000D02*
X105820000Y-70245000D01*
%TO.N,Net-(J1-D+-PadA6)*%
X105087176Y-69369000D02*
X108335468Y-69369000D01*
X104820000Y-69636176D02*
X104552824Y-69369000D01*
X104820000Y-70245000D02*
X104820000Y-69636176D01*
X108335468Y-69369000D02*
X109250000Y-68454468D01*
X109000000Y-66250000D02*
X108250000Y-66250000D01*
X104087176Y-69369000D02*
X103820000Y-69636176D01*
X109250000Y-66500000D02*
X109000000Y-66250000D01*
X109250000Y-68454468D02*
X109250000Y-66500000D01*
X104552824Y-69369000D02*
X104087176Y-69369000D01*
X103820000Y-69636176D02*
X103820000Y-70245000D01*
X104820000Y-69636176D02*
X105087176Y-69369000D01*
%TO.N,Net-(J1-CC1)*%
X102820000Y-70245000D02*
X102820000Y-69232500D01*
X102820000Y-69232500D02*
X101750000Y-68162500D01*
%TO.N,Net-(U5-RO)*%
X105000000Y-62942500D02*
X105287500Y-62655000D01*
X105000000Y-66337500D02*
X105000000Y-62942500D01*
%TD*%
%TA.AperFunction,Conductor*%
%TO.N,GND*%
G36*
X96017026Y-58020185D02*
G01*
X96062781Y-58072989D01*
X96072725Y-58142147D01*
X96050305Y-58197386D01*
X96000998Y-58265250D01*
X95900817Y-58461864D01*
X95832631Y-58671722D01*
X95798112Y-58889663D01*
X95798112Y-59110336D01*
X95832631Y-59328277D01*
X95900817Y-59538135D01*
X95932095Y-59599521D01*
X95986716Y-59706720D01*
X96001000Y-59734752D01*
X96130694Y-59913262D01*
X96130698Y-59913267D01*
X96286732Y-60069301D01*
X96286737Y-60069305D01*
X96401655Y-60152797D01*
X96465251Y-60199002D01*
X96629132Y-60282504D01*
X96661864Y-60299182D01*
X96723893Y-60319336D01*
X96871724Y-60367369D01*
X96972664Y-60383356D01*
X97089664Y-60401888D01*
X97089669Y-60401888D01*
X97310336Y-60401888D01*
X97415991Y-60385153D01*
X97528276Y-60367369D01*
X97738138Y-60299181D01*
X97934749Y-60199002D01*
X98113269Y-60069300D01*
X98269300Y-59913269D01*
X98399002Y-59734749D01*
X98499181Y-59538138D01*
X98501531Y-59530908D01*
X98543044Y-59403140D01*
X98567369Y-59328276D01*
X98567369Y-59328272D01*
X98567451Y-59328022D01*
X98606888Y-59270346D01*
X98671246Y-59243147D01*
X98740093Y-59255061D01*
X98791498Y-59302188D01*
X98862161Y-59419077D01*
X98862164Y-59419081D01*
X98975918Y-59532835D01*
X98975920Y-59532836D01*
X99000994Y-59547994D01*
X99002650Y-59549803D01*
X99004996Y-59550519D01*
X99026117Y-59575427D01*
X99048183Y-59599521D01*
X99048598Y-59601938D01*
X99050184Y-59603808D01*
X99054486Y-59636183D01*
X99060022Y-59668381D01*
X99059165Y-59671392D01*
X99059388Y-59673069D01*
X99053503Y-59691290D01*
X99049084Y-59706825D01*
X99048224Y-59708655D01*
X98989818Y-59823285D01*
X98987492Y-59837966D01*
X98980011Y-59853896D01*
X98968045Y-59867410D01*
X98960312Y-59883721D01*
X98955454Y-59888864D01*
X98242531Y-60601787D01*
X98242530Y-60601789D01*
X98219214Y-60642175D01*
X98205749Y-60665497D01*
X98205747Y-60665500D01*
X98196386Y-60681713D01*
X98172500Y-60770857D01*
X98172500Y-62826000D01*
X98152815Y-62893039D01*
X98100011Y-62938794D01*
X98048500Y-62950000D01*
X97000000Y-62950000D01*
X97000000Y-65050000D01*
X97554956Y-65050000D01*
X97621995Y-65069685D01*
X97667750Y-65122489D01*
X97677694Y-65191647D01*
X97648669Y-65255203D01*
X97642637Y-65261681D01*
X97241137Y-65663181D01*
X97179814Y-65696666D01*
X97153456Y-65699500D01*
X95475323Y-65699500D01*
X95402264Y-65714032D01*
X95402260Y-65714033D01*
X95319399Y-65769399D01*
X95264033Y-65852260D01*
X95264032Y-65852264D01*
X95249500Y-65925321D01*
X95249500Y-67074678D01*
X95264032Y-67147735D01*
X95264033Y-67147739D01*
X95264034Y-67147740D01*
X95319399Y-67230601D01*
X95379673Y-67270874D01*
X95402260Y-67285966D01*
X95402264Y-67285967D01*
X95475321Y-67300499D01*
X95475324Y-67300500D01*
X98004456Y-67300500D01*
X98025701Y-67306738D01*
X98047790Y-67308318D01*
X98058573Y-67316390D01*
X98071495Y-67320185D01*
X98085994Y-67336918D01*
X98103723Y-67350190D01*
X98108430Y-67362810D01*
X98117250Y-67372989D01*
X98120401Y-67394906D01*
X98128140Y-67415654D01*
X98125277Y-67428814D01*
X98127194Y-67442147D01*
X98117994Y-67462290D01*
X98113288Y-67483927D01*
X98100019Y-67501652D01*
X98098169Y-67505703D01*
X98092137Y-67512181D01*
X97941137Y-67663181D01*
X97879814Y-67696666D01*
X97853456Y-67699500D01*
X95475323Y-67699500D01*
X95402264Y-67714032D01*
X95402260Y-67714033D01*
X95319399Y-67769399D01*
X95264033Y-67852260D01*
X95264032Y-67852264D01*
X95249500Y-67925321D01*
X95249500Y-69074678D01*
X95264032Y-69147735D01*
X95264033Y-69147739D01*
X95264034Y-69147740D01*
X95319399Y-69230601D01*
X95386336Y-69275326D01*
X95402260Y-69285966D01*
X95402264Y-69285967D01*
X95475321Y-69300499D01*
X95475324Y-69300500D01*
X95475326Y-69300500D01*
X98024676Y-69300500D01*
X98024677Y-69300499D01*
X98097740Y-69285966D01*
X98180601Y-69230601D01*
X98235966Y-69147740D01*
X98250500Y-69074674D01*
X98250500Y-68396543D01*
X98270185Y-68329504D01*
X98286815Y-68308866D01*
X99031070Y-67564610D01*
X99092391Y-67531127D01*
X99162082Y-67536111D01*
X99206430Y-67564612D01*
X99488181Y-67846363D01*
X99521666Y-67907686D01*
X99524500Y-67934044D01*
X99524500Y-68290956D01*
X99504815Y-68357995D01*
X99488181Y-68378637D01*
X97703637Y-70163181D01*
X97642314Y-70196666D01*
X97615956Y-70199500D01*
X95475323Y-70199500D01*
X95402264Y-70214032D01*
X95402260Y-70214033D01*
X95319399Y-70269399D01*
X95264033Y-70352260D01*
X95264032Y-70352264D01*
X95249500Y-70425321D01*
X95249500Y-70425326D01*
X95249500Y-71574674D01*
X95249501Y-71574678D01*
X95261709Y-71636055D01*
X95255480Y-71705646D01*
X95212617Y-71760823D01*
X95146727Y-71784067D01*
X95120693Y-71782718D01*
X94914116Y-71750000D01*
X94250000Y-71750000D01*
X94250000Y-72750000D01*
X93750000Y-72750000D01*
X93750000Y-71750000D01*
X93085884Y-71750000D01*
X92860455Y-71785704D01*
X92643395Y-71856230D01*
X92440033Y-71959849D01*
X92255385Y-72094004D01*
X92094004Y-72255385D01*
X91959849Y-72440033D01*
X91856230Y-72643395D01*
X91785704Y-72860455D01*
X91771522Y-72950000D01*
X92824722Y-72950000D01*
X92780667Y-73026306D01*
X92750000Y-73140756D01*
X92750000Y-73259244D01*
X92780667Y-73373694D01*
X92824722Y-73450000D01*
X91771522Y-73450000D01*
X91785704Y-73539544D01*
X91856230Y-73756604D01*
X91959849Y-73959966D01*
X92094004Y-74144614D01*
X92255385Y-74305995D01*
X92440033Y-74440150D01*
X92643395Y-74543769D01*
X92860455Y-74614295D01*
X93085884Y-74650000D01*
X93750000Y-74650000D01*
X93750000Y-73650000D01*
X94250000Y-73650000D01*
X94250000Y-74650000D01*
X94914116Y-74650000D01*
X95139544Y-74614295D01*
X95356604Y-74543769D01*
X95559966Y-74440150D01*
X95744614Y-74305995D01*
X95905995Y-74144614D01*
X96040150Y-73959966D01*
X96143769Y-73756604D01*
X96214295Y-73539544D01*
X96228478Y-73450000D01*
X95175278Y-73450000D01*
X95219333Y-73373694D01*
X95250000Y-73259244D01*
X95250000Y-73140756D01*
X95219333Y-73026306D01*
X95175278Y-72950000D01*
X96228478Y-72950000D01*
X96214295Y-72860455D01*
X96143769Y-72643395D01*
X96040150Y-72440033D01*
X95905995Y-72255385D01*
X95744614Y-72094004D01*
X95649388Y-72024818D01*
X95606723Y-71969488D01*
X95600744Y-71899874D01*
X95633350Y-71838080D01*
X95694189Y-71803722D01*
X95722274Y-71800500D01*
X98024676Y-71800500D01*
X98024677Y-71800499D01*
X98097740Y-71785966D01*
X98180601Y-71730601D01*
X98235966Y-71647740D01*
X98250500Y-71574674D01*
X98250500Y-70659043D01*
X98270185Y-70592004D01*
X98286814Y-70571367D01*
X98538320Y-70319860D01*
X98599642Y-70286377D01*
X98669334Y-70291361D01*
X98725267Y-70333233D01*
X98749684Y-70398697D01*
X98750000Y-70407543D01*
X98750000Y-70570000D01*
X99450000Y-70570000D01*
X99450000Y-71070000D01*
X98750000Y-71070000D01*
X98750000Y-71468495D01*
X98788427Y-71661681D01*
X98788430Y-71661693D01*
X98863807Y-71843671D01*
X98863814Y-71843684D01*
X98973248Y-72007462D01*
X98973251Y-72007466D01*
X99112533Y-72146748D01*
X99112537Y-72146751D01*
X99276315Y-72256185D01*
X99276328Y-72256192D01*
X99458308Y-72331569D01*
X99500000Y-72339862D01*
X99500000Y-71536988D01*
X99509940Y-71554205D01*
X99565795Y-71610060D01*
X99634204Y-71649556D01*
X99710504Y-71670000D01*
X99789496Y-71670000D01*
X99865796Y-71649556D01*
X99934205Y-71610060D01*
X99990060Y-71554205D01*
X100000000Y-71536988D01*
X100000000Y-72339862D01*
X100041690Y-72331569D01*
X100041692Y-72331569D01*
X100223671Y-72256192D01*
X100223684Y-72256185D01*
X100387462Y-72146751D01*
X100387466Y-72146748D01*
X100526748Y-72007466D01*
X100526751Y-72007462D01*
X100636185Y-71843684D01*
X100636186Y-71843682D01*
X100640129Y-71834163D01*
X100683968Y-71779757D01*
X100750261Y-71757689D01*
X100817961Y-71774965D01*
X100823400Y-71778647D01*
X100826634Y-71780514D01*
X100826635Y-71780515D01*
X100866831Y-71803722D01*
X100957776Y-71856230D01*
X100957865Y-71856281D01*
X101104234Y-71895500D01*
X101104236Y-71895500D01*
X101255764Y-71895500D01*
X101255766Y-71895500D01*
X101402135Y-71856281D01*
X101533365Y-71780515D01*
X101533368Y-71780511D01*
X101537316Y-71777482D01*
X101602483Y-71752282D01*
X101670929Y-71766314D01*
X101700492Y-71788170D01*
X103192792Y-73280470D01*
X103250927Y-73314034D01*
X103272716Y-73326614D01*
X103361860Y-73350500D01*
X103361862Y-73350500D01*
X105546142Y-73350500D01*
X105546144Y-73350500D01*
X105635288Y-73326614D01*
X105657077Y-73314034D01*
X105715212Y-73280470D01*
X106511914Y-72483767D01*
X106573235Y-72450284D01*
X106642926Y-72455268D01*
X106661594Y-72464064D01*
X106699528Y-72485966D01*
X106699529Y-72485966D01*
X106719704Y-72497614D01*
X106808848Y-72521500D01*
X106808849Y-72521500D01*
X106808850Y-72521500D01*
X108767927Y-72521500D01*
X108767929Y-72521500D01*
X108857073Y-72497614D01*
X108877248Y-72485966D01*
X108877249Y-72485966D01*
X108936990Y-72451474D01*
X108936989Y-72451474D01*
X108936997Y-72451470D01*
X111536312Y-69852155D01*
X113275000Y-69852155D01*
X113275000Y-70150000D01*
X113900000Y-70150000D01*
X113900000Y-69400000D01*
X113727155Y-69400000D01*
X113667627Y-69406401D01*
X113667620Y-69406403D01*
X113532913Y-69456645D01*
X113532906Y-69456649D01*
X113417812Y-69542809D01*
X113417809Y-69542812D01*
X113331649Y-69657906D01*
X113331645Y-69657913D01*
X113281403Y-69792620D01*
X113281401Y-69792627D01*
X113275000Y-69852155D01*
X111536312Y-69852155D01*
X112030470Y-69357997D01*
X112076614Y-69278073D01*
X112100500Y-69188928D01*
X112100500Y-69096641D01*
X112100500Y-67716357D01*
X112076614Y-67627213D01*
X112067831Y-67612000D01*
X112047175Y-67576222D01*
X112030474Y-67547295D01*
X112030471Y-67547292D01*
X112030470Y-67547289D01*
X111616846Y-67133665D01*
X111612508Y-67125720D01*
X111605260Y-67120295D01*
X111596024Y-67095533D01*
X111583361Y-67072342D01*
X111584006Y-67063312D01*
X111580843Y-67054830D01*
X111586459Y-67029010D01*
X111588345Y-67002650D01*
X111594164Y-66993595D01*
X111595695Y-66986558D01*
X111616841Y-66958307D01*
X111759459Y-66815690D01*
X111820777Y-66782208D01*
X111890469Y-66787192D01*
X111946403Y-66829063D01*
X111958224Y-66848278D01*
X111983393Y-66899026D01*
X112102632Y-67047366D01*
X112102633Y-67047367D01*
X112250974Y-67166607D01*
X112250977Y-67166609D01*
X112421476Y-67251168D01*
X112606175Y-67297102D01*
X112648903Y-67300000D01*
X112850000Y-67300000D01*
X112850000Y-64300000D01*
X112648903Y-64300000D01*
X112606175Y-64302897D01*
X112421476Y-64348831D01*
X112279594Y-64419198D01*
X112210789Y-64431350D01*
X112146337Y-64404373D01*
X112106702Y-64346834D01*
X112100500Y-64308110D01*
X112100500Y-62328858D01*
X112100500Y-62328856D01*
X112076614Y-62239712D01*
X112064962Y-62219530D01*
X112030470Y-62159788D01*
X110132863Y-60262181D01*
X110099378Y-60200858D01*
X110104362Y-60131166D01*
X110146234Y-60075233D01*
X110211698Y-60050816D01*
X110220544Y-60050500D01*
X110574675Y-60050500D01*
X110597367Y-60045986D01*
X110666959Y-60052213D01*
X110709241Y-60079922D01*
X112863181Y-62233862D01*
X112896666Y-62295185D01*
X112899500Y-62321543D01*
X112899500Y-62729727D01*
X112879815Y-62796766D01*
X112863181Y-62817408D01*
X112768445Y-62912143D01*
X112768440Y-62912149D01*
X112695969Y-63037672D01*
X112695968Y-63037676D01*
X112658452Y-63177686D01*
X112658452Y-63322636D01*
X112689620Y-63438955D01*
X112695969Y-63462649D01*
X112768440Y-63588172D01*
X112768442Y-63588174D01*
X112768443Y-63588176D01*
X112870937Y-63690670D01*
X112870938Y-63690671D01*
X112870940Y-63690672D01*
X112996463Y-63763143D01*
X112996464Y-63763143D01*
X112996467Y-63763145D01*
X113136477Y-63800661D01*
X113136480Y-63800661D01*
X113281424Y-63800661D01*
X113281427Y-63800661D01*
X113421437Y-63763145D01*
X113546967Y-63690670D01*
X113649461Y-63588176D01*
X113721936Y-63462646D01*
X113759452Y-63322636D01*
X113759452Y-63177686D01*
X113721936Y-63037676D01*
X113708354Y-63014152D01*
X113649463Y-62912149D01*
X113649458Y-62912143D01*
X113636819Y-62899504D01*
X113603334Y-62838181D01*
X113600500Y-62811823D01*
X113600500Y-62078858D01*
X113600500Y-62078856D01*
X113576614Y-61989712D01*
X113576611Y-61989706D01*
X113530473Y-61909794D01*
X113530470Y-61909791D01*
X113530469Y-61909788D01*
X113465212Y-61844531D01*
X112180530Y-60559849D01*
X110836819Y-59216137D01*
X110803334Y-59154814D01*
X110800500Y-59128456D01*
X110800500Y-58175326D01*
X110795202Y-58148690D01*
X110801431Y-58079098D01*
X110844294Y-58023922D01*
X110910184Y-58000678D01*
X110916820Y-58000500D01*
X119175999Y-58000500D01*
X119243038Y-58020185D01*
X119288793Y-58072989D01*
X119298737Y-58142147D01*
X119275265Y-58198810D01*
X119255238Y-58225562D01*
X119231204Y-58257668D01*
X119231202Y-58257671D01*
X119183079Y-58386698D01*
X119180909Y-58392517D01*
X119174500Y-58452127D01*
X119174500Y-58719000D01*
X119174501Y-58925500D01*
X119154817Y-58992539D01*
X119102013Y-59038294D01*
X119050501Y-59049500D01*
X117672643Y-59049500D01*
X117605604Y-59029815D01*
X117559849Y-58977011D01*
X117549285Y-58938102D01*
X117542736Y-58874000D01*
X117539999Y-58847203D01*
X117484814Y-58680666D01*
X117392712Y-58531344D01*
X117268656Y-58407288D01*
X117158557Y-58339379D01*
X117119336Y-58315187D01*
X117119331Y-58315185D01*
X117117862Y-58314698D01*
X116952797Y-58260001D01*
X116952795Y-58260000D01*
X116850010Y-58249500D01*
X113949998Y-58249500D01*
X113949981Y-58249501D01*
X113847203Y-58260000D01*
X113847200Y-58260001D01*
X113680668Y-58315185D01*
X113680663Y-58315187D01*
X113531342Y-58407289D01*
X113407289Y-58531342D01*
X113315187Y-58680663D01*
X113315186Y-58680666D01*
X113260001Y-58847203D01*
X113260001Y-58847204D01*
X113260000Y-58847204D01*
X113249500Y-58949983D01*
X113249500Y-60050001D01*
X113249501Y-60050019D01*
X113260000Y-60152796D01*
X113260001Y-60152799D01*
X113302091Y-60279815D01*
X113315186Y-60319334D01*
X113407288Y-60468656D01*
X113531344Y-60592712D01*
X113680666Y-60684814D01*
X113847203Y-60739999D01*
X113949991Y-60750500D01*
X114825500Y-60750499D01*
X114892539Y-60770183D01*
X114938294Y-60822987D01*
X114949500Y-60874499D01*
X114949500Y-64452470D01*
X114929815Y-64519509D01*
X114877011Y-64565264D01*
X114860095Y-64571546D01*
X114774614Y-64596380D01*
X114774609Y-64596382D01*
X114638583Y-64676827D01*
X114638574Y-64676834D01*
X114526834Y-64788574D01*
X114526830Y-64788580D01*
X114503983Y-64827213D01*
X114498039Y-64837263D01*
X114446969Y-64884946D01*
X114378228Y-64897449D01*
X114313638Y-64870803D01*
X114280219Y-64829236D01*
X114216607Y-64700974D01*
X114097367Y-64552633D01*
X114097366Y-64552632D01*
X113949025Y-64433392D01*
X113949022Y-64433390D01*
X113778523Y-64348831D01*
X113593824Y-64302897D01*
X113551097Y-64300000D01*
X113350000Y-64300000D01*
X113350000Y-67300000D01*
X113551097Y-67300000D01*
X113593824Y-67297102D01*
X113778523Y-67251168D01*
X113949022Y-67166609D01*
X113949025Y-67166607D01*
X114097366Y-67047367D01*
X114097367Y-67047366D01*
X114216607Y-66899025D01*
X114216609Y-66899022D01*
X114280219Y-66770764D01*
X114327640Y-66719451D01*
X114395275Y-66701921D01*
X114461650Y-66723741D01*
X114487962Y-66748180D01*
X114493519Y-66755095D01*
X114526830Y-66811420D01*
X114587722Y-66872312D01*
X114591939Y-66877559D01*
X114602803Y-66903887D01*
X114616450Y-66928879D01*
X114615957Y-66935764D01*
X114618591Y-66942146D01*
X114613497Y-66970164D01*
X114611466Y-66998571D01*
X114607328Y-67004097D01*
X114606094Y-67010889D01*
X114586659Y-67031707D01*
X114569594Y-67054504D01*
X114561369Y-67058799D01*
X114558416Y-67061963D01*
X114552377Y-67063495D01*
X114534290Y-67072942D01*
X114480884Y-67090639D01*
X114480875Y-67090643D01*
X114331654Y-67182684D01*
X114207684Y-67306654D01*
X114115643Y-67455875D01*
X114115641Y-67455880D01*
X114060494Y-67622302D01*
X114060493Y-67622309D01*
X114050000Y-67725013D01*
X114050000Y-68000000D01*
X114926000Y-68000000D01*
X114993039Y-68019685D01*
X115038794Y-68072489D01*
X115050000Y-68124000D01*
X115050000Y-68250000D01*
X115176000Y-68250000D01*
X115243039Y-68269685D01*
X115288794Y-68322489D01*
X115300000Y-68374000D01*
X115300000Y-69474999D01*
X115349972Y-69474999D01*
X115349986Y-69474998D01*
X115452697Y-69464505D01*
X115619121Y-69409357D01*
X115622093Y-69407972D01*
X115622601Y-69407894D01*
X115622989Y-69407559D01*
X115625745Y-69407162D01*
X115625977Y-69407086D01*
X115625990Y-69407127D01*
X115657105Y-69402653D01*
X115691170Y-69397479D01*
X115691637Y-69397688D01*
X115692147Y-69397615D01*
X115723520Y-69411942D01*
X115754955Y-69425997D01*
X115755236Y-69426426D01*
X115755703Y-69426640D01*
X115774320Y-69455609D01*
X115793196Y-69484473D01*
X115793293Y-69485132D01*
X115793477Y-69485418D01*
X115798500Y-69520353D01*
X115798500Y-69681456D01*
X115778815Y-69748495D01*
X115762181Y-69769137D01*
X115236681Y-70294637D01*
X115175358Y-70328122D01*
X115105666Y-70323138D01*
X115049733Y-70281266D01*
X115025316Y-70215802D01*
X115025000Y-70206956D01*
X115025000Y-69852172D01*
X115024999Y-69852155D01*
X115018598Y-69792627D01*
X115018596Y-69792620D01*
X114968354Y-69657913D01*
X114968352Y-69657911D01*
X114928744Y-69605000D01*
X114924000Y-69605000D01*
X114856961Y-69585315D01*
X114811206Y-69532511D01*
X114800000Y-69481000D01*
X114800000Y-68500000D01*
X114050001Y-68500000D01*
X114050001Y-68774986D01*
X114060494Y-68877697D01*
X114115641Y-69044119D01*
X114115643Y-69044124D01*
X114207684Y-69193345D01*
X114284338Y-69269999D01*
X114304647Y-69278411D01*
X114343039Y-69289685D01*
X114388794Y-69342489D01*
X114400000Y-69394000D01*
X114400000Y-70276000D01*
X114380315Y-70343039D01*
X114327511Y-70388794D01*
X114276000Y-70400000D01*
X114150000Y-70400000D01*
X114150000Y-70526000D01*
X114130315Y-70593039D01*
X114077511Y-70638794D01*
X114026000Y-70650000D01*
X113275000Y-70650000D01*
X113275000Y-70947844D01*
X113281401Y-71007372D01*
X113281403Y-71007379D01*
X113331645Y-71142086D01*
X113331649Y-71142093D01*
X113417809Y-71257187D01*
X113417812Y-71257190D01*
X113536213Y-71345825D01*
X113537436Y-71346185D01*
X113538808Y-71347768D01*
X113540011Y-71348669D01*
X113539815Y-71348930D01*
X113557523Y-71369367D01*
X113579232Y-71391077D01*
X113580202Y-71395540D01*
X113583191Y-71398989D01*
X113587557Y-71429356D01*
X113594081Y-71459351D01*
X113592485Y-71463628D01*
X113593135Y-71468147D01*
X113580385Y-71496063D01*
X113569661Y-71524814D01*
X113566007Y-71527549D01*
X113564110Y-71531703D01*
X113538287Y-71548297D01*
X113513726Y-71566683D01*
X113508100Y-71567697D01*
X113505332Y-71569477D01*
X113470397Y-71574500D01*
X113285480Y-71574500D01*
X113218441Y-71554815D01*
X113184968Y-71518371D01*
X113183311Y-71519595D01*
X113175220Y-71508632D01*
X113097150Y-71402850D01*
X112987882Y-71322207D01*
X112987880Y-71322206D01*
X112859700Y-71277353D01*
X112829270Y-71274500D01*
X112829266Y-71274500D01*
X112170734Y-71274500D01*
X112170730Y-71274500D01*
X112140300Y-71277353D01*
X112140298Y-71277353D01*
X112012119Y-71322206D01*
X112012117Y-71322207D01*
X111902850Y-71402850D01*
X111822207Y-71512117D01*
X111822206Y-71512119D01*
X111777353Y-71640298D01*
X111777353Y-71640300D01*
X111774500Y-71670730D01*
X111774500Y-72179269D01*
X111777353Y-72209699D01*
X111777353Y-72209701D01*
X111822206Y-72337880D01*
X111822207Y-72337882D01*
X111902850Y-72447150D01*
X112012118Y-72527793D01*
X112047487Y-72540169D01*
X112140299Y-72572646D01*
X112170730Y-72575500D01*
X112170734Y-72575500D01*
X112829270Y-72575500D01*
X112859699Y-72572646D01*
X112859701Y-72572646D01*
X112941882Y-72543889D01*
X112987882Y-72527793D01*
X113097150Y-72447150D01*
X113177793Y-72337882D01*
X113177794Y-72337880D01*
X113183311Y-72330405D01*
X113185285Y-72331862D01*
X113224580Y-72291485D01*
X113285480Y-72275500D01*
X114148142Y-72275500D01*
X114148144Y-72275500D01*
X114237288Y-72251614D01*
X114247162Y-72245913D01*
X114317212Y-72205470D01*
X116429470Y-70093212D01*
X116475614Y-70013288D01*
X116480514Y-69995000D01*
X116482746Y-69986673D01*
X116492208Y-69951359D01*
X116499500Y-69924144D01*
X116499500Y-69347136D01*
X116519185Y-69280097D01*
X116571989Y-69234342D01*
X116636755Y-69223847D01*
X116652127Y-69225500D01*
X117247872Y-69225499D01*
X117307483Y-69219091D01*
X117442331Y-69168796D01*
X117557546Y-69082546D01*
X117643796Y-68967331D01*
X117694091Y-68832483D01*
X117700500Y-68772873D01*
X117700499Y-67727128D01*
X117694091Y-67667517D01*
X117692483Y-67663207D01*
X117643797Y-67532671D01*
X117643793Y-67532664D01*
X117557547Y-67417455D01*
X117555141Y-67415654D01*
X117500835Y-67375000D01*
X117450188Y-67337085D01*
X117447451Y-67333429D01*
X117443297Y-67331532D01*
X117426705Y-67305714D01*
X117408318Y-67281151D01*
X117407302Y-67275523D01*
X117405523Y-67272754D01*
X117400500Y-67237819D01*
X117400500Y-67174499D01*
X117420185Y-67107460D01*
X117472989Y-67061705D01*
X117524500Y-67050499D01*
X118138150Y-67050499D01*
X118138162Y-67050499D01*
X118173627Y-67047709D01*
X118325390Y-67003618D01*
X118461420Y-66923170D01*
X118573170Y-66811420D01*
X118653618Y-66675390D01*
X118697709Y-66523627D01*
X118700500Y-66488163D01*
X118700499Y-65111838D01*
X118697709Y-65076373D01*
X118653618Y-64924610D01*
X118575248Y-64792093D01*
X118573172Y-64788583D01*
X118573165Y-64788574D01*
X118461425Y-64676834D01*
X118461416Y-64676827D01*
X118325390Y-64596382D01*
X118325385Y-64596380D01*
X118173633Y-64552292D01*
X118173620Y-64552290D01*
X118138163Y-64549500D01*
X117261849Y-64549500D01*
X117261824Y-64549501D01*
X117226372Y-64552291D01*
X117074614Y-64596380D01*
X117074609Y-64596382D01*
X116938583Y-64676827D01*
X116938574Y-64676834D01*
X116826834Y-64788574D01*
X116826827Y-64788583D01*
X116746382Y-64924609D01*
X116746380Y-64924614D01*
X116702292Y-65076366D01*
X116702290Y-65076379D01*
X116699500Y-65111829D01*
X116699500Y-66112033D01*
X116690856Y-66141469D01*
X116684333Y-66171459D01*
X116680577Y-66176475D01*
X116679815Y-66179072D01*
X116663182Y-66199713D01*
X116612181Y-66250715D01*
X116550858Y-66284201D01*
X116481167Y-66279217D01*
X116425233Y-66237346D01*
X116400815Y-66171882D01*
X116400499Y-66163035D01*
X116400499Y-65111849D01*
X116400498Y-65111824D01*
X116400221Y-65108310D01*
X116397709Y-65076373D01*
X116353618Y-64924610D01*
X116275248Y-64792093D01*
X116273172Y-64788583D01*
X116273165Y-64788574D01*
X116161425Y-64676834D01*
X116161416Y-64676827D01*
X116025390Y-64596382D01*
X116025386Y-64596380D01*
X115939904Y-64571545D01*
X115881019Y-64533938D01*
X115851813Y-64470465D01*
X115850500Y-64452469D01*
X115850500Y-60949986D01*
X118925001Y-60949986D01*
X118935494Y-61052697D01*
X118990641Y-61219119D01*
X118990643Y-61219124D01*
X119082684Y-61368345D01*
X119206656Y-61492317D01*
X119254887Y-61522066D01*
X119301612Y-61574014D01*
X119312835Y-61642976D01*
X119284991Y-61707059D01*
X119264105Y-61726870D01*
X119242809Y-61742813D01*
X119156649Y-61857906D01*
X119156645Y-61857913D01*
X119106403Y-61992620D01*
X119106401Y-61992627D01*
X119100000Y-62052155D01*
X119100000Y-62250000D01*
X119750000Y-62250000D01*
X119750000Y-61594000D01*
X119769685Y-61526961D01*
X119822489Y-61481206D01*
X119874000Y-61470000D01*
X119900000Y-61470000D01*
X119900000Y-60900000D01*
X118925001Y-60900000D01*
X118925001Y-60949986D01*
X115850500Y-60949986D01*
X115850500Y-60874499D01*
X115870185Y-60807460D01*
X115922989Y-60761705D01*
X115974500Y-60750499D01*
X116850002Y-60750499D01*
X116850008Y-60750499D01*
X116952797Y-60739999D01*
X116969441Y-60734483D01*
X116980160Y-60730932D01*
X117005117Y-60722661D01*
X117119334Y-60684814D01*
X117268656Y-60592712D01*
X117392712Y-60468656D01*
X117484814Y-60319334D01*
X117539999Y-60152797D01*
X117548529Y-60069305D01*
X117549286Y-60061897D01*
X117575683Y-59997205D01*
X117632864Y-59957054D01*
X117672644Y-59950500D01*
X118862125Y-59950500D01*
X118929164Y-59970185D01*
X118974919Y-60022989D01*
X118984863Y-60092147D01*
X118979831Y-60113504D01*
X118935494Y-60247302D01*
X118935493Y-60247309D01*
X118925000Y-60350013D01*
X118925000Y-60400000D01*
X121395929Y-60400000D01*
X121411135Y-60391696D01*
X121480827Y-60396677D01*
X121485998Y-60400000D01*
X122287500Y-60400000D01*
X122287500Y-59674999D01*
X122188360Y-59675000D01*
X122188344Y-59675001D01*
X122087347Y-59685319D01*
X121923699Y-59739546D01*
X121923688Y-59739551D01*
X121776965Y-59830052D01*
X121776961Y-59830055D01*
X121655055Y-59951961D01*
X121655052Y-59951965D01*
X121564551Y-60098688D01*
X121564546Y-60098698D01*
X121557609Y-60119634D01*
X121517834Y-60177077D01*
X121453318Y-60203898D01*
X121384542Y-60191581D01*
X121333344Y-60144037D01*
X121322198Y-60119628D01*
X121309360Y-60080884D01*
X121309356Y-60080875D01*
X121217315Y-59931654D01*
X121093345Y-59807684D01*
X120944124Y-59715643D01*
X120944119Y-59715641D01*
X120851859Y-59685069D01*
X120794414Y-59645296D01*
X120767591Y-59580780D01*
X120779906Y-59512004D01*
X120827449Y-59460804D01*
X120847533Y-59451180D01*
X120867328Y-59443797D01*
X120867327Y-59443797D01*
X120867331Y-59443796D01*
X120982546Y-59357546D01*
X121068796Y-59242331D01*
X121091609Y-59181167D01*
X121133480Y-59125233D01*
X121198944Y-59100816D01*
X121207791Y-59100500D01*
X126553456Y-59100500D01*
X126620495Y-59120185D01*
X126641137Y-59136819D01*
X127315324Y-59811006D01*
X127348809Y-59872329D01*
X127343825Y-59942021D01*
X127301955Y-59997953D01*
X127213884Y-60063883D01*
X127129789Y-60176219D01*
X127080748Y-60307700D01*
X127074500Y-60365809D01*
X127074500Y-60934190D01*
X127080748Y-60992299D01*
X127103276Y-61052697D01*
X127128130Y-61119334D01*
X127129789Y-61123780D01*
X127152936Y-61154700D01*
X127213884Y-61236116D01*
X127326222Y-61320212D01*
X127400816Y-61348034D01*
X127457700Y-61369251D01*
X127515809Y-61375499D01*
X127515826Y-61375500D01*
X128109174Y-61375500D01*
X128109190Y-61375499D01*
X128167299Y-61369251D01*
X128169728Y-61368345D01*
X128298778Y-61320212D01*
X128411116Y-61236116D01*
X128495212Y-61123778D01*
X128544251Y-60992299D01*
X128547489Y-60962182D01*
X128550499Y-60934190D01*
X128550500Y-60934173D01*
X128550500Y-60365826D01*
X128550499Y-60365809D01*
X128544251Y-60307700D01*
X128521723Y-60247302D01*
X128495212Y-60176222D01*
X128411116Y-60063884D01*
X128298778Y-59979788D01*
X128291665Y-59977135D01*
X128243665Y-59959231D01*
X128187732Y-59917359D01*
X128163316Y-59851894D01*
X128163000Y-59843050D01*
X128163000Y-59766358D01*
X128163000Y-59766356D01*
X128139114Y-59677212D01*
X128137837Y-59675001D01*
X128102742Y-59614214D01*
X128102741Y-59614211D01*
X128092972Y-59597290D01*
X128092968Y-59597285D01*
X127807863Y-59312181D01*
X127774378Y-59250858D01*
X127779362Y-59181167D01*
X127821233Y-59125233D01*
X127886698Y-59100816D01*
X127895544Y-59100500D01*
X131272713Y-59100500D01*
X131339752Y-59120185D01*
X131378006Y-59159007D01*
X131384559Y-59169543D01*
X131404788Y-59223778D01*
X131484654Y-59330466D01*
X131487479Y-59335007D01*
X131495453Y-59363724D01*
X131505870Y-59391653D01*
X131504700Y-59397028D01*
X131506173Y-59402330D01*
X131497353Y-59430802D01*
X131491019Y-59459926D01*
X131487128Y-59463816D01*
X131485501Y-59469071D01*
X131462692Y-59488252D01*
X131441614Y-59509332D01*
X131435891Y-59510792D01*
X131432028Y-59514042D01*
X131414135Y-59516345D01*
X131382188Y-59524500D01*
X131327130Y-59524500D01*
X131327123Y-59524501D01*
X131267516Y-59530908D01*
X131132671Y-59581202D01*
X131132664Y-59581206D01*
X131017455Y-59667452D01*
X131017452Y-59667455D01*
X130931206Y-59782664D01*
X130931202Y-59782671D01*
X130880908Y-59917517D01*
X130874501Y-59977116D01*
X130874500Y-59977135D01*
X130874500Y-61022870D01*
X130874501Y-61022876D01*
X130880908Y-61082481D01*
X130880909Y-61082483D01*
X130889260Y-61104874D01*
X130891682Y-61111366D01*
X130899500Y-61154700D01*
X130899500Y-61766857D01*
X130879815Y-61833896D01*
X130827011Y-61879651D01*
X130757853Y-61889595D01*
X130706613Y-61869962D01*
X130697741Y-61864034D01*
X130697735Y-61864032D01*
X130624677Y-61849500D01*
X130624674Y-61849500D01*
X130175326Y-61849500D01*
X130175323Y-61849500D01*
X130102264Y-61864032D01*
X130102261Y-61864033D01*
X130043889Y-61903035D01*
X129977211Y-61923911D01*
X129909831Y-61905425D01*
X129906111Y-61903035D01*
X129856612Y-61869962D01*
X129847740Y-61864034D01*
X129847739Y-61864033D01*
X129847738Y-61864033D01*
X129847735Y-61864032D01*
X129774677Y-61849500D01*
X129774674Y-61849500D01*
X129325326Y-61849500D01*
X129325323Y-61849500D01*
X129252264Y-61864032D01*
X129252261Y-61864033D01*
X129193889Y-61903035D01*
X129127211Y-61923911D01*
X129059831Y-61905425D01*
X129056111Y-61903035D01*
X129006612Y-61869962D01*
X128997740Y-61864034D01*
X128997739Y-61864033D01*
X128997738Y-61864033D01*
X128997735Y-61864032D01*
X128924677Y-61849500D01*
X128924674Y-61849500D01*
X128475326Y-61849500D01*
X128475323Y-61849500D01*
X128402264Y-61864032D01*
X128402261Y-61864033D01*
X128343889Y-61903035D01*
X128277211Y-61923911D01*
X128209831Y-61905425D01*
X128206111Y-61903035D01*
X128156612Y-61869962D01*
X128147740Y-61864034D01*
X128147739Y-61864033D01*
X128147738Y-61864033D01*
X128147735Y-61864032D01*
X128074677Y-61849500D01*
X128074674Y-61849500D01*
X127625326Y-61849500D01*
X127625323Y-61849500D01*
X127552264Y-61864032D01*
X127552261Y-61864033D01*
X127493889Y-61903035D01*
X127427211Y-61923911D01*
X127359831Y-61905425D01*
X127356111Y-61903035D01*
X127306612Y-61869962D01*
X127297740Y-61864034D01*
X127297739Y-61864033D01*
X127297738Y-61864033D01*
X127297735Y-61864032D01*
X127224677Y-61849500D01*
X127224674Y-61849500D01*
X126775326Y-61849500D01*
X126775323Y-61849500D01*
X126702264Y-61864032D01*
X126702261Y-61864033D01*
X126643889Y-61903035D01*
X126577211Y-61923911D01*
X126509831Y-61905425D01*
X126506111Y-61903035D01*
X126456612Y-61869962D01*
X126447740Y-61864034D01*
X126447739Y-61864033D01*
X126447738Y-61864033D01*
X126447735Y-61864032D01*
X126374677Y-61849500D01*
X126374674Y-61849500D01*
X125925326Y-61849500D01*
X125925323Y-61849500D01*
X125852264Y-61864032D01*
X125852261Y-61864033D01*
X125793889Y-61903035D01*
X125727211Y-61923911D01*
X125659831Y-61905425D01*
X125656111Y-61903035D01*
X125606612Y-61869962D01*
X125597740Y-61864034D01*
X125597739Y-61864033D01*
X125597738Y-61864033D01*
X125597735Y-61864032D01*
X125524677Y-61849500D01*
X125524674Y-61849500D01*
X125075326Y-61849500D01*
X125075323Y-61849500D01*
X125002264Y-61864032D01*
X125002261Y-61864033D01*
X124943889Y-61903035D01*
X124877211Y-61923911D01*
X124809831Y-61905425D01*
X124806111Y-61903035D01*
X124756612Y-61869962D01*
X124747740Y-61864034D01*
X124747739Y-61864033D01*
X124747738Y-61864033D01*
X124747735Y-61864032D01*
X124674677Y-61849500D01*
X124674674Y-61849500D01*
X124225326Y-61849500D01*
X124225323Y-61849500D01*
X124152264Y-61864032D01*
X124152261Y-61864033D01*
X124093889Y-61903035D01*
X124027211Y-61923911D01*
X123959831Y-61905425D01*
X123956111Y-61903035D01*
X123906612Y-61869962D01*
X123897740Y-61864034D01*
X123897739Y-61864033D01*
X123897738Y-61864033D01*
X123897735Y-61864032D01*
X123824677Y-61849500D01*
X123824674Y-61849500D01*
X123375326Y-61849500D01*
X123375323Y-61849500D01*
X123302264Y-61864032D01*
X123302261Y-61864033D01*
X123243889Y-61903035D01*
X123177211Y-61923911D01*
X123124565Y-61913211D01*
X123114899Y-61908907D01*
X123047740Y-61864034D01*
X122986949Y-61851941D01*
X122974291Y-61846306D01*
X122957798Y-61832287D01*
X122938623Y-61822257D01*
X122931705Y-61810109D01*
X122921054Y-61801056D01*
X122914759Y-61780349D01*
X122904049Y-61761541D01*
X122904797Y-61747580D01*
X122900732Y-61734207D01*
X122906631Y-61713384D01*
X122907790Y-61691772D01*
X122915966Y-61680432D01*
X122919777Y-61666983D01*
X122935996Y-61652656D01*
X122948656Y-61635100D01*
X122966883Y-61625373D01*
X122972142Y-61620728D01*
X122976979Y-61619985D01*
X122985722Y-61615320D01*
X123151300Y-61560453D01*
X123151311Y-61560448D01*
X123298034Y-61469947D01*
X123298038Y-61469944D01*
X123419945Y-61348037D01*
X123457204Y-61287631D01*
X123509152Y-61240906D01*
X123578114Y-61229683D01*
X123637052Y-61253460D01*
X123726222Y-61320212D01*
X123800816Y-61348034D01*
X123857700Y-61369251D01*
X123915809Y-61375499D01*
X123915826Y-61375500D01*
X124609174Y-61375500D01*
X124609190Y-61375499D01*
X124667299Y-61369251D01*
X124669728Y-61368345D01*
X124798778Y-61320212D01*
X124911116Y-61236116D01*
X124995212Y-61123778D01*
X124997673Y-61117179D01*
X125011105Y-61081168D01*
X125024373Y-61063442D01*
X125033574Y-61043297D01*
X125044906Y-61036014D01*
X125052976Y-61025234D01*
X125073721Y-61017495D01*
X125092352Y-61005523D01*
X125114269Y-61002371D01*
X125118440Y-61000816D01*
X125127287Y-61000500D01*
X125172713Y-61000500D01*
X125239752Y-61020185D01*
X125285507Y-61072989D01*
X125288895Y-61081168D01*
X125304785Y-61123773D01*
X125304787Y-61123777D01*
X125318128Y-61141598D01*
X125388884Y-61236116D01*
X125501222Y-61320212D01*
X125575816Y-61348034D01*
X125632700Y-61369251D01*
X125690809Y-61375499D01*
X125690826Y-61375500D01*
X126284174Y-61375500D01*
X126284190Y-61375499D01*
X126342299Y-61369251D01*
X126344728Y-61368345D01*
X126473778Y-61320212D01*
X126586116Y-61236116D01*
X126670212Y-61123778D01*
X126719251Y-60992299D01*
X126722489Y-60962182D01*
X126725499Y-60934190D01*
X126725500Y-60934173D01*
X126725500Y-60365826D01*
X126725499Y-60365809D01*
X126719251Y-60307700D01*
X126696723Y-60247302D01*
X126670212Y-60176222D01*
X126586116Y-60063884D01*
X126517301Y-60012369D01*
X126473780Y-59979789D01*
X126473778Y-59979788D01*
X126447144Y-59969854D01*
X126342299Y-59930748D01*
X126284190Y-59924500D01*
X126284174Y-59924500D01*
X125690826Y-59924500D01*
X125690809Y-59924500D01*
X125632700Y-59930748D01*
X125501219Y-59979789D01*
X125388884Y-60063884D01*
X125304787Y-60176222D01*
X125304785Y-60176226D01*
X125288895Y-60218832D01*
X125275626Y-60236557D01*
X125266426Y-60256703D01*
X125255093Y-60263985D01*
X125247024Y-60274766D01*
X125226278Y-60282504D01*
X125207648Y-60294477D01*
X125185730Y-60297628D01*
X125181560Y-60299184D01*
X125172713Y-60299500D01*
X125127287Y-60299500D01*
X125060248Y-60279815D01*
X125014493Y-60227011D01*
X125011105Y-60218832D01*
X124995214Y-60176226D01*
X124995212Y-60176222D01*
X124995210Y-60176219D01*
X124911116Y-60063884D01*
X124842301Y-60012369D01*
X124798780Y-59979789D01*
X124798778Y-59979788D01*
X124772144Y-59969854D01*
X124667299Y-59930748D01*
X124609190Y-59924500D01*
X124609174Y-59924500D01*
X123915826Y-59924500D01*
X123915809Y-59924500D01*
X123857700Y-59930748D01*
X123726219Y-59979789D01*
X123637054Y-60046539D01*
X123571590Y-60070956D01*
X123503317Y-60056104D01*
X123457204Y-60012369D01*
X123419943Y-59951960D01*
X123298038Y-59830055D01*
X123298034Y-59830052D01*
X123151311Y-59739551D01*
X123151300Y-59739546D01*
X122987652Y-59685319D01*
X122886654Y-59675000D01*
X122787500Y-59675000D01*
X122787500Y-60526000D01*
X122767815Y-60593039D01*
X122715011Y-60638794D01*
X122663500Y-60650000D01*
X122537500Y-60650000D01*
X122537500Y-60776000D01*
X122517815Y-60843039D01*
X122465011Y-60888794D01*
X122413500Y-60900000D01*
X121479064Y-60900000D01*
X121463853Y-60908305D01*
X121394161Y-60903318D01*
X121388998Y-60900000D01*
X120400000Y-60900000D01*
X120400000Y-61656000D01*
X120380315Y-61723039D01*
X120327511Y-61768794D01*
X120276000Y-61780000D01*
X120250000Y-61780000D01*
X120250000Y-62376000D01*
X120230315Y-62443039D01*
X120177511Y-62488794D01*
X120126000Y-62500000D01*
X120000000Y-62500000D01*
X120000000Y-62626000D01*
X119980315Y-62693039D01*
X119927511Y-62738794D01*
X119876000Y-62750000D01*
X119100000Y-62750000D01*
X119100000Y-62947844D01*
X119106401Y-63007372D01*
X119106403Y-63007379D01*
X119156645Y-63142086D01*
X119156647Y-63142088D01*
X119242809Y-63257186D01*
X119242810Y-63257187D01*
X119299811Y-63299858D01*
X119341682Y-63355792D01*
X119349500Y-63399125D01*
X119349500Y-63774678D01*
X119364032Y-63847735D01*
X119364033Y-63847738D01*
X119364033Y-63847739D01*
X119364034Y-63847740D01*
X119378255Y-63869024D01*
X119403035Y-63906111D01*
X119423911Y-63972789D01*
X119405425Y-64040169D01*
X119403035Y-64043889D01*
X119364033Y-64102261D01*
X119364032Y-64102264D01*
X119349500Y-64175321D01*
X119349500Y-64624678D01*
X119364032Y-64697735D01*
X119364033Y-64697738D01*
X119403035Y-64756111D01*
X119423911Y-64822789D01*
X119405425Y-64890169D01*
X119403035Y-64893889D01*
X119364033Y-64952261D01*
X119364032Y-64952264D01*
X119349500Y-65025321D01*
X119349500Y-65474678D01*
X119364032Y-65547735D01*
X119364033Y-65547738D01*
X119364033Y-65547739D01*
X119364034Y-65547740D01*
X119378255Y-65569024D01*
X119403035Y-65606111D01*
X119423911Y-65672789D01*
X119405425Y-65740169D01*
X119403035Y-65743889D01*
X119364033Y-65802261D01*
X119364032Y-65802264D01*
X119349500Y-65875321D01*
X119349500Y-66324678D01*
X119364032Y-66397735D01*
X119364033Y-66397738D01*
X119364033Y-66397739D01*
X119364034Y-66397740D01*
X119374706Y-66413712D01*
X119403035Y-66456111D01*
X119423911Y-66522789D01*
X119405425Y-66590169D01*
X119403035Y-66593889D01*
X119364033Y-66652261D01*
X119364032Y-66652264D01*
X119349500Y-66725321D01*
X119349500Y-67174678D01*
X119364032Y-67247735D01*
X119364033Y-67247738D01*
X119364033Y-67247739D01*
X119364034Y-67247740D01*
X119372527Y-67260451D01*
X119403035Y-67306111D01*
X119423911Y-67372789D01*
X119405425Y-67440169D01*
X119403035Y-67443889D01*
X119364033Y-67502261D01*
X119364032Y-67502264D01*
X119349500Y-67575321D01*
X119349500Y-68024678D01*
X119364032Y-68097735D01*
X119364033Y-68097738D01*
X119364033Y-68097739D01*
X119364034Y-68097740D01*
X119378255Y-68119024D01*
X119403035Y-68156111D01*
X119423911Y-68222789D01*
X119405425Y-68290169D01*
X119403035Y-68293889D01*
X119364033Y-68352261D01*
X119364032Y-68352264D01*
X119349500Y-68425321D01*
X119349500Y-68874678D01*
X119364032Y-68947735D01*
X119364033Y-68947738D01*
X119364033Y-68947739D01*
X119364034Y-68947740D01*
X119374524Y-68963439D01*
X119403035Y-69006111D01*
X119423911Y-69072789D01*
X119405425Y-69140169D01*
X119403035Y-69143889D01*
X119364033Y-69202261D01*
X119364032Y-69202264D01*
X119349500Y-69275321D01*
X119349500Y-69724678D01*
X119364032Y-69797735D01*
X119364033Y-69797738D01*
X119364033Y-69797739D01*
X119364034Y-69797740D01*
X119378255Y-69819024D01*
X119403035Y-69856111D01*
X119423911Y-69922789D01*
X119405425Y-69990169D01*
X119403035Y-69993889D01*
X119364033Y-70052261D01*
X119364032Y-70052264D01*
X119349500Y-70125321D01*
X119349500Y-70574678D01*
X119364032Y-70647735D01*
X119364033Y-70647738D01*
X119364033Y-70647739D01*
X119364034Y-70647740D01*
X119371586Y-70659043D01*
X119403035Y-70706111D01*
X119423911Y-70772789D01*
X119405425Y-70840169D01*
X119403035Y-70843889D01*
X119364033Y-70902261D01*
X119364032Y-70902264D01*
X119349500Y-70975321D01*
X119349500Y-71424675D01*
X119364032Y-71497735D01*
X119364033Y-71497738D01*
X119364033Y-71497739D01*
X119364034Y-71497740D01*
X119371312Y-71508632D01*
X119403035Y-71556111D01*
X119423911Y-71622789D01*
X119405425Y-71690169D01*
X119403035Y-71693889D01*
X119364033Y-71752261D01*
X119364032Y-71752264D01*
X119349500Y-71825321D01*
X119349500Y-72274678D01*
X119364032Y-72347735D01*
X119364033Y-72347738D01*
X119364033Y-72347739D01*
X119364034Y-72347740D01*
X119378255Y-72369024D01*
X119403035Y-72406111D01*
X119423911Y-72472789D01*
X119405425Y-72540169D01*
X119403035Y-72543889D01*
X119364033Y-72602261D01*
X119364032Y-72602264D01*
X119349500Y-72675321D01*
X119349500Y-73124678D01*
X119364032Y-73197735D01*
X119364033Y-73197738D01*
X119364033Y-73197739D01*
X119364034Y-73197740D01*
X119378255Y-73219024D01*
X119403035Y-73256111D01*
X119423911Y-73322789D01*
X119405425Y-73390169D01*
X119403035Y-73393889D01*
X119364033Y-73452261D01*
X119364032Y-73452264D01*
X119349500Y-73525321D01*
X119349500Y-73974678D01*
X119364032Y-74047735D01*
X119364033Y-74047738D01*
X119364033Y-74047739D01*
X119364034Y-74047740D01*
X119378255Y-74069024D01*
X119403035Y-74106111D01*
X119423911Y-74172789D01*
X119405425Y-74240169D01*
X119403035Y-74243889D01*
X119364033Y-74302261D01*
X119364032Y-74302264D01*
X119349500Y-74375321D01*
X119349500Y-74824678D01*
X119364032Y-74897735D01*
X119364033Y-74897738D01*
X119364033Y-74897739D01*
X119364034Y-74897740D01*
X119378255Y-74919024D01*
X119403035Y-74956111D01*
X119423911Y-75022789D01*
X119405425Y-75090169D01*
X119403035Y-75093889D01*
X119364033Y-75152261D01*
X119364032Y-75152264D01*
X119349500Y-75225321D01*
X119349500Y-75600873D01*
X119329815Y-75667912D01*
X119299812Y-75700139D01*
X119242814Y-75742807D01*
X119242808Y-75742814D01*
X119156649Y-75857906D01*
X119156645Y-75857913D01*
X119106403Y-75992620D01*
X119106401Y-75992627D01*
X119100000Y-76052155D01*
X119100000Y-76250000D01*
X119876000Y-76250000D01*
X119943039Y-76269685D01*
X119988794Y-76322489D01*
X120000000Y-76374000D01*
X120000000Y-76626000D01*
X119980315Y-76693039D01*
X119927511Y-76738794D01*
X119876000Y-76750000D01*
X119100000Y-76750000D01*
X119100000Y-76875500D01*
X119080315Y-76942539D01*
X119027511Y-76988294D01*
X118976000Y-76999500D01*
X118649500Y-76999500D01*
X118582461Y-76979815D01*
X118536706Y-76927011D01*
X118525500Y-76875500D01*
X118525500Y-75875323D01*
X118525499Y-75875321D01*
X118510967Y-75802264D01*
X118510966Y-75802260D01*
X118509330Y-75799811D01*
X118455601Y-75719399D01*
X118394449Y-75678539D01*
X118372739Y-75664033D01*
X118372737Y-75664032D01*
X118350307Y-75659571D01*
X118288397Y-75627185D01*
X118253823Y-75566469D01*
X118250500Y-75537954D01*
X118250500Y-71262045D01*
X118270185Y-71195006D01*
X118322989Y-71149251D01*
X118350307Y-71140428D01*
X118372740Y-71135966D01*
X118455601Y-71080601D01*
X118510966Y-70997740D01*
X118525500Y-70924674D01*
X118525500Y-69875326D01*
X118525500Y-69875323D01*
X118525499Y-69875321D01*
X118510967Y-69802264D01*
X118510966Y-69802260D01*
X118507946Y-69797740D01*
X118455601Y-69719399D01*
X118372740Y-69664034D01*
X118372739Y-69664033D01*
X118372735Y-69664032D01*
X118299677Y-69649500D01*
X118299674Y-69649500D01*
X117500326Y-69649500D01*
X117500323Y-69649500D01*
X117427264Y-69664032D01*
X117427260Y-69664033D01*
X117344399Y-69719399D01*
X117289033Y-69802260D01*
X117289032Y-69802264D01*
X117274500Y-69875321D01*
X117274500Y-70924678D01*
X117289032Y-70997735D01*
X117289033Y-70997739D01*
X117289034Y-70997740D01*
X117344399Y-71080601D01*
X117427260Y-71135966D01*
X117449690Y-71140427D01*
X117511601Y-71172811D01*
X117546176Y-71233526D01*
X117549500Y-71262045D01*
X117549500Y-75254456D01*
X117529815Y-75321495D01*
X117477011Y-75367250D01*
X117407853Y-75377194D01*
X117344297Y-75348169D01*
X117337819Y-75342137D01*
X116690213Y-74694531D01*
X116690208Y-74694527D01*
X116610290Y-74648387D01*
X116610285Y-74648385D01*
X116608415Y-74647884D01*
X116608415Y-74647883D01*
X116537938Y-74629000D01*
X116521144Y-74624500D01*
X116521143Y-74624500D01*
X113296783Y-74624500D01*
X113229744Y-74604815D01*
X113183989Y-74552011D01*
X113180610Y-74543857D01*
X113171628Y-74519774D01*
X113089687Y-74410313D01*
X113016285Y-74355365D01*
X112974415Y-74299432D01*
X112969431Y-74229740D01*
X113002916Y-74168417D01*
X113016950Y-74156339D01*
X113097150Y-74097150D01*
X113177793Y-73987882D01*
X113200219Y-73923790D01*
X113222646Y-73859701D01*
X113222646Y-73859699D01*
X113225500Y-73829269D01*
X113225500Y-73320730D01*
X113222646Y-73290300D01*
X113222646Y-73290298D01*
X113177793Y-73162119D01*
X113177792Y-73162117D01*
X113150161Y-73124678D01*
X113097150Y-73052850D01*
X112987882Y-72972207D01*
X112987880Y-72972206D01*
X112859700Y-72927353D01*
X112829270Y-72924500D01*
X112829266Y-72924500D01*
X112170734Y-72924500D01*
X112170730Y-72924500D01*
X112140300Y-72927353D01*
X112140298Y-72927353D01*
X112012119Y-72972206D01*
X112012117Y-72972207D01*
X111902850Y-73052850D01*
X111822207Y-73162117D01*
X111822206Y-73162119D01*
X111777353Y-73290298D01*
X111777353Y-73290300D01*
X111774500Y-73320730D01*
X111774500Y-73829269D01*
X111777353Y-73859699D01*
X111777353Y-73859701D01*
X111822206Y-73987880D01*
X111822207Y-73987882D01*
X111866382Y-74047738D01*
X111902851Y-74097151D01*
X111983035Y-74156329D01*
X112025286Y-74211976D01*
X112030745Y-74281632D01*
X111997678Y-74343182D01*
X111983713Y-74355365D01*
X111910315Y-74410310D01*
X111828373Y-74519771D01*
X111780587Y-74647889D01*
X111774500Y-74704498D01*
X111774500Y-75245481D01*
X111774501Y-75245490D01*
X111780587Y-75302114D01*
X111828373Y-75430228D01*
X111889438Y-75511802D01*
X111913855Y-75577266D01*
X111899003Y-75645539D01*
X111855270Y-75691649D01*
X111797270Y-75727424D01*
X111677427Y-75847267D01*
X111677424Y-75847271D01*
X111588457Y-75991507D01*
X111588452Y-75991518D01*
X111535144Y-76152393D01*
X111525000Y-76251677D01*
X111525000Y-76275000D01*
X113145000Y-76275000D01*
X113145000Y-76274000D01*
X113164685Y-76206961D01*
X113217489Y-76161206D01*
X113269000Y-76150000D01*
X115025000Y-76150000D01*
X115025000Y-75852172D01*
X115024999Y-75852155D01*
X115018598Y-75792627D01*
X115018596Y-75792620D01*
X114968354Y-75657913D01*
X114968350Y-75657906D01*
X114882190Y-75542812D01*
X114876559Y-75537181D01*
X114843074Y-75475858D01*
X114848058Y-75406166D01*
X114889930Y-75350233D01*
X114955394Y-75325816D01*
X114964240Y-75325500D01*
X116278456Y-75325500D01*
X116345495Y-75345185D01*
X116366137Y-75361819D01*
X117238181Y-76233862D01*
X117271666Y-76295185D01*
X117274500Y-76321543D01*
X117274500Y-76875500D01*
X117254815Y-76942539D01*
X117202011Y-76988294D01*
X117150500Y-76999500D01*
X115149000Y-76999500D01*
X115081961Y-76979815D01*
X115036206Y-76927011D01*
X115025000Y-76875500D01*
X115025000Y-76650000D01*
X113605000Y-76650000D01*
X113605000Y-76651000D01*
X113585315Y-76718039D01*
X113532511Y-76763794D01*
X113481000Y-76775000D01*
X111525001Y-76775000D01*
X111525001Y-76798325D01*
X111531598Y-76862899D01*
X111518828Y-76931592D01*
X111470947Y-76982476D01*
X111408240Y-76999500D01*
X98450013Y-76999500D01*
X98382974Y-76979815D01*
X98337219Y-76927011D01*
X98327275Y-76857853D01*
X98349695Y-76802614D01*
X98352811Y-76798325D01*
X98399002Y-76734749D01*
X98499181Y-76538138D01*
X98567369Y-76328276D01*
X98591369Y-76176748D01*
X98601888Y-76110336D01*
X98601888Y-75889663D01*
X98599523Y-75874736D01*
X98608474Y-75805443D01*
X98653468Y-75751989D01*
X98720219Y-75731346D01*
X98787533Y-75750068D01*
X98834040Y-75802211D01*
X98836556Y-75807880D01*
X98863809Y-75873674D01*
X98863814Y-75873684D01*
X98973248Y-76037462D01*
X98973251Y-76037466D01*
X99112533Y-76176748D01*
X99112537Y-76176751D01*
X99276315Y-76286185D01*
X99276328Y-76286192D01*
X99458308Y-76361569D01*
X99500000Y-76369862D01*
X99500000Y-75566988D01*
X99509940Y-75584205D01*
X99565795Y-75640060D01*
X99634204Y-75679556D01*
X99710504Y-75700000D01*
X99789496Y-75700000D01*
X99865796Y-75679556D01*
X99934205Y-75640060D01*
X99990060Y-75584205D01*
X100000000Y-75566988D01*
X100000000Y-76369862D01*
X100041690Y-76361569D01*
X100041692Y-76361569D01*
X100223671Y-76286192D01*
X100223684Y-76286185D01*
X100387462Y-76176751D01*
X100387466Y-76176748D01*
X100526748Y-76037466D01*
X100526751Y-76037462D01*
X100636185Y-75873684D01*
X100636192Y-75873671D01*
X100711569Y-75691693D01*
X100711572Y-75691681D01*
X100749999Y-75498495D01*
X100750000Y-75498492D01*
X100750000Y-75250000D01*
X100050000Y-75250000D01*
X100050000Y-74750000D01*
X100750000Y-74750000D01*
X100750000Y-74501508D01*
X100749999Y-74501504D01*
X107390000Y-74501504D01*
X107390000Y-74750000D01*
X108090000Y-74750000D01*
X108090000Y-75250000D01*
X107390000Y-75250000D01*
X107390000Y-75498495D01*
X107428427Y-75691681D01*
X107428430Y-75691693D01*
X107503807Y-75873671D01*
X107503814Y-75873684D01*
X107613248Y-76037462D01*
X107613251Y-76037466D01*
X107752533Y-76176748D01*
X107752537Y-76176751D01*
X107916315Y-76286185D01*
X107916328Y-76286192D01*
X108098308Y-76361569D01*
X108140000Y-76369862D01*
X108140000Y-75566988D01*
X108149940Y-75584205D01*
X108205795Y-75640060D01*
X108274204Y-75679556D01*
X108350504Y-75700000D01*
X108429496Y-75700000D01*
X108505796Y-75679556D01*
X108574205Y-75640060D01*
X108630060Y-75584205D01*
X108640000Y-75566988D01*
X108640000Y-76369862D01*
X108681690Y-76361569D01*
X108681692Y-76361569D01*
X108863671Y-76286192D01*
X108863684Y-76286185D01*
X109027462Y-76176751D01*
X109027466Y-76176748D01*
X109166748Y-76037466D01*
X109166751Y-76037462D01*
X109276185Y-75873684D01*
X109276192Y-75873671D01*
X109351569Y-75691693D01*
X109351572Y-75691681D01*
X109389999Y-75498495D01*
X109390000Y-75498492D01*
X109390000Y-75250000D01*
X108690000Y-75250000D01*
X108690000Y-74750000D01*
X109390000Y-74750000D01*
X109390000Y-74501508D01*
X109389999Y-74501504D01*
X109351572Y-74308318D01*
X109351569Y-74308306D01*
X109276192Y-74126328D01*
X109276185Y-74126315D01*
X109166751Y-73962537D01*
X109166748Y-73962533D01*
X109027466Y-73823251D01*
X109027462Y-73823248D01*
X108863684Y-73713814D01*
X108863671Y-73713807D01*
X108681691Y-73638429D01*
X108681683Y-73638427D01*
X108640000Y-73630135D01*
X108640000Y-74433011D01*
X108630060Y-74415795D01*
X108574205Y-74359940D01*
X108505796Y-74320444D01*
X108429496Y-74300000D01*
X108350504Y-74300000D01*
X108274204Y-74320444D01*
X108205795Y-74359940D01*
X108149940Y-74415795D01*
X108140000Y-74433011D01*
X108140000Y-73630136D01*
X108139999Y-73630135D01*
X108098316Y-73638427D01*
X108098308Y-73638429D01*
X107916328Y-73713807D01*
X107916315Y-73713814D01*
X107752537Y-73823248D01*
X107752533Y-73823251D01*
X107613251Y-73962533D01*
X107613248Y-73962537D01*
X107503814Y-74126315D01*
X107503807Y-74126328D01*
X107428430Y-74308306D01*
X107428427Y-74308318D01*
X107390000Y-74501504D01*
X100749999Y-74501504D01*
X100711572Y-74308318D01*
X100711569Y-74308306D01*
X100636192Y-74126328D01*
X100636185Y-74126315D01*
X100526751Y-73962537D01*
X100526748Y-73962533D01*
X100387466Y-73823251D01*
X100387462Y-73823248D01*
X100223684Y-73713814D01*
X100223671Y-73713807D01*
X100041691Y-73638429D01*
X100041683Y-73638427D01*
X100000000Y-73630135D01*
X100000000Y-74433011D01*
X99990060Y-74415795D01*
X99934205Y-74359940D01*
X99865796Y-74320444D01*
X99789496Y-74300000D01*
X99710504Y-74300000D01*
X99634204Y-74320444D01*
X99565795Y-74359940D01*
X99509940Y-74415795D01*
X99500000Y-74433011D01*
X99500000Y-73630136D01*
X99499999Y-73630135D01*
X99458316Y-73638427D01*
X99458308Y-73638429D01*
X99276328Y-73713807D01*
X99276315Y-73713814D01*
X99112537Y-73823248D01*
X99112533Y-73823251D01*
X98973251Y-73962533D01*
X98973248Y-73962537D01*
X98863814Y-74126315D01*
X98863807Y-74126328D01*
X98788430Y-74308306D01*
X98788427Y-74308318D01*
X98750000Y-74501504D01*
X98750000Y-74750000D01*
X99450000Y-74750000D01*
X99450000Y-75250000D01*
X98750000Y-75250000D01*
X98750000Y-75450896D01*
X98730315Y-75517935D01*
X98677511Y-75563690D01*
X98608353Y-75573634D01*
X98544797Y-75544609D01*
X98508069Y-75489215D01*
X98501825Y-75470000D01*
X98499181Y-75461862D01*
X98399002Y-75265251D01*
X98324360Y-75162515D01*
X98269305Y-75086737D01*
X98269301Y-75086732D01*
X98113267Y-74930698D01*
X98113262Y-74930694D01*
X97934752Y-74801000D01*
X97934751Y-74800999D01*
X97934749Y-74800998D01*
X97834660Y-74750000D01*
X97738135Y-74700817D01*
X97528277Y-74632631D01*
X97435208Y-74617890D01*
X97310336Y-74598112D01*
X97310331Y-74598112D01*
X97089669Y-74598112D01*
X97089664Y-74598112D01*
X96871722Y-74632631D01*
X96661864Y-74700817D01*
X96465247Y-74801000D01*
X96286737Y-74930694D01*
X96286732Y-74930698D01*
X96130698Y-75086732D01*
X96130694Y-75086737D01*
X96001000Y-75265247D01*
X95900817Y-75461864D01*
X95832631Y-75671722D01*
X95798112Y-75889663D01*
X95798112Y-76110336D01*
X95832631Y-76328277D01*
X95900817Y-76538135D01*
X95983292Y-76700000D01*
X96000998Y-76734749D01*
X96022100Y-76763794D01*
X96050305Y-76802614D01*
X96073785Y-76868421D01*
X96057960Y-76936475D01*
X96007854Y-76985170D01*
X95949987Y-76999500D01*
X91624500Y-76999500D01*
X91557461Y-76979815D01*
X91511706Y-76927011D01*
X91500500Y-76875500D01*
X91500500Y-69721153D01*
X93199500Y-69721153D01*
X93199500Y-69878846D01*
X93230261Y-70033489D01*
X93230264Y-70033501D01*
X93290602Y-70179172D01*
X93290609Y-70179185D01*
X93378210Y-70310288D01*
X93378213Y-70310292D01*
X93489707Y-70421786D01*
X93489711Y-70421789D01*
X93620814Y-70509390D01*
X93620827Y-70509397D01*
X93718853Y-70550000D01*
X93766503Y-70569737D01*
X93921153Y-70600499D01*
X93921156Y-70600500D01*
X93921158Y-70600500D01*
X94078844Y-70600500D01*
X94078845Y-70600499D01*
X94233497Y-70569737D01*
X94379179Y-70509394D01*
X94510289Y-70421789D01*
X94621789Y-70310289D01*
X94709394Y-70179179D01*
X94769737Y-70033497D01*
X94800500Y-69878842D01*
X94800500Y-69721158D01*
X94800500Y-69721155D01*
X94800499Y-69721153D01*
X94782871Y-69632533D01*
X94769737Y-69566503D01*
X94750621Y-69520353D01*
X94709397Y-69420827D01*
X94709390Y-69420814D01*
X94621789Y-69289711D01*
X94621786Y-69289707D01*
X94510292Y-69178213D01*
X94510288Y-69178210D01*
X94379185Y-69090609D01*
X94379172Y-69090602D01*
X94233501Y-69030264D01*
X94233489Y-69030261D01*
X94078845Y-68999500D01*
X94078842Y-68999500D01*
X93921158Y-68999500D01*
X93921155Y-68999500D01*
X93766510Y-69030261D01*
X93766498Y-69030264D01*
X93620827Y-69090602D01*
X93620814Y-69090609D01*
X93489711Y-69178210D01*
X93489707Y-69178213D01*
X93378213Y-69289707D01*
X93378210Y-69289711D01*
X93290609Y-69420814D01*
X93290602Y-69420827D01*
X93230264Y-69566498D01*
X93230261Y-69566510D01*
X93199500Y-69721153D01*
X91500500Y-69721153D01*
X91500500Y-65121153D01*
X93199500Y-65121153D01*
X93199500Y-65278846D01*
X93230261Y-65433489D01*
X93230264Y-65433501D01*
X93290602Y-65579172D01*
X93290609Y-65579185D01*
X93378210Y-65710288D01*
X93378213Y-65710292D01*
X93489707Y-65821786D01*
X93489711Y-65821789D01*
X93620814Y-65909390D01*
X93620827Y-65909397D01*
X93766498Y-65969735D01*
X93766503Y-65969737D01*
X93921153Y-66000499D01*
X93921156Y-66000500D01*
X93921158Y-66000500D01*
X94078844Y-66000500D01*
X94078845Y-66000499D01*
X94233497Y-65969737D01*
X94379179Y-65909394D01*
X94510289Y-65821789D01*
X94621789Y-65710289D01*
X94709394Y-65579179D01*
X94769737Y-65433497D01*
X94800500Y-65278842D01*
X94800500Y-65121158D01*
X94800500Y-65121155D01*
X94800499Y-65121153D01*
X94798054Y-65108863D01*
X94769737Y-64966503D01*
X94769735Y-64966498D01*
X94709397Y-64820827D01*
X94709390Y-64820814D01*
X94621789Y-64689711D01*
X94621786Y-64689707D01*
X94529923Y-64597844D01*
X95000000Y-64597844D01*
X95006401Y-64657372D01*
X95006403Y-64657379D01*
X95056645Y-64792086D01*
X95056649Y-64792093D01*
X95142809Y-64907187D01*
X95142812Y-64907190D01*
X95257906Y-64993350D01*
X95257913Y-64993354D01*
X95392620Y-65043596D01*
X95392627Y-65043598D01*
X95452155Y-65049999D01*
X95452172Y-65050000D01*
X96500000Y-65050000D01*
X96500000Y-64250000D01*
X95000000Y-64250000D01*
X95000000Y-64597844D01*
X94529923Y-64597844D01*
X94510292Y-64578213D01*
X94510288Y-64578210D01*
X94379185Y-64490609D01*
X94379172Y-64490602D01*
X94233501Y-64430264D01*
X94233489Y-64430261D01*
X94078845Y-64399500D01*
X94078842Y-64399500D01*
X93921158Y-64399500D01*
X93921155Y-64399500D01*
X93766510Y-64430261D01*
X93766498Y-64430264D01*
X93620827Y-64490602D01*
X93620814Y-64490609D01*
X93489711Y-64578210D01*
X93489707Y-64578213D01*
X93378213Y-64689707D01*
X93378210Y-64689711D01*
X93290609Y-64820814D01*
X93290602Y-64820827D01*
X93230264Y-64966498D01*
X93230261Y-64966510D01*
X93199500Y-65121153D01*
X91500500Y-65121153D01*
X91500500Y-61550000D01*
X91771522Y-61550000D01*
X92824722Y-61550000D01*
X92780667Y-61626306D01*
X92750000Y-61740756D01*
X92750000Y-61859244D01*
X92780667Y-61973694D01*
X92824722Y-62050000D01*
X91771522Y-62050000D01*
X91785704Y-62139544D01*
X91856230Y-62356604D01*
X91959849Y-62559966D01*
X92094004Y-62744614D01*
X92255385Y-62905995D01*
X92440033Y-63040150D01*
X92643395Y-63143769D01*
X92860455Y-63214295D01*
X93085884Y-63250000D01*
X93750000Y-63250000D01*
X93750000Y-62250000D01*
X94250000Y-62250000D01*
X94250000Y-63250000D01*
X94878314Y-63250000D01*
X94945353Y-63269685D01*
X94991108Y-63322489D01*
X95001603Y-63387257D01*
X95000000Y-63402158D01*
X95000000Y-63750000D01*
X96500000Y-63750000D01*
X96500000Y-62950000D01*
X95999556Y-62950000D01*
X95932517Y-62930315D01*
X95886762Y-62877511D01*
X95876818Y-62808353D01*
X95903689Y-62748956D01*
X95903134Y-62748553D01*
X95905091Y-62745858D01*
X95905271Y-62745462D01*
X95905998Y-62744610D01*
X96040150Y-62559966D01*
X96143769Y-62356604D01*
X96214295Y-62139544D01*
X96228478Y-62050000D01*
X95175278Y-62050000D01*
X95219333Y-61973694D01*
X95250000Y-61859244D01*
X95250000Y-61740756D01*
X95219333Y-61626306D01*
X95175278Y-61550000D01*
X96228478Y-61550000D01*
X96214295Y-61460455D01*
X96143769Y-61243395D01*
X96040150Y-61040033D01*
X95905995Y-60855385D01*
X95744614Y-60694004D01*
X95559966Y-60559849D01*
X95356604Y-60456230D01*
X95139544Y-60385704D01*
X94914116Y-60350000D01*
X94250000Y-60350000D01*
X94250000Y-61350000D01*
X93750000Y-61350000D01*
X93750000Y-60350000D01*
X93085884Y-60350000D01*
X92860455Y-60385704D01*
X92643395Y-60456230D01*
X92440033Y-60559849D01*
X92255385Y-60694004D01*
X92094004Y-60855385D01*
X91959849Y-61040033D01*
X91856230Y-61243395D01*
X91785704Y-61460455D01*
X91771522Y-61550000D01*
X91500500Y-61550000D01*
X91500500Y-58124500D01*
X91520185Y-58057461D01*
X91572989Y-58011706D01*
X91624500Y-58000500D01*
X95949987Y-58000500D01*
X96017026Y-58020185D01*
G37*
%TD.AperFunction*%
%TA.AperFunction,Conductor*%
G36*
X130040167Y-63094572D02*
G01*
X130043861Y-63096946D01*
X130094391Y-63130708D01*
X130139196Y-63184320D01*
X130149500Y-63233810D01*
X130149500Y-63546143D01*
X130161262Y-63590043D01*
X130166265Y-63608712D01*
X130173386Y-63635288D01*
X130173387Y-63635290D01*
X130219527Y-63715208D01*
X130219531Y-63715213D01*
X130863181Y-64358863D01*
X130896666Y-64420186D01*
X130899500Y-64446544D01*
X130899500Y-74797938D01*
X130879815Y-74864977D01*
X130837502Y-74905324D01*
X130786988Y-74934489D01*
X130786982Y-74934493D01*
X130684493Y-75036982D01*
X130684488Y-75036988D01*
X130612017Y-75162511D01*
X130612016Y-75162515D01*
X130574500Y-75302525D01*
X130574500Y-75447475D01*
X130595775Y-75526875D01*
X130600000Y-75558965D01*
X130600000Y-76300000D01*
X131126000Y-76300000D01*
X131134685Y-76302550D01*
X131143647Y-76301262D01*
X131167687Y-76312240D01*
X131193039Y-76319685D01*
X131198966Y-76326525D01*
X131207203Y-76330287D01*
X131221492Y-76352521D01*
X131238794Y-76372489D01*
X131241081Y-76383003D01*
X131244977Y-76389065D01*
X131250000Y-76424000D01*
X131250000Y-76576000D01*
X131230315Y-76643039D01*
X131177511Y-76688794D01*
X131126000Y-76700000D01*
X130524000Y-76700000D01*
X130456961Y-76680315D01*
X130411206Y-76627511D01*
X130400000Y-76576000D01*
X130400000Y-76500000D01*
X130324000Y-76500000D01*
X130256961Y-76480315D01*
X130211206Y-76427511D01*
X130200000Y-76376000D01*
X130200000Y-75600000D01*
X130152155Y-75600000D01*
X130092627Y-75606401D01*
X130092620Y-75606403D01*
X129957913Y-75656645D01*
X129957906Y-75656649D01*
X129842814Y-75742808D01*
X129842809Y-75742813D01*
X129800141Y-75799811D01*
X129744207Y-75841682D01*
X129700874Y-75849500D01*
X129325323Y-75849500D01*
X129252264Y-75864032D01*
X129252261Y-75864033D01*
X129193889Y-75903035D01*
X129127211Y-75923911D01*
X129059831Y-75905425D01*
X129056111Y-75903035D01*
X129012182Y-75873684D01*
X128997740Y-75864034D01*
X128997739Y-75864033D01*
X128997738Y-75864033D01*
X128997735Y-75864032D01*
X128924677Y-75849500D01*
X128924674Y-75849500D01*
X128475326Y-75849500D01*
X128475323Y-75849500D01*
X128402264Y-75864032D01*
X128402261Y-75864033D01*
X128343889Y-75903035D01*
X128277211Y-75923911D01*
X128209831Y-75905425D01*
X128206111Y-75903035D01*
X128162182Y-75873684D01*
X128147740Y-75864034D01*
X128147739Y-75864033D01*
X128147738Y-75864033D01*
X128147735Y-75864032D01*
X128074677Y-75849500D01*
X128074674Y-75849500D01*
X127625326Y-75849500D01*
X127625323Y-75849500D01*
X127552264Y-75864032D01*
X127552261Y-75864033D01*
X127493889Y-75903035D01*
X127427211Y-75923911D01*
X127359831Y-75905425D01*
X127356111Y-75903035D01*
X127312182Y-75873684D01*
X127297740Y-75864034D01*
X127297739Y-75864033D01*
X127297738Y-75864033D01*
X127297735Y-75864032D01*
X127224677Y-75849500D01*
X127224674Y-75849500D01*
X126775326Y-75849500D01*
X126775323Y-75849500D01*
X126702264Y-75864032D01*
X126702261Y-75864033D01*
X126643889Y-75903035D01*
X126577211Y-75923911D01*
X126509831Y-75905425D01*
X126506111Y-75903035D01*
X126462182Y-75873684D01*
X126447740Y-75864034D01*
X126447739Y-75864033D01*
X126447738Y-75864033D01*
X126447735Y-75864032D01*
X126374677Y-75849500D01*
X126374674Y-75849500D01*
X125925326Y-75849500D01*
X125925323Y-75849500D01*
X125852264Y-75864032D01*
X125852261Y-75864033D01*
X125793889Y-75903035D01*
X125727211Y-75923911D01*
X125659831Y-75905425D01*
X125656111Y-75903035D01*
X125612182Y-75873684D01*
X125597740Y-75864034D01*
X125597739Y-75864033D01*
X125597738Y-75864033D01*
X125597735Y-75864032D01*
X125524677Y-75849500D01*
X125524674Y-75849500D01*
X125075326Y-75849500D01*
X125075323Y-75849500D01*
X125002264Y-75864032D01*
X125002261Y-75864033D01*
X124943889Y-75903035D01*
X124877211Y-75923911D01*
X124809831Y-75905425D01*
X124806111Y-75903035D01*
X124762182Y-75873684D01*
X124747740Y-75864034D01*
X124747739Y-75864033D01*
X124747738Y-75864033D01*
X124747735Y-75864032D01*
X124674677Y-75849500D01*
X124674674Y-75849500D01*
X124225326Y-75849500D01*
X124225323Y-75849500D01*
X124152264Y-75864032D01*
X124152261Y-75864033D01*
X124093889Y-75903035D01*
X124027211Y-75923911D01*
X123959831Y-75905425D01*
X123956111Y-75903035D01*
X123912182Y-75873684D01*
X123897740Y-75864034D01*
X123897739Y-75864033D01*
X123897738Y-75864033D01*
X123897735Y-75864032D01*
X123824677Y-75849500D01*
X123824674Y-75849500D01*
X123375326Y-75849500D01*
X123375323Y-75849500D01*
X123302264Y-75864032D01*
X123302261Y-75864033D01*
X123243889Y-75903035D01*
X123177211Y-75923911D01*
X123109831Y-75905425D01*
X123106111Y-75903035D01*
X123062182Y-75873684D01*
X123047740Y-75864034D01*
X123047739Y-75864033D01*
X123047738Y-75864033D01*
X123047735Y-75864032D01*
X122974677Y-75849500D01*
X122974674Y-75849500D01*
X122525326Y-75849500D01*
X122525323Y-75849500D01*
X122452264Y-75864032D01*
X122452261Y-75864033D01*
X122393889Y-75903035D01*
X122327211Y-75923911D01*
X122259831Y-75905425D01*
X122256111Y-75903035D01*
X122212182Y-75873684D01*
X122197740Y-75864034D01*
X122197739Y-75864033D01*
X122197738Y-75864033D01*
X122197735Y-75864032D01*
X122124677Y-75849500D01*
X122124674Y-75849500D01*
X121675326Y-75849500D01*
X121675323Y-75849500D01*
X121602264Y-75864032D01*
X121602261Y-75864033D01*
X121543889Y-75903035D01*
X121477211Y-75923911D01*
X121409831Y-75905425D01*
X121406111Y-75903035D01*
X121362182Y-75873684D01*
X121347740Y-75864034D01*
X121347739Y-75864033D01*
X121347738Y-75864033D01*
X121347735Y-75864032D01*
X121274677Y-75849500D01*
X121274674Y-75849500D01*
X120899126Y-75849500D01*
X120832087Y-75829815D01*
X120811444Y-75813181D01*
X120686818Y-75688554D01*
X120674152Y-75665358D01*
X120658318Y-75644205D01*
X120656203Y-75632486D01*
X120653334Y-75627231D01*
X120653879Y-75619603D01*
X120650500Y-75600873D01*
X120650500Y-75225323D01*
X120650499Y-75225321D01*
X120635967Y-75152264D01*
X120635966Y-75152261D01*
X120635966Y-75152260D01*
X120596964Y-75093888D01*
X120576087Y-75027213D01*
X120594572Y-74959833D01*
X120596964Y-74956111D01*
X120635966Y-74897740D01*
X120650500Y-74824674D01*
X120650500Y-74375326D01*
X120650500Y-74375323D01*
X120650499Y-74375321D01*
X120635967Y-74302264D01*
X120635966Y-74302261D01*
X120635966Y-74302260D01*
X120596964Y-74243888D01*
X120576087Y-74177213D01*
X120594572Y-74109833D01*
X120596964Y-74106111D01*
X120635966Y-74047740D01*
X120650500Y-73974674D01*
X120650500Y-73525326D01*
X120650500Y-73525323D01*
X120650499Y-73525321D01*
X120635967Y-73452264D01*
X120635966Y-73452261D01*
X120635966Y-73452260D01*
X120596964Y-73393888D01*
X120576087Y-73327213D01*
X120594572Y-73259833D01*
X120596964Y-73256111D01*
X120635966Y-73197740D01*
X120650500Y-73124674D01*
X120650500Y-72675326D01*
X120650500Y-72675323D01*
X120650499Y-72675321D01*
X120635967Y-72602264D01*
X120635966Y-72602261D01*
X120635966Y-72602260D01*
X120596964Y-72543888D01*
X120576087Y-72477213D01*
X120594572Y-72409833D01*
X120596964Y-72406111D01*
X120635966Y-72347740D01*
X120650500Y-72274674D01*
X120650500Y-71825326D01*
X120650500Y-71825323D01*
X120650499Y-71825321D01*
X120635967Y-71752264D01*
X120635966Y-71752261D01*
X120635966Y-71752260D01*
X120596964Y-71693888D01*
X120576087Y-71627213D01*
X120594572Y-71559833D01*
X120596964Y-71556111D01*
X120635966Y-71497740D01*
X120641853Y-71468147D01*
X120650500Y-71424675D01*
X120650500Y-70975323D01*
X120650499Y-70975321D01*
X120635967Y-70902264D01*
X120635966Y-70902261D01*
X120635966Y-70902260D01*
X120596964Y-70843888D01*
X120576087Y-70777213D01*
X120594572Y-70709833D01*
X120596964Y-70706111D01*
X120635966Y-70647740D01*
X120650500Y-70574674D01*
X120650500Y-70125326D01*
X120650500Y-70125323D01*
X120650499Y-70125321D01*
X120635967Y-70052264D01*
X120635966Y-70052261D01*
X120635966Y-70052260D01*
X120596964Y-69993888D01*
X120576087Y-69927213D01*
X120594572Y-69859833D01*
X120596964Y-69856111D01*
X120635966Y-69797740D01*
X120650500Y-69724674D01*
X120650500Y-69275326D01*
X120650500Y-69275323D01*
X120650499Y-69275321D01*
X120635967Y-69202264D01*
X120635966Y-69202261D01*
X120635966Y-69202260D01*
X120596964Y-69143888D01*
X120576087Y-69077213D01*
X120594572Y-69009833D01*
X120596964Y-69006111D01*
X120635966Y-68947740D01*
X120650500Y-68874674D01*
X120650500Y-68425326D01*
X120650500Y-68425323D01*
X120650499Y-68425321D01*
X120635967Y-68352264D01*
X120635966Y-68352261D01*
X120635966Y-68352260D01*
X120596964Y-68293888D01*
X120576087Y-68227213D01*
X120594572Y-68159833D01*
X120596964Y-68156111D01*
X120635966Y-68097740D01*
X120650500Y-68024674D01*
X120650500Y-67575326D01*
X120650500Y-67575323D01*
X120650499Y-67575321D01*
X120635967Y-67502264D01*
X120635966Y-67502261D01*
X120635966Y-67502260D01*
X120596964Y-67443888D01*
X120576087Y-67377213D01*
X120594572Y-67309833D01*
X120596964Y-67306111D01*
X120635966Y-67247740D01*
X120650500Y-67174674D01*
X120650500Y-66725326D01*
X120650500Y-66725323D01*
X120650499Y-66725321D01*
X120635967Y-66652264D01*
X120635966Y-66652261D01*
X120635966Y-66652260D01*
X120596964Y-66593888D01*
X120576087Y-66527213D01*
X120594572Y-66459833D01*
X120596964Y-66456111D01*
X120635966Y-66397740D01*
X120650500Y-66324674D01*
X120650500Y-65875326D01*
X120650500Y-65875323D01*
X120650499Y-65875321D01*
X120635967Y-65802264D01*
X120635966Y-65802261D01*
X120635966Y-65802260D01*
X120596964Y-65743888D01*
X120576087Y-65677213D01*
X120594572Y-65609833D01*
X120596964Y-65606111D01*
X120635966Y-65547740D01*
X120650500Y-65474674D01*
X120650500Y-65025326D01*
X120650500Y-65025323D01*
X120650499Y-65025321D01*
X120635967Y-64952264D01*
X120635966Y-64952261D01*
X120635966Y-64952260D01*
X120596964Y-64893888D01*
X120576087Y-64827213D01*
X120594572Y-64759833D01*
X120596964Y-64756111D01*
X120635966Y-64697740D01*
X120650500Y-64624674D01*
X120650500Y-64175326D01*
X120650500Y-64175323D01*
X120650499Y-64175321D01*
X120635967Y-64102264D01*
X120635966Y-64102261D01*
X120635966Y-64102260D01*
X120596964Y-64043888D01*
X120576087Y-63977213D01*
X120594572Y-63909833D01*
X120596964Y-63906111D01*
X120635966Y-63847740D01*
X120650500Y-63774674D01*
X120650500Y-63399125D01*
X120670185Y-63332086D01*
X120686819Y-63311443D01*
X120811445Y-63186818D01*
X120834638Y-63174153D01*
X120855793Y-63158318D01*
X120867512Y-63156203D01*
X120872768Y-63153334D01*
X120880394Y-63153879D01*
X120899126Y-63150500D01*
X121274676Y-63150500D01*
X121274677Y-63150499D01*
X121347740Y-63135966D01*
X121406111Y-63096964D01*
X121472787Y-63076087D01*
X121540167Y-63094572D01*
X121543861Y-63096946D01*
X121602260Y-63135966D01*
X121602262Y-63135966D01*
X121602264Y-63135967D01*
X121675321Y-63150499D01*
X121675324Y-63150500D01*
X121675326Y-63150500D01*
X122124676Y-63150500D01*
X122124677Y-63150499D01*
X122197740Y-63135966D01*
X122256111Y-63096964D01*
X122322787Y-63076087D01*
X122390167Y-63094572D01*
X122393861Y-63096946D01*
X122452260Y-63135966D01*
X122452262Y-63135966D01*
X122452264Y-63135967D01*
X122525321Y-63150499D01*
X122525324Y-63150500D01*
X122525326Y-63150500D01*
X122974676Y-63150500D01*
X122974677Y-63150499D01*
X123047740Y-63135966D01*
X123106111Y-63096964D01*
X123172787Y-63076087D01*
X123240167Y-63094572D01*
X123243861Y-63096946D01*
X123302260Y-63135966D01*
X123302262Y-63135966D01*
X123302264Y-63135967D01*
X123375321Y-63150499D01*
X123375324Y-63150500D01*
X123375326Y-63150500D01*
X123824676Y-63150500D01*
X123824677Y-63150499D01*
X123897740Y-63135966D01*
X123956111Y-63096964D01*
X124022787Y-63076087D01*
X124090167Y-63094572D01*
X124093861Y-63096946D01*
X124152260Y-63135966D01*
X124152262Y-63135966D01*
X124152264Y-63135967D01*
X124225321Y-63150499D01*
X124225324Y-63150500D01*
X124225326Y-63150500D01*
X124674676Y-63150500D01*
X124674677Y-63150499D01*
X124747740Y-63135966D01*
X124806111Y-63096964D01*
X124872787Y-63076087D01*
X124940167Y-63094572D01*
X124943861Y-63096946D01*
X125002260Y-63135966D01*
X125002262Y-63135966D01*
X125002264Y-63135967D01*
X125075321Y-63150499D01*
X125075324Y-63150500D01*
X125075326Y-63150500D01*
X125524676Y-63150500D01*
X125524677Y-63150499D01*
X125597740Y-63135966D01*
X125656111Y-63096964D01*
X125722787Y-63076087D01*
X125790167Y-63094572D01*
X125793861Y-63096946D01*
X125852260Y-63135966D01*
X125852262Y-63135966D01*
X125852264Y-63135967D01*
X125925321Y-63150499D01*
X125925324Y-63150500D01*
X125925326Y-63150500D01*
X126374676Y-63150500D01*
X126374677Y-63150499D01*
X126447740Y-63135966D01*
X126506111Y-63096964D01*
X126572787Y-63076087D01*
X126640167Y-63094572D01*
X126643861Y-63096946D01*
X126702260Y-63135966D01*
X126702262Y-63135966D01*
X126702264Y-63135967D01*
X126775321Y-63150499D01*
X126775324Y-63150500D01*
X126775326Y-63150500D01*
X127224676Y-63150500D01*
X127224677Y-63150499D01*
X127297740Y-63135966D01*
X127356111Y-63096964D01*
X127422787Y-63076087D01*
X127490167Y-63094572D01*
X127493861Y-63096946D01*
X127552260Y-63135966D01*
X127552262Y-63135966D01*
X127552264Y-63135967D01*
X127625321Y-63150499D01*
X127625324Y-63150500D01*
X127625326Y-63150500D01*
X128074676Y-63150500D01*
X128074677Y-63150499D01*
X128147740Y-63135966D01*
X128206111Y-63096964D01*
X128272787Y-63076087D01*
X128340167Y-63094572D01*
X128343861Y-63096946D01*
X128402260Y-63135966D01*
X128402262Y-63135966D01*
X128402264Y-63135967D01*
X128475321Y-63150499D01*
X128475324Y-63150500D01*
X128475326Y-63150500D01*
X128924676Y-63150500D01*
X128924677Y-63150499D01*
X128997740Y-63135966D01*
X129056111Y-63096964D01*
X129122787Y-63076087D01*
X129190167Y-63094572D01*
X129193861Y-63096946D01*
X129252260Y-63135966D01*
X129252262Y-63135966D01*
X129252264Y-63135967D01*
X129325321Y-63150499D01*
X129325324Y-63150500D01*
X129325326Y-63150500D01*
X129774676Y-63150500D01*
X129774677Y-63150499D01*
X129847740Y-63135966D01*
X129906111Y-63096964D01*
X129972787Y-63076087D01*
X130040167Y-63094572D01*
G37*
%TD.AperFunction*%
%TA.AperFunction,Conductor*%
G36*
X134055539Y-58769685D02*
G01*
X134101294Y-58822489D01*
X134112500Y-58874000D01*
X134112500Y-59731000D01*
X134092815Y-59798039D01*
X134071578Y-59816440D01*
X134073819Y-59818681D01*
X134037500Y-59855000D01*
X134037500Y-61470000D01*
X134126000Y-61470000D01*
X134193039Y-61489685D01*
X134238794Y-61542489D01*
X134250000Y-61594000D01*
X134250000Y-63428638D01*
X134230315Y-63495677D01*
X134213681Y-63516319D01*
X134200000Y-63530000D01*
X134200000Y-75470000D01*
X134213681Y-75483681D01*
X134247166Y-75545004D01*
X134250000Y-75571362D01*
X134250000Y-76376000D01*
X134230315Y-76443039D01*
X134177511Y-76488794D01*
X134126000Y-76500000D01*
X133874000Y-76500000D01*
X133806961Y-76480315D01*
X133761206Y-76427511D01*
X133750000Y-76376000D01*
X133750000Y-75650000D01*
X133099999Y-75650000D01*
X133099959Y-75650040D01*
X133038635Y-75683525D01*
X132968944Y-75678539D01*
X132913011Y-75636667D01*
X132904896Y-75624364D01*
X132881469Y-75583788D01*
X132816212Y-75518531D01*
X132816209Y-75518529D01*
X132816205Y-75518526D01*
X132736293Y-75472388D01*
X132736290Y-75472387D01*
X132736289Y-75472386D01*
X132736288Y-75472386D01*
X132647144Y-75448500D01*
X132647143Y-75448500D01*
X132474500Y-75448500D01*
X132407461Y-75428815D01*
X132361706Y-75376011D01*
X132350500Y-75324500D01*
X132350500Y-74847844D01*
X133100000Y-74847844D01*
X133106401Y-74907372D01*
X133106403Y-74907382D01*
X133134110Y-74981668D01*
X133139094Y-75051359D01*
X133134110Y-75068332D01*
X133106403Y-75142617D01*
X133106401Y-75142627D01*
X133100000Y-75202155D01*
X133100000Y-75250000D01*
X133800000Y-75250000D01*
X133800000Y-74800000D01*
X133100000Y-74800000D01*
X133100000Y-74847844D01*
X132350500Y-74847844D01*
X132350500Y-73997844D01*
X133100000Y-73997844D01*
X133106401Y-74057372D01*
X133106403Y-74057382D01*
X133134110Y-74131668D01*
X133139094Y-74201359D01*
X133134110Y-74218332D01*
X133106403Y-74292617D01*
X133106401Y-74292627D01*
X133100000Y-74352155D01*
X133100000Y-74400000D01*
X133800000Y-74400000D01*
X133800000Y-73950000D01*
X133100000Y-73950000D01*
X133100000Y-73997844D01*
X132350500Y-73997844D01*
X132350500Y-73147844D01*
X133100000Y-73147844D01*
X133106401Y-73207372D01*
X133106403Y-73207382D01*
X133134110Y-73281668D01*
X133139094Y-73351359D01*
X133134110Y-73368332D01*
X133106403Y-73442617D01*
X133106401Y-73442627D01*
X133100000Y-73502155D01*
X133100000Y-73550000D01*
X133800000Y-73550000D01*
X133800000Y-73100000D01*
X133100000Y-73100000D01*
X133100000Y-73147844D01*
X132350500Y-73147844D01*
X132350500Y-72297844D01*
X133100000Y-72297844D01*
X133106401Y-72357372D01*
X133106403Y-72357382D01*
X133134110Y-72431668D01*
X133139094Y-72501359D01*
X133134110Y-72518332D01*
X133106403Y-72592617D01*
X133106401Y-72592627D01*
X133100000Y-72652155D01*
X133100000Y-72700000D01*
X133800000Y-72700000D01*
X133800000Y-72250000D01*
X133100000Y-72250000D01*
X133100000Y-72297844D01*
X132350500Y-72297844D01*
X132350500Y-71447844D01*
X133100000Y-71447844D01*
X133106401Y-71507372D01*
X133106403Y-71507382D01*
X133134110Y-71581668D01*
X133139094Y-71651359D01*
X133134110Y-71668332D01*
X133106403Y-71742617D01*
X133106401Y-71742627D01*
X133100000Y-71802155D01*
X133100000Y-71850000D01*
X133800000Y-71850000D01*
X133800000Y-71400000D01*
X133100000Y-71400000D01*
X133100000Y-71447844D01*
X132350500Y-71447844D01*
X132350500Y-70597844D01*
X133100000Y-70597844D01*
X133106401Y-70657372D01*
X133106403Y-70657382D01*
X133134110Y-70731668D01*
X133139094Y-70801359D01*
X133134110Y-70818332D01*
X133106403Y-70892617D01*
X133106401Y-70892627D01*
X133100000Y-70952155D01*
X133100000Y-71000000D01*
X133800000Y-71000000D01*
X133800000Y-70550000D01*
X133100000Y-70550000D01*
X133100000Y-70597844D01*
X132350500Y-70597844D01*
X132350500Y-69747844D01*
X133100000Y-69747844D01*
X133106401Y-69807372D01*
X133106403Y-69807382D01*
X133134110Y-69881668D01*
X133139094Y-69951359D01*
X133134110Y-69968332D01*
X133106403Y-70042617D01*
X133106401Y-70042627D01*
X133100000Y-70102155D01*
X133100000Y-70150000D01*
X133800000Y-70150000D01*
X133800000Y-69700000D01*
X133100000Y-69700000D01*
X133100000Y-69747844D01*
X132350500Y-69747844D01*
X132350500Y-68897844D01*
X133100000Y-68897844D01*
X133106401Y-68957372D01*
X133106403Y-68957382D01*
X133134110Y-69031668D01*
X133139094Y-69101359D01*
X133134110Y-69118332D01*
X133106403Y-69192617D01*
X133106401Y-69192627D01*
X133100000Y-69252155D01*
X133100000Y-69300000D01*
X133800000Y-69300000D01*
X133800000Y-68850000D01*
X133100000Y-68850000D01*
X133100000Y-68897844D01*
X132350500Y-68897844D01*
X132350500Y-68047844D01*
X133100000Y-68047844D01*
X133106401Y-68107372D01*
X133106403Y-68107382D01*
X133134110Y-68181668D01*
X133139094Y-68251359D01*
X133134110Y-68268332D01*
X133106403Y-68342617D01*
X133106401Y-68342627D01*
X133100000Y-68402155D01*
X133100000Y-68450000D01*
X133800000Y-68450000D01*
X133800000Y-68000000D01*
X133100000Y-68000000D01*
X133100000Y-68047844D01*
X132350500Y-68047844D01*
X132350500Y-67197844D01*
X133100000Y-67197844D01*
X133106401Y-67257372D01*
X133106403Y-67257382D01*
X133134110Y-67331668D01*
X133139094Y-67401359D01*
X133134110Y-67418332D01*
X133106403Y-67492617D01*
X133106401Y-67492627D01*
X133100000Y-67552155D01*
X133100000Y-67600000D01*
X133800000Y-67600000D01*
X133800000Y-67150000D01*
X133100000Y-67150000D01*
X133100000Y-67197844D01*
X132350500Y-67197844D01*
X132350500Y-66347844D01*
X133100000Y-66347844D01*
X133106401Y-66407372D01*
X133106403Y-66407382D01*
X133134110Y-66481668D01*
X133139094Y-66551359D01*
X133134110Y-66568332D01*
X133106403Y-66642617D01*
X133106401Y-66642627D01*
X133100000Y-66702155D01*
X133100000Y-66750000D01*
X133800000Y-66750000D01*
X133800000Y-66300000D01*
X133100000Y-66300000D01*
X133100000Y-66347844D01*
X132350500Y-66347844D01*
X132350500Y-65497844D01*
X133100000Y-65497844D01*
X133106401Y-65557372D01*
X133106403Y-65557382D01*
X133134110Y-65631668D01*
X133139094Y-65701359D01*
X133134110Y-65718332D01*
X133106403Y-65792617D01*
X133106401Y-65792627D01*
X133100000Y-65852155D01*
X133100000Y-65900000D01*
X133800000Y-65900000D01*
X133800000Y-65450000D01*
X133100000Y-65450000D01*
X133100000Y-65497844D01*
X132350500Y-65497844D01*
X132350500Y-65196544D01*
X132370185Y-65129505D01*
X132386819Y-65108863D01*
X132408863Y-65086819D01*
X132470186Y-65053334D01*
X132496544Y-65050500D01*
X132572472Y-65050500D01*
X132572475Y-65050500D01*
X132712485Y-65012984D01*
X132838015Y-64940509D01*
X132890444Y-64888079D01*
X132951765Y-64854595D01*
X133021457Y-64859579D01*
X133077390Y-64901450D01*
X133101808Y-64966914D01*
X133101414Y-64989013D01*
X133100000Y-65002164D01*
X133100000Y-65050000D01*
X133800000Y-65050000D01*
X133800000Y-63750000D01*
X133100000Y-63750000D01*
X133100000Y-63797844D01*
X133106401Y-63857372D01*
X133106403Y-63857382D01*
X133134110Y-63931668D01*
X133135994Y-63958024D01*
X133141612Y-63983846D01*
X133138774Y-63996890D01*
X133139094Y-64001359D01*
X133134110Y-64018334D01*
X133109921Y-64083187D01*
X133068049Y-64139120D01*
X133002585Y-64163537D01*
X132934312Y-64148685D01*
X132906058Y-64127534D01*
X132838017Y-64059493D01*
X132838011Y-64059488D01*
X132712488Y-63987017D01*
X132712489Y-63987017D01*
X132675900Y-63977213D01*
X132572475Y-63949500D01*
X132427525Y-63949500D01*
X132324100Y-63977213D01*
X132287511Y-63987017D01*
X132161988Y-64059488D01*
X132161982Y-64059493D01*
X132059493Y-64161982D01*
X132059488Y-64161988D01*
X131987017Y-64287511D01*
X131987016Y-64287515D01*
X131949500Y-64427525D01*
X131949500Y-64427527D01*
X131949500Y-64503456D01*
X131940855Y-64532896D01*
X131934332Y-64562883D01*
X131930577Y-64567898D01*
X131929815Y-64570495D01*
X131913181Y-64591137D01*
X131812181Y-64692137D01*
X131750858Y-64725622D01*
X131681166Y-64720638D01*
X131625233Y-64678766D01*
X131600816Y-64613302D01*
X131600500Y-64604456D01*
X131600500Y-64203858D01*
X131600500Y-64203856D01*
X131576614Y-64114712D01*
X131544732Y-64059491D01*
X131535726Y-64043891D01*
X131530472Y-64034791D01*
X131530468Y-64034786D01*
X130886819Y-63391137D01*
X130872115Y-63364209D01*
X130855523Y-63338391D01*
X130854631Y-63332190D01*
X130853334Y-63329814D01*
X130850500Y-63303456D01*
X130850500Y-63266819D01*
X130870185Y-63199780D01*
X130922989Y-63154025D01*
X130992147Y-63144081D01*
X130998677Y-63145199D01*
X131025326Y-63150500D01*
X131400874Y-63150500D01*
X131467913Y-63170185D01*
X131500141Y-63200189D01*
X131542809Y-63257186D01*
X131542814Y-63257191D01*
X131657906Y-63343350D01*
X131657913Y-63343354D01*
X131792620Y-63393596D01*
X131792627Y-63393598D01*
X131852155Y-63399999D01*
X131852172Y-63400000D01*
X131900000Y-63400000D01*
X132300000Y-63400000D01*
X132347828Y-63400000D01*
X132347844Y-63399999D01*
X132407371Y-63393598D01*
X132481666Y-63365888D01*
X132551358Y-63360904D01*
X132568334Y-63365888D01*
X132642628Y-63393598D01*
X132642627Y-63393598D01*
X132702155Y-63399999D01*
X132702172Y-63400000D01*
X132750000Y-63400000D01*
X132750000Y-63350000D01*
X133150000Y-63350000D01*
X133750000Y-63350000D01*
X133750000Y-62750000D01*
X133150000Y-62750000D01*
X133150000Y-63350000D01*
X132750000Y-63350000D01*
X132750000Y-62700000D01*
X132300000Y-62700000D01*
X132300000Y-63400000D01*
X131900000Y-63400000D01*
X131900000Y-62624000D01*
X131919685Y-62556961D01*
X131972489Y-62511206D01*
X132024000Y-62500000D01*
X132100000Y-62500000D01*
X132100000Y-62424000D01*
X132119685Y-62356961D01*
X132172489Y-62311206D01*
X132224000Y-62300000D01*
X132970000Y-62300000D01*
X132983681Y-62286319D01*
X133045004Y-62252834D01*
X133071362Y-62250000D01*
X133750000Y-62250000D01*
X133750000Y-61855000D01*
X133661500Y-61855000D01*
X133594461Y-61835315D01*
X133548706Y-61782511D01*
X133537500Y-61731000D01*
X133537500Y-59269000D01*
X133557185Y-59201961D01*
X133578421Y-59183559D01*
X133576181Y-59181319D01*
X133612500Y-59145000D01*
X133612500Y-58874000D01*
X133632185Y-58806961D01*
X133684989Y-58761206D01*
X133736500Y-58750000D01*
X133988500Y-58750000D01*
X134055539Y-58769685D01*
G37*
%TD.AperFunction*%
%TA.AperFunction,Conductor*%
G36*
X102622404Y-71046981D02*
G01*
X102659455Y-71064259D01*
X102706861Y-71070500D01*
X102933138Y-71070499D01*
X102967822Y-71065933D01*
X103036854Y-71076699D01*
X103071685Y-71101191D01*
X103371964Y-71401470D01*
X103412155Y-71424674D01*
X103412156Y-71424675D01*
X103451882Y-71447611D01*
X103451883Y-71447611D01*
X103451888Y-71447614D01*
X103541032Y-71471500D01*
X103541034Y-71471500D01*
X104098966Y-71471500D01*
X104098968Y-71471500D01*
X104188112Y-71447614D01*
X104188113Y-71447613D01*
X104195963Y-71445510D01*
X104196513Y-71447563D01*
X104254794Y-71441292D01*
X104317276Y-71472561D01*
X104352934Y-71532647D01*
X104350447Y-71602472D01*
X104320473Y-71651003D01*
X104309488Y-71661988D01*
X104237017Y-71787511D01*
X104237016Y-71787515D01*
X104199500Y-71927525D01*
X104199500Y-72072475D01*
X104236270Y-72209701D01*
X104237017Y-72212488D01*
X104309488Y-72338011D01*
X104309493Y-72338017D01*
X104409295Y-72437819D01*
X104442780Y-72499142D01*
X104437796Y-72568834D01*
X104395924Y-72624767D01*
X104330460Y-72649184D01*
X104321614Y-72649500D01*
X103604548Y-72649500D01*
X103537509Y-72629815D01*
X103516867Y-72613181D01*
X102242819Y-71339133D01*
X102228115Y-71312205D01*
X102211523Y-71286387D01*
X102210631Y-71280186D01*
X102209334Y-71277810D01*
X102206500Y-71251452D01*
X102206500Y-71194499D01*
X102226185Y-71127460D01*
X102278989Y-71081705D01*
X102330497Y-71070499D01*
X102433138Y-71070499D01*
X102480545Y-71064259D01*
X102517595Y-71046981D01*
X102586672Y-71036490D01*
X102622404Y-71046981D01*
G37*
%TD.AperFunction*%
%TA.AperFunction,Conductor*%
G36*
X109662933Y-68569299D02*
G01*
X109673275Y-68567306D01*
X109696488Y-68576598D01*
X109720917Y-68581913D01*
X109733737Y-68591510D01*
X109738140Y-68593273D01*
X109749171Y-68603064D01*
X109774152Y-68628045D01*
X109774154Y-68628046D01*
X109774158Y-68628050D01*
X109863710Y-68673679D01*
X109887198Y-68685647D01*
X109980975Y-68700499D01*
X109980981Y-68700500D01*
X110452523Y-68700499D01*
X110452525Y-68700500D01*
X110597475Y-68700500D01*
X110597477Y-68700499D01*
X111069018Y-68700499D01*
X111162804Y-68685646D01*
X111219208Y-68656906D01*
X111221910Y-68656398D01*
X111223989Y-68654598D01*
X111256038Y-68649989D01*
X111287874Y-68644011D01*
X111290423Y-68645045D01*
X111293147Y-68644654D01*
X111322610Y-68658109D01*
X111352614Y-68670287D01*
X111354199Y-68672535D01*
X111356703Y-68673679D01*
X111374212Y-68700923D01*
X111392872Y-68727393D01*
X111393445Y-68730851D01*
X111394477Y-68732457D01*
X111399500Y-68767392D01*
X111399500Y-68946241D01*
X111379815Y-69013280D01*
X111363181Y-69033922D01*
X109363422Y-71033681D01*
X109302099Y-71067166D01*
X109275741Y-71070000D01*
X108690000Y-71070000D01*
X108690000Y-70570000D01*
X109390000Y-70570000D01*
X109390000Y-70171508D01*
X109389999Y-70171504D01*
X109351572Y-69978318D01*
X109351569Y-69978306D01*
X109276192Y-69796328D01*
X109276185Y-69796315D01*
X109166751Y-69632537D01*
X109166748Y-69632533D01*
X109027466Y-69493251D01*
X109027462Y-69493248D01*
X108960929Y-69448792D01*
X108916124Y-69395180D01*
X108907417Y-69325855D01*
X108937571Y-69262827D01*
X108942102Y-69258047D01*
X109530470Y-68669680D01*
X109554103Y-68628745D01*
X109572196Y-68611492D01*
X109587180Y-68591478D01*
X109597045Y-68587798D01*
X109604668Y-68580530D01*
X109629220Y-68575797D01*
X109652644Y-68567061D01*
X109662933Y-68569299D01*
G37*
%TD.AperFunction*%
%TA.AperFunction,Conductor*%
G36*
X107154685Y-69997550D02*
G01*
X107163647Y-69996262D01*
X107187687Y-70007240D01*
X107213039Y-70014685D01*
X107218966Y-70021525D01*
X107227203Y-70025287D01*
X107241492Y-70047521D01*
X107258794Y-70067489D01*
X107261081Y-70078003D01*
X107264977Y-70084065D01*
X107270000Y-70119000D01*
X107270000Y-70245000D01*
X107396000Y-70245000D01*
X107463039Y-70264685D01*
X107508794Y-70317489D01*
X107520000Y-70369000D01*
X107520000Y-70766758D01*
X107500315Y-70833797D01*
X107447511Y-70879552D01*
X107378353Y-70889496D01*
X107320760Y-70863194D01*
X107319811Y-70864432D01*
X107313368Y-70859488D01*
X107313365Y-70859485D01*
X107182135Y-70783719D01*
X107112405Y-70765035D01*
X107052745Y-70728669D01*
X107022216Y-70665822D01*
X107020499Y-70645271D01*
X107020499Y-70118998D01*
X107040184Y-70051961D01*
X107092988Y-70006206D01*
X107144499Y-69995000D01*
X107146000Y-69995000D01*
X107154685Y-69997550D01*
G37*
%TD.AperFunction*%
%TA.AperFunction,Conductor*%
G36*
X100813039Y-70014685D02*
G01*
X100858794Y-70067489D01*
X100870000Y-70119000D01*
X100870000Y-70245000D01*
X100995501Y-70245000D01*
X101062540Y-70264685D01*
X101108295Y-70317489D01*
X101119501Y-70369000D01*
X101119501Y-70645260D01*
X101099816Y-70712299D01*
X101047012Y-70758054D01*
X101027593Y-70765035D01*
X100957865Y-70783719D01*
X100957863Y-70783719D01*
X100957863Y-70783720D01*
X100826635Y-70859485D01*
X100820189Y-70864432D01*
X100818178Y-70861811D01*
X100770358Y-70887924D01*
X100700666Y-70882940D01*
X100644733Y-70841068D01*
X100620316Y-70775604D01*
X100620000Y-70766758D01*
X100620000Y-70495000D01*
X100064000Y-70495000D01*
X100050000Y-70490889D01*
X100050000Y-70230504D01*
X100029556Y-70154204D01*
X99990060Y-70085795D01*
X99958899Y-70054634D01*
X99959685Y-70051961D01*
X100012489Y-70006206D01*
X100064000Y-69995000D01*
X100746000Y-69995000D01*
X100813039Y-70014685D01*
G37*
%TD.AperFunction*%
%TA.AperFunction,Conductor*%
G36*
X108193039Y-66969685D02*
G01*
X108238794Y-67022489D01*
X108250000Y-67074000D01*
X108250000Y-67326000D01*
X108230315Y-67393039D01*
X108177511Y-67438794D01*
X108126000Y-67450000D01*
X107090205Y-67450000D01*
X107090204Y-67450001D01*
X107090399Y-67452488D01*
X107114376Y-67535017D01*
X107114176Y-67604886D01*
X107084708Y-67650451D01*
X107089503Y-67649086D01*
X107117391Y-67657523D01*
X107145960Y-67663207D01*
X107150538Y-67667552D01*
X107156379Y-67669320D01*
X107182861Y-67692651D01*
X107312655Y-67844950D01*
X107324975Y-67872523D01*
X107339445Y-67899023D01*
X107339082Y-67904096D01*
X107341158Y-67908742D01*
X107340753Y-67944773D01*
X107337000Y-67968475D01*
X107337000Y-68331517D01*
X107351854Y-68425306D01*
X107351855Y-68425309D01*
X107353874Y-68429270D01*
X107358434Y-68453551D01*
X107367072Y-68476702D01*
X107364770Y-68487290D01*
X107366770Y-68497939D01*
X107357478Y-68520831D01*
X107352229Y-68544977D01*
X107342285Y-68558263D01*
X107340493Y-68562679D01*
X107331081Y-68573234D01*
X107323147Y-68581170D01*
X107261828Y-68614663D01*
X107235455Y-68617500D01*
X107096524Y-68617500D01*
X107029485Y-68597815D01*
X106983730Y-68545011D01*
X106973235Y-68480242D01*
X106975499Y-68459185D01*
X106975500Y-68459173D01*
X106975500Y-67865826D01*
X106975499Y-67865809D01*
X106969713Y-67812000D01*
X106969251Y-67807701D01*
X106969246Y-67807688D01*
X106967808Y-67801598D01*
X106968140Y-67795393D01*
X106965606Y-67789721D01*
X106969988Y-67760920D01*
X106971548Y-67731829D01*
X106975182Y-67726789D01*
X106976117Y-67720646D01*
X106995376Y-67698784D01*
X107001188Y-67690725D01*
X106943465Y-67682257D01*
X106896032Y-67643922D01*
X106879847Y-67622302D01*
X106836116Y-67563884D01*
X106820448Y-67552155D01*
X106734543Y-67487846D01*
X106692673Y-67431912D01*
X106687689Y-67362221D01*
X106721175Y-67300898D01*
X106769853Y-67270873D01*
X106801303Y-67260451D01*
X106801311Y-67260448D01*
X106948034Y-67169947D01*
X106948038Y-67169944D01*
X106957500Y-67160482D01*
X106957500Y-67074000D01*
X106977185Y-67006961D01*
X107029989Y-66961206D01*
X107081500Y-66950000D01*
X108126000Y-66950000D01*
X108193039Y-66969685D01*
G37*
%TD.AperFunction*%
%TA.AperFunction,Conductor*%
G36*
X105378269Y-66995106D02*
G01*
X105424384Y-67038843D01*
X105430056Y-67048039D01*
X105551961Y-67169944D01*
X105551965Y-67169947D01*
X105698688Y-67260448D01*
X105698701Y-67260454D01*
X105730147Y-67270874D01*
X105787592Y-67310646D01*
X105814416Y-67375161D01*
X105802102Y-67443937D01*
X105765456Y-67487846D01*
X105663884Y-67563884D01*
X105599266Y-67650202D01*
X105543332Y-67692072D01*
X105473641Y-67697056D01*
X105412318Y-67663570D01*
X105400734Y-67650202D01*
X105336116Y-67563884D01*
X105223780Y-67479789D01*
X105223778Y-67479788D01*
X105181138Y-67463884D01*
X105092299Y-67430748D01*
X105034190Y-67424500D01*
X105034174Y-67424500D01*
X104465826Y-67424500D01*
X104465809Y-67424500D01*
X104407700Y-67430748D01*
X104276219Y-67479789D01*
X104163883Y-67563884D01*
X104099266Y-67650202D01*
X104043332Y-67692072D01*
X103973641Y-67697056D01*
X103912318Y-67663570D01*
X103900734Y-67650202D01*
X103872137Y-67612002D01*
X103836116Y-67563884D01*
X103758396Y-67505703D01*
X103734543Y-67487846D01*
X103692673Y-67431912D01*
X103687689Y-67362221D01*
X103721175Y-67300898D01*
X103769853Y-67270873D01*
X103801303Y-67260451D01*
X103801311Y-67260448D01*
X103948034Y-67169947D01*
X103948038Y-67169944D01*
X104069942Y-67048040D01*
X104075612Y-67038848D01*
X104127558Y-66992121D01*
X104196520Y-66980896D01*
X104255466Y-67004674D01*
X104273909Y-67018481D01*
X104276222Y-67020212D01*
X104368034Y-67054456D01*
X104407700Y-67069251D01*
X104465809Y-67075499D01*
X104465826Y-67075500D01*
X105034174Y-67075500D01*
X105034190Y-67075499D01*
X105092299Y-67069251D01*
X105108249Y-67063302D01*
X105223778Y-67020212D01*
X105244533Y-67004674D01*
X105309995Y-66980256D01*
X105378269Y-66995106D01*
G37*
%TD.AperFunction*%
%TA.AperFunction,Conductor*%
G36*
X107650219Y-58020185D02*
G01*
X107695974Y-58072989D01*
X107705918Y-58142147D01*
X107704798Y-58148690D01*
X107699500Y-58175326D01*
X107699500Y-59824678D01*
X107714032Y-59897735D01*
X107714033Y-59897739D01*
X107724410Y-59913269D01*
X107769399Y-59980601D01*
X107841742Y-60028938D01*
X107852260Y-60035966D01*
X107852264Y-60035967D01*
X107925321Y-60050499D01*
X107925324Y-60050500D01*
X107925326Y-60050500D01*
X108824674Y-60050500D01*
X108847366Y-60045986D01*
X108916957Y-60052212D01*
X108959240Y-60079922D01*
X109867637Y-60988319D01*
X109901122Y-61049642D01*
X109896138Y-61119334D01*
X109854266Y-61175267D01*
X109788802Y-61199684D01*
X109779956Y-61200000D01*
X109652155Y-61200000D01*
X109592627Y-61206401D01*
X109592620Y-61206403D01*
X109457913Y-61256645D01*
X109457906Y-61256649D01*
X109342812Y-61342809D01*
X109342809Y-61342812D01*
X109256649Y-61457906D01*
X109256645Y-61457913D01*
X109227712Y-61535488D01*
X109185841Y-61591422D01*
X109120376Y-61615839D01*
X109052103Y-61600987D01*
X109008427Y-61561045D01*
X108980601Y-61519399D01*
X108923440Y-61481206D01*
X108897739Y-61464033D01*
X108897735Y-61464032D01*
X108824677Y-61449500D01*
X108824674Y-61449500D01*
X107925326Y-61449500D01*
X107925323Y-61449500D01*
X107852264Y-61464032D01*
X107852260Y-61464033D01*
X107769399Y-61519399D01*
X107714033Y-61602260D01*
X107714032Y-61602264D01*
X107699500Y-61675321D01*
X107699500Y-63324678D01*
X107714032Y-63397735D01*
X107714033Y-63397739D01*
X107714034Y-63397740D01*
X107769399Y-63480601D01*
X107822856Y-63516319D01*
X107852260Y-63535966D01*
X107852264Y-63535967D01*
X107925321Y-63550499D01*
X107925324Y-63550500D01*
X107925326Y-63550500D01*
X108824676Y-63550500D01*
X108824677Y-63550499D01*
X108897740Y-63535966D01*
X108980601Y-63480601D01*
X109008428Y-63438954D01*
X109062039Y-63394149D01*
X109131363Y-63385440D01*
X109194391Y-63415594D01*
X109227712Y-63464511D01*
X109256645Y-63542086D01*
X109256649Y-63542093D01*
X109342809Y-63657187D01*
X109342812Y-63657190D01*
X109457906Y-63743350D01*
X109457913Y-63743354D01*
X109592620Y-63793596D01*
X109592627Y-63793598D01*
X109652155Y-63799999D01*
X109652172Y-63800000D01*
X109875000Y-63800000D01*
X110375000Y-63800000D01*
X110597828Y-63800000D01*
X110597844Y-63799999D01*
X110657372Y-63793598D01*
X110657379Y-63793596D01*
X110792086Y-63743354D01*
X110792093Y-63743350D01*
X110907187Y-63657190D01*
X110907190Y-63657187D01*
X110993350Y-63542093D01*
X110993354Y-63542086D01*
X111043596Y-63407379D01*
X111043598Y-63407372D01*
X111049999Y-63347844D01*
X111050000Y-63347827D01*
X111050000Y-62750000D01*
X110375000Y-62750000D01*
X110375000Y-63800000D01*
X109875000Y-63800000D01*
X109875000Y-62624000D01*
X109894685Y-62556961D01*
X109947489Y-62511206D01*
X109999000Y-62500000D01*
X110125000Y-62500000D01*
X110125000Y-62374000D01*
X110144685Y-62306961D01*
X110197489Y-62261206D01*
X110249000Y-62250000D01*
X111077956Y-62250000D01*
X111144995Y-62269685D01*
X111165637Y-62286319D01*
X111363181Y-62483863D01*
X111396666Y-62545186D01*
X111399500Y-62571544D01*
X111399500Y-65632607D01*
X111379815Y-65699646D01*
X111327011Y-65745401D01*
X111257853Y-65755345D01*
X111219205Y-65743092D01*
X111213468Y-65740169D01*
X111207437Y-65737096D01*
X111162801Y-65714352D01*
X111069024Y-65699500D01*
X111069019Y-65699500D01*
X110597476Y-65699500D01*
X110597475Y-65699500D01*
X110452525Y-65699500D01*
X110452522Y-65699500D01*
X109980982Y-65699500D01*
X109900019Y-65712323D01*
X109887196Y-65714354D01*
X109774158Y-65771950D01*
X109774157Y-65771951D01*
X109774152Y-65771954D01*
X109684454Y-65861652D01*
X109684452Y-65861656D01*
X109684450Y-65861658D01*
X109677486Y-65875326D01*
X109626852Y-65974698D01*
X109611999Y-66068477D01*
X109611618Y-66073331D01*
X109610161Y-66073216D01*
X109592315Y-66133995D01*
X109539511Y-66179750D01*
X109470353Y-66189694D01*
X109406797Y-66160669D01*
X109400319Y-66154637D01*
X109215213Y-65969531D01*
X109215212Y-65969530D01*
X109148272Y-65930882D01*
X109100057Y-65880316D01*
X109099994Y-65880193D01*
X109090550Y-65861658D01*
X109090548Y-65861656D01*
X109090545Y-65861652D01*
X109000847Y-65771954D01*
X109000844Y-65771952D01*
X109000842Y-65771950D01*
X108924017Y-65732805D01*
X108887801Y-65714352D01*
X108794024Y-65699500D01*
X107705982Y-65699500D01*
X107625019Y-65712323D01*
X107612196Y-65714354D01*
X107499158Y-65771950D01*
X107499157Y-65771951D01*
X107499152Y-65771954D01*
X107409454Y-65861652D01*
X107403717Y-65869550D01*
X107401897Y-65868228D01*
X107363046Y-65909355D01*
X107295223Y-65926144D01*
X107229091Y-65903599D01*
X107185645Y-65848879D01*
X107182841Y-65841261D01*
X107160454Y-65773701D01*
X107160448Y-65773688D01*
X107069947Y-65626965D01*
X107069944Y-65626961D01*
X106948038Y-65505055D01*
X106948034Y-65505052D01*
X106801311Y-65414551D01*
X106801300Y-65414546D01*
X106637652Y-65360319D01*
X106536654Y-65350000D01*
X106500000Y-65350000D01*
X106500000Y-66213500D01*
X106480315Y-66280539D01*
X106427511Y-66326294D01*
X106376000Y-66337500D01*
X106124000Y-66337500D01*
X106056961Y-66317815D01*
X106011206Y-66265011D01*
X106000000Y-66213500D01*
X106000000Y-65350000D01*
X105963361Y-65350000D01*
X105963343Y-65350001D01*
X105862347Y-65360319D01*
X105698699Y-65414546D01*
X105698688Y-65414551D01*
X105551964Y-65505053D01*
X105551404Y-65505496D01*
X105550947Y-65505679D01*
X105545815Y-65508846D01*
X105545273Y-65507968D01*
X105486607Y-65531632D01*
X105417965Y-65518586D01*
X105367274Y-65470502D01*
X105350500Y-65408224D01*
X105350500Y-63354499D01*
X105370185Y-63287460D01*
X105422989Y-63241705D01*
X105474500Y-63230499D01*
X106145007Y-63230499D01*
X106145007Y-63230498D01*
X106241715Y-63215182D01*
X106358281Y-63155789D01*
X106450789Y-63063281D01*
X106510182Y-62946715D01*
X106525500Y-62850003D01*
X106525499Y-62459998D01*
X106525499Y-62459996D01*
X106525499Y-62459992D01*
X106510182Y-62363286D01*
X106510182Y-62363285D01*
X106506778Y-62356604D01*
X106450789Y-62246719D01*
X106450785Y-62246715D01*
X106450784Y-62246713D01*
X106358286Y-62154215D01*
X106358282Y-62154212D01*
X106358281Y-62154211D01*
X106311714Y-62130484D01*
X106260919Y-62082511D01*
X106244123Y-62014690D01*
X106266660Y-61948555D01*
X106311713Y-61909516D01*
X106358281Y-61885789D01*
X106450789Y-61793281D01*
X106510182Y-61676715D01*
X106511724Y-61666983D01*
X106516141Y-61639094D01*
X106525500Y-61580003D01*
X106525499Y-61189998D01*
X106525499Y-61189996D01*
X106525499Y-61189992D01*
X106510182Y-61093286D01*
X106510182Y-61093285D01*
X106504008Y-61081168D01*
X106450789Y-60976719D01*
X106450785Y-60976715D01*
X106450784Y-60976713D01*
X106358286Y-60884215D01*
X106358282Y-60884212D01*
X106358281Y-60884211D01*
X106311714Y-60860484D01*
X106260919Y-60812511D01*
X106244123Y-60744690D01*
X106266660Y-60678555D01*
X106311713Y-60639516D01*
X106358281Y-60615789D01*
X106450789Y-60523281D01*
X106510182Y-60406715D01*
X106525500Y-60310003D01*
X106525499Y-59919998D01*
X106525499Y-59919996D01*
X106525499Y-59919992D01*
X106511254Y-59830052D01*
X106510182Y-59823285D01*
X106450789Y-59706719D01*
X106450785Y-59706715D01*
X106450784Y-59706713D01*
X106358285Y-59614214D01*
X106358279Y-59614210D01*
X106311714Y-59590484D01*
X106260919Y-59542511D01*
X106244123Y-59474690D01*
X106266660Y-59408555D01*
X106311713Y-59369516D01*
X106358281Y-59345789D01*
X106450789Y-59253281D01*
X106510182Y-59136715D01*
X106511596Y-59127792D01*
X106519907Y-59075315D01*
X106525500Y-59040003D01*
X106525499Y-58649998D01*
X106525499Y-58649996D01*
X106525499Y-58649992D01*
X106511593Y-58562197D01*
X106510182Y-58553285D01*
X106450789Y-58436719D01*
X106450785Y-58436715D01*
X106450784Y-58436713D01*
X106358286Y-58344215D01*
X106358282Y-58344212D01*
X106358281Y-58344211D01*
X106241715Y-58284818D01*
X106241714Y-58284817D01*
X106241711Y-58284816D01*
X106241712Y-58284816D01*
X106145003Y-58269500D01*
X104429992Y-58269500D01*
X104429992Y-58269501D01*
X104333286Y-58284817D01*
X104333285Y-58284817D01*
X104273686Y-58315185D01*
X104216719Y-58344211D01*
X104216718Y-58344212D01*
X104216713Y-58344215D01*
X104124215Y-58436713D01*
X104124210Y-58436720D01*
X104064816Y-58553288D01*
X104049500Y-58649996D01*
X104049500Y-59040007D01*
X104064817Y-59136713D01*
X104064817Y-59136714D01*
X104064818Y-59136715D01*
X104124211Y-59253281D01*
X104124213Y-59253283D01*
X104124215Y-59253286D01*
X104216713Y-59345784D01*
X104216717Y-59345787D01*
X104216719Y-59345789D01*
X104263286Y-59369516D01*
X104314080Y-59417487D01*
X104330876Y-59485308D01*
X104308340Y-59551443D01*
X104263287Y-59590483D01*
X104216718Y-59614211D01*
X104216715Y-59614214D01*
X104124215Y-59706713D01*
X104124210Y-59706720D01*
X104064816Y-59823288D01*
X104049500Y-59919996D01*
X104049500Y-60310007D01*
X104064817Y-60406713D01*
X104064817Y-60406714D01*
X104064818Y-60406715D01*
X104124211Y-60523281D01*
X104124213Y-60523283D01*
X104124215Y-60523286D01*
X104216713Y-60615784D01*
X104216717Y-60615787D01*
X104216719Y-60615789D01*
X104263286Y-60639516D01*
X104314080Y-60687487D01*
X104330876Y-60755308D01*
X104308340Y-60821443D01*
X104263287Y-60860483D01*
X104216718Y-60884211D01*
X104216713Y-60884215D01*
X104124215Y-60976713D01*
X104124210Y-60976720D01*
X104064816Y-61093288D01*
X104049500Y-61189996D01*
X104049500Y-61580007D01*
X104064817Y-61676713D01*
X104064817Y-61676714D01*
X104082838Y-61712082D01*
X104124211Y-61793281D01*
X104124213Y-61793283D01*
X104124215Y-61793286D01*
X104216713Y-61885784D01*
X104216717Y-61885787D01*
X104216719Y-61885789D01*
X104263286Y-61909516D01*
X104314080Y-61957487D01*
X104330876Y-62025308D01*
X104308340Y-62091443D01*
X104263287Y-62130483D01*
X104216718Y-62154211D01*
X104216713Y-62154215D01*
X104124215Y-62246713D01*
X104124210Y-62246720D01*
X104064816Y-62363288D01*
X104049500Y-62459996D01*
X104049500Y-62850007D01*
X104064817Y-62946713D01*
X104064817Y-62946714D01*
X104084362Y-62985073D01*
X104124211Y-63063281D01*
X104124213Y-63063283D01*
X104124215Y-63063286D01*
X104216713Y-63155784D01*
X104216716Y-63155786D01*
X104216719Y-63155789D01*
X104333285Y-63215182D01*
X104333286Y-63215182D01*
X104333288Y-63215183D01*
X104333287Y-63215183D01*
X104376618Y-63222045D01*
X104429997Y-63230500D01*
X104525500Y-63230499D01*
X104592538Y-63250183D01*
X104638294Y-63302986D01*
X104649500Y-63354499D01*
X104649500Y-65475500D01*
X104629815Y-65542539D01*
X104577011Y-65588294D01*
X104525500Y-65599500D01*
X104465809Y-65599500D01*
X104407700Y-65605748D01*
X104311731Y-65641543D01*
X104276222Y-65654788D01*
X104276220Y-65654789D01*
X104276218Y-65654790D01*
X104255463Y-65670327D01*
X104189999Y-65694743D01*
X104121726Y-65679891D01*
X104075614Y-65636154D01*
X104069943Y-65626960D01*
X103948038Y-65505055D01*
X103948034Y-65505052D01*
X103801311Y-65414551D01*
X103801300Y-65414546D01*
X103637652Y-65360319D01*
X103536654Y-65350000D01*
X103500000Y-65350000D01*
X103500000Y-66213500D01*
X103480315Y-66280539D01*
X103427511Y-66326294D01*
X103376000Y-66337500D01*
X103250000Y-66337500D01*
X103250000Y-66463500D01*
X103230315Y-66530539D01*
X103177511Y-66576294D01*
X103126000Y-66587500D01*
X101355000Y-66587500D01*
X101341319Y-66601181D01*
X101279996Y-66634666D01*
X101253638Y-66637500D01*
X100374000Y-66637500D01*
X100306961Y-66617815D01*
X100261206Y-66565011D01*
X100250000Y-66513500D01*
X100250000Y-66387500D01*
X100124000Y-66387500D01*
X100056961Y-66367815D01*
X100011206Y-66315011D01*
X100000000Y-66263500D01*
X100000000Y-66137500D01*
X100500000Y-66137500D01*
X100645000Y-66137500D01*
X100658681Y-66123819D01*
X100720004Y-66090334D01*
X100746362Y-66087500D01*
X101500000Y-66087500D01*
X102000000Y-66087500D01*
X103000000Y-66087500D01*
X103000000Y-65350000D01*
X102963361Y-65350000D01*
X102963343Y-65350001D01*
X102862347Y-65360319D01*
X102698699Y-65414546D01*
X102698694Y-65414548D01*
X102565097Y-65496953D01*
X102497705Y-65515393D01*
X102434903Y-65496953D01*
X102301305Y-65414548D01*
X102301300Y-65414546D01*
X102137652Y-65360319D01*
X102036654Y-65350000D01*
X102000000Y-65350000D01*
X102000000Y-66087500D01*
X101500000Y-66087500D01*
X101500000Y-65350000D01*
X101463361Y-65350000D01*
X101463343Y-65350001D01*
X101362347Y-65360319D01*
X101198699Y-65414546D01*
X101198694Y-65414548D01*
X101065097Y-65496953D01*
X100997705Y-65515393D01*
X100934903Y-65496953D01*
X100801305Y-65414548D01*
X100801300Y-65414546D01*
X100637652Y-65360319D01*
X100536654Y-65350000D01*
X100500000Y-65350000D01*
X100500000Y-66137500D01*
X100000000Y-66137500D01*
X100000000Y-65381898D01*
X99901566Y-65341647D01*
X99897502Y-65338402D01*
X99892392Y-65337452D01*
X99870478Y-65316825D01*
X99846965Y-65298052D01*
X99845301Y-65293127D01*
X99841515Y-65289564D01*
X99830970Y-65250713D01*
X99824600Y-65231858D01*
X99825201Y-65229456D01*
X99824500Y-65226872D01*
X99824500Y-63590043D01*
X99844185Y-63523004D01*
X99860815Y-63502366D01*
X100096363Y-63266817D01*
X100157686Y-63233333D01*
X100184044Y-63230499D01*
X101070007Y-63230499D01*
X101070007Y-63230498D01*
X101166715Y-63215182D01*
X101283281Y-63155789D01*
X101375789Y-63063281D01*
X101435182Y-62946715D01*
X101450500Y-62850003D01*
X101450499Y-62459998D01*
X101450499Y-62459996D01*
X101450499Y-62459992D01*
X101435182Y-62363286D01*
X101435182Y-62363285D01*
X101431778Y-62356604D01*
X101375789Y-62246719D01*
X101375785Y-62246715D01*
X101375784Y-62246713D01*
X101283286Y-62154215D01*
X101283282Y-62154212D01*
X101283281Y-62154211D01*
X101236714Y-62130484D01*
X101185919Y-62082511D01*
X101169123Y-62014690D01*
X101191660Y-61948555D01*
X101236713Y-61909516D01*
X101283281Y-61885789D01*
X101375789Y-61793281D01*
X101435182Y-61676715D01*
X101436724Y-61666983D01*
X101441141Y-61639094D01*
X101450500Y-61580003D01*
X101450499Y-61189998D01*
X101450499Y-61189996D01*
X101450499Y-61189992D01*
X101435182Y-61093286D01*
X101435182Y-61093285D01*
X101429008Y-61081168D01*
X101375789Y-60976719D01*
X101375785Y-60976715D01*
X101375784Y-60976713D01*
X101283286Y-60884215D01*
X101283282Y-60884212D01*
X101283281Y-60884211D01*
X101236714Y-60860484D01*
X101185919Y-60812511D01*
X101169123Y-60744690D01*
X101191660Y-60678555D01*
X101236713Y-60639516D01*
X101283281Y-60615789D01*
X101375789Y-60523281D01*
X101435182Y-60406715D01*
X101450500Y-60310003D01*
X101450499Y-59919998D01*
X101450499Y-59919996D01*
X101450499Y-59919992D01*
X101436254Y-59830052D01*
X101435182Y-59823285D01*
X101377667Y-59710406D01*
X101364772Y-59641739D01*
X101391048Y-59576998D01*
X101424004Y-59547996D01*
X101449077Y-59532838D01*
X101449081Y-59532835D01*
X101562836Y-59419080D01*
X101646072Y-59281392D01*
X101693932Y-59127802D01*
X101693935Y-59127792D01*
X101696914Y-59095000D01*
X100336500Y-59095000D01*
X100269461Y-59075315D01*
X100223706Y-59022511D01*
X100212500Y-58971000D01*
X100212500Y-58719000D01*
X100232185Y-58651961D01*
X100284989Y-58606206D01*
X100336500Y-58595000D01*
X101696915Y-58595000D01*
X101696914Y-58594999D01*
X101693935Y-58562207D01*
X101693932Y-58562197D01*
X101646072Y-58408607D01*
X101562836Y-58270919D01*
X101504098Y-58212181D01*
X101470613Y-58150858D01*
X101475597Y-58081166D01*
X101517469Y-58025233D01*
X101582933Y-58000816D01*
X101591779Y-58000500D01*
X107583180Y-58000500D01*
X107650219Y-58020185D01*
G37*
%TD.AperFunction*%
%TD*%
M02*
